ISO-10303-21;
HEADER;
FILE_DESCRIPTION (( 'STEP AP203' ),
    '1' );
FILE_NAME ('bolster_bottom_prog.STEP',
    '2025-12-05T11:53:46',
    ( '' ),
    ( '' ),
    'SwSTEP 2.0',
    'SolidWorks 2020',
    '' );
FILE_SCHEMA (( 'CONFIG_CONTROL_DESIGN' ));
ENDSEC;

DATA;
#1 = VERTEX_POINT ( 'NONE', #168 ) ;
#2 = ADVANCED_FACE ( 'NONE', ( #16 ), #622, .F. ) ;
#3 = LINE ( 'NONE', #701, #508 ) ;
#4 = CARTESIAN_POINT ( 'NONE',  ( -48.50000000000000000, 3.999999999999999112, -34.49999999999999289 ) ) ;
#5 = CIRCLE ( 'NONE', #374, 2.000000000000001776 ) ;
#6 = ORIENTED_EDGE ( 'NONE', *, *, #557, .T. ) ;
#7 = DIRECTION ( 'NONE',  ( 0.000000000000000000, 0.000000000000000000, 1.000000000000000000 ) ) ;
#8 = VERTEX_POINT ( 'NONE', #305 ) ;
#9 = CARTESIAN_POINT ( 'NONE',  ( -84.99999999999998579, 0.000000000000000000, 60.00000000000000711 ) ) ;
#10 = EDGE_LOOP ( 'NONE', ( #122, #239, #190, #905 ) ) ;
#11 = CARTESIAN_POINT ( 'NONE',  ( -69.99999999999998579, -0.0009999999999992653654, 44.99999999999999289 ) ) ;
#12 = EDGE_CURVE ( 'NONE', #213, #380, #672, .T. ) ;
#13 = LINE ( 'NONE', #186, #163 ) ;
#14 = ADVANCED_FACE ( 'NONE', ( #91 ), #917, .F. ) ;
#15 = COORDINATED_UNIVERSAL_TIME_OFFSET ( 0, 0, .AHEAD. ) ;
#16 = FACE_OUTER_BOUND ( 'NONE', #822, .T. ) ;
#17 = CARTESIAN_POINT ( 'NONE',  ( 48.50000000000000000, 11.00000000000000000, -38.50000000000001421 ) ) ;
#18 = LINE ( 'NONE', #561, #288 ) ;
#19 = AXIS2_PLACEMENT_3D ( 'NONE', #369, #212, #377 ) ;
#20 = AXIS2_PLACEMENT_3D ( 'NONE', #481, #253, #633 ) ;
#21 = VERTEX_POINT ( 'NONE', #547 ) ;
#22 = LINE ( 'NONE', #940, #470 ) ;
#23 =( NAMED_UNIT ( * ) PLANE_ANGLE_UNIT ( ) SI_UNIT ( $, .RADIAN. ) );
#24 = EDGE_CURVE ( 'NONE', #726, #222, #243, .T. ) ;
#25 = LINE ( 'NONE', #572, #624 ) ;
#26 = CARTESIAN_POINT ( 'NONE',  ( 48.50000000000001421, 11.00000000000000000, 38.49999999999998579 ) ) ;
#27 = AXIS2_PLACEMENT_3D ( 'NONE', #178, #946, #34 ) ;
#28 = DIRECTION ( 'NONE',  ( 0.000000000000000000, 0.000000000000000000, 1.000000000000000000 ) ) ;
#29 = CARTESIAN_POINT ( 'NONE',  ( -54.60000000000000142, 15.00000000000000000, -42.60000000000000853 ) ) ;
#30 = DIRECTION ( 'NONE',  ( -0.000000000000000000, 1.000000000000000000, -0.000000000000000000 ) ) ;
#31 = CIRCLE ( 'NONE', #62, 7.524999999999996803 ) ;
#32 = ORIENTED_EDGE ( 'NONE', *, *, #415, .F. ) ;
#33 = DIRECTION ( 'NONE',  ( -1.000000000000000000, 0.000000000000000000, 0.000000000000000000 ) ) ;
#34 = DIRECTION ( 'NONE',  ( 0.000000000000000000, 0.000000000000000000, 1.000000000000000000 ) ) ;
#35 = ORIENTED_EDGE ( 'NONE', *, *, #326, .F. ) ;
#36 = ORIENTED_EDGE ( 'NONE', *, *, #777, .F. ) ;
#37 = VERTEX_POINT ( 'NONE', #564 ) ;
#38 = LINE ( 'NONE', #968, #337 ) ;
#39 = AXIS2_PLACEMENT_3D ( 'NONE', #488, #115, #793 ) ;
#40 = DIRECTION ( 'NONE',  ( -0.000000000000000000, 1.000000000000000000, -0.000000000000000000 ) ) ;
#41 = ORIENTED_EDGE ( 'NONE', *, *, #409, .T. ) ;
#42 = CC_DESIGN_APPROVAL ( #484, ( #367 ) ) ;
#43 = DIRECTION ( 'NONE',  ( 0.000000000000000000, 0.000000000000000000, 1.000000000000000000 ) ) ;
#44 = CARTESIAN_POINT ( 'NONE',  ( -84.99999999999998579, 15.00000000000000000, -59.99999999999999289 ) ) ;
#45 = ORIENTED_EDGE ( 'NONE', *, *, #490, .F. ) ;
#46 = DIRECTION ( 'NONE',  ( -0.000000000000000000, 1.000000000000000000, -0.000000000000000000 ) ) ;
#47 = CARTESIAN_POINT ( 'NONE',  ( 85.00000000000001421, 15.00000000000000000, -59.99999999999999289 ) ) ;
#48 = DIRECTION ( 'NONE',  ( 0.000000000000000000, -0.000000000000000000, 1.000000000000000000 ) ) ;
#49 = ORIENTED_EDGE ( 'NONE', *, *, #974, .T. ) ;
#50 = DIRECTION ( 'NONE',  ( -0.000000000000000000, 1.000000000000000000, -0.000000000000000000 ) ) ;
#51 = DIRECTION ( 'NONE',  ( -0.000000000000000000, 1.000000000000000000, -0.000000000000000000 ) ) ;
#52 = CYLINDRICAL_SURFACE ( 'NONE', #877, 2.000000000000001776 ) ;
#53 = VERTEX_POINT ( 'NONE', #866 ) ;
#54 = DIRECTION ( 'NONE',  ( -0.000000000000000000, -1.000000000000000000, -0.000000000000000000 ) ) ;
#55 = DIRECTION ( 'NONE',  ( 0.000000000000000000, 0.000000000000000000, 1.000000000000000000 ) ) ;
#56 = ORIENTED_EDGE ( 'NONE', *, *, #743, .T. ) ;
#57 = VERTEX_POINT ( 'NONE', #230 ) ;
#58 = ORIENTED_EDGE ( 'NONE', *, *, #133, .T. ) ;
#59 = DIRECTION ( 'NONE',  ( 0.000000000000000000, 0.000000000000000000, 1.000000000000000000 ) ) ;
#60 = AXIS2_PLACEMENT_3D ( 'NONE', #616, #154, #235 ) ;
#61 = FACE_OUTER_BOUND ( 'NONE', #559, .T. ) ;
#62 = AXIS2_PLACEMENT_3D ( 'NONE', #643, #237, #486 ) ;
#63 = VERTEX_POINT ( 'NONE', #778 ) ;
#64 = VERTEX_POINT ( 'NONE', #465 ) ;
#65 = EDGE_CURVE ( 'NONE', #138, #53, #770, .T. ) ;
#66 = ORIENTED_EDGE ( 'NONE', *, *, #476, .F. ) ;
#67 = ORIENTED_EDGE ( 'NONE', *, *, #533, .T. ) ;
#68 = VERTEX_POINT ( 'NONE', #694 ) ;
#69 = CARTESIAN_POINT ( 'NONE',  ( 70.00000000000001421, -0.0009999999999992653654, 45.00000000000000711 ) ) ;
#70 = DIRECTION ( 'NONE',  ( 0.000000000000000000, 0.000000000000000000, -1.000000000000000000 ) ) ;
#71 = ORIENTED_EDGE ( 'NONE', *, *, #914, .T. ) ;
#72 = EDGE_CURVE ( 'NONE', #37, #68, #392, .T. ) ;
#73 = ORIENTED_EDGE ( 'NONE', *, *, #24, .F. ) ;
#74 = CALENDAR_DATE ( 2025, 5, 12 ) ;
#75 = AXIS2_PLACEMENT_3D ( 'NONE', #255, #183, #806 ) ;
#76 = DIRECTION ( 'NONE',  ( -0.000000000000000000, -0.000000000000000000, 1.000000000000000000 ) ) ;
#77 = DIRECTION ( 'NONE',  ( -0.000000000000000000, -1.000000000000000000, -0.000000000000000000 ) ) ;
#78 = LOCAL_TIME ( 11, 53, 46.00000000000000000, #15 ) ;
#79 = PERSON_AND_ORGANIZATION ( #343, #317 ) ;
#80 = ORIENTED_EDGE ( 'NONE', *, *, #72, .F. ) ;
#81 = DIRECTION ( 'NONE',  ( -0.000000000000000000, 1.000000000000000000, -0.000000000000000000 ) ) ;
#82 = VECTOR ( 'NONE', #761, 1000.000000000000000 ) ;
#83 = VECTOR ( 'NONE', #724, 1000.000000000000000 ) ;
#84 = CALENDAR_DATE ( 2025, 5, 12 ) ;
#85 = CARTESIAN_POINT ( 'NONE',  ( -54.60000000000000142, 11.00000000000000000, 42.59999999999999432 ) ) ;
#86 = EDGE_CURVE ( 'NONE', #629, #683, #3, .T. ) ;
#87 = CARTESIAN_POINT ( 'NONE',  ( 70.00000000000001421, -0.0009999999999992653654, -52.52500000000000568 ) ) ;
#88 = EDGE_CURVE ( 'NONE', #328, #320, #246, .T. ) ;
#89 = DIRECTION ( 'NONE',  ( -0.000000000000000000, 1.000000000000000000, -0.000000000000000000 ) ) ;
#90 = DIRECTION ( 'NONE',  ( 0.000000000000000000, -1.000000000000000000, 0.000000000000000000 ) ) ;
#91 = FACE_OUTER_BOUND ( 'NONE', #474, .T. ) ;
#92 = LINE ( 'NONE', #9, #869 ) ;
#93 = DIRECTION ( 'NONE',  ( 0.000000000000000000, 0.000000000000000000, 1.000000000000000000 ) ) ;
#94 = ORIENTED_EDGE ( 'NONE', *, *, #24, .T. ) ;
#95 = DIRECTION ( 'NONE',  ( -0.000000000000000000, 1.000000000000000000, -0.000000000000000000 ) ) ;
#96 = AXIS2_PLACEMENT_3D ( 'NONE', #609, #982, #209 ) ;
#97 = CARTESIAN_POINT ( 'NONE',  ( -48.50000000000000000, 11.00000000000000000, 38.50000000000000000 ) ) ;
#98 = FACE_BOUND ( 'NONE', #143, .T. ) ;
#99 = EDGE_CURVE ( 'NONE', #745, #381, #625, .T. ) ;
#100 = EDGE_CURVE ( 'NONE', #429, #221, #846, .T. ) ;
#101 = FACE_BOUND ( 'NONE', #977, .T. ) ;
#102 = EDGE_LOOP ( 'NONE', ( #440, #985 ) ) ;
#103 = CARTESIAN_POINT ( 'NONE',  ( -54.60000000000000142, 15.00000000000000000, 42.59999999999999432 ) ) ;
#104 = ORIENTED_EDGE ( 'NONE', *, *, #848, .T. ) ;
#105 = LINE ( 'NONE', #264, #280 ) ;
#106 = VERTEX_POINT ( 'NONE', #576 ) ;
#107 = CARTESIAN_POINT ( 'NONE',  ( -54.60000000000000142, 11.00000000000000000, -42.60000000000000853 ) ) ;
#108 = VECTOR ( 'NONE', #307, 1000.000000000000000 ) ;
#109 = FACE_OUTER_BOUND ( 'NONE', #379, .T. ) ;
#110 = VERTEX_POINT ( 'NONE', #97 ) ;
#111 = ADVANCED_BREP_SHAPE_REPRESENTATION ( 'bolster_bottom_prog', ( #176, #813 ), #159 ) ;
#112 = ORIENTED_EDGE ( 'NONE', *, *, #760, .F. ) ;
#113 = EDGE_CURVE ( 'NONE', #64, #497, #136, .T. ) ;
#114 = DIRECTION ( 'NONE',  ( -0.000000000000000000, 1.000000000000000000, -0.000000000000000000 ) ) ;
#115 = DIRECTION ( 'NONE',  ( 0.000000000000000000, 1.000000000000000000, -0.000000000000000000 ) ) ;
#116 = ORIENTED_EDGE ( 'NONE', *, *, #673, .F. ) ;
#117 = ORIENTED_EDGE ( 'NONE', *, *, #933, .F. ) ;
#118 = DIRECTION ( 'NONE',  ( -0.000000000000000000, 1.000000000000000000, -0.000000000000000000 ) ) ;
#119 = AXIS2_PLACEMENT_3D ( 'NONE', #844, #479, #157 ) ;
#120 = VECTOR ( 'NONE', #131, 1000.000000000000000 ) ;
#121 = LINE ( 'NONE', #354, #754 ) ;
#122 = ORIENTED_EDGE ( 'NONE', *, *, #356, .T. ) ;
#123 = CARTESIAN_POINT ( 'NONE',  ( -69.99999999999998579, 0.000000000000000000, -44.99999999999999289 ) ) ;
#124 = CC_DESIGN_PERSON_AND_ORGANIZATION_ASSIGNMENT ( #618, #772, ( #723 ) ) ;
#125 = CARTESIAN_POINT ( 'NONE',  ( -48.50000000000000000, 11.00000000000000000, -34.49999999999999289 ) ) ;
#126 = ORIENTED_EDGE ( 'NONE', *, *, #292, .F. ) ;
#127 = VECTOR ( 'NONE', #835, 1000.000000000000000 ) ;
#128 = LINE ( 'NONE', #441, #647 ) ;
#129 = DIRECTION ( 'NONE',  ( 0.000000000000000000, 0.000000000000000000, -1.000000000000000000 ) ) ;
#130 = EDGE_CURVE ( 'NONE', #320, #110, #569, .T. ) ;
#131 = DIRECTION ( 'NONE',  ( -0.000000000000000000, -1.000000000000000000, -0.000000000000000000 ) ) ;
#132 = EDGE_LOOP ( 'NONE', ( #575, #613 ) ) ;
#133 = EDGE_CURVE ( 'NONE', #37, #57, #261, .T. ) ;
#134 = DIRECTION ( 'NONE',  ( -0.000000000000000000, 1.000000000000000000, -0.000000000000000000 ) ) ;
#135 = DIRECTION ( 'NONE',  ( 0.000000000000000000, 0.000000000000000000, 1.000000000000000000 ) ) ;
#136 = CIRCLE ( 'NONE', #39, 2.000000000000001776 ) ;
#137 = ORIENTED_EDGE ( 'NONE', *, *, #174, .T. ) ;
#138 = VERTEX_POINT ( 'NONE', #428 ) ;
#139 = AXIS2_PLACEMENT_3D ( 'NONE', #69, #134, #521 ) ;
#140 = FACE_OUTER_BOUND ( 'NONE', #536, .T. ) ;
#141 = CARTESIAN_POINT ( 'NONE',  ( 85.00000000000001421, 15.00000000000000000, 60.00000000000000711 ) ) ;
#142 = ADVANCED_FACE ( 'NONE', ( #101, #734, #878, #650, #581 ), #950, .T. ) ;
#143 = EDGE_LOOP ( 'NONE', ( #184, #735 ) ) ;
#144 = ORIENTED_EDGE ( 'NONE', *, *, #604, .F. ) ;
#145 = PERSON_AND_ORGANIZATION_ROLE ( 'design_supplier' ) ;
#146 = VERTEX_POINT ( 'NONE', #717 ) ;
#147 = DIRECTION ( 'NONE',  ( 0.000000000000000000, 0.000000000000000000, -1.000000000000000000 ) ) ;
#148 = AXIS2_PLACEMENT_3D ( 'NONE', #873, #736, #43 ) ;
#149 = FACE_OUTER_BOUND ( 'NONE', #492, .T. ) ;
#150 = VECTOR ( 'NONE', #95, 1000.000000000000000 ) ;
#151 = ORIENTED_EDGE ( 'NONE', *, *, #394, .F. ) ;
#152 = COORDINATED_UNIVERSAL_TIME_OFFSET ( 0, 0, .AHEAD. ) ;
#153 = CARTESIAN_POINT ( 'NONE',  ( 85.00000000000001421, 15.00000000000000000, -59.99999999999999289 ) ) ;
#154 = DIRECTION ( 'NONE',  ( 0.000000000000000000, 1.000000000000000000, 0.000000000000000000 ) ) ;
#155 = ORIENTED_EDGE ( 'NONE', *, *, #918, .F. ) ;
#156 = CIRCLE ( 'NONE', #720, 2.000000000000001776 ) ;
#157 = DIRECTION ( 'NONE',  ( 0.000000000000000000, 0.000000000000000000, 1.000000000000000000 ) ) ;
#158 = LINE ( 'NONE', #753, #82 ) ;
#159 =( GEOMETRIC_REPRESENTATION_CONTEXT ( 3 ) GLOBAL_UNCERTAINTY_ASSIGNED_CONTEXT ( ( #608 ) ) GLOBAL_UNIT_ASSIGNED_CONTEXT ( ( #325, #23, #172 ) ) REPRESENTATION_CONTEXT ( 'NONE', 'WORKASPACE' ) );
#160 = ORIENTED_EDGE ( 'NONE', *, *, #276, .F. ) ;
#161 = CARTESIAN_POINT ( 'NONE',  ( -69.99999999999998579, -0.0009999999999992653654, -44.99999999999999289 ) ) ;
#162 = DIRECTION ( 'NONE',  ( -0.000000000000000000, -1.000000000000000000, -0.000000000000000000 ) ) ;
#163 = VECTOR ( 'NONE', #812, 1000.000000000000000 ) ;
#164 = EDGE_CURVE ( 'NONE', #380, #355, #105, .T. ) ;
#165 = CARTESIAN_POINT ( 'NONE',  ( 48.50000000000000000, 11.00000000000000000, -36.50000000000001421 ) ) ;
#166 = CARTESIAN_POINT ( 'NONE',  ( -54.60000000000000142, 11.00000000000000000, 42.59999999999999432 ) ) ;
#167 = CARTESIAN_POINT ( 'NONE',  ( -84.99999999999998579, 15.00000000000000000, 60.00000000000000711 ) ) ;
#168 = CARTESIAN_POINT ( 'NONE',  ( 85.00000000000001421, 15.00000000000000000, 60.00000000000000711 ) ) ;
#169 = CIRCLE ( 'NONE', #545, 2.000000000000001776 ) ;
#170 = DIRECTION ( 'NONE',  ( -0.000000000000000000, 1.000000000000000000, -0.000000000000000000 ) ) ;
#171 = CARTESIAN_POINT ( 'NONE',  ( 85.00000000000001421, 0.000000000000000000, -59.99999999999999289 ) ) ;
#172 =( NAMED_UNIT ( * ) SI_UNIT ( $, .STERADIAN. ) SOLID_ANGLE_UNIT ( ) );
#173 = CARTESIAN_POINT ( 'NONE',  ( -69.99999999999998579, 15.00000000000000000, -37.47499999999999432 ) ) ;
#174 = EDGE_CURVE ( 'NONE', #332, #552, #25, .T. ) ;
#175 = DIRECTION ( 'NONE',  ( -0.000000000000000000, 1.000000000000000000, -0.000000000000000000 ) ) ;
#176 = MANIFOLD_SOLID_BREP ( 'Cut-Extrude3', #970 ) ;
#177 = AXIS2_PLACEMENT_3D ( 'NONE', #692, #532, #446 ) ;
#178 = CARTESIAN_POINT ( 'NONE',  ( 48.50000000000000000, 3.999999999999999112, -36.50000000000001421 ) ) ;
#179 = DIRECTION ( 'NONE',  ( -0.000000000000000000, 1.000000000000000000, -0.000000000000000000 ) ) ;
#180 = CARTESIAN_POINT ( 'NONE',  ( 54.60000000000000142, 11.00000000000000000, 42.59999999999999432 ) ) ;
#181 = DIRECTION ( 'NONE',  ( 0.000000000000000000, 0.000000000000000000, 1.000000000000000000 ) ) ;
#182 = EDGE_CURVE ( 'NONE', #683, #649, #364, .T. ) ;
#183 = DIRECTION ( 'NONE',  ( 0.000000000000000000, -1.000000000000000000, 0.000000000000000000 ) ) ;
#184 = ORIENTED_EDGE ( 'NONE', *, *, #196, .F. ) ;
#185 = EDGE_CURVE ( 'NONE', #21, #285, #156, .T. ) ;
#186 = CARTESIAN_POINT ( 'NONE',  ( -54.60000000000000142, 15.00000000000000000, 42.59999999999999432 ) ) ;
#187 = VECTOR ( 'NONE', #782, 1000.000000000000000 ) ;
#188 = CARTESIAN_POINT ( 'NONE',  ( -48.50000000000000000, 3.999999999999999112, -38.50000000000000000 ) ) ;
#189 = AXIS2_PLACEMENT_3D ( 'NONE', #417, #175, #93 ) ;
#190 = ORIENTED_EDGE ( 'NONE', *, *, #533, .F. ) ;
#191 = EDGE_LOOP ( 'NONE', ( #718, #665 ) ) ;
#192 = DIRECTION ( 'NONE',  ( 0.000000000000000000, 0.000000000000000000, 1.000000000000000000 ) ) ;
#193 = CARTESIAN_POINT ( 'NONE',  ( -84.99999999999998579, 15.00000000000000000, 60.00000000000000711 ) ) ;
#194 = ORIENTED_EDGE ( 'NONE', *, *, #459, .F. ) ;
#195 = PLANE ( 'NONE',  #802 ) ;
#196 = EDGE_CURVE ( 'NONE', #285, #21, #416, .T. ) ;
#197 = AXIS2_PLACEMENT_3D ( 'NONE', #660, #349, #954 ) ;
#198 = DIRECTION ( 'NONE',  ( 0.000000000000000000, 0.000000000000000000, -1.000000000000000000 ) ) ;
#199 = ORIENTED_EDGE ( 'NONE', *, *, #635, .T. ) ;
#200 = CARTESIAN_POINT ( 'NONE',  ( -69.99999999999998579, 15.00000000000000000, -52.52499999999999147 ) ) ;
#201 = CYLINDRICAL_SURFACE ( 'NONE', #742, 7.524999999999996803 ) ;
#202 = EDGE_LOOP ( 'NONE', ( #436, #455, #766, #36 ) ) ;
#203 = EDGE_CURVE ( 'NONE', #291, #21, #268, .T. ) ;
#204 = CARTESIAN_POINT ( 'NONE',  ( 48.50000000000000000, 3.999999999999999112, -38.50000000000001421 ) ) ;
#205 = VERTEX_POINT ( 'NONE', #259 ) ;
#206 = CIRCLE ( 'NONE', #961, 7.524999999999996803 ) ;
#207 = VECTOR ( 'NONE', #316, 1000.000000000000000 ) ;
#208 = LINE ( 'NONE', #153, #600 ) ;
#209 = DIRECTION ( 'NONE',  ( 0.000000000000000000, 0.000000000000000000, -1.000000000000000000 ) ) ;
#210 = VERTEX_POINT ( 'NONE', #872 ) ;
#211 = CARTESIAN_POINT ( 'NONE',  ( 54.60000000000000142, 11.00000000000000000, 42.59999999999999432 ) ) ;
#212 = DIRECTION ( 'NONE',  ( 0.000000000000000000, 1.000000000000000000, -0.000000000000000000 ) ) ;
#213 = VERTEX_POINT ( 'NONE', #587 ) ;
#214 = AXIS2_PLACEMENT_3D ( 'NONE', #644, #30, #339 ) ;
#215 = ORIENTED_EDGE ( 'NONE', *, *, #100, .F. ) ;
#216 = SHAPE_DEFINITION_REPRESENTATION ( #976, #111 ) ;
#217 = LINE ( 'NONE', #740, #983 ) ;
#218 = DESIGN_CONTEXT ( 'detailed design', #908, 'design' ) ;
#219 = PLANE ( 'NONE',  #177 ) ;
#220 = ORIENTED_EDGE ( 'NONE', *, *, #953, .F. ) ;
#221 = VERTEX_POINT ( 'NONE', #173 ) ;
#222 = VERTEX_POINT ( 'NONE', #943 ) ;
#223 = DATE_AND_TIME ( #397, #78 ) ;
#224 = CARTESIAN_POINT ( 'NONE',  ( 85.00000000000001421, 0.000000000000000000, 60.00000000000000711 ) ) ;
#225 = CIRCLE ( 'NONE', #817, 7.524999999999996803 ) ;
#226 = LINE ( 'NONE', #4, #108 ) ;
#227 = CARTESIAN_POINT ( 'NONE',  ( -48.50000000000000000, 3.999999999999999112, 36.50000000000000000 ) ) ;
#228 = CARTESIAN_POINT ( 'NONE',  ( -48.50000000000000000, 3.999999999999999112, 36.50000000000000000 ) ) ;
#229 = CIRCLE ( 'NONE', #876, 2.000000000000001776 ) ;
#230 = CARTESIAN_POINT ( 'NONE',  ( 48.50000000000000000, 3.999999999999999112, -38.50000000000001421 ) ) ;
#231 = DIRECTION ( 'NONE',  ( 0.000000000000000000, 0.000000000000000000, 1.000000000000000000 ) ) ;
#232 = APPROVAL_PERSON_ORGANIZATION ( #79, #252, #991 ) ;
#233 = CALENDAR_DATE ( 2025, 5, 12 ) ;
#234 = VERTEX_POINT ( 'NONE', #799 ) ;
#235 = DIRECTION ( 'NONE',  ( 0.000000000000000000, 0.000000000000000000, 1.000000000000000000 ) ) ;
#236 = CIRCLE ( 'NONE', #516, 7.524999999999996803 ) ;
#237 = DIRECTION ( 'NONE',  ( 0.000000000000000000, 1.000000000000000000, -0.000000000000000000 ) ) ;
#238 = VECTOR ( 'NONE', #302, 1000.000000000000000 ) ;
#239 = ORIENTED_EDGE ( 'NONE', *, *, #598, .F. ) ;
#240 = PLANE ( 'NONE',  #929 ) ;
#241 = DIRECTION ( 'NONE',  ( -0.000000000000000000, 0.000000000000000000, 1.000000000000000000 ) ) ;
#242 = CALENDAR_DATE ( 2025, 5, 12 ) ;
#243 = LINE ( 'NONE', #636, #577 ) ;
#244 = ADVANCED_FACE ( 'NONE', ( #109 ), #731, .F. ) ;
#245 = ORIENTED_EDGE ( 'NONE', *, *, #933, .T. ) ;
#246 = CIRCLE ( 'NONE', #639, 2.000000000000001776 ) ;
#247 = EDGE_CURVE ( 'NONE', #68, #907, #169, .T. ) ;
#248 = DIRECTION ( 'NONE',  ( 0.000000000000000000, 0.000000000000000000, 1.000000000000000000 ) ) ;
#249 = LOCAL_TIME ( 11, 53, 46.00000000000000000, #401 ) ;
#250 = PERSON_AND_ORGANIZATION ( #343, #317 ) ;
#251 = CARTESIAN_POINT ( 'NONE',  ( 48.50000000000000000, 11.00000000000000000, -36.50000000000001421 ) ) ;
#252 = APPROVAL ( #387, 'UNSPECIFIED' ) ;
#253 = DIRECTION ( 'NONE',  ( 0.000000000000000000, 1.000000000000000000, -0.000000000000000000 ) ) ;
#254 = VECTOR ( 'NONE', #118, 1000.000000000000000 ) ;
#255 = CARTESIAN_POINT ( 'NONE',  ( 0.000000000000000000, 0.000000000000000000, 0.000000000000000000 ) ) ;
#256 = LINE ( 'NONE', #472, #338 ) ;
#257 = EDGE_CURVE ( 'NONE', #907, #68, #229, .T. ) ;
#258 = EDGE_LOOP ( 'NONE', ( #611, #939 ) ) ;
#259 = CARTESIAN_POINT ( 'NONE',  ( -84.99999999999998579, 0.000000000000000000, 60.00000000000000711 ) ) ;
#260 = ORIENTED_EDGE ( 'NONE', *, *, #278, .T. ) ;
#261 = CIRCLE ( 'NONE', #27, 2.000000000000001776 ) ;
#262 = CARTESIAN_POINT ( 'NONE',  ( 48.50000000000001421, 3.999999999999999112, 38.49999999999998579 ) ) ;
#263 = EDGE_CURVE ( 'NONE', #524, #210, #874, .T. ) ;
#264 = CARTESIAN_POINT ( 'NONE',  ( -69.99999999999998579, -0.0009999999999992653654, 37.47499999999999432 ) ) ;
#265 = ORIENTED_EDGE ( 'NONE', *, *, #65, .F. ) ;
#266 = FACE_OUTER_BOUND ( 'NONE', #202, .T. ) ;
#267 = CIRCLE ( 'NONE', #485, 7.524999999999996803 ) ;
#268 = LINE ( 'NONE', #188, #795 ) ;
#269 = AXIS2_PLACEMENT_3D ( 'NONE', #382, #828, #823 ) ;
#270 = ORIENTED_EDGE ( 'NONE', *, *, #809, .F. ) ;
#271 = ADVANCED_FACE ( 'NONE', ( #744 ), #738, .T. ) ;
#272 = EDGE_LOOP ( 'NONE', ( #378, #988, #56, #786 ) ) ;
#273 = DIRECTION ( 'NONE',  ( -1.000000000000000000, -0.000000000000000000, -0.000000000000000000 ) ) ;
#274 = LINE ( 'NONE', #44, #120 ) ;
#275 = EDGE_LOOP ( 'NONE', ( #453, #811, #502, #359 ) ) ;
#276 = EDGE_CURVE ( 'NONE', #661, #1, #435, .T. ) ;
#277 = LINE ( 'NONE', #592, #776 ) ;
#278 = EDGE_CURVE ( 'NONE', #57, #907, #506, .T. ) ;
#279 = CARTESIAN_POINT ( 'NONE',  ( -48.50000000000000000, 11.00000000000000000, 36.50000000000000000 ) ) ;
#280 = VECTOR ( 'NONE', #40, 1000.000000000000000 ) ;
#281 = DIRECTION ( 'NONE',  ( 0.000000000000000000, 1.000000000000000000, -0.000000000000000000 ) ) ;
#282 = ORIENTED_EDGE ( 'NONE', *, *, #993, .T. ) ;
#283 = CARTESIAN_POINT ( 'NONE',  ( -48.50000000000000000, 3.999999999999999112, 34.49999999999999289 ) ) ;
#284 = FACE_BOUND ( 'NONE', #713, .T. ) ;
#285 = VERTEX_POINT ( 'NONE', #125 ) ;
#286 = AXIS2_PLACEMENT_3D ( 'NONE', #383, #995, #303 ) ;
#287 = ORIENTED_EDGE ( 'NONE', *, *, #130, .T. ) ;
#288 = VECTOR ( 'NONE', #858, 1000.000000000000000 ) ;
#289 = FACE_OUTER_BOUND ( 'NONE', #833, .T. ) ;
#290 = CARTESIAN_POINT ( 'NONE',  ( -69.99999999999998579, -0.0009999999999992653654, 44.99999999999999289 ) ) ;
#291 = VERTEX_POINT ( 'NONE', #964 ) ;
#292 = EDGE_CURVE ( 'NONE', #291, #234, #527, .T. ) ;
#293 = ORIENTED_EDGE ( 'NONE', *, *, #847, .T. ) ;
#294 = ORIENTED_EDGE ( 'NONE', *, *, #182, .F. ) ;
#295 = DIRECTION ( 'NONE',  ( 0.000000000000000000, 0.000000000000000000, -1.000000000000000000 ) ) ;
#296 = CARTESIAN_POINT ( 'NONE',  ( 48.50000000000001421, 3.999999999999999112, 34.49999999999997868 ) ) ;
#297 = ORIENTED_EDGE ( 'NONE', *, *, #615, .T. ) ;
#299 = ADVANCED_FACE ( 'NONE', ( #360 ), #594, .F. ) ;
#298 = VECTOR ( 'NONE', #697, 1000.000000000000000 ) ;
#300 = EDGE_LOOP ( 'NONE', ( #411, #116, #144, #732 ) ) ;
#301 = ORIENTED_EDGE ( 'NONE', *, *, #309, .F. ) ;
#302 = DIRECTION ( 'NONE',  ( -0.000000000000000000, -0.000000000000000000, 1.000000000000000000 ) ) ;
#303 = DIRECTION ( 'NONE',  ( 1.000000000000000000, 0.000000000000000000, -0.000000000000000000 ) ) ;
#304 = CC_DESIGN_PERSON_AND_ORGANIZATION_ASSIGNMENT ( #450, #843, ( #367 ) ) ;
#305 = CARTESIAN_POINT ( 'NONE',  ( 54.60000000000000142, 15.00000000000000000, 42.59999999999999432 ) ) ;
#306 = VECTOR ( 'NONE', #403, 1000.000000000000000 ) ;
#307 = DIRECTION ( 'NONE',  ( -0.000000000000000000, 1.000000000000000000, -0.000000000000000000 ) ) ;
#308 = ORIENTED_EDGE ( 'NONE', *, *, #433, .F. ) ;
#309 = EDGE_CURVE ( 'NONE', #222, #838, #274, .T. ) ;
#310 = CARTESIAN_POINT ( 'NONE',  ( 48.50000000000000000, 3.999999999999999112, -36.50000000000001421 ) ) ;
#311 = ADVANCED_FACE ( 'NONE', ( #749 ), #52, .F. ) ;
#312 = DIRECTION ( 'NONE',  ( 0.000000000000000000, 0.000000000000000000, -1.000000000000000000 ) ) ;
#313 = AXIS2_PLACEMENT_3D ( 'NONE', #330, #418, #641 ) ;
#314 = DIRECTION ( 'NONE',  ( 0.000000000000000000, 0.000000000000000000, 1.000000000000000000 ) ) ;
#315 = CARTESIAN_POINT ( 'NONE',  ( 70.00000000000001421, 15.00000000000000000, 45.00000000000000711 ) ) ;
#316 = DIRECTION ( 'NONE',  ( -0.000000000000000000, 1.000000000000000000, -0.000000000000000000 ) ) ;
#317 = ORGANIZATION ( 'UNSPECIFIED', 'UNSPECIFIED', '' ) ;
#318 = EDGE_CURVE ( 'NONE', #53, #63, #121, .T. ) ;
#319 = CARTESIAN_POINT ( 'NONE',  ( 0.000000000000000000, 0.000000000000000000, 0.000000000000000000 ) ) ;
#320 = VERTEX_POINT ( 'NONE', #590 ) ;
#321 = LINE ( 'NONE', #87, #306 ) ;
#322 = AXIS2_PLACEMENT_3D ( 'NONE', #452, #466, #458 ) ;
#323 = DIRECTION ( 'NONE',  ( -0.000000000000000000, 1.000000000000000000, -0.000000000000000000 ) ) ;
#324 = AXIS2_PLACEMENT_3D ( 'NONE', #903, #46, #376 ) ;
#325 =( LENGTH_UNIT ( ) NAMED_UNIT ( * ) SI_UNIT ( .MILLI., .METRE. ) );
#326 = EDGE_CURVE ( 'NONE', #234, #291, #480, .T. ) ;
#327 = DIRECTION ( 'NONE',  ( 0.000000000000000000, 0.000000000000000000, -1.000000000000000000 ) ) ;
#328 = VERTEX_POINT ( 'NONE', #283 ) ;
#329 = CARTESIAN_POINT ( 'NONE',  ( 0.000000000000000000, 11.00000000000000000, 0.000000000000000000 ) ) ;
#330 = CARTESIAN_POINT ( 'NONE',  ( -48.50000000000000000, 11.00000000000000000, -36.50000000000000000 ) ) ;
#331 = LINE ( 'NONE', #928, #150 ) ;
#332 = VERTEX_POINT ( 'NONE', #224 ) ;
#333 = CC_DESIGN_APPROVAL ( #965, ( #841 ) ) ;
#334 = DIRECTION ( 'NONE',  ( 0.000000000000000000, 0.000000000000000000, -1.000000000000000000 ) ) ;
#335 = ADVANCED_FACE ( 'NONE', ( #140 ), #531, .F. ) ;
#336 = PLANE ( 'NONE',  #884 ) ;
#337 = VECTOR ( 'NONE', #584, 1000.000000000000000 ) ;
#338 = VECTOR ( 'NONE', #780, 1000.000000000000000 ) ;
#339 = DIRECTION ( 'NONE',  ( 0.000000000000000000, 0.000000000000000000, -1.000000000000000000 ) ) ;
#340 = EDGE_LOOP ( 'NONE', ( #651, #656 ) ) ;
#341 = ADVANCED_FACE ( 'NONE', ( #994 ), #607, .F. ) ;
#342 = FACE_OUTER_BOUND ( 'NONE', #955, .T. ) ;
#343 = PERSON ( 'UNSPECIFIED', 'UNSPECIFIED', 'UNSPECIFIED', ('UNSPECIFIED'), ('UNSPECIFIED'), ('UNSPECIFIED') ) ;
#344 = DIRECTION ( 'NONE',  ( 0.000000000000000000, 0.000000000000000000, 1.000000000000000000 ) ) ;
#345 = ORIENTED_EDGE ( 'NONE', *, *, #476, .T. ) ;
#346 = ORIENTED_EDGE ( 'NONE', *, *, #276, .T. ) ;
#347 = VECTOR ( 'NONE', #519, 1000.000000000000000 ) ;
#348 = CARTESIAN_POINT ( 'NONE',  ( 70.00000000000001421, 15.00000000000000000, -37.47500000000000853 ) ) ;
#349 = DIRECTION ( 'NONE',  ( -0.000000000000000000, -1.000000000000000000, -0.000000000000000000 ) ) ;
#350 = LOCAL_TIME ( 11, 53, 46.00000000000000000, #152 ) ;
#351 = ORIENTED_EDGE ( 'NONE', *, *, #434, .T. ) ;
#352 = LINE ( 'NONE', #662, #790 ) ;
#353 = AXIS2_PLACEMENT_3D ( 'NONE', #898, #464, #904 ) ;
#354 = CARTESIAN_POINT ( 'NONE',  ( -54.60000000000000142, 11.00000000000000000, 42.59999999999999432 ) ) ;
#355 = VERTEX_POINT ( 'NONE', #666 ) ;
#356 = EDGE_CURVE ( 'NONE', #838, #205, #596, .T. ) ;
#357 = DIRECTION ( 'NONE',  ( -0.000000000000000000, 1.000000000000000000, -0.000000000000000000 ) ) ;
#358 = CARTESIAN_POINT ( 'NONE',  ( 85.00000000000001421, 15.00000000000000000, 60.00000000000000711 ) ) ;
#359 = ORIENTED_EDGE ( 'NONE', *, *, #247, .T. ) ;
#360 = FACE_OUTER_BOUND ( 'NONE', #934, .T. ) ;
#361 = ORIENTED_EDGE ( 'NONE', *, *, #164, .F. ) ;
#362 = CYLINDRICAL_SURFACE ( 'NONE', #324, 7.524999999999996803 ) ;
#363 = CARTESIAN_POINT ( 'NONE',  ( 70.00000000000001421, 15.00000000000000000, -52.52500000000000568 ) ) ;
#364 = CIRCLE ( 'NONE', #197, 7.524999999999996803 ) ;
#365 = ORIENTED_EDGE ( 'NONE', *, *, #247, .F. ) ;
#366 = PLANE ( 'NONE',  #931 ) ;
#367 = PRODUCT_DEFINITION_FORMATION_WITH_SPECIFIED_SOURCE ( 'ANY', '', #541, .NOT_KNOWN. ) ;
#368 = ADVANCED_FACE ( 'NONE', ( #967 ), #614, .F. ) ;
#369 = CARTESIAN_POINT ( 'NONE',  ( 48.50000000000001421, 3.999999999999999112, 36.49999999999998579 ) ) ;
#370 = EDGE_CURVE ( 'NONE', #726, #552, #208, .T. ) ;
#371 = EDGE_LOOP ( 'NONE', ( #32, #992, #971, #345 ) ) ;
#372 = ORIENTED_EDGE ( 'NONE', *, *, #434, .F. ) ;
#373 = ORIENTED_EDGE ( 'NONE', *, *, #549, .F. ) ;
#374 = AXIS2_PLACEMENT_3D ( 'NONE', #589, #427, #880 ) ;
#375 = CIRCLE ( 'NONE', #20, 2.000000000000001776 ) ;
#376 = DIRECTION ( 'NONE',  ( 0.000000000000000000, 0.000000000000000000, 1.000000000000000000 ) ) ;
#377 = DIRECTION ( 'NONE',  ( 0.000000000000000000, 0.000000000000000000, -1.000000000000000000 ) ) ;
#378 = ORIENTED_EDGE ( 'NONE', *, *, #88, .F. ) ;
#379 = EDGE_LOOP ( 'NONE', ( #386, #45, #160, #763 ) ) ;
#380 = VERTEX_POINT ( 'NONE', #538 ) ;
#381 = VERTEX_POINT ( 'NONE', #767 ) ;
#382 = CARTESIAN_POINT ( 'NONE',  ( 48.50000000000000000, 3.999999999999999112, -36.50000000000001421 ) ) ;
#383 = CARTESIAN_POINT ( 'NONE',  ( -84.99999999999998579, 15.00000000000000000, -59.99999999999999289 ) ) ;
#384 = ORIENTED_EDGE ( 'NONE', *, *, #196, .T. ) ;
#385 = ADVANCED_FACE ( 'NONE', ( #759 ), #445, .T. ) ;
#386 = ORIENTED_EDGE ( 'NONE', *, *, #984, .T. ) ;
#387 = APPROVAL_STATUS ( 'not_yet_approved' ) ;
#388 = EDGE_CURVE ( 'NONE', #582, #629, #682, .T. ) ;
#389 = ORIENTED_EDGE ( 'NONE', *, *, #388, .F. ) ;
#390 = CARTESIAN_POINT ( 'NONE',  ( -69.99999999999998579, 0.000000000000000000, -52.52499999999999147 ) ) ;
#391 = ADVANCED_FACE ( 'NONE', ( #913 ), #366, .F. ) ;
#392 = LINE ( 'NONE', #398, #298 ) ;
#393 = CIRCLE ( 'NONE', #60, 2.000000000000001776 ) ;
#394 = EDGE_CURVE ( 'NONE', #524, #757, #986, .T. ) ;
#395 = CIRCLE ( 'NONE', #19, 2.000000000000001776 ) ;
#396 = CYLINDRICAL_SURFACE ( 'NONE', #322, 2.000000000000001776 ) ;
#397 = CALENDAR_DATE ( 2025, 5, 12 ) ;
#398 = CARTESIAN_POINT ( 'NONE',  ( 48.50000000000000000, 3.999999999999999112, -34.50000000000000711 ) ) ;
#399 = DIRECTION ( 'NONE',  ( -0.000000000000000000, 0.000000000000000000, 1.000000000000000000 ) ) ;
#400 = CARTESIAN_POINT ( 'NONE',  ( 70.00000000000001421, 0.000000000000000000, -52.52500000000000568 ) ) ;
#401 = COORDINATED_UNIVERSAL_TIME_OFFSET ( 0, 0, .AHEAD. ) ;
#402 = DIRECTION ( 'NONE',  ( -0.000000000000000000, 1.000000000000000000, -0.000000000000000000 ) ) ;
#403 = DIRECTION ( 'NONE',  ( -0.000000000000000000, 1.000000000000000000, -0.000000000000000000 ) ) ;
#404 = CARTESIAN_POINT ( 'NONE',  ( 48.50000000000001421, 3.999999999999999112, 34.49999999999997868 ) ) ;
#405 = PERSON_AND_ORGANIZATION ( #343, #317 ) ;
#406 = ORIENTED_EDGE ( 'NONE', *, *, #721, .T. ) ;
#407 = ORIENTED_EDGE ( 'NONE', *, *, #847, .F. ) ;
#408 = CARTESIAN_POINT ( 'NONE',  ( 70.00000000000001421, 0.000000000000000000, 52.52500000000000568 ) ) ;
#409 = EDGE_CURVE ( 'NONE', #110, #146, #804, .T. ) ;
#410 = CARTESIAN_POINT ( 'NONE',  ( -48.50000000000000000, 3.999999999999999112, 38.50000000000000000 ) ) ;
#411 = ORIENTED_EDGE ( 'NONE', *, *, #974, .F. ) ;
#412 = PLANE ( 'NONE',  #899 ) ;
#413 = ADVANCED_FACE ( 'NONE', ( #289 ), #362, .F. ) ;
#414 = DIRECTION ( 'NONE',  ( -0.000000000000000000, 1.000000000000000000, -0.000000000000000000 ) ) ;
#415 = EDGE_CURVE ( 'NONE', #801, #429, #217, .T. ) ;
#416 = CIRCLE ( 'NONE', #313, 2.000000000000001776 ) ;
#417 = CARTESIAN_POINT ( 'NONE',  ( -48.50000000000000000, 3.999999999999999112, 36.50000000000000000 ) ) ;
#418 = DIRECTION ( 'NONE',  ( 0.000000000000000000, 1.000000000000000000, -0.000000000000000000 ) ) ;
#419 = ORIENTED_EDGE ( 'NONE', *, *, #888, .F. ) ;
#420 = DIRECTION ( 'NONE',  ( -0.000000000000000000, 1.000000000000000000, -0.000000000000000000 ) ) ;
#421 = CIRCLE ( 'NONE', #775, 2.000000000000001776 ) ;
#422 = CIRCLE ( 'NONE', #148, 7.524999999999996803 ) ;
#423 = DIRECTION ( 'NONE',  ( 0.000000000000000000, 0.000000000000000000, -1.000000000000000000 ) ) ;
#424 = EDGE_LOOP ( 'NONE', ( #407, #979, #297, #711 ) ) ;
#425 = ORIENTED_EDGE ( 'NONE', *, *, #490, .T. ) ;
#426 = EDGE_CURVE ( 'NONE', #381, #138, #277, .T. ) ;
#427 = DIRECTION ( 'NONE',  ( 0.000000000000000000, 1.000000000000000000, -0.000000000000000000 ) ) ;
#428 = CARTESIAN_POINT ( 'NONE',  ( -54.60000000000000142, 11.00000000000000000, -42.60000000000000853 ) ) ;
#429 = VERTEX_POINT ( 'NONE', #200 ) ;
#430 = ORIENTED_EDGE ( 'NONE', *, *, #12, .T. ) ;
#431 = VECTOR ( 'NONE', #76, 1000.000000000000000 ) ;
#432 = CARTESIAN_POINT ( 'NONE',  ( 70.00000000000001421, 0.000000000000000000, -37.47500000000000853 ) ) ;
#433 = EDGE_CURVE ( 'NONE', #210, #106, #128, .T. ) ;
#434 = EDGE_CURVE ( 'NONE', #745, #8, #671, .T. ) ;
#435 = LINE ( 'NONE', #193, #347 ) ;
#436 = ORIENTED_EDGE ( 'NONE', *, *, #914, .F. ) ;
#437 = CYLINDRICAL_SURFACE ( 'NONE', #599, 2.000000000000001776 ) ;
#438 = CIRCLE ( 'NONE', #353, 7.524999999999996803 ) ;
#439 = CARTESIAN_POINT ( 'NONE',  ( 48.50000000000000000, 3.999999999999999112, -36.50000000000001421 ) ) ;
#440 = ORIENTED_EDGE ( 'NONE', *, *, #409, .F. ) ;
#441 = CARTESIAN_POINT ( 'NONE',  ( 70.00000000000001421, -0.0009999999999992653654, 37.47500000000000853 ) ) ;
#442 = CARTESIAN_POINT ( 'NONE',  ( -84.99999999999998579, 15.00000000000000000, 60.00000000000000711 ) ) ;
#443 = DIRECTION ( 'NONE',  ( -0.000000000000000000, 1.000000000000000000, -0.000000000000000000 ) ) ;
#444 = VERTEX_POINT ( 'NONE', #787 ) ;
#445 = PLANE ( 'NONE',  #947 ) ;
#446 = DIRECTION ( 'NONE',  ( 0.000000000000000000, -0.000000000000000000, -1.000000000000000000 ) ) ;
#447 = AXIS2_PLACEMENT_3D ( 'NONE', #468, #402, #463 ) ;
#448 = AXIS2_PLACEMENT_3D ( 'NONE', #814, #457, #295 ) ;
#449 = EDGE_LOOP ( 'NONE', ( #137, #911, #606, #425 ) ) ;
#450 = PERSON_AND_ORGANIZATION ( #343, #317 ) ;
#451 = CARTESIAN_POINT ( 'NONE',  ( -48.50000000000000000, 11.00000000000000000, 36.50000000000000000 ) ) ;
#452 = CARTESIAN_POINT ( 'NONE',  ( 48.50000000000001421, 3.999999999999999112, 36.49999999999998579 ) ) ;
#453 = ORIENTED_EDGE ( 'NONE', *, *, #278, .F. ) ;
#454 = EDGE_LOOP ( 'NONE', ( #773, #372, #820, #815 ) ) ;
#455 = ORIENTED_EDGE ( 'NONE', *, *, #388, .T. ) ;
#456 = AXIS2_PLACEMENT_3D ( 'NONE', #685, #834, #147 ) ;
#457 = DIRECTION ( 'NONE',  ( 0.000000000000000000, 1.000000000000000000, -0.000000000000000000 ) ) ;
#458 = DIRECTION ( 'NONE',  ( 0.000000000000000000, 0.000000000000000000, 1.000000000000000000 ) ) ;
#459 = EDGE_CURVE ( 'NONE', #444, #513, #375, .T. ) ;
#460 = EDGE_LOOP ( 'NONE', ( #621, #758, #926, #517 ) ) ;
#461 = ORIENTED_EDGE ( 'NONE', *, *, #370, .T. ) ;
#462 = DATE_AND_TIME ( #74, #350 ) ;
#463 = DIRECTION ( 'NONE',  ( 0.000000000000000000, 0.000000000000000000, 1.000000000000000000 ) ) ;
#464 = DIRECTION ( 'NONE',  ( -0.000000000000000000, 1.000000000000000000, -0.000000000000000000 ) ) ;
#465 = CARTESIAN_POINT ( 'NONE',  ( 48.50000000000001421, 3.999999999999999112, 38.49999999999998579 ) ) ;
#466 = DIRECTION ( 'NONE',  ( -0.000000000000000000, 1.000000000000000000, -0.000000000000000000 ) ) ;
#467 = ORIENTED_EDGE ( 'NONE', *, *, #257, .F. ) ;
#468 = CARTESIAN_POINT ( 'NONE',  ( -48.50000000000000000, 3.999999999999999112, -36.50000000000000000 ) ) ;
#469 = AXIS2_PLACEMENT_3D ( 'NONE', #161, #626, #231 ) ;
#470 = VECTOR ( 'NONE', #89, 1000.000000000000000 ) ;
#471 = CYLINDRICAL_SURFACE ( 'NONE', #469, 7.524999999999996803 ) ;
#472 = CARTESIAN_POINT ( 'NONE',  ( -84.99999999999998579, 15.00000000000000000, 60.00000000000000711 ) ) ;
#473 = APPROVAL_STATUS ( 'not_yet_approved' ) ;
#474 = EDGE_LOOP ( 'NONE', ( #126, #689, #797, #270 ) ) ;
#475 = DIRECTION ( 'NONE',  ( 0.000000000000000000, 1.000000000000000000, 0.000000000000000000 ) ) ;
#476 = EDGE_CURVE ( 'NONE', #221, #429, #31, .T. ) ;
#477 = LINE ( 'NONE', #944, #631 ) ;
#478 = APPLICATION_PROTOCOL_DEFINITION ( 'international standard', 'config_control_design', 1994, #908 ) ;
#479 = DIRECTION ( 'NONE',  ( -0.000000000000000000, 1.000000000000000000, -0.000000000000000000 ) ) ;
#480 = CIRCLE ( 'NONE', #448, 2.000000000000001776 ) ;
#481 = CARTESIAN_POINT ( 'NONE',  ( 48.50000000000001421, 11.00000000000000000, 36.49999999999998579 ) ) ;
#482 = DIRECTION ( 'NONE',  ( 0.000000000000000000, 1.000000000000000000, 0.000000000000000000 ) ) ;
#483 = EDGE_LOOP ( 'NONE', ( #769, #957 ) ) ;
#484 = APPROVAL ( #473, 'UNSPECIFIED' ) ;
#485 = AXIS2_PLACEMENT_3D ( 'NONE', #123, #818, #129 ) ;
#486 = DIRECTION ( 'NONE',  ( 0.000000000000000000, 0.000000000000000000, -1.000000000000000000 ) ) ;
#487 = DIRECTION ( 'NONE',  ( 0.000000000000000000, 0.000000000000000000, 1.000000000000000000 ) ) ;
#488 = CARTESIAN_POINT ( 'NONE',  ( 48.50000000000001421, 3.999999999999999112, 36.49999999999998579 ) ) ;
#489 = LINE ( 'NONE', #103, #83 ) ;
#490 = EDGE_CURVE ( 'NONE', #1, #332, #477, .T. ) ;
#491 = CARTESIAN_POINT ( 'NONE',  ( -48.50000000000000000, 11.00000000000000000, -36.50000000000000000 ) ) ;
#492 = EDGE_LOOP ( 'NONE', ( #199, #301, #73, #461 ) ) ;
#493 = AXIS2_PLACEMENT_3D ( 'NONE', #860, #781, #327 ) ;
#494 = CARTESIAN_POINT ( 'NONE',  ( 70.00000000000001421, 0.000000000000000000, 45.00000000000000711 ) ) ;
#495 = APPROVAL_PERSON_ORGANIZATION ( #854, #484, #705 ) ;
#496 = DIRECTION ( 'NONE',  ( 0.000000000000000000, 1.000000000000000000, -0.000000000000000000 ) ) ;
#497 = VERTEX_POINT ( 'NONE', #404 ) ;
#498 = ADVANCED_FACE ( 'NONE', ( #98, #851, #571, #783, #936 ), #412, .F. ) ;
#499 = DIRECTION ( 'NONE',  ( 0.000000000000000000, -0.000000000000000000, -1.000000000000000000 ) ) ;
#500 = AXIS2_PLACEMENT_3D ( 'NONE', #816, #602, #691 ) ;
#501 = CARTESIAN_POINT ( 'NONE',  ( -69.99999999999998579, 15.00000000000000000, -44.99999999999999289 ) ) ;
#502 = ORIENTED_EDGE ( 'NONE', *, *, #72, .T. ) ;
#503 = ORIENTED_EDGE ( 'NONE', *, *, #953, .T. ) ;
#504 = ORIENTED_EDGE ( 'NONE', *, *, #687, .F. ) ;
#505 = LINE ( 'NONE', #107, #254 ) ;
#506 = LINE ( 'NONE', #204, #864 ) ;
#507 = ORIENTED_EDGE ( 'NONE', *, *, #699, .F. ) ;
#508 = VECTOR ( 'NONE', #619, 1000.000000000000000 ) ;
#509 = CARTESIAN_POINT ( 'NONE',  ( -54.60000000000000142, 11.00000000000000000, -42.60000000000000853 ) ) ;
#510 = AXIS2_PLACEMENT_3D ( 'NONE', #668, #895, #821 ) ;
#511 = DIRECTION ( 'NONE',  ( -0.000000000000000000, 1.000000000000000000, -0.000000000000000000 ) ) ;
#512 = LOCAL_TIME ( 11, 53, 46.00000000000000000, #827 ) ;
#513 = VERTEX_POINT ( 'NONE', #26 ) ;
#514 = DIRECTION ( 'NONE',  ( 1.000000000000000000, 0.000000000000000000, 0.000000000000000000 ) ) ;
#515 = DIRECTION ( 'NONE',  ( 0.000000000000000000, 0.000000000000000000, -1.000000000000000000 ) ) ;
#516 = AXIS2_PLACEMENT_3D ( 'NONE', #927, #703, #850 ) ;
#517 = ORIENTED_EDGE ( 'NONE', *, *, #635, .F. ) ;
#518 = ADVANCED_FACE ( 'NONE', ( #719 ), #863, .F. ) ;
#519 = DIRECTION ( 'NONE',  ( 1.000000000000000000, 0.000000000000000000, 0.000000000000000000 ) ) ;
#520 = ORIENTED_EDGE ( 'NONE', *, *, #566, .F. ) ;
#521 = DIRECTION ( 'NONE',  ( 0.000000000000000000, 0.000000000000000000, 1.000000000000000000 ) ) ;
#522 = FACE_BOUND ( 'NONE', #610, .T. ) ;
#523 = ORIENTED_EDGE ( 'NONE', *, *, #826, .T. ) ;
#524 = VERTEX_POINT ( 'NONE', #408 ) ;
#525 = DIRECTION ( 'NONE',  ( 0.000000000000000000, -0.000000000000000000, 1.000000000000000000 ) ) ;
#526 = DIRECTION ( 'NONE',  ( 0.000000000000000000, 0.000000000000000000, 1.000000000000000000 ) ) ;
#527 = CIRCLE ( 'NONE', #565, 2.000000000000001776 ) ;
#528 = ORIENTED_EDGE ( 'NONE', *, *, #918, .T. ) ;
#529 = APPROVAL_DATE_TIME ( #223, #484 ) ;
#530 = EDGE_LOOP ( 'NONE', ( #504, #700, #837, #706 ) ) ;
#531 = CYLINDRICAL_SURFACE ( 'NONE', #139, 7.524999999999996803 ) ;
#532 = DIRECTION ( 'NONE',  ( 0.000000000000000000, -1.000000000000000000, 0.000000000000000000 ) ) ;
#533 = EDGE_CURVE ( 'NONE', #222, #661, #556, .T. ) ;
#534 = ORIENTED_EDGE ( 'NONE', *, *, #673, .T. ) ;
#535 = CIRCLE ( 'NONE', #96, 7.524999999999996803 ) ;
#536 = EDGE_LOOP ( 'NONE', ( #507, #831, #528, #151 ) ) ;
#537 = PERSON_AND_ORGANIZATION ( #343, #317 ) ;
#538 = CARTESIAN_POINT ( 'NONE',  ( -69.99999999999998579, 0.000000000000000000, 37.47499999999999432 ) ) ;
#539 = FACE_OUTER_BOUND ( 'NONE', #658, .T. ) ;
#540 = ADVANCED_FACE ( 'NONE', ( #710 ), #336, .F. ) ;
#541 = PRODUCT ( 'bolster_bottom_prog', 'bolster_bottom_prog', '', ( #924 ) ) ;
#542 = DIRECTION ( 'NONE',  ( 0.000000000000000000, 1.000000000000000000, 0.000000000000000000 ) ) ;
#543 = FACE_BOUND ( 'NONE', #879, .T. ) ;
#544 = CC_DESIGN_DATE_AND_TIME_ASSIGNMENT ( #550, #942, ( #841 ) ) ;
#545 = AXIS2_PLACEMENT_3D ( 'NONE', #165, #482, #344 ) ;
#546 = APPROVAL_DATE_TIME ( #462, #252 ) ;
#547 = CARTESIAN_POINT ( 'NONE',  ( -48.50000000000000000, 11.00000000000000000, -38.50000000000000000 ) ) ;
#548 = FACE_OUTER_BOUND ( 'NONE', #755, .T. ) ;
#549 = EDGE_CURVE ( 'NONE', #381, #681, #18, .T. ) ;
#550 = DATE_AND_TIME ( #233, #756 ) ;
#551 = EDGE_CURVE ( 'NONE', #601, #221, #715, .T. ) ;
#552 = VERTEX_POINT ( 'NONE', #171 ) ;
#553 = AXIS2_PLACEMENT_3D ( 'NONE', #932, #90, #312 ) ;
#554 = AXIS2_PLACEMENT_3D ( 'NONE', #949, #179, #248 ) ;
#555 = LINE ( 'NONE', #857, #187 ) ;
#556 = LINE ( 'NONE', #167, #764 ) ;
#557 = EDGE_CURVE ( 'NONE', #213, #901, #331, .T. ) ;
#558 = APPLICATION_PROTOCOL_DEFINITION ( 'international standard', 'config_control_design', 1994, #859 ) ;
#559 = EDGE_LOOP ( 'NONE', ( #906, #293, #896, #849 ) ) ;
#560 = FACE_OUTER_BOUND ( 'NONE', #371, .T. ) ;
#561 = CARTESIAN_POINT ( 'NONE',  ( 54.60000000000000142, 11.00000000000000000, -42.60000000000000853 ) ) ;
#562 = APPROVAL_DATE_TIME ( #937, #965 ) ;
#563 = CC_DESIGN_PERSON_AND_ORGANIZATION_ASSIGNMENT ( #568, #865, ( #841 ) ) ;
#564 = CARTESIAN_POINT ( 'NONE',  ( 48.50000000000000000, 3.999999999999999112, -34.50000000000000711 ) ) ;
#565 = AXIS2_PLACEMENT_3D ( 'NONE', #969, #281, #198 ) ;
#566 = EDGE_CURVE ( 'NONE', #328, #146, #22, .T. ) ;
#567 = DIRECTION ( 'NONE',  ( 0.000000000000000000, -1.000000000000000000, 0.000000000000000000 ) ) ;
#568 = PERSON_AND_ORGANIZATION ( #343, #317 ) ;
#569 = LINE ( 'NONE', #410, #752 ) ;
#570 = AXIS2_PLACEMENT_3D ( 'NONE', #279, #593, #55 ) ;
#571 = FACE_BOUND ( 'NONE', #578, .T. ) ;
#572 = CARTESIAN_POINT ( 'NONE',  ( 85.00000000000001421, 0.000000000000000000, 60.00000000000000711 ) ) ;
#573 = DIRECTION ( 'NONE',  ( -0.000000000000000000, 1.000000000000000000, -0.000000000000000000 ) ) ;
#574 = ADVANCED_FACE ( 'NONE', ( #870 ), #648, .F. ) ;
#575 = ORIENTED_EDGE ( 'NONE', *, *, #760, .T. ) ;
#576 = CARTESIAN_POINT ( 'NONE',  ( 70.00000000000001421, 15.00000000000000000, 37.47500000000000853 ) ) ;
#577 = VECTOR ( 'NONE', #938, 1000.000000000000000 ) ;
#578 = EDGE_LOOP ( 'NONE', ( #365, #467 ) ) ;
#579 = DIRECTION ( 'NONE',  ( -1.000000000000000000, 0.000000000000000000, -0.000000000000000000 ) ) ;
#580 = EDGE_CURVE ( 'NONE', #591, #63, #489, .T. ) ;
#581 = FACE_OUTER_BOUND ( 'NONE', #460, .T. ) ;
#582 = VERTEX_POINT ( 'NONE', #400 ) ;
#583 = ORIENTED_EDGE ( 'NONE', *, *, #164, .T. ) ;
#584 = DIRECTION ( 'NONE',  ( 0.000000000000000000, 0.000000000000000000, -1.000000000000000000 ) ) ;
#585 = CIRCLE ( 'NONE', #570, 2.000000000000001776 ) ;
#586 = VECTOR ( 'NONE', #323, 1000.000000000000000 ) ;
#587 = CARTESIAN_POINT ( 'NONE',  ( -69.99999999999998579, 0.000000000000000000, 52.52499999999999147 ) ) ;
#588 = ORIENTED_EDGE ( 'NONE', *, *, #809, .T. ) ;
#589 = CARTESIAN_POINT ( 'NONE',  ( 48.50000000000001421, 11.00000000000000000, 36.49999999999998579 ) ) ;
#590 = CARTESIAN_POINT ( 'NONE',  ( -48.50000000000000000, 3.999999999999999112, 38.50000000000000000 ) ) ;
#591 = VERTEX_POINT ( 'NONE', #29 ) ;
#592 = CARTESIAN_POINT ( 'NONE',  ( -54.60000000000000142, 11.00000000000000000, -42.60000000000000853 ) ) ;
#593 = DIRECTION ( 'NONE',  ( 0.000000000000000000, 1.000000000000000000, 0.000000000000000000 ) ) ;
#594 = PLANE ( 'NONE',  #510 ) ;
#595 = EDGE_LOOP ( 'NONE', ( #534, #373, #803, #351 ) ) ;
#596 = LINE ( 'NONE', #747, #238 ) ;
#597 = CARTESIAN_POINT ( 'NONE',  ( -84.99999999999998579, 0.000000000000000000, -59.99999999999999289 ) ) ;
#598 = EDGE_CURVE ( 'NONE', #661, #205, #256, .T. ) ;
#599 = AXIS2_PLACEMENT_3D ( 'NONE', #748, #51, #798 ) ;
#600 = VECTOR ( 'NONE', #54, 1000.000000000000000 ) ;
#601 = VERTEX_POINT ( 'NONE', #704 ) ;
#602 = DIRECTION ( 'NONE',  ( 0.000000000000000000, -1.000000000000000000, 0.000000000000000000 ) ) ;
#603 = DIRECTION ( 'NONE',  ( -0.000000000000000000, 1.000000000000000000, -0.000000000000000000 ) ) ;
#604 = EDGE_CURVE ( 'NONE', #63, #8, #13, .T. ) ;
#605 = ORIENTED_EDGE ( 'NONE', *, *, #182, .T. ) ;
#606 = ORIENTED_EDGE ( 'NONE', *, *, #875, .F. ) ;
#607 = CYLINDRICAL_SURFACE ( 'NONE', #269, 2.000000000000001776 ) ;
#608 = UNCERTAINTY_MEASURE_WITH_UNIT (LENGTH_MEASURE( 1.000000000000000082E-05 ), #325, 'distance_accuracy_value', 'NONE');
#609 = CARTESIAN_POINT ( 'NONE',  ( -69.99999999999998579, 0.000000000000000000, 44.99999999999999289 ) ) ;
#610 = EDGE_LOOP ( 'NONE', ( #605, #684 ) ) ;
#611 = ORIENTED_EDGE ( 'NONE', *, *, #12, .F. ) ;
#612 = EDGE_CURVE ( 'NONE', #355, #901, #422, .T. ) ;
#613 = ORIENTED_EDGE ( 'NONE', *, *, #612, .T. ) ;
#614 = PLANE ( 'NONE',  #456 ) ;
#615 = EDGE_CURVE ( 'NONE', #64, #513, #667, .T. ) ;
#616 = CARTESIAN_POINT ( 'NONE',  ( -48.50000000000000000, 3.999999999999999112, 36.50000000000000000 ) ) ;
#617 = AXIS2_PLACEMENT_3D ( 'NONE', #228, #81, #135 ) ;
#618 = PERSON_AND_ORGANIZATION ( #343, #317 ) ;
#619 = DIRECTION ( 'NONE',  ( -0.000000000000000000, 1.000000000000000000, -0.000000000000000000 ) ) ;
#620 = DIRECTION ( 'NONE',  ( 0.000000000000000000, 0.000000000000000000, 1.000000000000000000 ) ) ;
#621 = ORIENTED_EDGE ( 'NONE', *, *, #174, .F. ) ;
#622 = CYLINDRICAL_SURFACE ( 'NONE', #119, 7.524999999999996803 ) ;
#623 = DIRECTION ( 'NONE',  ( 0.000000000000000000, 0.000000000000000000, 1.000000000000000000 ) ) ;
#624 = VECTOR ( 'NONE', #959, 1000.000000000000000 ) ;
#625 = LINE ( 'NONE', #180, #941 ) ;
#626 = DIRECTION ( 'NONE',  ( -0.000000000000000000, 1.000000000000000000, -0.000000000000000000 ) ) ;
#627 = DIRECTION ( 'NONE',  ( -0.000000000000000000, -0.000000000000000000, 1.000000000000000000 ) ) ;
#628 = DIRECTION ( 'NONE',  ( 1.000000000000000000, 0.000000000000000000, 0.000000000000000000 ) ) ;
#629 = VERTEX_POINT ( 'NONE', #432 ) ;
#630 = AXIS2_PLACEMENT_3D ( 'NONE', #358, #33, #192 ) ;
#631 = VECTOR ( 'NONE', #162, 1000.000000000000000 ) ;
#632 = DIRECTION ( 'NONE',  ( 0.000000000000000000, 0.000000000000000000, 1.000000000000000000 ) ) ;
#633 = DIRECTION ( 'NONE',  ( 0.000000000000000000, 0.000000000000000000, -1.000000000000000000 ) ) ;
#634 = APPROVAL_ROLE ( '' ) ;
#635 = EDGE_CURVE ( 'NONE', #552, #838, #352, .T. ) ;
#636 = CARTESIAN_POINT ( 'NONE',  ( -84.99999999999998579, 15.00000000000000000, -59.99999999999999289 ) ) ;
#637 = ADVANCED_FACE ( 'NONE', ( #952 ), #733, .F. ) ;
#638 = CARTESIAN_POINT ( 'NONE',  ( -54.60000000000000142, 11.00000000000000000, 42.59999999999999432 ) ) ;
#639 = AXIS2_PLACEMENT_3D ( 'NONE', #227, #542, #314 ) ;
#640 = DIRECTION ( 'NONE',  ( 1.000000000000000000, 0.000000000000000000, 0.000000000000000000 ) ) ;
#641 = DIRECTION ( 'NONE',  ( 0.000000000000000000, 0.000000000000000000, -1.000000000000000000 ) ) ;
#642 = CC_DESIGN_SECURITY_CLASSIFICATION ( #723, ( #367 ) ) ;
#643 = CARTESIAN_POINT ( 'NONE',  ( -69.99999999999998579, 15.00000000000000000, -44.99999999999999289 ) ) ;
#644 = CARTESIAN_POINT ( 'NONE',  ( 70.00000000000001421, 0.000000000000000000, 45.00000000000000711 ) ) ;
#645 = CC_DESIGN_DATE_AND_TIME_ASSIGNMENT ( #839, #920, ( #723 ) ) ;
#646 = AXIS2_PLACEMENT_3D ( 'NONE', #11, #170, #7 ) ;
#647 = VECTOR ( 'NONE', #50, 1000.000000000000000 ) ;
#648 = CYLINDRICAL_SURFACE ( 'NONE', #554, 7.524999999999996803 ) ;
#649 = VERTEX_POINT ( 'NONE', #363 ) ;
#650 = FACE_BOUND ( 'NONE', #966, .T. ) ;
#651 = ORIENTED_EDGE ( 'NONE', *, *, #263, .T. ) ;
#652 = DIRECTION ( 'NONE',  ( 0.000000000000000000, 0.000000000000000000, -1.000000000000000000 ) ) ;
#653 = ADVANCED_FACE ( 'NONE', ( #805 ), #674, .F. ) ;
#654 = ADVANCED_FACE ( 'NONE', ( #266 ), #201, .F. ) ;
#655 = DIRECTION ( 'NONE',  ( 0.000000000000000000, 1.000000000000000000, 0.000000000000000000 ) ) ;
#656 = ORIENTED_EDGE ( 'NONE', *, *, #699, .T. ) ;
#657 = AXIS2_PLACEMENT_3D ( 'NONE', #722, #334, #725 ) ;
#658 = EDGE_LOOP ( 'NONE', ( #430, #583, #112, #855 ) ) ;
#659 = CARTESIAN_POINT ( 'NONE',  ( 48.50000000000001421, 3.999999999999999112, 36.49999999999998579 ) ) ;
#660 = CARTESIAN_POINT ( 'NONE',  ( 70.00000000000001421, 15.00000000000000000, -45.00000000000000711 ) ) ;
#661 = VERTEX_POINT ( 'NONE', #442 ) ;
#662 = CARTESIAN_POINT ( 'NONE',  ( -84.99999999999998579, 0.000000000000000000, -59.99999999999999289 ) ) ;
#663 = CC_DESIGN_PERSON_AND_ORGANIZATION_ASSIGNMENT ( #250, #716, ( #541 ) ) ;
#664 = DIRECTION ( 'NONE',  ( -0.000000000000000000, 1.000000000000000000, -0.000000000000000000 ) ) ;
#665 = ORIENTED_EDGE ( 'NONE', *, *, #829, .T. ) ;
#666 = CARTESIAN_POINT ( 'NONE',  ( -69.99999999999998579, 15.00000000000000000, 37.47499999999999432 ) ) ;
#667 = LINE ( 'NONE', #262, #712 ) ;
#668 = CARTESIAN_POINT ( 'NONE',  ( -48.50000000000000000, 3.999999999999999112, -36.50000000000000000 ) ) ;
#669 = ORIENTED_EDGE ( 'NONE', *, *, #687, .T. ) ;
#670 = EDGE_CURVE ( 'NONE', #513, #444, #5, .T. ) ;
#671 = LINE ( 'NONE', #972, #207 ) ;
#672 = CIRCLE ( 'NONE', #493, 7.524999999999996803 ) ;
#673 = EDGE_CURVE ( 'NONE', #8, #681, #38, .T. ) ;
#674 = CYLINDRICAL_SURFACE ( 'NONE', #916, 2.000000000000001776 ) ;
#675 = ORIENTED_EDGE ( 'NONE', *, *, #203, .F. ) ;
#676 = ORIENTED_EDGE ( 'NONE', *, *, #394, .T. ) ;
#677 = DIRECTION ( 'NONE',  ( -0.000000000000000000, 1.000000000000000000, -0.000000000000000000 ) ) ;
#678 = DIRECTION ( 'NONE',  ( -0.000000000000000000, 1.000000000000000000, -0.000000000000000000 ) ) ;
#679 = VECTOR ( 'NONE', #678, 1000.000000000000000 ) ;
#680 = EDGE_LOOP ( 'NONE', ( #220, #260, #960, #80 ) ) ;
#681 = VERTEX_POINT ( 'NONE', #958 ) ;
#682 = CIRCLE ( 'NONE', #500, 7.524999999999996803 ) ;
#683 = VERTEX_POINT ( 'NONE', #348 ) ;
#684 = ORIENTED_EDGE ( 'NONE', *, *, #777, .T. ) ;
#685 = CARTESIAN_POINT ( 'NONE',  ( -84.99999999999998579, 15.00000000000000000, 60.00000000000000711 ) ) ;
#686 = LINE ( 'NONE', #296, #679 ) ;
#687 = EDGE_CURVE ( 'NONE', #801, #601, #267, .T. ) ;
#688 = EDGE_LOOP ( 'NONE', ( #361, #104, #6, #882 ) ) ;
#689 = ORIENTED_EDGE ( 'NONE', *, *, #203, .T. ) ;
#690 = ORIENTED_EDGE ( 'NONE', *, *, #746, .T. ) ;
#691 = DIRECTION ( 'NONE',  ( 0.000000000000000000, 0.000000000000000000, -1.000000000000000000 ) ) ;
#692 = CARTESIAN_POINT ( 'NONE',  ( 0.000000000000000000, 15.00000000000000000, 0.000000000000000000 ) ) ;
#693 = ORIENTED_EDGE ( 'NONE', *, *, #326, .T. ) ;
#694 = CARTESIAN_POINT ( 'NONE',  ( 48.50000000000000000, 11.00000000000000000, -34.50000000000000711 ) ) ;
#695 = CARTESIAN_POINT ( 'NONE',  ( 70.00000000000001421, 15.00000000000000000, 52.52500000000000568 ) ) ;
#696 = ORIENTED_EDGE ( 'NONE', *, *, #580, .T. ) ;
#697 = DIRECTION ( 'NONE',  ( -0.000000000000000000, 1.000000000000000000, -0.000000000000000000 ) ) ;
#698 = FACE_BOUND ( 'NONE', #132, .T. ) ;
#699 = EDGE_CURVE ( 'NONE', #210, #524, #836, .T. ) ;
#700 = ORIENTED_EDGE ( 'NONE', *, *, #415, .T. ) ;
#701 = CARTESIAN_POINT ( 'NONE',  ( 70.00000000000001421, -0.0009999999999992653654, -37.47500000000000853 ) ) ;
#702 = ADVANCED_FACE ( 'NONE', ( #342 ), #437, .F. ) ;
#703 = DIRECTION ( 'NONE',  ( 0.000000000000000000, 1.000000000000000000, 0.000000000000000000 ) ) ;
#704 = CARTESIAN_POINT ( 'NONE',  ( -69.99999999999998579, 0.000000000000000000, -37.47499999999999432 ) ) ;
#705 = APPROVAL_ROLE ( '' ) ;
#706 = ORIENTED_EDGE ( 'NONE', *, *, #551, .F. ) ;
#707 = CARTESIAN_POINT ( 'NONE',  ( -69.99999999999998579, 15.00000000000000000, 52.52499999999999147 ) ) ;
#708 = CC_DESIGN_APPROVAL ( #252, ( #723 ) ) ;
#709 = CC_DESIGN_PERSON_AND_ORGANIZATION_ASSIGNMENT ( #537, #145, ( #367 ) ) ;
#710 = FACE_OUTER_BOUND ( 'NONE', #454, .T. ) ;
#711 = ORIENTED_EDGE ( 'NONE', *, *, #670, .T. ) ;
#712 = VECTOR ( 'NONE', #573, 1000.000000000000000 ) ;
#713 = EDGE_LOOP ( 'NONE', ( #66, #215 ) ) ;
#714 = VECTOR ( 'NONE', #677, 1000.000000000000000 ) ;
#715 = LINE ( 'NONE', #794, #586 ) ;
#716 = PERSON_AND_ORGANIZATION_ROLE ( 'design_owner' ) ;
#717 = CARTESIAN_POINT ( 'NONE',  ( -48.50000000000000000, 11.00000000000000000, 34.49999999999999289 ) ) ;
#718 = ORIENTED_EDGE ( 'NONE', *, *, #113, .T. ) ;
#719 = FACE_OUTER_BOUND ( 'NONE', #750, .T. ) ;
#721 = EDGE_CURVE ( 'NONE', #138, #591, #505, .T. ) ;
#720 = AXIS2_PLACEMENT_3D ( 'NONE', #491, #496, #796 ) ;
#722 = CARTESIAN_POINT ( 'NONE',  ( -84.99999999999998579, 15.00000000000000000, 60.00000000000000711 ) ) ;
#723 = SECURITY_CLASSIFICATION ( '', '', #978 ) ;
#724 = DIRECTION ( 'NONE',  ( -0.000000000000000000, -0.000000000000000000, 1.000000000000000000 ) ) ;
#725 = DIRECTION ( 'NONE',  ( -1.000000000000000000, 0.000000000000000000, -0.000000000000000000 ) ) ;
#726 = VERTEX_POINT ( 'NONE', #47 ) ;
#727 = AXIS2_PLACEMENT_3D ( 'NONE', #290, #603, #526 ) ;
#728 = ADVANCED_FACE ( 'NONE', ( #885 ), #730, .F. ) ;
#729 = AXIS2_PLACEMENT_3D ( 'NONE', #451, #980, #59 ) ;
#730 = PLANE ( 'NONE',  #630 ) ;
#731 = PLANE ( 'NONE',  #657 ) ;
#732 = ORIENTED_EDGE ( 'NONE', *, *, #580, .F. ) ;
#733 = PLANE ( 'NONE',  #819 ) ;
#734 = FACE_BOUND ( 'NONE', #258, .T. ) ;
#735 = ORIENTED_EDGE ( 'NONE', *, *, #185, .F. ) ;
#736 = DIRECTION ( 'NONE',  ( -0.000000000000000000, -1.000000000000000000, -0.000000000000000000 ) ) ;
#737 = ADVANCED_FACE ( 'NONE', ( #889 ), #195, .F. ) ;
#738 = PLANE ( 'NONE',  #784 ) ;
#739 = EDGE_LOOP ( 'NONE', ( #951, #94, #67, #346 ) ) ;
#740 = CARTESIAN_POINT ( 'NONE',  ( -69.99999999999998579, -0.0009999999999992653654, -52.52499999999999147 ) ) ;
#741 = DIRECTION ( 'NONE',  ( 0.000000000000000000, -1.000000000000000000, 0.000000000000000000 ) ) ;
#742 = AXIS2_PLACEMENT_3D ( 'NONE', #973, #420, #894 ) ;
#743 = EDGE_CURVE ( 'NONE', #146, #110, #585, .T. ) ;
#744 = FACE_OUTER_BOUND ( 'NONE', #791, .T. ) ;
#745 = VERTEX_POINT ( 'NONE', #845 ) ;
#746 = EDGE_CURVE ( 'NONE', #601, #801, #438, .T. ) ;
#747 = CARTESIAN_POINT ( 'NONE',  ( -84.99999999999998579, 0.000000000000000000, 60.00000000000000711 ) ) ;
#748 = CARTESIAN_POINT ( 'NONE',  ( -48.50000000000000000, 3.999999999999999112, -36.50000000000000000 ) ) ;
#749 = FACE_OUTER_BOUND ( 'NONE', #275, .T. ) ;
#750 = EDGE_LOOP ( 'NONE', ( #520, #419, #287, #41 ) ) ;
#751 = CARTESIAN_POINT ( 'NONE',  ( -48.50000000000000000, 3.999999999999999112, 36.50000000000000000 ) ) ;
#752 = VECTOR ( 'NONE', #868, 1000.000000000000000 ) ;
#753 = CARTESIAN_POINT ( 'NONE',  ( -54.60000000000000142, 11.00000000000000000, 42.59999999999999432 ) ) ;
#754 = VECTOR ( 'NONE', #664, 1000.000000000000000 ) ;
#755 = EDGE_LOOP ( 'NONE', ( #696, #956, #265, #406 ) ) ;
#756 = LOCAL_TIME ( 11, 53, 46.00000000000000000, #788 ) ;
#757 = VERTEX_POINT ( 'NONE', #695 ) ;
#758 = ORIENTED_EDGE ( 'NONE', *, *, #984, .F. ) ;
#759 = FACE_OUTER_BOUND ( 'NONE', #483, .T. ) ;
#760 = EDGE_CURVE ( 'NONE', #901, #355, #225, .T. ) ;
#761 = DIRECTION ( 'NONE',  ( 1.000000000000000000, 0.000000000000000000, 0.000000000000000000 ) ) ;
#762 = AXIS2_PLACEMENT_3D ( 'NONE', #494, #963, #515 ) ;
#763 = ORIENTED_EDGE ( 'NONE', *, *, #598, .T. ) ;
#764 = VECTOR ( 'NONE', #627, 1000.000000000000000 ) ;
#765 = ORIENTED_EDGE ( 'NONE', *, *, #292, .T. ) ;
#766 = ORIENTED_EDGE ( 'NONE', *, *, #86, .T. ) ;
#767 = CARTESIAN_POINT ( 'NONE',  ( 54.60000000000000142, 11.00000000000000000, -42.60000000000000853 ) ) ;
#768 = PLANE ( 'NONE',  #286 ) ;
#769 = ORIENTED_EDGE ( 'NONE', *, *, #888, .T. ) ;
#770 = LINE ( 'NONE', #85, #431 ) ;
#771 = DIRECTION ( 'NONE',  ( -0.000000000000000000, -1.000000000000000000, -0.000000000000000000 ) ) ;
#772 = PERSON_AND_ORGANIZATION_ROLE ( 'classification_officer' ) ;
#773 = ORIENTED_EDGE ( 'NONE', *, *, #604, .T. ) ;
#774 = FACE_OUTER_BOUND ( 'NONE', #272, .T. ) ;
#775 = AXIS2_PLACEMENT_3D ( 'NONE', #310, #922, #623 ) ;
#776 = VECTOR ( 'NONE', #893, 1000.000000000000000 ) ;
#777 = EDGE_CURVE ( 'NONE', #649, #683, #206, .T. ) ;
#778 = CARTESIAN_POINT ( 'NONE',  ( -54.60000000000000142, 15.00000000000000000, 42.59999999999999432 ) ) ;
#779 = DIRECTION ( 'NONE',  ( -1.000000000000000000, 0.000000000000000000, -0.000000000000000000 ) ) ;
#780 = DIRECTION ( 'NONE',  ( -0.000000000000000000, -1.000000000000000000, -0.000000000000000000 ) ) ;
#781 = DIRECTION ( 'NONE',  ( 0.000000000000000000, -1.000000000000000000, 0.000000000000000000 ) ) ;
#782 = DIRECTION ( 'NONE',  ( -1.000000000000000000, -0.000000000000000000, -0.000000000000000000 ) ) ;
#783 = FACE_BOUND ( 'NONE', #102, .T. ) ;
#784 = AXIS2_PLACEMENT_3D ( 'NONE', #439, #890, #48 ) ;
#785 = APPROVAL_STATUS ( 'not_yet_approved' ) ;
#786 = ORIENTED_EDGE ( 'NONE', *, *, #130, .F. ) ;
#787 = CARTESIAN_POINT ( 'NONE',  ( 48.50000000000001421, 11.00000000000000000, 34.49999999999997868 ) ) ;
#788 = COORDINATED_UNIVERSAL_TIME_OFFSET ( 0, 0, .AHEAD. ) ;
#789 = DIRECTION ( 'NONE',  ( 0.000000000000000000, 0.000000000000000000, -1.000000000000000000 ) ) ;
#790 = VECTOR ( 'NONE', #273, 1000.000000000000000 ) ;
#791 = EDGE_LOOP ( 'NONE', ( #58, #503 ) ) ;
#792 = DIRECTION ( 'NONE',  ( 1.000000000000000000, 0.000000000000000000, 0.000000000000000000 ) ) ;
#793 = DIRECTION ( 'NONE',  ( 0.000000000000000000, 0.000000000000000000, -1.000000000000000000 ) ) ;
#794 = CARTESIAN_POINT ( 'NONE',  ( -69.99999999999998579, -0.0009999999999992653654, -37.47499999999999432 ) ) ;
#795 = VECTOR ( 'NONE', #414, 1000.000000000000000 ) ;
#796 = DIRECTION ( 'NONE',  ( 0.000000000000000000, 0.000000000000000000, -1.000000000000000000 ) ) ;
#797 = ORIENTED_EDGE ( 'NONE', *, *, #185, .T. ) ;
#798 = DIRECTION ( 'NONE',  ( 0.000000000000000000, 0.000000000000000000, 1.000000000000000000 ) ) ;
#799 = CARTESIAN_POINT ( 'NONE',  ( -48.50000000000000000, 3.999999999999999112, -34.49999999999999289 ) ) ;
#800 = ADVANCED_FACE ( 'NONE', ( #61 ), #396, .F. ) ;
#801 = VERTEX_POINT ( 'NONE', #390 ) ;
#802 = AXIS2_PLACEMENT_3D ( 'NONE', #509, #652, #579 ) ;
#803 = ORIENTED_EDGE ( 'NONE', *, *, #99, .F. ) ;
#804 = CIRCLE ( 'NONE', #729, 2.000000000000001776 ) ;
#805 = FACE_OUTER_BOUND ( 'NONE', #424, .T. ) ;
#806 = DIRECTION ( 'NONE',  ( 0.000000000000000000, -0.000000000000000000, -1.000000000000000000 ) ) ;
#807 = EDGE_LOOP ( 'NONE', ( #902, #975, #892, #523 ) ) ;
#808 = CARTESIAN_POINT ( 'NONE',  ( 48.50000000000001421, 3.999999999999999112, 36.49999999999998579 ) ) ;
#809 = EDGE_CURVE ( 'NONE', #234, #285, #226, .T. ) ;
#810 = DIRECTION ( 'NONE',  ( 0.000000000000000000, 0.000000000000000000, 1.000000000000000000 ) ) ;
#811 = ORIENTED_EDGE ( 'NONE', *, *, #133, .F. ) ;
#812 = DIRECTION ( 'NONE',  ( 1.000000000000000000, 0.000000000000000000, 0.000000000000000000 ) ) ;
#813 = AXIS2_PLACEMENT_3D ( 'NONE', #319, #487, #628 ) ;
#814 = CARTESIAN_POINT ( 'NONE',  ( -48.50000000000000000, 3.999999999999999112, -36.50000000000000000 ) ) ;
#815 = ORIENTED_EDGE ( 'NONE', *, *, #318, .T. ) ;
#816 = CARTESIAN_POINT ( 'NONE',  ( 70.00000000000001421, 0.000000000000000000, -45.00000000000000711 ) ) ;
#817 = AXIS2_PLACEMENT_3D ( 'NONE', #987, #77, #620 ) ;
#818 = DIRECTION ( 'NONE',  ( -0.000000000000000000, 1.000000000000000000, -0.000000000000000000 ) ) ;
#819 = AXIS2_PLACEMENT_3D ( 'NONE', #808, #741, #499 ) ;
#820 = ORIENTED_EDGE ( 'NONE', *, *, #826, .F. ) ;
#821 = DIRECTION ( 'NONE',  ( 0.000000000000000000, -0.000000000000000000, -1.000000000000000000 ) ) ;
#822 = EDGE_LOOP ( 'NONE', ( #308, #887, #676, #245 ) ) ;
#823 = DIRECTION ( 'NONE',  ( 0.000000000000000000, 0.000000000000000000, 1.000000000000000000 ) ) ;
#824 = FACE_OUTER_BOUND ( 'NONE', #739, .T. ) ;
#825 = ORIENTED_EDGE ( 'NONE', *, *, #549, .T. ) ;
#826 = EDGE_CURVE ( 'NONE', #53, #745, #158, .T. ) ;
#827 = COORDINATED_UNIVERSAL_TIME_OFFSET ( 0, 0, .AHEAD. ) ;
#828 = DIRECTION ( 'NONE',  ( -0.000000000000000000, 1.000000000000000000, -0.000000000000000000 ) ) ;
#829 = EDGE_CURVE ( 'NONE', #497, #64, #395, .T. ) ;
#830 = LINE ( 'NONE', #141, #127 ) ;
#831 = ORIENTED_EDGE ( 'NONE', *, *, #433, .T. ) ;
#832 = EDGE_LOOP ( 'NONE', ( #49, #912, #962, #825 ) ) ;
#833 = EDGE_LOOP ( 'NONE', ( #282, #71, #294, #852 ) ) ;
#834 = DIRECTION ( 'NONE',  ( 1.000000000000000000, -0.000000000000000000, 0.000000000000000000 ) ) ;
#835 = DIRECTION ( 'NONE',  ( 0.000000000000000000, 0.000000000000000000, -1.000000000000000000 ) ) ;
#836 = CIRCLE ( 'NONE', #762, 7.524999999999996803 ) ;
#837 = ORIENTED_EDGE ( 'NONE', *, *, #100, .T. ) ;
#838 = VERTEX_POINT ( 'NONE', #597 ) ;
#839 = DATE_AND_TIME ( #84, #512 ) ;
#840 = CARTESIAN_POINT ( 'NONE',  ( 70.00000000000001421, -0.0009999999999992653654, 52.52500000000000568 ) ) ;
#841 = PRODUCT_DEFINITION ( 'UNKNOWN', '', #367, #218 ) ;
#842 = CYLINDRICAL_SURFACE ( 'NONE', #727, 7.524999999999996803 ) ;
#843 = PERSON_AND_ORGANIZATION_ROLE ( 'creator' ) ;
#844 = CARTESIAN_POINT ( 'NONE',  ( 70.00000000000001421, -0.0009999999999992653654, 45.00000000000000711 ) ) ;
#845 = CARTESIAN_POINT ( 'NONE',  ( 54.60000000000000142, 11.00000000000000000, 42.59999999999999432 ) ) ;
#846 = CIRCLE ( 'NONE', #891, 7.524999999999996803 ) ;
#847 = EDGE_CURVE ( 'NONE', #497, #444, #686, .T. ) ;
#848 = EDGE_CURVE ( 'NONE', #380, #213, #535, .T. ) ;
#849 = ORIENTED_EDGE ( 'NONE', *, *, #615, .F. ) ;
#850 = DIRECTION ( 'NONE',  ( 0.000000000000000000, 0.000000000000000000, 1.000000000000000000 ) ) ;
#851 = FACE_BOUND ( 'NONE', #990, .T. ) ;
#852 = ORIENTED_EDGE ( 'NONE', *, *, #86, .F. ) ;
#853 = CIRCLE ( 'NONE', #945, 7.524999999999996803 ) ;
#854 = PERSON_AND_ORGANIZATION ( #343, #317 ) ;
#855 = ORIENTED_EDGE ( 'NONE', *, *, #557, .F. ) ;
#856 = ADVANCED_FACE ( 'NONE', ( #774 ), #915, .F. ) ;
#857 = CARTESIAN_POINT ( 'NONE',  ( -54.60000000000000142, 15.00000000000000000, -42.60000000000000853 ) ) ;
#858 = DIRECTION ( 'NONE',  ( -0.000000000000000000, 1.000000000000000000, -0.000000000000000000 ) ) ;
#859 = APPLICATION_CONTEXT ( 'configuration controlled 3d designs of mechanical parts and assemblies' ) ;
#860 = CARTESIAN_POINT ( 'NONE',  ( -69.99999999999998579, 0.000000000000000000, 44.99999999999999289 ) ) ;
#861 = CYLINDRICAL_SURFACE ( 'NONE', #646, 7.524999999999996803 ) ;
#862 = ADVANCED_FACE ( 'NONE', ( #910, #522, #698, #543, #284, #824 ), #219, .F. ) ;
#863 = CYLINDRICAL_SURFACE ( 'NONE', #189, 2.000000000000001776 ) ;
#864 = VECTOR ( 'NONE', #443, 1000.000000000000000 ) ;
#865 = PERSON_AND_ORGANIZATION_ROLE ( 'creator' ) ;
#866 = CARTESIAN_POINT ( 'NONE',  ( -54.60000000000000142, 11.00000000000000000, 42.59999999999999432 ) ) ;
#867 = DIRECTION ( 'NONE',  ( 0.000000000000000000, -0.000000000000000000, -1.000000000000000000 ) ) ;
#868 = DIRECTION ( 'NONE',  ( -0.000000000000000000, 1.000000000000000000, -0.000000000000000000 ) ) ;
#869 = VECTOR ( 'NONE', #640, 1000.000000000000000 ) ;
#870 = FACE_OUTER_BOUND ( 'NONE', #530, .T. ) ;
#871 = ADVANCED_FACE ( 'NONE', ( #539 ), #842, .F. ) ;
#872 = CARTESIAN_POINT ( 'NONE',  ( 70.00000000000001421, 0.000000000000000000, 37.47500000000000853 ) ) ;
#873 = CARTESIAN_POINT ( 'NONE',  ( -69.99999999999998579, 15.00000000000000000, 44.99999999999999289 ) ) ;
#875 = EDGE_CURVE ( 'NONE', #1, #726, #830, .T. ) ;
#874 = CIRCLE ( 'NONE', #214, 7.524999999999996803 ) ;
#876 = AXIS2_PLACEMENT_3D ( 'NONE', #251, #655, #28 ) ;
#877 = AXIS2_PLACEMENT_3D ( 'NONE', #886, #511, #810 ) ;
#878 = FACE_BOUND ( 'NONE', #340, .T. ) ;
#879 = EDGE_LOOP ( 'NONE', ( #117, #155 ) ) ;
#880 = DIRECTION ( 'NONE',  ( 0.000000000000000000, 0.000000000000000000, -1.000000000000000000 ) ) ;
#881 = DIRECTION ( 'NONE',  ( 0.000000000000000000, 1.000000000000000000, -0.000000000000000000 ) ) ;
#882 = ORIENTED_EDGE ( 'NONE', *, *, #612, .F. ) ;
#883 = ADVANCED_FACE ( 'NONE', ( #149 ), #768, .F. ) ;
#884 = AXIS2_PLACEMENT_3D ( 'NONE', #638, #241, #792 ) ;
#885 = FACE_OUTER_BOUND ( 'NONE', #449, .T. ) ;
#886 = CARTESIAN_POINT ( 'NONE',  ( 48.50000000000000000, 3.999999999999999112, -36.50000000000001421 ) ) ;
#887 = ORIENTED_EDGE ( 'NONE', *, *, #263, .F. ) ;
#888 = EDGE_CURVE ( 'NONE', #320, #328, #393, .T. ) ;
#889 = FACE_OUTER_BOUND ( 'NONE', #832, .T. ) ;
#890 = DIRECTION ( 'NONE',  ( 0.000000000000000000, 1.000000000000000000, 0.000000000000000000 ) ) ;
#891 = AXIS2_PLACEMENT_3D ( 'NONE', #501, #881, #423 ) ;
#892 = ORIENTED_EDGE ( 'NONE', *, *, #65, .T. ) ;
#893 = DIRECTION ( 'NONE',  ( -1.000000000000000000, -0.000000000000000000, -0.000000000000000000 ) ) ;
#894 = DIRECTION ( 'NONE',  ( 0.000000000000000000, 0.000000000000000000, 1.000000000000000000 ) ) ;
#895 = DIRECTION ( 'NONE',  ( 0.000000000000000000, -1.000000000000000000, 0.000000000000000000 ) ) ;
#896 = ORIENTED_EDGE ( 'NONE', *, *, #459, .T. ) ;
#897 = DIRECTION ( 'NONE',  ( 0.000000000000000000, 1.000000000000000000, 0.000000000000000000 ) ) ;
#898 = CARTESIAN_POINT ( 'NONE',  ( -69.99999999999998579, 0.000000000000000000, -44.99999999999999289 ) ) ;
#899 = AXIS2_PLACEMENT_3D ( 'NONE', #329, #567, #867 ) ;
#900 = ADVANCED_FACE ( 'NONE', ( #560 ), #471, .F. ) ;
#901 = VERTEX_POINT ( 'NONE', #707 ) ;
#902 = ORIENTED_EDGE ( 'NONE', *, *, #99, .T. ) ;
#903 = CARTESIAN_POINT ( 'NONE',  ( 70.00000000000001421, -0.0009999999999992653654, -45.00000000000000711 ) ) ;
#904 = DIRECTION ( 'NONE',  ( 0.000000000000000000, 0.000000000000000000, -1.000000000000000000 ) ) ;
#905 = ORIENTED_EDGE ( 'NONE', *, *, #309, .T. ) ;
#906 = ORIENTED_EDGE ( 'NONE', *, *, #829, .F. ) ;
#907 = VERTEX_POINT ( 'NONE', #17 ) ;
#908 = APPLICATION_CONTEXT ( 'configuration controlled 3d designs of mechanical parts and assemblies' ) ;
#909 = DIRECTION ( 'NONE',  ( 0.000000000000000000, 0.000000000000000000, -1.000000000000000000 ) ) ;
#910 = FACE_BOUND ( 'NONE', #300, .T. ) ;
#911 = ORIENTED_EDGE ( 'NONE', *, *, #370, .F. ) ;
#912 = ORIENTED_EDGE ( 'NONE', *, *, #721, .F. ) ;
#913 = FACE_OUTER_BOUND ( 'NONE', #595, .T. ) ;
#914 = EDGE_CURVE ( 'NONE', #582, #649, #321, .T. ) ;
#915 = CYLINDRICAL_SURFACE ( 'NONE', #617, 2.000000000000001776 ) ;
#916 = AXIS2_PLACEMENT_3D ( 'NONE', #659, #114, #181 ) ;
#917 = CYLINDRICAL_SURFACE ( 'NONE', #447, 2.000000000000001776 ) ;
#918 = EDGE_CURVE ( 'NONE', #106, #757, #853, .T. ) ;
#919 = CARTESIAN_POINT ( 'NONE',  ( 70.00000000000001421, 15.00000000000000000, -45.00000000000000711 ) ) ;
#920 = DATE_TIME_ROLE ( 'classification_date' ) ;
#921 = ORIENTED_EDGE ( 'NONE', *, *, #993, .F. ) ;
#922 = DIRECTION ( 'NONE',  ( 0.000000000000000000, 1.000000000000000000, 0.000000000000000000 ) ) ;
#923 = PRODUCT_RELATED_PRODUCT_CATEGORY ( 'detail', '', ( #541 ) ) ;
#924 = MECHANICAL_CONTEXT ( 'NONE', #859, 'mechanical' ) ;
#925 = APPROVAL_PERSON_ORGANIZATION ( #405, #965, #634 ) ;
#926 = ORIENTED_EDGE ( 'NONE', *, *, #356, .F. ) ;
#927 = CARTESIAN_POINT ( 'NONE',  ( 70.00000000000001421, 15.00000000000000000, 45.00000000000000711 ) ) ;
#928 = CARTESIAN_POINT ( 'NONE',  ( -69.99999999999998579, -0.0009999999999992653654, 52.52499999999999147 ) ) ;
#929 = AXIS2_PLACEMENT_3D ( 'NONE', #166, #779, #399 ) ;
#930 = ADVANCED_FACE ( 'NONE', ( #548 ), #240, .F. ) ;
#931 = AXIS2_PLACEMENT_3D ( 'NONE', #211, #514, #909 ) ;
#932 = CARTESIAN_POINT ( 'NONE',  ( 70.00000000000001421, 0.000000000000000000, -45.00000000000000711 ) ) ;
#933 = EDGE_CURVE ( 'NONE', #757, #106, #236, .T. ) ;
#934 = EDGE_LOOP ( 'NONE', ( #693, #765 ) ) ;
#935 = FACE_OUTER_BOUND ( 'NONE', #688, .T. ) ;
#936 = FACE_OUTER_BOUND ( 'NONE', #807, .T. ) ;
#937 = DATE_AND_TIME ( #242, #249 ) ;
#938 = DIRECTION ( 'NONE',  ( -1.000000000000000000, -0.000000000000000000, -0.000000000000000000 ) ) ;
#939 = ORIENTED_EDGE ( 'NONE', *, *, #848, .F. ) ;
#940 = CARTESIAN_POINT ( 'NONE',  ( -48.50000000000000000, 3.999999999999999112, 34.49999999999999289 ) ) ;
#941 = VECTOR ( 'NONE', #789, 1000.000000000000000 ) ;
#942 = DATE_TIME_ROLE ( 'creation_date' ) ;
#943 = CARTESIAN_POINT ( 'NONE',  ( -84.99999999999998579, 15.00000000000000000, -59.99999999999999289 ) ) ;
#944 = CARTESIAN_POINT ( 'NONE',  ( 85.00000000000001421, 15.00000000000000000, 60.00000000000000711 ) ) ;
#945 = AXIS2_PLACEMENT_3D ( 'NONE', #315, #475, #632 ) ;
#946 = DIRECTION ( 'NONE',  ( 0.000000000000000000, 1.000000000000000000, 0.000000000000000000 ) ) ;
#947 = AXIS2_PLACEMENT_3D ( 'NONE', #751, #897, #525 ) ;
#948 = ADVANCED_FACE ( 'NONE', ( #935 ), #861, .F. ) ;
#949 = CARTESIAN_POINT ( 'NONE',  ( -69.99999999999998579, -0.0009999999999992653654, -44.99999999999999289 ) ) ;
#950 = PLANE ( 'NONE',  #75 ) ;
#951 = ORIENTED_EDGE ( 'NONE', *, *, #875, .T. ) ;
#952 = FACE_OUTER_BOUND ( 'NONE', #191, .T. ) ;
#953 = EDGE_CURVE ( 'NONE', #57, #37, #421, .T. ) ;
#954 = DIRECTION ( 'NONE',  ( 0.000000000000000000, 0.000000000000000000, -1.000000000000000000 ) ) ;
#955 = EDGE_LOOP ( 'NONE', ( #675, #35, #588, #384 ) ) ;
#956 = ORIENTED_EDGE ( 'NONE', *, *, #318, .F. ) ;
#957 = ORIENTED_EDGE ( 'NONE', *, *, #88, .T. ) ;
#958 = CARTESIAN_POINT ( 'NONE',  ( 54.60000000000000142, 15.00000000000000000, -42.60000000000000853 ) ) ;
#959 = DIRECTION ( 'NONE',  ( 0.000000000000000000, 0.000000000000000000, -1.000000000000000000 ) ) ;
#960 = ORIENTED_EDGE ( 'NONE', *, *, #257, .T. ) ;
#961 = AXIS2_PLACEMENT_3D ( 'NONE', #919, #771, #70 ) ;
#962 = ORIENTED_EDGE ( 'NONE', *, *, #426, .F. ) ;
#963 = DIRECTION ( 'NONE',  ( -0.000000000000000000, 1.000000000000000000, -0.000000000000000000 ) ) ;
#964 = CARTESIAN_POINT ( 'NONE',  ( -48.50000000000000000, 3.999999999999999112, -38.50000000000000000 ) ) ;
#965 = APPROVAL ( #785, 'UNSPECIFIED' ) ;
#966 = EDGE_LOOP ( 'NONE', ( #690, #669 ) ) ;
#967 = FACE_OUTER_BOUND ( 'NONE', #10, .T. ) ;
#968 = CARTESIAN_POINT ( 'NONE',  ( 54.60000000000000142, 15.00000000000000000, 42.59999999999999432 ) ) ;
#969 = CARTESIAN_POINT ( 'NONE',  ( -48.50000000000000000, 3.999999999999999112, -36.50000000000000000 ) ) ;
#970 = CLOSED_SHELL ( 'NONE', ( #14, #800, #341, #856, #413, #871, #335, #574, #728, #883, #368, #244, #862, #142, #900, #2, #948, #654, #391, #540, #930, #737, #498, #518, #385, #311, #271, #653, #637, #702, #299 ) ) ;
#971 = ORIENTED_EDGE ( 'NONE', *, *, #551, .T. ) ;
#972 = CARTESIAN_POINT ( 'NONE',  ( 54.60000000000000142, 11.00000000000000000, 42.59999999999999432 ) ) ;
#973 = CARTESIAN_POINT ( 'NONE',  ( 70.00000000000001421, -0.0009999999999992653654, -45.00000000000000711 ) ) ;
#974 = EDGE_CURVE ( 'NONE', #681, #591, #555, .T. ) ;
#975 = ORIENTED_EDGE ( 'NONE', *, *, #426, .T. ) ;
#976 = PRODUCT_DEFINITION_SHAPE ( 'NONE', 'NONE',  #841 ) ;
#977 = EDGE_LOOP ( 'NONE', ( #921, #389 ) ) ;
#978 = SECURITY_CLASSIFICATION_LEVEL ( 'unclassified' ) ;
#979 = ORIENTED_EDGE ( 'NONE', *, *, #113, .F. ) ;
#980 = DIRECTION ( 'NONE',  ( 0.000000000000000000, 1.000000000000000000, 0.000000000000000000 ) ) ;
#981 = CIRCLE ( 'NONE', #553, 7.524999999999996803 ) ;
#982 = DIRECTION ( 'NONE',  ( 0.000000000000000000, -1.000000000000000000, 0.000000000000000000 ) ) ;
#983 = VECTOR ( 'NONE', #357, 1000.000000000000000 ) ;
#984 = EDGE_CURVE ( 'NONE', #205, #332, #92, .T. ) ;
#985 = ORIENTED_EDGE ( 'NONE', *, *, #743, .F. ) ;
#986 = LINE ( 'NONE', #840, #714 ) ;
#987 = CARTESIAN_POINT ( 'NONE',  ( -69.99999999999998579, 15.00000000000000000, 44.99999999999999289 ) ) ;
#988 = ORIENTED_EDGE ( 'NONE', *, *, #566, .T. ) ;
#989 = ORIENTED_EDGE ( 'NONE', *, *, #670, .F. ) ;
#990 = EDGE_LOOP ( 'NONE', ( #989, #194 ) ) ;
#991 = APPROVAL_ROLE ( '' ) ;
#992 = ORIENTED_EDGE ( 'NONE', *, *, #746, .F. ) ;
#993 = EDGE_CURVE ( 'NONE', #629, #582, #981, .T. ) ;
#994 = FACE_OUTER_BOUND ( 'NONE', #680, .T. ) ;
#995 = DIRECTION ( 'NONE',  ( 0.000000000000000000, 0.000000000000000000, 1.000000000000000000 ) ) ;
ENDSEC;
END-ISO-10303-21;
