ISO-10303-21;
HEADER;
FILE_DESCRIPTION (( 'STEP AP203' ),
    '1' );
FILE_NAME ('pillar.STEP',
    '2025-12-05T11:54:45',
    ( '' ),
    ( '' ),
    'SwSTEP 2.0',
    'SolidWorks 2020',
    '' );
FILE_SCHEMA (( 'CONFIG_CONTROL_DESIGN' ));
ENDSEC;

DATA;
#1 = CARTESIAN_POINT ( 'NONE',  ( 0.000000000000000000, 120.0000000000000000, 0.000000000000000000 ) ) ;
#2 = AXIS2_PLACEMENT_3D ( 'NONE', #30, #203, #95 ) ;
#3 = ORIENTED_EDGE ( 'NONE', *, *, #91, .F. ) ;
#4 = CARTESIAN_POINT ( 'NONE',  ( 0.000000000000000000, 120.0000000000000000, 0.000000000000000000 ) ) ;
#5 = PRODUCT_DEFINITION_FORMATION_WITH_SPECIFIED_SOURCE ( 'ANY', '', #184, .NOT_KNOWN. ) ;
#6 = PERSON ( 'UNSPECIFIED', 'UNSPECIFIED', 'UNSPECIFIED', ('UNSPECIFIED'), ('UNSPECIFIED'), ('UNSPECIFIED') ) ;
#7 = ORIENTED_EDGE ( 'NONE', *, *, #191, .F. ) ;
#8 = APPROVAL_ROLE ( '' ) ;
#9 = ORIENTED_EDGE ( 'NONE', *, *, #131, .F. ) ;
#10 = AXIS2_PLACEMENT_3D ( 'NONE', #41, #169, #73 ) ;
#11 = APPROVAL_DATE_TIME ( #159, #210 ) ;
#12 = DIRECTION ( 'NONE',  ( 0.000000000000000000, 1.000000000000000000, 0.000000000000000000 ) ) ;
#13 = CYLINDRICAL_SURFACE ( 'NONE', #62, 7.500000000000000000 ) ;
#14 = PRODUCT_DEFINITION_SHAPE ( 'NONE', 'NONE',  #186 ) ;
#15 = CC_DESIGN_SECURITY_CLASSIFICATION ( #214, ( #5 ) ) ;
#16 = EDGE_LOOP ( 'NONE', ( #9, #82, #23, #141 ) ) ;
#17 = ORIENTED_EDGE ( 'NONE', *, *, #20, .T. ) ;
#18 = AXIS2_PLACEMENT_3D ( 'NONE', #126, #217, #104 ) ;
#19 = VERTEX_POINT ( 'NONE', #90 ) ;
#20 = EDGE_CURVE ( 'NONE', #38, #58, #33, .T. ) ;
#21 = CARTESIAN_POINT ( 'NONE',  ( 0.000000000000000000, 0.000000000000000000, -7.500000000000000000 ) ) ;
#22 = AXIS2_PLACEMENT_3D ( 'NONE', #145, #12, #113 ) ;
#23 = ORIENTED_EDGE ( 'NONE', *, *, #225, .T. ) ;
#24 = PERSON_AND_ORGANIZATION ( #6, #166 ) ;
#25 = DIRECTION ( 'NONE',  ( 0.000000000000000000, 0.000000000000000000, 1.000000000000000000 ) ) ;
#26 = APPROVAL_PERSON_ORGANIZATION ( #45, #210, #171 ) ;
#27 = COORDINATED_UNIVERSAL_TIME_OFFSET ( 0, 0, .AHEAD. ) ;
#28 = CARTESIAN_POINT ( 'NONE',  ( 9.184850993605147944E-16, 120.0000000000000000, 7.500000000000000000 ) ) ;
#29 = CALENDAR_DATE ( 2025, 5, 12 ) ;
#30 = CARTESIAN_POINT ( 'NONE',  ( 0.000000000000000000, 120.0000000000000000, 0.000000000000000000 ) ) ;
#31 = ADVANCED_FACE ( 'NONE', ( #44 ), #108, .T. ) ;
#32 =( NAMED_UNIT ( * ) PLANE_ANGLE_UNIT ( ) SI_UNIT ( $, .RADIAN. ) );
#33 = CIRCLE ( 'NONE', #218, 6.500000000000005329 ) ;
#34 = APPROVAL_PERSON_ORGANIZATION ( #67, #174, #163 ) ;
#35 = VERTEX_POINT ( 'NONE', #21 ) ;
#36 = VECTOR ( 'NONE', #48, 1000.000000000000000 ) ;
#37 = UNCERTAINTY_MEASURE_WITH_UNIT (LENGTH_MEASURE( 1.000000000000000082E-05 ), #183, 'distance_accuracy_value', 'NONE');
#38 = VERTEX_POINT ( 'NONE', #127 ) ;
#39 = PERSON_AND_ORGANIZATION ( #6, #166 ) ;
#40 = ORIENTED_EDGE ( 'NONE', *, *, #225, .F. ) ;
#41 = CARTESIAN_POINT ( 'NONE',  ( 0.000000000000000000, 0.000000000000000000, 0.000000000000000000 ) ) ;
#42 = PERSON_AND_ORGANIZATION ( #6, #166 ) ;
#43 = AXIS2_PLACEMENT_3D ( 'NONE', #109, #194, #88 ) ;
#44 = FACE_OUTER_BOUND ( 'NONE', #153, .T. ) ;
#45 = PERSON_AND_ORGANIZATION ( #6, #166 ) ;
#46 = DIRECTION ( 'NONE',  ( 0.000000000000000000, -0.7071067811865545671, -0.7071067811865404673 ) ) ;
#47 = SECURITY_CLASSIFICATION_LEVEL ( 'unclassified' ) ;
#48 = DIRECTION ( 'NONE',  ( 8.659560562354846577E-17, -0.7071067811865545671, 0.7071067811865404673 ) ) ;
#49 = AXIS2_PLACEMENT_3D ( 'NONE', #1, #61, #156 ) ;
#50 = DIRECTION ( 'NONE',  ( 0.000000000000000000, 0.000000000000000000, 1.000000000000000000 ) ) ;
#51 = VECTOR ( 'NONE', #152, 1000.000000000000000 ) ;
#52 = EDGE_LOOP ( 'NONE', ( #173, #119, #216, #176 ) ) ;
#53 = DATE_AND_TIME ( #182, #76 ) ;
#54 = DIRECTION ( 'NONE',  ( 0.000000000000000000, 0.000000000000000000, 1.000000000000000000 ) ) ;
#55 = DIRECTION ( 'NONE',  ( 0.000000000000000000, 0.000000000000000000, 1.000000000000000000 ) ) ;
#56 = CARTESIAN_POINT ( 'NONE',  ( 9.184850993605147944E-16, 0.000000000000000000, 7.500000000000000000 ) ) ;
#57 = PERSON_AND_ORGANIZATION_ROLE ( 'creator' ) ;
#58 = VERTEX_POINT ( 'NONE', #87 ) ;
#59 = CC_DESIGN_PERSON_AND_ORGANIZATION_ASSIGNMENT ( #65, #133, ( #184 ) ) ;
#60 = PERSON_AND_ORGANIZATION_ROLE ( 'design_supplier' ) ;
#61 = DIRECTION ( 'NONE',  ( 0.000000000000000000, 1.000000000000000000, 0.000000000000000000 ) ) ;
#62 = AXIS2_PLACEMENT_3D ( 'NONE', #85, #143, #128 ) ;
#63 = DIRECTION ( 'NONE',  ( -0.000000000000000000, -1.000000000000000000, -0.000000000000000000 ) ) ;
#64 = DIRECTION ( 'NONE',  ( 0.000000000000000000, 0.000000000000000000, -1.000000000000000000 ) ) ;
#65 = PERSON_AND_ORGANIZATION ( #6, #166 ) ;
#66 = CC_DESIGN_APPROVAL ( #101, ( #5 ) ) ;
#67 = PERSON_AND_ORGANIZATION ( #6, #166 ) ;
#68 = CC_DESIGN_DATE_AND_TIME_ASSIGNMENT ( #199, #124, ( #214 ) ) ;
#69 = CC_DESIGN_PERSON_AND_ORGANIZATION_ASSIGNMENT ( #151, #57, ( #186 ) ) ;
#70 = VERTEX_POINT ( 'NONE', #56 ) ;
#71 = CC_DESIGN_APPROVAL ( #210, ( #214 ) ) ;
#72 =( GEOMETRIC_REPRESENTATION_CONTEXT ( 3 ) GLOBAL_UNCERTAINTY_ASSIGNED_CONTEXT ( ( #37 ) ) GLOBAL_UNIT_ASSIGNED_CONTEXT ( ( #183, #32, #98 ) ) REPRESENTATION_CONTEXT ( 'NONE', 'WORKASPACE' ) );
#73 = DIRECTION ( 'NONE',  ( 0.000000000000000000, 0.000000000000000000, 1.000000000000000000 ) ) ;
#74 = EDGE_LOOP ( 'NONE', ( #158, #17 ) ) ;
#75 = DATE_TIME_ROLE ( 'creation_date' ) ;
#76 = LOCAL_TIME ( 11, 54, 45.00000000000000000, #222 ) ;
#77 = VERTEX_POINT ( 'NONE', #123 ) ;
#78 = PERSON_AND_ORGANIZATION_ROLE ( 'classification_officer' ) ;
#79 = DIRECTION ( 'NONE',  ( 0.000000000000000000, 1.000000000000000000, 0.000000000000000000 ) ) ;
#80 = DATE_AND_TIME ( #195, #155 ) ;
#81 = CIRCLE ( 'NONE', #10, 7.500000000000000000 ) ;
#82 = ORIENTED_EDGE ( 'NONE', *, *, #146, .T. ) ;
#83 = CARTESIAN_POINT ( 'NONE',  ( 0.000000000000000000, 120.0000000000000000, 0.000000000000000000 ) ) ;
#84 = CARTESIAN_POINT ( 'NONE',  ( 0.000000000000000000, 0.000000000000000000, 0.000000000000000000 ) ) ;
#85 = CARTESIAN_POINT ( 'NONE',  ( 0.000000000000000000, 120.0000000000000000, 0.000000000000000000 ) ) ;
#86 = CLOSED_SHELL ( 'NONE', ( #187, #208, #215, #99, #196, #31 ) ) ;
#87 = CARTESIAN_POINT ( 'NONE',  ( 0.000000000000000000, 120.0000000000000000, -6.500000000000005329 ) ) ;
#88 = DIRECTION ( 'NONE',  ( 0.000000000000000000, 0.000000000000000000, 1.000000000000000000 ) ) ;
#89 = APPROVAL_STATUS ( 'not_yet_approved' ) ;
#90 = CARTESIAN_POINT ( 'NONE',  ( 0.000000000000000000, 118.9999999999999858, -7.500000000000000000 ) ) ;
#91 = EDGE_CURVE ( 'NONE', #58, #38, #118, .T. ) ;
#92 = LINE ( 'NONE', #28, #51 ) ;
#93 = CARTESIAN_POINT ( 'NONE',  ( 0.000000000000000000, 118.9999999999999858, 0.000000000000000000 ) ) ;
#94 = COORDINATED_UNIVERSAL_TIME_OFFSET ( 0, 0, .AHEAD. ) ;
#95 = DIRECTION ( 'NONE',  ( 0.000000000000000000, 0.000000000000000000, -1.000000000000000000 ) ) ;
#96 = EDGE_CURVE ( 'NONE', #58, #19, #200, .T. ) ;
#97 = CYLINDRICAL_SURFACE ( 'NONE', #110, 7.500000000000000000 ) ;
#98 =( NAMED_UNIT ( * ) SI_UNIT ( $, .STERADIAN. ) SOLID_ANGLE_UNIT ( ) );
#99 = ADVANCED_FACE ( 'NONE', ( #111 ), #197, .T. ) ;
#100 = LOCAL_TIME ( 11, 54, 45.00000000000000000, #27 ) ;
#101 = APPROVAL ( #89, 'UNSPECIFIED' ) ;
#102 = DIRECTION ( 'NONE',  ( 0.000000000000000000, -1.000000000000000000, 0.000000000000000000 ) ) ;
#103 = SHAPE_DEFINITION_REPRESENTATION ( #14, #188 ) ;
#104 = DIRECTION ( 'NONE',  ( 0.000000000000000000, 0.000000000000000000, 1.000000000000000000 ) ) ;
#105 = EDGE_CURVE ( 'NONE', #19, #77, #140, .T. ) ;
#106 = ORIENTED_EDGE ( 'NONE', *, *, #146, .F. ) ;
#107 = PERSON_AND_ORGANIZATION_ROLE ( 'creator' ) ;
#108 = CONICAL_SURFACE ( 'NONE', #114, 6.500000000000005329, 0.7853981633974382870 ) ;
#109 = CARTESIAN_POINT ( 'NONE',  ( 0.000000000000000000, 118.9999999999999858, 0.000000000000000000 ) ) ;
#110 = AXIS2_PLACEMENT_3D ( 'NONE', #83, #178, #64 ) ;
#111 = FACE_OUTER_BOUND ( 'NONE', #74, .T. ) ;
#112 = APPROVAL_STATUS ( 'not_yet_approved' ) ;
#113 = DIRECTION ( 'NONE',  ( 0.000000000000000000, -0.000000000000000000, 1.000000000000000000 ) ) ;
#114 = AXIS2_PLACEMENT_3D ( 'NONE', #137, #139, #220 ) ;
#115 = DIRECTION ( 'NONE',  ( 1.000000000000000000, 0.000000000000000000, 0.000000000000000000 ) ) ;
#116 = AXIS2_PLACEMENT_3D ( 'NONE', #84, #50, #115 ) ;
#117 = ORIENTED_EDGE ( 'NONE', *, *, #165, .F. ) ;
#118 = CIRCLE ( 'NONE', #18, 6.500000000000005329 ) ;
#119 = ORIENTED_EDGE ( 'NONE', *, *, #191, .T. ) ;
#120 = CC_DESIGN_APPROVAL ( #174, ( #186 ) ) ;
#121 = CC_DESIGN_PERSON_AND_ORGANIZATION_ASSIGNMENT ( #24, #60, ( #5 ) ) ;
#122 = CALENDAR_DATE ( 2025, 5, 12 ) ;
#123 = CARTESIAN_POINT ( 'NONE',  ( 9.184850993605147944E-16, 118.9999999999999858, 7.500000000000000000 ) ) ;
#124 = DATE_TIME_ROLE ( 'classification_date' ) ;
#125 = ORIENTED_EDGE ( 'NONE', *, *, #105, .T. ) ;
#126 = CARTESIAN_POINT ( 'NONE',  ( 0.000000000000000000, 120.0000000000000000, 0.000000000000000000 ) ) ;
#127 = CARTESIAN_POINT ( 'NONE',  ( 8.572527594031474176E-16, 120.0000000000000000, 6.500000000000005329 ) ) ;
#128 = DIRECTION ( 'NONE',  ( 0.000000000000000000, 0.000000000000000000, -1.000000000000000000 ) ) ;
#129 = CIRCLE ( 'NONE', #168, 7.500000000000000000 ) ;
#130 = LINE ( 'NONE', #205, #206 ) ;
#131 = EDGE_CURVE ( 'NONE', #77, #70, #92, .T. ) ;
#132 = APPROVAL_PERSON_ORGANIZATION ( #39, #101, #8 ) ;
#133 = PERSON_AND_ORGANIZATION_ROLE ( 'design_owner' ) ;
#134 = CIRCLE ( 'NONE', #164, 7.500000000000000000 ) ;
#135 = CC_DESIGN_PERSON_AND_ORGANIZATION_ASSIGNMENT ( #154, #78, ( #214 ) ) ;
#136 = CARTESIAN_POINT ( 'NONE',  ( 0.000000000000000000, 0.000000000000000000, 0.000000000000000000 ) ) ;
#137 = CARTESIAN_POINT ( 'NONE',  ( 0.000000000000000000, 120.0000000000000000, 0.000000000000000000 ) ) ;
#138 = EDGE_LOOP ( 'NONE', ( #125, #189, #172, #40 ) ) ;
#139 = DIRECTION ( 'NONE',  ( 0.000000000000000000, -1.000000000000000000, 0.000000000000000000 ) ) ;
#140 = CIRCLE ( 'NONE', #43, 7.500000000000000000 ) ;
#141 = ORIENTED_EDGE ( 'NONE', *, *, #165, .T. ) ;
#142 = CC_DESIGN_DATE_AND_TIME_ASSIGNMENT ( #157, #75, ( #186 ) ) ;
#143 = DIRECTION ( 'NONE',  ( -0.000000000000000000, -1.000000000000000000, -0.000000000000000000 ) ) ;
#144 = APPLICATION_PROTOCOL_DEFINITION ( 'international standard', 'config_control_design', 1994, #209 ) ;
#145 = CARTESIAN_POINT ( 'NONE',  ( 0.000000000000000000, 0.000000000000000000, 0.000000000000000000 ) ) ;
#146 = EDGE_CURVE ( 'NONE', #77, #19, #129, .T. ) ;
#147 = MECHANICAL_CONTEXT ( 'NONE', #181, 'mechanical' ) ;
#148 = PRODUCT_RELATED_PRODUCT_CATEGORY ( 'detail', '', ( #184 ) ) ;
#149 = LOCAL_TIME ( 11, 54, 45.00000000000000000, #201 ) ;
#150 = ORIENTED_EDGE ( 'NONE', *, *, #180, .F. ) ;
#151 = PERSON_AND_ORGANIZATION ( #6, #166 ) ;
#152 = DIRECTION ( 'NONE',  ( -0.000000000000000000, -1.000000000000000000, -0.000000000000000000 ) ) ;
#153 = EDGE_LOOP ( 'NONE', ( #7, #3, #170, #106 ) ) ;
#154 = PERSON_AND_ORGANIZATION ( #6, #166 ) ;
#155 = LOCAL_TIME ( 11, 54, 45.00000000000000000, #94 ) ;
#156 = DIRECTION ( 'NONE',  ( 0.000000000000000000, -0.000000000000000000, 1.000000000000000000 ) ) ;
#157 = DATE_AND_TIME ( #177, #100 ) ;
#158 = ORIENTED_EDGE ( 'NONE', *, *, #91, .T. ) ;
#159 = DATE_AND_TIME ( #29, #149 ) ;
#160 = FACE_OUTER_BOUND ( 'NONE', #138, .T. ) ;
#161 = FACE_OUTER_BOUND ( 'NONE', #16, .T. ) ;
#162 = APPLICATION_PROTOCOL_DEFINITION ( 'international standard', 'config_control_design', 1994, #181 ) ;
#163 = APPROVAL_ROLE ( '' ) ;
#164 = AXIS2_PLACEMENT_3D ( 'NONE', #136, #211, #54 ) ;
#165 = EDGE_CURVE ( 'NONE', #35, #70, #81, .T. ) ;
#166 = ORGANIZATION ( 'UNSPECIFIED', 'UNSPECIFIED', '' ) ;
#167 = DESIGN_CONTEXT ( 'detailed design', #209, 'design' ) ;
#168 = AXIS2_PLACEMENT_3D ( 'NONE', #93, #102, #55 ) ;
#169 = DIRECTION ( 'NONE',  ( 0.000000000000000000, 1.000000000000000000, 0.000000000000000000 ) ) ;
#170 = ORIENTED_EDGE ( 'NONE', *, *, #96, .T. ) ;
#171 = APPROVAL_ROLE ( '' ) ;
#172 = ORIENTED_EDGE ( 'NONE', *, *, #180, .T. ) ;
#173 = ORIENTED_EDGE ( 'NONE', *, *, #20, .F. ) ;
#174 = APPROVAL ( #207, 'UNSPECIFIED' ) ;
#175 = APPROVAL_DATE_TIME ( #53, #174 ) ;
#176 = ORIENTED_EDGE ( 'NONE', *, *, #96, .F. ) ;
#177 = CALENDAR_DATE ( 2025, 5, 12 ) ;
#178 = DIRECTION ( 'NONE',  ( -0.000000000000000000, -1.000000000000000000, -0.000000000000000000 ) ) ;
#179 = LINE ( 'NONE', #224, #36 ) ;
#180 = EDGE_CURVE ( 'NONE', #70, #35, #134, .T. ) ;
#181 = APPLICATION_CONTEXT ( 'configuration controlled 3d designs of mechanical parts and assemblies' ) ;
#182 = CALENDAR_DATE ( 2025, 5, 12 ) ;
#183 =( LENGTH_UNIT ( ) NAMED_UNIT ( * ) SI_UNIT ( .MILLI., .METRE. ) );
#184 = PRODUCT ( 'pillar', 'pillar', '', ( #147 ) ) ;
#185 = VECTOR ( 'NONE', #46, 1000.000000000000000 ) ;
#186 = PRODUCT_DEFINITION ( 'UNKNOWN', '', #5, #167 ) ;
#187 = ADVANCED_FACE ( 'NONE', ( #192 ), #204, .T. ) ;
#188 = ADVANCED_BREP_SHAPE_REPRESENTATION ( 'pillar', ( #223, #116 ), #72 ) ;
#189 = ORIENTED_EDGE ( 'NONE', *, *, #131, .T. ) ;
#190 = EDGE_LOOP ( 'NONE', ( #117, #150 ) ) ;
#191 = EDGE_CURVE ( 'NONE', #38, #77, #179, .T. ) ;
#192 = FACE_OUTER_BOUND ( 'NONE', #52, .T. ) ;
#193 = LOCAL_TIME ( 11, 54, 45.00000000000000000, #212 ) ;
#194 = DIRECTION ( 'NONE',  ( 0.000000000000000000, -1.000000000000000000, 0.000000000000000000 ) ) ;
#195 = CALENDAR_DATE ( 2025, 5, 12 ) ;
#196 = ADVANCED_FACE ( 'NONE', ( #221 ), #202, .F. ) ;
#197 = PLANE ( 'NONE',  #49 ) ;
#198 = CC_DESIGN_PERSON_AND_ORGANIZATION_ASSIGNMENT ( #42, #107, ( #5 ) ) ;
#199 = DATE_AND_TIME ( #122, #193 ) ;
#200 = LINE ( 'NONE', #213, #185 ) ;
#201 = COORDINATED_UNIVERSAL_TIME_OFFSET ( 0, 0, .AHEAD. ) ;
#202 = PLANE ( 'NONE',  #22 ) ;
#203 = DIRECTION ( 'NONE',  ( 0.000000000000000000, -1.000000000000000000, 0.000000000000000000 ) ) ;
#204 = CONICAL_SURFACE ( 'NONE', #2, 6.500000000000005329, 0.7853981633974382870 ) ;
#205 = CARTESIAN_POINT ( 'NONE',  ( 0.000000000000000000, 120.0000000000000000, -7.500000000000000000 ) ) ;
#206 = VECTOR ( 'NONE', #63, 1000.000000000000000 ) ;
#207 = APPROVAL_STATUS ( 'not_yet_approved' ) ;
#208 = ADVANCED_FACE ( 'NONE', ( #160 ), #97, .T. ) ;
#209 = APPLICATION_CONTEXT ( 'configuration controlled 3d designs of mechanical parts and assemblies' ) ;
#210 = APPROVAL ( #112, 'UNSPECIFIED' ) ;
#211 = DIRECTION ( 'NONE',  ( 0.000000000000000000, 1.000000000000000000, 0.000000000000000000 ) ) ;
#212 = COORDINATED_UNIVERSAL_TIME_OFFSET ( 0, 0, .AHEAD. ) ;
#213 = CARTESIAN_POINT ( 'NONE',  ( 0.000000000000000000, 120.0000000000000000, -6.500000000000005329 ) ) ;
#214 = SECURITY_CLASSIFICATION ( '', '', #47 ) ;
#215 = ADVANCED_FACE ( 'NONE', ( #161 ), #13, .T. ) ;
#216 = ORIENTED_EDGE ( 'NONE', *, *, #105, .F. ) ;
#217 = DIRECTION ( 'NONE',  ( 0.000000000000000000, 1.000000000000000000, 0.000000000000000000 ) ) ;
#218 = AXIS2_PLACEMENT_3D ( 'NONE', #4, #79, #25 ) ;
#219 = APPROVAL_DATE_TIME ( #80, #101 ) ;
#220 = DIRECTION ( 'NONE',  ( 0.000000000000000000, 0.000000000000000000, -1.000000000000000000 ) ) ;
#221 = FACE_OUTER_BOUND ( 'NONE', #190, .T. ) ;
#222 = COORDINATED_UNIVERSAL_TIME_OFFSET ( 0, 0, .AHEAD. ) ;
#223 = MANIFOLD_SOLID_BREP ( 'Chamfer1', #86 ) ;
#224 = CARTESIAN_POINT ( 'NONE',  ( 7.960204194457802379E-16, 120.0000000000000000, 6.500000000000005329 ) ) ;
#225 = EDGE_CURVE ( 'NONE', #19, #35, #130, .T. ) ;
ENDSEC;
END-ISO-10303-21;
