ISO-10303-21;
HEADER;
FILE_DESCRIPTION (( 'STEP AP203' ),
    '1' );
FILE_NAME ('support_plate_horiz.STEP',
    '2025-12-17T10:21:06',
    ( '' ),
    ( '' ),
    '',
    '',
    '' );
FILE_SCHEMA (( 'CONFIG_CONTROL_DESIGN' ));
ENDSEC;

DATA;
#1 = CARTESIAN_POINT ( 'NONE',  ( -5.237222008264700033E-14, 0.000000000000000000, 17.25000000000000000 ) ) ;
#2 = ORIENTED_EDGE ( 'NONE', *, *, #1218, .T. ) ;
#3 = VECTOR ( 'NONE', #428, 1000.000000000000000 ) ;
#4 = CYLINDRICAL_SURFACE ( 'NONE', #794, 3.249999999999996003 ) ;
#5 = CARTESIAN_POINT ( 'NONE',  ( 0.000000000000000000, -6.000000000000000000, 0.000000000000000000 ) ) ;
#6 = ADVANCED_FACE ( 'NONE', ( #820 ), #724, .F. ) ;
#7 = DIRECTION ( 'NONE',  ( -0.000000000000000000, -1.000000000000000000, -0.000000000000000000 ) ) ;
#8 = ORIENTED_EDGE ( 'NONE', *, *, #851, .T. ) ;
#9 = LINE ( 'NONE', #828, #50 ) ;
#10 = PERSON_AND_ORGANIZATION ( #72, #1060 ) ;
#11 = LOCAL_TIME ( 10, 21, 6.000000000000000000, #534 ) ;
#12 = CARTESIAN_POINT ( 'NONE',  ( -10.60660171779819372, 0.000000000000000000, -10.60660171779823280 ) ) ;
#13 = FACE_OUTER_BOUND ( 'NONE', #463, .T. ) ;
#14 = EDGE_LOOP ( 'NONE', ( #1266, #363 ) ) ;
#15 = DIRECTION ( 'NONE',  ( -0.000000000000000000, 1.000000000000000000, -0.000000000000000000 ) ) ;
#16 = ADVANCED_FACE ( 'NONE', ( #1287 ), #4, .F. ) ;
#17 = ORIENTED_EDGE ( 'NONE', *, *, #851, .F. ) ;
#18 = VERTEX_POINT ( 'NONE', #394 ) ;
#19 = AXIS2_PLACEMENT_3D ( 'NONE', #325, #830, #419 ) ;
#20 = CYLINDRICAL_SURFACE ( 'NONE', #161, 3.249999999999996003 ) ;
#21 = CARTESIAN_POINT ( 'NONE',  ( 0.000000000000000000, -12.00000000000000355, -25.00000000000000000 ) ) ;
#22 = DIRECTION ( 'NONE',  ( 0.000000000000000000, 0.000000000000000000, 1.000000000000000000 ) ) ;
#23 = ORIENTED_EDGE ( 'NONE', *, *, #610, .F. ) ;
#24 = DIRECTION ( 'NONE',  ( -0.000000000000000000, 1.000000000000000000, -0.000000000000000000 ) ) ;
#25 = VERTEX_POINT ( 'NONE', #789 ) ;
#26 = ORIENTED_EDGE ( 'NONE', *, *, #515, .T. ) ;
#27 = DIRECTION ( 'NONE',  ( 0.000000000000000000, 0.000000000000000000, 1.000000000000000000 ) ) ;
#28 = AXIS2_PLACEMENT_3D ( 'NONE', #32, #753, #650 ) ;
#29 = AXIS2_PLACEMENT_3D ( 'NONE', #251, #1250, #354 ) ;
#30 = CARTESIAN_POINT ( 'NONE',  ( -10.60660171779822569, 0.000000000000000000, 10.60660171779819372 ) ) ;
#31 = ORIENTED_EDGE ( 'NONE', *, *, #301, .F. ) ;
#32 = CARTESIAN_POINT ( 'NONE',  ( 10.60660171779819372, -12.00000000000000178, 10.60660171779822214 ) ) ;
#33 = ORIENTED_EDGE ( 'NONE', *, *, #601, .F. ) ;
#34 = AXIS2_PLACEMENT_3D ( 'NONE', #229, #705, #718 ) ;
#35 = DIRECTION ( 'NONE',  ( -0.000000000000000000, -1.000000000000000000, -0.000000000000000000 ) ) ;
#36 = EDGE_CURVE ( 'NONE', #203, #1214, #302, .T. ) ;
#37 = LINE ( 'NONE', #964, #735 ) ;
#38 = ORIENTED_EDGE ( 'NONE', *, *, #981, .T. ) ;
#39 = LINE ( 'NONE', #525, #137 ) ;
#40 = EDGE_LOOP ( 'NONE', ( #231, #1135 ) ) ;
#41 = AXIS2_PLACEMENT_3D ( 'NONE', #5, #404, #1004 ) ;
#42 = DIRECTION ( 'NONE',  ( 0.000000000000000000, -0.000000000000000000, 1.000000000000000000 ) ) ;
#43 = APPROVAL ( #491, 'UNSPECIFIED' ) ;
#44 = DIRECTION ( 'NONE',  ( 0.000000000000000000, 0.000000000000000000, 1.000000000000000000 ) ) ;
#45 = CARTESIAN_POINT ( 'NONE',  ( -10.60660171779822569, -12.00000000000000178, 12.30660171779819123 ) ) ;
#46 = ORIENTED_EDGE ( 'NONE', *, *, #1169, .T. ) ;
#47 = CIRCLE ( 'NONE', #815, 1.700000000000012168 ) ;
#48 = DIRECTION ( 'NONE',  ( 0.000000000000000000, 0.000000000000000000, 1.000000000000000000 ) ) ;
#49 = CIRCLE ( 'NONE', #1114, 3.249999999999996003 ) ;
#50 = VECTOR ( 'NONE', #854, 1000.000000000000000 ) ;
#51 = EDGE_CURVE ( 'NONE', #880, #1214, #9, .T. ) ;
#52 = DIRECTION ( 'NONE',  ( 0.000000000000000000, -0.000000000000000000, 1.000000000000000000 ) ) ;
#53 = VERTEX_POINT ( 'NONE', #430 ) ;
#54 = CARTESIAN_POINT ( 'NONE',  ( -10.60660171779822569, 0.000000000000000000, 7.356601717798198159 ) ) ;
#55 = CARTESIAN_POINT ( 'NONE',  ( -15.00000000000000000, 0.000000000000000000, -2.250000000000102585 ) ) ;
#56 = AXIS2_PLACEMENT_3D ( 'NONE', #672, #1183, #1279 ) ;
#57 = LOCAL_TIME ( 10, 21, 6.000000000000000000, #389 ) ;
#58 = DIRECTION ( 'NONE',  ( -0.000000000000000000, 1.000000000000000000, -0.000000000000000000 ) ) ;
#59 = ADVANCED_FACE ( 'NONE', ( #446 ), #1026, .F. ) ;
#60 = MANIFOLD_SOLID_BREP ( 'CBORE for M3 Hex Socket Head Cap Screw1', #985 ) ;
#61 = CARTESIAN_POINT ( 'NONE',  ( 10.60660171779823635, -3.400000000000000355, -8.906601717798178441 ) ) ;
#62 = ORIENTED_EDGE ( 'NONE', *, *, #461, .T. ) ;
#63 = DIRECTION ( 'NONE',  ( -0.000000000000000000, 1.000000000000000000, -0.000000000000000000 ) ) ;
#64 = CYLINDRICAL_SURFACE ( 'NONE', #602, 20.25000000000000000 ) ;
#65 = EDGE_LOOP ( 'NONE', ( #87, #429, #306, #1065 ) ) ;
#66 = DIRECTION ( 'NONE',  ( 0.000000000000000000, 0.000000000000000000, 1.000000000000000000 ) ) ;
#67 = CIRCLE ( 'NONE', #790, 2.250000000000001776 ) ;
#68 = EDGE_CURVE ( 'NONE', #1229, #284, #632, .T. ) ;
#69 = CARTESIAN_POINT ( 'NONE',  ( -10.60660171779822569, 0.000000000000000000, 8.906601717798189100 ) ) ;
#70 = VERTEX_POINT ( 'NONE', #1055 ) ;
#71 = PLANE ( 'NONE',  #837 ) ;
#72 = PERSON ( 'UNSPECIFIED', 'UNSPECIFIED', 'UNSPECIFIED', ('UNSPECIFIED'), ('UNSPECIFIED'), ('UNSPECIFIED') ) ;
#73 = DIRECTION ( 'NONE',  ( -0.000000000000000000, 1.000000000000000000, -0.000000000000000000 ) ) ;
#74 = ORIENTED_EDGE ( 'NONE', *, *, #858, .F. ) ;
#75 = EDGE_CURVE ( 'NONE', #284, #1229, #460, .T. ) ;
#76 = VECTOR ( 'NONE', #786, 1000.000000000000000 ) ;
#77 = CARTESIAN_POINT ( 'NONE',  ( -15.00000000000000000, -8.000000000000000000, 2.249999999999892530 ) ) ;
#78 = ORIENTED_EDGE ( 'NONE', *, *, #265, .T. ) ;
#79 = ORIENTED_EDGE ( 'NONE', *, *, #924, .T. ) ;
#80 = CIRCLE ( 'NONE', #679, 1.699999999999996625 ) ;
#81 = DIRECTION ( 'NONE',  ( -0.000000000000000000, -1.000000000000000000, -0.000000000000000000 ) ) ;
#82 = ORIENTED_EDGE ( 'NONE', *, *, #823, .T. ) ;
#83 = EDGE_CURVE ( 'NONE', #760, #605, #562, .T. ) ;
#84 = CARTESIAN_POINT ( 'NONE',  ( 10.60660171779819372, 0.000000000000000000, 10.60660171779822214 ) ) ;
#85 = EDGE_LOOP ( 'NONE', ( #423, #513 ) ) ;
#86 = CARTESIAN_POINT ( 'NONE',  ( 25.00000000000000000, -12.00000000000000178, 0.000000000000000000 ) ) ;
#87 = ORIENTED_EDGE ( 'NONE', *, *, #1084, .F. ) ;
#88 = CIRCLE ( 'NONE', #253, 3.249999999999996003 ) ;
#89 = CIRCLE ( 'NONE', #187, 2.250000000000000444 ) ;
#90 = DIRECTION ( 'NONE',  ( -0.000000000000000000, -1.000000000000000000, -0.000000000000000000 ) ) ;
#91 = ORIENTED_EDGE ( 'NONE', *, *, #719, .F. ) ;
#92 = ADVANCED_FACE ( 'NONE', ( #234 ), #633, .F. ) ;
#93 = CARTESIAN_POINT ( 'NONE',  ( -15.00000000000000000, -8.000000000000000000, -1.047444401652940007E-13 ) ) ;
#94 = DIRECTION ( 'NONE',  ( 0.000000000000000000, 0.000000000000000000, -1.000000000000000000 ) ) ;
#95 = DIRECTION ( 'NONE',  ( 0.000000000000000000, -1.000000000000000000, 0.000000000000000000 ) ) ;
#96 = EDGE_LOOP ( 'NONE', ( #785, #639 ) ) ;
#97 = CIRCLE ( 'NONE', #974, 3.249999999999996003 ) ;
#98 = DIRECTION ( 'NONE',  ( -0.000000000000000000, 1.000000000000000000, -0.000000000000000000 ) ) ;
#99 = EDGE_CURVE ( 'NONE', #437, #276, #313, .T. ) ;
#100 = DIRECTION ( 'NONE',  ( -0.000000000000000000, 1.000000000000000000, -0.000000000000000000 ) ) ;
#101 = CARTESIAN_POINT ( 'NONE',  ( 2.479909768273390300E-15, 2.999999999999999112, 20.25000000000000000 ) ) ;
#102 = ORIENTED_EDGE ( 'NONE', *, *, #636, .F. ) ;
#103 = VERTEX_POINT ( 'NONE', #436 ) ;
#104 = CALENDAR_DATE ( 2025, 17, 12 ) ;
#105 = CARTESIAN_POINT ( 'NONE',  ( -10.60660171779819372, -12.00000000000000178, -12.30660171779822853 ) ) ;
#106 = ADVANCED_FACE ( 'NONE', ( #1148 ), #134, .F. ) ;
#107 = VECTOR ( 'NONE', #662, 1000.000000000000000 ) ;
#108 = CARTESIAN_POINT ( 'NONE',  ( -8.906601717798213969, -3.400000000000000355, 10.60660171779819372 ) ) ;
#109 = ORIENTED_EDGE ( 'NONE', *, *, #585, .T. ) ;
#110 = AXIS2_PLACEMENT_3D ( 'NONE', #202, #505, #584 ) ;
#111 = ORIENTED_EDGE ( 'NONE', *, *, #1188, .F. ) ;
#112 = PERSON_AND_ORGANIZATION ( #72, #1060 ) ;
#113 = CARTESIAN_POINT ( 'NONE',  ( 3.061616997868383437E-15, -6.000000000000000000, 25.00000000000000355 ) ) ;
#114 = EDGE_CURVE ( 'NONE', #1018, #880, #1095, .T. ) ;
#115 = FACE_OUTER_BOUND ( 'NONE', #642, .T. ) ;
#116 = ORIENTED_EDGE ( 'NONE', *, *, #669, .F. ) ;
#117 = LINE ( 'NONE', #751, #1220 ) ;
#118 = ORIENTED_EDGE ( 'NONE', *, *, #277, .F. ) ;
#119 = ORIENTED_EDGE ( 'NONE', *, *, #664, .F. ) ;
#120 = CIRCLE ( 'NONE', #1011, 1.700000000000012168 ) ;
#121 = CARTESIAN_POINT ( 'NONE',  ( 1.573922057777491235E-13, 0.000000000000000000, -17.25000000000000000 ) ) ;
#122 = CARTESIAN_POINT ( 'NONE',  ( 10.60660171779819372, -3.400000000000000355, 10.60660171779822214 ) ) ;
#123 = DIRECTION ( 'NONE',  ( 0.000000000000000000, 0.000000000000000000, 1.000000000000000000 ) ) ;
#124 = ORIENTED_EDGE ( 'NONE', *, *, #204, .F. ) ;
#125 = CYLINDRICAL_SURFACE ( 'NONE', #1267, 3.249999999999996003 ) ;
#126 = EDGE_CURVE ( 'NONE', #1214, #764, #1257, .T. ) ;
#127 = ORIENTED_EDGE ( 'NONE', *, *, #664, .T. ) ;
#128 = ORIENTED_EDGE ( 'NONE', *, *, #503, .T. ) ;
#129 = DATE_TIME_ROLE ( 'classification_date' ) ;
#130 = DIRECTION ( 'NONE',  ( -0.000000000000000000, 1.000000000000000000, -0.000000000000000000 ) ) ;
#131 = PLANE ( 'NONE',  #816 ) ;
#132 = ORIENTED_EDGE ( 'NONE', *, *, #1161, .F. ) ;
#133 = CIRCLE ( 'NONE', #233, 3.249999999999996003 ) ;
#134 = CYLINDRICAL_SURFACE ( 'NONE', #524, 3.249999999999996003 ) ;
#135 = EDGE_LOOP ( 'NONE', ( #474, #1186, #361, #330 ) ) ;
#136 = EDGE_CURVE ( 'NONE', #1236, #1032, #39, .T. ) ;
#137 = VECTOR ( 'NONE', #355, 1000.000000000000000 ) ;
#138 = FACE_OUTER_BOUND ( 'NONE', #1231, .T. ) ;
#139 = DIRECTION ( 'NONE',  ( 0.000000000000000000, 0.000000000000000000, 1.000000000000000000 ) ) ;
#140 = EDGE_LOOP ( 'NONE', ( #181, #1224 ) ) ;
#141 = DIRECTION ( 'NONE',  ( 0.000000000000000000, 0.000000000000000000, 1.000000000000000000 ) ) ;
#142 = VERTEX_POINT ( 'NONE', #1143 ) ;
#143 = PERSON_AND_ORGANIZATION ( #72, #1060 ) ;
#144 = AXIS2_PLACEMENT_3D ( 'NONE', #1290, #81, #1274 ) ;
#145 = CARTESIAN_POINT ( 'NONE',  ( 10.60660171779823635, -3.400000000000000355, -12.30660171779820367 ) ) ;
#146 = CARTESIAN_POINT ( 'NONE',  ( 10.60660171779823635, -3.400000000000000355, -7.356601717798194606 ) ) ;
#147 = ORIENTED_EDGE ( 'NONE', *, *, #549, .T. ) ;
#148 = CARTESIAN_POINT ( 'NONE',  ( -10.60660171779819372, -3.851859888774471706E-31, -10.60660171779823280 ) ) ;
#149 = EDGE_LOOP ( 'NONE', ( #119, #116 ) ) ;
#150 = DIRECTION ( 'NONE',  ( -0.000000000000000000, 1.000000000000000000, -0.000000000000000000 ) ) ;
#151 = EDGE_CURVE ( 'NONE', #678, #886, #1157, .T. ) ;
#152 = DIRECTION ( 'NONE',  ( 0.000000000000000000, 1.000000000000000000, 0.000000000000000000 ) ) ;
#153 = CARTESIAN_POINT ( 'NONE',  ( 0.000000000000000000, -12.00000000000000355, 0.000000000000000000 ) ) ;
#154 = AXIS2_PLACEMENT_3D ( 'NONE', #160, #762, #945 ) ;
#155 = DIRECTION ( 'NONE',  ( -0.000000000000000000, 1.000000000000000000, -0.000000000000000000 ) ) ;
#156 = AXIS2_PLACEMENT_3D ( 'NONE', #638, #1039, #720 ) ;
#157 = DIRECTION ( 'NONE',  ( -0.000000000000000000, 1.000000000000000000, -0.000000000000000000 ) ) ;
#158 = ADVANCED_FACE ( 'NONE', ( #337 ), #738, .T. ) ;
#159 = CARTESIAN_POINT ( 'NONE',  ( 10.60660171779823635, 0.000000000000000000, -10.60660171779819017 ) ) ;
#160 = CARTESIAN_POINT ( 'NONE',  ( 15.00000000000000000, -8.000000000000000000, 0.000000000000000000 ) ) ;
#161 = AXIS2_PLACEMENT_3D ( 'NONE', #990, #898, #1200 ) ;
#162 = DIRECTION ( 'NONE',  ( -0.000000000000000000, 1.000000000000000000, -0.000000000000000000 ) ) ;
#163 = APPROVAL_PERSON_ORGANIZATION ( #112, #1088, #792 ) ;
#164 = CARTESIAN_POINT ( 'NONE',  ( 10.60660171779823635, -3.851859888774471706E-31, -10.60660171779819017 ) ) ;
#165 = VERTEX_POINT ( 'NONE', #45 ) ;
#166 = EDGE_CURVE ( 'NONE', #1138, #165, #441, .T. ) ;
#167 = EDGE_LOOP ( 'NONE', ( #929, #379, #696, #350 ) ) ;
#168 = DIRECTION ( 'NONE',  ( -0.000000000000000000, 1.000000000000000000, -0.000000000000000000 ) ) ;
#169 = EDGE_LOOP ( 'NONE', ( #812, #607, #616, #118 ) ) ;
#170 = EDGE_CURVE ( 'NONE', #1042, #409, #88, .T. ) ;
#171 = LINE ( 'NONE', #936, #298 ) ;
#172 = ORIENTED_EDGE ( 'NONE', *, *, #475, .F. ) ;
#173 = AXIS2_PLACEMENT_3D ( 'NONE', #1230, #731, #1137 ) ;
#174 = LINE ( 'NONE', #867, #107 ) ;
#175 = DIRECTION ( 'NONE',  ( 0.000000000000000000, 0.000000000000000000, 1.000000000000000000 ) ) ;
#176 = ORIENTED_EDGE ( 'NONE', *, *, #377, .F. ) ;
#177 = CIRCLE ( 'NONE', #781, 1.700000000000012168 ) ;
#178 = CARTESIAN_POINT ( 'NONE',  ( 15.00000000000000000, 0.000000000000000000, -2.249999999999999112 ) ) ;
#179 = CARTESIAN_POINT ( 'NONE',  ( 10.60660171779819372, -3.400000000000000355, 7.356601717798226581 ) ) ;
#180 = FACE_BOUND ( 'NONE', #566, .T. ) ;
#181 = ORIENTED_EDGE ( 'NONE', *, *, #170, .F. ) ;
#182 = ADVANCED_FACE ( 'NONE', ( #442 ), #1241, .T. ) ;
#183 = DIRECTION ( 'NONE',  ( -0.000000000000000000, 1.000000000000000000, -0.000000000000000000 ) ) ;
#184 = PLANE ( 'NONE',  #883 ) ;
#185 = LINE ( 'NONE', #581, #76 ) ;
#186 = AXIS2_PLACEMENT_3D ( 'NONE', #557, #1044, #347 ) ;
#187 = AXIS2_PLACEMENT_3D ( 'NONE', #1262, #152, #1031 ) ;
#188 = ADVANCED_FACE ( 'NONE', ( #1047 ), #542, .F. ) ;
#189 = FACE_OUTER_BOUND ( 'NONE', #478, .T. ) ;
#190 = ORIENTED_EDGE ( 'NONE', *, *, #461, .F. ) ;
#191 = AXIS2_PLACEMENT_3D ( 'NONE', #329, #743, #949 ) ;
#192 = FACE_OUTER_BOUND ( 'NONE', #1057, .T. ) ;
#193 = DIRECTION ( 'NONE',  ( 0.000000000000000000, 1.000000000000000000, 0.000000000000000000 ) ) ;
#194 = CONICAL_SURFACE ( 'NONE', #615, 24.00000000000000000, 0.7853981633974466137 ) ;
#195 = DIRECTION ( 'NONE',  ( 0.000000000000000000, -1.000000000000000000, 0.000000000000000000 ) ) ;
#196 = EDGE_LOOP ( 'NONE', ( #371, #102 ) ) ;
#197 = EDGE_CURVE ( 'NONE', #605, #760, #67, .T. ) ;
#198 = ORIENTED_EDGE ( 'NONE', *, *, #900, .T. ) ;
#199 = EDGE_CURVE ( 'NONE', #262, #305, #260, .T. ) ;
#200 = APPROVAL_DATE_TIME ( #698, #43 ) ;
#201 = CARTESIAN_POINT ( 'NONE',  ( 10.60660171779819372, 0.000000000000000000, 10.60660171779822214 ) ) ;
#202 = CARTESIAN_POINT ( 'NONE',  ( 0.000000000000000000, 0.000000000000000000, 0.000000000000000000 ) ) ;
#203 = VERTEX_POINT ( 'NONE', #1073 ) ;
#204 = EDGE_CURVE ( 'NONE', #685, #366, #519, .T. ) ;
#205 = DIRECTION ( 'NONE',  ( 0.000000000000000000, 0.000000000000000000, 1.000000000000000000 ) ) ;
#206 = DIRECTION ( 'NONE',  ( 0.000000000000000000, -0.000000000000000000, -1.000000000000000000 ) ) ;
#207 = EDGE_LOOP ( 'NONE', ( #756, #937, #443, #387 ) ) ;
#208 = ORIENTED_EDGE ( 'NONE', *, *, #866, .F. ) ;
#209 = CIRCLE ( 'NONE', #382, 3.249999999999996003 ) ;
#210 = EDGE_LOOP ( 'NONE', ( #811, #1258, #703, #818 ) ) ;
#211 = DIRECTION ( 'NONE',  ( -0.000000000000000000, -1.000000000000000000, -0.000000000000000000 ) ) ;
#212 = FACE_BOUND ( 'NONE', #358, .T. ) ;
#213 = ORIENTED_EDGE ( 'NONE', *, *, #1012, .F. ) ;
#214 = CARTESIAN_POINT ( 'NONE',  ( 10.60660171779823635, 0.000000000000000000, -13.85660171779818661 ) ) ;
#215 = VERTEX_POINT ( 'NONE', #861 ) ;
#216 = ORIENTED_EDGE ( 'NONE', *, *, #526, .T. ) ;
#217 = AXIS2_PLACEMENT_3D ( 'NONE', #86, #782, #682 ) ;
#218 = CIRCLE ( 'NONE', #368, 1.700000000000012168 ) ;
#219 = DIRECTION ( 'NONE',  ( 0.000000000000000000, 1.000000000000000000, 0.000000000000000000 ) ) ;
#220 = DIRECTION ( 'NONE',  ( 0.000000000000000000, 0.000000000000000000, 1.000000000000000000 ) ) ;
#221 = PRODUCT_DEFINITION_FORMATION_WITH_SPECIFIED_SOURCE ( 'ANY', '', #1070, .NOT_KNOWN. ) ;
#222 = ADVANCED_FACE ( 'NONE', ( #1172 ), #655, .F. ) ;
#223 = DIRECTION ( 'NONE',  ( -0.000000000000000000, 1.000000000000000000, -0.000000000000000000 ) ) ;
#224 = EDGE_LOOP ( 'NONE', ( #416, #920, #543, #999 ) ) ;
#225 = DIRECTION ( 'NONE',  ( 0.000000000000000000, 0.000000000000000000, 1.000000000000000000 ) ) ;
#226 = ORIENTED_EDGE ( 'NONE', *, *, #683, .T. ) ;
#227 = ORIENTED_EDGE ( 'NONE', *, *, #1036, .F. ) ;
#228 = CIRCLE ( 'NONE', #41, 25.00000000000000355 ) ;
#229 = CARTESIAN_POINT ( 'NONE',  ( 0.000000000000000000, -12.00000000000000355, 0.000000000000000000 ) ) ;
#230 = LINE ( 'NONE', #729, #504 ) ;
#231 = ORIENTED_EDGE ( 'NONE', *, *, #197, .T. ) ;
#232 = CC_DESIGN_DATE_AND_TIME_ASSIGNMENT ( #1096, #397, ( #1005 ) ) ;
#233 = AXIS2_PLACEMENT_3D ( 'NONE', #164, #386, #680 ) ;
#234 = FACE_OUTER_BOUND ( 'NONE', #829, .T. ) ;
#235 = ORIENTED_EDGE ( 'NONE', *, *, #417, .T. ) ;
#236 = AXIS2_PLACEMENT_3D ( 'NONE', #392, #796, #294 ) ;
#237 = FACE_OUTER_BOUND ( 'NONE', #402, .T. ) ;
#238 = DIRECTION ( 'NONE',  ( 0.000000000000000000, 0.000000000000000000, -1.000000000000000000 ) ) ;
#239 = ORIENTED_EDGE ( 'NONE', *, *, #503, .F. ) ;
#240 = CARTESIAN_POINT ( 'NONE',  ( 15.00000000000000000, -8.000000000000000000, 0.000000000000000000 ) ) ;
#241 = ORIENTED_EDGE ( 'NONE', *, *, #151, .T. ) ;
#242 = ADVANCED_FACE ( 'NONE', ( #978 ), #675, .F. ) ;
#243 = VECTOR ( 'NONE', #434, 1000.000000000000000 ) ;
#244 = DIRECTION ( 'NONE',  ( -0.000000000000000000, 1.000000000000000000, -0.000000000000000000 ) ) ;
#245 = CC_DESIGN_SECURITY_CLASSIFICATION ( #723, ( #221 ) ) ;
#246 = CARTESIAN_POINT ( 'NONE',  ( -10.60660171779822569, -3.851859888774471706E-31, 13.85660171779819017 ) ) ;
#247 = DIRECTION ( 'NONE',  ( 0.000000000000000000, 0.000000000000000000, -1.000000000000000000 ) ) ;
#248 = PERSON_AND_ORGANIZATION ( #72, #1060 ) ;
#249 = DIRECTION ( 'NONE',  ( 0.000000000000000000, 0.000000000000000000, 1.000000000000000000 ) ) ;
#250 = ADVANCED_FACE ( 'NONE', ( #778 ), #275, .F. ) ;
#251 = CARTESIAN_POINT ( 'NONE',  ( -10.60660171779822569, -3.400000000000000355, 10.60660171779819372 ) ) ;
#252 = DIRECTION ( 'NONE',  ( 0.000000000000000000, 1.000000000000000000, 0.000000000000000000 ) ) ;
#253 = AXIS2_PLACEMENT_3D ( 'NONE', #148, #539, #943 ) ;
#254 = CIRCLE ( 'NONE', #257, 20.25000000000000000 ) ;
#255 = PERSON_AND_ORGANIZATION_ROLE ( 'classification_officer' ) ;
#256 = DIRECTION ( 'NONE',  ( 0.000000000000000000, 0.000000000000000000, 1.000000000000000000 ) ) ;
#257 = AXIS2_PLACEMENT_3D ( 'NONE', #955, #1249, #749 ) ;
#258 = DIRECTION ( 'NONE',  ( 0.000000000000000000, 0.000000000000000000, 1.000000000000000000 ) ) ;
#259 = EDGE_CURVE ( 'NONE', #886, #965, #395, .T. ) ;
#260 = LINE ( 'NONE', #1277, #982 ) ;
#261 = PLANE ( 'NONE',  #271 ) ;
#262 = VERTEX_POINT ( 'NONE', #283 ) ;
#263 = LINE ( 'NONE', #1244, #905 ) ;
#264 = CONICAL_SURFACE ( 'NONE', #431, 25.00000000000000355, 0.1920480172407306452 ) ;
#265 = EDGE_CURVE ( 'NONE', #142, #666, #133, .T. ) ;
#266 = DIRECTION ( 'NONE',  ( -0.000000000000000000, 1.000000000000000000, -0.000000000000000000 ) ) ;
#267 = FACE_OUTER_BOUND ( 'NONE', #300, .T. ) ;
#268 = DIRECTION ( 'NONE',  ( 8.659560562354918067E-17, 0.7071067811865487940, -0.7071067811865463515 ) ) ;
#269 = ORIENTED_EDGE ( 'NONE', *, *, #526, .F. ) ;
#270 = CYLINDRICAL_SURFACE ( 'NONE', #1156, 2.250000000000001776 ) ;
#271 = AXIS2_PLACEMENT_3D ( 'NONE', #339, #658, #42 ) ;
#272 = DIRECTION ( 'NONE',  ( 0.000000000000000000, 0.000000000000000000, 1.000000000000000000 ) ) ;
#273 = ORIENTED_EDGE ( 'NONE', *, *, #900, .F. ) ;
#274 = CIRCLE ( 'NONE', #236, 1.700000000000012168 ) ;
#275 = CYLINDRICAL_SURFACE ( 'NONE', #1189, 1.700000000000005285 ) ;
#276 = VERTEX_POINT ( 'NONE', #983 ) ;
#277 = EDGE_CURVE ( 'NONE', #697, #1018, #174, .T. ) ;
#278 = DIRECTION ( 'NONE',  ( 0.000000000000000000, -0.000000000000000000, 1.000000000000000000 ) ) ;
#279 = CARTESIAN_POINT ( 'NONE',  ( 10.60660171779823635, -3.851859888774471706E-31, -13.85660171779818661 ) ) ;
#280 = ORIENTED_EDGE ( 'NONE', *, *, #136, .F. ) ;
#281 = AXIS2_PLACEMENT_3D ( 'NONE', #1115, #219, #501 ) ;
#282 = CIRCLE ( 'NONE', #144, 20.25000000000000000 ) ;
#283 = CARTESIAN_POINT ( 'NONE',  ( 15.00000000000000000, -8.000000000000000000, -2.249999999999999112 ) ) ;
#284 = VERTEX_POINT ( 'NONE', #77 ) ;
#285 = DIRECTION ( 'NONE',  ( -0.000000000000000000, 1.000000000000000000, -0.000000000000000000 ) ) ;
#286 = ADVANCED_FACE ( 'NONE', ( #967 ), #71, .T. ) ;
#287 = LINE ( 'NONE', #987, #947 ) ;
#288 = LINE ( 'NONE', #1069, #603 ) ;
#289 = PERSON_AND_ORGANIZATION ( #72, #1060 ) ;
#290 = DIRECTION ( 'NONE',  ( -0.000000000000000000, 1.000000000000000000, -0.000000000000000000 ) ) ;
#291 = AXIS2_PLACEMENT_3D ( 'NONE', #573, #612, #22 ) ;
#292 = CIRCLE ( 'NONE', #1002, 1.700000000000012168 ) ;
#293 = ADVANCED_FACE ( 'NONE', ( #1062 ), #64, .F. ) ;
#294 = DIRECTION ( 'NONE',  ( 0.000000000000000000, 0.000000000000000000, 1.000000000000000000 ) ) ;
#295 = ORIENTED_EDGE ( 'NONE', *, *, #1124, .T. ) ;
#296 = CARTESIAN_POINT ( 'NONE',  ( 10.60660171779823635, 0.000000000000000000, -10.60660171779819017 ) ) ;
#297 = CARTESIAN_POINT ( 'NONE',  ( 0.000000000000000000, 2.999999999999999112, 0.000000000000000000 ) ) ;
#298 = VECTOR ( 'NONE', #928, 1000.000000000000000 ) ;
#299 = CARTESIAN_POINT ( 'NONE',  ( 0.000000000000000000, -6.000000000000000000, 0.000000000000000000 ) ) ;
#300 = EDGE_LOOP ( 'NONE', ( #447, #932, #960, #370 ) ) ;
#301 = EDGE_CURVE ( 'NONE', #944, #409, #887, .T. ) ;
#302 = LINE ( 'NONE', #598, #381 ) ;
#303 = CARTESIAN_POINT ( 'NONE',  ( 1.571166602479409884E-13, -8.000000000000000000, -15.00000000000000178 ) ) ;
#304 = FACE_BOUND ( 'NONE', #748, .T. ) ;
#305 = VERTEX_POINT ( 'NONE', #178 ) ;
#306 = ORIENTED_EDGE ( 'NONE', *, *, #439, .T. ) ;
#307 = DIRECTION ( 'NONE',  ( 0.000000000000000000, 0.000000000000000000, 1.000000000000000000 ) ) ;
#308 = CARTESIAN_POINT ( 'NONE',  ( 0.000000000000000000, 0.000000000000000000, -20.25000000000000000 ) ) ;
#309 = CYLINDRICAL_SURFACE ( 'NONE', #838, 1.700000000000005285 ) ;
#310 = VERTEX_POINT ( 'NONE', #369 ) ;
#311 = CARTESIAN_POINT ( 'NONE',  ( 3.061616997868383043E-15, -10.99999999999999822, 25.00000000000000000 ) ) ;
#312 = AXIS2_PLACEMENT_3D ( 'NONE', #420, #1105, #901 ) ;
#313 = CIRCLE ( 'NONE', #28, 1.699999999999996625 ) ;
#314 = ORIENTED_EDGE ( 'NONE', *, *, #1124, .F. ) ;
#315 = ORIENTED_EDGE ( 'NONE', *, *, #728, .T. ) ;
#316 =( NAMED_UNIT ( * ) SI_UNIT ( $, .STERADIAN. ) SOLID_ANGLE_UNIT ( ) );
#317 = CARTESIAN_POINT ( 'NONE',  ( 1.571166602479409884E-13, 0.000000000000000000, -15.00000000000000178 ) ) ;
#318 = ADVANCED_FACE ( 'NONE', ( #1168 ), #270, .F. ) ;
#319 = CARTESIAN_POINT ( 'NONE',  ( -10.60660171779822569, -3.400000000000000355, 7.356601717798198159 ) ) ;
#320 = ORIENTED_EDGE ( 'NONE', *, *, #1253, .F. ) ;
#321 = CARTESIAN_POINT ( 'NONE',  ( 10.60660171779819372, -3.851859888774471706E-31, 10.60660171779822214 ) ) ;
#322 = ORIENTED_EDGE ( 'NONE', *, *, #995, .T. ) ;
#323 = ORIENTED_EDGE ( 'NONE', *, *, #1100, .T. ) ;
#324 = CIRCLE ( 'NONE', #587, 2.250000000000001776 ) ;
#325 = CARTESIAN_POINT ( 'NONE',  ( -15.00000000000000000, -8.000000000000000000, -1.047444401652940007E-13 ) ) ;
#326 = ADVANCED_FACE ( 'NONE', ( #874 ), #1273, .F. ) ;
#327 = DIRECTION ( 'NONE',  ( 0.000000000000000000, 0.000000000000000000, 1.000000000000000000 ) ) ;
#328 = ORIENTED_EDGE ( 'NONE', *, *, #425, .F. ) ;
#329 = CARTESIAN_POINT ( 'NONE',  ( 1.571166602479409884E-13, -8.000000000000000000, -15.00000000000000178 ) ) ;
#330 = ORIENTED_EDGE ( 'NONE', *, *, #750, .T. ) ;
#331 = DATE_AND_TIME ( #1242, #11 ) ;
#332 = DIRECTION ( 'NONE',  ( -0.000000000000000000, 1.000000000000000000, -0.000000000000000000 ) ) ;
#333 = ADVANCED_FACE ( 'NONE', ( #406, #304, #1006, #894, #1013, #808, #1185, #589, #115 ), #1118, .T. ) ;
#334 = CARTESIAN_POINT ( 'NONE',  ( -10.60660171779822569, 0.000000000000000000, 10.60660171779819372 ) ) ;
#335 = EDGE_LOOP ( 'NONE', ( #91, #17, #717, #702 ) ) ;
#336 = ADVANCED_FACE ( 'NONE', ( #684 ), #695, .F. ) ;
#337 = FACE_OUTER_BOUND ( 'NONE', #821, .T. ) ;
#338 = ORIENTED_EDGE ( 'NONE', *, *, #968, .F. ) ;
#339 = CARTESIAN_POINT ( 'NONE',  ( 20.25000000000000000, 3.000000000000000000, 0.000000000000000000 ) ) ;
#340 = AXIS2_PLACEMENT_3D ( 'NONE', #653, #1154, #225 ) ;
#341 = CARTESIAN_POINT ( 'NONE',  ( 10.60660171779819372, -3.851859888774471706E-31, 10.60660171779822214 ) ) ;
#342 = CARTESIAN_POINT ( 'NONE',  ( -15.00000000000000000, -8.000000000000000000, -1.047444401652940007E-13 ) ) ;
#343 = ORIENTED_EDGE ( 'NONE', *, *, #204, .T. ) ;
#344 = EDGE_CURVE ( 'NONE', #627, #508, #287, .T. ) ;
#345 = ORIENTED_EDGE ( 'NONE', *, *, #561, .T. ) ;
#346 = AXIS2_PLACEMENT_3D ( 'NONE', #122, #1109, #917 ) ;
#347 = DIRECTION ( 'NONE',  ( 0.000000000000000000, 0.000000000000000000, 1.000000000000000000 ) ) ;
#348 = CARTESIAN_POINT ( 'NONE',  ( -15.00000000000000000, -8.000000000000000000, 2.249999999999892530 ) ) ;
#349 = DIRECTION ( 'NONE',  ( 0.000000000000000000, 1.000000000000000000, 0.000000000000000000 ) ) ;
#350 = ORIENTED_EDGE ( 'NONE', *, *, #151, .F. ) ;
#351 = ORIENTED_EDGE ( 'NONE', *, *, #36, .F. ) ;
#352 = ORIENTED_EDGE ( 'NONE', *, *, #259, .F. ) ;
#353 = LINE ( 'NONE', #1261, #1210 ) ;
#354 = DIRECTION ( 'NONE',  ( 0.000000000000000000, 0.000000000000000000, 1.000000000000000000 ) ) ;
#355 = DIRECTION ( 'NONE',  ( -0.000000000000000000, 1.000000000000000000, -0.000000000000000000 ) ) ;
#356 = AXIS2_PLACEMENT_3D ( 'NONE', #488, #195, #206 ) ;
#357 = LINE ( 'NONE', #54, #1089 ) ;
#358 = EDGE_LOOP ( 'NONE', ( #631, #939 ) ) ;
#359 = CARTESIAN_POINT ( 'NONE',  ( -10.60660171779822569, -3.851859888774471706E-31, 10.60660171779819372 ) ) ;
#360 = EDGE_CURVE ( 'NONE', #53, #305, #582, .T. ) ;
#361 = ORIENTED_EDGE ( 'NONE', *, *, #344, .T. ) ;
#362 = CARTESIAN_POINT ( 'NONE',  ( 1.571166602479409884E-13, -8.000000000000000000, -15.00000000000000178 ) ) ;
#363 = ORIENTED_EDGE ( 'NONE', *, *, #166, .T. ) ;
#364 = DIRECTION ( 'NONE',  ( -0.000000000000000000, 1.000000000000000000, -0.000000000000000000 ) ) ;
#365 = FACE_BOUND ( 'NONE', #984, .T. ) ;
#366 = VERTEX_POINT ( 'NONE', #596 ) ;
#367 = ORIENTED_EDGE ( 'NONE', *, *, #981, .F. ) ;
#368 = AXIS2_PLACEMENT_3D ( 'NONE', #1132, #130, #220 ) ;
#369 = CARTESIAN_POINT ( 'NONE',  ( 10.60660171779819372, -3.400000000000000355, 13.85660171779821859 ) ) ;
#370 = ORIENTED_EDGE ( 'NONE', *, *, #649, .F. ) ;
#371 = ORIENTED_EDGE ( 'NONE', *, *, #1272, .F. ) ;
#372 = VECTOR ( 'NONE', #609, 1000.000000000000000 ) ;
#373 = CARTESIAN_POINT ( 'NONE',  ( -15.00000000000000000, -8.000000000000000000, -2.250000000000102585 ) ) ;
#374 = CARTESIAN_POINT ( 'NONE',  ( 10.60660171779823635, -12.00000000000000178, -10.60660171779819017 ) ) ;
#375 = VERTEX_POINT ( 'NONE', #1 ) ;
#376 = CARTESIAN_POINT ( 'NONE',  ( -10.60660171779822569, 0.000000000000000000, 10.60660171779819372 ) ) ;
#377 = EDGE_CURVE ( 'NONE', #660, #880, #1098, .T. ) ;
#378 = CARTESIAN_POINT ( 'NONE',  ( 10.60660171779823635, -12.00000000000000178, -8.906601717798194429 ) ) ;
#379 = ORIENTED_EDGE ( 'NONE', *, *, #1227, .T. ) ;
#380 = AXIS2_PLACEMENT_3D ( 'NONE', #1147, #763, #238 ) ;
#381 = VECTOR ( 'NONE', #1000, 1000.000000000000000 ) ;
#382 = AXIS2_PLACEMENT_3D ( 'NONE', #819, #15, #1051 ) ;
#383 = DIRECTION ( 'NONE',  ( -0.000000000000000000, 1.000000000000000000, -0.000000000000000000 ) ) ;
#384 = ADVANCED_FACE ( 'NONE', ( #212, #13 ), #1092, .F. ) ;
#385 = DIRECTION ( 'NONE',  ( 0.000000000000000000, 0.000000000000000000, 1.000000000000000000 ) ) ;
#386 = DIRECTION ( 'NONE',  ( -0.000000000000000000, 1.000000000000000000, -0.000000000000000000 ) ) ;
#387 = ORIENTED_EDGE ( 'NONE', *, *, #549, .F. ) ;
#388 = APPROVAL ( #1035, 'UNSPECIFIED' ) ;
#389 = COORDINATED_UNIVERSAL_TIME_OFFSET ( 0, 0, .AHEAD. ) ;
#390 = DIRECTION ( 'NONE',  ( -0.000000000000000000, 1.000000000000000000, -0.000000000000000000 ) ) ;
#391 = ADVANCED_FACE ( 'NONE', ( #1209 ), #309, .F. ) ;
#392 = CARTESIAN_POINT ( 'NONE',  ( 10.60660171779823635, -3.400000000000000355, -10.60660171779819017 ) ) ;
#393 = ORIENTED_EDGE ( 'NONE', *, *, #803, .T. ) ;
#394 = CARTESIAN_POINT ( 'NONE',  ( 1.571166602479409884E-13, 0.000000000000000000, -12.75000000000000178 ) ) ;
#395 = CIRCLE ( 'NONE', #1216, 20.25000000000000000 ) ;
#396 = ORIENTED_EDGE ( 'NONE', *, *, #1100, .F. ) ;
#397 = DATE_TIME_ROLE ( 'creation_date' ) ;
#398 = DIRECTION ( 'NONE',  ( -0.000000000000000000, -1.000000000000000000, -0.000000000000000000 ) ) ;
#399 = AXIS2_PLACEMENT_3D ( 'NONE', #299, #7, #1202 ) ;
#400 = ADVANCED_FACE ( 'NONE', ( #919, #189 ), #714, .F. ) ;
#401 = DIRECTION ( 'NONE',  ( 0.000000000000000000, 0.000000000000000000, 1.000000000000000000 ) ) ;
#402 = EDGE_LOOP ( 'NONE', ( #809, #453, #1255, #590 ) ) ;
#403 = CALENDAR_DATE ( 2025, 17, 12 ) ;
#404 = DIRECTION ( 'NONE',  ( -0.000000000000000000, -1.000000000000000000, -0.000000000000000000 ) ) ;
#405 = AXIS2_PLACEMENT_3D ( 'NONE', #334, #736, #44 ) ;
#406 = FACE_BOUND ( 'NONE', #140, .T. ) ;
#407 = VERTEX_POINT ( 'NONE', #101 ) ;
#408 = APPLICATION_CONTEXT ( 'configuration controlled 3d designs of mechanical parts and assemblies' ) ;
#409 = VERTEX_POINT ( 'NONE', #788 ) ;
#410 = APPLICATION_PROTOCOL_DEFINITION ( 'international standard', 'config_control_design', 1994, #408 ) ;
#411 = DIRECTION ( 'NONE',  ( -0.000000000000000000, 1.000000000000000000, -0.000000000000000000 ) ) ;
#412 = CARTESIAN_POINT ( 'NONE',  ( 3.061616997868383437E-15, -6.000000000000000000, 25.00000000000000355 ) ) ;
#413 = VERTEX_POINT ( 'NONE', #498 ) ;
#414 = LINE ( 'NONE', #348, #992 ) ;
#415 = ORIENTED_EDGE ( 'NONE', *, *, #1117, .T. ) ;
#416 = ORIENTED_EDGE ( 'NONE', *, *, #417, .F. ) ;
#417 = EDGE_CURVE ( 'NONE', #797, #215, #1001, .T. ) ;
#418 =( NAMED_UNIT ( * ) PLANE_ANGLE_UNIT ( ) SI_UNIT ( $, .RADIAN. ) );
#419 = DIRECTION ( 'NONE',  ( 0.000000000000000000, 0.000000000000000000, 1.000000000000000000 ) ) ;
#420 = CARTESIAN_POINT ( 'NONE',  ( 15.00000000000000000, 0.000000000000000000, 0.000000000000000000 ) ) ;
#421 = EDGE_LOOP ( 'NONE', ( #674, #213, #226, #802 ) ) ;
#422 = DIRECTION ( 'NONE',  ( 0.000000000000000000, 0.000000000000000000, 1.000000000000000000 ) ) ;
#423 = ORIENTED_EDGE ( 'NONE', *, *, #75, .T. ) ;
#424 = ORIENTED_EDGE ( 'NONE', *, *, #995, .F. ) ;
#425 = EDGE_CURVE ( 'NONE', #988, #1040, #274, .T. ) ;
#426 = SECURITY_CLASSIFICATION_LEVEL ( 'unclassified' ) ;
#427 = DIRECTION ( 'NONE',  ( 0.000000000000000000, 0.000000000000000000, 1.000000000000000000 ) ) ;
#428 = DIRECTION ( 'NONE',  ( -0.000000000000000000, 1.000000000000000000, -0.000000000000000000 ) ) ;
#429 = ORIENTED_EDGE ( 'NONE', *, *, #536, .F. ) ;
#430 = CARTESIAN_POINT ( 'NONE',  ( 15.00000000000000000, 0.000000000000000000, 2.249999999999999112 ) ) ;
#431 = AXIS2_PLACEMENT_3D ( 'NONE', #822, #211, #511 ) ;
#432 = CYLINDRICAL_SURFACE ( 'NONE', #34, 25.00000000000000000 ) ;
#433 = ADVANCED_FACE ( 'NONE', ( #1196 ), #966, .T. ) ;
#434 = DIRECTION ( 'NONE',  ( -0.000000000000000000, 1.000000000000000000, -0.000000000000000000 ) ) ;
#435 = EDGE_LOOP ( 'NONE', ( #269, #74 ) ) ;
#436 = CARTESIAN_POINT ( 'NONE',  ( 10.60660171779819372, -3.851859888774471706E-31, 13.85660171779821859 ) ) ;
#437 = VERTEX_POINT ( 'NONE', #707 ) ;
#438 = DIRECTION ( 'NONE',  ( -0.000000000000000000, 1.000000000000000000, -0.000000000000000000 ) ) ;
#439 = EDGE_CURVE ( 'NONE', #617, #1040, #1110, .T. ) ;
#440 = DIRECTION ( 'NONE',  ( -0.000000000000000000, 1.000000000000000000, -0.000000000000000000 ) ) ;
#441 = CIRCLE ( 'NONE', #1090, 1.699999999999996625 ) ;
#442 = FACE_OUTER_BOUND ( 'NONE', #531, .T. ) ;
#443 = ORIENTED_EDGE ( 'NONE', *, *, #1091, .T. ) ;
#444 = VECTOR ( 'NONE', #223, 1000.000000000000000 ) ;
#445 = CARTESIAN_POINT ( 'NONE',  ( 0.000000000000000000, -6.000000000000000000, -25.00000000000000355 ) ) ;
#446 = FACE_OUTER_BOUND ( 'NONE', #500, .T. ) ;
#447 = ORIENTED_EDGE ( 'NONE', *, *, #515, .F. ) ;
#448 = PERSON_AND_ORGANIZATION ( #72, #1060 ) ;
#449 = AXIS2_PLACEMENT_3D ( 'NONE', #473, #570, #776 ) ;
#450 = CARTESIAN_POINT ( 'NONE',  ( -15.00000000000000000, -8.000000000000000000, -2.250000000000102585 ) ) ;
#451 = CARTESIAN_POINT ( 'NONE',  ( -15.00000000000000000, -8.000000000000000000, -1.047444401652940007E-13 ) ) ;
#452 = ORIENTED_EDGE ( 'NONE', *, *, #259, .T. ) ;
#453 = ORIENTED_EDGE ( 'NONE', *, *, #75, .F. ) ;
#454 = EDGE_CURVE ( 'NONE', #1138, #1193, #1141, .T. ) ;
#455 = CARTESIAN_POINT ( 'NONE',  ( -10.60660171779819372, -3.851859888774471706E-31, -7.356601717798236351 ) ) ;
#456 = ORIENTED_EDGE ( 'NONE', *, *, #766, .T. ) ;
#457 = CYLINDRICAL_SURFACE ( 'NONE', #472, 20.25000000000000000 ) ;
#458 = CARTESIAN_POINT ( 'NONE',  ( 0.000000000000000000, -12.00000000000000355, 0.000000000000000000 ) ) ;
#459 = DIRECTION ( 'NONE',  ( 0.000000000000000000, 0.000000000000000000, 1.000000000000000000 ) ) ;
#460 = CIRCLE ( 'NONE', #774, 2.249999999999997780 ) ;
#461 = EDGE_CURVE ( 'NONE', #1032, #103, #713, .T. ) ;
#462 = CARTESIAN_POINT ( 'NONE',  ( -5.209667455283883993E-14, 0.000000000000000000, 12.75000000000000000 ) ) ;
#463 = EDGE_LOOP ( 'NONE', ( #46, #1211 ) ) ;
#464 = DIRECTION ( 'NONE',  ( 0.000000000000000000, 0.000000000000000000, 1.000000000000000000 ) ) ;
#465 = AXIS2_PLACEMENT_3D ( 'NONE', #374, #467, #991 ) ;
#466 = CARTESIAN_POINT ( 'NONE',  ( 2.479909768273390300E-15, -12.00000000000000355, 20.25000000000000000 ) ) ;
#467 = DIRECTION ( 'NONE',  ( -0.000000000000000000, 1.000000000000000000, -0.000000000000000000 ) ) ;
#468 = ORIENTED_EDGE ( 'NONE', *, *, #199, .T. ) ;
#469 = EDGE_CURVE ( 'NONE', #697, #660, #651, .T. ) ;
#470 = DIRECTION ( 'NONE',  ( 0.000000000000000000, 0.000000000000000000, 1.000000000000000000 ) ) ;
#471 = VERTEX_POINT ( 'NONE', #462 ) ;
#472 = AXIS2_PLACEMENT_3D ( 'NONE', #921, #1256, #746 ) ;
#473 = CARTESIAN_POINT ( 'NONE',  ( -10.60660171779819372, -3.400000000000000355, -10.60660171779823280 ) ) ;
#474 = ORIENTED_EDGE ( 'NONE', *, *, #924, .F. ) ;
#475 = EDGE_CURVE ( 'NONE', #499, #142, #37, .T. ) ;
#476 = DIRECTION ( 'NONE',  ( -0.000000000000000000, 1.000000000000000000, -0.000000000000000000 ) ) ;
#477 = PLANE ( 'NONE',  #217 ) ;
#478 = EDGE_LOOP ( 'NONE', ( #295, #577 ) ) ;
#479 = AXIS2_PLACEMENT_3D ( 'NONE', #1166, #537, #741 ) ;
#480 = DIRECTION ( 'NONE',  ( 0.000000000000000000, 0.000000000000000000, -1.000000000000000000 ) ) ;
#481 = VERTEX_POINT ( 'NONE', #319 ) ;
#482 = EDGE_CURVE ( 'NONE', #1203, #499, #49, .T. ) ;
#483 = EDGE_CURVE ( 'NONE', #409, #1042, #544, .T. ) ;
#484 = COORDINATED_UNIVERSAL_TIME_OFFSET ( 0, 0, .AHEAD. ) ;
#485 = CARTESIAN_POINT ( 'NONE',  ( -10.60660171779819372, 0.000000000000000000, -12.30660171779823742 ) ) ;
#486 = APPROVAL_PERSON_ORGANIZATION ( #289, #43, #1122 ) ;
#487 = CIRCLE ( 'NONE', #449, 3.249999999999996003 ) ;
#488 = CARTESIAN_POINT ( 'NONE',  ( 12.30660171779824807, -3.400000000000000355, -10.60660171779819017 ) ) ;
#489 = DIRECTION ( 'NONE',  ( 0.000000000000000000, 0.000000000000000000, 1.000000000000000000 ) ) ;
#490 = EDGE_CURVE ( 'NONE', #276, #437, #754, .T. ) ;
#491 = APPROVAL_STATUS ( 'not_yet_approved' ) ;
#492 = CARTESIAN_POINT ( 'NONE',  ( -5.237222008264700033E-14, 0.000000000000000000, 15.00000000000000000 ) ) ;
#493 = DIRECTION ( 'NONE',  ( -0.000000000000000000, 1.000000000000000000, -0.000000000000000000 ) ) ;
#494 = ORIENTED_EDGE ( 'NONE', *, *, #1218, .F. ) ;
#495 = ORIENTED_EDGE ( 'NONE', *, *, #277, .T. ) ;
#496 = DATE_AND_TIME ( #104, #893 ) ;
#497 = LINE ( 'NONE', #21, #761 ) ;
#498 = CARTESIAN_POINT ( 'NONE',  ( -15.00000000000000000, 0.000000000000000000, 2.249999999999892530 ) ) ;
#499 = VERTEX_POINT ( 'NONE', #146 ) ;
#500 = EDGE_LOOP ( 'NONE', ( #239, #895, #516, #1197 ) ) ;
#501 = DIRECTION ( 'NONE',  ( 0.000000000000000000, 0.000000000000000000, 1.000000000000000000 ) ) ;
#502 = FACE_OUTER_BOUND ( 'NONE', #777, .T. ) ;
#503 = EDGE_CURVE ( 'NONE', #855, #1222, #1052, .T. ) ;
#504 = VECTOR ( 'NONE', #440, 1000.000000000000000 ) ;
#505 = DIRECTION ( 'NONE',  ( 0.000000000000000000, 1.000000000000000000, 0.000000000000000000 ) ) ;
#506 = ORIENTED_EDGE ( 'NONE', *, *, #563, .F. ) ;
#507 = DIRECTION ( 'NONE',  ( -0.000000000000000000, 1.000000000000000000, -0.000000000000000000 ) ) ;
#508 = VERTEX_POINT ( 'NONE', #246 ) ;
#509 = CIRCLE ( 'NONE', #765, 3.249999999999996003 ) ;
#510 = PERSON_AND_ORGANIZATION_ROLE ( 'design_owner' ) ;
#511 = DIRECTION ( 'NONE',  ( 0.000000000000000000, 0.000000000000000000, -1.000000000000000000 ) ) ;
#512 = DIRECTION ( 'NONE',  ( 0.000000000000000000, 0.000000000000000000, 1.000000000000000000 ) ) ;
#513 = ORIENTED_EDGE ( 'NONE', *, *, #68, .T. ) ;
#514 = DIRECTION ( 'NONE',  ( -0.000000000000000000, -1.000000000000000000, -0.000000000000000000 ) ) ;
#515 = EDGE_CURVE ( 'NONE', #70, #764, #825, .T. ) ;
#516 = ORIENTED_EDGE ( 'NONE', *, *, #858, .T. ) ;
#517 = ORIENTED_EDGE ( 'NONE', *, *, #787, .T. ) ;
#518 = DIRECTION ( 'NONE',  ( -0.000000000000000000, 1.000000000000000000, -0.000000000000000000 ) ) ;
#519 = CIRCLE ( 'NONE', #687, 1.700000000000012168 ) ;
#520 = DIRECTION ( 'NONE',  ( -0.000000000000000000, 1.000000000000000000, -0.000000000000000000 ) ) ;
#521 = EDGE_LOOP ( 'NONE', ( #1112, #323, #517, #338 ) ) ;
#522 = CARTESIAN_POINT ( 'NONE',  ( 1.571166602479409884E-13, -8.000000000000000000, -12.75000000000000178 ) ) ;
#523 = AXIS2_PLACEMENT_3D ( 'NONE', #533, #938, #1245 ) ;
#524 = AXIS2_PLACEMENT_3D ( 'NONE', #159, #1033, #141 ) ;
#525 = CARTESIAN_POINT ( 'NONE',  ( 10.60660171779819372, 0.000000000000000000, 7.356601717798226581 ) ) ;
#526 = EDGE_CURVE ( 'NONE', #18, #1263, #89, .T. ) ;
#527 = PERSON_AND_ORGANIZATION_ROLE ( 'creator' ) ;
#528 = ADVANCED_FACE ( 'NONE', ( #365, #1125 ), #131, .F. ) ;
#529 = DIRECTION ( 'NONE',  ( 0.000000000000000000, 0.000000000000000000, 1.000000000000000000 ) ) ;
#530 = DIRECTION ( 'NONE',  ( 0.000000000000000000, 0.000000000000000000, 1.000000000000000000 ) ) ;
#531 = EDGE_LOOP ( 'NONE', ( #871, #1048, #393, #1204 ) ) ;
#532 = AXIS2_PLACEMENT_3D ( 'NONE', #30, #1228, #327 ) ;
#533 = CARTESIAN_POINT ( 'NONE',  ( 0.000000000000000000, -6.000000000000000000, 0.000000000000000000 ) ) ;
#534 = COORDINATED_UNIVERSAL_TIME_OFFSET ( 0, 0, .AHEAD. ) ;
#535 = FACE_OUTER_BOUND ( 'NONE', #1270, .T. ) ;
#536 = EDGE_CURVE ( 'NONE', #617, #1177, #927, .T. ) ;
#537 = DIRECTION ( 'NONE',  ( 0.000000000000000000, 1.000000000000000000, 0.000000000000000000 ) ) ;
#538 = ORIENTED_EDGE ( 'NONE', *, *, #654, .T. ) ;
#539 = DIRECTION ( 'NONE',  ( -0.000000000000000000, 1.000000000000000000, -0.000000000000000000 ) ) ;
#540 = ORIENTED_EDGE ( 'NONE', *, *, #601, .T. ) ;
#541 = FACE_BOUND ( 'NONE', #673, .T. ) ;
#542 = CYLINDRICAL_SURFACE ( 'NONE', #734, 1.700000000000005285 ) ;
#543 = ORIENTED_EDGE ( 'NONE', *, *, #704, .T. ) ;
#544 = CIRCLE ( 'NONE', #156, 3.249999999999996003 ) ;
#545 = AXIS2_PLACEMENT_3D ( 'NONE', #1129, #98, #489 ) ;
#546 = CALENDAR_DATE ( 2025, 17, 12 ) ;
#547 = DIRECTION ( 'NONE',  ( 0.000000000000000000, -1.000000000000000000, 0.000000000000000000 ) ) ;
#548 = CARTESIAN_POINT ( 'NONE',  ( -10.60660171779822569, -12.00000000000000178, 8.906601717798197981 ) ) ;
#549 = EDGE_CURVE ( 'NONE', #165, #1286, #171, .T. ) ;
#550 = CARTESIAN_POINT ( 'NONE',  ( 0.000000000000000000, -10.99999999999999822, 0.000000000000000000 ) ) ;
#551 = VERTEX_POINT ( 'NONE', #840 ) ;
#552 = AXIS2_PLACEMENT_3D ( 'NONE', #297, #793, #586 ) ;
#553 = CYLINDRICAL_SURFACE ( 'NONE', #926, 2.249999999999997780 ) ;
#554 = FACE_OUTER_BOUND ( 'NONE', #623, .T. ) ;
#555 = DIRECTION ( 'NONE',  ( 0.000000000000000000, 1.000000000000000000, 0.000000000000000000 ) ) ;
#556 = ADVANCED_FACE ( 'NONE', ( #565 ), #644, .F. ) ;
#557 = CARTESIAN_POINT ( 'NONE',  ( 0.000000000000000000, -12.00000000000000178, 0.000000000000000000 ) ) ;
#558 = DIRECTION ( 'NONE',  ( -0.000000000000000000, 1.000000000000000000, -0.000000000000000000 ) ) ;
#559 = ORIENTED_EDGE ( 'NONE', *, *, #941, .F. ) ;
#560 = DIRECTION ( 'NONE',  ( 0.000000000000000000, 0.000000000000000000, 1.000000000000000000 ) ) ;
#561 = EDGE_CURVE ( 'NONE', #310, #103, #230, .T. ) ;
#562 = CIRCLE ( 'NONE', #173, 2.250000000000001776 ) ;
#563 = EDGE_CURVE ( 'NONE', #760, #471, #1134, .T. ) ;
#564 = LINE ( 'NONE', #466, #1128 ) ;
#565 = FACE_OUTER_BOUND ( 'NONE', #207, .T. ) ;
#566 = EDGE_LOOP ( 'NONE', ( #8, #235 ) ) ;
#567 = DIRECTION ( 'NONE',  ( -0.000000000000000000, 1.000000000000000000, -0.000000000000000000 ) ) ;
#568 = ORIENTED_EDGE ( 'NONE', *, *, #1206, .F. ) ;
#569 = ORIENTED_EDGE ( 'NONE', *, *, #872, .F. ) ;
#570 = DIRECTION ( 'NONE',  ( -0.000000000000000000, 1.000000000000000000, -0.000000000000000000 ) ) ;
#571 = EDGE_LOOP ( 'NONE', ( #597, #1126 ) ) ;
#572 = ADVANCED_FACE ( 'NONE', ( #831 ), #1235, .F. ) ;
#573 = CARTESIAN_POINT ( 'NONE',  ( -10.60660171779819372, 0.000000000000000000, -10.60660171779823280 ) ) ;
#574 = CIRCLE ( 'NONE', #1066, 1.699999999999996625 ) ;
#575 = CARTESIAN_POINT ( 'NONE',  ( -5.237222008264700033E-14, -8.000000000000000000, 17.25000000000000000 ) ) ;
#576 = FACE_BOUND ( 'NONE', #902, .T. ) ;
#577 = ORIENTED_EDGE ( 'NONE', *, *, #482, .T. ) ;
#578 = ORIENTED_EDGE ( 'NONE', *, *, #636, .T. ) ;
#579 = CC_DESIGN_PERSON_AND_ORGANIZATION_ASSIGNMENT ( #448, #255, ( #723 ) ) ;
#580 = DIRECTION ( 'NONE',  ( -0.000000000000000000, 1.000000000000000000, -0.000000000000000000 ) ) ;
#581 = CARTESIAN_POINT ( 'NONE',  ( 1.571166602479409884E-13, -8.000000000000000000, -12.75000000000000178 ) ) ;
#582 = CIRCLE ( 'NONE', #312, 2.249999999999999112 ) ;
#583 = AXIS2_PLACEMENT_3D ( 'NONE', #1251, #58, #1152 ) ;
#584 = DIRECTION ( 'NONE',  ( 0.000000000000000000, -0.000000000000000000, 1.000000000000000000 ) ) ;
#585 = EDGE_CURVE ( 'NONE', #203, #70, #611, .T. ) ;
#586 = DIRECTION ( 'NONE',  ( 0.000000000000000000, 0.000000000000000000, -1.000000000000000000 ) ) ;
#587 = AXIS2_PLACEMENT_3D ( 'NONE', #870, #1078, #885 ) ;
#588 = CIRCLE ( 'NONE', #1038, 25.00000000000000000 ) ;
#589 = FACE_BOUND ( 'NONE', #435, .T. ) ;
#590 = ORIENTED_EDGE ( 'NONE', *, *, #1272, .T. ) ;
#591 = EDGE_CURVE ( 'NONE', #551, #944, #676, .T. ) ;
#592 = CIRCLE ( 'NONE', #873, 3.249999999999996003 ) ;
#593 = ADVANCED_BREP_SHAPE_REPRESENTATION ( 'support_plate_horiz', ( #60, #888 ), #1280 ) ;
#594 = APPROVAL_STATUS ( 'not_yet_approved' ) ;
#595 = CARTESIAN_POINT ( 'NONE',  ( -5.237222008264700033E-14, -8.000000000000000000, 17.25000000000000000 ) ) ;
#596 = CARTESIAN_POINT ( 'NONE',  ( 10.60660171779819372, -3.400000000000000355, 8.906601717798210416 ) ) ;
#597 = ORIENTED_EDGE ( 'NONE', *, *, #750, .F. ) ;
#598 = CARTESIAN_POINT ( 'NONE',  ( 0.000000000000000000, -12.00000000000000178, 24.00000000000000000 ) ) ;
#599 = CARTESIAN_POINT ( 'NONE',  ( -10.60660171779822569, -3.400000000000000355, 12.30660171779820722 ) ) ;
#600 = DIRECTION ( 'NONE',  ( 0.000000000000000000, 0.000000000000000000, 1.000000000000000000 ) ) ;
#601 = EDGE_CURVE ( 'NONE', #678, #407, #282, .T. ) ;
#602 = AXIS2_PLACEMENT_3D ( 'NONE', #458, #90, #480 ) ;
#603 = VECTOR ( 'NONE', #1076, 1000.000000000000000 ) ;
#604 = CARTESIAN_POINT ( 'NONE',  ( 10.60660171779823635, 0.000000000000000000, -8.906601717798185547 ) ) ;
#605 = VERTEX_POINT ( 'NONE', #595 ) ;
#606 = EDGE_LOOP ( 'NONE', ( #176, #737, #495, #208 ) ) ;
#607 = ORIENTED_EDGE ( 'NONE', *, *, #377, .T. ) ;
#608 = DIRECTION ( 'NONE',  ( 0.000000000000000000, 0.000000000000000000, 1.000000000000000000 ) ) ;
#609 = DIRECTION ( 'NONE',  ( -0.000000000000000000, 1.000000000000000000, -0.000000000000000000 ) ) ;
#610 = EDGE_CURVE ( 'NONE', #944, #551, #487, .T. ) ;
#611 = CIRCLE ( 'NONE', #700, 24.00000000000000000 ) ;
#612 = DIRECTION ( 'NONE',  ( -0.000000000000000000, 1.000000000000000000, -0.000000000000000000 ) ) ;
#613 = ORIENTED_EDGE ( 'NONE', *, *, #490, .T. ) ;
#614 = DIRECTION ( 'NONE',  ( -0.000000000000000000, 1.000000000000000000, -0.000000000000000000 ) ) ;
#615 = AXIS2_PLACEMENT_3D ( 'NONE', #1219, #806, #529 ) ;
#616 = ORIENTED_EDGE ( 'NONE', *, *, #114, .F. ) ;
#617 = VERTEX_POINT ( 'NONE', #378 ) ;
#618 = CIRCLE ( 'NONE', #783, 3.249999999999996003 ) ;
#619 = CARTESIAN_POINT ( 'NONE',  ( -15.00000000000000000, 0.000000000000000000, -1.047444401652940007E-13 ) ) ;
#620 = DIRECTION ( 'NONE',  ( 0.000000000000000000, 1.000000000000000000, 0.000000000000000000 ) ) ;
#621 = CIRCLE ( 'NONE', #807, 3.249999999999996003 ) ;
#622 = CARTESIAN_POINT ( 'NONE',  ( 2.939152317953647894E-15, -12.00000000000000178, -24.00000000000000000 ) ) ;
#623 = EDGE_LOOP ( 'NONE', ( #875, #33, #241, #452 ) ) ;
#624 = DIRECTION ( 'NONE',  ( -0.000000000000000000, 1.000000000000000000, -0.000000000000000000 ) ) ;
#625 = EDGE_CURVE ( 'NONE', #660, #697, #868, .T. ) ;
#626 = DIRECTION ( 'NONE',  ( 0.000000000000000000, 0.000000000000000000, 1.000000000000000000 ) ) ;
#627 = VERTEX_POINT ( 'NONE', #997 ) ;
#628 = CARTESIAN_POINT ( 'NONE',  ( 0.000000000000000000, -10.99999999999999822, -25.00000000000000000 ) ) ;
#629 = AXIS2_PLACEMENT_3D ( 'NONE', #998, #701, #123 ) ;
#630 = CARTESIAN_POINT ( 'NONE',  ( -5.209667455283883993E-14, -8.000000000000000000, 12.75000000000000000 ) ) ;
#631 = ORIENTED_EDGE ( 'NONE', *, *, #823, .F. ) ;
#632 = CIRCLE ( 'NONE', #1053, 2.249999999999997780 ) ;
#633 = CYLINDRICAL_SURFACE ( 'NONE', #583, 2.250000000000001776 ) ;
#634 = CIRCLE ( 'NONE', #843, 3.249999999999996003 ) ;
#635 = EDGE_LOOP ( 'NONE', ( #1246, #128 ) ) ;
#636 = EDGE_CURVE ( 'NONE', #1180, #413, #742, .T. ) ;
#637 = CARTESIAN_POINT ( 'NONE',  ( 0.000000000000000000, -12.00000000000000178, 0.000000000000000000 ) ) ;
#638 = CARTESIAN_POINT ( 'NONE',  ( -10.60660171779819372, -3.851859888774471706E-31, -10.60660171779823280 ) ) ;
#639 = ORIENTED_EDGE ( 'NONE', *, *, #610, .T. ) ;
#640 = VECTOR ( 'NONE', #390, 1000.000000000000000 ) ;
#641 = CARTESIAN_POINT ( 'NONE',  ( -10.60660171779822569, -12.00000000000000178, 10.60660171779819372 ) ) ;
#642 = EDGE_LOOP ( 'NONE', ( #352, #227 ) ) ;
#643 = CYLINDRICAL_SURFACE ( 'NONE', #686, 2.249999999999999112 ) ;
#644 = CYLINDRICAL_SURFACE ( 'NONE', #532, 1.700000000000005285 ) ;
#645 = DIRECTION ( 'NONE',  ( 0.000000000000000000, 0.000000000000000000, -1.000000000000000000 ) ) ;
#646 = DATE_AND_TIME ( #546, #827 ) ;
#647 = CARTESIAN_POINT ( 'NONE',  ( 10.60660171779819372, -3.851859888774471706E-31, 7.356601717798226581 ) ) ;
#648 = DIRECTION ( 'NONE',  ( 0.000000000000000000, 0.000000000000000000, -1.000000000000000000 ) ) ;
#649 = EDGE_CURVE ( 'NONE', #764, #1214, #588, .T. ) ;
#650 = DIRECTION ( 'NONE',  ( 0.000000000000000000, 0.000000000000000000, 1.000000000000000000 ) ) ;
#651 = CIRCLE ( 'NONE', #380, 23.25000000000000000 ) ;
#652 = CARTESIAN_POINT ( 'NONE',  ( -10.60660171779819372, -3.400000000000000355, -10.60660171779823280 ) ) ;
#653 = CARTESIAN_POINT ( 'NONE',  ( -10.60660171779822569, 0.000000000000000000, 10.60660171779819372 ) ) ;
#654 = EDGE_CURVE ( 'NONE', #1177, #617, #824, .T. ) ;
#655 = CYLINDRICAL_SURFACE ( 'NONE', #1254, 2.250000000000000444 ) ;
#656 = AXIS2_PLACEMENT_3D ( 'NONE', #619, #903, #1102 ) ;
#657 = AXIS2_PLACEMENT_3D ( 'NONE', #201, #100, #175 ) ;
#658 = DIRECTION ( 'NONE',  ( 0.000000000000000000, 1.000000000000000000, 0.000000000000000000 ) ) ;
#659 = APPROVAL_PERSON_ORGANIZATION ( #143, #388, #1131 ) ;
#660 = VERTEX_POINT ( 'NONE', #1187 ) ;
#661 = CARTESIAN_POINT ( 'NONE',  ( -10.60660171779822569, -3.400000000000000355, 8.906601717798181994 ) ) ;
#662 = DIRECTION ( 'NONE',  ( 0.000000000000000000, -0.9816153896685811953, -0.1908696591022246980 ) ) ;
#663 = CIRCLE ( 'NONE', #1205, 2.250000000000000444 ) ;
#664 = EDGE_CURVE ( 'NONE', #375, #471, #891, .T. ) ;
#665 = DIRECTION ( 'NONE',  ( 0.000000000000000000, -1.000000000000000000, 0.000000000000000000 ) ) ;
#666 = VERTEX_POINT ( 'NONE', #279 ) ;
#667 = CARTESIAN_POINT ( 'NONE',  ( -5.237222008264700033E-14, -8.000000000000000000, 15.00000000000000000 ) ) ;
#668 = VECTOR ( 'NONE', #759, 1000.000000000000000 ) ;
#669 = EDGE_CURVE ( 'NONE', #471, #375, #324, .T. ) ;
#670 = FACE_OUTER_BOUND ( 'NONE', #85, .T. ) ;
#671 = FACE_OUTER_BOUND ( 'NONE', #40, .T. ) ;
#672 = CARTESIAN_POINT ( 'NONE',  ( -15.00000000000000000, 0.000000000000000000, -1.047444401652940007E-13 ) ) ;
#673 = EDGE_LOOP ( 'NONE', ( #540, #730 ) ) ;
#674 = ORIENTED_EDGE ( 'NONE', *, *, #199, .F. ) ;
#675 = CYLINDRICAL_SURFACE ( 'NONE', #1028, 1.700000000000005285 ) ;
#676 = CIRCLE ( 'NONE', #848, 3.249999999999996003 ) ;
#677 = FACE_OUTER_BOUND ( 'NONE', #977, .T. ) ;
#678 = VERTEX_POINT ( 'NONE', #1284 ) ;
#679 = AXIS2_PLACEMENT_3D ( 'NONE', #1223, #722, #1160 ) ;
#680 = DIRECTION ( 'NONE',  ( 0.000000000000000000, 0.000000000000000000, 1.000000000000000000 ) ) ;
#681 = ORIENTED_EDGE ( 'NONE', *, *, #99, .F. ) ;
#682 = DIRECTION ( 'NONE',  ( 0.000000000000000000, 0.000000000000000000, -1.000000000000000000 ) ) ;
#683 = EDGE_CURVE ( 'NONE', #25, #53, #1176, .T. ) ;
#684 = FACE_OUTER_BOUND ( 'NONE', #65, .T. ) ;
#685 = VERTEX_POINT ( 'NONE', #986 ) ;
#686 = AXIS2_PLACEMENT_3D ( 'NONE', #1153, #438, #459 ) ;
#687 = AXIS2_PLACEMENT_3D ( 'NONE', #1179, #476, #464 ) ;
#688 = AXIS2_PLACEMENT_3D ( 'NONE', #341, #73, #530 ) ;
#689 = CONICAL_SURFACE ( 'NONE', #186, 24.00000000000000000, 0.7853981633974466137 ) ;
#690 = CALENDAR_DATE ( 2025, 17, 12 ) ;
#691 = DIRECTION ( 'NONE',  ( 0.000000000000000000, 0.000000000000000000, 1.000000000000000000 ) ) ;
#692 = AXIS2_PLACEMENT_3D ( 'NONE', #550, #349, #247 ) ;
#693 = DESIGN_CONTEXT ( 'detailed design', #408, 'design' ) ;
#694 = ADVANCED_FACE ( 'NONE', ( #677 ), #1103, .F. ) ;
#695 = CYLINDRICAL_SURFACE ( 'NONE', #629, 1.700000000000005285 ) ;
#696 = ORIENTED_EDGE ( 'NONE', *, *, #1036, .T. ) ;
#697 = VERTEX_POINT ( 'NONE', #899 ) ;
#698 = DATE_AND_TIME ( #403, #1182 ) ;
#699 = DIRECTION ( 'NONE',  ( -0.000000000000000000, 1.000000000000000000, -0.000000000000000000 ) ) ;
#700 = AXIS2_PLACEMENT_3D ( 'NONE', #1097, #398, #976 ) ;
#701 = DIRECTION ( 'NONE',  ( -0.000000000000000000, 1.000000000000000000, -0.000000000000000000 ) ) ;
#702 = ORIENTED_EDGE ( 'NONE', *, *, #989, .T. ) ;
#703 = ORIENTED_EDGE ( 'NONE', *, *, #669, .T. ) ;
#704 = EDGE_CURVE ( 'NONE', #859, #1074, #177, .T. ) ;
#705 = DIRECTION ( 'NONE',  ( -0.000000000000000000, -1.000000000000000000, -0.000000000000000000 ) ) ;
#706 = AXIS2_PLACEMENT_3D ( 'NONE', #12, #411, #1208 ) ;
#707 = CARTESIAN_POINT ( 'NONE',  ( 10.60660171779819372, -12.00000000000000178, 12.30660171779821965 ) ) ;
#708 = ORIENTED_EDGE ( 'NONE', *, *, #787, .F. ) ;
#709 = ORIENTED_EDGE ( 'NONE', *, *, #954, .T. ) ;
#710 = ADVANCED_FACE ( 'NONE', ( #180, #576, #1269, #769, #979 ), #477, .T. ) ;
#711 = DIRECTION ( 'NONE',  ( 1.000000000000000000, 0.000000000000000000, 0.000000000000000000 ) ) ;
#712 = LINE ( 'NONE', #1116, #372 ) ;
#713 = CIRCLE ( 'NONE', #688, 3.249999999999996003 ) ;
#714 = PLANE ( 'NONE',  #356 ) ;
#715 = EDGE_LOOP ( 'NONE', ( #559, #569, #315, #216 ) ) ;
#716 = LINE ( 'NONE', #214, #956 ) ;
#717 = ORIENTED_EDGE ( 'NONE', *, *, #889, .T. ) ;
#718 = DIRECTION ( 'NONE',  ( 0.000000000000000000, 0.000000000000000000, -1.000000000000000000 ) ) ;
#719 = EDGE_CURVE ( 'NONE', #797, #859, #1087, .T. ) ;
#720 = DIRECTION ( 'NONE',  ( 0.000000000000000000, 0.000000000000000000, 1.000000000000000000 ) ) ;
#721 = ORIENTED_EDGE ( 'NONE', *, *, #126, .T. ) ;
#722 = DIRECTION ( 'NONE',  ( -0.000000000000000000, 1.000000000000000000, -0.000000000000000000 ) ) ;
#723 = SECURITY_CLASSIFICATION ( '', '', #426 ) ;
#724 = CYLINDRICAL_SURFACE ( 'NONE', #545, 2.249999999999999112 ) ;
#725 = ORIENTED_EDGE ( 'NONE', *, *, #482, .F. ) ;
#726 = PERSON_AND_ORGANIZATION_ROLE ( 'design_supplier' ) ;
#727 = DIRECTION ( 'NONE',  ( 0.000000000000000000, 0.000000000000000000, -1.000000000000000000 ) ) ;
#728 = EDGE_CURVE ( 'NONE', #1222, #18, #185, .T. ) ;
#729 = CARTESIAN_POINT ( 'NONE',  ( 10.60660171779819372, 0.000000000000000000, 13.85660171779821859 ) ) ;
#730 = ORIENTED_EDGE ( 'NONE', *, *, #1155, .T. ) ;
#731 = DIRECTION ( 'NONE',  ( 0.000000000000000000, 1.000000000000000000, 0.000000000000000000 ) ) ;
#732 = DIRECTION ( 'NONE',  ( -0.000000000000000000, 1.000000000000000000, -0.000000000000000000 ) ) ;
#733 = AXIS2_PLACEMENT_3D ( 'NONE', #740, #547, #1252 ) ;
#734 = AXIS2_PLACEMENT_3D ( 'NONE', #784, #183, #879 ) ;
#735 = VECTOR ( 'NONE', #970, 1000.000000000000000 ) ;
#736 = DIRECTION ( 'NONE',  ( -0.000000000000000000, 1.000000000000000000, -0.000000000000000000 ) ) ;
#737 = ORIENTED_EDGE ( 'NONE', *, *, #625, .T. ) ;
#738 = PLANE ( 'NONE',  #1213 ) ;
#739 = ORIENTED_EDGE ( 'NONE', *, *, #197, .F. ) ;
#740 = CARTESIAN_POINT ( 'NONE',  ( -8.906601717798181994, -3.400000000000000355, -10.60660171779823280 ) ) ;
#741 = DIRECTION ( 'NONE',  ( 0.000000000000000000, 0.000000000000000000, 1.000000000000000000 ) ) ;
#742 = CIRCLE ( 'NONE', #56, 2.249999999999997780 ) ;
#743 = DIRECTION ( 'NONE',  ( -0.000000000000000000, 1.000000000000000000, -0.000000000000000000 ) ) ;
#744 = ADVANCED_FACE ( 'NONE', ( #800 ), #264, .T. ) ;
#745 = CARTESIAN_POINT ( 'NONE',  ( -15.00000000000000000, -8.000000000000000000, -1.047444401652940007E-13 ) ) ;
#746 = DIRECTION ( 'NONE',  ( 0.000000000000000000, 0.000000000000000000, -1.000000000000000000 ) ) ;
#747 = DIRECTION ( 'NONE',  ( 0.000000000000000000, 0.000000000000000000, 1.000000000000000000 ) ) ;
#748 = EDGE_LOOP ( 'NONE', ( #1093, #273 ) ) ;
#749 = DIRECTION ( 'NONE',  ( 0.000000000000000000, 0.000000000000000000, -1.000000000000000000 ) ) ;
#750 = EDGE_CURVE ( 'NONE', #508, #914, #97, .T. ) ;
#751 = CARTESIAN_POINT ( 'NONE',  ( 10.60660171779819372, 0.000000000000000000, 8.906601717798217521 ) ) ;
#752 = CIRCLE ( 'NONE', #154, 2.249999999999999112 ) ;
#753 = DIRECTION ( 'NONE',  ( -0.000000000000000000, 1.000000000000000000, -0.000000000000000000 ) ) ;
#754 = CIRCLE ( 'NONE', #882, 1.699999999999996625 ) ;
#755 = CARTESIAN_POINT ( 'NONE',  ( 2.479909768273390300E-15, 0.000000000000000000, 20.25000000000000000 ) ) ;
#756 = ORIENTED_EDGE ( 'NONE', *, *, #166, .F. ) ;
#757 = DIRECTION ( 'NONE',  ( 0.000000000000000000, 0.000000000000000000, 1.000000000000000000 ) ) ;
#758 = EDGE_CURVE ( 'NONE', #70, #203, #912, .T. ) ;
#759 = DIRECTION ( 'NONE',  ( -0.000000000000000000, 1.000000000000000000, -0.000000000000000000 ) ) ;
#760 = VERTEX_POINT ( 'NONE', #1029 ) ;
#761 = VECTOR ( 'NONE', #925, 1000.000000000000000 ) ;
#762 = DIRECTION ( 'NONE',  ( 0.000000000000000000, 1.000000000000000000, 0.000000000000000000 ) ) ;
#763 = DIRECTION ( 'NONE',  ( -0.000000000000000000, -1.000000000000000000, -0.000000000000000000 ) ) ;
#764 = VERTEX_POINT ( 'NONE', #628 ) ;
#765 = AXIS2_PLACEMENT_3D ( 'NONE', #321, #860, #757 ) ;
#766 = EDGE_CURVE ( 'NONE', #1236, #310, #1162, .T. ) ;
#767 = DIRECTION ( 'NONE',  ( 0.000000000000000000, 0.000000000000000000, -1.000000000000000000 ) ) ;
#768 = CIRCLE ( 'NONE', #918, 2.250000000000000444 ) ;
#769 = FACE_BOUND ( 'NONE', #14, .T. ) ;
#770 = ORIENTED_EDGE ( 'NONE', *, *, #989, .F. ) ;
#771 = DIRECTION ( 'NONE',  ( 0.000000000000000000, 0.000000000000000000, 1.000000000000000000 ) ) ;
#772 = CC_DESIGN_PERSON_AND_ORGANIZATION_ASSIGNMENT ( #845, #527, ( #221 ) ) ;
#773 = CIRCLE ( 'NONE', #946, 3.249999999999996003 ) ;
#774 = AXIS2_PLACEMENT_3D ( 'NONE', #342, #252, #626 ) ;
#775 = DIRECTION ( 'NONE',  ( 0.000000000000000000, 1.000000000000000000, 0.000000000000000000 ) ) ;
#776 = DIRECTION ( 'NONE',  ( 0.000000000000000000, 0.000000000000000000, 1.000000000000000000 ) ) ;
#777 = EDGE_LOOP ( 'NONE', ( #23, #832, #877, #1083 ) ) ;
#778 = FACE_OUTER_BOUND ( 'NONE', #1106, .T. ) ;
#779 = ORIENTED_EDGE ( 'NONE', *, *, #126, .F. ) ;
#780 = ADVANCED_FACE ( 'NONE', ( #138 ), #432, .T. ) ;
#781 = AXIS2_PLACEMENT_3D ( 'NONE', #1082, #285, #385 ) ;
#782 = DIRECTION ( 'NONE',  ( 0.000000000000000000, -1.000000000000000000, -0.000000000000000000 ) ) ;
#783 = AXIS2_PLACEMENT_3D ( 'NONE', #1212, #24, #1127 ) ;
#784 = CARTESIAN_POINT ( 'NONE',  ( 10.60660171779823635, 0.000000000000000000, -10.60660171779819017 ) ) ;
#785 = ORIENTED_EDGE ( 'NONE', *, *, #591, .T. ) ;
#786 = DIRECTION ( 'NONE',  ( -0.000000000000000000, 1.000000000000000000, -0.000000000000000000 ) ) ;
#787 = EDGE_CURVE ( 'NONE', #366, #685, #120, .T. ) ;
#788 = CARTESIAN_POINT ( 'NONE',  ( -10.60660171779819372, -3.851859888774471706E-31, -13.85660171779822925 ) ) ;
#789 = CARTESIAN_POINT ( 'NONE',  ( 15.00000000000000000, -8.000000000000000000, 2.249999999999999112 ) ) ;
#790 = AXIS2_PLACEMENT_3D ( 'NONE', #1067, #555, #771 ) ;
#791 = AXIS2_PLACEMENT_3D ( 'NONE', #907, #1285, #401 ) ;
#792 = APPROVAL_ROLE ( '' ) ;
#793 = DIRECTION ( 'NONE',  ( -0.000000000000000000, -1.000000000000000000, -0.000000000000000000 ) ) ;
#794 = AXIS2_PLACEMENT_3D ( 'NONE', #296, #1101, #1198 ) ;
#795 = ADVANCED_FACE ( 'NONE', ( #1020 ), #194, .T. ) ;
#796 = DIRECTION ( 'NONE',  ( -0.000000000000000000, 1.000000000000000000, -0.000000000000000000 ) ) ;
#797 = VERTEX_POINT ( 'NONE', #105 ) ;
#798 = ORIENTED_EDGE ( 'NONE', *, *, #766, .F. ) ;
#799 = PERSON_AND_ORGANIZATION_ROLE ( 'creator' ) ;
#800 = FACE_OUTER_BOUND ( 'NONE', #169, .T. ) ;
#801 = DIRECTION ( 'NONE',  ( 2.337479170738859546E-17, -0.9816153896685811953, 0.1908696591022246980 ) ) ;
#802 = ORIENTED_EDGE ( 'NONE', *, *, #360, .T. ) ;
#803 = EDGE_CURVE ( 'NONE', #1018, #764, #497, .T. ) ;
#804 = EDGE_LOOP ( 'NONE', ( #1017, #613 ) ) ;
#805 = APPLICATION_PROTOCOL_DEFINITION ( 'international standard', 'config_control_design', 1994, #1233 ) ;
#806 = DIRECTION ( 'NONE',  ( 0.000000000000000000, 1.000000000000000000, 0.000000000000000000 ) ) ;
#807 = AXIS2_PLACEMENT_3D ( 'NONE', #1010, #244, #1158 ) ;
#808 = FACE_BOUND ( 'NONE', #149, .T. ) ;
#809 = ORIENTED_EDGE ( 'NONE', *, *, #954, .F. ) ;
#810 = CARTESIAN_POINT ( 'NONE',  ( 10.60660171779823635, -3.400000000000000355, -13.85660171779818661 ) ) ;
#811 = ORIENTED_EDGE ( 'NONE', *, *, #83, .F. ) ;
#812 = ORIENTED_EDGE ( 'NONE', *, *, #469, .T. ) ;
#813 =( LENGTH_UNIT ( ) NAMED_UNIT ( * ) SI_UNIT ( .MILLI., .METRE. ) );
#814 = CARTESIAN_POINT ( 'NONE',  ( -10.60660171779822569, -3.851859888774471706E-31, 10.60660171779819372 ) ) ;
#815 = AXIS2_PLACEMENT_3D ( 'NONE', #652, #150, #66 ) ;
#816 = AXIS2_PLACEMENT_3D ( 'NONE', #942, #665, #1022 ) ;
#817 = DIRECTION ( 'NONE',  ( 0.000000000000000000, 0.000000000000000000, 1.000000000000000000 ) ) ;
#818 = ORIENTED_EDGE ( 'NONE', *, *, #1248, .F. ) ;
#819 = CARTESIAN_POINT ( 'NONE',  ( 10.60660171779823635, -3.400000000000000355, -10.60660171779819017 ) ) ;
#820 = FACE_OUTER_BOUND ( 'NONE', #1130, .T. ) ;
#821 = EDGE_LOOP ( 'NONE', ( #1119, #38 ) ) ;
#822 = CARTESIAN_POINT ( 'NONE',  ( 0.000000000000000000, -6.000000000000000000, 0.000000000000000000 ) ) ;
#823 = EDGE_CURVE ( 'NONE', #1286, #1193, #218, .T. ) ;
#824 = CIRCLE ( 'NONE', #465, 1.699999999999996625 ) ;
#825 = LINE ( 'NONE', #622, #1217 ) ;
#826 = ORIENTED_EDGE ( 'NONE', *, *, #1184, .F. ) ;
#827 = LOCAL_TIME ( 10, 21, 6.000000000000000000, #852 ) ;
#828 = CARTESIAN_POINT ( 'NONE',  ( 3.061616997868383043E-15, -12.00000000000000355, 25.00000000000000000 ) ) ;
#829 = EDGE_LOOP ( 'NONE', ( #506, #739, #957, #127 ) ) ;
#830 = DIRECTION ( 'NONE',  ( -0.000000000000000000, 1.000000000000000000, -0.000000000000000000 ) ) ;
#831 = FACE_OUTER_BOUND ( 'NONE', #950, .T. ) ;
#832 = ORIENTED_EDGE ( 'NONE', *, *, #301, .T. ) ;
#833 = PRODUCT_DEFINITION_SHAPE ( 'NONE', 'NONE',  #1005 ) ;
#834 = CARTESIAN_POINT ( 'NONE',  ( 0.000000000000000000, -12.00000000000000355, -20.25000000000000000 ) ) ;
#835 = ORIENTED_EDGE ( 'NONE', *, *, #475, .T. ) ;
#836 = LINE ( 'NONE', #1238, #839 ) ;
#837 = AXIS2_PLACEMENT_3D ( 'NONE', #362, #1265, #1259 ) ;
#838 = AXIS2_PLACEMENT_3D ( 'NONE', #993, #493, #512 ) ;
#839 = VECTOR ( 'NONE', #863, 1000.000000000000000 ) ;
#840 = CARTESIAN_POINT ( 'NONE',  ( -10.60660171779819372, -3.400000000000000355, -7.356601717798236351 ) ) ;
#841 = ADVANCED_FACE ( 'NONE', ( #237 ), #934, .F. ) ;
#842 = DIRECTION ( 'NONE',  ( -0.000000000000000000, -1.000000000000000000, -0.000000000000000000 ) ) ;
#843 = AXIS2_PLACEMENT_3D ( 'NONE', #359, #157, #847 ) ;
#844 = ORIENTED_EDGE ( 'NONE', *, *, #1045, .F. ) ;
#845 = PERSON_AND_ORGANIZATION ( #72, #1060 ) ;
#846 = FACE_OUTER_BOUND ( 'NONE', #1099, .T. ) ;
#847 = DIRECTION ( 'NONE',  ( 0.000000000000000000, 0.000000000000000000, 1.000000000000000000 ) ) ;
#848 = AXIS2_PLACEMENT_3D ( 'NONE', #892, #290, #691 ) ;
#849 = DIRECTION ( 'NONE',  ( 0.000000000000000000, 0.000000000000000000, 1.000000000000000000 ) ) ;
#850 = EDGE_LOOP ( 'NONE', ( #798, #1191, #62, #897 ) ) ;
#851 = EDGE_CURVE ( 'NONE', #215, #797, #574, .T. ) ;
#852 = COORDINATED_UNIVERSAL_TIME_OFFSET ( 0, 0, .AHEAD. ) ;
#853 = CARTESIAN_POINT ( 'NONE',  ( 10.60660171779819372, -3.400000000000000355, 10.60660171779822214 ) ) ;
#854 = DIRECTION ( 'NONE',  ( -0.000000000000000000, -1.000000000000000000, -0.000000000000000000 ) ) ;
#855 = VERTEX_POINT ( 'NONE', #1139 ) ;
#856 = AXIS2_PLACEMENT_3D ( 'NONE', #1175, #1081, #278 ) ;
#857 = CARTESIAN_POINT ( 'NONE',  ( 15.00000000000000000, -8.000000000000000000, 0.000000000000000000 ) ) ;
#858 = EDGE_CURVE ( 'NONE', #1263, #18, #663, .T. ) ;
#859 = VERTEX_POINT ( 'NONE', #904 ) ;
#860 = DIRECTION ( 'NONE',  ( -0.000000000000000000, 1.000000000000000000, -0.000000000000000000 ) ) ;
#861 = CARTESIAN_POINT ( 'NONE',  ( -10.60660171779819372, -12.00000000000000178, -8.906601717798235285 ) ) ;
#862 = VECTOR ( 'NONE', #1237, 1000.000000000000000 ) ;
#863 = DIRECTION ( 'NONE',  ( -0.000000000000000000, 1.000000000000000000, -0.000000000000000000 ) ) ;
#864 = DIRECTION ( 'NONE',  ( -0.000000000000000000, 1.000000000000000000, -0.000000000000000000 ) ) ;
#865 = ORIENTED_EDGE ( 'NONE', *, *, #1184, .T. ) ;
#866 = EDGE_CURVE ( 'NONE', #880, #1018, #228, .T. ) ;
#867 = CARTESIAN_POINT ( 'NONE',  ( 0.000000000000000000, -6.000000000000000000, -25.00000000000000355 ) ) ;
#868 = CIRCLE ( 'NONE', #552, 23.25000000000000000 ) ;
#869 = DIRECTION ( 'NONE',  ( -0.000000000000000000, -1.000000000000000000, -0.000000000000000000 ) ) ;
#870 = CARTESIAN_POINT ( 'NONE',  ( -5.237222008264700033E-14, 0.000000000000000000, 15.00000000000000000 ) ) ;
#871 = ORIENTED_EDGE ( 'NONE', *, *, #51, .F. ) ;
#872 = EDGE_CURVE ( 'NONE', #1222, #855, #768, .T. ) ;
#873 = AXIS2_PLACEMENT_3D ( 'NONE', #930, #63, #422 ) ;
#874 = FACE_OUTER_BOUND ( 'NONE', #335, .T. ) ;
#875 = ORIENTED_EDGE ( 'NONE', *, *, #1227, .F. ) ;
#876 = DIRECTION ( 'NONE',  ( 0.000000000000000000, 1.000000000000000000, 0.000000000000000000 ) ) ;
#877 = ORIENTED_EDGE ( 'NONE', *, *, #483, .T. ) ;
#878 = AXIS2_PLACEMENT_3D ( 'NONE', #153, #842, #645 ) ;
#879 = DIRECTION ( 'NONE',  ( 0.000000000000000000, 0.000000000000000000, 1.000000000000000000 ) ) ;
#880 = VERTEX_POINT ( 'NONE', #113 ) ;
#881 = ADVANCED_FACE ( 'NONE', ( #502 ), #911, .F. ) ;
#882 = AXIS2_PLACEMENT_3D ( 'NONE', #1046, #558, #1221 ) ;
#883 = AXIS2_PLACEMENT_3D ( 'NONE', #93, #775, #890 ) ;
#884 = LINE ( 'NONE', #575, #1021 ) ;
#885 = DIRECTION ( 'NONE',  ( 0.000000000000000000, 0.000000000000000000, 1.000000000000000000 ) ) ;
#886 = VERTEX_POINT ( 'NONE', #308 ) ;
#887 = LINE ( 'NONE', #1281, #668 ) ;
#888 = AXIS2_PLACEMENT_3D ( 'NONE', #910, #307, #711 ) ;
#889 = EDGE_CURVE ( 'NONE', #215, #1074, #712, .T. ) ;
#890 = DIRECTION ( 'NONE',  ( 0.000000000000000000, -0.000000000000000000, 1.000000000000000000 ) ) ;
#891 = CIRCLE ( 'NONE', #1181, 2.250000000000001776 ) ;
#892 = CARTESIAN_POINT ( 'NONE',  ( -10.60660171779819372, -3.400000000000000355, -10.60660171779823280 ) ) ;
#893 = LOCAL_TIME ( 10, 21, 6.000000000000000000, #996 ) ;
#894 = FACE_BOUND ( 'NONE', #571, .T. ) ;
#895 = ORIENTED_EDGE ( 'NONE', *, *, #941, .T. ) ;
#896 = CC_DESIGN_PERSON_AND_ORGANIZATION_ASSIGNMENT ( #10, #799, ( #1005 ) ) ;
#897 = ORIENTED_EDGE ( 'NONE', *, *, #561, .F. ) ;
#898 = DIRECTION ( 'NONE',  ( -0.000000000000000000, 1.000000000000000000, -0.000000000000000000 ) ) ;
#899 = CARTESIAN_POINT ( 'NONE',  ( 0.000000000000000000, 2.999999999999999112, -23.25000000000000000 ) ) ;
#900 = EDGE_CURVE ( 'NONE', #666, #142, #621, .T. ) ;
#901 = DIRECTION ( 'NONE',  ( 0.000000000000000000, 0.000000000000000000, 1.000000000000000000 ) ) ;
#902 = EDGE_LOOP ( 'NONE', ( #1113, #538 ) ) ;
#903 = DIRECTION ( 'NONE',  ( 0.000000000000000000, 1.000000000000000000, 0.000000000000000000 ) ) ;
#904 = CARTESIAN_POINT ( 'NONE',  ( -10.60660171779819372, -3.400000000000000355, -12.30660171779824452 ) ) ;
#905 = VECTOR ( 'NONE', #507, 1000.000000000000000 ) ;
#906 = ADVANCED_FACE ( 'NONE', ( #1037, #940 ), #1050, .F. ) ;
#907 = CARTESIAN_POINT ( 'NONE',  ( -10.60660171779819372, -12.00000000000000178, -10.60660171779823280 ) ) ;
#908 = ORIENTED_EDGE ( 'NONE', *, *, #469, .F. ) ;
#909 = EDGE_LOOP ( 'NONE', ( #826, #190 ) ) ;
#910 = CARTESIAN_POINT ( 'NONE',  ( 0.000000000000000000, 0.000000000000000000, 0.000000000000000000 ) ) ;
#911 = CYLINDRICAL_SURFACE ( 'NONE', #706, 3.249999999999996003 ) ;
#912 = CIRCLE ( 'NONE', #935, 24.00000000000000000 ) ;
#913 = DIRECTION ( 'NONE',  ( -0.000000000000000000, 1.000000000000000000, -0.000000000000000000 ) ) ;
#914 = VERTEX_POINT ( 'NONE', #951 ) ;
#915 = FACE_OUTER_BOUND ( 'NONE', #980, .T. ) ;
#916 = FACE_OUTER_BOUND ( 'NONE', #850, .T. ) ;
#917 = DIRECTION ( 'NONE',  ( 0.000000000000000000, 0.000000000000000000, 1.000000000000000000 ) ) ;
#918 = AXIS2_PLACEMENT_3D ( 'NONE', #303, #620, #27 ) ;
#919 = FACE_BOUND ( 'NONE', #1008, .T. ) ;
#920 = ORIENTED_EDGE ( 'NONE', *, *, #719, .T. ) ;
#921 = CARTESIAN_POINT ( 'NONE',  ( 0.000000000000000000, -12.00000000000000355, 0.000000000000000000 ) ) ;
#922 = EDGE_LOOP ( 'NONE', ( #973, #1023, #1049, #1007 ) ) ;
#923 = EDGE_LOOP ( 'NONE', ( #1225, #26, #779, #351 ) ) ;
#924 = EDGE_CURVE ( 'NONE', #481, #914, #357, .T. ) ;
#925 = DIRECTION ( 'NONE',  ( -0.000000000000000000, -1.000000000000000000, -0.000000000000000000 ) ) ;
#926 = AXIS2_PLACEMENT_3D ( 'NONE', #745, #1150, #249 ) ;
#927 = CIRCLE ( 'NONE', #1094, 1.699999999999996625 ) ;
#928 = DIRECTION ( 'NONE',  ( -0.000000000000000000, 1.000000000000000000, -0.000000000000000000 ) ) ;
#929 = ORIENTED_EDGE ( 'NONE', *, *, #1155, .F. ) ;
#930 = CARTESIAN_POINT ( 'NONE',  ( -10.60660171779822569, -3.400000000000000355, 10.60660171779819372 ) ) ;
#931 = DIRECTION ( 'NONE',  ( 0.000000000000000000, 1.000000000000000000, 0.000000000000000000 ) ) ;
#932 = ORIENTED_EDGE ( 'NONE', *, *, #585, .F. ) ;
#933 = ADVANCED_FACE ( 'NONE', ( #1243 ), #643, .F. ) ;
#934 = CYLINDRICAL_SURFACE ( 'NONE', #19, 2.249999999999997780 ) ;
#935 = AXIS2_PLACEMENT_3D ( 'NONE', #637, #35, #727 ) ;
#936 = CARTESIAN_POINT ( 'NONE',  ( -10.60660171779822569, 0.000000000000000000, 12.30660171779820011 ) ) ;
#937 = ORIENTED_EDGE ( 'NONE', *, *, #454, .T. ) ;
#938 = DIRECTION ( 'NONE',  ( -0.000000000000000000, -1.000000000000000000, -0.000000000000000000 ) ) ;
#939 = ORIENTED_EDGE ( 'NONE', *, *, #1091, .F. ) ;
#940 = FACE_OUTER_BOUND ( 'NONE', #96, .T. ) ;
#941 = EDGE_CURVE ( 'NONE', #855, #1263, #353, .T. ) ;
#942 = CARTESIAN_POINT ( 'NONE',  ( 12.30660171779820722, -3.400000000000000355, 10.60660171779822214 ) ) ;
#943 = DIRECTION ( 'NONE',  ( 0.000000000000000000, 0.000000000000000000, 1.000000000000000000 ) ) ;
#944 = VERTEX_POINT ( 'NONE', #1165 ) ;
#945 = DIRECTION ( 'NONE',  ( 0.000000000000000000, 0.000000000000000000, 1.000000000000000000 ) ) ;
#946 = AXIS2_PLACEMENT_3D ( 'NONE', #853, #364, #48 ) ;
#947 = VECTOR ( 'NONE', #913, 1000.000000000000000 ) ;
#948 = ADVANCED_FACE ( 'NONE', ( #541, #535 ), #261, .T. ) ;
#949 = DIRECTION ( 'NONE',  ( 0.000000000000000000, 0.000000000000000000, 1.000000000000000000 ) ) ;
#950 = EDGE_LOOP ( 'NONE', ( #568, #79, #415, #1260 ) ) ;
#951 = CARTESIAN_POINT ( 'NONE',  ( -10.60660171779822569, -3.851859888774471706E-31, 7.356601717798198159 ) ) ;
#952 = AXIS2_PLACEMENT_3D ( 'NONE', #1194, #1289, #608 ) ;
#953 = DIRECTION ( 'NONE',  ( 0.000000000000000000, 1.000000000000000000, 0.000000000000000000 ) ) ;
#954 = EDGE_CURVE ( 'NONE', #1229, #1180, #1146, .T. ) ;
#955 = CARTESIAN_POINT ( 'NONE',  ( 0.000000000000000000, 0.000000000000000000, 0.000000000000000000 ) ) ;
#956 = VECTOR ( 'NONE', #624, 1000.000000000000000 ) ;
#957 = ORIENTED_EDGE ( 'NONE', *, *, #1248, .T. ) ;
#958 = CARTESIAN_POINT ( 'NONE',  ( 10.60660171779823635, -12.00000000000000178, -12.30660171779818768 ) ) ;
#959 = CARTESIAN_POINT ( 'NONE',  ( 0.000000000000000000, 0.000000000000000000, 0.000000000000000000 ) ) ;
#960 = ORIENTED_EDGE ( 'NONE', *, *, #36, .T. ) ;
#961 = CIRCLE ( 'NONE', #281, 2.249999999999999112 ) ;
#962 = ADVANCED_FACE ( 'NONE', ( #267 ), #689, .T. ) ;
#963 = DIRECTION ( 'NONE',  ( 0.000000000000000000, 1.000000000000000000, 0.000000000000000000 ) ) ;
#964 = CARTESIAN_POINT ( 'NONE',  ( 10.60660171779823635, 0.000000000000000000, -7.356601717798194606 ) ) ;
#965 = VERTEX_POINT ( 'NONE', #755 ) ;
#966 = CONICAL_SURFACE ( 'NONE', #399, 25.00000000000000355, 0.1920480172407306452 ) ;
#967 = FACE_OUTER_BOUND ( 'NONE', #635, .T. ) ;
#968 = EDGE_CURVE ( 'NONE', #437, #685, #836, .T. ) ;
#969 = DIRECTION ( 'NONE',  ( -0.000000000000000000, 1.000000000000000000, -0.000000000000000000 ) ) ;
#970 = DIRECTION ( 'NONE',  ( -0.000000000000000000, 1.000000000000000000, -0.000000000000000000 ) ) ;
#971 = ORIENTED_EDGE ( 'NONE', *, *, #454, .F. ) ;
#972 = DIRECTION ( 'NONE',  ( 0.000000000000000000, 0.000000000000000000, 1.000000000000000000 ) ) ;
#973 = ORIENTED_EDGE ( 'NONE', *, *, #654, .F. ) ;
#974 = AXIS2_PLACEMENT_3D ( 'NONE', #814, #518, #1226 ) ;
#975 = PLANE ( 'NONE',  #856 ) ;
#976 = DIRECTION ( 'NONE',  ( 0.000000000000000000, 0.000000000000000000, -1.000000000000000000 ) ) ;
#977 = EDGE_LOOP ( 'NONE', ( #396, #681, #1159, #343 ) ) ;
#978 = FACE_OUTER_BOUND ( 'NONE', #521, .T. ) ;
#979 = FACE_OUTER_BOUND ( 'NONE', #1171, .T. ) ;
#980 = EDGE_LOOP ( 'NONE', ( #31, #1056, #1086, #1072 ) ) ;
#981 = EDGE_CURVE ( 'NONE', #262, #25, #1140, .T. ) ;
#982 = VECTOR ( 'NONE', #266, 1000.000000000000000 ) ;
#983 = CARTESIAN_POINT ( 'NONE',  ( 10.60660171779819372, -12.00000000000000178, 8.906601717798224627 ) ) ;
#984 = EDGE_LOOP ( 'NONE', ( #124, #708 ) ) ;
#985 = CLOSED_SHELL ( 'NONE', ( #881, #391, #16, #188, #1283, #242, #572, #556, #6, #318, #1025, #59, #795, #780, #744, #293, #333, #1174, #948, #433, #182, #710, #962, #222, #286, #841, #1061, #92, #1234, #933, #158, #250, #384, #1136, #694, #528, #1264, #336, #400, #106, #326, #906, #1144 ) ) ;
#986 = CARTESIAN_POINT ( 'NONE',  ( 10.60660171779819372, -3.400000000000000355, 12.30660171779823386 ) ) ;
#987 = CARTESIAN_POINT ( 'NONE',  ( -10.60660171779822569, 0.000000000000000000, 13.85660171779819017 ) ) ;
#988 = VERTEX_POINT ( 'NONE', #145 ) ;
#989 = EDGE_CURVE ( 'NONE', #1074, #859, #47, .T. ) ;
#990 = CARTESIAN_POINT ( 'NONE',  ( 10.60660171779819372, 0.000000000000000000, 10.60660171779822214 ) ) ;
#991 = DIRECTION ( 'NONE',  ( 0.000000000000000000, 0.000000000000000000, 1.000000000000000000 ) ) ;
#992 = VECTOR ( 'NONE', #162, 1000.000000000000000 ) ;
#993 = CARTESIAN_POINT ( 'NONE',  ( -10.60660171779819372, 0.000000000000000000, -10.60660171779823280 ) ) ;
#994 = EDGE_LOOP ( 'NONE', ( #725, #2, #198, #172 ) ) ;
#995 = EDGE_CURVE ( 'NONE', #310, #1236, #773, .T. ) ;
#996 = COORDINATED_UNIVERSAL_TIME_OFFSET ( 0, 0, .AHEAD. ) ;
#997 = CARTESIAN_POINT ( 'NONE',  ( -10.60660171779822569, -3.400000000000000355, 13.85660171779819017 ) ) ;
#998 = CARTESIAN_POINT ( 'NONE',  ( 10.60660171779823635, 0.000000000000000000, -10.60660171779819017 ) ) ;
#999 = ORIENTED_EDGE ( 'NONE', *, *, #889, .F. ) ;
#1000 = DIRECTION ( 'NONE',  ( 0.000000000000000000, 0.7071067811865487940, 0.7071067811865463515 ) ) ;
#1001 = CIRCLE ( 'NONE', #791, 1.699999999999996625 ) ;
#1002 = AXIS2_PLACEMENT_3D ( 'NONE', #1288, #969, #1268 ) ;
#1003 = PERSON_AND_ORGANIZATION ( #72, #1060 ) ;
#1004 = DIRECTION ( 'NONE',  ( 0.000000000000000000, 0.000000000000000000, -1.000000000000000000 ) ) ;
#1005 = PRODUCT_DEFINITION ( 'UNKNOWN', '', #221, #693 ) ;
#1006 = FACE_BOUND ( 'NONE', #909, .T. ) ;
#1007 = ORIENTED_EDGE ( 'NONE', *, *, #439, .F. ) ;
#1008 = EDGE_LOOP ( 'NONE', ( #844, #328 ) ) ;
#1009 = MECHANICAL_CONTEXT ( 'NONE', #1233, 'mechanical' ) ;
#1010 = CARTESIAN_POINT ( 'NONE',  ( 10.60660171779823635, -3.851859888774471706E-31, -10.60660171779819017 ) ) ;
#1011 = AXIS2_PLACEMENT_3D ( 'NONE', #1201, #332, #427 ) ;
#1012 = EDGE_CURVE ( 'NONE', #25, #262, #752, .T. ) ;
#1013 = FACE_BOUND ( 'NONE', #1167, .T. ) ;
#1014 = ORIENTED_EDGE ( 'NONE', *, *, #683, .F. ) ;
#1015 = DIRECTION ( 'NONE',  ( -0.000000000000000000, 1.000000000000000000, -0.000000000000000000 ) ) ;
#1016 = CIRCLE ( 'NONE', #1247, 20.25000000000000000 ) ;
#1017 = ORIENTED_EDGE ( 'NONE', *, *, #99, .T. ) ;
#1018 = VERTEX_POINT ( 'NONE', #445 ) ;
#1019 = APPROVAL_DATE_TIME ( #331, #388 ) ;
#1020 = FACE_OUTER_BOUND ( 'NONE', #923, .T. ) ;
#1021 = VECTOR ( 'NONE', #1278, 1000.000000000000000 ) ;
#1022 = DIRECTION ( 'NONE',  ( 0.000000000000000000, -0.000000000000000000, -1.000000000000000000 ) ) ;
#1023 = ORIENTED_EDGE ( 'NONE', *, *, #1084, .T. ) ;
#1024 = FACE_OUTER_BOUND ( 'NONE', #135, .T. ) ;
#1025 = ADVANCED_FACE ( 'NONE', ( #846 ), #553, .F. ) ;
#1026 = CYLINDRICAL_SURFACE ( 'NONE', #191, 2.250000000000000444 ) ;
#1027 = EDGE_LOOP ( 'NONE', ( #770, #1034 ) ) ;
#1028 = AXIS2_PLACEMENT_3D ( 'NONE', #84, #383, #560 ) ;
#1029 = CARTESIAN_POINT ( 'NONE',  ( -5.209667455283883993E-14, -8.000000000000000000, 12.75000000000000000 ) ) ;
#1030 = VECTOR ( 'NONE', #1064, 1000.000000000000000 ) ;
#1031 = DIRECTION ( 'NONE',  ( 0.000000000000000000, 0.000000000000000000, 1.000000000000000000 ) ) ;
#1032 = VERTEX_POINT ( 'NONE', #647 ) ;
#1033 = DIRECTION ( 'NONE',  ( -0.000000000000000000, 1.000000000000000000, -0.000000000000000000 ) ) ;
#1034 = ORIENTED_EDGE ( 'NONE', *, *, #704, .F. ) ;
#1035 = APPROVAL_STATUS ( 'not_yet_approved' ) ;
#1036 = EDGE_CURVE ( 'NONE', #965, #886, #254, .T. ) ;
#1037 = FACE_BOUND ( 'NONE', #1027, .T. ) ;
#1038 = AXIS2_PLACEMENT_3D ( 'NONE', #1195, #193, #94 ) ;
#1039 = DIRECTION ( 'NONE',  ( -0.000000000000000000, 1.000000000000000000, -0.000000000000000000 ) ) ;
#1040 = VERTEX_POINT ( 'NONE', #61 ) ;
#1041 = DIRECTION ( 'NONE',  ( -0.000000000000000000, 1.000000000000000000, -0.000000000000000000 ) ) ;
#1042 = VERTEX_POINT ( 'NONE', #455 ) ;
#1043 = CC_DESIGN_APPROVAL ( #43, ( #1005 ) ) ;
#1044 = DIRECTION ( 'NONE',  ( 0.000000000000000000, 1.000000000000000000, 0.000000000000000000 ) ) ;
#1045 = EDGE_CURVE ( 'NONE', #1040, #988, #292, .T. ) ;
#1046 = CARTESIAN_POINT ( 'NONE',  ( 10.60660171779819372, -12.00000000000000178, 10.60660171779822214 ) ) ;
#1047 = FACE_OUTER_BOUND ( 'NONE', #922, .T. ) ;
#1048 = ORIENTED_EDGE ( 'NONE', *, *, #866, .T. ) ;
#1049 = ORIENTED_EDGE ( 'NONE', *, *, #425, .T. ) ;
#1050 = PLANE ( 'NONE',  #733 ) ;
#1051 = DIRECTION ( 'NONE',  ( 0.000000000000000000, 0.000000000000000000, 1.000000000000000000 ) ) ;
#1052 = CIRCLE ( 'NONE', #479, 2.250000000000000444 ) ;
#1053 = AXIS2_PLACEMENT_3D ( 'NONE', #451, #953, #747 ) ;
#1054 = CIRCLE ( 'NONE', #29, 1.700000000000012168 ) ;
#1055 = CARTESIAN_POINT ( 'NONE',  ( 3.000384657911015469E-15, -12.00000000000000178, -24.00000000000000000 ) ) ;
#1056 = ORIENTED_EDGE ( 'NONE', *, *, #591, .F. ) ;
#1057 = EDGE_LOOP ( 'NONE', ( #280, #424, #345, #865 ) ) ;
#1058 = DIRECTION ( 'NONE',  ( -0.000000000000000000, 1.000000000000000000, -0.000000000000000000 ) ) ;
#1059 = CARTESIAN_POINT ( 'NONE',  ( 0.000000000000000000, 2.999999999999999112, 0.000000000000000000 ) ) ;
#1060 = ORGANIZATION ( 'UNSPECIFIED', 'UNSPECIFIED', '' ) ;
#1061 = ADVANCED_FACE ( 'NONE', ( #670 ), #184, .T. ) ;
#1062 = FACE_OUTER_BOUND ( 'NONE', #167, .T. ) ;
#1063 = CC_DESIGN_APPROVAL ( #1088, ( #221 ) ) ;
#1064 = DIRECTION ( 'NONE',  ( -0.000000000000000000, 1.000000000000000000, -0.000000000000000000 ) ) ;
#1065 = ORIENTED_EDGE ( 'NONE', *, *, #1045, .T. ) ;
#1066 = AXIS2_PLACEMENT_3D ( 'NONE', #1232, #732, #600 ) ;
#1067 = CARTESIAN_POINT ( 'NONE',  ( -5.237222008264700033E-14, -8.000000000000000000, 15.00000000000000000 ) ) ;
#1068 = PRODUCT_RELATED_PRODUCT_CATEGORY ( 'detail', '', ( #1070 ) ) ;
#1069 = CARTESIAN_POINT ( 'NONE',  ( -10.60660171779819372, 0.000000000000000000, -7.356601717798236351 ) ) ;
#1070 = PRODUCT ( 'support_plate_horiz', 'support_plate_horiz', '', ( #1009 ) ) ;
#1071 = CARTESIAN_POINT ( 'NONE',  ( 10.60660171779823635, -12.00000000000000178, -10.60660171779819017 ) ) ;
#1072 = ORIENTED_EDGE ( 'NONE', *, *, #170, .T. ) ;
#1073 = CARTESIAN_POINT ( 'NONE',  ( 0.000000000000000000, -12.00000000000000178, 24.00000000000000000 ) ) ;
#1074 = VERTEX_POINT ( 'NONE', #1282 ) ;
#1075 = ORIENTED_EDGE ( 'NONE', *, *, #68, .F. ) ;
#1076 = DIRECTION ( 'NONE',  ( -0.000000000000000000, 1.000000000000000000, -0.000000000000000000 ) ) ;
#1077 = EDGE_CURVE ( 'NONE', #551, #1042, #288, .T. ) ;
#1078 = DIRECTION ( 'NONE',  ( 0.000000000000000000, 1.000000000000000000, 0.000000000000000000 ) ) ;
#1079 = EDGE_LOOP ( 'NONE', ( #494, #314, #835, #78 ) ) ;
#1080 = DIRECTION ( 'NONE',  ( -0.000000000000000000, -1.000000000000000000, -0.000000000000000000 ) ) ;
#1081 = DIRECTION ( 'NONE',  ( 0.000000000000000000, 1.000000000000000000, 0.000000000000000000 ) ) ;
#1082 = CARTESIAN_POINT ( 'NONE',  ( -10.60660171779819372, -3.400000000000000355, -10.60660171779823280 ) ) ;
#1083 = ORIENTED_EDGE ( 'NONE', *, *, #1077, .F. ) ;
#1084 = EDGE_CURVE ( 'NONE', #1177, #988, #263, .T. ) ;
#1085 = CARTESIAN_POINT ( 'NONE',  ( 1.571166602479409884E-13, -8.000000000000000000, -15.00000000000000178 ) ) ;
#1086 = ORIENTED_EDGE ( 'NONE', *, *, #1077, .T. ) ;
#1087 = LINE ( 'NONE', #485, #640 ) ;
#1088 = APPROVAL ( #594, 'UNSPECIFIED' ) ;
#1089 = VECTOR ( 'NONE', #155, 1000.000000000000000 ) ;
#1090 = AXIS2_PLACEMENT_3D ( 'NONE', #641, #1041, #849 ) ;
#1091 = EDGE_CURVE ( 'NONE', #1193, #1286, #1054, .T. ) ;
#1092 = PLANE ( 'NONE',  #1276 ) ;
#1093 = ORIENTED_EDGE ( 'NONE', *, *, #265, .F. ) ;
#1094 = AXIS2_PLACEMENT_3D ( 'NONE', #1071, #520, #139 ) ;
#1095 = CIRCLE ( 'NONE', #523, 25.00000000000000355 ) ;
#1096 = DATE_AND_TIME ( #690, #57 ) ;
#1097 = CARTESIAN_POINT ( 'NONE',  ( 0.000000000000000000, -12.00000000000000178, 0.000000000000000000 ) ) ;
#1098 = LINE ( 'NONE', #412, #1192 ) ;
#1099 = EDGE_LOOP ( 'NONE', ( #1075, #709, #578, #132 ) ) ;
#1100 = EDGE_CURVE ( 'NONE', #276, #366, #117, .T. ) ;
#1101 = DIRECTION ( 'NONE',  ( -0.000000000000000000, 1.000000000000000000, -0.000000000000000000 ) ) ;
#1102 = DIRECTION ( 'NONE',  ( 0.000000000000000000, 0.000000000000000000, 1.000000000000000000 ) ) ;
#1103 = CYLINDRICAL_SURFACE ( 'NONE', #657, 1.700000000000005285 ) ;
#1104 = CC_DESIGN_APPROVAL ( #388, ( #723 ) ) ;
#1105 = DIRECTION ( 'NONE',  ( 0.000000000000000000, 1.000000000000000000, 0.000000000000000000 ) ) ;
#1106 = EDGE_LOOP ( 'NONE', ( #971, #111, #147, #82 ) ) ;
#1107 = ORIENTED_EDGE ( 'NONE', *, *, #1253, .T. ) ;
#1108 = CC_DESIGN_PERSON_AND_ORGANIZATION_ASSIGNMENT ( #248, #726, ( #221 ) ) ;
#1109 = DIRECTION ( 'NONE',  ( -0.000000000000000000, 1.000000000000000000, -0.000000000000000000 ) ) ;
#1110 = LINE ( 'NONE', #604, #3 ) ;
#1111 = ORIENTED_EDGE ( 'NONE', *, *, #51, .T. ) ;
#1112 = ORIENTED_EDGE ( 'NONE', *, *, #490, .F. ) ;
#1113 = ORIENTED_EDGE ( 'NONE', *, *, #536, .T. ) ;
#1114 = AXIS2_PLACEMENT_3D ( 'NONE', #1240, #864, #817 ) ;
#1115 = CARTESIAN_POINT ( 'NONE',  ( 15.00000000000000000, 0.000000000000000000, 0.000000000000000000 ) ) ;
#1116 = CARTESIAN_POINT ( 'NONE',  ( -10.60660171779819372, 0.000000000000000000, -8.906601717798226403 ) ) ;
#1117 = EDGE_CURVE ( 'NONE', #914, #508, #634, .T. ) ;
#1118 = PLANE ( 'NONE',  #110 ) ;
#1119 = ORIENTED_EDGE ( 'NONE', *, *, #1012, .T. ) ;
#1120 = CARTESIAN_POINT ( 'NONE',  ( -10.60660171779819372, 0.000000000000000000, -10.60660171779823280 ) ) ;
#1121 = ORIENTED_EDGE ( 'NONE', *, *, #758, .T. ) ;
#1122 = APPROVAL_ROLE ( '' ) ;
#1123 = DIRECTION ( 'NONE',  ( 0.000000000000000000, 1.000000000000000000, 0.000000000000000000 ) ) ;
#1124 = EDGE_CURVE ( 'NONE', #499, #1203, #209, .T. ) ;
#1125 = FACE_OUTER_BOUND ( 'NONE', #1215, .T. ) ;
#1126 = ORIENTED_EDGE ( 'NONE', *, *, #1117, .F. ) ;
#1127 = DIRECTION ( 'NONE',  ( 0.000000000000000000, 0.000000000000000000, 1.000000000000000000 ) ) ;
#1128 = VECTOR ( 'NONE', #869, 1000.000000000000000 ) ;
#1129 = CARTESIAN_POINT ( 'NONE',  ( 15.00000000000000000, -8.000000000000000000, 0.000000000000000000 ) ) ;
#1130 = EDGE_LOOP ( 'NONE', ( #367, #468, #1107, #1014 ) ) ;
#1131 = APPROVAL_ROLE ( '' ) ;
#1132 = CARTESIAN_POINT ( 'NONE',  ( -10.60660171779822569, -3.400000000000000355, 10.60660171779819372 ) ) ;
#1133 = CC_DESIGN_PERSON_AND_ORGANIZATION_ASSIGNMENT ( #1003, #510, ( #1070 ) ) ;
#1134 = LINE ( 'NONE', #630, #243 ) ;
#1135 = ORIENTED_EDGE ( 'NONE', *, *, #83, .T. ) ;
#1136 = ADVANCED_FACE ( 'NONE', ( #1024 ), #1151, .F. ) ;
#1137 = DIRECTION ( 'NONE',  ( 0.000000000000000000, 0.000000000000000000, 1.000000000000000000 ) ) ;
#1138 = VERTEX_POINT ( 'NONE', #548 ) ;
#1139 = CARTESIAN_POINT ( 'NONE',  ( 1.573922057777491235E-13, -8.000000000000000000, -17.25000000000000000 ) ) ;
#1140 = CIRCLE ( 'NONE', #1239, 2.249999999999999112 ) ;
#1141 = LINE ( 'NONE', #69, #444 ) ;
#1142 = ORIENTED_EDGE ( 'NONE', *, *, #114, .T. ) ;
#1143 = CARTESIAN_POINT ( 'NONE',  ( 10.60660171779823635, -3.851859888774471706E-31, -7.356601717798194606 ) ) ;
#1144 = ADVANCED_FACE ( 'NONE', ( #915 ), #125, .F. ) ;
#1145 = SHAPE_DEFINITION_REPRESENTATION ( #833, #593 ) ;
#1146 = LINE ( 'NONE', #450, #1030 ) ;
#1147 = CARTESIAN_POINT ( 'NONE',  ( 0.000000000000000000, 2.999999999999999112, 0.000000000000000000 ) ) ;
#1148 = FACE_OUTER_BOUND ( 'NONE', #1079, .T. ) ;
#1149 = APPROVAL_DATE_TIME ( #496, #1088 ) ;
#1150 = DIRECTION ( 'NONE',  ( -0.000000000000000000, 1.000000000000000000, -0.000000000000000000 ) ) ;
#1151 = CYLINDRICAL_SURFACE ( 'NONE', #340, 3.249999999999996003 ) ;
#1152 = DIRECTION ( 'NONE',  ( 0.000000000000000000, 0.000000000000000000, 1.000000000000000000 ) ) ;
#1153 = CARTESIAN_POINT ( 'NONE',  ( 15.00000000000000000, -8.000000000000000000, 0.000000000000000000 ) ) ;
#1154 = DIRECTION ( 'NONE',  ( -0.000000000000000000, 1.000000000000000000, -0.000000000000000000 ) ) ;
#1155 = EDGE_CURVE ( 'NONE', #407, #678, #1016, .T. ) ;
#1156 = AXIS2_PLACEMENT_3D ( 'NONE', #667, #567, #470 ) ;
#1157 = LINE ( 'NONE', #834, #862 ) ;
#1158 = DIRECTION ( 'NONE',  ( 0.000000000000000000, 0.000000000000000000, 1.000000000000000000 ) ) ;
#1159 = ORIENTED_EDGE ( 'NONE', *, *, #968, .T. ) ;
#1160 = DIRECTION ( 'NONE',  ( 0.000000000000000000, 0.000000000000000000, 1.000000000000000000 ) ) ;
#1161 = EDGE_CURVE ( 'NONE', #284, #413, #414, .T. ) ;
#1162 = CIRCLE ( 'NONE', #346, 3.249999999999996003 ) ;
#1163 = DIRECTION ( 'NONE',  ( 0.000000000000000000, 0.000000000000000000, 1.000000000000000000 ) ) ;
#1164 = ORIENTED_EDGE ( 'NONE', *, *, #360, .F. ) ;
#1165 = CARTESIAN_POINT ( 'NONE',  ( -10.60660171779819372, -3.400000000000000355, -13.85660171779822925 ) ) ;
#1166 = CARTESIAN_POINT ( 'NONE',  ( 1.571166602479409884E-13, -8.000000000000000000, -15.00000000000000178 ) ) ;
#1167 = EDGE_LOOP ( 'NONE', ( #1164, #320 ) ) ;
#1168 = FACE_OUTER_BOUND ( 'NONE', #210, .T. ) ;
#1169 = EDGE_CURVE ( 'NONE', #627, #481, #592, .T. ) ;
#1170 = CARTESIAN_POINT ( 'NONE',  ( 15.00000000000000000, -8.000000000000000000, 2.249999999999999112 ) ) ;
#1171 = EDGE_LOOP ( 'NONE', ( #109, #1121 ) ) ;
#1172 = FACE_OUTER_BOUND ( 'NONE', #715, .T. ) ;
#1173 = ORIENTED_EDGE ( 'NONE', *, *, #625, .F. ) ;
#1174 = ADVANCED_FACE ( 'NONE', ( #554 ), #457, .F. ) ;
#1175 = CARTESIAN_POINT ( 'NONE',  ( -5.237222008264700033E-14, -8.000000000000000000, 15.00000000000000000 ) ) ;
#1176 = LINE ( 'NONE', #1170, #1199 ) ;
#1177 = VERTEX_POINT ( 'NONE', #958 ) ;
#1178 = CIRCLE ( 'NONE', #656, 2.249999999999997780 ) ;
#1179 = CARTESIAN_POINT ( 'NONE',  ( 10.60660171779819372, -3.400000000000000355, 10.60660171779822214 ) ) ;
#1180 = VERTEX_POINT ( 'NONE', #55 ) ;
#1181 = AXIS2_PLACEMENT_3D ( 'NONE', #492, #876, #272 ) ;
#1182 = LOCAL_TIME ( 10, 21, 6.000000000000000000, #484 ) ;
#1183 = DIRECTION ( 'NONE',  ( 0.000000000000000000, 1.000000000000000000, 0.000000000000000000 ) ) ;
#1184 = EDGE_CURVE ( 'NONE', #103, #1032, #509, .T. ) ;
#1185 = FACE_BOUND ( 'NONE', #196, .T. ) ;
#1186 = ORIENTED_EDGE ( 'NONE', *, *, #1169, .F. ) ;
#1187 = CARTESIAN_POINT ( 'NONE',  ( 2.954460402942990182E-15, 2.999999999999999112, 23.25000000000000000 ) ) ;
#1188 = EDGE_CURVE ( 'NONE', #165, #1138, #80, .T. ) ;
#1189 = AXIS2_PLACEMENT_3D ( 'NONE', #376, #580, #1163 ) ;
#1190 = DIRECTION ( 'NONE',  ( 0.000000000000000000, -0.000000000000000000, -1.000000000000000000 ) ) ;
#1191 = ORIENTED_EDGE ( 'NONE', *, *, #136, .T. ) ;
#1192 = VECTOR ( 'NONE', #801, 1000.000000000000000 ) ;
#1193 = VERTEX_POINT ( 'NONE', #661 ) ;
#1194 = CARTESIAN_POINT ( 'NONE',  ( 10.60660171779819372, 0.000000000000000000, 10.60660171779822214 ) ) ;
#1195 = CARTESIAN_POINT ( 'NONE',  ( 0.000000000000000000, -10.99999999999999822, 0.000000000000000000 ) ) ;
#1196 = FACE_OUTER_BOUND ( 'NONE', #606, .T. ) ;
#1197 = ORIENTED_EDGE ( 'NONE', *, *, #728, .F. ) ;
#1198 = DIRECTION ( 'NONE',  ( 0.000000000000000000, 0.000000000000000000, 1.000000000000000000 ) ) ;
#1199 = VECTOR ( 'NONE', #699, 1000.000000000000000 ) ;
#1200 = DIRECTION ( 'NONE',  ( 0.000000000000000000, 0.000000000000000000, 1.000000000000000000 ) ) ;
#1201 = CARTESIAN_POINT ( 'NONE',  ( 10.60660171779819372, -3.400000000000000355, 10.60660171779822214 ) ) ;
#1202 = DIRECTION ( 'NONE',  ( 0.000000000000000000, 0.000000000000000000, -1.000000000000000000 ) ) ;
#1203 = VERTEX_POINT ( 'NONE', #810 ) ;
#1204 = ORIENTED_EDGE ( 'NONE', *, *, #649, .T. ) ;
#1205 = AXIS2_PLACEMENT_3D ( 'NONE', #317, #1123, #205 ) ;
#1206 = EDGE_CURVE ( 'NONE', #481, #627, #618, .T. ) ;
#1207 = CYLINDRICAL_SURFACE ( 'NONE', #952, 3.249999999999996003 ) ;
#1208 = DIRECTION ( 'NONE',  ( 0.000000000000000000, 0.000000000000000000, 1.000000000000000000 ) ) ;
#1209 = FACE_OUTER_BOUND ( 'NONE', #224, .T. ) ;
#1210 = VECTOR ( 'NONE', #1058, 1000.000000000000000 ) ;
#1211 = ORIENTED_EDGE ( 'NONE', *, *, #1206, .T. ) ;
#1212 = CARTESIAN_POINT ( 'NONE',  ( -10.60660171779822569, -3.400000000000000355, 10.60660171779819372 ) ) ;
#1213 = AXIS2_PLACEMENT_3D ( 'NONE', #240, #931, #52 ) ;
#1214 = VERTEX_POINT ( 'NONE', #311 ) ;
#1215 = EDGE_LOOP ( 'NONE', ( #322, #456 ) ) ;
#1216 = AXIS2_PLACEMENT_3D ( 'NONE', #959, #1080, #767 ) ;
#1217 = VECTOR ( 'NONE', #268, 1000.000000000000000 ) ;
#1218 = EDGE_CURVE ( 'NONE', #1203, #666, #716, .T. ) ;
#1219 = CARTESIAN_POINT ( 'NONE',  ( 0.000000000000000000, -12.00000000000000178, 0.000000000000000000 ) ) ;
#1220 = VECTOR ( 'NONE', #614, 1000.000000000000000 ) ;
#1221 = DIRECTION ( 'NONE',  ( 0.000000000000000000, 0.000000000000000000, 1.000000000000000000 ) ) ;
#1222 = VERTEX_POINT ( 'NONE', #522 ) ;
#1223 = CARTESIAN_POINT ( 'NONE',  ( -10.60660171779822569, -12.00000000000000178, 10.60660171779819372 ) ) ;
#1224 = ORIENTED_EDGE ( 'NONE', *, *, #483, .F. ) ;
#1225 = ORIENTED_EDGE ( 'NONE', *, *, #758, .F. ) ;
#1226 = DIRECTION ( 'NONE',  ( 0.000000000000000000, 0.000000000000000000, 1.000000000000000000 ) ) ;
#1227 = EDGE_CURVE ( 'NONE', #407, #965, #564, .T. ) ;
#1228 = DIRECTION ( 'NONE',  ( -0.000000000000000000, 1.000000000000000000, -0.000000000000000000 ) ) ;
#1229 = VERTEX_POINT ( 'NONE', #373 ) ;
#1230 = CARTESIAN_POINT ( 'NONE',  ( -5.237222008264700033E-14, -8.000000000000000000, 15.00000000000000000 ) ) ;
#1231 = EDGE_LOOP ( 'NONE', ( #1142, #1111, #721, #1275 ) ) ;
#1232 = CARTESIAN_POINT ( 'NONE',  ( -10.60660171779819372, -12.00000000000000178, -10.60660171779823280 ) ) ;
#1233 = APPLICATION_CONTEXT ( 'configuration controlled 3d designs of mechanical parts and assemblies' ) ;
#1234 = ADVANCED_FACE ( 'NONE', ( #671 ), #975, .T. ) ;
#1235 = CYLINDRICAL_SURFACE ( 'NONE', #405, 3.249999999999996003 ) ;
#1236 = VERTEX_POINT ( 'NONE', #179 ) ;
#1237 = DIRECTION ( 'NONE',  ( -0.000000000000000000, -1.000000000000000000, -0.000000000000000000 ) ) ;
#1238 = CARTESIAN_POINT ( 'NONE',  ( 10.60660171779819372, 0.000000000000000000, 12.30660171779822676 ) ) ;
#1239 = AXIS2_PLACEMENT_3D ( 'NONE', #857, #963, #256 ) ;
#1240 = CARTESIAN_POINT ( 'NONE',  ( 10.60660171779823635, -3.400000000000000355, -10.60660171779819017 ) ) ;
#1241 = CYLINDRICAL_SURFACE ( 'NONE', #878, 25.00000000000000000 ) ;
#1242 = CALENDAR_DATE ( 2025, 17, 12 ) ;
#1243 = FACE_OUTER_BOUND ( 'NONE', #421, .T. ) ;
#1244 = CARTESIAN_POINT ( 'NONE',  ( 10.60660171779823635, 0.000000000000000000, -12.30660171779819656 ) ) ;
#1245 = DIRECTION ( 'NONE',  ( 0.000000000000000000, 0.000000000000000000, -1.000000000000000000 ) ) ;
#1246 = ORIENTED_EDGE ( 'NONE', *, *, #872, .T. ) ;
#1247 = AXIS2_PLACEMENT_3D ( 'NONE', #1059, #514, #648 ) ;
#1248 = EDGE_CURVE ( 'NONE', #605, #375, #884, .T. ) ;
#1249 = DIRECTION ( 'NONE',  ( -0.000000000000000000, -1.000000000000000000, -0.000000000000000000 ) ) ;
#1250 = DIRECTION ( 'NONE',  ( -0.000000000000000000, 1.000000000000000000, -0.000000000000000000 ) ) ;
#1251 = CARTESIAN_POINT ( 'NONE',  ( -5.237222008264700033E-14, -8.000000000000000000, 15.00000000000000000 ) ) ;
#1252 = DIRECTION ( 'NONE',  ( 0.000000000000000000, -0.000000000000000000, -1.000000000000000000 ) ) ;
#1253 = EDGE_CURVE ( 'NONE', #305, #53, #961, .T. ) ;
#1254 = AXIS2_PLACEMENT_3D ( 'NONE', #1085, #168, #972 ) ;
#1255 = ORIENTED_EDGE ( 'NONE', *, *, #1161, .T. ) ;
#1256 = DIRECTION ( 'NONE',  ( -0.000000000000000000, -1.000000000000000000, -0.000000000000000000 ) ) ;
#1257 = CIRCLE ( 'NONE', #692, 25.00000000000000000 ) ;
#1258 = ORIENTED_EDGE ( 'NONE', *, *, #563, .T. ) ;
#1259 = DIRECTION ( 'NONE',  ( 0.000000000000000000, -0.000000000000000000, 1.000000000000000000 ) ) ;
#1260 = ORIENTED_EDGE ( 'NONE', *, *, #344, .F. ) ;
#1261 = CARTESIAN_POINT ( 'NONE',  ( 1.573922057777491235E-13, -8.000000000000000000, -17.25000000000000000 ) ) ;
#1262 = CARTESIAN_POINT ( 'NONE',  ( 1.571166602479409884E-13, 0.000000000000000000, -15.00000000000000178 ) ) ;
#1263 = VERTEX_POINT ( 'NONE', #121 ) ;
#1264 = ADVANCED_FACE ( 'NONE', ( #192 ), #1207, .F. ) ;
#1265 = DIRECTION ( 'NONE',  ( 0.000000000000000000, 1.000000000000000000, 0.000000000000000000 ) ) ;
#1266 = ORIENTED_EDGE ( 'NONE', *, *, #1188, .T. ) ;
#1267 = AXIS2_PLACEMENT_3D ( 'NONE', #1120, #1015, #258 ) ;
#1268 = DIRECTION ( 'NONE',  ( 0.000000000000000000, 0.000000000000000000, 1.000000000000000000 ) ) ;
#1269 = FACE_BOUND ( 'NONE', #804, .T. ) ;
#1270 = EDGE_LOOP ( 'NONE', ( #908, #1173 ) ) ;
#1271 = UNCERTAINTY_MEASURE_WITH_UNIT (LENGTH_MEASURE( 1.000000000000000082E-05 ), #813, 'distance_accuracy_value', 'NONE');
#1272 = EDGE_CURVE ( 'NONE', #413, #1180, #1178, .T. ) ;
#1273 = CYLINDRICAL_SURFACE ( 'NONE', #291, 1.700000000000005285 ) ;
#1274 = DIRECTION ( 'NONE',  ( 0.000000000000000000, 0.000000000000000000, -1.000000000000000000 ) ) ;
#1275 = ORIENTED_EDGE ( 'NONE', *, *, #803, .F. ) ;
#1276 = AXIS2_PLACEMENT_3D ( 'NONE', #108, #95, #1190 ) ;
#1277 = CARTESIAN_POINT ( 'NONE',  ( 15.00000000000000000, -8.000000000000000000, -2.249999999999999112 ) ) ;
#1278 = DIRECTION ( 'NONE',  ( -0.000000000000000000, 1.000000000000000000, -0.000000000000000000 ) ) ;
#1279 = DIRECTION ( 'NONE',  ( 0.000000000000000000, 0.000000000000000000, 1.000000000000000000 ) ) ;
#1280 =( GEOMETRIC_REPRESENTATION_CONTEXT ( 3 ) GLOBAL_UNCERTAINTY_ASSIGNED_CONTEXT ( ( #1271 ) ) GLOBAL_UNIT_ASSIGNED_CONTEXT ( ( #813, #418, #316 ) ) REPRESENTATION_CONTEXT ( 'NONE', 'WORKASPACE' ) );
#1281 = CARTESIAN_POINT ( 'NONE',  ( -10.60660171779819372, 0.000000000000000000, -13.85660171779822925 ) ) ;
#1282 = CARTESIAN_POINT ( 'NONE',  ( -10.60660171779819372, -3.400000000000000355, -8.906601717798221074 ) ) ;
#1283 = ADVANCED_FACE ( 'NONE', ( #916 ), #20, .F. ) ;
#1284 = CARTESIAN_POINT ( 'NONE',  ( 0.000000000000000000, 2.999999999999999112, -20.25000000000000000 ) ) ;
#1285 = DIRECTION ( 'NONE',  ( -0.000000000000000000, 1.000000000000000000, -0.000000000000000000 ) ) ;
#1286 = VERTEX_POINT ( 'NONE', #599 ) ;
#1287 = FACE_OUTER_BOUND ( 'NONE', #994, .T. ) ;
#1288 = CARTESIAN_POINT ( 'NONE',  ( 10.60660171779823635, -3.400000000000000355, -10.60660171779819017 ) ) ;
#1289 = DIRECTION ( 'NONE',  ( -0.000000000000000000, 1.000000000000000000, -0.000000000000000000 ) ) ;
#1290 = CARTESIAN_POINT ( 'NONE',  ( 0.000000000000000000, 2.999999999999999112, 0.000000000000000000 ) ) ;
#1291 = CC_DESIGN_DATE_AND_TIME_ASSIGNMENT ( #646, #129, ( #723 ) ) ;
ENDSEC;
END-ISO-10303-21;
