ISO-10303-21;
HEADER;
FILE_DESCRIPTION (( 'STEP AP203' ),
    '1' );
FILE_NAME ('wedge.STEP',
    '2025-12-17T10:20:48',
    ( '' ),
    ( '' ),
    'SwSTEP 2.0',
    'SolidWorks 2025',
    '' );
FILE_SCHEMA (( 'CONFIG_CONTROL_DESIGN' ));
ENDSEC;

DATA;
#1 = DIRECTION ( 'NONE',  ( 2.115959713407138631E-32, -1.727812227068533030E-16, 1.000000000000000000 ) ) ;
#2 = AXIS2_PLACEMENT_3D ( 'NONE', #857, #695, #948 ) ;
#3 = DIRECTION ( 'NONE',  ( -1.224646799147353207E-16, 1.000000000000000000, 1.561251128379126631E-16 ) ) ;
#4 = EDGE_LOOP ( 'NONE', ( #1102, #280, #104, #556 ) ) ;
#5 = PERSON_AND_ORGANIZATION ( #381, #678 ) ;
#6 = DIRECTION ( 'NONE',  ( 1.000000000000000000, 0.000000000000000000, 0.000000000000000000 ) ) ;
#7 = DIRECTION ( 'NONE',  ( 0.000000000000000000, 0.000000000000000000, 1.000000000000000000 ) ) ;
#8 = FACE_OUTER_BOUND ( 'NONE', #16, .T. ) ;
#9 = EDGE_LOOP ( 'NONE', ( #75, #809 ) ) ;
#10 = DATE_AND_TIME ( #492, #527 ) ;
#11 = CARTESIAN_POINT ( 'NONE',  ( 31.68375672974069346, -10.00000000000000533, 12.50000000000000178 ) ) ;
#12 = FACE_OUTER_BOUND ( 'NONE', #1075, .T. ) ;
#13 = DIRECTION ( 'NONE',  ( -0.000000000000000000, -0.000000000000000000, -1.000000000000000000 ) ) ;
#14 = ORIENTED_EDGE ( 'NONE', *, *, #24, .F. ) ;
#15 = VECTOR ( 'NONE', #388, 1000.000000000000000 ) ;
#16 = EDGE_LOOP ( 'NONE', ( #480, #153 ) ) ;
#17 = EDGE_CURVE ( 'NONE', #323, #473, #162, .T. ) ;
#18 = DIRECTION ( 'NONE',  ( 1.000000000000000000, -0.000000000000000000, -0.000000000000000000 ) ) ;
#19 = DIRECTION ( 'NONE',  ( 0.000000000000000000, 0.000000000000000000, -1.000000000000000000 ) ) ;
#20 = ORIENTED_EDGE ( 'NONE', *, *, #712, .T. ) ;
#21 = DIRECTION ( 'NONE',  ( 1.000000000000000000, -0.000000000000000000, -0.000000000000000000 ) ) ;
#22 = AXIS2_PLACEMENT_3D ( 'NONE', #406, #1031, #1008 ) ;
#23 = PLANE ( 'NONE',  #537 ) ;
#24 = EDGE_CURVE ( 'NONE', #995, #190, #185, .T. ) ;
#25 = CARTESIAN_POINT ( 'NONE',  ( 0.000000000000000000, -20.00000000000000000, 59.00000000000000000 ) ) ;
#26 = ORIENTED_EDGE ( 'NONE', *, *, #333, .F. ) ;
#27 = DIRECTION ( 'NONE',  ( 1.224646799147353207E-16, -1.000000000000000000, -1.561251128379126631E-16 ) ) ;
#28 = AXIS2_PLACEMENT_3D ( 'NONE', #264, #607, #519 ) ;
#29 = CC_DESIGN_DATE_AND_TIME_ASSIGNMENT ( #945, #242, ( #745 ) ) ;
#30 = EDGE_CURVE ( 'NONE', #404, #393, #426, .T. ) ;
#31 = DIRECTION ( 'NONE',  ( 0.000000000000000000, 0.000000000000000000, -1.000000000000000000 ) ) ;
#32 = ORIENTED_EDGE ( 'NONE', *, *, #621, .T. ) ;
#33 = DIRECTION ( 'NONE',  ( -1.224646799147353207E-16, 1.000000000000000000, 1.561251128379126631E-16 ) ) ;
#34 = CARTESIAN_POINT ( 'NONE',  ( 25.36751345948136560, 35.00000000000000711, 30.00000000000000355 ) ) ;
#35 = ORIENTED_EDGE ( 'NONE', *, *, #349, .F. ) ;
#36 = EDGE_CURVE ( 'NONE', #871, #352, #116, .T. ) ;
#37 = FACE_OUTER_BOUND ( 'NONE', #1010, .T. ) ;
#38 = VECTOR ( 'NONE', #77, 1000.000000000000114 ) ;
#39 = VECTOR ( 'NONE', #808, 1000.000000000000000 ) ;
#40 = CARTESIAN_POINT ( 'NONE',  ( 36.36751345948136560, -20.00000000000000000, 60.00000000000000000 ) ) ;
#41 = ORIENTED_EDGE ( 'NONE', *, *, #1089, .T. ) ;
#42 = LINE ( 'NONE', #111, #786 ) ;
#43 = AXIS2_PLACEMENT_3D ( 'NONE', #198, #353, #797 ) ;
#44 = DIRECTION ( 'NONE',  ( 0.000000000000000000, 0.000000000000000000, 1.000000000000000000 ) ) ;
#45 = ORIENTED_EDGE ( 'NONE', *, *, #61, .F. ) ;
#46 = CARTESIAN_POINT ( 'NONE',  ( 2.449293598294706513E-15, -20.00000000000000000, 55.10000000000000853 ) ) ;
#47 = VERTEX_POINT ( 'NONE', #614 ) ;
#48 = CALENDAR_DATE ( 2025, 17, 12 ) ;
#49 = VERTEX_POINT ( 'NONE', #101 ) ;
#50 = DIRECTION ( 'NONE',  ( 0.5000000000000009992, 0.8660254037844380415, 0.000000000000000000 ) ) ;
#51 = EDGE_LOOP ( 'NONE', ( #958, #1022 ) ) ;
#52 = AXIS2_PLACEMENT_3D ( 'NONE', #71, #729, #44 ) ;
#53 = ADVANCED_FACE ( 'NONE', ( #248 ), #160, .T. ) ;
#54 = AXIS2_PLACEMENT_3D ( 'NONE', #937, #923, #766 ) ;
#55 = ORIENTED_EDGE ( 'NONE', *, *, #400, .F. ) ;
#56 = LINE ( 'NONE', #1101, #503 ) ;
#57 = VERTEX_POINT ( 'NONE', #688 ) ;
#58 = LINE ( 'NONE', #481, #15 ) ;
#59 = FACE_OUTER_BOUND ( 'NONE', #975, .T. ) ;
#60 = CIRCLE ( 'NONE', #28, 2.250000000000001776 ) ;
#61 = EDGE_CURVE ( 'NONE', #457, #143, #765, .T. ) ;
#62 = CARTESIAN_POINT ( 'NONE',  ( 28.86751345948136560, 50.00000000000000000, 1.000000000000000888 ) ) ;
#63 = ORIENTED_EDGE ( 'NONE', *, *, #636, .T. ) ;
#64 = CC_DESIGN_APPROVAL ( #798, ( #745 ) ) ;
#65 = PLANE ( 'NONE',  #54 ) ;
#66 = DIRECTION ( 'NONE',  ( 0.000000000000000000, 0.000000000000000000, 1.000000000000000000 ) ) ;
#67 = FACE_OUTER_BOUND ( 'NONE', #648, .T. ) ;
#68 = EDGE_CURVE ( 'NONE', #980, #367, #779, .T. ) ;
#69 = ORIENTED_EDGE ( 'NONE', *, *, #373, .F. ) ;
#70 = DIRECTION ( 'NONE',  ( 0.000000000000000000, 0.000000000000000000, -1.000000000000000000 ) ) ;
#71 = CARTESIAN_POINT ( 'NONE',  ( 31.68375672974069346, -20.00000000000001066, 47.50000000000000711 ) ) ;
#72 = CIRCLE ( 'NONE', #834, 2.250000000000001776 ) ;
#73 = FACE_OUTER_BOUND ( 'NONE', #685, .T. ) ;
#74 = ORIENTED_EDGE ( 'NONE', *, *, #379, .T. ) ;
#75 = ORIENTED_EDGE ( 'NONE', *, *, #135, .F. ) ;
#76 = DIRECTION ( 'NONE',  ( 1.224646799147353207E-16, -1.000000000000000000, 0.000000000000000000 ) ) ;
#77 = DIRECTION ( 'NONE',  ( -0.5000000000000009992, -0.8660254037844380415, -2.347366560526810216E-18 ) ) ;
#78 = CIRCLE ( 'NONE', #501, 2.250000000000001776 ) ;
#79 = DIRECTION ( 'NONE',  ( 1.224646799147353207E-16, -1.000000000000000000, -1.561251128379126631E-16 ) ) ;
#80 = VERTEX_POINT ( 'NONE', #1038 ) ;
#81 = APPROVAL_ROLE ( '' ) ;
#82 = DIRECTION ( 'NONE',  ( 0.000000000000000000, 1.927470528863117569E-16, -1.000000000000000000 ) ) ;
#83 = CARTESIAN_POINT ( 'NONE',  ( 25.36751345948136560, 20.00000000000000711, 17.25000000000000000 ) ) ;
#84 = LINE ( 'NONE', #403, #649 ) ;
#85 = ORIENTED_EDGE ( 'NONE', *, *, #698, .F. ) ;
#86 = CARTESIAN_POINT ( 'NONE',  ( 4.683756729740692570, -2.000000000000015543, 47.50000000000000711 ) ) ;
#87 = CARTESIAN_POINT ( 'NONE',  ( 31.68375672974069346, -20.00000000000000355, 10.24999999999999822 ) ) ;
#88 = EDGE_CURVE ( 'NONE', #859, #562, #60, .T. ) ;
#89 = AXIS2_PLACEMENT_3D ( 'NONE', #961, #679, #176 ) ;
#90 = DIRECTION ( 'NONE',  ( 1.000000000000000000, -0.000000000000000000, -0.000000000000000000 ) ) ;
#91 = ORIENTED_EDGE ( 'NONE', *, *, #539, .T. ) ;
#92 = COORDINATED_UNIVERSAL_TIME_OFFSET ( 0, 0, .AHEAD. ) ;
#93 = DIRECTION ( 'NONE',  ( 1.000000000000000000, 0.000000000000000000, 0.000000000000000000 ) ) ;
#94 = CARTESIAN_POINT ( 'NONE',  ( 4.683756729740692570, -10.00000000000000888, 10.25000000000000000 ) ) ;
#95 = APPROVAL ( #950, 'UNSPECIFIED' ) ;
#96 = CARTESIAN_POINT ( 'NONE',  ( 28.86751345948136560, 50.00000000000000000, 60.00000000000000000 ) ) ;
#97 = EDGE_LOOP ( 'NONE', ( #837, #1080, #762, #269 ) ) ;
#98 = APPROVAL_DATE_TIME ( #10, #140 ) ;
#99 = EDGE_CURVE ( 'NONE', #457, #925, #418, .T. ) ;
#100 = AXIS2_PLACEMENT_3D ( 'NONE', #965, #601, #180 ) ;
#101 = CARTESIAN_POINT ( 'NONE',  ( 33.36751345948136560, 20.00000000000001066, 55.25000000000000000 ) ) ;
#102 = FACE_OUTER_BOUND ( 'NONE', #300, .T. ) ;
#103 = CARTESIAN_POINT ( 'NONE',  ( 36.36751345948136560, -20.00000000000000000, 55.10000000000000853 ) ) ;
#104 = ORIENTED_EDGE ( 'NONE', *, *, #458, .T. ) ;
#105 = EDGE_CURVE ( 'NONE', #626, #1000, #936, .T. ) ;
#106 = CARTESIAN_POINT ( 'NONE',  ( 2.449293598294706513E-15, -20.00000000000000000, 60.00000000000000000 ) ) ;
#107 = DIRECTION ( 'NONE',  ( 1.224646799147353454E-16, -1.000000000000000000, -1.727812227068533030E-16 ) ) ;
#108 = CIRCLE ( 'NONE', #194, 25.25000000000000000 ) ;
#109 = CARTESIAN_POINT ( 'NONE',  ( 25.36751345948136560, 20.00000000000000355, 47.25000000000000000 ) ) ;
#110 = VERTEX_POINT ( 'NONE', #324 ) ;
#111 = CARTESIAN_POINT ( 'NONE',  ( 36.36751345948136560, -10.00000000000000355, 4.899999999999997691 ) ) ;
#112 = PRODUCT_RELATED_PRODUCT_CATEGORY ( 'detail', '', ( #1103 ) ) ;
#113 = CARTESIAN_POINT ( 'NONE',  ( 4.683756729740694347, -20.00000000000001421, 47.50000000000000711 ) ) ;
#114 = VERTEX_POINT ( 'NONE', #405 ) ;
#115 = CARTESIAN_POINT ( 'NONE',  ( 4.683756729740694347, -20.00000000000001421, 49.75000000000000711 ) ) ;
#116 = CIRCLE ( 'NONE', #728, 2.250000000000001776 ) ;
#117 = EDGE_CURVE ( 'NONE', #771, #633, #338, .T. ) ;
#118 = APPROVAL_PERSON_ORGANIZATION ( #763, #140, #81 ) ;
#119 = CARTESIAN_POINT ( 'NONE',  ( 31.68375672974069346, -2.000000000000011990, 47.50000000000000711 ) ) ;
#120 = ORIENTED_EDGE ( 'NONE', *, *, #582, .T. ) ;
#121 = DIRECTION ( 'NONE',  ( 1.000000000000000000, -0.000000000000000000, -0.000000000000000000 ) ) ;
#122 = CARTESIAN_POINT ( 'NONE',  ( 31.68375672974069346, -20.00000000000001066, 47.50000000000000711 ) ) ;
#123 = ORIENTED_EDGE ( 'NONE', *, *, #68, .F. ) ;
#124 = PLANE ( 'NONE',  #43 ) ;
#125 = VECTOR ( 'NONE', #755, 1000.000000000000000 ) ;
#126 = VECTOR ( 'NONE', #541, 1000.000000000000000 ) ;
#127 = CARTESIAN_POINT ( 'NONE',  ( 0.000000000000000000, 0.000000000000000000, 1.000000000000000666 ) ) ;
#128 = EDGE_LOOP ( 'NONE', ( #69, #35, #842, #137 ) ) ;
#129 = CARTESIAN_POINT ( 'NONE',  ( 25.36751345948136560, 5.000000000000006217, 32.25000000000000000 ) ) ;
#130 = ORIENTED_EDGE ( 'NONE', *, *, #910, .F. ) ;
#131 = EDGE_LOOP ( 'NONE', ( #853, #709, #41, #63, #884, #524, #468, #445 ) ) ;
#132 = DIRECTION ( 'NONE',  ( 0.8660254037844380415, -0.5000000000000009992, 0.000000000000000000 ) ) ;
#133 = ORIENTED_EDGE ( 'NONE', *, *, #400, .T. ) ;
#134 = LINE ( 'NONE', #471, #900 ) ;
#135 = EDGE_CURVE ( 'NONE', #110, #203, #602, .T. ) ;
#136 = MANIFOLD_SOLID_BREP ( 'Cut-Extrude5', #807 ) ;
#137 = ORIENTED_EDGE ( 'NONE', *, *, #1063, .T. ) ;
#138 = DIRECTION ( 'NONE',  ( 1.000000000000000000, 0.000000000000000000, 0.000000000000000000 ) ) ;
#139 = ORIENTED_EDGE ( 'NONE', *, *, #768, .F. ) ;
#140 = APPROVAL ( #417, 'UNSPECIFIED' ) ;
#141 = LINE ( 'NONE', #548, #178 ) ;
#142 = DIRECTION ( 'NONE',  ( -1.000000000000000000, -1.224646799147353454E-16, -0.000000000000000000 ) ) ;
#143 = VERTEX_POINT ( 'NONE', #634 ) ;
#144 = DIRECTION ( 'NONE',  ( 0.000000000000000000, -2.710505431213761855E-18, 1.000000000000000000 ) ) ;
#145 = LINE ( 'NONE', #402, #629 ) ;
#146 = VECTOR ( 'NONE', #854, 1000.000000000000000 ) ;
#147 = ADVANCED_FACE ( 'NONE', ( #454, #450, #460, #720, #703 ), #815, .F. ) ;
#148 = DIRECTION ( 'NONE',  ( 1.000000000000000000, -0.000000000000000000, -0.000000000000000000 ) ) ;
#149 = ORIENTED_EDGE ( 'NONE', *, *, #174, .T. ) ;
#150 = DIRECTION ( 'NONE',  ( 1.000000000000000000, 0.000000000000000000, 0.000000000000000000 ) ) ;
#151 = CARTESIAN_POINT ( 'NONE',  ( 31.68375672974069346, -20.00000000000001066, 45.25000000000000711 ) ) ;
#152 = PLANE ( 'NONE',  #997 ) ;
#153 = ORIENTED_EDGE ( 'NONE', *, *, #573, .T. ) ;
#154 = ORIENTED_EDGE ( 'NONE', *, *, #833, .F. ) ;
#155 = FACE_OUTER_BOUND ( 'NONE', #753, .T. ) ;
#156 = AXIS2_PLACEMENT_3D ( 'NONE', #689, #256, #705 ) ;
#157 = CARTESIAN_POINT ( 'NONE',  ( 25.36751345948136560, 5.000000000000006217, 29.99999999999999645 ) ) ;
#158 = VERTEX_POINT ( 'NONE', #640 ) ;
#159 = EDGE_CURVE ( 'NONE', #114, #170, #895, .T. ) ;
#160 = PLANE ( 'NONE',  #100 ) ;
#161 = LINE ( 'NONE', #801, #667 ) ;
#162 = CIRCLE ( 'NONE', #1003, 2.250000000000001776 ) ;
#163 = CARTESIAN_POINT ( 'NONE',  ( 33.36751345948136560, 20.00000000000000355, 45.00000000000000000 ) ) ;
#164 = VERTEX_POINT ( 'NONE', #991 ) ;
#165 = COORDINATED_UNIVERSAL_TIME_OFFSET ( 0, 0, .AHEAD. ) ;
#166 = ORIENTED_EDGE ( 'NONE', *, *, #636, .F. ) ;
#167 = EDGE_CURVE ( 'NONE', #158, #375, #42, .T. ) ;
#168 = FACE_BOUND ( 'NONE', #51, .T. ) ;
#169 = DIRECTION ( 'NONE',  ( 1.000000000000000000, -0.000000000000000000, -0.000000000000000000 ) ) ;
#170 = VERTEX_POINT ( 'NONE', #547 ) ;
#171 = EDGE_LOOP ( 'NONE', ( #511, #455, #221, #422 ) ) ;
#172 = EDGE_CURVE ( 'NONE', #612, #340, #821, .T. ) ;
#173 = CARTESIAN_POINT ( 'NONE',  ( 0.000000000000000000, 0.000000000000000000, 60.00000000000000000 ) ) ;
#174 = EDGE_CURVE ( 'NONE', #865, #980, #655, .T. ) ;
#175 = AXIS2_PLACEMENT_3D ( 'NONE', #240, #328, #322 ) ;
#176 = DIRECTION ( 'NONE',  ( 0.000000000000000000, 0.000000000000000000, -1.000000000000000000 ) ) ;
#177 = ORIENTED_EDGE ( 'NONE', *, *, #379, .F. ) ;
#178 = VECTOR ( 'NONE', #978, 1000.000000000000000 ) ;
#179 = PERSON_AND_ORGANIZATION_ROLE ( 'creator' ) ;
#180 = DIRECTION ( 'NONE',  ( 0.000000000000000000, 0.000000000000000000, -1.000000000000000000 ) ) ;
#181 = CARTESIAN_POINT ( 'NONE',  ( 36.36751345948136560, -20.00000000000000000, 1.000000000000000666 ) ) ;
#182 = EDGE_CURVE ( 'NONE', #110, #393, #805, .T. ) ;
#183 = DIRECTION ( 'NONE',  ( 0.000000000000000000, 0.000000000000000000, -1.000000000000000000 ) ) ;
#184 = ORIENTED_EDGE ( 'NONE', *, *, #960, .F. ) ;
#185 = CIRCLE ( 'NONE', #579, 2.250000000000001776 ) ;
#186 = CARTESIAN_POINT ( 'NONE',  ( 0.000000000000000000, 0.000000000000000000, 4.900000000000001243 ) ) ;
#187 = AXIS2_PLACEMENT_3D ( 'NONE', #576, #911, #1096 ) ;
#188 = DIRECTION ( 'NONE',  ( 0.000000000000000000, 1.927470528863117569E-16, -1.000000000000000000 ) ) ;
#189 = CARTESIAN_POINT ( 'NONE',  ( 33.36751345948136560, 20.00000000000000711, 15.00000000000000000 ) ) ;
#190 = VERTEX_POINT ( 'NONE', #905 ) ;
#191 = AXIS2_PLACEMENT_3D ( 'NONE', #1067, #1077, #628 ) ;
#192 = PLANE ( 'NONE',  #1002 ) ;
#193 = ORIENTED_EDGE ( 'NONE', *, *, #172, .F. ) ;
#194 = AXIS2_PLACEMENT_3D ( 'NONE', #554, #138, #464 ) ;
#195 = CARTESIAN_POINT ( 'NONE',  ( 33.36751345948136560, 20.00000000000000711, 30.00000000000000000 ) ) ;
#196 = EDGE_LOOP ( 'NONE', ( #730, #796 ) ) ;
#197 = AXIS2_PLACEMENT_3D ( 'NONE', #1035, #79, #592 ) ;
#198 = CARTESIAN_POINT ( 'NONE',  ( 25.36751345948136560, 20.00000000000000355, 45.00000000000000000 ) ) ;
#199 = CYLINDRICAL_SURFACE ( 'NONE', #661, 2.250000000000001776 ) ;
#200 = CARTESIAN_POINT ( 'NONE',  ( 0.000000000000000000, -20.00000000000000000, 59.00000000000000000 ) ) ;
#201 = VERTEX_POINT ( 'NONE', #986 ) ;
#202 = CYLINDRICAL_SURFACE ( 'NONE', #860, 2.250000000000001776 ) ;
#203 = VERTEX_POINT ( 'NONE', #1071 ) ;
#204 = CIRCLE ( 'NONE', #928, 2.250000000000001776 ) ;
#205 = ADVANCED_FACE ( 'NONE', ( #282 ), #124, .T. ) ;
#206 = LINE ( 'NONE', #96, #267 ) ;
#207 = ORIENTED_EDGE ( 'NONE', *, *, #573, .F. ) ;
#208 = CARTESIAN_POINT ( 'NONE',  ( 31.68375672974069346, -20.00000000000000355, 12.50000000000000000 ) ) ;
#209 = CARTESIAN_POINT ( 'NONE',  ( 4.683756729740692570, -2.000000000000010658, 12.50000000000000355 ) ) ;
#210 = CYLINDRICAL_SURFACE ( 'NONE', #940, 2.250000000000001776 ) ;
#211 = ORIENTED_EDGE ( 'NONE', *, *, #953, .F. ) ;
#212 = CARTESIAN_POINT ( 'NONE',  ( 33.36751345948136560, 20.00000000000000711, 15.00000000000000000 ) ) ;
#213 = VECTOR ( 'NONE', #332, 1000.000000000000000 ) ;
#214 = AXIS2_PLACEMENT_3D ( 'NONE', #419, #344, #188 ) ;
#215 = ORIENTED_EDGE ( 'NONE', *, *, #105, .T. ) ;
#216 = EDGE_CURVE ( 'NONE', #235, #820, #220, .T. ) ;
#217 = CARTESIAN_POINT ( 'NONE',  ( 4.683756729740693459, -10.00000000000001421, 47.50000000000000711 ) ) ;
#218 = ORIENTED_EDGE ( 'NONE', *, *, #951, .T. ) ;
#219 = DIRECTION ( 'NONE',  ( 1.224646799147353454E-16, -1.000000000000000000, -1.727812227068533030E-16 ) ) ;
#220 = CIRCLE ( 'NONE', #389, 2.250000000000001776 ) ;
#221 = ORIENTED_EDGE ( 'NONE', *, *, #390, .T. ) ;
#222 = ADVANCED_FACE ( 'NONE', ( #890 ), #202, .F. ) ;
#223 = CARTESIAN_POINT ( 'NONE',  ( 33.36751345948136560, 35.00000000000000711, 27.75000000000000000 ) ) ;
#224 = ORIENTED_EDGE ( 'NONE', *, *, #182, .F. ) ;
#225 = CYLINDRICAL_SURFACE ( 'NONE', #1024, 2.250000000000001776 ) ;
#226 = ADVANCED_FACE ( 'NONE', ( #710 ), #270, .F. ) ;
#227 = AXIS2_PLACEMENT_3D ( 'NONE', #927, #496, #677 ) ;
#228 = CARTESIAN_POINT ( 'NONE',  ( 36.36751345948136560, -10.00000000000001243, 55.10000000000000853 ) ) ;
#229 = ORIENTED_EDGE ( 'NONE', *, *, #390, .F. ) ;
#230 = CARTESIAN_POINT ( 'NONE',  ( 36.36751345948136560, 50.00000000000000000, 60.00000000000000000 ) ) ;
#231 = ADVANCED_FACE ( 'NONE', ( #37 ), #192, .T. ) ;
#232 = VECTOR ( 'NONE', #984, 1000.000000000000000 ) ;
#233 = LINE ( 'NONE', #318, #686 ) ;
#234 = DIRECTION ( 'NONE',  ( 0.000000000000000000, 0.000000000000000000, -1.000000000000000000 ) ) ;
#235 = VERTEX_POINT ( 'NONE', #727 ) ;
#236 = PLANE ( 'NONE',  #919 ) ;
#237 = EDGE_CURVE ( 'NONE', #925, #643, #467, .T. ) ;
#238 = CARTESIAN_POINT ( 'NONE',  ( 31.68375672974069346, -2.000000000000011990, 47.50000000000000711 ) ) ;
#239 = AXIS2_PLACEMENT_3D ( 'NONE', #1023, #93, #412 ) ;
#240 = CARTESIAN_POINT ( 'NONE',  ( 25.36751345948136560, 20.00000000000000355, 45.00000000000000000 ) ) ;
#241 = VERTEX_POINT ( 'NONE', #970 ) ;
#242 = DATE_TIME_ROLE ( 'creation_date' ) ;
#243 = ORIENTED_EDGE ( 'NONE', *, *, #1043, .F. ) ;
#244 = DIRECTION ( 'NONE',  ( 0.000000000000000000, 1.000000000000000000, 0.000000000000000000 ) ) ;
#245 = UNCERTAINTY_MEASURE_WITH_UNIT (LENGTH_MEASURE( 1.000000000000000082E-05 ), #1098, 'distance_accuracy_value', 'NONE');
#246 = FACE_OUTER_BOUND ( 'NONE', #743, .T. ) ;
#247 = ORIENTED_EDGE ( 'NONE', *, *, #490, .F. ) ;
#248 = FACE_OUTER_BOUND ( 'NONE', #1092, .T. ) ;
#249 = DIRECTION ( 'NONE',  ( 1.224646799147353207E-16, -1.000000000000000000, -1.561251128379126631E-16 ) ) ;
#250 = AXIS2_PLACEMENT_3D ( 'NONE', #1064, #708, #718 ) ;
#251 = CIRCLE ( 'NONE', #214, 2.250000000000001776 ) ;
#252 = CARTESIAN_POINT ( 'NONE',  ( 31.68375672974069346, -20.00000000000000355, 12.50000000000000000 ) ) ;
#253 = EDGE_CURVE ( 'NONE', #612, #375, #1066, .T. ) ;
#254 = ORIENTED_EDGE ( 'NONE', *, *, #960, .T. ) ;
#255 = CARTESIAN_POINT ( 'NONE',  ( 25.36751345948136560, 5.000000000000006217, 29.99999999999999645 ) ) ;
#256 = DIRECTION ( 'NONE',  ( 1.224646799147353207E-16, -1.000000000000000000, -1.561251128379126631E-16 ) ) ;
#257 = DIRECTION ( 'NONE',  ( 1.000000000000000000, 0.000000000000000000, 0.000000000000000000 ) ) ;
#258 = ORIENTED_EDGE ( 'NONE', *, *, #827, .T. ) ;
#259 = CARTESIAN_POINT ( 'NONE',  ( 4.683756729740693459, -10.00000000000001421, 47.50000000000000711 ) ) ;
#260 = DIRECTION ( 'NONE',  ( -1.000000000000000000, 0.000000000000000000, 0.000000000000000000 ) ) ;
#261 = DIRECTION ( 'NONE',  ( 0.000000000000000000, 0.000000000000000000, -1.000000000000000000 ) ) ;
#262 = ORIENTED_EDGE ( 'NONE', *, *, #342, .T. ) ;
#263 = DATE_AND_TIME ( #784, #391 ) ;
#264 = CARTESIAN_POINT ( 'NONE',  ( 25.36751345948136560, 35.00000000000000711, 30.00000000000000355 ) ) ;
#265 = DIRECTION ( 'NONE',  ( 1.000000000000000000, 0.000000000000000000, 0.000000000000000000 ) ) ;
#266 = EDGE_CURVE ( 'NONE', #190, #985, #56, .T. ) ;
#267 = VECTOR ( 'NONE', #13, 1000.000000000000000 ) ;
#268 = CYLINDRICAL_SURFACE ( 'NONE', #1107, 2.250000000000001776 ) ;
#269 = ORIENTED_EDGE ( 'NONE', *, *, #17, .T. ) ;
#270 = CYLINDRICAL_SURFACE ( 'NONE', #897, 2.250000000000001776 ) ;
#271 = LINE ( 'NONE', #620, #213 ) ;
#272 = DIRECTION ( 'NONE',  ( -1.224646799147353207E-16, 1.000000000000000000, 1.561251128379126631E-16 ) ) ;
#273 = ORIENTED_EDGE ( 'NONE', *, *, #549, .T. ) ;
#274 = AXIS2_PLACEMENT_3D ( 'NONE', #255, #6, #1030 ) ;
#275 = DIRECTION ( 'NONE',  ( 1.224646799147353454E-16, -1.000000000000000000, -1.727812227068533030E-16 ) ) ;
#276 = DIRECTION ( 'NONE',  ( -1.000000000000000000, 0.000000000000000000, -0.000000000000000000 ) ) ;
#277 = ORIENTED_EDGE ( 'NONE', *, *, #539, .F. ) ;
#278 = DIRECTION ( 'NONE',  ( 1.224646799147353454E-16, -1.000000000000000000, -1.727812227068533030E-16 ) ) ;
#279 = DIRECTION ( 'NONE',  ( 1.000000000000000000, 0.000000000000000000, 0.000000000000000000 ) ) ;
#280 = ORIENTED_EDGE ( 'NONE', *, *, #600, .T. ) ;
#281 = EDGE_CURVE ( 'NONE', #623, #80, #668, .T. ) ;
#282 = FACE_OUTER_BOUND ( 'NONE', #291, .T. ) ;
#283 = FACE_OUTER_BOUND ( 'NONE', #329, .T. ) ;
#284 = PLANE ( 'NONE',  #757 ) ;
#285 = EDGE_LOOP ( 'NONE', ( #737, #262, #1061, #229 ) ) ;
#286 = DIRECTION ( 'NONE',  ( -1.224646799147353454E-16, 1.000000000000000000, 1.727812227068533030E-16 ) ) ;
#287 = VERTEX_POINT ( 'NONE', #62 ) ;
#288 = AXIS2_PLACEMENT_3D ( 'NONE', #526, #275, #1062 ) ;
#289 = EDGE_CURVE ( 'NONE', #577, #170, #204, .T. ) ;
#290 = DIRECTION ( 'NONE',  ( -1.224646799147353207E-16, 1.000000000000000000, 1.561251128379126631E-16 ) ) ;
#291 = EDGE_LOOP ( 'NONE', ( #505, #741 ) ) ;
#292 = FACE_OUTER_BOUND ( 'NONE', #879, .T. ) ;
#293 = EDGE_CURVE ( 'NONE', #203, #110, #713, .T. ) ;
#294 = ORIENTED_EDGE ( 'NONE', *, *, #159, .T. ) ;
#295 = DIRECTION ( 'NONE',  ( 0.000000000000000000, 0.000000000000000000, -1.000000000000000000 ) ) ;
#296 = VECTOR ( 'NONE', #345, 1000.000000000000000 ) ;
#297 = ORIENTED_EDGE ( 'NONE', *, *, #483, .T. ) ;
#298 = DATE_AND_TIME ( #48, #1081 ) ;
#299 = EDGE_CURVE ( 'NONE', #241, #287, #1014, .T. ) ;
#300 = EDGE_LOOP ( 'NONE', ( #139, #435, #20, #565, #193, #542, #531, #380 ) ) ;
#301 = CYLINDRICAL_SURFACE ( 'NONE', #364, 2.250000000000001776 ) ;
#302 = ORIENTED_EDGE ( 'NONE', *, *, #253, .F. ) ;
#303 = DIRECTION ( 'NONE',  ( 0.000000000000000000, 1.927470528863117569E-16, -1.000000000000000000 ) ) ;
#304 = FACE_OUTER_BOUND ( 'NONE', #370, .T. ) ;
#305 = CIRCLE ( 'NONE', #604, 2.250000000000001776 ) ;
#306 = ORIENTED_EDGE ( 'NONE', *, *, #861, .F. ) ;
#307 = LINE ( 'NONE', #742, #1055 ) ;
#308 = ADVANCED_FACE ( 'NONE', ( #484 ), #392, .F. ) ;
#309 = VERTEX_POINT ( 'NONE', #751 ) ;
#310 = CARTESIAN_POINT ( 'NONE',  ( 0.000000000000000000, -20.00000000000000000, 1.000000000000000666 ) ) ;
#311 = CIRCLE ( 'NONE', #609, 2.250000000000001776 ) ;
#312 = DIRECTION ( 'NONE',  ( -1.000000000000000000, 0.000000000000000000, 0.000000000000000000 ) ) ;
#313 = DIRECTION ( 'NONE',  ( -1.224646799147353207E-16, 1.000000000000000000, 0.000000000000000000 ) ) ;
#314 = ORIENTED_EDGE ( 'NONE', *, *, #877, .F. ) ;
#315 = EDGE_CURVE ( 'NONE', #393, #404, #78, .T. ) ;
#316 = AXIS2_PLACEMENT_3D ( 'NONE', #25, #183, #276 ) ;
#318 = CARTESIAN_POINT ( 'NONE',  ( 28.86751345948136560, 50.00000000000000000, 59.00000000000000000 ) ) ;
#317 = AXIS2_PLACEMENT_3D ( 'NONE', #325, #1105, #477 ) ;
#319 = CARTESIAN_POINT ( 'NONE',  ( 4.683756729740692570, -2.000000000000015099, 45.25000000000000711 ) ) ;
#320 = ORIENTED_EDGE ( 'NONE', *, *, #266, .F. ) ;
#321 = DIRECTION ( 'NONE',  ( -0.000000000000000000, -0.000000000000000000, -1.000000000000000000 ) ) ;
#322 = DIRECTION ( 'NONE',  ( 0.000000000000000000, 0.000000000000000000, -1.000000000000000000 ) ) ;
#323 = VERTEX_POINT ( 'NONE', #223 ) ;
#324 = CARTESIAN_POINT ( 'NONE',  ( 4.683756729740693459, -10.00000000000001421, 49.75000000000000711 ) ) ;
#325 = CARTESIAN_POINT ( 'NONE',  ( 25.36751345948136560, 35.00000000000000711, 30.00000000000000355 ) ) ;
#326 = DIRECTION ( 'NONE',  ( 1.000000000000000000, 0.000000000000000000, 0.000000000000000000 ) ) ;
#327 = EDGE_CURVE ( 'NONE', #889, #114, #305, .T. ) ;
#328 = DIRECTION ( 'NONE',  ( 1.000000000000000000, -0.000000000000000000, -0.000000000000000000 ) ) ;
#329 = EDGE_LOOP ( 'NONE', ( #1084, #470, #362, #500 ) ) ;
#330 = COORDINATED_UNIVERSAL_TIME_OFFSET ( 0, 0, .AHEAD. ) ;
#331 = VERTEX_POINT ( 'NONE', #999 ) ;
#332 = DIRECTION ( 'NONE',  ( 1.000000000000000000, -0.000000000000000000, -0.000000000000000000 ) ) ;
#333 = EDGE_CURVE ( 'NONE', #473, #323, #522, .T. ) ;
#334 = DIRECTION ( 'NONE',  ( 1.000000000000000000, -0.000000000000000000, -0.000000000000000000 ) ) ;
#335 = EDGE_LOOP ( 'NONE', ( #306, #894, #1109, #314 ) ) ;
#336 = DIRECTION ( 'NONE',  ( 0.000000000000000000, 0.000000000000000000, 1.000000000000000000 ) ) ;
#337 = DIRECTION ( 'NONE',  ( -1.224646799147353207E-16, 1.000000000000000000, 0.000000000000000000 ) ) ;
#338 = CIRCLE ( 'NONE', #274, 2.250000000000001776 ) ;
#339 = PLANE ( 'NONE',  #89 ) ;
#340 = VERTEX_POINT ( 'NONE', #929 ) ;
#341 = PERSON_AND_ORGANIZATION ( #381, #678 ) ;
#342 = EDGE_CURVE ( 'NONE', #771, #235, #1091, .T. ) ;
#343 = EDGE_LOOP ( 'NONE', ( #989, #26 ) ) ;
#344 = DIRECTION ( 'NONE',  ( 1.224646799147353207E-16, -1.000000000000000000, -1.561251128379126631E-16 ) ) ;
#345 = DIRECTION ( 'NONE',  ( -1.918256916720354237E-32, 1.727812227068532784E-16, -1.000000000000000000 ) ) ;
#346 = ORIENTED_EDGE ( 'NONE', *, *, #299, .F. ) ;
#347 = PERSON_AND_ORGANIZATION_ROLE ( 'classification_officer' ) ;
#348 = DIRECTION ( 'NONE',  ( -1.224646799147353207E-16, 1.000000000000000000, 1.561251128379126631E-16 ) ) ;
#349 = EDGE_CURVE ( 'NONE', #164, #49, #108, .T. ) ;
#350 = LINE ( 'NONE', #87, #892 ) ;
#351 = LINE ( 'NONE', #200, #39 ) ;
#352 = VERTEX_POINT ( 'NONE', #469 ) ;
#353 = DIRECTION ( 'NONE',  ( 1.000000000000000000, 0.000000000000000000, 0.000000000000000000 ) ) ;
#354 = PLANE ( 'NONE',  #983 ) ;
#355 = EDGE_CURVE ( 'NONE', #57, #47, #1009, .T. ) ;
#356 = CARTESIAN_POINT ( 'NONE',  ( 25.36751345948136560, 20.00000000000000355, 45.00000000000000000 ) ) ;
#357 = ORIENTED_EDGE ( 'NONE', *, *, #30, .T. ) ;
#358 = AXIS2_PLACEMENT_3D ( 'NONE', #924, #841, #830 ) ;
#359 = DIRECTION ( 'NONE',  ( 0.000000000000000000, 0.000000000000000000, -1.000000000000000000 ) ) ;
#360 = ADVANCED_FACE ( 'NONE', ( #386 ), #301, .F. ) ;
#361 = DIRECTION ( 'NONE',  ( 1.224646799147353207E-16, -1.000000000000000000, -1.561251128379126631E-16 ) ) ;
#362 = ORIENTED_EDGE ( 'NONE', *, *, #289, .T. ) ;
#363 = DIRECTION ( 'NONE',  ( 0.000000000000000000, 0.000000000000000000, 1.000000000000000000 ) ) ;
#364 = AXIS2_PLACEMENT_3D ( 'NONE', #371, #1082, #295 ) ;
#365 = DIRECTION ( 'NONE',  ( -1.224646799147353207E-16, 1.000000000000000000, 1.561251128379126631E-16 ) ) ;
#366 = ADVANCED_FACE ( 'NONE', ( #292 ), #650, .F. ) ;
#367 = VERTEX_POINT ( 'NONE', #382 ) ;
#368 = CARTESIAN_POINT ( 'NONE',  ( 4.683756729740692570, -2.000000000000015543, 47.50000000000000711 ) ) ;
#369 = LINE ( 'NONE', #1032, #399 ) ;
#370 = EDGE_LOOP ( 'NONE', ( #133, #258 ) ) ;
#371 = CARTESIAN_POINT ( 'NONE',  ( 25.36751345948136560, 5.000000000000006217, 29.99999999999999645 ) ) ;
#372 = AXIS2_PLACEMENT_3D ( 'NONE', #217, #376, #747 ) ;
#373 = EDGE_CURVE ( 'NONE', #49, #792, #307, .T. ) ;
#374 = FACE_OUTER_BOUND ( 'NONE', #1086, .T. ) ;
#375 = VERTEX_POINT ( 'NONE', #1005 ) ;
#376 = DIRECTION ( 'NONE',  ( 1.224646799147353454E-16, -1.000000000000000000, -1.727812227068533030E-16 ) ) ;
#377 = VERTEX_POINT ( 'NONE', #564 ) ;
#378 = CARTESIAN_POINT ( 'NONE',  ( 25.36751345948136560, 35.00000000000000711, 30.00000000000000355 ) ) ;
#379 = EDGE_CURVE ( 'NONE', #1015, #626, #474, .T. ) ;
#380 = ORIENTED_EDGE ( 'NONE', *, *, #1006, .T. ) ;
#381 = PERSON ( 'UNSPECIFIED', 'UNSPECIFIED', 'UNSPECIFIED', ('UNSPECIFIED'), ('UNSPECIFIED'), ('UNSPECIFIED') ) ;
#382 = CARTESIAN_POINT ( 'NONE',  ( 4.683756729740692570, -2.000000000000011102, 14.75000000000000533 ) ) ;
#383 = AXIS2_PLACEMENT_3D ( 'NONE', #34, #788, #701 ) ;
#384 = EDGE_LOOP ( 'NONE', ( #1036, #149, #1041, #243 ) ) ;
#385 = ORIENTED_EDGE ( 'NONE', *, *, #266, .T. ) ;
#386 = FACE_OUTER_BOUND ( 'NONE', #285, .T. ) ;
#387 = ORIENTED_EDGE ( 'NONE', *, *, #1100, .F. ) ;
#388 = DIRECTION ( 'NONE',  ( -0.000000000000000000, -0.000000000000000000, -1.000000000000000000 ) ) ;
#389 = AXIS2_PLACEMENT_3D ( 'NONE', #624, #810, #716 ) ;
#390 = EDGE_CURVE ( 'NONE', #633, #820, #955, .T. ) ;
#391 = LOCAL_TIME ( 10, 20, 48.00000000000000000, #165 ) ;
#392 = CYLINDRICAL_SURFACE ( 'NONE', #358, 25.25000000000000000 ) ;
#393 = VERTEX_POINT ( 'NONE', #605 ) ;
#394 = FACE_OUTER_BOUND ( 'NONE', #758, .T. ) ;
#395 = CARTESIAN_POINT ( 'NONE',  ( 2.449293598294706513E-15, -20.00000000000000000, 60.00000000000000000 ) ) ;
#396 = LINE ( 'NONE', #756, #818 ) ;
#397 = VERTEX_POINT ( 'NONE', #942 ) ;
#398 = MECHANICAL_CONTEXT ( 'NONE', #538, 'mechanical' ) ;
#399 = VECTOR ( 'NONE', #1083, 1000.000000000000000 ) ;
#400 = EDGE_CURVE ( 'NONE', #985, #946, #687, .T. ) ;
#401 = AXIS2_PLACEMENT_3D ( 'NONE', #195, #622, #893 ) ;
#402 = CARTESIAN_POINT ( 'NONE',  ( 0.000000000000000000, 0.000000000000000000, 60.00000000000000000 ) ) ;
#403 = CARTESIAN_POINT ( 'NONE',  ( 25.36751345948136560, 20.00000000000000711, 17.25000000000000000 ) ) ;
#404 = VERTEX_POINT ( 'NONE', #319 ) ;
#405 = CARTESIAN_POINT ( 'NONE',  ( 25.36751345948136560, 20.00000000000000711, 12.74999999999999822 ) ) ;
#406 = CARTESIAN_POINT ( 'NONE',  ( 4.683756729740694347, -20.00000000000001421, 47.50000000000000711 ) ) ;
#407 = EDGE_CURVE ( 'NONE', #889, #577, #84, .T. ) ;
#408 = CARTESIAN_POINT ( 'NONE',  ( 36.36751345948136560, 20.00000000000001066, 55.25000000000000000 ) ) ;
#409 = AXIS2_PLACEMENT_3D ( 'NONE', #259, #278, #363 ) ;
#410 = DIRECTION ( 'NONE',  ( 0.000000000000000000, -1.000000000000000000, 0.000000000000000000 ) ) ;
#411 = EDGE_LOOP ( 'NONE', ( #825, #74, #215, #1121, #85 ) ) ;
#412 = DIRECTION ( 'NONE',  ( 0.000000000000000000, 0.000000000000000000, -1.000000000000000000 ) ) ;
#413 = DIRECTION ( 'NONE',  ( 1.000000000000000000, 1.224646799147353207E-16, -0.000000000000000000 ) ) ;
#414 = EDGE_CURVE ( 'NONE', #633, #771, #72, .T. ) ;
#415 = CARTESIAN_POINT ( 'NONE',  ( 33.36751345948136560, 35.00000000000000711, 32.25000000000000711 ) ) ;
#416 = ORIENTED_EDGE ( 'NONE', *, *, #791, .F. ) ;
#417 = APPROVAL_STATUS ( 'not_yet_approved' ) ;
#418 = LINE ( 'NONE', #431, #881 ) ;
#419 = CARTESIAN_POINT ( 'NONE',  ( 4.683756729740692570, -2.000000000000010658, 12.50000000000000355 ) ) ;
#420 = ADVANCED_FACE ( 'NONE', ( #761 ), #864, .F. ) ;
#421 = FACE_BOUND ( 'NONE', #1004, .T. ) ;
#422 = ORIENTED_EDGE ( 'NONE', *, *, #987, .T. ) ;
#423 = APPROVAL_DATE_TIME ( #298, #798 ) ;
#424 = ORIENTED_EDGE ( 'NONE', *, *, #621, .F. ) ;
#425 = CARTESIAN_POINT ( 'NONE',  ( 31.68375672974069346, -10.00000000000001066, 49.75000000000000711 ) ) ;
#426 = CIRCLE ( 'NONE', #840, 2.250000000000001776 ) ;
#427 = CARTESIAN_POINT ( 'NONE',  ( 36.36751345948136560, -10.00000000000001243, 55.10000000000000853 ) ) ;
#428 = ADVANCED_FACE ( 'NONE', ( #684 ), #673, .F. ) ;
#429 = EDGE_LOOP ( 'NONE', ( #935, #517 ) ) ;
#430 = PERSON_AND_ORGANIZATION_ROLE ( 'creator' ) ;
#431 = CARTESIAN_POINT ( 'NONE',  ( 25.36751345948136560, 20.00000000000000355, 42.74999999999999289 ) ) ;
#432 = PRODUCT_DEFINITION_FORMATION_WITH_SPECIFIED_SOURCE ( 'ANY', '', #1103, .NOT_KNOWN. ) ;
#433 = CARTESIAN_POINT ( 'NONE',  ( 25.36751345948136560, 35.00000000000000711, 30.00000000000000355 ) ) ;
#434 = FACE_OUTER_BOUND ( 'NONE', #97, .T. ) ;
#435 = ORIENTED_EDGE ( 'NONE', *, *, #558, .T. ) ;
#436 = DIRECTION ( 'NONE',  ( -1.224646799147353207E-16, 1.000000000000000000, 1.561251128379126631E-16 ) ) ;
#437 = ADVANCED_FACE ( 'NONE', ( #246 ), #152, .F. ) ;
#438 = DIRECTION ( 'NONE',  ( 0.000000000000000000, 0.000000000000000000, -1.000000000000000000 ) ) ;
#439 = ADVANCED_BREP_SHAPE_REPRESENTATION ( 'wedge', ( #136, #583 ), #660 ) ;
#440 = CIRCLE ( 'NONE', #1088, 2.250000000000001776 ) ;
#441 = VECTOR ( 'NONE', #244, 1000.000000000000000 ) ;
#442 = DIRECTION ( 'NONE',  ( 1.000000000000000000, 0.000000000000000000, 0.000000000000000000 ) ) ;
#443 = EDGE_LOOP ( 'NONE', ( #998, #651, #55, #320 ) ) ;
#444 = DIRECTION ( 'NONE',  ( 0.000000000000000000, 0.000000000000000000, -1.000000000000000000 ) ) ;
#445 = ORIENTED_EDGE ( 'NONE', *, *, #483, .F. ) ;
#446 = ADVANCED_FACE ( 'NONE', ( #690 ), #489, .F. ) ;
#447 = VECTOR ( 'NONE', #348, 1000.000000000000000 ) ;
#448 = DIRECTION ( 'NONE',  ( 0.000000000000000000, 0.000000000000000000, 1.000000000000000000 ) ) ;
#449 = ORIENTED_EDGE ( 'NONE', *, *, #499, .F. ) ;
#450 = FACE_BOUND ( 'NONE', #956, .T. ) ;
#451 = ADVANCED_FACE ( 'NONE', ( #73 ), #870, .F. ) ;
#452 = CARTESIAN_POINT ( 'NONE',  ( 31.68375672974069346, -2.000000000000011990, 47.50000000000000711 ) ) ;
#453 = ORIENTED_EDGE ( 'NONE', *, *, #665, .F. ) ;
#454 = FACE_BOUND ( 'NONE', #920, .T. ) ;
#455 = ORIENTED_EDGE ( 'NONE', *, *, #414, .F. ) ;
#456 = CARTESIAN_POINT ( 'NONE',  ( 2.449293598294706513E-15, -20.00000000000000000, 4.900000000000001243 ) ) ;
#457 = VERTEX_POINT ( 'NONE', #770 ) ;
#458 = EDGE_CURVE ( 'NONE', #643, #925, #802, .T. ) ;
#459 = VECTOR ( 'NONE', #272, 1000.000000000000000 ) ;
#460 = FACE_BOUND ( 'NONE', #657, .T. ) ;
#461 = CARTESIAN_POINT ( 'NONE',  ( 33.36751345948136560, 20.00000000000000355, 47.25000000000000000 ) ) ;
#462 = ORIENTED_EDGE ( 'NONE', *, *, #355, .F. ) ;
#463 = CC_DESIGN_PERSON_AND_ORGANIZATION_ASSIGNMENT ( #832, #675, ( #1103 ) ) ;
#464 = DIRECTION ( 'NONE',  ( 0.000000000000000000, 0.000000000000000000, -1.000000000000000000 ) ) ;
#465 = ORIENTED_EDGE ( 'NONE', *, *, #167, .T. ) ;
#466 = APPROVAL_ROLE ( '' ) ;
#467 = CIRCLE ( 'NONE', #1113, 2.250000000000001776 ) ;
#468 = ORIENTED_EDGE ( 'NONE', *, *, #662, .T. ) ;
#469 = CARTESIAN_POINT ( 'NONE',  ( 31.68375672974069346, -10.00000000000001066, 45.25000000000000711 ) ) ;
#470 = ORIENTED_EDGE ( 'NONE', *, *, #407, .T. ) ;
#471 = CARTESIAN_POINT ( 'NONE',  ( 0.000000000000000000, -20.00000000000000000, 1.000000000000000666 ) ) ;
#472 = ADVANCED_FACE ( 'NONE', ( #67 ), #1120, .F. ) ;
#473 = VERTEX_POINT ( 'NONE', #415 ) ;
#474 = LINE ( 'NONE', #836, #570 ) ;
#475 = ORIENTED_EDGE ( 'NONE', *, *, #216, .F. ) ;
#476 = FACE_OUTER_BOUND ( 'NONE', #4, .T. ) ;
#477 = DIRECTION ( 'NONE',  ( 0.000000000000000000, 0.000000000000000000, -1.000000000000000000 ) ) ;
#478 = ADVANCED_FACE ( 'NONE', ( #421, #1040, #598, #777, #8 ), #339, .T. ) ;
#479 = DIRECTION ( 'NONE',  ( -1.000000000000000000, 0.000000000000000000, 0.000000000000000000 ) ) ;
#480 = ORIENTED_EDGE ( 'NONE', *, *, #349, .T. ) ;
#481 = CARTESIAN_POINT ( 'NONE',  ( 36.36751345948136560, -20.00000000000000000, 60.00000000000000000 ) ) ;
#482 = LINE ( 'NONE', #395, #125 ) ;
#483 = EDGE_CURVE ( 'NONE', #241, #977, #396, .T. ) ;
#484 = FACE_OUTER_BOUND ( 'NONE', #128, .T. ) ;
#485 = ORIENTED_EDGE ( 'NONE', *, *, #1089, .F. ) ;
#486 = DIRECTION ( 'NONE',  ( 0.000000000000000000, -1.000000000000000000, -2.710505431213761855E-18 ) ) ;
#487 = CIRCLE ( 'NONE', #793, 25.25000000000000000 ) ;
#488 = DIRECTION ( 'NONE',  ( -1.224646799147353207E-16, 1.000000000000000000, 1.561251128379126631E-16 ) ) ;
#489 = CYLINDRICAL_SURFACE ( 'NONE', #964, 2.250000000000001776 ) ;
#490 = EDGE_CURVE ( 'NONE', #623, #158, #1021, .T. ) ;
#491 = ORIENTED_EDGE ( 'NONE', *, *, #99, .T. ) ;
#492 = CALENDAR_DATE ( 2025, 17, 12 ) ;
#493 = VECTOR ( 'NONE', #1, 1000.000000000000000 ) ;
#494 = CARTESIAN_POINT ( 'NONE',  ( 33.36751345948136560, 35.00000000000000711, 30.00000000000000355 ) ) ;
#495 = DIRECTION ( 'NONE',  ( 0.000000000000000000, 0.000000000000000000, -1.000000000000000000 ) ) ;
#496 = DIRECTION ( 'NONE',  ( 0.000000000000000000, -0.000000000000000000, 1.000000000000000000 ) ) ;
#497 = CARTESIAN_POINT ( 'NONE',  ( 25.36751345948136560, 5.000000000000006217, 27.74999999999999289 ) ) ;
#498 = ORIENTED_EDGE ( 'NONE', *, *, #1078, .T. ) ;
#499 = EDGE_CURVE ( 'NONE', #397, #309, #514, .T. ) ;
#500 = ORIENTED_EDGE ( 'NONE', *, *, #159, .F. ) ;
#501 = AXIS2_PLACEMENT_3D ( 'NONE', #731, #644, #996 ) ;
#502 = LINE ( 'NONE', #610, #817 ) ;
#503 = VECTOR ( 'NONE', #916, 1000.000000000000000 ) ;
#504 = DIRECTION ( 'NONE',  ( -1.224646799147353207E-16, 1.000000000000000000, 1.561251128379126631E-16 ) ) ;
#505 = ORIENTED_EDGE ( 'NONE', *, *, #61, .T. ) ;
#506 = CC_DESIGN_APPROVAL ( #140, ( #432 ) ) ;
#507 = EDGE_LOOP ( 'NONE', ( #346, #297, #277, #806, #416 ) ) ;
#508 = CARTESIAN_POINT ( 'NONE',  ( 36.36751345948136560, -20.00000000000000000, 60.00000000000000000 ) ) ;
#509 = ADVANCED_FACE ( 'NONE', ( #974 ), #638, .F. ) ;
#510 = CARTESIAN_POINT ( 'NONE',  ( 4.683756729740694347, -20.00000000000001066, 12.50000000000000000 ) ) ;
#511 = ORIENTED_EDGE ( 'NONE', *, *, #342, .F. ) ;
#512 = EDGE_LOOP ( 'NONE', ( #789, #247, #559, #130 ) ) ;
#513 = DIRECTION ( 'NONE',  ( -1.224646799147353207E-16, 1.000000000000000000, 1.561251128379126631E-16 ) ) ;
#514 = CIRCLE ( 'NONE', #1034, 2.250000000000001776 ) ;
#515 = AXIS2_PLACEMENT_3D ( 'NONE', #694, #1051, #528 ) ;
#516 = DIRECTION ( 'NONE',  ( 0.000000000000000000, 0.000000000000000000, -1.000000000000000000 ) ) ;
#517 = ORIENTED_EDGE ( 'NONE', *, *, #458, .F. ) ;
#518 = SHAPE_DEFINITION_REPRESENTATION ( #739, #439 ) ;
#519 = DIRECTION ( 'NONE',  ( 0.000000000000000000, 0.000000000000000000, -1.000000000000000000 ) ) ;
#520 = CARTESIAN_POINT ( 'NONE',  ( 4.683756729740693459, -10.00000000000000888, 14.75000000000000355 ) ) ;
#521 = VECTOR ( 'NONE', #533, 1000.000000000000000 ) ;
#522 = CIRCLE ( 'NONE', #187, 2.250000000000001776 ) ;
#523 = DIRECTION ( 'NONE',  ( 1.224646799147353207E-16, -1.000000000000000000, -1.561251128379126631E-16 ) ) ;
#524 = ORIENTED_EDGE ( 'NONE', *, *, #902, .T. ) ;
#525 = ADVANCED_FACE ( 'NONE', ( #803 ), #1060, .F. ) ;
#526 = CARTESIAN_POINT ( 'NONE',  ( 4.683756729740693459, -10.00000000000000888, 12.50000000000000178 ) ) ;
#527 = LOCAL_TIME ( 10, 20, 48.00000000000000000, #92 ) ;
#528 = DIRECTION ( 'NONE',  ( 0.000000000000000000, 0.000000000000000000, 1.000000000000000000 ) ) ;
#529 = VECTOR ( 'NONE', #1001, 1000.000000000000000 ) ;
#530 = CARTESIAN_POINT ( 'NONE',  ( 31.68375672974069346, -20.00000000000001066, 49.75000000000000711 ) ) ;
#531 = ORIENTED_EDGE ( 'NONE', *, *, #910, .T. ) ;
#532 = EDGE_CURVE ( 'NONE', #143, #457, #873, .T. ) ;
#533 = DIRECTION ( 'NONE',  ( -0.000000000000000000, -0.000000000000000000, -1.000000000000000000 ) ) ;
#534 = CIRCLE ( 'NONE', #707, 25.25000000000000000 ) ;
#535 = DIRECTION ( 'NONE',  ( 0.000000000000000000, 0.000000000000000000, -1.000000000000000000 ) ) ;
#536 = ORIENTED_EDGE ( 'NONE', *, *, #902, .F. ) ;
#537 = AXIS2_PLACEMENT_3D ( 'NONE', #959, #265, #615 ) ;
#538 = APPLICATION_CONTEXT ( 'configuration controlled 3d designs of mechanical parts and assemblies' ) ;
#539 = EDGE_CURVE ( 'NONE', #340, #977, #714, .T. ) ;
#540 = VECTOR ( 'NONE', #142, 1000.000000000000000 ) ;
#541 = DIRECTION ( 'NONE',  ( 1.000000000000000000, -0.000000000000000000, -0.000000000000000000 ) ) ;
#542 = ORIENTED_EDGE ( 'NONE', *, *, #253, .T. ) ;
#543 = DIRECTION ( 'NONE',  ( 0.000000000000000000, 0.000000000000000000, 1.000000000000000000 ) ) ;
#544 = ADVANCED_FACE ( 'NONE', ( #434 ), #813, .F. ) ;
#545 = LINE ( 'NONE', #40, #851 ) ;
#546 = ORIENTED_EDGE ( 'NONE', *, *, #732, .T. ) ;
#547 = CARTESIAN_POINT ( 'NONE',  ( 33.36751345948136560, 20.00000000000000711, 12.74999999999999822 ) ) ;
#548 = CARTESIAN_POINT ( 'NONE',  ( 4.683756729740694347, -20.00000000000001421, 45.25000000000000711 ) ) ;
#549 = EDGE_CURVE ( 'NONE', #792, #377, #534, .T. ) ;
#550 = VECTOR ( 'NONE', #488, 1000.000000000000000 ) ;
#551 = DIRECTION ( 'NONE',  ( 0.5000000000000009992, 0.8660254037844380415, 0.000000000000000000 ) ) ;
#552 = ORIENTED_EDGE ( 'NONE', *, *, #172, .T. ) ;
#553 = AXIS2_PLACEMENT_3D ( 'NONE', #252, #504, #1114 ) ;
#554 = CARTESIAN_POINT ( 'NONE',  ( 33.36751345948136560, 20.00000000000000711, 30.00000000000000000 ) ) ;
#555 = PERSON_AND_ORGANIZATION ( #381, #678 ) ;
#556 = ORIENTED_EDGE ( 'NONE', *, *, #99, .F. ) ;
#557 = CARTESIAN_POINT ( 'NONE',  ( 28.86751345948136560, 50.00000000000000000, 60.00000000000000000 ) ) ;
#558 = EDGE_CURVE ( 'NONE', #1015, #715, #351, .T. ) ;
#559 = ORIENTED_EDGE ( 'NONE', *, *, #281, .T. ) ;
#560 =( NAMED_UNIT ( * ) PLANE_ANGLE_UNIT ( ) SI_UNIT ( $, .RADIAN. ) );
#561 = VECTOR ( 'NONE', #436, 1000.000000000000000 ) ;
#562 = VERTEX_POINT ( 'NONE', #625 ) ;
#563 = AXIS2_PLACEMENT_3D ( 'NONE', #310, #144, #486 ) ;
#564 = CARTESIAN_POINT ( 'NONE',  ( 36.36751345948136560, 20.00000000000000711, 4.749999999999997335 ) ) ;
#565 = ORIENTED_EDGE ( 'NONE', *, *, #1111, .T. ) ;
#566 = DIRECTION ( 'NONE',  ( -0.000000000000000000, -1.000000000000000000, -2.710505431213761085E-18 ) ) ;
#567 = EDGE_CURVE ( 'NONE', #871, #397, #979, .T. ) ;
#568 = CARTESIAN_POINT ( 'NONE',  ( 0.000000000000000000, -20.00000000000000000, 59.00000000000000000 ) ) ;
#569 = CARTESIAN_POINT ( 'NONE',  ( 36.36751345948136560, 50.00000000000000000, 1.000000000000000888 ) ) ;
#570 = VECTOR ( 'NONE', #663, 1000.000000000000000 ) ;
#571 = ORIENTED_EDGE ( 'NONE', *, *, #373, .T. ) ;
#572 = CARTESIAN_POINT ( 'NONE',  ( 4.683756729740693459, -10.00000000000000888, 12.50000000000000178 ) ) ;
#573 = EDGE_CURVE ( 'NONE', #49, #164, #941, .T. ) ;
#574 = PLANE ( 'NONE',  #227 ) ;
#575 = ADVANCED_FACE ( 'NONE', ( #878 ), #268, .F. ) ;
#576 = CARTESIAN_POINT ( 'NONE',  ( 33.36751345948136560, 35.00000000000000711, 30.00000000000000355 ) ) ;
#577 = VERTEX_POINT ( 'NONE', #1068 ) ;
#578 = DIRECTION ( 'NONE',  ( 1.000000000000000000, 0.000000000000000000, 0.000000000000000000 ) ) ;
#579 = AXIS2_PLACEMENT_3D ( 'NONE', #11, #867, #336 ) ;
#580 = CYLINDRICAL_SURFACE ( 'NONE', #317, 2.250000000000001776 ) ;
#581 = DIRECTION ( 'NONE',  ( 0.000000000000000000, 1.927470528863117569E-16, -1.000000000000000000 ) ) ;
#582 = EDGE_CURVE ( 'NONE', #170, #577, #631, .T. ) ;
#583 = AXIS2_PLACEMENT_3D ( 'NONE', #838, #931, #578 ) ;
#584 = DIRECTION ( 'NONE',  ( 0.000000000000000000, 0.000000000000000000, -1.000000000000000000 ) ) ;
#585 = ORIENTED_EDGE ( 'NONE', *, *, #775, .T. ) ;
#586 = PERSON_AND_ORGANIZATION ( #381, #678 ) ;
#587 = DIRECTION ( 'NONE',  ( 1.000000000000000000, -0.000000000000000000, -0.000000000000000000 ) ) ;
#588 = CARTESIAN_POINT ( 'NONE',  ( 31.68375672974069346, -2.000000000000007550, 14.75000000000000533 ) ) ;
#589 = LINE ( 'NONE', #856, #38 ) ;
#590 = CC_DESIGN_DATE_AND_TIME_ASSIGNMENT ( #772, #1048, ( #828 ) ) ;
#591 = VECTOR ( 'NONE', #326, 1000.000000000000000 ) ;
#592 = DIRECTION ( 'NONE',  ( 0.000000000000000000, 1.927470528863117569E-16, -1.000000000000000000 ) ) ;
#593 = ORIENTED_EDGE ( 'NONE', *, *, #1019, .F. ) ;
#594 = VECTOR ( 'NONE', #169, 1000.000000000000000 ) ;
#595 = AXIS2_PLACEMENT_3D ( 'NONE', #433, #862, #711 ) ;
#596 = DIRECTION ( 'NONE',  ( 1.000000000000000000, 0.000000000000000000, 0.000000000000000000 ) ) ;
#597 = PLANE ( 'NONE',  #1073 ) ;
#598 = FACE_BOUND ( 'NONE', #429, .T. ) ;
#599 = ORIENTED_EDGE ( 'NONE', *, *, #36, .T. ) ;
#600 = EDGE_CURVE ( 'NONE', #143, #643, #888, .T. ) ;
#601 = DIRECTION ( 'NONE',  ( 1.000000000000000000, 0.000000000000000000, 0.000000000000000000 ) ) ;
#602 = CIRCLE ( 'NONE', #409, 2.250000000000001776 ) ;
#603 = DIRECTION ( 'NONE',  ( -1.000000000000000000, 0.000000000000000000, -0.000000000000000000 ) ) ;
#604 = AXIS2_PLACEMENT_3D ( 'NONE', #824, #921, #234 ) ;
#605 = CARTESIAN_POINT ( 'NONE',  ( 4.683756729740692570, -2.000000000000015987, 49.75000000000000711 ) ) ;
#606 = EDGE_LOOP ( 'NONE', ( #899, #699 ) ) ;
#607 = DIRECTION ( 'NONE',  ( 1.000000000000000000, 0.000000000000000000, 0.000000000000000000 ) ) ;
#608 = ADVANCED_FACE ( 'NONE', ( #898 ), #284, .T. ) ;
#609 = AXIS2_PLACEMENT_3D ( 'NONE', #572, #219, #658 ) ;
#610 = CARTESIAN_POINT ( 'NONE',  ( 36.36751345948137271, -30.00000000000001421, 4.899999999999997691 ) ) ;
#611 = DIRECTION ( 'NONE',  ( 0.000000000000000000, -0.000000000000000000, -1.000000000000000000 ) ) ;
#612 = VERTEX_POINT ( 'NONE', #988 ) ;
#613 = APPROVAL_DATE_TIME ( #263, #95 ) ;
#614 = CARTESIAN_POINT ( 'NONE',  ( 36.36751345948137271, -20.00000000000000000, 55.10000000000000853 ) ) ;
#615 = DIRECTION ( 'NONE',  ( 0.000000000000000000, 0.000000000000000000, -1.000000000000000000 ) ) ;
#616 = AXIS2_PLACEMENT_3D ( 'NONE', #189, #1074, #31 ) ;
#617 = DIRECTION ( 'NONE',  ( 0.000000000000000000, 1.561251128379126631E-16, -1.000000000000000000 ) ) ;
#618 = EDGE_LOOP ( 'NONE', ( #1028, #536, #465, #302 ) ) ;
#619 = CARTESIAN_POINT ( 'NONE',  ( 33.36751345948136560, 20.00000000000000355, 45.00000000000000000 ) ) ;
#620 = CARTESIAN_POINT ( 'NONE',  ( 33.36751345948136560, 20.00000000000000711, 4.749999999999997335 ) ) ;
#621 = EDGE_CURVE ( 'NONE', #201, #287, #206, .T. ) ;
#622 = DIRECTION ( 'NONE',  ( 1.000000000000000000, 0.000000000000000000, 0.000000000000000000 ) ) ;
#623 = VERTEX_POINT ( 'NONE', #427 ) ;
#624 = CARTESIAN_POINT ( 'NONE',  ( 33.36751345948136560, 5.000000000000006217, 29.99999999999999645 ) ) ;
#625 = CARTESIAN_POINT ( 'NONE',  ( 25.36751345948136560, 35.00000000000000711, 32.25000000000000711 ) ) ;
#626 = VERTEX_POINT ( 'NONE', #1052 ) ;
#627 = DIRECTION ( 'NONE',  ( 0.000000000000000000, -1.727812227068533030E-16, 1.000000000000000000 ) ) ;
#628 = DIRECTION ( 'NONE',  ( 0.000000000000000000, 0.000000000000000000, -1.000000000000000000 ) ) ;
#629 = VECTOR ( 'NONE', #321, 1000.000000000000000 ) ;
#630 = AXIS2_PLACEMENT_3D ( 'NONE', #238, #1112, #581 ) ;
#631 = CIRCLE ( 'NONE', #616, 2.250000000000001776 ) ;
#632 = CARTESIAN_POINT ( 'NONE',  ( 36.36751345948136560, 20.00000000000000711, 30.00000000000000000 ) ) ;
#633 = VERTEX_POINT ( 'NONE', #968 ) ;
#634 = CARTESIAN_POINT ( 'NONE',  ( 25.36751345948136560, 20.00000000000000355, 47.25000000000000000 ) ) ;
#635 = CARTESIAN_POINT ( 'NONE',  ( 25.36751345948136560, 20.00000000000000711, 15.00000000000000000 ) ) ;
#636 = EDGE_CURVE ( 'NONE', #47, #623, #883, .T. ) ;
#637 = AXIS2_PLACEMENT_3D ( 'NONE', #976, #286, #627 ) ;
#638 = PLANE ( 'NONE',  #250 ) ;
#639 = ORIENTED_EDGE ( 'NONE', *, *, #299, .T. ) ;
#640 = CARTESIAN_POINT ( 'NONE',  ( 36.36751345948136560, -10.00000000000000355, 4.900000000000001243 ) ) ;
#641 = DIRECTION ( 'NONE',  ( 1.000000000000000000, -0.000000000000000000, -0.000000000000000000 ) ) ;
#642 = DIRECTION ( 'NONE',  ( -1.224646799147353207E-16, 1.000000000000000000, 1.561251128379126631E-16 ) ) ;
#643 = VERTEX_POINT ( 'NONE', #461 ) ;
#644 = DIRECTION ( 'NONE',  ( 1.224646799147353207E-16, -1.000000000000000000, -1.561251128379126631E-16 ) ) ;
#645 = CIRCLE ( 'NONE', #630, 2.250000000000001776 ) ;
#646 = EDGE_CURVE ( 'NONE', #562, #473, #369, .T. ) ;
#647 = AXIS2_PLACEMENT_3D ( 'NONE', #1039, #249, #882 ) ;
#648 = EDGE_LOOP ( 'NONE', ( #814, #45, #491, #847 ) ) ;
#649 = VECTOR ( 'NONE', #90, 1000.000000000000000 ) ;
#650 = PLANE ( 'NONE',  #721 ) ;
#651 = ORIENTED_EDGE ( 'NONE', *, *, #896, .T. ) ;
#652 = DIRECTION ( 'NONE',  ( 1.000000000000000000, 0.000000000000000000, 0.000000000000000000 ) ) ;
#653 = ORIENTED_EDGE ( 'NONE', *, *, #174, .F. ) ;
#654 = ADVANCED_FACE ( 'NONE', ( #1025 ), #210, .F. ) ;
#655 = CIRCLE ( 'NONE', #288, 2.250000000000001776 ) ;
#656 = DIRECTION ( 'NONE',  ( 1.000000000000000000, -0.000000000000000000, -0.000000000000000000 ) ) ;
#657 = EDGE_LOOP ( 'NONE', ( #1090, #184 ) ) ;
#658 = DIRECTION ( 'NONE',  ( 0.000000000000000000, 0.000000000000000000, 1.000000000000000000 ) ) ;
#659 = CYLINDRICAL_SURFACE ( 'NONE', #22, 2.250000000000001776 ) ;
#660 =( GEOMETRIC_REPRESENTATION_CONTEXT ( 3 ) GLOBAL_UNCERTAINTY_ASSIGNED_CONTEXT ( ( #245 ) ) GLOBAL_UNIT_ASSIGNED_CONTEXT ( ( #1098, #560, #738 ) ) REPRESENTATION_CONTEXT ( 'NONE', 'WORKASPACE' ) );
#661 = AXIS2_PLACEMENT_3D ( 'NONE', #635, #641, #992 ) ;
#662 = EDGE_CURVE ( 'NONE', #783, #977, #545, .T. ) ;
#663 = DIRECTION ( 'NONE',  ( 1.000000000000000000, -0.000000000000000000, -0.000000000000000000 ) ) ;
#664 = ORIENTED_EDGE ( 'NONE', *, *, #88, .T. ) ;
#665 = EDGE_CURVE ( 'NONE', #309, #397, #645, .T. ) ;
#666 = CARTESIAN_POINT ( 'NONE',  ( 25.36751345948136560, 20.00000000000000711, 15.00000000000000000 ) ) ;
#667 = VECTOR ( 'NONE', #18, 1000.000000000000000 ) ;
#668 = LINE ( 'NONE', #228, #540 ) ;
#669 = ORIENTED_EDGE ( 'NONE', *, *, #861, .T. ) ;
#670 = PLANE ( 'NONE',  #563 ) ;
#671 = EDGE_CURVE ( 'NONE', #114, #889, #440, .T. ) ;
#672 = FACE_OUTER_BOUND ( 'NONE', #702, .T. ) ;
#673 = CYLINDRICAL_SURFACE ( 'NONE', #906, 25.25000000000000000 ) ;
#674 = ORIENTED_EDGE ( 'NONE', *, *, #712, .F. ) ;
#675 = PERSON_AND_ORGANIZATION_ROLE ( 'design_owner' ) ;
#676 = ADVANCED_FACE ( 'NONE', ( #374 ), #903, .F. ) ;
#677 = DIRECTION ( 'NONE',  ( 1.000000000000000000, 0.000000000000000000, -0.000000000000000000 ) ) ;
#678 = ORGANIZATION ( 'UNSPECIFIED', 'UNSPECIFIED', '' ) ;
#679 = DIRECTION ( 'NONE',  ( 1.000000000000000000, 0.000000000000000000, 0.000000000000000000 ) ) ;
#680 = ORIENTED_EDGE ( 'NONE', *, *, #740, .T. ) ;
#681 = ORIENTED_EDGE ( 'NONE', *, *, #289, .F. ) ;
#682 = DIRECTION ( 'NONE',  ( 1.000000000000000000, 0.000000000000000000, 0.000000000000000000 ) ) ;
#683 = CARTESIAN_POINT ( 'NONE',  ( 4.683756729740694347, -20.00000000000001066, 12.50000000000000000 ) ) ;
#684 = FACE_OUTER_BOUND ( 'NONE', #1097, .T. ) ;
#685 = EDGE_LOOP ( 'NONE', ( #917, #746, #385, #816 ) ) ;
#686 = VECTOR ( 'NONE', #551, 1000.000000000000114 ) ;
#687 = CIRCLE ( 'NONE', #197, 2.250000000000001776 ) ;
#688 = CARTESIAN_POINT ( 'NONE',  ( 2.449293598294706513E-15, -20.00000000000000000, 55.10000000000000853 ) ) ;
#689 = CARTESIAN_POINT ( 'NONE',  ( 4.683756729740692570, -2.000000000000010658, 12.50000000000000355 ) ) ;
#690 = FACE_OUTER_BOUND ( 'NONE', #831, .T. ) ;
#691 = EDGE_CURVE ( 'NONE', #865, #331, #1013, .T. ) ;
#692 = ORIENTED_EDGE ( 'NONE', *, *, #775, .F. ) ;
#693 = DIRECTION ( 'NONE',  ( 0.000000000000000000, 0.000000000000000000, -1.000000000000000000 ) ) ;
#694 = CARTESIAN_POINT ( 'NONE',  ( 31.68375672974069346, -10.00000000000001066, 47.50000000000000711 ) ) ;
#695 = DIRECTION ( 'NONE',  ( 0.000000000000000000, 1.000000000000000000, 0.000000000000000000 ) ) ;
#696 = ORIENTED_EDGE ( 'NONE', *, *, #768, .T. ) ;
#697 = CALENDAR_DATE ( 2025, 17, 12 ) ;
#698 = EDGE_CURVE ( 'NONE', #715, #201, #233, .T. ) ;
#699 = ORIENTED_EDGE ( 'NONE', *, *, #117, .T. ) ;
#700 = CARTESIAN_POINT ( 'NONE',  ( 31.68375672974069346, -10.00000000000000533, 12.50000000000000178 ) ) ;
#701 = DIRECTION ( 'NONE',  ( 0.000000000000000000, 0.000000000000000000, -1.000000000000000000 ) ) ;
#702 = EDGE_LOOP ( 'NONE', ( #599, #585, #449, #1122 ) ) ;
#703 = FACE_OUTER_BOUND ( 'NONE', #512, .T. ) ;
#704 = CIRCLE ( 'NONE', #647, 2.250000000000001776 ) ;
#705 = DIRECTION ( 'NONE',  ( 0.000000000000000000, 1.561251128379126631E-16, -1.000000000000000000 ) ) ;
#706 = ADVANCED_FACE ( 'NONE', ( #672 ), #1018, .F. ) ;
#707 = AXIS2_PLACEMENT_3D ( 'NONE', #632, #442, #535 ) ;
#708 = DIRECTION ( 'NONE',  ( 0.000000000000000000, 1.000000000000000000, 0.000000000000000000 ) ) ;
#709 = ORIENTED_EDGE ( 'NONE', *, *, #105, .F. ) ;
#710 = FACE_OUTER_BOUND ( 'NONE', #835, .T. ) ;
#711 = DIRECTION ( 'NONE',  ( 0.000000000000000000, 0.000000000000000000, -1.000000000000000000 ) ) ;
#712 = EDGE_CURVE ( 'NONE', #715, #725, #145, .T. ) ;
#713 = CIRCLE ( 'NONE', #372, 2.250000000000001776 ) ;
#714 = LINE ( 'NONE', #724, #232 ) ;
#715 = VERTEX_POINT ( 'NONE', #1119 ) ;
#716 = DIRECTION ( 'NONE',  ( 0.000000000000000000, 0.000000000000000000, -1.000000000000000000 ) ) ;
#717 = FACE_OUTER_BOUND ( 'NONE', #171, .T. ) ;
#718 = DIRECTION ( 'NONE',  ( 0.000000000000000000, -0.000000000000000000, 1.000000000000000000 ) ) ;
#719 = ORIENTED_EDGE ( 'NONE', *, *, #407, .F. ) ;
#720 = FACE_BOUND ( 'NONE', #9, .T. ) ;
#721 = AXIS2_PLACEMENT_3D ( 'NONE', #557, #132, #50 ) ;
#722 = AXIS2_PLACEMENT_3D ( 'NONE', #356, #279, #19 ) ;
#723 = CIRCLE ( 'NONE', #595, 2.250000000000001776 ) ;
#724 = CARTESIAN_POINT ( 'NONE',  ( 0.000000000000000000, -20.00000000000000000, 1.000000000000000666 ) ) ;
#725 = VERTEX_POINT ( 'NONE', #127 ) ;
#726 = AXIS2_PLACEMENT_3D ( 'NONE', #1093, #682, #495 ) ;
#727 = CARTESIAN_POINT ( 'NONE',  ( 33.36751345948136560, 5.000000000000006217, 32.25000000000000000 ) ) ;
#728 = AXIS2_PLACEMENT_3D ( 'NONE', #764, #1050, #875 ) ;
#729 = DIRECTION ( 'NONE',  ( -1.224646799147353207E-16, 1.000000000000000000, 1.561251128379126631E-16 ) ) ;
#730 = ORIENTED_EDGE ( 'NONE', *, *, #499, .T. ) ;
#731 = CARTESIAN_POINT ( 'NONE',  ( 4.683756729740692570, -2.000000000000015543, 47.50000000000000711 ) ) ;
#732 = EDGE_CURVE ( 'NONE', #783, #612, #822, .T. ) ;
#733 = LINE ( 'NONE', #938, #591 ) ;
#734 = ORIENTED_EDGE ( 'NONE', *, *, #135, .T. ) ;
#735 = DIRECTION ( 'NONE',  ( 0.000000000000000000, 0.000000000000000000, -1.000000000000000000 ) ) ;
#736 = CC_DESIGN_APPROVAL ( #95, ( #828 ) ) ;
#737 = ORIENTED_EDGE ( 'NONE', *, *, #117, .F. ) ;
#738 =( NAMED_UNIT ( * ) SI_UNIT ( $, .STERADIAN. ) SOLID_ANGLE_UNIT ( ) );
#739 = PRODUCT_DEFINITION_SHAPE ( 'NONE', 'NONE',  #745 ) ;
#740 = EDGE_CURVE ( 'NONE', #201, #1000, #733, .T. ) ;
#741 = ORIENTED_EDGE ( 'NONE', *, *, #532, .T. ) ;
#742 = CARTESIAN_POINT ( 'NONE',  ( 33.36751345948136560, 20.00000000000001066, 55.25000000000000000 ) ) ;
#743 = EDGE_LOOP ( 'NONE', ( #424, #680, #498, #639 ) ) ;
#744 = LINE ( 'NONE', #230, #529 ) ;
#745 = PRODUCT_DEFINITION ( 'UNKNOWN', '', #432, #769 ) ;
#746 = ORIENTED_EDGE ( 'NONE', *, *, #24, .T. ) ;
#747 = DIRECTION ( 'NONE',  ( 0.000000000000000000, 0.000000000000000000, 1.000000000000000000 ) ) ;
#748 = EDGE_LOOP ( 'NONE', ( #930, #475 ) ) ;
#749 = CARTESIAN_POINT ( 'NONE',  ( 25.36751345948136560, 20.00000000000000355, 45.00000000000000000 ) ) ;
#750 = APPROVAL_PERSON_ORGANIZATION ( #790, #95, #963 ) ;
#751 = CARTESIAN_POINT ( 'NONE',  ( 31.68375672974069346, -2.000000000000011546, 45.25000000000000711 ) ) ;
#752 = ADVANCED_FACE ( 'NONE', ( #155 ), #574, .F. ) ;
#753 = EDGE_LOOP ( 'NONE', ( #912, #166, #462, #1007 ) ) ;
#754 = APPLICATION_PROTOCOL_DEFINITION ( 'international standard', 'config_control_design', 1994, #538 ) ;
#755 = DIRECTION ( 'NONE',  ( -0.000000000000000000, -0.000000000000000000, -1.000000000000000000 ) ) ;
#756 = CARTESIAN_POINT ( 'NONE',  ( 36.36751345948136560, -20.00000000000000000, 1.000000000000000666 ) ) ;
#757 = AXIS2_PLACEMENT_3D ( 'NONE', #119, #523, #617 ) ;
#758 = EDGE_LOOP ( 'NONE', ( #664, #669 ) ) ;
#759 = AXIS2_PLACEMENT_3D ( 'NONE', #700, #107, #7 ) ;
#760 = CARTESIAN_POINT ( 'NONE',  ( 25.36751345948136560, 5.000000000000006217, 32.25000000000000000 ) ) ;
#761 = FACE_OUTER_BOUND ( 'NONE', #1065, .T. ) ;
#762 = ORIENTED_EDGE ( 'NONE', *, *, #877, .T. ) ;
#763 = PERSON_AND_ORGANIZATION ( #381, #678 ) ;
#764 = CARTESIAN_POINT ( 'NONE',  ( 31.68375672974069346, -10.00000000000001066, 47.50000000000000711 ) ) ;
#765 = CIRCLE ( 'NONE', #239, 2.250000000000001776 ) ;
#766 = DIRECTION ( 'NONE',  ( 0.000000000000000000, 1.561251128379126631E-16, -1.000000000000000000 ) ) ;
#767 = FACE_OUTER_BOUND ( 'NONE', #618, .T. ) ;
#768 = EDGE_CURVE ( 'NONE', #1015, #57, #482, .T. ) ;
#769 = DESIGN_CONTEXT ( 'detailed design', #990, 'design' ) ;
#770 = CARTESIAN_POINT ( 'NONE',  ( 25.36751345948136560, 20.00000000000000355, 42.74999999999999289 ) ) ;
#771 = VERTEX_POINT ( 'NONE', #760 ) ;
#772 = DATE_AND_TIME ( #697, #973 ) ;
#773 = ORIENTED_EDGE ( 'NONE', *, *, #182, .T. ) ;
#774 = LINE ( 'NONE', #794, #493 ) ;
#775 = EDGE_CURVE ( 'NONE', #352, #309, #932, .T. ) ;
#776 = AXIS2_PLACEMENT_3D ( 'NONE', #122, #642, #908 ) ;
#777 = FACE_BOUND ( 'NONE', #343, .T. ) ;
#778 = ORIENTED_EDGE ( 'NONE', *, *, #1019, .T. ) ;
#779 = LINE ( 'NONE', #1044, #447 ) ;
#781 = FACE_OUTER_BOUND ( 'NONE', #131, .T. ) ;
#780 = VECTOR ( 'NONE', #76, 1000.000000000000000 ) ;
#782 = DIRECTION ( 'NONE',  ( 1.000000000000000000, 0.000000000000000000, 0.000000000000000000 ) ) ;
#783 = VERTEX_POINT ( 'NONE', #850 ) ;
#784 = CALENDAR_DATE ( 2025, 17, 12 ) ;
#785 = ORIENTED_EDGE ( 'NONE', *, *, #567, .T. ) ;
#786 = VECTOR ( 'NONE', #982, 1000.000000000000000 ) ;
#787 = CARTESIAN_POINT ( 'NONE',  ( 33.36751345948136560, 20.00000000000000355, 42.74999999999999289 ) ) ;
#788 = DIRECTION ( 'NONE',  ( 1.000000000000000000, -0.000000000000000000, -0.000000000000000000 ) ) ;
#789 = ORIENTED_EDGE ( 'NONE', *, *, #167, .F. ) ;
#790 = PERSON_AND_ORGANIZATION ( #381, #678 ) ;
#791 = EDGE_CURVE ( 'NONE', #287, #725, #589, .T. ) ;
#792 = VERTEX_POINT ( 'NONE', #408 ) ;
#793 = AXIS2_PLACEMENT_3D ( 'NONE', #926, #150, #848 ) ;
#794 = CARTESIAN_POINT ( 'NONE',  ( 1.224646799147355229E-15, -10.00000000000001776, 60.00000000000000000 ) ) ;
#795 = DIRECTION ( 'NONE',  ( 0.000000000000000000, 1.927470528863117569E-16, -1.000000000000000000 ) ) ;
#796 = ORIENTED_EDGE ( 'NONE', *, *, #665, .T. ) ;
#797 = DIRECTION ( 'NONE',  ( 0.000000000000000000, 0.000000000000000000, -1.000000000000000000 ) ) ;
#798 = APPROVAL ( #913, 'UNSPECIFIED' ) ;
#799 = AXIS2_PLACEMENT_3D ( 'NONE', #163, #782, #516 ) ;
#800 = AXIS2_PLACEMENT_3D ( 'NONE', #508, #260, #966 ) ;
#801 = CARTESIAN_POINT ( 'NONE',  ( 25.36751345948136560, 35.00000000000000711, 27.75000000000000000 ) ) ;
#802 = CIRCLE ( 'NONE', #799, 2.250000000000001776 ) ;
#803 = FACE_OUTER_BOUND ( 'NONE', #411, .T. ) ;
#804 = ORIENTED_EDGE ( 'NONE', *, *, #293, .T. ) ;
#805 = LINE ( 'NONE', #115, #561 ) ;
#806 = ORIENTED_EDGE ( 'NONE', *, *, #1111, .F. ) ;
#807 = CLOSED_SHELL ( 'NONE', ( #446, #222, #706, #575, #1037, #360, #1104, #981, #428, #509, #366, #839, #420, #943, #437, #308, #478, #544, #1095, #472, #205, #1026, #967, #226, #53, #752, #812, #147, #1012, #231, #676, #608, #451, #993, #654, #933, #1059, #525 ) ) ;
#808 = DIRECTION ( 'NONE',  ( 0.000000000000000000, 1.000000000000000000, 0.000000000000000000 ) ) ;
#809 = ORIENTED_EDGE ( 'NONE', *, *, #293, .F. ) ;
#810 = DIRECTION ( 'NONE',  ( 1.000000000000000000, 0.000000000000000000, 0.000000000000000000 ) ) ;
#811 = CIRCLE ( 'NONE', #1049, 2.250000000000001776 ) ;
#812 = ADVANCED_FACE ( 'NONE', ( #767 ), #354, .F. ) ;
#813 = CYLINDRICAL_SURFACE ( 'NONE', #383, 2.250000000000001776 ) ;
#814 = ORIENTED_EDGE ( 'NONE', *, *, #600, .F. ) ;
#815 = PLANE ( 'NONE',  #637 ) ;
#816 = ORIENTED_EDGE ( 'NONE', *, *, #827, .F. ) ;
#817 = VECTOR ( 'NONE', #954, 1000.000000000000000 ) ;
#818 = VECTOR ( 'NONE', #1108, 1000.000000000000000 ) ;
#819 = DIRECTION ( 'NONE',  ( -0.000000000000000000, -0.000000000000000000, -1.000000000000000000 ) ) ;
#820 = VERTEX_POINT ( 'NONE', #947 ) ;
#821 = LINE ( 'NONE', #106, #521 ) ;
#822 = LINE ( 'NONE', #456, #939 ) ;
#823 = ORIENTED_EDGE ( 'NONE', *, *, #671, .T. ) ;
#824 = CARTESIAN_POINT ( 'NONE',  ( 25.36751345948136560, 20.00000000000000711, 15.00000000000000000 ) ) ;
#825 = ORIENTED_EDGE ( 'NONE', *, *, #558, .F. ) ;
#826 = COORDINATED_UNIVERSAL_TIME_OFFSET ( 0, 0, .AHEAD. ) ;
#827 = EDGE_CURVE ( 'NONE', #946, #985, #704, .T. ) ;
#828 = SECURITY_CLASSIFICATION ( '', '', #872 ) ;
#829 = ORIENTED_EDGE ( 'NONE', *, *, #315, .F. ) ;
#830 = DIRECTION ( 'NONE',  ( 0.000000000000000000, 0.000000000000000000, -1.000000000000000000 ) ) ;
#831 = EDGE_LOOP ( 'NONE', ( #1094, #944, #952, #123 ) ) ;
#832 = PERSON_AND_ORGANIZATION ( #381, #678 ) ;
#833 = EDGE_CURVE ( 'NONE', #164, #377, #271, .T. ) ;
#834 = AXIS2_PLACEMENT_3D ( 'NONE', #157, #257, #584 ) ;
#835 = EDGE_LOOP ( 'NONE', ( #719, #1115, #294, #120 ) ) ;
#836 = CARTESIAN_POINT ( 'NONE',  ( 0.000000000000000000, -20.00000000000000000, 59.00000000000000000 ) ) ;
#837 = ORIENTED_EDGE ( 'NONE', *, *, #646, .F. ) ;
#838 = CARTESIAN_POINT ( 'NONE',  ( 0.000000000000000000, 0.000000000000000000, 0.000000000000000000 ) ) ;
#839 = ADVANCED_FACE ( 'NONE', ( #102 ), #597, .F. ) ;
#840 = AXIS2_PLACEMENT_3D ( 'NONE', #86, #880, #82 ) ;
#841 = DIRECTION ( 'NONE',  ( 1.000000000000000000, -0.000000000000000000, -0.000000000000000000 ) ) ;
#842 = ORIENTED_EDGE ( 'NONE', *, *, #833, .T. ) ;
#843 = FACE_OUTER_BOUND ( 'NONE', #335, .T. ) ;
#844 = DIRECTION ( 'NONE',  ( -1.224646799147353207E-16, 1.000000000000000000, 1.561251128379126631E-16 ) ) ;
#845 = CC_DESIGN_PERSON_AND_ORGANIZATION_ASSIGNMENT ( #341, #347, ( #828 ) ) ;
#846 = DIRECTION ( 'NONE',  ( 1.000000000000000000, 0.000000000000000000, -0.000000000000000000 ) ) ;
#847 = ORIENTED_EDGE ( 'NONE', *, *, #237, .T. ) ;
#848 = DIRECTION ( 'NONE',  ( 0.000000000000000000, 0.000000000000000000, -1.000000000000000000 ) ) ;
#849 = CARTESIAN_POINT ( 'NONE',  ( 0.000000000000000000, 0.000000000000000000, 55.10000000000000853 ) ) ;
#850 = CARTESIAN_POINT ( 'NONE',  ( 36.36751345948137271, -20.00000000000000355, 4.899999999999997691 ) ) ;
#851 = VECTOR ( 'NONE', #819, 1000.000000000000000 ) ;
#852 = DIRECTION ( 'NONE',  ( 0.000000000000000000, 0.000000000000000000, 1.000000000000000000 ) ) ;
#853 = ORIENTED_EDGE ( 'NONE', *, *, #1078, .F. ) ;
#854 = DIRECTION ( 'NONE',  ( 0.000000000000000000, 1.000000000000000000, 0.000000000000000000 ) ) ;
#855 = CARTESIAN_POINT ( 'NONE',  ( 31.68375672974069346, -10.00000000000000533, 10.25000000000000000 ) ) ;
#856 = CARTESIAN_POINT ( 'NONE',  ( 28.86751345948136560, 50.00000000000000000, 1.000000000000000888 ) ) ;
#857 = CARTESIAN_POINT ( 'NONE',  ( 2.449293598294706513E-15, -20.00000000000000000, 60.00000000000000000 ) ) ;
#858 = ORIENTED_EDGE ( 'NONE', *, *, #582, .F. ) ;
#859 = VERTEX_POINT ( 'NONE', #1045 ) ;
#860 = AXIS2_PLACEMENT_3D ( 'NONE', #208, #33, #543 ) ;
#861 = EDGE_CURVE ( 'NONE', #562, #859, #723, .T. ) ;
#862 = DIRECTION ( 'NONE',  ( 1.000000000000000000, 0.000000000000000000, 0.000000000000000000 ) ) ;
#863 = LOCAL_TIME ( 10, 20, 48.00000000000000000, #330 ) ;
#864 = PLANE ( 'NONE',  #2 ) ;
#865 = VERTEX_POINT ( 'NONE', #94 ) ;
#866 = PERSON_AND_ORGANIZATION ( #381, #678 ) ;
#867 = DIRECTION ( 'NONE',  ( 1.224646799147353454E-16, -1.000000000000000000, -1.727812227068533030E-16 ) ) ;
#868 = CC_DESIGN_PERSON_AND_ORGANIZATION_ASSIGNMENT ( #5, #1116, ( #432 ) ) ;
#869 = CARTESIAN_POINT ( 'NONE',  ( 31.68375672974069346, -2.000000000000006661, 10.25000000000000178 ) ) ;
#870 = CYLINDRICAL_SURFACE ( 'NONE', #553, 2.250000000000001776 ) ;
#871 = VERTEX_POINT ( 'NONE', #425 ) ;
#872 = SECURITY_CLASSIFICATION_LEVEL ( 'unclassified' ) ;
#873 = CIRCLE ( 'NONE', #722, 2.250000000000001776 ) ;
#874 = CIRCLE ( 'NONE', #759, 2.250000000000001776 ) ;
#875 = DIRECTION ( 'NONE',  ( 0.000000000000000000, 0.000000000000000000, 1.000000000000000000 ) ) ;
#876 = PLANE ( 'NONE',  #156 ) ;
#877 = EDGE_CURVE ( 'NONE', #859, #323, #161, .T. ) ;
#878 = FACE_OUTER_BOUND ( 'NONE', #962, .T. ) ;
#879 = EDGE_LOOP ( 'NONE', ( #674, #1047, #32, #949 ) ) ;
#880 = DIRECTION ( 'NONE',  ( 1.224646799147353207E-16, -1.000000000000000000, -1.561251128379126631E-16 ) ) ;
#881 = VECTOR ( 'NONE', #587, 1000.000000000000000 ) ;
#882 = DIRECTION ( 'NONE',  ( 0.000000000000000000, 1.927470528863117569E-16, -1.000000000000000000 ) ) ;
#883 = LINE ( 'NONE', #103, #441 ) ;
#884 = ORIENTED_EDGE ( 'NONE', *, *, #490, .T. ) ;
#885 = DIRECTION ( 'NONE',  ( 1.000000000000000000, 0.000000000000000000, 0.000000000000000000 ) ) ;
#886 = FACE_OUTER_BOUND ( 'NONE', #606, .T. ) ;
#887 = CC_DESIGN_SECURITY_CLASSIFICATION ( #828, ( #432 ) ) ;
#888 = LINE ( 'NONE', #109, #126 ) ;
#889 = VERTEX_POINT ( 'NONE', #83 ) ;
#890 = FACE_OUTER_BOUND ( 'NONE', #443, .T. ) ;
#891 = VECTOR ( 'NONE', #290, 1000.000000000000000 ) ;
#892 = VECTOR ( 'NONE', #513, 1000.000000000000000 ) ;
#893 = DIRECTION ( 'NONE',  ( 0.000000000000000000, 0.000000000000000000, -1.000000000000000000 ) ) ;
#894 = ORIENTED_EDGE ( 'NONE', *, *, #646, .T. ) ;
#895 = LINE ( 'NONE', #1056, #971 ) ;
#896 = EDGE_CURVE ( 'NONE', #995, #946, #350, .T. ) ;
#897 = AXIS2_PLACEMENT_3D ( 'NONE', #901, #121, #444 ) ;
#898 = FACE_OUTER_BOUND ( 'NONE', #196, .T. ) ;
#899 = ORIENTED_EDGE ( 'NONE', *, *, #414, .T. ) ;
#900 = VECTOR ( 'NONE', #566, 1000.000000000000000 ) ;
#901 = CARTESIAN_POINT ( 'NONE',  ( 25.36751345948136560, 20.00000000000000711, 15.00000000000000000 ) ) ;
#902 = EDGE_CURVE ( 'NONE', #158, #783, #502, .T. ) ;
#903 = CYLINDRICAL_SURFACE ( 'NONE', #52, 2.250000000000001776 ) ;
#904 = ORIENTED_EDGE ( 'NONE', *, *, #327, .T. ) ;
#905 = CARTESIAN_POINT ( 'NONE',  ( 31.68375672974069346, -10.00000000000000533, 14.75000000000000355 ) ) ;
#906 = AXIS2_PLACEMENT_3D ( 'NONE', #1046, #334, #261 ) ;
#907 = CIRCLE ( 'NONE', #515, 2.250000000000001776 ) ;
#908 = DIRECTION ( 'NONE',  ( 0.000000000000000000, 0.000000000000000000, 1.000000000000000000 ) ) ;
#909 = ORIENTED_EDGE ( 'NONE', *, *, #355, .T. ) ;
#910 = EDGE_CURVE ( 'NONE', #375, #80, #774, .T. ) ;
#911 = DIRECTION ( 'NONE',  ( 1.000000000000000000, 0.000000000000000000, 0.000000000000000000 ) ) ;
#912 = ORIENTED_EDGE ( 'NONE', *, *, #281, .F. ) ;
#913 = APPROVAL_STATUS ( 'not_yet_approved' ) ;
#914 = ORIENTED_EDGE ( 'NONE', *, *, #315, .T. ) ;
#915 = CC_DESIGN_PERSON_AND_ORGANIZATION_ASSIGNMENT ( #586, #179, ( #745 ) ) ;
#916 = DIRECTION ( 'NONE',  ( -1.224646799147353207E-16, 1.000000000000000000, 1.561251128379126631E-16 ) ) ;
#917 = ORIENTED_EDGE ( 'NONE', *, *, #896, .F. ) ;
#918 = DIRECTION ( 'NONE',  ( 0.000000000000000000, 0.000000000000000000, -1.000000000000000000 ) ) ;
#919 = AXIS2_PLACEMENT_3D ( 'NONE', #378, #652, #918 ) ;
#920 = EDGE_LOOP ( 'NONE', ( #387, #653 ) ) ;
#921 = DIRECTION ( 'NONE',  ( 1.000000000000000000, 0.000000000000000000, 0.000000000000000000 ) ) ;
#922 = ORIENTED_EDGE ( 'NONE', *, *, #662, .F. ) ;
#923 = DIRECTION ( 'NONE',  ( 1.224646799147353207E-16, -1.000000000000000000, -1.561251128379126631E-16 ) ) ;
#924 = CARTESIAN_POINT ( 'NONE',  ( 33.36751345948136560, 20.00000000000000711, 30.00000000000000000 ) ) ;
#925 = VERTEX_POINT ( 'NONE', #787 ) ;
#926 = CARTESIAN_POINT ( 'NONE',  ( 36.36751345948136560, 20.00000000000000711, 30.00000000000000000 ) ) ;
#927 = CARTESIAN_POINT ( 'NONE',  ( 36.36751345948137271, -30.00000000000002487, 55.10000000000000853 ) ) ;
#928 = AXIS2_PLACEMENT_3D ( 'NONE', #212, #1085, #735 ) ;
#929 = CARTESIAN_POINT ( 'NONE',  ( 0.000000000000000000, -20.00000000000000000, 1.000000000000000666 ) ) ;
#930 = ORIENTED_EDGE ( 'NONE', *, *, #987, .F. ) ;
#931 = DIRECTION ( 'NONE',  ( 0.000000000000000000, 0.000000000000000000, 1.000000000000000000 ) ) ;
#932 = LINE ( 'NONE', #151, #550 ) ;
#933 = ADVANCED_FACE ( 'NONE', ( #12 ), #876, .T. ) ;
#934 = CARTESIAN_POINT ( 'NONE',  ( 36.36751345948136560, 50.00000000000000000, 60.00000000000000000 ) ) ;
#935 = ORIENTED_EDGE ( 'NONE', *, *, #237, .F. ) ;
#936 = LINE ( 'NONE', #1117, #146 ) ;
#937 = CARTESIAN_POINT ( 'NONE',  ( 31.68375672974069346, -2.000000000000007105, 12.50000000000000355 ) ) ;
#938 = CARTESIAN_POINT ( 'NONE',  ( 36.36751345948136560, 50.00000000000000000, 59.00000000000000000 ) ) ;
#939 = VECTOR ( 'NONE', #312, 1000.000000000000000 ) ;
#940 = AXIS2_PLACEMENT_3D ( 'NONE', #683, #844, #66 ) ;
#941 = CIRCLE ( 'NONE', #401, 25.25000000000000000 ) ;
#942 = CARTESIAN_POINT ( 'NONE',  ( 31.68375672974069346, -2.000000000000012434, 49.75000000000000711 ) ) ;
#943 = ADVANCED_FACE ( 'NONE', ( #781, #168 ), #972, .F. ) ;
#944 = ORIENTED_EDGE ( 'NONE', *, *, #691, .T. ) ;
#945 = DATE_AND_TIME ( #1029, #863 ) ;
#946 = VERTEX_POINT ( 'NONE', #869 ) ;
#947 = CARTESIAN_POINT ( 'NONE',  ( 33.36751345948136560, 5.000000000000006217, 27.74999999999999289 ) ) ;
#948 = DIRECTION ( 'NONE',  ( 0.000000000000000000, -0.000000000000000000, 1.000000000000000000 ) ) ;
#949 = ORIENTED_EDGE ( 'NONE', *, *, #791, .T. ) ;
#950 = APPROVAL_STATUS ( 'not_yet_approved' ) ;
#951 = EDGE_CURVE ( 'NONE', #367, #331, #251, .T. ) ;
#952 = ORIENTED_EDGE ( 'NONE', *, *, #951, .F. ) ;
#953 = EDGE_CURVE ( 'NONE', #190, #995, #874, .T. ) ;
#954 = DIRECTION ( 'NONE',  ( 1.224646799147353207E-16, -1.000000000000000000, -0.000000000000000000 ) ) ;
#955 = LINE ( 'NONE', #497, #594 ) ;
#956 = EDGE_LOOP ( 'NONE', ( #211, #14 ) ) ;
#957 = COORDINATED_UNIVERSAL_TIME_OFFSET ( 0, 0, .AHEAD. ) ;
#958 = ORIENTED_EDGE ( 'NONE', *, *, #1063, .F. ) ;
#959 = CARTESIAN_POINT ( 'NONE',  ( 25.36751345948136560, 5.000000000000006217, 29.99999999999999645 ) ) ;
#960 = EDGE_CURVE ( 'NONE', #352, #871, #907, .T. ) ;
#961 = CARTESIAN_POINT ( 'NONE',  ( 33.36751345948136560, 20.00000000000000711, 30.00000000000000000 ) ) ;
#962 = EDGE_LOOP ( 'NONE', ( #734, #778, #829, #224 ) ) ;
#963 = APPROVAL_ROLE ( '' ) ;
#964 = AXIS2_PLACEMENT_3D ( 'NONE', #510, #3, #852 ) ;
#965 = CARTESIAN_POINT ( 'NONE',  ( 25.36751345948136560, 20.00000000000000711, 15.00000000000000000 ) ) ;
#966 = DIRECTION ( 'NONE',  ( 0.000000000000000000, 0.000000000000000000, 1.000000000000000000 ) ) ;
#967 = ADVANCED_FACE ( 'NONE', ( #886 ), #23, .T. ) ;
#968 = CARTESIAN_POINT ( 'NONE',  ( 25.36751345948136560, 5.000000000000006217, 27.74999999999999289 ) ) ;
#969 = ORIENTED_EDGE ( 'NONE', *, *, #30, .F. ) ;
#970 = CARTESIAN_POINT ( 'NONE',  ( 36.36751345948136560, 50.00000000000000000, 1.000000000000000888 ) ) ;
#971 = VECTOR ( 'NONE', #21, 1000.000000000000000 ) ;
#972 = PLANE ( 'NONE',  #800 ) ;
#973 = LOCAL_TIME ( 10, 20, 48.00000000000000000, #957 ) ;
#974 = FACE_OUTER_BOUND ( 'NONE', #1053, .T. ) ;
#975 = EDGE_LOOP ( 'NONE', ( #593, #804, #773, #969 ) ) ;
#976 = CARTESIAN_POINT ( 'NONE',  ( 36.36751345948136560, -10.00000000000000355, 4.899999999999997691 ) ) ;
#977 = VERTEX_POINT ( 'NONE', #181 ) ;
#978 = DIRECTION ( 'NONE',  ( -1.224646799147353207E-16, 1.000000000000000000, 1.561251128379126631E-16 ) ) ;
#979 = LINE ( 'NONE', #530, #459 ) ;
#980 = VERTEX_POINT ( 'NONE', #520 ) ;
#981 = ADVANCED_FACE ( 'NONE', ( #843 ), #580, .F. ) ;
#982 = DIRECTION ( 'NONE',  ( -1.000000000000000000, -1.224646799147353454E-16, -0.000000000000000000 ) ) ;
#983 = AXIS2_PLACEMENT_3D ( 'NONE', #1058, #438, #603 ) ;
#984 = DIRECTION ( 'NONE',  ( 1.000000000000000000, -0.000000000000000000, -0.000000000000000000 ) ) ;
#985 = VERTEX_POINT ( 'NONE', #588 ) ;
#986 = CARTESIAN_POINT ( 'NONE',  ( 28.86751345948136560, 50.00000000000000000, 59.00000000000000000 ) ) ;
#987 = EDGE_CURVE ( 'NONE', #820, #235, #1057, .T. ) ;
#988 = CARTESIAN_POINT ( 'NONE',  ( 2.449293598294706513E-15, -20.00000000000000000, 4.900000000000001243 ) ) ;
#989 = ORIENTED_EDGE ( 'NONE', *, *, #17, .F. ) ;
#990 = APPLICATION_CONTEXT ( 'configuration controlled 3d designs of mechanical parts and assemblies' ) ;
#991 = CARTESIAN_POINT ( 'NONE',  ( 33.36751345948136560, 20.00000000000000711, 4.749999999999997335 ) ) ;
#992 = DIRECTION ( 'NONE',  ( 0.000000000000000000, 0.000000000000000000, -1.000000000000000000 ) ) ;
#993 = ADVANCED_FACE ( 'NONE', ( #304 ), #65, .T. ) ;
#994 = DIRECTION ( 'NONE',  ( 1.000000000000000000, 0.000000000000000000, 0.000000000000000000 ) ) ;
#995 = VERTEX_POINT ( 'NONE', #855 ) ;
#996 = DIRECTION ( 'NONE',  ( 0.000000000000000000, 1.927470528863117569E-16, -1.000000000000000000 ) ) ;
#997 = AXIS2_PLACEMENT_3D ( 'NONE', #934, #410, #611 ) ;
#998 = ORIENTED_EDGE ( 'NONE', *, *, #953, .T. ) ;
#999 = CARTESIAN_POINT ( 'NONE',  ( 4.683756729740692570, -2.000000000000010214, 10.25000000000000178 ) ) ;
#1000 = VERTEX_POINT ( 'NONE', #1118 ) ;
#1001 = DIRECTION ( 'NONE',  ( -0.000000000000000000, -0.000000000000000000, -1.000000000000000000 ) ) ;
#1002 = AXIS2_PLACEMENT_3D ( 'NONE', #368, #27, #1076 ) ;
#1003 = AXIS2_PLACEMENT_3D ( 'NONE', #494, #596, #693 ) ;
#1004 = EDGE_LOOP ( 'NONE', ( #858, #681 ) ) ;
#1005 = CARTESIAN_POINT ( 'NONE',  ( 1.387778780781445676E-14, -10.00000000000000888, 4.899999999999997691 ) ) ;
#1006 = EDGE_CURVE ( 'NONE', #80, #57, #1017, .T. ) ;
#1007 = ORIENTED_EDGE ( 'NONE', *, *, #1006, .F. ) ;
#1008 = DIRECTION ( 'NONE',  ( 0.000000000000000000, 0.000000000000000000, 1.000000000000000000 ) ) ;
#1009 = LINE ( 'NONE', #46, #1033 ) ;
#1010 = EDGE_LOOP ( 'NONE', ( #914, #357 ) ) ;
#1011 = DIRECTION ( 'NONE',  ( 1.224646799147353207E-16, -1.000000000000000000, -1.561251128379126631E-16 ) ) ;
#1012 = ADVANCED_FACE ( 'NONE', ( #59 ), #659, .F. ) ;
#1013 = LINE ( 'NONE', #1106, #891 ) ;
#1014 = LINE ( 'NONE', #569, #1020 ) ;
#1015 = VERTEX_POINT ( 'NONE', #568 ) ;
#1016 = FACE_OUTER_BOUND ( 'NONE', #507, .T. ) ;
#1017 = LINE ( 'NONE', #849, #780 ) ;
#1018 = CYLINDRICAL_SURFACE ( 'NONE', #776, 2.250000000000001776 ) ;
#1019 = EDGE_CURVE ( 'NONE', #203, #404, #141, .T. ) ;
#1020 = VECTOR ( 'NONE', #479, 1000.000000000000000 ) ;
#1021 = LINE ( 'NONE', #1027, #296 ) ;
#1022 = ORIENTED_EDGE ( 'NONE', *, *, #549, .F. ) ;
#1023 = CARTESIAN_POINT ( 'NONE',  ( 25.36751345948136560, 20.00000000000000355, 45.00000000000000000 ) ) ;
#1024 = AXIS2_PLACEMENT_3D ( 'NONE', #749, #1110, #70 ) ;
#1025 = FACE_OUTER_BOUND ( 'NONE', #384, .T. ) ;
#1026 = ADVANCED_FACE ( 'NONE', ( #717 ), #1072, .F. ) ;
#1027 = CARTESIAN_POINT ( 'NONE',  ( 36.36751345948136560, -10.00000000000000355, 4.899999999999997691 ) ) ;
#1028 = ORIENTED_EDGE ( 'NONE', *, *, #732, .F. ) ;
#1029 = CALENDAR_DATE ( 2025, 17, 12 ) ;
#1030 = DIRECTION ( 'NONE',  ( 0.000000000000000000, 0.000000000000000000, -1.000000000000000000 ) ) ;
#1031 = DIRECTION ( 'NONE',  ( -1.224646799147353207E-16, 1.000000000000000000, 1.561251128379126631E-16 ) ) ;
#1032 = CARTESIAN_POINT ( 'NONE',  ( 25.36751345948136560, 35.00000000000000711, 32.25000000000000711 ) ) ;
#1033 = VECTOR ( 'NONE', #846, 1000.000000000000000 ) ;
#1034 = AXIS2_PLACEMENT_3D ( 'NONE', #452, #361, #795 ) ;
#1035 = CARTESIAN_POINT ( 'NONE',  ( 31.68375672974069346, -2.000000000000007105, 12.50000000000000355 ) ) ;
#1036 = ORIENTED_EDGE ( 'NONE', *, *, #691, .F. ) ;
#1037 = ADVANCED_FACE ( 'NONE', ( #283 ), #199, .F. ) ;
#1038 = CARTESIAN_POINT ( 'NONE',  ( 1.387778780781445676E-14, -10.00000000000001776, 55.10000000000000853 ) ) ;
#1039 = CARTESIAN_POINT ( 'NONE',  ( 31.68375672974069346, -2.000000000000007105, 12.50000000000000355 ) ) ;
#1040 = FACE_BOUND ( 'NONE', #748, .T. ) ;
#1041 = ORIENTED_EDGE ( 'NONE', *, *, #68, .T. ) ;
#1042 = VECTOR ( 'NONE', #313, 1000.000000000000000 ) ;
#1043 = EDGE_CURVE ( 'NONE', #331, #367, #811, .T. ) ;
#1044 = CARTESIAN_POINT ( 'NONE',  ( 4.683756729740694347, -20.00000000000001066, 14.75000000000000355 ) ) ;
#1045 = CARTESIAN_POINT ( 'NONE',  ( 25.36751345948136560, 35.00000000000000711, 27.75000000000000000 ) ) ;
#1046 = CARTESIAN_POINT ( 'NONE',  ( 33.36751345948136560, 20.00000000000000711, 30.00000000000000000 ) ) ;
#1047 = ORIENTED_EDGE ( 'NONE', *, *, #698, .T. ) ;
#1048 = DATE_TIME_ROLE ( 'classification_date' ) ;
#1049 = AXIS2_PLACEMENT_3D ( 'NONE', #209, #1011, #303 ) ;
#1050 = DIRECTION ( 'NONE',  ( 1.224646799147353454E-16, -1.000000000000000000, -1.727812227068533030E-16 ) ) ;
#1051 = DIRECTION ( 'NONE',  ( 1.224646799147353454E-16, -1.000000000000000000, -1.727812227068533030E-16 ) ) ;
#1052 = CARTESIAN_POINT ( 'NONE',  ( 36.36751345948136560, -20.00000000000000000, 59.00000000000000000 ) ) ;
#1053 = EDGE_LOOP ( 'NONE', ( #485, #177, #696, #909 ) ) ;
#1054 = VECTOR ( 'NONE', #148, 1000.000000000000000 ) ;
#1055 = VECTOR ( 'NONE', #656, 1000.000000000000000 ) ;
#1056 = CARTESIAN_POINT ( 'NONE',  ( 25.36751345948136560, 20.00000000000000711, 12.74999999999999822 ) ) ;
#1057 = CIRCLE ( 'NONE', #726, 2.250000000000001776 ) ;
#1058 = CARTESIAN_POINT ( 'NONE',  ( 36.36751345948137271, -30.00000000000001421, 4.899999999999997691 ) ) ;
#1059 = ADVANCED_FACE ( 'NONE', ( #1016 ), #670, .F. ) ;
#1060 = PLANE ( 'NONE',  #316 ) ;
#1061 = ORIENTED_EDGE ( 'NONE', *, *, #216, .T. ) ;
#1062 = DIRECTION ( 'NONE',  ( 0.000000000000000000, 0.000000000000000000, 1.000000000000000000 ) ) ;
#1063 = EDGE_CURVE ( 'NONE', #377, #792, #487, .T. ) ;
#1064 = CARTESIAN_POINT ( 'NONE',  ( 2.449293598294706513E-15, -20.00000000000000000, 60.00000000000000000 ) ) ;
#1065 = EDGE_LOOP ( 'NONE', ( #552, #91, #922, #546 ) ) ;
#1066 = LINE ( 'NONE', #186, #1042 ) ;
#1067 = CARTESIAN_POINT ( 'NONE',  ( 25.36751345948136560, 5.000000000000006217, 29.99999999999999645 ) ) ;
#1068 = CARTESIAN_POINT ( 'NONE',  ( 33.36751345948136560, 20.00000000000000711, 17.25000000000000000 ) ) ;
#1069 = CC_DESIGN_PERSON_AND_ORGANIZATION_ASSIGNMENT ( #866, #430, ( #432 ) ) ;
#1070 = ORIENTED_EDGE ( 'NONE', *, *, #1043, .T. ) ;
#1071 = CARTESIAN_POINT ( 'NONE',  ( 4.683756729740692570, -10.00000000000001421, 45.25000000000000711 ) ) ;
#1072 = CYLINDRICAL_SURFACE ( 'NONE', #191, 2.250000000000001776 ) ;
#1073 = AXIS2_PLACEMENT_3D ( 'NONE', #173, #413, #337 ) ;
#1074 = DIRECTION ( 'NONE',  ( 1.000000000000000000, 0.000000000000000000, 0.000000000000000000 ) ) ;
#1075 = EDGE_LOOP ( 'NONE', ( #218, #1070 ) ) ;
#1076 = DIRECTION ( 'NONE',  ( 0.000000000000000000, 1.561251128379126631E-16, -1.000000000000000000 ) ) ;
#1077 = DIRECTION ( 'NONE',  ( 1.000000000000000000, -0.000000000000000000, -0.000000000000000000 ) ) ;
#1078 = EDGE_CURVE ( 'NONE', #1000, #241, #744, .T. ) ;
#1079 = DIRECTION ( 'NONE',  ( 0.000000000000000000, 0.000000000000000000, -1.000000000000000000 ) ) ;
#1080 = ORIENTED_EDGE ( 'NONE', *, *, #88, .F. ) ;
#1081 = LOCAL_TIME ( 10, 20, 48.00000000000000000, #826 ) ;
#1082 = DIRECTION ( 'NONE',  ( 1.000000000000000000, -0.000000000000000000, -0.000000000000000000 ) ) ;
#1083 = DIRECTION ( 'NONE',  ( 1.000000000000000000, -0.000000000000000000, -0.000000000000000000 ) ) ;
#1084 = ORIENTED_EDGE ( 'NONE', *, *, #327, .F. ) ;
#1085 = DIRECTION ( 'NONE',  ( 1.000000000000000000, 0.000000000000000000, 0.000000000000000000 ) ) ;
#1086 = EDGE_LOOP ( 'NONE', ( #692, #254, #785, #453 ) ) ;
#1087 = APPLICATION_PROTOCOL_DEFINITION ( 'international standard', 'config_control_design', 1994, #990 ) ;
#1088 = AXIS2_PLACEMENT_3D ( 'NONE', #666, #994, #1079 ) ;
#1089 = EDGE_CURVE ( 'NONE', #626, #47, #58, .T. ) ;
#1090 = ORIENTED_EDGE ( 'NONE', *, *, #36, .F. ) ;
#1091 = LINE ( 'NONE', #129, #1054 ) ;
#1092 = EDGE_LOOP ( 'NONE', ( #823, #904 ) ) ;
#1093 = CARTESIAN_POINT ( 'NONE',  ( 33.36751345948136560, 5.000000000000006217, 29.99999999999999645 ) ) ;
#1094 = ORIENTED_EDGE ( 'NONE', *, *, #1100, .T. ) ;
#1095 = ADVANCED_FACE ( 'NONE', ( #394 ), #236, .T. ) ;
#1096 = DIRECTION ( 'NONE',  ( 0.000000000000000000, 0.000000000000000000, -1.000000000000000000 ) ) ;
#1097 = EDGE_LOOP ( 'NONE', ( #207, #571, #273, #154 ) ) ;
#1098 =( LENGTH_UNIT ( ) NAMED_UNIT ( * ) SI_UNIT ( .MILLI., .METRE. ) );
#1099 = APPROVAL_PERSON_ORGANIZATION ( #555, #798, #466 ) ;
#1100 = EDGE_CURVE ( 'NONE', #980, #865, #311, .T. ) ;
#1101 = CARTESIAN_POINT ( 'NONE',  ( 31.68375672974069346, -20.00000000000000355, 14.75000000000000355 ) ) ;
#1102 = ORIENTED_EDGE ( 'NONE', *, *, #532, .F. ) ;
#1103 = PRODUCT ( 'wedge', 'wedge', '', ( #398 ) ) ;
#1104 = ADVANCED_FACE ( 'NONE', ( #476 ), #225, .F. ) ;
#1105 = DIRECTION ( 'NONE',  ( 1.000000000000000000, -0.000000000000000000, -0.000000000000000000 ) ) ;
#1106 = CARTESIAN_POINT ( 'NONE',  ( 4.683756729740694347, -20.00000000000001066, 10.24999999999999822 ) ) ;
#1107 = AXIS2_PLACEMENT_3D ( 'NONE', #113, #365, #448 ) ;
#1108 = DIRECTION ( 'NONE',  ( -0.000000000000000000, -1.000000000000000000, -2.710505431213761085E-18 ) ) ;
#1109 = ORIENTED_EDGE ( 'NONE', *, *, #333, .T. ) ;
#1110 = DIRECTION ( 'NONE',  ( 1.000000000000000000, -0.000000000000000000, -0.000000000000000000 ) ) ;
#1111 = EDGE_CURVE ( 'NONE', #725, #340, #134, .T. ) ;
#1112 = DIRECTION ( 'NONE',  ( 1.224646799147353207E-16, -1.000000000000000000, -1.561251128379126631E-16 ) ) ;
#1113 = AXIS2_PLACEMENT_3D ( 'NONE', #619, #885, #359 ) ;
#1114 = DIRECTION ( 'NONE',  ( 0.000000000000000000, 0.000000000000000000, 1.000000000000000000 ) ) ;
#1115 = ORIENTED_EDGE ( 'NONE', *, *, #671, .F. ) ;
#1116 = PERSON_AND_ORGANIZATION_ROLE ( 'design_supplier' ) ;
#1117 = CARTESIAN_POINT ( 'NONE',  ( 36.36751345948136560, -20.00000000000000000, 59.00000000000000000 ) ) ;
#1118 = CARTESIAN_POINT ( 'NONE',  ( 36.36751345948136560, 50.00000000000000000, 59.00000000000000000 ) ) ;
#1119 = CARTESIAN_POINT ( 'NONE',  ( 0.000000000000000000, 0.000000000000000000, 59.00000000000000000 ) ) ;
#1120 = CYLINDRICAL_SURFACE ( 'NONE', #175, 2.250000000000001776 ) ;
#1121 = ORIENTED_EDGE ( 'NONE', *, *, #740, .F. ) ;
#1122 = ORIENTED_EDGE ( 'NONE', *, *, #567, .F. ) ;
ENDSEC;
END-ISO-10303-21;
