ISO-10303-21;
HEADER;
FILE_DESCRIPTION (( 'STEP AP203' ),
    '1' );
FILE_NAME ('wedge_actuator.STEP',
    '2025-12-17T10:20:29',
    ( '' ),
    ( '' ),
    'SwSTEP 2.0',
    'SolidWorks 2025',
    '' );
FILE_SCHEMA (( 'CONFIG_CONTROL_DESIGN' ));
ENDSEC;

DATA;
#1 = CARTESIAN_POINT ( 'NONE',  ( 30.18375672974067569, 80.00000000000000000, -19.00000000000000711 ) ) ;
#2 = DIRECTION ( 'NONE',  ( 1.000000000000000000, 0.000000000000000000, 0.000000000000000000 ) ) ;
#3 = VERTEX_POINT ( 'NONE', #627 ) ;
#4 = AXIS2_PLACEMENT_3D ( 'NONE', #220, #509, #50 ) ;
#5 = VECTOR ( 'NONE', #294, 1000.000000000000000 ) ;
#6 = APPROVAL ( #65, 'UNSPECIFIED' ) ;
#7 = CARTESIAN_POINT ( 'NONE',  ( 0.000000000000000000, 0.000000000000000000, 25.00000000000000000 ) ) ;
#8 = ORIENTED_EDGE ( 'NONE', *, *, #543, .F. ) ;
#9 = DIRECTION ( 'NONE',  ( -1.000000000000000000, 0.000000000000000000, 0.000000000000000000 ) ) ;
#10 = VERTEX_POINT ( 'NONE', #153 ) ;
#11 = DIRECTION ( 'NONE',  ( 0.000000000000000000, 0.000000000000000000, 1.000000000000000000 ) ) ;
#12 = ORIENTED_EDGE ( 'NONE', *, *, #508, .T. ) ;
#13 = EDGE_CURVE ( 'NONE', #337, #641, #74, .T. ) ;
#14 = VECTOR ( 'NONE', #624, 1000.000000000000000 ) ;
#15 = AXIS2_PLACEMENT_3D ( 'NONE', #500, #616, #330 ) ;
#16 = CC_DESIGN_APPROVAL ( #535, ( #661 ) ) ;
#17 = CARTESIAN_POINT ( 'NONE',  ( 6.183756729740676583, 72.00000000000001421, -16.75000000000000000 ) ) ;
#18 = ORIENTED_EDGE ( 'NONE', *, *, #413, .F. ) ;
#19 = CALENDAR_DATE ( 2025, 17, 12 ) ;
#20 = CARTESIAN_POINT ( 'NONE',  ( 30.18375672974067569, 80.00000000000000000, 19.00000000000000711 ) ) ;
#21 = DIRECTION ( 'NONE',  ( -0.000000000000000000, 1.000000000000000000, -0.000000000000000000 ) ) ;
#22 = ORIENTED_EDGE ( 'NONE', *, *, #129, .T. ) ;
#23 = EDGE_CURVE ( 'NONE', #752, #31, #687, .T. ) ;
#24 = DIRECTION ( 'NONE',  ( 0.000000000000000000, 1.000000000000000000, 0.000000000000000000 ) ) ;
#25 = DIRECTION ( 'NONE',  ( -0.000000000000000000, 1.000000000000000000, -0.000000000000000000 ) ) ;
#26 = ORIENTED_EDGE ( 'NONE', *, *, #660, .T. ) ;
#27 = AXIS2_PLACEMENT_3D ( 'NONE', #239, #305, #530 ) ;
#28 = DIRECTION ( 'NONE',  ( 0.000000000000000000, 0.000000000000000000, 1.000000000000000000 ) ) ;
#29 = VECTOR ( 'NONE', #436, 1000.000000000000000 ) ;
#30 = APPROVAL_PERSON_ORGANIZATION ( #637, #535, #167 ) ;
#31 = VERTEX_POINT ( 'NONE', #568 ) ;
#32 = PLANE ( 'NONE',  #64 ) ;
#33 = EDGE_LOOP ( 'NONE', ( #35, #26, #12, #425 ) ) ;
#34 = LINE ( 'NONE', #384, #264 ) ;
#35 = ORIENTED_EDGE ( 'NONE', *, *, #467, .F. ) ;
#36 = CARTESIAN_POINT ( 'NONE',  ( 35.36751345948133718, 80.00000000000000000, 23.99999999999998579 ) ) ;
#37 = EDGE_CURVE ( 'NONE', #224, #626, #284, .T. ) ;
#38 = DIRECTION ( 'NONE',  ( 0.000000000000000000, 0.000000000000000000, 1.000000000000000000 ) ) ;
#39 = AXIS2_PLACEMENT_3D ( 'NONE', #109, #166, #628 ) ;
#40 = EDGE_LOOP ( 'NONE', ( #610, #474 ) ) ;
#41 = VECTOR ( 'NONE', #218, 1000.000000000000000 ) ;
#42 = CARTESIAN_POINT ( 'NONE',  ( 36.36751345948135139, 50.00000000000000000, -25.00000000000000000 ) ) ;
#43 = ORIENTED_EDGE ( 'NONE', *, *, #333, .F. ) ;
#44 = CARTESIAN_POINT ( 'NONE',  ( 6.183756729740676583, 80.00000000000000000, 16.75000000000000000 ) ) ;
#45 = PERSON_AND_ORGANIZATION ( #486, #383 ) ;
#46 = ADVANCED_FACE ( 'NONE', ( #671 ), #281, .F. ) ;
#47 = EDGE_LOOP ( 'NONE', ( #123, #443 ) ) ;
#48 = LINE ( 'NONE', #566, #635 ) ;
#49 = CALENDAR_DATE ( 2025, 17, 12 ) ;
#50 = DIRECTION ( 'NONE',  ( 0.000000000000000000, 0.000000000000000000, -1.000000000000000000 ) ) ;
#51 = VECTOR ( 'NONE', #183, 1000.000000000000000 ) ;
#52 = DIRECTION ( 'NONE',  ( 0.000000000000000000, 0.000000000000000000, 1.000000000000000000 ) ) ;
#53 = DIRECTION ( 'NONE',  ( 0.000000000000000000, 0.000000000000000000, -1.000000000000000000 ) ) ;
#54 = ORIENTED_EDGE ( 'NONE', *, *, #585, .T. ) ;
#55 = PERSON_AND_ORGANIZATION ( #486, #383 ) ;
#56 = CARTESIAN_POINT ( 'NONE',  ( 6.183756729740676583, 72.00000000000001421, -19.00000000000000355 ) ) ;
#57 = ORIENTED_EDGE ( 'NONE', *, *, #148, .F. ) ;
#58 = ADVANCED_FACE ( 'NONE', ( #228 ), #165, .F. ) ;
#59 = COORDINATED_UNIVERSAL_TIME_OFFSET ( 0, 0, .AHEAD. ) ;
#60 = LINE ( 'NONE', #353, #609 ) ;
#61 = CARTESIAN_POINT ( 'NONE',  ( 6.183756729740676583, 80.00000000000000000, -19.00000000000000355 ) ) ;
#62 = VERTEX_POINT ( 'NONE', #516 ) ;
#63 = AXIS2_PLACEMENT_3D ( 'NONE', #341, #559, #683 ) ;
#64 = AXIS2_PLACEMENT_3D ( 'NONE', #80, #669, #94 ) ;
#65 = APPROVAL_STATUS ( 'not_yet_approved' ) ;
#66 = DIRECTION ( 'NONE',  ( 0.5000000000000008882, 0.8660254037844381525, -0.000000000000000000 ) ) ;
#67 = ORIENTED_EDGE ( 'NONE', *, *, #721, .F. ) ;
#68 = EDGE_CURVE ( 'NONE', #31, #143, #95, .T. ) ;
#69 = DIRECTION ( 'NONE',  ( 0.000000000000000000, 0.000000000000000000, -1.000000000000000000 ) ) ;
#70 = ORIENTED_EDGE ( 'NONE', *, *, #589, .F. ) ;
#71 = DIRECTION ( 'NONE',  ( 0.000000000000000000, 0.000000000000000000, -1.000000000000000000 ) ) ;
#72 = VERTEX_POINT ( 'NONE', #150 ) ;
#73 = EDGE_CURVE ( 'NONE', #662, #355, #707, .T. ) ;
#74 = CIRCLE ( 'NONE', #4, 2.250000000000001776 ) ;
#75 = AXIS2_PLACEMENT_3D ( 'NONE', #205, #149, #544 ) ;
#76 = FACE_OUTER_BOUND ( 'NONE', #511, .T. ) ;
#77 = FACE_OUTER_BOUND ( 'NONE', #397, .T. ) ;
#78 = VERTEX_POINT ( 'NONE', #702 ) ;
#79 = ADVANCED_FACE ( 'NONE', ( #124 ), #172, .F. ) ;
#80 = CARTESIAN_POINT ( 'NONE',  ( 6.183756729740676583, 72.00000000000001421, -19.00000000000000355 ) ) ;
#81 = DIRECTION ( 'NONE',  ( -1.000000000000000000, 0.000000000000000000, 0.000000000000000000 ) ) ;
#82 = ORIENTED_EDGE ( 'NONE', *, *, #600, .T. ) ;
#83 = PRODUCT_DEFINITION ( 'UNKNOWN', '', #661, #459 ) ;
#84 = LINE ( 'NONE', #316, #29 ) ;
#85 = ADVANCED_BREP_SHAPE_REPRESENTATION ( 'wedge_actuator', ( #634, #274 ), #590 ) ;
#86 = ORIENTED_EDGE ( 'NONE', *, *, #655, .F. ) ;
#87 = LINE ( 'NONE', #270, #41 ) ;
#88 = AXIS2_PLACEMENT_3D ( 'NONE', #557, #203, #38 ) ;
#89 = ORIENTED_EDGE ( 'NONE', *, *, #711, .T. ) ;
#90 = DIRECTION ( 'NONE',  ( -0.000000000000000000, 1.000000000000000000, -0.000000000000000000 ) ) ;
#91 = EDGE_CURVE ( 'NONE', #143, #553, #591, .T. ) ;
#92 = CARTESIAN_POINT ( 'NONE',  ( 36.36751345948135139, 50.00000000000000000, 25.00000000000000000 ) ) ;
#93 = CARTESIAN_POINT ( 'NONE',  ( 30.18375672974067569, 72.00000000000001421, 21.25000000000001421 ) ) ;
#94 = DIRECTION ( 'NONE',  ( 0.000000000000000000, -0.000000000000000000, 1.000000000000000000 ) ) ;
#95 = LINE ( 'NONE', #449, #492 ) ;
#96 = EDGE_CURVE ( 'NONE', #62, #626, #112, .T. ) ;
#97 = CARTESIAN_POINT ( 'NONE',  ( 30.18375672974067569, 80.00000000000000000, 21.25000000000001421 ) ) ;
#98 = AXIS2_PLACEMENT_3D ( 'NONE', #168, #472, #408 ) ;
#99 = ORIENTED_EDGE ( 'NONE', *, *, #665, .F. ) ;
#100 = AXIS2_PLACEMENT_3D ( 'NONE', #351, #410, #2 ) ;
#101 = LINE ( 'NONE', #221, #227 ) ;
#102 = ADVANCED_FACE ( 'NONE', ( #293 ), #303, .F. ) ;
#103 = CARTESIAN_POINT ( 'NONE',  ( 2.483119354241197579E-17, 43.66025403784437486, 25.00000000000000000 ) ) ;
#104 = CARTESIAN_POINT ( 'NONE',  ( -5.000000000000000000, -6.123233995736766282E-16, -25.00000000000000000 ) ) ;
#105 = ORIENTED_EDGE ( 'NONE', *, *, #219, .F. ) ;
#106 = EDGE_CURVE ( 'NONE', #200, #480, #189, .T. ) ;
#107 = PERSON_AND_ORGANIZATION_ROLE ( 'design_owner' ) ;
#108 = EDGE_LOOP ( 'NONE', ( #379, #592 ) ) ;
#109 = CARTESIAN_POINT ( 'NONE',  ( 6.183756729740676583, 80.00000000000000000, 19.00000000000000355 ) ) ;
#110 = DATE_AND_TIME ( #629, #650 ) ;
#111 = DIRECTION ( 'NONE',  ( 0.000000000000000000, 0.000000000000000000, -1.000000000000000000 ) ) ;
#112 = CIRCLE ( 'NONE', #127, 2.250000000000008882 ) ;
#113 = CARTESIAN_POINT ( 'NONE',  ( 30.18375672974067569, 80.00000000000000000, -19.00000000000000711 ) ) ;
#114 = ORIENTED_EDGE ( 'NONE', *, *, #543, .T. ) ;
#115 = AXIS2_PLACEMENT_3D ( 'NONE', #20, #715, #197 ) ;
#116 = DIRECTION ( 'NONE',  ( 0.000000000000000000, -0.000000000000000000, 1.000000000000000000 ) ) ;
#117 = CARTESIAN_POINT ( 'NONE',  ( 0.000000000000000000, 80.00000000000000000, -23.99999999999998579 ) ) ;
#118 = ADVANCED_FACE ( 'NONE', ( #746 ), #231, .F. ) ;
#119 = LINE ( 'NONE', #703, #301 ) ;
#120 = ORIENTED_EDGE ( 'NONE', *, *, #350, .F. ) ;
#121 = LINE ( 'NONE', #699, #51 ) ;
#122 = CARTESIAN_POINT ( 'NONE',  ( 35.36751345948133718, 80.00000000000000000, 25.00000000000000000 ) ) ;
#123 = ORIENTED_EDGE ( 'NONE', *, *, #678, .F. ) ;
#124 = FACE_OUTER_BOUND ( 'NONE', #376, .T. ) ;
#125 = DIRECTION ( 'NONE',  ( 0.000000000000000000, 1.000000000000000000, 0.000000000000000000 ) ) ;
#126 = ORIENTED_EDGE ( 'NONE', *, *, #618, .F. ) ;
#127 = AXIS2_PLACEMENT_3D ( 'NONE', #1, #586, #69 ) ;
#128 = VECTOR ( 'NONE', #496, 1000.000000000000000 ) ;
#129 = EDGE_CURVE ( 'NONE', #3, #667, #121, .T. ) ;
#130 = PERSON_AND_ORGANIZATION ( #486, #383 ) ;
#131 = CARTESIAN_POINT ( 'NONE',  ( 36.36751345948135139, 50.00000000000000000, 25.00000000000000000 ) ) ;
#132 = VERTEX_POINT ( 'NONE', #349 ) ;
#133 = DIRECTION ( 'NONE',  ( 0.000000000000000000, 0.000000000000000000, 1.000000000000000000 ) ) ;
#134 = EDGE_CURVE ( 'NONE', #3, #345, #60, .T. ) ;
#135 = ORIENTED_EDGE ( 'NONE', *, *, #533, .T. ) ;
#136 = APPROVAL_ROLE ( '' ) ;
#137 = FACE_OUTER_BOUND ( 'NONE', #704, .T. ) ;
#138 = ORIENTED_EDGE ( 'NONE', *, *, #721, .T. ) ;
#139 = VECTOR ( 'NONE', #338, 1000.000000000000227 ) ;
#140 = LOCAL_TIME ( 10, 20, 29.00000000000000000, #692 ) ;
#141 = DIRECTION ( 'NONE',  ( -0.000000000000000000, -1.000000000000000000, -0.000000000000000000 ) ) ;
#142 = CARTESIAN_POINT ( 'NONE',  ( 30.18375672974067569, 72.00000000000001421, -19.00000000000000711 ) ) ;
#143 = VERTEX_POINT ( 'NONE', #357 ) ;
#144 = CARTESIAN_POINT ( 'NONE',  ( 30.18375672974067569, 72.00000000000001421, 19.00000000000000711 ) ) ;
#145 = ORIENTED_EDGE ( 'NONE', *, *, #68, .F. ) ;
#146 = FACE_OUTER_BOUND ( 'NONE', #558, .T. ) ;
#147 = EDGE_LOOP ( 'NONE', ( #326, #485, #271, #135 ) ) ;
#148 = EDGE_CURVE ( 'NONE', #506, #161, #469, .T. ) ;
#149 = DIRECTION ( 'NONE',  ( 0.000000000000000000, 1.000000000000000000, -0.000000000000000000 ) ) ;
#150 = CARTESIAN_POINT ( 'NONE',  ( 2.483119354241197579E-17, 43.66025403784437486, 25.00000000000000000 ) ) ;
#151 = DIRECTION ( 'NONE',  ( 0.000000000000000000, -0.000000000000000000, -1.000000000000000000 ) ) ;
#152 = CARTESIAN_POINT ( 'NONE',  ( 2.483119354241197579E-17, 43.66025403784437486, -25.00000000000000000 ) ) ;
#153 = CARTESIAN_POINT ( 'NONE',  ( -5.000000000000000000, 35.00000000000000000, -25.00000000000000000 ) ) ;
#154 = DIRECTION ( 'NONE',  ( 0.5773502691896257311, -0.5773502691896257311, 0.5773502691896257311 ) ) ;
#155 = DIRECTION ( 'NONE',  ( -0.000000000000000000, 1.000000000000000000, -0.000000000000000000 ) ) ;
#156 = DIRECTION ( 'NONE',  ( -0.8660254037844381525, 0.5000000000000008882, 0.000000000000000000 ) ) ;
#157 = EDGE_CURVE ( 'NONE', #752, #10, #247, .T. ) ;
#158 = FACE_OUTER_BOUND ( 'NONE', #147, .T. ) ;
#159 = CALENDAR_DATE ( 2025, 17, 12 ) ;
#160 = AXIS2_PLACEMENT_3D ( 'NONE', #142, #25, #536 ) ;
#161 = VERTEX_POINT ( 'NONE', #419 ) ;
#162 = AXIS2_PLACEMENT_3D ( 'NONE', #144, #378, #116 ) ;
#163 = CARTESIAN_POINT ( 'NONE',  ( 6.833067454096117811E-19, 78.99999999999997158, -25.00000000000000000 ) ) ;
#164 = DIRECTION ( 'NONE',  ( -0.000000000000000000, 1.000000000000000000, -0.000000000000000000 ) ) ;
#165 = PLANE ( 'NONE',  #173 ) ;
#166 = DIRECTION ( 'NONE',  ( 0.000000000000000000, 1.000000000000000000, -0.000000000000000000 ) ) ;
#167 = APPROVAL_ROLE ( '' ) ;
#168 = CARTESIAN_POINT ( 'NONE',  ( 6.183756729740676583, 72.00000000000001421, 19.00000000000000355 ) ) ;
#169 = DIRECTION ( 'NONE',  ( -1.000000000000000000, 0.000000000000000000, 0.000000000000000000 ) ) ;
#170 = COORDINATED_UNIVERSAL_TIME_OFFSET ( 0, 0, .AHEAD. ) ;
#171 = EDGE_CURVE ( 'NONE', #667, #359, #180, .T. ) ;
#172 = PLANE ( 'NONE',  #468 ) ;
#173 = AXIS2_PLACEMENT_3D ( 'NONE', #92, #156, #209 ) ;
#174 = DIRECTION ( 'NONE',  ( 0.000000000000000000, 0.000000000000000000, 1.000000000000000000 ) ) ;
#175 = ORIENTED_EDGE ( 'NONE', *, *, #285, .T. ) ;
#176 = AXIS2_PLACEMENT_3D ( 'NONE', #265, #666, #608 ) ;
#177 = PRODUCT_DEFINITION_SHAPE ( 'NONE', 'NONE',  #83 ) ;
#178 = DIRECTION ( 'NONE',  ( 0.000000000000000000, 0.000000000000000000, 1.000000000000000000 ) ) ;
#179 = CC_DESIGN_DATE_AND_TIME_ASSIGNMENT ( #686, #406, ( #83 ) ) ;
#180 = LINE ( 'NONE', #651, #322 ) ;
#181 = DIRECTION ( 'NONE',  ( 0.000000000000000000, 1.000000000000000000, 0.000000000000000000 ) ) ;
#182 = ORIENTED_EDGE ( 'NONE', *, *, #68, .T. ) ;
#183 = DIRECTION ( 'NONE',  ( -0.5773502691896255090, -0.5773502691896259531, 0.5773502691896259531 ) ) ;
#184 = APPLICATION_CONTEXT ( 'configuration controlled 3d designs of mechanical parts and assemblies' ) ;
#185 = LINE ( 'NONE', #122, #636 ) ;
#186 = ORIENTED_EDGE ( 'NONE', *, *, #315, .T. ) ;
#187 = DIRECTION ( 'NONE',  ( -0.000000000000000000, -0.000000000000000000, -1.000000000000000000 ) ) ;
#188 = ORIENTED_EDGE ( 'NONE', *, *, #430, .F. ) ;
#189 = CIRCLE ( 'NONE', #98, 2.250000000000001776 ) ;
#190 = CC_DESIGN_PERSON_AND_ORGANIZATION_ASSIGNMENT ( #395, #740, ( #83 ) ) ;
#191 = AXIS2_PLACEMENT_3D ( 'NONE', #232, #691, #169 ) ;
#192 = DIRECTION ( 'NONE',  ( 0.000000000000000000, 1.000000000000000000, -0.000000000000000000 ) ) ;
#193 = ORIENTED_EDGE ( 'NONE', *, *, #450, .F. ) ;
#194 = SHAPE_DEFINITION_REPRESENTATION ( #177, #85 ) ;
#195 = CARTESIAN_POINT ( 'NONE',  ( -5.000000000000000000, 35.00000000000000000, 25.00000000000000000 ) ) ;
#196 = VERTEX_POINT ( 'NONE', #690 ) ;
#197 = DIRECTION ( 'NONE',  ( 0.000000000000000000, 0.000000000000000000, 1.000000000000000000 ) ) ;
#198 = EDGE_CURVE ( 'NONE', #359, #161, #404, .T. ) ;
#199 = DIRECTION ( 'NONE',  ( 0.5000000000000005551, 0.8660254037844382635, 0.000000000000000000 ) ) ;
#200 = VERTEX_POINT ( 'NONE', #235 ) ;
#201 = AXIS2_PLACEMENT_3D ( 'NONE', #385, #523, #642 ) ;
#202 = VECTOR ( 'NONE', #398, 1000.000000000000000 ) ;
#203 = DIRECTION ( 'NONE',  ( 0.000000000000000000, 1.000000000000000000, 0.000000000000000000 ) ) ;
#204 = EDGE_LOOP ( 'NONE', ( #599, #418 ) ) ;
#205 = CARTESIAN_POINT ( 'NONE',  ( 30.18375672974067569, 72.00000000000001421, -19.00000000000000711 ) ) ;
#206 = ORIENTED_EDGE ( 'NONE', *, *, #388, .T. ) ;
#207 = EDGE_CURVE ( 'NONE', #78, #667, #527, .T. ) ;
#208 = CARTESIAN_POINT ( 'NONE',  ( 23.57834230632089501, 91.78917115316043862, -12.21082884683954006 ) ) ;
#209 = DIRECTION ( 'NONE',  ( -0.5000000000000008882, -0.8660254037844381525, 0.000000000000000000 ) ) ;
#210 = LINE ( 'NONE', #42, #684 ) ;
#211 = CC_DESIGN_DATE_AND_TIME_ASSIGNMENT ( #110, #292, ( #409 ) ) ;
#212 = AXIS2_PLACEMENT_3D ( 'NONE', #195, #426, #199 ) ;
#213 = DIRECTION ( 'NONE',  ( -0.000000000000000000, -0.000000000000000000, -1.000000000000000000 ) ) ;
#214 = CIRCLE ( 'NONE', #433, 2.250000000000008882 ) ;
#215 = LOCAL_TIME ( 10, 20, 29.00000000000000000, #59 ) ;
#216 = EDGE_LOOP ( 'NONE', ( #120, #675 ) ) ;
#217 = CARTESIAN_POINT ( 'NONE',  ( 6.183756729740676583, 72.00000000000001421, -21.25000000000000355 ) ) ;
#218 = DIRECTION ( 'NONE',  ( -0.000000000000000000, 1.000000000000000000, -0.000000000000000000 ) ) ;
#219 = EDGE_CURVE ( 'NONE', #480, #200, #548, .T. ) ;
#220 = CARTESIAN_POINT ( 'NONE',  ( 6.183756729740676583, 80.00000000000000000, 19.00000000000000355 ) ) ;
#221 = CARTESIAN_POINT ( 'NONE',  ( 6.183756729740676583, 72.00000000000001421, 21.25000000000000355 ) ) ;
#222 = APPLICATION_PROTOCOL_DEFINITION ( 'international standard', 'config_control_design', 1994, #263 ) ;
#223 = ADVANCED_FACE ( 'NONE', ( #594 ), #484, .F. ) ;
#224 = VERTEX_POINT ( 'NONE', #429 ) ;
#225 = CARTESIAN_POINT ( 'NONE',  ( 36.36751345948135139, 78.99999999999998579, -25.00000000000000000 ) ) ;
#226 = PERSON_AND_ORGANIZATION_ROLE ( 'creator' ) ;
#227 = VECTOR ( 'NONE', #447, 1000.000000000000000 ) ;
#228 = FACE_OUTER_BOUND ( 'NONE', #250, .T. ) ;
#229 = CARTESIAN_POINT ( 'NONE',  ( 7.500000000000000888, 0.000000000000000000, -25.00000000000000000 ) ) ;
#230 = PERSON_AND_ORGANIZATION_ROLE ( 'classification_officer' ) ;
#231 = CYLINDRICAL_SURFACE ( 'NONE', #394, 2.250000000000001776 ) ;
#232 = CARTESIAN_POINT ( 'NONE',  ( 0.000000000000000000, 0.000000000000000000, -25.00000000000000000 ) ) ;
#233 = ADVANCED_FACE ( 'NONE', ( #597 ), #307, .F. ) ;
#234 = APPLICATION_PROTOCOL_DEFINITION ( 'international standard', 'config_control_design', 1994, #184 ) ;
#235 = CARTESIAN_POINT ( 'NONE',  ( 6.183756729740676583, 72.00000000000001421, 21.25000000000000355 ) ) ;
#236 = DIRECTION ( 'NONE',  ( -0.7071067811865475727, -0.7071067811865475727, -0.000000000000000000 ) ) ;
#237 = ORIENTED_EDGE ( 'NONE', *, *, #37, .F. ) ;
#238 = ADVANCED_FACE ( 'NONE', ( #77 ), #659, .F. ) ;
#239 = CARTESIAN_POINT ( 'NONE',  ( 6.183756729740676583, 72.00000000000001421, 19.00000000000000355 ) ) ;
#240 = VECTOR ( 'NONE', #253, 1000.000000000000227 ) ;
#241 = CARTESIAN_POINT ( 'NONE',  ( 36.36751345948135139, 50.00000000000000000, 25.00000000000000000 ) ) ;
#242 = ORIENTED_EDGE ( 'NONE', *, *, #207, .F. ) ;
#243 = CIRCLE ( 'NONE', #696, 2.250000000000001776 ) ;
#244 = EDGE_CURVE ( 'NONE', #143, #314, #367, .T. ) ;
#245 = DIRECTION ( 'NONE',  ( -1.000000000000000000, 0.000000000000000000, 0.000000000000000000 ) ) ;
#246 = ORIENTED_EDGE ( 'NONE', *, *, #129, .F. ) ;
#247 = LINE ( 'NONE', #705, #251 ) ;
#248 = VERTEX_POINT ( 'NONE', #17 ) ;
#249 = PLANE ( 'NONE',  #334 ) ;
#250 = EDGE_LOOP ( 'NONE', ( #730, #254, #343, #340 ) ) ;
#251 = VECTOR ( 'NONE', #187, 1000.000000000000000 ) ;
#252 = AXIS2_PLACEMENT_3D ( 'NONE', #56, #181, #596 ) ;
#253 = DIRECTION ( 'NONE',  ( -0.5000000000000005551, -0.8660254037844382635, -0.000000000000000000 ) ) ;
#254 = ORIENTED_EDGE ( 'NONE', *, *, #310, .F. ) ;
#255 = ADVANCED_FACE ( 'NONE', ( #258 ), #712, .F. ) ;
#256 = APPROVAL_DATE_TIME ( #302, #6 ) ;
#257 = CARTESIAN_POINT ( 'NONE',  ( 6.183756729740676583, 72.00000000000001421, 19.00000000000000355 ) ) ;
#258 = FACE_OUTER_BOUND ( 'NONE', #534, .T. ) ;
#259 = ORIENTED_EDGE ( 'NONE', *, *, #350, .T. ) ;
#260 = DIRECTION ( 'NONE',  ( -0.5773502691896257311, 0.5773502691896257311, 0.5773502691896257311 ) ) ;
#261 = ORIENTED_EDGE ( 'NONE', *, *, #134, .F. ) ;
#262 = CIRCLE ( 'NONE', #39, 2.250000000000001776 ) ;
#263 = APPLICATION_CONTEXT ( 'configuration controlled 3d designs of mechanical parts and assemblies' ) ;
#264 = VECTOR ( 'NONE', #213, 1000.000000000000000 ) ;
#265 = CARTESIAN_POINT ( 'NONE',  ( 30.18375672974067569, 72.00000000000001421, 19.00000000000000711 ) ) ;
#266 = ADVANCED_FACE ( 'NONE', ( #137 ), #249, .F. ) ;
#267 = ORIENTED_EDGE ( 'NONE', *, *, #285, .F. ) ;
#268 = LINE ( 'NONE', #152, #128 ) ;
#269 = ORIENTED_EDGE ( 'NONE', *, *, #552, .T. ) ;
#270 = CARTESIAN_POINT ( 'NONE',  ( 36.36751345948135139, 80.00000000000000000, -25.00000000000000000 ) ) ;
#271 = ORIENTED_EDGE ( 'NONE', *, *, #148, .T. ) ;
#272 = CARTESIAN_POINT ( 'NONE',  ( 30.18375672974067569, 72.00000000000001421, 16.74999999999999645 ) ) ;
#273 = CARTESIAN_POINT ( 'NONE',  ( 6.833067454096117811E-19, 78.99999999999997158, 25.00000000000000000 ) ) ;
#274 = AXIS2_PLACEMENT_3D ( 'NONE', #448, #178, #620 ) ;
#275 = CC_DESIGN_APPROVAL ( #6, ( #409 ) ) ;
#276 = ORIENTED_EDGE ( 'NONE', *, *, #366, .T. ) ;
#277 = FACE_OUTER_BOUND ( 'NONE', #352, .T. ) ;
#278 = CYLINDRICAL_SURFACE ( 'NONE', #455, 2.250000000000001776 ) ;
#279 = ORIENTED_EDGE ( 'NONE', *, *, #315, .F. ) ;
#280 = LINE ( 'NONE', #732, #139 ) ;
#281 = PLANE ( 'NONE',  #537 ) ;
#282 = DIRECTION ( 'NONE',  ( -0.000000000000000000, -0.000000000000000000, -1.000000000000000000 ) ) ;
#283 = APPROVAL_STATUS ( 'not_yet_approved' ) ;
#284 = LINE ( 'NONE', #565, #14 ) ;
#285 = EDGE_CURVE ( 'NONE', #555, #10, #709, .T. ) ;
#286 = DIRECTION ( 'NONE',  ( 0.000000000000000000, 0.000000000000000000, 1.000000000000000000 ) ) ;
#287 = EDGE_LOOP ( 'NONE', ( #520, #573 ) ) ;
#288 = PERSON_AND_ORGANIZATION ( #486, #383 ) ;
#289 = CARTESIAN_POINT ( 'NONE',  ( 0.6666666666666762886, 79.66666666666665719, -24.33333333333332504 ) ) ;
#290 = LINE ( 'NONE', #519, #396 ) ;
#291 = ORIENTED_EDGE ( 'NONE', *, *, #521, .T. ) ;
#292 = DATE_TIME_ROLE ( 'classification_date' ) ;
#293 = FACE_OUTER_BOUND ( 'NONE', #580, .T. ) ;
#294 = DIRECTION ( 'NONE',  ( 1.000000000000000000, 0.000000000000000000, 0.000000000000000000 ) ) ;
#295 = VERTEX_POINT ( 'NONE', #424 ) ;
#296 = ADVANCED_FACE ( 'NONE', ( #653 ), #716, .F. ) ;
#297 = CARTESIAN_POINT ( 'NONE',  ( -5.000000000000000000, -6.123233995736766282E-16, 25.00000000000000000 ) ) ;
#298 = AXIS2_PLACEMENT_3D ( 'NONE', #390, #621, #619 ) ;
#299 = FACE_OUTER_BOUND ( 'NONE', #204, .T. ) ;
#300 = ORIENTED_EDGE ( 'NONE', *, *, #37, .T. ) ;
#301 = VECTOR ( 'NONE', #583, 1000.000000000000000 ) ;
#302 = DATE_AND_TIME ( #19, #215 ) ;
#303 = CYLINDRICAL_SURFACE ( 'NONE', #27, 2.250000000000001776 ) ;
#304 = ORIENTED_EDGE ( 'NONE', *, *, #342, .F. ) ;
#305 = DIRECTION ( 'NONE',  ( -0.000000000000000000, 1.000000000000000000, -0.000000000000000000 ) ) ;
#306 = ORIENTED_EDGE ( 'NONE', *, *, #618, .T. ) ;
#307 = CYLINDRICAL_SURFACE ( 'NONE', #420, 2.250000000000008882 ) ;
#308 = UNCERTAINTY_MEASURE_WITH_UNIT (LENGTH_MEASURE( 1.000000000000000082E-05 ), #564, 'distance_accuracy_value', 'NONE');
#309 = ORIENTED_EDGE ( 'NONE', *, *, #106, .F. ) ;
#310 = EDGE_CURVE ( 'NONE', #553, #196, #48, .T. ) ;
#311 = CIRCLE ( 'NONE', #88, 2.250000000000001776 ) ;
#312 = LINE ( 'NONE', #414, #622 ) ;
#313 = DIRECTION ( 'NONE',  ( 0.000000000000000000, 0.000000000000000000, 1.000000000000000000 ) ) ;
#314 = VERTEX_POINT ( 'NONE', #444 ) ;
#315 = EDGE_CURVE ( 'NONE', #345, #78, #572, .T. ) ;
#316 = CARTESIAN_POINT ( 'NONE',  ( 30.18375672974067569, 72.00000000000001421, -21.25000000000001421 ) ) ;
#317 = DIRECTION ( 'NONE',  ( -0.000000000000000000, -0.000000000000000000, -1.000000000000000000 ) ) ;
#318 = ORIENTED_EDGE ( 'NONE', *, *, #698, .T. ) ;
#319 = EDGE_CURVE ( 'NONE', #331, #295, #503, .T. ) ;
#320 = LINE ( 'NONE', #387, #323 ) ;
#321 = ORIENTED_EDGE ( 'NONE', *, *, #23, .T. ) ;
#322 = VECTOR ( 'NONE', #577, 1000.000000000000000 ) ;
#323 = VECTOR ( 'NONE', #90, 1000.000000000000000 ) ;
#324 = CARTESIAN_POINT ( 'NONE',  ( 6.183756729740676583, 80.00000000000000000, -19.00000000000000355 ) ) ;
#325 = CC_DESIGN_PERSON_AND_ORGANIZATION_ASSIGNMENT ( #45, #107, ( #606 ) ) ;
#326 = ORIENTED_EDGE ( 'NONE', *, *, #134, .T. ) ;
#327 = DIRECTION ( 'NONE',  ( 0.000000000000000000, 0.000000000000000000, 1.000000000000000000 ) ) ;
#328 = ORIENTED_EDGE ( 'NONE', *, *, #319, .F. ) ;
#329 = FACE_OUTER_BOUND ( 'NONE', #560, .T. ) ;
#330 = DIRECTION ( 'NONE',  ( -1.000000000000000000, 0.000000000000000000, 0.000000000000000000 ) ) ;
#331 = VERTEX_POINT ( 'NONE', #272 ) ;
#332 = CYLINDRICAL_SURFACE ( 'NONE', #63, 2.250000000000001776 ) ;
#333 = EDGE_CURVE ( 'NONE', #295, #355, #676, .T. ) ;
#334 = AXIS2_PLACEMENT_3D ( 'NONE', #478, #81, #133 ) ;
#335 =( NAMED_UNIT ( * ) PLANE_ANGLE_UNIT ( ) SI_UNIT ( $, .RADIAN. ) );
#336 = AXIS2_PLACEMENT_3D ( 'NONE', #457, #440, #386 ) ;
#337 = VERTEX_POINT ( 'NONE', #44 ) ;
#338 = DIRECTION ( 'NONE',  ( -0.5000000000000005551, -0.8660254037844382635, -0.000000000000000000 ) ) ;
#339 = DATE_AND_TIME ( #159, #140 ) ;
#340 = ORIENTED_EDGE ( 'NONE', *, *, #244, .T. ) ;
#341 = CARTESIAN_POINT ( 'NONE',  ( 6.183756729740676583, 72.00000000000001421, 19.00000000000000355 ) ) ;
#342 = EDGE_CURVE ( 'NONE', #224, #654, #372, .T. ) ;
#343 = ORIENTED_EDGE ( 'NONE', *, *, #91, .F. ) ;
#344 = CARTESIAN_POINT ( 'NONE',  ( 0.000000000000000000, 80.00000000000000000, 25.00000000000000000 ) ) ;
#345 = VERTEX_POINT ( 'NONE', #36 ) ;
#346 = FACE_OUTER_BOUND ( 'NONE', #652, .T. ) ;
#347 = AXIS2_PLACEMENT_3D ( 'NONE', #412, #192, #541 ) ;
#348 = VECTOR ( 'NONE', #260, 999.9999999999998863 ) ;
#349 = CARTESIAN_POINT ( 'NONE',  ( 6.183756729740676583, 80.00000000000000000, -16.75000000000000000 ) ) ;
#350 = EDGE_CURVE ( 'NONE', #641, #337, #262, .T. ) ;
#351 = CARTESIAN_POINT ( 'NONE',  ( 0.000000000000000000, 80.00000000000000000, -23.99999999999998579 ) ) ;
#352 = EDGE_LOOP ( 'NONE', ( #105, #529, #595, #588 ) ) ;
#353 = CARTESIAN_POINT ( 'NONE',  ( 0.000000000000000000, 80.00000000000000000, 23.99999999999998579 ) ) ;
#354 = DIRECTION ( 'NONE',  ( 0.000000000000000000, -0.000000000000000000, -1.000000000000000000 ) ) ;
#355 = VERTEX_POINT ( 'NONE', #97 ) ;
#356 = ADVANCED_FACE ( 'NONE', ( #277 ), #332, .F. ) ;
#357 = CARTESIAN_POINT ( 'NONE',  ( 7.500000000000000888, 0.000000000000000000, 25.00000000000000000 ) ) ;
#358 = PLANE ( 'NONE',  #685 ) ;
#359 = VERTEX_POINT ( 'NONE', #163 ) ;
#360 = VECTOR ( 'NONE', #679, 1000.000000000000000 ) ;
#361 = AXIS2_PLACEMENT_3D ( 'NONE', #602, #375, #313 ) ;
#362 = FACE_OUTER_BOUND ( 'NONE', #491, .T. ) ;
#363 = EDGE_LOOP ( 'NONE', ( #368, #465, #99, #571, #18, #439, #267 ) ) ;
#364 = LOCAL_TIME ( 10, 20, 29.00000000000000000, #170 ) ;
#365 = ORIENTED_EDGE ( 'NONE', *, *, #319, .T. ) ;
#366 = EDGE_CURVE ( 'NONE', #72, #752, #280, .T. ) ;
#367 = LINE ( 'NONE', #656, #719 ) ;
#368 = ORIENTED_EDGE ( 'NONE', *, *, #698, .F. ) ;
#369 = CARTESIAN_POINT ( 'NONE',  ( 6.833067454096027292E-19, 78.99999999999998579, 25.00000000000000000 ) ) ;
#370 = EDGE_CURVE ( 'NONE', #314, #196, #210, .T. ) ;
#371 = VERTEX_POINT ( 'NONE', #217 ) ;
#372 = CIRCLE ( 'NONE', #298, 2.250000000000008882 ) ;
#373 = AXIS2_PLACEMENT_3D ( 'NONE', #344, #739, #393 ) ;
#374 = CARTESIAN_POINT ( 'NONE',  ( 35.36751345948133718, 80.00000000000000000, 25.00000000000000000 ) ) ;
#375 = DIRECTION ( 'NONE',  ( -0.000000000000000000, 1.000000000000000000, -0.000000000000000000 ) ) ;
#376 = EDGE_LOOP ( 'NONE', ( #614, #471, #531, #389 ) ) ;
#377 = ADVANCED_FACE ( 'NONE', ( #507 ), #737, .F. ) ;
#378 = DIRECTION ( 'NONE',  ( 0.000000000000000000, 1.000000000000000000, 0.000000000000000000 ) ) ;
#379 = ORIENTED_EDGE ( 'NONE', *, *, #342, .T. ) ;
#380 = CARTESIAN_POINT ( 'NONE',  ( 30.18375672974067569, 80.00000000000000000, 16.74999999999999645 ) ) ;
#381 = ORIENTED_EDGE ( 'NONE', *, *, #171, .T. ) ;
#382 = CLOSED_SHELL ( 'NONE', ( #356, #607, #238, #118, #423, #58, #266, #399, #46, #296, #79, #458, #578, #223, #714, #482, #477, #748, #689, #255, #377, #233, #742, #102, #499 ) ) ;
#383 = ORGANIZATION ( 'UNSPECIFIED', 'UNSPECIFIED', '' ) ;
#384 = CARTESIAN_POINT ( 'NONE',  ( 2.483119354241197579E-17, 43.66025403784437486, 25.00000000000000000 ) ) ;
#385 = CARTESIAN_POINT ( 'NONE',  ( 30.18375672974067569, 80.00000000000000000, 19.00000000000000711 ) ) ;
#386 = DIRECTION ( 'NONE',  ( 0.000000000000000000, 0.000000000000000000, 1.000000000000000000 ) ) ;
#387 = CARTESIAN_POINT ( 'NONE',  ( 6.183756729740676583, 72.00000000000001421, -21.25000000000000355 ) ) ;
#388 = EDGE_CURVE ( 'NONE', #200, #641, #101, .T. ) ;
#389 = ORIENTED_EDGE ( 'NONE', *, *, #157, .T. ) ;
#390 = CARTESIAN_POINT ( 'NONE',  ( 30.18375672974067569, 72.00000000000001421, -19.00000000000000711 ) ) ;
#391 = DIRECTION ( 'NONE',  ( 0.000000000000000000, 0.000000000000000000, 1.000000000000000000 ) ) ;
#392 = DIRECTION ( 'NONE',  ( 1.000000000000000000, 1.224646799147353207E-16, -0.000000000000000000 ) ) ;
#393 = DIRECTION ( 'NONE',  ( 0.000000000000000000, -0.000000000000000000, -1.000000000000000000 ) ) ;
#394 = AXIS2_PLACEMENT_3D ( 'NONE', #693, #639, #475 ) ;
#395 = PERSON_AND_ORGANIZATION ( #486, #383 ) ;
#396 = VECTOR ( 'NONE', #751, 1000.000000000000000 ) ;
#397 = EDGE_LOOP ( 'NONE', ( #86, #82, #695, #237 ) ) ;
#398 = DIRECTION ( 'NONE',  ( 1.000000000000000000, -0.000000000000000000, -0.000000000000000000 ) ) ;
#399 = ADVANCED_FACE ( 'NONE', ( #512, #673, #680, #569, #158 ), #510, .F. ) ;
#400 = ORIENTED_EDGE ( 'NONE', *, *, #630, .F. ) ;
#401 = DIRECTION ( 'NONE',  ( -0.000000000000000000, 1.000000000000000000, -0.000000000000000000 ) ) ;
#402 = COORDINATED_UNIVERSAL_TIME_OFFSET ( 0, 0, .AHEAD. ) ;
#403 = CC_DESIGN_PERSON_AND_ORGANIZATION_ASSIGNMENT ( #454, #745, ( #661 ) ) ;
#404 = LINE ( 'NONE', #289, #670 ) ;
#405 = LINE ( 'NONE', #517, #513 ) ;
#406 = DATE_TIME_ROLE ( 'creation_date' ) ;
#407 = VECTOR ( 'NONE', #155, 1000.000000000000000 ) ;
#408 = DIRECTION ( 'NONE',  ( 0.000000000000000000, 0.000000000000000000, -1.000000000000000000 ) ) ;
#409 = SECURITY_CLASSIFICATION ( '', '', #581 ) ;
#410 = DIRECTION ( 'NONE',  ( 0.000000000000000000, 0.7071067811865475727, -0.7071067811865475727 ) ) ;
#411 = VERTEX_POINT ( 'NONE', #225 ) ;
#412 = CARTESIAN_POINT ( 'NONE',  ( 6.183756729740676583, 72.00000000000001421, 19.00000000000000355 ) ) ;
#413 = EDGE_CURVE ( 'NONE', #415, #314, #498, .T. ) ;
#414 = CARTESIAN_POINT ( 'NONE',  ( 6.183756729740676583, 72.00000000000001421, 16.75000000000000000 ) ) ;
#415 = VERTEX_POINT ( 'NONE', #104 ) ;
#416 = DIRECTION ( 'NONE',  ( 1.000000000000000000, 0.000000000000000000, 0.000000000000000000 ) ) ;
#417 = DIRECTION ( 'NONE',  ( 0.000000000000000000, -1.000000000000000000, 0.000000000000000000 ) ) ;
#418 = ORIENTED_EDGE ( 'NONE', *, *, #219, .T. ) ;
#419 = CARTESIAN_POINT ( 'NONE',  ( 1.000000000000013989, 80.00000000000000000, -23.99999999999998579 ) ) ;
#420 = AXIS2_PLACEMENT_3D ( 'NONE', #532, #21, #11 ) ;
#421 = AXIS2_PLACEMENT_3D ( 'NONE', #7, #646, #245 ) ;
#422 = ORIENTED_EDGE ( 'NONE', *, *, #198, .T. ) ;
#423 = ADVANCED_FACE ( 'NONE', ( #329 ), #743, .F. ) ;
#424 = CARTESIAN_POINT ( 'NONE',  ( 30.18375672974067569, 72.00000000000001421, 21.25000000000001421 ) ) ;
#425 = ORIENTED_EDGE ( 'NONE', *, *, #734, .F. ) ;
#426 = DIRECTION ( 'NONE',  ( 0.8660254037844383745, -0.5000000000000006661, 0.000000000000000000 ) ) ;
#427 = ORIENTED_EDGE ( 'NONE', *, *, #413, .T. ) ;
#428 = CARTESIAN_POINT ( 'NONE',  ( 35.36751345948133718, 80.00000000000000000, -23.99999999999998579 ) ) ;
#429 = CARTESIAN_POINT ( 'NONE',  ( 30.18375672974067569, 72.00000000000001421, -16.74999999999999645 ) ) ;
#430 = EDGE_CURVE ( 'NONE', #359, #411, #502, .T. ) ;
#431 = ORIENTED_EDGE ( 'NONE', *, *, #678, .T. ) ;
#432 = VECTOR ( 'NONE', #401, 1000.000000000000000 ) ;
#433 = AXIS2_PLACEMENT_3D ( 'NONE', #113, #579, #53 ) ;
#434 = FACE_OUTER_BOUND ( 'NONE', #710, .T. ) ;
#435 = EDGE_LOOP ( 'NONE', ( #22, #242, #279, #261 ) ) ;
#436 = DIRECTION ( 'NONE',  ( -0.000000000000000000, 1.000000000000000000, -0.000000000000000000 ) ) ;
#437 = ORIENTED_EDGE ( 'NONE', *, *, #310, .T. ) ;
#438 = CARTESIAN_POINT ( 'NONE',  ( 30.18375672974067569, 72.00000000000001421, 19.00000000000000711 ) ) ;
#439 = ORIENTED_EDGE ( 'NONE', *, *, #563, .F. ) ;
#440 = DIRECTION ( 'NONE',  ( 0.000000000000000000, 1.000000000000000000, -0.000000000000000000 ) ) ;
#441 = APPROVAL_PERSON_ORGANIZATION ( #681, #613, #570 ) ;
#442 = LINE ( 'NONE', #494, #744 ) ;
#443 = ORIENTED_EDGE ( 'NONE', *, *, #508, .F. ) ;
#444 = CARTESIAN_POINT ( 'NONE',  ( 7.500000000000000888, 0.000000000000000000, -25.00000000000000000 ) ) ;
#445 = LINE ( 'NONE', #677, #407 ) ;
#446 = ORIENTED_EDGE ( 'NONE', *, *, #600, .F. ) ;
#447 = DIRECTION ( 'NONE',  ( -0.000000000000000000, 1.000000000000000000, -0.000000000000000000 ) ) ;
#448 = CARTESIAN_POINT ( 'NONE',  ( 0.000000000000000000, 0.000000000000000000, 0.000000000000000000 ) ) ;
#449 = CARTESIAN_POINT ( 'NONE',  ( 0.000000000000000000, 0.000000000000000000, 25.00000000000000000 ) ) ;
#450 = EDGE_CURVE ( 'NONE', #345, #506, #185, .T. ) ;
#451 = DIRECTION ( 'NONE',  ( 0.000000000000000000, 1.000000000000000000, 0.000000000000000000 ) ) ;
#452 = VECTOR ( 'NONE', #582, 1000.000000000000000 ) ;
#453 = AXIS2_PLACEMENT_3D ( 'NONE', #324, #24, #327 ) ;
#454 = PERSON_AND_ORGANIZATION ( #486, #383 ) ;
#455 = AXIS2_PLACEMENT_3D ( 'NONE', #749, #164, #518 ) ;
#456 = EDGE_LOOP ( 'NONE', ( #593, #701, #246, #549 ) ) ;
#457 = CARTESIAN_POINT ( 'NONE',  ( 7.500000000000000888, 0.000000000000000000, 25.00000000000000000 ) ) ;
#458 = ADVANCED_FACE ( 'NONE', ( #487 ), #632, .F. ) ;
#459 = DESIGN_CONTEXT ( 'detailed design', #263, 'design' ) ;
#460 = CALENDAR_DATE ( 2025, 17, 12 ) ;
#461 = DIRECTION ( 'NONE',  ( -0.000000000000000000, 1.000000000000000000, -0.000000000000000000 ) ) ;
#462 = APPROVAL_STATUS ( 'not_yet_approved' ) ;
#463 = CARTESIAN_POINT ( 'NONE',  ( 0.000000000000000000, 78.99999999999998579, 25.00000000000000000 ) ) ;
#464 = PLANE ( 'NONE',  #493 ) ;
#465 = ORIENTED_EDGE ( 'NONE', *, *, #430, .T. ) ;
#466 =( NAMED_UNIT ( * ) SI_UNIT ( $, .STERADIAN. ) SOLID_ANGLE_UNIT ( ) );
#467 = EDGE_CURVE ( 'NONE', #371, #248, #672, .T. ) ;
#468 = AXIS2_PLACEMENT_3D ( 'NONE', #297, #750, #111 ) ;
#469 = LINE ( 'NONE', #117, #561 ) ;
#470 = LINE ( 'NONE', #643, #720 ) ;
#471 = ORIENTED_EDGE ( 'NONE', *, *, #638, .F. ) ;
#472 = DIRECTION ( 'NONE',  ( 0.000000000000000000, 1.000000000000000000, -0.000000000000000000 ) ) ;
#473 = LINE ( 'NONE', #640, #538 ) ;
#474 = ORIENTED_EDGE ( 'NONE', *, *, #96, .F. ) ;
#475 = DIRECTION ( 'NONE',  ( 0.000000000000000000, 0.000000000000000000, 1.000000000000000000 ) ) ;
#476 = ORIENTED_EDGE ( 'NONE', *, *, #207, .T. ) ;
#477 = ADVANCED_FACE ( 'NONE', ( #362 ), #358, .F. ) ;
#478 = CARTESIAN_POINT ( 'NONE',  ( 36.36751345948135139, 80.00000000000000000, 25.00000000000000000 ) ) ;
#479 = CC_DESIGN_APPROVAL ( #613, ( #83 ) ) ;
#480 = VERTEX_POINT ( 'NONE', #587 ) ;
#481 = APPROVAL_PERSON_ORGANIZATION ( #130, #6, #136 ) ;
#482 = ADVANCED_FACE ( 'NONE', ( #76 ), #601, .T. ) ;
#483 = CC_DESIGN_PERSON_AND_ORGANIZATION_ASSIGNMENT ( #55, #230, ( #409 ) ) ;
#484 = PLANE ( 'NONE',  #648 ) ;
#485 = ORIENTED_EDGE ( 'NONE', *, *, #450, .T. ) ;
#486 = PERSON ( 'UNSPECIFIED', 'UNSPECIFIED', 'UNSPECIFIED', ('UNSPECIFIED'), ('UNSPECIFIED'), ('UNSPECIFIED') ) ;
#487 = FACE_OUTER_BOUND ( 'NONE', #603, .T. ) ;
#488 = CARTESIAN_POINT ( 'NONE',  ( -5.000000000000000000, 35.00000000000000000, -25.00000000000000000 ) ) ;
#489 = ORIENTED_EDGE ( 'NONE', *, *, #645, .F. ) ;
#490 = CARTESIAN_POINT ( 'NONE',  ( 30.18375672974067569, 80.00000000000000000, -16.74999999999999645 ) ) ;
#491 = EDGE_LOOP ( 'NONE', ( #186, #400, #89, #193 ) ) ;
#492 = VECTOR ( 'NONE', #392, 1000.000000000000000 ) ;
#493 = AXIS2_PLACEMENT_3D ( 'NONE', #257, #417, #354 ) ;
#494 = CARTESIAN_POINT ( 'NONE',  ( 36.36751345948135139, 78.99999999999998579, 25.00000000000000000 ) ) ;
#495 = EDGE_LOOP ( 'NONE', ( #8, #126, #501, #269 ) ) ;
#496 = DIRECTION ( 'NONE',  ( 6.833067454095935810E-19, -1.000000000000000000, -0.000000000000000000 ) ) ;
#497 = ORIENTED_EDGE ( 'NONE', *, *, #665, .T. ) ;
#498 = LINE ( 'NONE', #229, #202 ) ;
#499 = ADVANCED_FACE ( 'NONE', ( #299 ), #464, .F. ) ;
#500 = CARTESIAN_POINT ( 'NONE',  ( 0.000000000000000000, 78.99999999999998579, 25.00000000000000000 ) ) ;
#501 = ORIENTED_EDGE ( 'NONE', *, *, #333, .T. ) ;
#502 = LINE ( 'NONE', #540, #5 ) ;
#503 = CIRCLE ( 'NONE', #598, 2.250000000000008882 ) ;
#504 = EDGE_CURVE ( 'NONE', #480, #337, #312, .T. ) ;
#505 = LINE ( 'NONE', #208, #348 ) ;
#506 = VERTEX_POINT ( 'NONE', #428 ) ;
#507 = FACE_OUTER_BOUND ( 'NONE', #108, .T. ) ;
#508 = EDGE_CURVE ( 'NONE', #724, #132, #243, .T. ) ;
#509 = DIRECTION ( 'NONE',  ( 0.000000000000000000, 1.000000000000000000, -0.000000000000000000 ) ) ;
#510 = PLANE ( 'NONE',  #373 ) ;
#511 = EDGE_LOOP ( 'NONE', ( #422, #57, #644, #188 ) ) ;
#512 = FACE_BOUND ( 'NONE', #216, .T. ) ;
#513 = VECTOR ( 'NONE', #141, 1000.000000000000000 ) ;
#514 = APPROVAL_DATE_TIME ( #567, #535 ) ;
#515 = CC_DESIGN_SECURITY_CLASSIFICATION ( #409, ( #661 ) ) ;
#516 = CARTESIAN_POINT ( 'NONE',  ( 30.18375672974067569, 80.00000000000000000, -21.25000000000001421 ) ) ;
#517 = CARTESIAN_POINT ( 'NONE',  ( -5.000000000000000000, -6.123233995736766282E-16, -25.00000000000000000 ) ) ;
#518 = DIRECTION ( 'NONE',  ( 0.000000000000000000, 0.000000000000000000, 1.000000000000000000 ) ) ;
#519 = CARTESIAN_POINT ( 'NONE',  ( 2.483119354241197579E-17, 43.66025403784437486, 25.00000000000000000 ) ) ;
#520 = ORIENTED_EDGE ( 'NONE', *, *, #552, .F. ) ;
#521 = EDGE_CURVE ( 'NONE', #553, #78, #470, .T. ) ;
#522 = MECHANICAL_CONTEXT ( 'NONE', #184, 'mechanical' ) ;
#523 = DIRECTION ( 'NONE',  ( 0.000000000000000000, 1.000000000000000000, 0.000000000000000000 ) ) ;
#524 = DIRECTION ( 'NONE',  ( 0.000000000000000000, 0.000000000000000000, -1.000000000000000000 ) ) ;
#525 = ORIENTED_EDGE ( 'NONE', *, *, #244, .F. ) ;
#526 = CIRCLE ( 'NONE', #115, 2.250000000000008882 ) ;
#527 = LINE ( 'NONE', #463, #452 ) ;
#528 = DIRECTION ( 'NONE',  ( -0.000000000000000000, 1.000000000000000000, -0.000000000000000000 ) ) ;
#529 = ORIENTED_EDGE ( 'NONE', *, *, #504, .T. ) ;
#530 = DIRECTION ( 'NONE',  ( 0.000000000000000000, 0.000000000000000000, 1.000000000000000000 ) ) ;
#531 = ORIENTED_EDGE ( 'NONE', *, *, #23, .F. ) ;
#532 = CARTESIAN_POINT ( 'NONE',  ( 30.18375672974067569, 72.00000000000001421, 19.00000000000000711 ) ) ;
#533 = EDGE_CURVE ( 'NONE', #161, #3, #473, .T. ) ;
#534 = EDGE_LOOP ( 'NONE', ( #446, #304, #300, #54 ) ) ;
#535 = APPROVAL ( #283, 'UNSPECIFIED' ) ;
#536 = DIRECTION ( 'NONE',  ( 0.000000000000000000, 0.000000000000000000, 1.000000000000000000 ) ) ;
#537 = AXIS2_PLACEMENT_3D ( 'NONE', #103, #617, #741 ) ;
#538 = VECTOR ( 'NONE', #174, 1000.000000000000000 ) ;
#539 = EDGE_LOOP ( 'NONE', ( #175, #733, #542, #713 ) ) ;
#540 = CARTESIAN_POINT ( 'NONE',  ( 36.36751345948135139, 78.99999999999998579, -25.00000000000000000 ) ) ;
#541 = DIRECTION ( 'NONE',  ( 0.000000000000000000, 0.000000000000000000, -1.000000000000000000 ) ) ;
#542 = ORIENTED_EDGE ( 'NONE', *, *, #366, .F. ) ;
#543 = EDGE_CURVE ( 'NONE', #331, #662, #119, .T. ) ;
#544 = DIRECTION ( 'NONE',  ( 0.000000000000000000, 0.000000000000000000, -1.000000000000000000 ) ) ;
#545 = DIRECTION ( 'NONE',  ( 0.7071067811865479058, -0.7071067811865472397, 0.000000000000000000 ) ) ;
#546 = ORIENTED_EDGE ( 'NONE', *, *, #521, .F. ) ;
#547 = DIRECTION ( 'NONE',  ( -0.000000000000000000, 1.000000000000000000, -0.000000000000000000 ) ) ;
#548 = CIRCLE ( 'NONE', #347, 2.250000000000001776 ) ;
#549 = ORIENTED_EDGE ( 'NONE', *, *, #533, .F. ) ;
#550 = LOCAL_TIME ( 10, 20, 29.00000000000000000, #623 ) ;
#551 = FACE_OUTER_BOUND ( 'NONE', #657, .T. ) ;
#552 = EDGE_CURVE ( 'NONE', #355, #662, #526, .T. ) ;
#553 = VERTEX_POINT ( 'NONE', #241 ) ;
#554 = PLANE ( 'NONE',  #15 ) ;
#555 = VERTEX_POINT ( 'NONE', #658 ) ;
#556 = CARTESIAN_POINT ( 'NONE',  ( 30.18375672974067569, 72.00000000000001421, -19.00000000000000711 ) ) ;
#557 = CARTESIAN_POINT ( 'NONE',  ( 6.183756729740676583, 72.00000000000001421, -19.00000000000000355 ) ) ;
#558 = EDGE_LOOP ( 'NONE', ( #328, #114, #682, #43 ) ) ;
#559 = DIRECTION ( 'NONE',  ( -0.000000000000000000, 1.000000000000000000, -0.000000000000000000 ) ) ;
#560 = EDGE_LOOP ( 'NONE', ( #427, #525, #145, #726 ) ) ;
#561 = VECTOR ( 'NONE', #9, 1000.000000000000000 ) ;
#562 = AXIS2_PLACEMENT_3D ( 'NONE', #556, #625, #151 ) ;
#563 = EDGE_CURVE ( 'NONE', #10, #415, #405, .T. ) ;
#564 =( LENGTH_UNIT ( ) NAMED_UNIT ( * ) SI_UNIT ( .MILLI., .METRE. ) );
#565 = CARTESIAN_POINT ( 'NONE',  ( 30.18375672974067569, 72.00000000000001421, -16.74999999999999645 ) ) ;
#566 = CARTESIAN_POINT ( 'NONE',  ( 36.36751345948135139, 50.00000000000000000, 25.00000000000000000 ) ) ;
#567 = DATE_AND_TIME ( #460, #550 ) ;
#568 = CARTESIAN_POINT ( 'NONE',  ( -5.000000000000000000, -6.123233995736766282E-16, 25.00000000000000000 ) ) ;
#569 = FACE_BOUND ( 'NONE', #47, .T. ) ;
#570 = APPROVAL_ROLE ( '' ) ;
#571 = ORIENTED_EDGE ( 'NONE', *, *, #370, .F. ) ;
#572 = LINE ( 'NONE', #688, #729 ) ;
#573 = ORIENTED_EDGE ( 'NONE', *, *, #73, .F. ) ;
#574 = VECTOR ( 'NONE', #66, 1000.000000000000114 ) ;
#575 = CIRCLE ( 'NONE', #176, 2.250000000000008882 ) ;
#576 = APPROVAL_DATE_TIME ( #339, #613 ) ;
#577 = DIRECTION ( 'NONE',  ( 0.000000000000000000, 0.000000000000000000, -1.000000000000000000 ) ) ;
#578 = ADVANCED_FACE ( 'NONE', ( #700 ), #747, .T. ) ;
#579 = DIRECTION ( 'NONE',  ( 0.000000000000000000, 1.000000000000000000, -0.000000000000000000 ) ) ;
#580 = EDGE_LOOP ( 'NONE', ( #717, #309, #206, #259 ) ) ;
#581 = SECURITY_CLASSIFICATION_LEVEL ( 'unclassified' ) ;
#582 = DIRECTION ( 'NONE',  ( -1.000000000000000000, 0.000000000000000000, 0.000000000000000000 ) ) ;
#583 = DIRECTION ( 'NONE',  ( -0.000000000000000000, 1.000000000000000000, -0.000000000000000000 ) ) ;
#584 = ORIENTED_EDGE ( 'NONE', *, *, #630, .T. ) ;
#585 = EDGE_CURVE ( 'NONE', #626, #62, #214, .T. ) ;
#586 = DIRECTION ( 'NONE',  ( 0.000000000000000000, 1.000000000000000000, -0.000000000000000000 ) ) ;
#587 = CARTESIAN_POINT ( 'NONE',  ( 6.183756729740676583, 72.00000000000001421, 16.75000000000000000 ) ) ;
#588 = ORIENTED_EDGE ( 'NONE', *, *, #388, .F. ) ;
#589 = EDGE_CURVE ( 'NONE', #667, #72, #290, .T. ) ;
#590 =( GEOMETRIC_REPRESENTATION_CONTEXT ( 3 ) GLOBAL_UNCERTAINTY_ASSIGNED_CONTEXT ( ( #308 ) ) GLOBAL_UNIT_ASSIGNED_CONTEXT ( ( #564, #335, #466 ) ) REPRESENTATION_CONTEXT ( 'NONE', 'WORKASPACE' ) );
#591 = LINE ( 'NONE', #131, #574 ) ;
#592 = ORIENTED_EDGE ( 'NONE', *, *, #655, .T. ) ;
#593 = ORIENTED_EDGE ( 'NONE', *, *, #198, .F. ) ;
#594 = FACE_OUTER_BOUND ( 'NONE', #456, .T. ) ;
#595 = ORIENTED_EDGE ( 'NONE', *, *, #13, .T. ) ;
#596 = DIRECTION ( 'NONE',  ( 0.000000000000000000, 0.000000000000000000, 1.000000000000000000 ) ) ;
#597 = FACE_OUTER_BOUND ( 'NONE', #495, .T. ) ;
#598 = AXIS2_PLACEMENT_3D ( 'NONE', #727, #451, #52 ) ;
#599 = ORIENTED_EDGE ( 'NONE', *, *, #106, .T. ) ;
#600 = EDGE_CURVE ( 'NONE', #654, #62, #84, .T. ) ;
#601 = PLANE ( 'NONE',  #100 ) ;
#602 = CARTESIAN_POINT ( 'NONE',  ( 30.18375672974067569, 72.00000000000001421, -19.00000000000000711 ) ) ;
#603 = EDGE_LOOP ( 'NONE', ( #291, #476, #664, #276, #321, #182, #605 ) ) ;
#604 = CARTESIAN_POINT ( 'NONE',  ( -5.000000000000000000, -6.123233995736766282E-16, 25.00000000000000000 ) ) ;
#605 = ORIENTED_EDGE ( 'NONE', *, *, #91, .T. ) ;
#606 = PRODUCT ( 'wedge_actuator', 'wedge_actuator', '', ( #522 ) ) ;
#607 = ADVANCED_FACE ( 'NONE', ( #146 ), #674, .F. ) ;
#608 = DIRECTION ( 'NONE',  ( 0.000000000000000000, 0.000000000000000000, 1.000000000000000000 ) ) ;
#609 = VECTOR ( 'NONE', #416, 1000.000000000000000 ) ;
#610 = ORIENTED_EDGE ( 'NONE', *, *, #585, .F. ) ;
#611 = AXIS2_PLACEMENT_3D ( 'NONE', #438, #547, #28 ) ;
#612 = FACE_OUTER_BOUND ( 'NONE', #435, .T. ) ;
#613 = APPROVAL ( #462, 'UNSPECIFIED' ) ;
#614 = ORIENTED_EDGE ( 'NONE', *, *, #563, .T. ) ;
#615 = DIRECTION ( 'NONE',  ( 0.5000000000000008882, 0.8660254037844381525, -0.000000000000000000 ) ) ;
#616 = DIRECTION ( 'NONE',  ( -0.000000000000000000, -0.7071067811865475727, -0.7071067811865475727 ) ) ;
#617 = DIRECTION ( 'NONE',  ( 1.000000000000000000, 6.833067454095936773E-19, -0.000000000000000000 ) ) ;
#618 = EDGE_CURVE ( 'NONE', #295, #331, #575, .T. ) ;
#619 = DIRECTION ( 'NONE',  ( 0.000000000000000000, 0.000000000000000000, -1.000000000000000000 ) ) ;
#620 = DIRECTION ( 'NONE',  ( 1.000000000000000000, 0.000000000000000000, 0.000000000000000000 ) ) ;
#621 = DIRECTION ( 'NONE',  ( 0.000000000000000000, 1.000000000000000000, -0.000000000000000000 ) ) ;
#622 = VECTOR ( 'NONE', #461, 1000.000000000000000 ) ;
#623 = COORDINATED_UNIVERSAL_TIME_OFFSET ( 0, 0, .AHEAD. ) ;
#624 = DIRECTION ( 'NONE',  ( -0.000000000000000000, 1.000000000000000000, -0.000000000000000000 ) ) ;
#625 = DIRECTION ( 'NONE',  ( 0.000000000000000000, -1.000000000000000000, 0.000000000000000000 ) ) ;
#626 = VERTEX_POINT ( 'NONE', #490 ) ;
#627 = CARTESIAN_POINT ( 'NONE',  ( 1.000000000000013989, 80.00000000000000000, 23.99999999999998579 ) ) ;
#628 = DIRECTION ( 'NONE',  ( 0.000000000000000000, 0.000000000000000000, -1.000000000000000000 ) ) ;
#629 = CALENDAR_DATE ( 2025, 17, 12 ) ;
#630 = EDGE_CURVE ( 'NONE', #411, #78, #442, .T. ) ;
#631 = DIRECTION ( 'NONE',  ( 0.5773502691896255090, 0.5773502691896259531, 0.5773502691896259531 ) ) ;
#632 = PLANE ( 'NONE',  #421 ) ;
#633 = ORIENTED_EDGE ( 'NONE', *, *, #660, .F. ) ;
#634 = MANIFOLD_SOLID_BREP ( 'Cut-Extrude1', #382 ) ;
#635 = VECTOR ( 'NONE', #282, 1000.000000000000000 ) ;
#636 = VECTOR ( 'NONE', #524, 1000.000000000000000 ) ;
#637 = PERSON_AND_ORGANIZATION ( #486, #383 ) ;
#638 = EDGE_CURVE ( 'NONE', #31, #415, #725, .T. ) ;
#639 = DIRECTION ( 'NONE',  ( -0.000000000000000000, 1.000000000000000000, -0.000000000000000000 ) ) ;
#640 = CARTESIAN_POINT ( 'NONE',  ( 1.000000000000013989, 80.00000000000000000, 25.00000000000000000 ) ) ;
#641 = VERTEX_POINT ( 'NONE', #728 ) ;
#642 = DIRECTION ( 'NONE',  ( 0.000000000000000000, 0.000000000000000000, 1.000000000000000000 ) ) ;
#643 = CARTESIAN_POINT ( 'NONE',  ( 36.36751345948135139, 80.00000000000000000, 25.00000000000000000 ) ) ;
#644 = ORIENTED_EDGE ( 'NONE', *, *, #711, .F. ) ;
#645 = EDGE_CURVE ( 'NONE', #72, #555, #34, .T. ) ;
#646 = DIRECTION ( 'NONE',  ( 0.000000000000000000, 0.000000000000000000, -1.000000000000000000 ) ) ;
#647 = CC_DESIGN_PERSON_AND_ORGANIZATION_ASSIGNMENT ( #288, #226, ( #661 ) ) ;
#648 = AXIS2_PLACEMENT_3D ( 'NONE', #369, #545, #71 ) ;
#649 = VECTOR ( 'NONE', #718, 1000.000000000000000 ) ;
#650 = LOCAL_TIME ( 10, 20, 29.00000000000000000, #402 ) ;
#651 = CARTESIAN_POINT ( 'NONE',  ( 6.833067454095966625E-19, 78.99999999999998579, 25.00000000000000000 ) ) ;
#652 = EDGE_LOOP ( 'NONE', ( #633, #67, #736, #431 ) ) ;
#653 = FACE_OUTER_BOUND ( 'NONE', #539, .T. ) ;
#654 = VERTEX_POINT ( 'NONE', #723 ) ;
#655 = EDGE_CURVE ( 'NONE', #654, #224, #731, .T. ) ;
#656 = CARTESIAN_POINT ( 'NONE',  ( 7.500000000000000888, 0.000000000000000000, 25.00000000000000000 ) ) ;
#657 = EDGE_LOOP ( 'NONE', ( #138, #706 ) ) ;
#658 = CARTESIAN_POINT ( 'NONE',  ( 2.483119354241197579E-17, 43.66025403784437486, -25.00000000000000000 ) ) ;
#659 = CYLINDRICAL_SURFACE ( 'NONE', #160, 2.250000000000008882 ) ;
#660 = EDGE_CURVE ( 'NONE', #371, #724, #320, .T. ) ;
#661 = PRODUCT_DEFINITION_FORMATION_WITH_SPECIFIED_SOURCE ( 'ANY', '', #606, .NOT_KNOWN. ) ;
#662 = VERTEX_POINT ( 'NONE', #380 ) ;
#663 = PLANE ( 'NONE',  #162 ) ;
#664 = ORIENTED_EDGE ( 'NONE', *, *, #589, .T. ) ;
#665 = EDGE_CURVE ( 'NONE', #196, #411, #87, .T. ) ;
#666 = DIRECTION ( 'NONE',  ( 0.000000000000000000, 1.000000000000000000, 0.000000000000000000 ) ) ;
#667 = VERTEX_POINT ( 'NONE', #273 ) ;
#668 = PRODUCT_RELATED_PRODUCT_CATEGORY ( 'detail', '', ( #606 ) ) ;
#669 = DIRECTION ( 'NONE',  ( 0.000000000000000000, 1.000000000000000000, 0.000000000000000000 ) ) ;
#670 = VECTOR ( 'NONE', #631, 1000.000000000000000 ) ;
#671 = FACE_OUTER_BOUND ( 'NONE', #722, .T. ) ;
#672 = CIRCLE ( 'NONE', #252, 2.250000000000001776 ) ;
#673 = FACE_BOUND ( 'NONE', #287, .T. ) ;
#674 = CYLINDRICAL_SURFACE ( 'NONE', #611, 2.250000000000008882 ) ;
#675 = ORIENTED_EDGE ( 'NONE', *, *, #13, .F. ) ;
#676 = LINE ( 'NONE', #93, #432 ) ;
#677 = CARTESIAN_POINT ( 'NONE',  ( 6.183756729740676583, 72.00000000000001421, -16.75000000000000000 ) ) ;
#678 = EDGE_CURVE ( 'NONE', #132, #724, #708, .T. ) ;
#679 = DIRECTION ( 'NONE',  ( -0.000000000000000000, -1.000000000000000000, -0.000000000000000000 ) ) ;
#680 = FACE_BOUND ( 'NONE', #40, .T. ) ;
#681 = PERSON_AND_ORGANIZATION ( #486, #383 ) ;
#682 = ORIENTED_EDGE ( 'NONE', *, *, #73, .T. ) ;
#683 = DIRECTION ( 'NONE',  ( 0.000000000000000000, 0.000000000000000000, 1.000000000000000000 ) ) ;
#684 = VECTOR ( 'NONE', #615, 1000.000000000000114 ) ;
#685 = AXIS2_PLACEMENT_3D ( 'NONE', #374, #236, #694 ) ;
#686 = DATE_AND_TIME ( #49, #364 ) ;
#687 = LINE ( 'NONE', #738, #360 ) ;
#688 = CARTESIAN_POINT ( 'NONE',  ( 24.24500897298756996, 91.12250448649376722, 12.87749551350621680 ) ) ;
#689 = ADVANCED_FACE ( 'NONE', ( #551 ), #32, .T. ) ;
#690 = CARTESIAN_POINT ( 'NONE',  ( 36.36751345948135139, 50.00000000000000000, -25.00000000000000000 ) ) ;
#691 = DIRECTION ( 'NONE',  ( 0.000000000000000000, 0.000000000000000000, -1.000000000000000000 ) ) ;
#692 = COORDINATED_UNIVERSAL_TIME_OFFSET ( 0, 0, .AHEAD. ) ;
#693 = CARTESIAN_POINT ( 'NONE',  ( 6.183756729740676583, 72.00000000000001421, -19.00000000000000355 ) ) ;
#694 = DIRECTION ( 'NONE',  ( 0.000000000000000000, 0.000000000000000000, -1.000000000000000000 ) ) ;
#695 = ORIENTED_EDGE ( 'NONE', *, *, #96, .T. ) ;
#696 = AXIS2_PLACEMENT_3D ( 'NONE', #61, #125, #286 ) ;
#697 = CARTESIAN_POINT ( 'NONE',  ( -5.000000000000000000, 35.00000000000000000, 25.00000000000000000 ) ) ;
#698 = EDGE_CURVE ( 'NONE', #359, #555, #268, .T. ) ;
#699 = CARTESIAN_POINT ( 'NONE',  ( 6.833067454096027292E-19, 78.99999999999998579, 25.00000000000000000 ) ) ;
#700 = FACE_OUTER_BOUND ( 'NONE', #363, .T. ) ;
#701 = ORIENTED_EDGE ( 'NONE', *, *, #171, .F. ) ;
#702 = CARTESIAN_POINT ( 'NONE',  ( 36.36751345948135139, 78.99999999999998579, 25.00000000000000000 ) ) ;
#703 = CARTESIAN_POINT ( 'NONE',  ( 30.18375672974067569, 72.00000000000001421, 16.74999999999999645 ) ) ;
#704 = EDGE_LOOP ( 'NONE', ( #497, #584, #546, #437 ) ) ;
#705 = CARTESIAN_POINT ( 'NONE',  ( -5.000000000000000000, 35.00000000000000000, 25.00000000000000000 ) ) ;
#706 = ORIENTED_EDGE ( 'NONE', *, *, #467, .T. ) ;
#707 = CIRCLE ( 'NONE', #201, 2.250000000000008882 ) ;
#708 = CIRCLE ( 'NONE', #453, 2.250000000000001776 ) ;
#709 = LINE ( 'NONE', #488, #240 ) ;
#710 = EDGE_LOOP ( 'NONE', ( #306, #365 ) ) ;
#711 = EDGE_CURVE ( 'NONE', #411, #506, #505, .T. ) ;
#712 = CYLINDRICAL_SURFACE ( 'NONE', #361, 2.250000000000008882 ) ;
#713 = ORIENTED_EDGE ( 'NONE', *, *, #645, .T. ) ;
#714 = ADVANCED_FACE ( 'NONE', ( #612 ), #554, .F. ) ;
#715 = DIRECTION ( 'NONE',  ( 0.000000000000000000, 1.000000000000000000, 0.000000000000000000 ) ) ;
#716 = PLANE ( 'NONE',  #212 ) ;
#717 = ORIENTED_EDGE ( 'NONE', *, *, #504, .F. ) ;
#718 = DIRECTION ( 'NONE',  ( -0.000000000000000000, -0.000000000000000000, -1.000000000000000000 ) ) ;
#719 = VECTOR ( 'NONE', #317, 1000.000000000000000 ) ;
#720 = VECTOR ( 'NONE', #528, 1000.000000000000000 ) ;
#721 = EDGE_CURVE ( 'NONE', #248, #371, #311, .T. ) ;
#722 = EDGE_LOOP ( 'NONE', ( #70, #381, #318, #489 ) ) ;
#723 = CARTESIAN_POINT ( 'NONE',  ( 30.18375672974067569, 72.00000000000001421, -21.25000000000001421 ) ) ;
#724 = VERTEX_POINT ( 'NONE', #735 ) ;
#725 = LINE ( 'NONE', #604, #649 ) ;
#726 = ORIENTED_EDGE ( 'NONE', *, *, #638, .T. ) ;
#727 = CARTESIAN_POINT ( 'NONE',  ( 30.18375672974067569, 72.00000000000001421, 19.00000000000000711 ) ) ;
#728 = CARTESIAN_POINT ( 'NONE',  ( 6.183756729740676583, 80.00000000000000000, 21.25000000000000355 ) ) ;
#729 = VECTOR ( 'NONE', #154, 999.9999999999998863 ) ;
#730 = ORIENTED_EDGE ( 'NONE', *, *, #370, .T. ) ;
#731 = CIRCLE ( 'NONE', #75, 2.250000000000008882 ) ;
#732 = CARTESIAN_POINT ( 'NONE',  ( -5.000000000000000000, 35.00000000000000000, 25.00000000000000000 ) ) ;
#733 = ORIENTED_EDGE ( 'NONE', *, *, #157, .F. ) ;
#734 = EDGE_CURVE ( 'NONE', #248, #132, #445, .T. ) ;
#735 = CARTESIAN_POINT ( 'NONE',  ( 6.183756729740676583, 80.00000000000000000, -21.25000000000000355 ) ) ;
#736 = ORIENTED_EDGE ( 'NONE', *, *, #734, .T. ) ;
#737 = PLANE ( 'NONE',  #562 ) ;
#738 = CARTESIAN_POINT ( 'NONE',  ( -5.000000000000000000, -6.123233995736766282E-16, 25.00000000000000000 ) ) ;
#739 = DIRECTION ( 'NONE',  ( 0.000000000000000000, -1.000000000000000000, 0.000000000000000000 ) ) ;
#740 = PERSON_AND_ORGANIZATION_ROLE ( 'creator' ) ;
#741 = DIRECTION ( 'NONE',  ( -6.833067454095936773E-19, 1.000000000000000000, 0.000000000000000000 ) ) ;
#742 = ADVANCED_FACE ( 'NONE', ( #434 ), #663, .T. ) ;
#743 = PLANE ( 'NONE',  #336 ) ;
#744 = VECTOR ( 'NONE', #391, 1000.000000000000000 ) ;
#745 = PERSON_AND_ORGANIZATION_ROLE ( 'design_supplier' ) ;
#746 = FACE_OUTER_BOUND ( 'NONE', #33, .T. ) ;
#747 = PLANE ( 'NONE',  #191 ) ;
#748 = ADVANCED_FACE ( 'NONE', ( #346 ), #278, .F. ) ;
#749 = CARTESIAN_POINT ( 'NONE',  ( 6.183756729740676583, 72.00000000000001421, -19.00000000000000355 ) ) ;
#750 = DIRECTION ( 'NONE',  ( 1.000000000000000000, 0.000000000000000000, 0.000000000000000000 ) ) ;
#751 = DIRECTION ( 'NONE',  ( 6.833067454095935810E-19, -1.000000000000000000, -0.000000000000000000 ) ) ;
#752 = VERTEX_POINT ( 'NONE', #697 ) ;
ENDSEC;
END-ISO-10303-21;
