ISO-10303-21;
HEADER;
FILE_DESCRIPTION (( 'STEP AP203' ),
    '1' );
FILE_NAME ('die_horiz.STEP',
    '2025-12-17T10:21:31',
    ( '' ),
    ( '' ),
    '',
    '',
    '' );
FILE_SCHEMA (( 'CONFIG_CONTROL_DESIGN' ));
ENDSEC;

DATA;
#1 = DIRECTION ( 'NONE',  ( 0.000000000000000000, 0.000000000000000000, 1.000000000000000000 ) ) ;
#2 = DIRECTION ( 'NONE',  ( -0.000000000000000000, 1.000000000000000000, -0.000000000000000000 ) ) ;
#3 = VECTOR ( 'NONE', #364, 1000.000000000000000 ) ;
#4 = DIRECTION ( 'NONE',  ( 0.000000000000000000, 0.000000000000000000, 1.000000000000000000 ) ) ;
#5 = CARTESIAN_POINT ( 'NONE',  ( 0.000000000000000000, 12.00000000000000000, -13.30000000000000071 ) ) ;
#6 = CARTESIAN_POINT ( 'NONE',  ( 0.000000000000000000, 8.599999999999999645, 15.00000000000000000 ) ) ;
#7 = EDGE_LOOP ( 'NONE', ( #27, #682, #201, #214 ) ) ;
#8 = CLOSED_SHELL ( 'NONE', ( #412, #835, #125, #564, #782, #281, #774, #538, #738, #352, #308, #716, #19, #435, #560, #747, #626, #443, #367, #117, #687, #381, #344, #449, #68, #515 ) ) ;
#9 = VECTOR ( 'NONE', #296, 1000.000000000000114 ) ;
#10 = APPROVAL_ROLE ( '' ) ;
#11 = CARTESIAN_POINT ( 'NONE',  ( 0.000000000000000000, 12.00000000000000000, 0.000000000000000000 ) ) ;
#12 = DIRECTION ( 'NONE',  ( -0.000000000000000000, 1.000000000000000000, -0.000000000000000000 ) ) ;
#13 = EDGE_LOOP ( 'NONE', ( #36, #85 ) ) ;
#14 = EDGE_CURVE ( 'NONE', #197, #396, #380, .T. ) ;
#15 = CARTESIAN_POINT ( 'NONE',  ( 0.000000000000000000, 8.599999999999999645, -13.30000000000000071 ) ) ;
#16 = DIRECTION ( 'NONE',  ( -0.000000000000000000, 1.000000000000000000, -0.000000000000000000 ) ) ;
#17 = ORIENTED_EDGE ( 'NONE', *, *, #167, .T. ) ;
#18 = COORDINATED_UNIVERSAL_TIME_OFFSET ( 0, 0, .AHEAD. ) ;
#19 = ADVANCED_FACE ( 'NONE', ( #519, #645, #540, #784, #323 ), #260, .F. ) ;
#20 = DIRECTION ( 'NONE',  ( 0.000000000000000000, 1.000000000000000000, 0.000000000000000000 ) ) ;
#21 = CYLINDRICAL_SURFACE ( 'NONE', #382, 1.700000000000000178 ) ;
#22 = EDGE_LOOP ( 'NONE', ( #569, #355, #325, #562 ) ) ;
#23 = CIRCLE ( 'NONE', #90, 1.700000000000000178 ) ;
#24 = AXIS2_PLACEMENT_3D ( 'NONE', #588, #793, #1 ) ;
#25 = DIRECTION ( 'NONE',  ( 0.000000000000000000, 0.000000000000000000, 1.000000000000000000 ) ) ;
#26 = CARTESIAN_POINT ( 'NONE',  ( 15.00000000000000000, 12.00000000000000000, -1.700000000000000178 ) ) ;
#27 = ORIENTED_EDGE ( 'NONE', *, *, #192, .F. ) ;
#28 = EDGE_CURVE ( 'NONE', #577, #566, #394, .T. ) ;
#29 = LINE ( 'NONE', #680, #173 ) ;
#30 = DIRECTION ( 'NONE',  ( -0.000000000000000000, 1.000000000000000000, -0.000000000000000000 ) ) ;
#31 = ORIENTED_EDGE ( 'NONE', *, *, #321, .F. ) ;
#32 = EDGE_CURVE ( 'NONE', #755, #141, #592, .T. ) ;
#33 = CIRCLE ( 'NONE', #513, 1.699999999999998401 ) ;
#34 = DIRECTION ( 'NONE',  ( -0.000000000000000000, 1.000000000000000000, -0.000000000000000000 ) ) ;
#35 = CARTESIAN_POINT ( 'NONE',  ( 15.00000000000000000, 8.599999999999999645, 0.000000000000000000 ) ) ;
#36 = ORIENTED_EDGE ( 'NONE', *, *, #822, .T. ) ;
#37 = FACE_OUTER_BOUND ( 'NONE', #226, .T. ) ;
#38 = LOCAL_TIME ( 10, 21, 31.00000000000000000, #529 ) ;
#39 = CARTESIAN_POINT ( 'NONE',  ( 0.000000000000000000, 1.000000000000004441, 0.000000000000000000 ) ) ;
#40 = ORIENTED_EDGE ( 'NONE', *, *, #46, .T. ) ;
#41 = LINE ( 'NONE', #814, #156 ) ;
#42 = FACE_OUTER_BOUND ( 'NONE', #22, .T. ) ;
#43 = ORIENTED_EDGE ( 'NONE', *, *, #675, .F. ) ;
#44 = CIRCLE ( 'NONE', #523, 3.249999999999996003 ) ;
#45 = CARTESIAN_POINT ( 'NONE',  ( 0.000000000000000000, 12.00000000000000000, 15.00000000000000000 ) ) ;
#46 = EDGE_CURVE ( 'NONE', #106, #625, #517, .T. ) ;
#47 = FACE_OUTER_BOUND ( 'NONE', #522, .T. ) ;
#48 = ORIENTED_EDGE ( 'NONE', *, *, #81, .F. ) ;
#49 = CARTESIAN_POINT ( 'NONE',  ( 0.000000000000000000, 12.00000000000000000, 0.000000000000000000 ) ) ;
#50 = CARTESIAN_POINT ( 'NONE',  ( 15.00000000000000000, 12.00000000000000000, -3.249999999999996003 ) ) ;
#51 = EDGE_LOOP ( 'NONE', ( #411, #110 ) ) ;
#52 = FACE_OUTER_BOUND ( 'NONE', #474, .T. ) ;
#53 = DIRECTION ( 'NONE',  ( -0.000000000000000000, 1.000000000000000000, -0.000000000000000000 ) ) ;
#54 = ORIENTED_EDGE ( 'NONE', *, *, #618, .T. ) ;
#55 = APPLICATION_CONTEXT ( 'configuration controlled 3d designs of mechanical parts and assemblies' ) ;
#56 = EDGE_CURVE ( 'NONE', #488, #290, #291, .T. ) ;
#57 = CARTESIAN_POINT ( 'NONE',  ( 0.000000000000000000, 1.000000000000004441, 0.000000000000000000 ) ) ;
#58 = EDGE_LOOP ( 'NONE', ( #462, #181, #336, #594 ) ) ;
#59 = AXIS2_PLACEMENT_3D ( 'NONE', #414, #165, #820 ) ;
#60 = ORIENTED_EDGE ( 'NONE', *, *, #242, .F. ) ;
#61 = CARTESIAN_POINT ( 'NONE',  ( 2.388061258337337756E-15, 0.000000000000000000, -18.99999999999998579 ) ) ;
#62 = ORIENTED_EDGE ( 'NONE', *, *, #337, .F. ) ;
#63 = LOCAL_TIME ( 10, 21, 31.00000000000000000, #72 ) ;
#64 = AXIS2_PLACEMENT_3D ( 'NONE', #425, #746, #563 ) ;
#65 = APPROVAL_STATUS ( 'not_yet_approved' ) ;
#66 = EDGE_LOOP ( 'NONE', ( #695, #690, #54, #734 ) ) ;
#67 = CYLINDRICAL_SURFACE ( 'NONE', #151, 3.249999999999996003 ) ;
#68 = ADVANCED_FACE ( 'NONE', ( #199, #134 ), #328, .F. ) ;
#69 = CIRCLE ( 'NONE', #552, 1.699999999999998401 ) ;
#70 = CARTESIAN_POINT ( 'NONE',  ( -15.00000000000000000, 12.00000000000000000, 0.000000000000000000 ) ) ;
#71 = ORIENTED_EDGE ( 'NONE', *, *, #242, .T. ) ;
#72 = COORDINATED_UNIVERSAL_TIME_OFFSET ( 0, 0, .AHEAD. ) ;
#73 = DIRECTION ( 'NONE',  ( 0.000000000000000000, 0.000000000000000000, 1.000000000000000000 ) ) ;
#74 = ORIENTED_EDGE ( 'NONE', *, *, #75, .F. ) ;
#75 = EDGE_CURVE ( 'NONE', #698, #454, #104, .T. ) ;
#76 = CIRCLE ( 'NONE', #318, 1.700000000000000178 ) ;
#77 = APPROVAL_DATE_TIME ( #602, #258 ) ;
#78 = CYLINDRICAL_SURFACE ( 'NONE', #24, 3.249999999999996003 ) ;
#79 = DIRECTION ( 'NONE',  ( 0.000000000000000000, 0.000000000000000000, 1.000000000000000000 ) ) ;
#80 = ORIENTED_EDGE ( 'NONE', *, *, #292, .F. ) ;
#81 = EDGE_CURVE ( 'NONE', #189, #577, #391, .T. ) ;
#82 = DATE_AND_TIME ( #533, #63 ) ;
#83 = DIRECTION ( 'NONE',  ( -0.000000000000000000, 1.000000000000000000, -0.000000000000000000 ) ) ;
#84 = CARTESIAN_POINT ( 'NONE',  ( 15.00000000000000000, 8.599999999999999645, 0.000000000000000000 ) ) ;
#85 = ORIENTED_EDGE ( 'NONE', *, *, #274, .T. ) ;
#86 = AXIS2_PLACEMENT_3D ( 'NONE', #136, #609, #400 ) ;
#87 = CARTESIAN_POINT ( 'NONE',  ( 15.00000000000000000, 8.599999999999999645, 1.700000000000000178 ) ) ;
#88 = DIRECTION ( 'NONE',  ( 0.000000000000000000, 0.000000000000000000, 1.000000000000000000 ) ) ;
#89 = VERTEX_POINT ( 'NONE', #534 ) ;
#90 = AXIS2_PLACEMENT_3D ( 'NONE', #518, #433, #122 ) ;
#91 = PERSON ( 'UNSPECIFIED', 'UNSPECIFIED', 'UNSPECIFIED', ('UNSPECIFIED'), ('UNSPECIFIED'), ('UNSPECIFIED') ) ;
#92 = DIRECTION ( 'NONE',  ( -0.000000000000000000, 1.000000000000000000, -0.000000000000000000 ) ) ;
#93 = EDGE_CURVE ( 'NONE', #550, #106, #194, .T. ) ;
#94 = CYLINDRICAL_SURFACE ( 'NONE', #246, 3.249999999999996003 ) ;
#95 = ORIENTED_EDGE ( 'NONE', *, *, #455, .T. ) ;
#96 = DIRECTION ( 'NONE',  ( 0.000000000000000000, 0.000000000000000000, 1.000000000000000000 ) ) ;
#97 = CARTESIAN_POINT ( 'NONE',  ( -15.00000000000000000, 8.599999999999999645, 3.249999999999996003 ) ) ;
#98 = ORIENTED_EDGE ( 'NONE', *, *, #759, .T. ) ;
#99 = VECTOR ( 'NONE', #811, 1000.000000000000000 ) ;
#100 = CARTESIAN_POINT ( 'NONE',  ( 0.000000000000000000, 12.00000000000000000, 16.69999999999999929 ) ) ;
#101 = DIRECTION ( 'NONE',  ( -0.000000000000000000, 1.000000000000000000, -0.000000000000000000 ) ) ;
#102 = EDGE_LOOP ( 'NONE', ( #725, #833 ) ) ;
#103 = CARTESIAN_POINT ( 'NONE',  ( 0.000000000000000000, 8.599999999999999645, 16.69999999999999929 ) ) ;
#104 = CIRCLE ( 'NONE', #331, 1.699999999999998401 ) ;
#105 = CARTESIAN_POINT ( 'NONE',  ( 0.000000000000000000, 12.00000000000000000, -15.00000000000000000 ) ) ;
#106 = VERTEX_POINT ( 'NONE', #204 ) ;
#107 = CC_DESIGN_PERSON_AND_ORGANIZATION_ASSIGNMENT ( #133, #525, ( #720 ) ) ;
#108 = CYLINDRICAL_SURFACE ( 'NONE', #339, 3.249999999999996003 ) ;
#109 = FACE_OUTER_BOUND ( 'NONE', #613, .T. ) ;
#110 = ORIENTED_EDGE ( 'NONE', *, *, #589, .T. ) ;
#111 = PLANE ( 'NONE',  #343 ) ;
#112 = CARTESIAN_POINT ( 'NONE',  ( 2.081899558550500033E-16, 0.000000000000000000, 13.30000000000000071 ) ) ;
#113 = ORIENTED_EDGE ( 'NONE', *, *, #407, .F. ) ;
#114 = CARTESIAN_POINT ( 'NONE',  ( 15.00000000000000000, 12.00000000000000000, 3.249999999999996003 ) ) ;
#115 = DIRECTION ( 'NONE',  ( 0.000000000000000000, -0.000000000000000000, 1.000000000000000000 ) ) ;
#116 = EDGE_LOOP ( 'NONE', ( #365, #536 ) ) ;
#117 = ADVANCED_FACE ( 'NONE', ( #459 ), #477, .F. ) ;
#118 = DIRECTION ( 'NONE',  ( 0.000000000000000000, -0.000000000000000000, -1.000000000000000000 ) ) ;
#119 = DIRECTION ( 'NONE',  ( 0.000000000000000000, -1.000000000000000000, 0.000000000000000000 ) ) ;
#120 = DIRECTION ( 'NONE',  ( -0.000000000000000000, 1.000000000000000000, -0.000000000000000000 ) ) ;
#121 = AXIS2_PLACEMENT_3D ( 'NONE', #599, #200, #795 ) ;
#122 = DIRECTION ( 'NONE',  ( 0.000000000000000000, 0.000000000000000000, 1.000000000000000000 ) ) ;
#123 = ORIENTED_EDGE ( 'NONE', *, *, #218, .T. ) ;
#124 = AXIS2_PLACEMENT_3D ( 'NONE', #70, #324, #593 ) ;
#125 = ADVANCED_FACE ( 'NONE', ( #664 ), #78, .F. ) ;
#126 = PERSON_AND_ORGANIZATION ( #91, #390 ) ;
#127 = EDGE_LOOP ( 'NONE', ( #629, #444, #40, #660 ) ) ;
#128 = SECURITY_CLASSIFICATION ( '', '', #464 ) ;
#129 = EDGE_CURVE ( 'NONE', #141, #706, #238, .T. ) ;
#130 = CARTESIAN_POINT ( 'NONE',  ( 0.000000000000000000, 12.00000000000000000, -15.00000000000000000 ) ) ;
#131 = DIRECTION ( 'NONE',  ( 0.000000000000000000, 0.000000000000000000, 1.000000000000000000 ) ) ;
#132 = ORIENTED_EDGE ( 'NONE', *, *, #601, .F. ) ;
#133 = PERSON_AND_ORGANIZATION ( #91, #390 ) ;
#134 = FACE_OUTER_BOUND ( 'NONE', #709, .T. ) ;
#135 = EDGE_CURVE ( 'NONE', #550, #235, #277, .T. ) ;
#136 = CARTESIAN_POINT ( 'NONE',  ( 0.000000000000000000, 8.599999999999999645, -15.00000000000000000 ) ) ;
#137 = ORIENTED_EDGE ( 'NONE', *, *, #422, .F. ) ;
#138 = AXIS2_PLACEMENT_3D ( 'NONE', #39, #346, #561 ) ;
#139 = APPLICATION_PROTOCOL_DEFINITION ( 'international standard', 'config_control_design', 1994, #55 ) ;
#140 = FACE_OUTER_BOUND ( 'NONE', #542, .T. ) ;
#141 = VERTEX_POINT ( 'NONE', #15 ) ;
#142 = EDGE_CURVE ( 'NONE', #172, #520, #526, .T. ) ;
#143 = LOCAL_TIME ( 10, 21, 31.00000000000000000, #606 ) ;
#144 = DIRECTION ( 'NONE',  ( 0.000000000000000000, 0.000000000000000000, 1.000000000000000000 ) ) ;
#145 = DIRECTION ( 'NONE',  ( 0.000000000000000000, 0.000000000000000000, 1.000000000000000000 ) ) ;
#146 = ORIENTED_EDGE ( 'NONE', *, *, #264, .T. ) ;
#147 = DIRECTION ( 'NONE',  ( -0.000000000000000000, 1.000000000000000000, -0.000000000000000000 ) ) ;
#148 = DIRECTION ( 'NONE',  ( -0.000000000000000000, 1.000000000000000000, -0.000000000000000000 ) ) ;
#149 = EDGE_LOOP ( 'NONE', ( #816, #686 ) ) ;
#150 = CIRCLE ( 'NONE', #86, 1.699999999999998401 ) ;
#151 = AXIS2_PLACEMENT_3D ( 'NONE', #257, #665, #79 ) ;
#152 = CARTESIAN_POINT ( 'NONE',  ( 15.00000000000000000, 8.599999999999999645, 3.249999999999996003 ) ) ;
#153 = LINE ( 'NONE', #26, #3 ) ;
#154 = ORIENTED_EDGE ( 'NONE', *, *, #498, .T. ) ;
#155 = AXIS2_PLACEMENT_3D ( 'NONE', #186, #694, #632 ) ;
#156 = VECTOR ( 'NONE', #345, 1000.000000000000000 ) ;
#157 = EDGE_CURVE ( 'NONE', #89, #586, #348, .T. ) ;
#158 = CARTESIAN_POINT ( 'NONE',  ( 0.000000000000000000, 8.599999999999999645, 15.00000000000000000 ) ) ;
#159 = DIRECTION ( 'NONE',  ( -0.000000000000000000, 1.000000000000000000, -0.000000000000000000 ) ) ;
#160 = ORIENTED_EDGE ( 'NONE', *, *, #157, .T. ) ;
#161 = CARTESIAN_POINT ( 'NONE',  ( -15.00000000000000000, 8.599999999999999645, -1.699999999999998401 ) ) ;
#162 = CARTESIAN_POINT ( 'NONE',  ( 0.000000000000000000, 12.00000000000000000, -11.75000000000000355 ) ) ;
#163 = ORIENTED_EDGE ( 'NONE', *, *, #28, .F. ) ;
#164 = DIRECTION ( 'NONE',  ( 0.000000000000000000, 0.000000000000000000, 1.000000000000000000 ) ) ;
#165 = DIRECTION ( 'NONE',  ( -0.000000000000000000, 1.000000000000000000, -0.000000000000000000 ) ) ;
#166 = ORIENTED_EDGE ( 'NONE', *, *, #743, .T. ) ;
#167 = EDGE_CURVE ( 'NONE', #172, #776, #504, .T. ) ;
#168 = CARTESIAN_POINT ( 'NONE',  ( 15.00000000000000000, 12.00000000000000000, 0.000000000000000000 ) ) ;
#169 = APPROVAL_PERSON_ORGANIZATION ( #458, #258, #10 ) ;
#170 = VECTOR ( 'NONE', #672, 1000.000000000000000 ) ;
#171 = DIRECTION ( 'NONE',  ( 0.000000000000000000, 0.000000000000000000, 1.000000000000000000 ) ) ;
#172 = VERTEX_POINT ( 'NONE', #802 ) ;
#173 = VECTOR ( 'NONE', #92, 1000.000000000000000 ) ;
#174 = EDGE_CURVE ( 'NONE', #298, #837, #76, .T. ) ;
#175 = CARTESIAN_POINT ( 'NONE',  ( 3.980102097228892808E-16, 8.599999999999999645, 11.75000000000000355 ) ) ;
#176 = LINE ( 'NONE', #50, #539 ) ;
#177 = ORIENTED_EDGE ( 'NONE', *, *, #589, .F. ) ;
#178 = CARTESIAN_POINT ( 'NONE',  ( 1.699999999999999067, 8.599999999999999645, -15.00000000000000000 ) ) ;
#179 = EDGE_CURVE ( 'NONE', #369, #396, #797, .T. ) ;
#180 = DIRECTION ( 'NONE',  ( -0.000000000000000000, 1.000000000000000000, -0.000000000000000000 ) ) ;
#181 = ORIENTED_EDGE ( 'NONE', *, *, #372, .F. ) ;
#182 = CYLINDRICAL_SURFACE ( 'NONE', #300, 3.249999999999996003 ) ;
#183 = FACE_BOUND ( 'NONE', #116, .T. ) ;
#184 = EDGE_LOOP ( 'NONE', ( #679, #841 ) ) ;
#185 = VECTOR ( 'NONE', #548, 1000.000000000000000 ) ;
#186 = CARTESIAN_POINT ( 'NONE',  ( 0.000000000000000000, 12.00000000000000000, 15.00000000000000000 ) ) ;
#187 = EDGE_LOOP ( 'NONE', ( #622, #581, #497, #401 ) ) ;
#188 = DESIGN_CONTEXT ( 'detailed design', #342, 'design' ) ;
#189 = VERTEX_POINT ( 'NONE', #233 ) ;
#190 = CALENDAR_DATE ( 2025, 17, 12 ) ;
#191 = ORIENTED_EDGE ( 'NONE', *, *, #174, .F. ) ;
#192 = EDGE_CURVE ( 'NONE', #451, #706, #29, .T. ) ;
#193 = APPROVAL_STATUS ( 'not_yet_approved' ) ;
#194 = LINE ( 'NONE', #788, #170 ) ;
#195 = LOCAL_TIME ( 10, 21, 31.00000000000000000, #265 ) ;
#196 = DIRECTION ( 'NONE',  ( 0.000000000000000000, 0.000000000000000000, 1.000000000000000000 ) ) ;
#197 = VERTEX_POINT ( 'NONE', #152 ) ;
#198 =( NAMED_UNIT ( * ) SI_UNIT ( $, .STERADIAN. ) SOLID_ANGLE_UNIT ( ) );
#199 = FACE_BOUND ( 'NONE', #276, .T. ) ;
#200 = DIRECTION ( 'NONE',  ( -0.000000000000000000, 1.000000000000000000, -0.000000000000000000 ) ) ;
#201 = ORIENTED_EDGE ( 'NONE', *, *, #32, .T. ) ;
#202 = PERSON_AND_ORGANIZATION_ROLE ( 'design_supplier' ) ;
#203 = EDGE_CURVE ( 'NONE', #298, #221, #627, .T. ) ;
#204 = CARTESIAN_POINT ( 'NONE',  ( 3.980102097228892808E-16, 12.00000000000000000, -18.24999999999999645 ) ) ;
#205 = DIRECTION ( 'NONE',  ( -0.000000000000000000, 1.000000000000000000, -0.000000000000000000 ) ) ;
#206 = ORIENTED_EDGE ( 'NONE', *, *, #356, .T. ) ;
#207 = CIRCLE ( 'NONE', #453, 1.699999999999998401 ) ;
#208 = DATE_TIME_ROLE ( 'classification_date' ) ;
#209 = DIRECTION ( 'NONE',  ( 0.000000000000000000, 0.000000000000000000, 1.000000000000000000 ) ) ;
#210 = DIRECTION ( 'NONE',  ( 0.000000000000000000, 0.000000000000000000, 1.000000000000000000 ) ) ;
#211 = VERTEX_POINT ( 'NONE', #288 ) ;
#212 = DIRECTION ( 'NONE',  ( 0.000000000000000000, 0.000000000000000000, 1.000000000000000000 ) ) ;
#213 = CARTESIAN_POINT ( 'NONE',  ( 0.000000000000000000, 1.000000000000004441, 0.000000000000000000 ) ) ;
#214 = ORIENTED_EDGE ( 'NONE', *, *, #129, .T. ) ;
#215 = CARTESIAN_POINT ( 'NONE',  ( 0.000000000000000000, 0.000000000000000000, 16.69999999999999929 ) ) ;
#216 = DIRECTION ( 'NONE',  ( -0.000000000000000000, 1.000000000000000000, -0.000000000000000000 ) ) ;
#217 = ORIENTED_EDGE ( 'NONE', *, *, #463, .T. ) ;
#218 = EDGE_CURVE ( 'NONE', #221, #600, #598, .T. ) ;
#219 = DIRECTION ( 'NONE',  ( -0.000000000000000000, 1.000000000000000000, -0.000000000000000000 ) ) ;
#220 = CARTESIAN_POINT ( 'NONE',  ( 2.081899558550500033E-16, 8.599999999999999645, 13.30000000000000071 ) ) ;
#221 = VERTEX_POINT ( 'NONE', #103 ) ;
#222 = AXIS2_PLACEMENT_3D ( 'NONE', #580, #53, #368 ) ;
#223 = CIRCLE ( 'NONE', #649, 18.99999999999998579 ) ;
#224 = CARTESIAN_POINT ( 'NONE',  ( 0.000000000000000000, 8.599999999999999645, -11.75000000000000355 ) ) ;
#225 = DIRECTION ( 'NONE',  ( -0.000000000000000000, 1.000000000000000000, -0.000000000000000000 ) ) ;
#226 = EDGE_LOOP ( 'NONE', ( #439, #434, #206, #80 ) ) ;
#227 = LINE ( 'NONE', #486, #460 ) ;
#228 = EDGE_CURVE ( 'NONE', #235, #625, #363, .T. ) ;
#229 = CARTESIAN_POINT ( 'NONE',  ( 2.081899558550497814E-16, 8.599999999999999645, -16.69999999999999929 ) ) ;
#230 = EDGE_LOOP ( 'NONE', ( #670, #484, #546, #775 ) ) ;
#231 = AXIS2_PLACEMENT_3D ( 'NONE', #57, #373, #637 ) ;
#232 = AXIS2_PLACEMENT_3D ( 'NONE', #604, #736, #73 ) ;
#233 = CARTESIAN_POINT ( 'NONE',  ( 2.449293598294706119E-15, 12.00000000000000000, 19.99999999999999645 ) ) ;
#234 = CARTESIAN_POINT ( 'NONE',  ( -15.00000000000000000, 0.000000000000000000, -1.699999999999998401 ) ) ;
#235 = VERTEX_POINT ( 'NONE', #224 ) ;
#236 = AXIS2_PLACEMENT_3D ( 'NONE', #603, #717, #144 ) ;
#237 = CYLINDRICAL_SURFACE ( 'NONE', #370, 19.99999999999999645 ) ;
#238 = CIRCLE ( 'NONE', #375, 1.699999999999998401 ) ;
#239 = CARTESIAN_POINT ( 'NONE',  ( 0.000000000000000000, 12.00000000000000000, 15.00000000000000000 ) ) ;
#240 = EDGE_LOOP ( 'NONE', ( #48, #502, #217, #163 ) ) ;
#241 = AXIS2_PLACEMENT_3D ( 'NONE', #494, #739, #676 ) ;
#242 = EDGE_CURVE ( 'NONE', #837, #600, #227, .T. ) ;
#243 = DIRECTION ( 'NONE',  ( 0.000000000000000000, 1.000000000000000000, 0.000000000000000000 ) ) ;
#244 = ORIENTED_EDGE ( 'NONE', *, *, #707, .F. ) ;
#245 = FACE_OUTER_BOUND ( 'NONE', #555, .T. ) ;
#246 = AXIS2_PLACEMENT_3D ( 'NONE', #685, #216, #297 ) ;
#247 =( NAMED_UNIT ( * ) PLANE_ANGLE_UNIT ( ) SI_UNIT ( $, .RADIAN. ) );
#248 = ORIENTED_EDGE ( 'NONE', *, *, #648, .F. ) ;
#249 = DIRECTION ( 'NONE',  ( -0.000000000000000000, 1.000000000000000000, -0.000000000000000000 ) ) ;
#250 = CARTESIAN_POINT ( 'NONE',  ( 15.00000000000000000, 12.00000000000000000, 3.249999999999996003 ) ) ;
#251 = FACE_OUTER_BOUND ( 'NONE', #66, .T. ) ;
#252 = VERTEX_POINT ( 'NONE', #161 ) ;
#253 = EDGE_CURVE ( 'NONE', #189, #520, #349, .T. ) ;
#254 = CONICAL_SURFACE ( 'NONE', #480, 19.99999999999999645, 0.7853981633974517207 ) ;
#255 = AXIS2_PLACEMENT_3D ( 'NONE', #781, #12, #461 ) ;
#256 = CARTESIAN_POINT ( 'NONE',  ( 0.000000000000000000, 12.00000000000000000, -19.99999999999999645 ) ) ;
#257 = CARTESIAN_POINT ( 'NONE',  ( 0.000000000000000000, 12.00000000000000000, 15.00000000000000000 ) ) ;
#258 = APPROVAL ( #587, 'UNSPECIFIED' ) ;
#259 = APPLICATION_PROTOCOL_DEFINITION ( 'international standard', 'config_control_design', 1994, #342 ) ;
#260 = PLANE ( 'NONE',  #571 ) ;
#261 = DIRECTION ( 'NONE',  ( 0.000000000000000000, 0.000000000000000000, 1.000000000000000000 ) ) ;
#262 = ORIENTED_EDGE ( 'NONE', *, *, #763, .T. ) ;
#263 = AXIS2_PLACEMENT_3D ( 'NONE', #11, #334, #212 ) ;
#264 = EDGE_CURVE ( 'NONE', #776, #172, #223, .T. ) ;
#265 = COORDINATED_UNIVERSAL_TIME_OFFSET ( 0, 0, .AHEAD. ) ;
#266 = CARTESIAN_POINT ( 'NONE',  ( -15.00000000000000000, 12.00000000000000000, 0.000000000000000000 ) ) ;
#267 = DIRECTION ( 'NONE',  ( 0.000000000000000000, 0.000000000000000000, 1.000000000000000000 ) ) ;
#268 = EDGE_LOOP ( 'NONE', ( #479, #773 ) ) ;
#269 = APPROVAL_DATE_TIME ( #467, #801 ) ;
#270 = CARTESIAN_POINT ( 'NONE',  ( 0.000000000000000000, 1.000000000000004441, 19.99999999999999645 ) ) ;
#271 = CYLINDRICAL_SURFACE ( 'NONE', #817, 1.700000000000000178 ) ;
#272 = ORIENTED_EDGE ( 'NONE', *, *, #142, .T. ) ;
#273 = DIRECTION ( 'NONE',  ( -0.000000000000000000, -1.000000000000000000, -0.000000000000000000 ) ) ;
#274 = EDGE_CURVE ( 'NONE', #752, #516, #362, .T. ) ;
#275 = CARTESIAN_POINT ( 'NONE',  ( 0.000000000000000000, 12.00000000000000000, 15.00000000000000000 ) ) ;
#276 = EDGE_LOOP ( 'NONE', ( #800, #31 ) ) ;
#277 = CIRCLE ( 'NONE', #236, 3.249999999999996003 ) ;
#278 = CARTESIAN_POINT ( 'NONE',  ( 0.000000000000000000, 0.000000000000000000, 15.00000000000000000 ) ) ;
#279 = FACE_BOUND ( 'NONE', #268, .T. ) ;
#280 = ORIENTED_EDGE ( 'NONE', *, *, #93, .F. ) ;
#281 = ADVANCED_FACE ( 'NONE', ( #37 ), #753, .F. ) ;
#282 = CARTESIAN_POINT ( 'NONE',  ( 0.000000000000000000, 12.00000000000000000, 18.24999999999999645 ) ) ;
#283 = DIRECTION ( 'NONE',  ( 0.000000000000000000, 0.000000000000000000, 1.000000000000000000 ) ) ;
#284 = AXIS2_PLACEMENT_3D ( 'NONE', #178, #699, #118 ) ;
#285 = VERTEX_POINT ( 'NONE', #87 ) ;
#286 = CIRCLE ( 'NONE', #232, 3.249999999999996003 ) ;
#287 = AXIS2_PLACEMENT_3D ( 'NONE', #678, #30, #283 ) ;
#288 = CARTESIAN_POINT ( 'NONE',  ( 15.00000000000000000, 8.599999999999999645, -1.700000000000000178 ) ) ;
#289 = DIRECTION ( 'NONE',  ( -0.000000000000000000, 1.000000000000000000, -0.000000000000000000 ) ) ;
#290 = VERTEX_POINT ( 'NONE', #559 ) ;
#291 = CIRCLE ( 'NONE', #640, 3.249999999999996003 ) ;
#292 = EDGE_CURVE ( 'NONE', #516, #285, #41, .T. ) ;
#293 = DIRECTION ( 'NONE',  ( -0.000000000000000000, 1.000000000000000000, -0.000000000000000000 ) ) ;
#294 = DIRECTION ( 'NONE',  ( 0.000000000000000000, 0.000000000000000000, 1.000000000000000000 ) ) ;
#295 = ORIENTED_EDGE ( 'NONE', *, *, #661, .F. ) ;
#296 = DIRECTION ( 'NONE',  ( 8.659560562354962440E-17, 0.7071067811865451302, -0.7071067811865500152 ) ) ;
#297 = DIRECTION ( 'NONE',  ( 0.000000000000000000, 0.000000000000000000, 1.000000000000000000 ) ) ;
#298 = VERTEX_POINT ( 'NONE', #215 ) ;
#299 = CIRCLE ( 'NONE', #482, 3.249999999999996003 ) ;
#300 = AXIS2_PLACEMENT_3D ( 'NONE', #696, #826, #446 ) ;
#301 = DIRECTION ( 'NONE',  ( -0.000000000000000000, 1.000000000000000000, -0.000000000000000000 ) ) ;
#302 = CYLINDRICAL_SURFACE ( 'NONE', #489, 1.700000000000000178 ) ;
#303 = VERTEX_POINT ( 'NONE', #282 ) ;
#304 = DIRECTION ( 'NONE',  ( -0.000000000000000000, 1.000000000000000000, -0.000000000000000000 ) ) ;
#305 = VECTOR ( 'NONE', #219, 1000.000000000000000 ) ;
#306 = DIRECTION ( 'NONE',  ( 0.000000000000000000, 0.000000000000000000, 1.000000000000000000 ) ) ;
#307 = ORIENTED_EDGE ( 'NONE', *, *, #129, .F. ) ;
#308 = ADVANCED_FACE ( 'NONE', ( #353 ), #481, .T. ) ;
#309 = PRODUCT_DEFINITION_SHAPE ( 'NONE', 'NONE',  #393 ) ;
#310 = DIRECTION ( 'NONE',  ( -0.000000000000000000, -1.000000000000000000, -0.000000000000000000 ) ) ;
#311 = CARTESIAN_POINT ( 'NONE',  ( 0.000000000000000000, 8.599999999999999645, 18.24999999999999645 ) ) ;
#312 = ORIENTED_EDGE ( 'NONE', *, *, #585, .T. ) ;
#313 = AXIS2_PLACEMENT_3D ( 'NONE', #35, #289, #689 ) ;
#314 = ORIENTED_EDGE ( 'NONE', *, *, #794, .F. ) ;
#315 = EDGE_CURVE ( 'NONE', #776, #566, #805, .T. ) ;
#316 = DIRECTION ( 'NONE',  ( -0.000000000000000000, 1.000000000000000000, -0.000000000000000000 ) ) ;
#317 = ORIENTED_EDGE ( 'NONE', *, *, #503, .T. ) ;
#318 = AXIS2_PLACEMENT_3D ( 'NONE', #278, #34, #611 ) ;
#319 = PERSON_AND_ORGANIZATION ( #91, #390 ) ;
#320 = DIRECTION ( 'NONE',  ( 0.000000000000000000, -0.000000000000000000, -1.000000000000000000 ) ) ;
#321 = EDGE_CURVE ( 'NONE', #600, #221, #813, .T. ) ;
#322 = CARTESIAN_POINT ( 'NONE',  ( 15.00000000000000000, 0.000000000000000000, 1.700000000000000178 ) ) ;
#323 = FACE_OUTER_BOUND ( 'NONE', #431, .T. ) ;
#324 = DIRECTION ( 'NONE',  ( -0.000000000000000000, 1.000000000000000000, -0.000000000000000000 ) ) ;
#325 = ORIENTED_EDGE ( 'NONE', *, *, #485, .T. ) ;
#326 = CC_DESIGN_PERSON_AND_ORGANIZATION_ASSIGNMENT ( #779, #327, ( #393 ) ) ;
#327 = PERSON_AND_ORGANIZATION_ROLE ( 'creator' ) ;
#328 = PLANE ( 'NONE',  #758 ) ;
#329 = CARTESIAN_POINT ( 'NONE',  ( 0.000000000000000000, 12.00000000000000000, -15.00000000000000000 ) ) ;
#330 = ORIENTED_EDGE ( 'NONE', *, *, #485, .F. ) ;
#331 = AXIS2_PLACEMENT_3D ( 'NONE', #798, #735, #727 ) ;
#332 = AXIS2_PLACEMENT_3D ( 'NONE', #742, #615, #429 ) ;
#333 = SHAPE_DEFINITION_REPRESENTATION ( #309, #437 ) ;
#334 = DIRECTION ( 'NONE',  ( 0.000000000000000000, 1.000000000000000000, 0.000000000000000000 ) ) ;
#335 = CARTESIAN_POINT ( 'NONE',  ( 2.081899558550497814E-16, 0.000000000000000000, -16.69999999999999929 ) ) ;
#336 = ORIENTED_EDGE ( 'NONE', *, *, #28, .T. ) ;
#337 = EDGE_CURVE ( 'NONE', #828, #303, #688, .T. ) ;
#338 = DATE_TIME_ROLE ( 'creation_date' ) ;
#339 = AXIS2_PLACEMENT_3D ( 'NONE', #45, #301, #145 ) ;
#340 = FACE_OUTER_BOUND ( 'NONE', #405, .T. ) ;
#341 = EDGE_LOOP ( 'NONE', ( #786, #745, #419, #95 ) ) ;
#342 = APPLICATION_CONTEXT ( 'configuration controlled 3d designs of mechanical parts and assemblies' ) ;
#343 = AXIS2_PLACEMENT_3D ( 'NONE', #371, #572, #366 ) ;
#344 = ADVANCED_FACE ( 'NONE', ( #52 ), #182, .F. ) ;
#345 = DIRECTION ( 'NONE',  ( -0.000000000000000000, 1.000000000000000000, -0.000000000000000000 ) ) ;
#346 = DIRECTION ( 'NONE',  ( -0.000000000000000000, 1.000000000000000000, -0.000000000000000000 ) ) ;
#347 = EDGE_LOOP ( 'NONE', ( #804, #314, #378, #448 ) ) ;
#348 = CIRCLE ( 'NONE', #445, 3.249999999999996003 ) ;
#349 = LINE ( 'NONE', #551, #732 ) ;
#350 = CARTESIAN_POINT ( 'NONE',  ( 3.980102097228892808E-16, 12.00000000000000000, 11.75000000000000355 ) ) ;
#351 = ORIENTED_EDGE ( 'NONE', *, *, #321, .T. ) ;
#352 = ADVANCED_FACE ( 'NONE', ( #567 ), #237, .T. ) ;
#353 = FACE_OUTER_BOUND ( 'NONE', #58, .T. ) ;
#354 = DIRECTION ( 'NONE',  ( 0.000000000000000000, 0.000000000000000000, 1.000000000000000000 ) ) ;
#355 = ORIENTED_EDGE ( 'NONE', *, *, #192, .T. ) ;
#356 = EDGE_CURVE ( 'NONE', #211, #285, #416, .T. ) ;
#357 = AXIS2_PLACEMENT_3D ( 'NONE', #705, #119, #836 ) ;
#358 = CARTESIAN_POINT ( 'NONE',  ( 0.000000000000000000, 0.000000000000000000, 0.000000000000000000 ) ) ;
#359 = DIRECTION ( 'NONE',  ( 0.000000000000000000, 0.000000000000000000, 1.000000000000000000 ) ) ;
#360 = VERTEX_POINT ( 'NONE', #175 ) ;
#361 = AXIS2_PLACEMENT_3D ( 'NONE', #450, #438, #306 ) ;
#362 = CIRCLE ( 'NONE', #332, 1.700000000000000178 ) ;
#363 = LINE ( 'NONE', #556, #305 ) ;
#364 = DIRECTION ( 'NONE',  ( -0.000000000000000000, 1.000000000000000000, -0.000000000000000000 ) ) ;
#365 = ORIENTED_EDGE ( 'NONE', *, *, #585, .F. ) ;
#366 = DIRECTION ( 'NONE',  ( 0.000000000000000000, -0.000000000000000000, -1.000000000000000000 ) ) ;
#367 = ADVANCED_FACE ( 'NONE', ( #768, #436 ), #111, .F. ) ;
#368 = DIRECTION ( 'NONE',  ( 0.000000000000000000, 0.000000000000000000, 1.000000000000000000 ) ) ;
#369 = VERTEX_POINT ( 'NONE', #576 ) ;
#370 = AXIS2_PLACEMENT_3D ( 'NONE', #49, #310, #441 ) ;
#371 = CARTESIAN_POINT ( 'NONE',  ( 16.69999999999999929, 8.599999999999999645, 0.000000000000000000 ) ) ;
#372 = EDGE_CURVE ( 'NONE', #577, #189, #819, .T. ) ;
#373 = DIRECTION ( 'NONE',  ( -0.000000000000000000, 1.000000000000000000, -0.000000000000000000 ) ) ;
#374 = ORIENTED_EDGE ( 'NONE', *, *, #825, .T. ) ;
#375 = AXIS2_PLACEMENT_3D ( 'NONE', #409, #653, #731 ) ;
#376 = DIRECTION ( 'NONE',  ( 0.000000000000000000, 0.000000000000000000, 1.000000000000000000 ) ) ;
#377 = PLANE ( 'NONE',  #357 ) ;
#378 = ORIENTED_EDGE ( 'NONE', *, *, #337, .T. ) ;
#379 = CARTESIAN_POINT ( 'NONE',  ( -15.00000000000000000, 8.599999999999999645, 0.000000000000000000 ) ) ;
#380 = LINE ( 'NONE', #250, #614 ) ;
#381 = ADVANCED_FACE ( 'NONE', ( #510, #764 ), #631, .F. ) ;
#382 = AXIS2_PLACEMENT_3D ( 'NONE', #541, #410, #210 ) ;
#383 = AXIS2_PLACEMENT_3D ( 'NONE', #492, #101, #359 ) ;
#384 = CARTESIAN_POINT ( 'NONE',  ( 3.980102097228892808E-16, 12.00000000000000000, 11.75000000000000355 ) ) ;
#385 = EDGE_LOOP ( 'NONE', ( #154, #532 ) ) ;
#386 = EDGE_LOOP ( 'NONE', ( #719, #558 ) ) ;
#387 = AXIS2_PLACEMENT_3D ( 'NONE', #392, #4, #397 ) ;
#388 = PERSON_AND_ORGANIZATION ( #91, #390 ) ;
#389 = ORIENTED_EDGE ( 'NONE', *, *, #528, .F. ) ;
#390 = ORGANIZATION ( 'UNSPECIFIED', 'UNSPECIFIED', '' ) ;
#391 = CIRCLE ( 'NONE', #263, 19.99999999999999645 ) ;
#392 = CARTESIAN_POINT ( 'NONE',  ( 0.000000000000000000, 0.000000000000000000, 0.000000000000000000 ) ) ;
#393 = PRODUCT_DEFINITION ( 'UNKNOWN', '', #757, #188 ) ;
#394 = LINE ( 'NONE', #256, #703 ) ;
#395 = FACE_OUTER_BOUND ( 'NONE', #674, .T. ) ;
#396 = VERTEX_POINT ( 'NONE', #114 ) ;
#397 = DIRECTION ( 'NONE',  ( 1.000000000000000000, 0.000000000000000000, 0.000000000000000000 ) ) ;
#398 = AXIS2_PLACEMENT_3D ( 'NONE', #806, #159, #354 ) ;
#399 = CARTESIAN_POINT ( 'NONE',  ( 1.699999999999999067, 8.599999999999999645, 15.00000000000000000 ) ) ;
#400 = DIRECTION ( 'NONE',  ( 0.000000000000000000, 0.000000000000000000, 1.000000000000000000 ) ) ;
#401 = ORIENTED_EDGE ( 'NONE', *, *, #14, .F. ) ;
#402 = CALENDAR_DATE ( 2025, 17, 12 ) ;
#403 = CARTESIAN_POINT ( 'NONE',  ( 15.00000000000000000, 12.00000000000000000, 0.000000000000000000 ) ) ;
#404 = DIRECTION ( 'NONE',  ( 0.000000000000000000, 0.000000000000000000, 1.000000000000000000 ) ) ;
#405 = EDGE_LOOP ( 'NONE', ( #132, #771, #427, #748 ) ) ;
#406 = AXIS2_PLACEMENT_3D ( 'NONE', #809, #818, #96 ) ;
#407 = EDGE_CURVE ( 'NONE', #89, #290, #831, .T. ) ;
#408 = PERSON_AND_ORGANIZATION ( #91, #390 ) ;
#409 = CARTESIAN_POINT ( 'NONE',  ( 0.000000000000000000, 8.599999999999999645, -15.00000000000000000 ) ) ;
#410 = DIRECTION ( 'NONE',  ( -0.000000000000000000, 1.000000000000000000, -0.000000000000000000 ) ) ;
#411 = ORIENTED_EDGE ( 'NONE', *, *, #174, .T. ) ;
#412 = ADVANCED_FACE ( 'NONE', ( #245 ), #108, .F. ) ;
#413 = DIRECTION ( 'NONE',  ( 0.000000000000000000, 0.000000000000000000, 1.000000000000000000 ) ) ;
#414 = CARTESIAN_POINT ( 'NONE',  ( 0.000000000000000000, 12.00000000000000000, -15.00000000000000000 ) ) ;
#415 = ORIENTED_EDGE ( 'NONE', *, *, #476, .F. ) ;
#416 = CIRCLE ( 'NONE', #713, 1.700000000000000178 ) ;
#417 = DIRECTION ( 'NONE',  ( 0.000000000000000000, 0.000000000000000000, 1.000000000000000000 ) ) ;
#418 = CARTESIAN_POINT ( 'NONE',  ( 0.000000000000000000, 12.00000000000000000, 0.000000000000000000 ) ) ;
#419 = ORIENTED_EDGE ( 'NONE', *, *, #14, .T. ) ;
#420 = CC_DESIGN_APPROVAL ( #575, ( #757 ) ) ;
#421 = DIRECTION ( 'NONE',  ( -0.000000000000000000, 1.000000000000000000, -0.000000000000000000 ) ) ;
#422 = EDGE_CURVE ( 'NONE', #285, #211, #765, .T. ) ;
#423 = DIRECTION ( 'NONE',  ( -0.000000000000000000, 1.000000000000000000, -0.000000000000000000 ) ) ;
#424 = ORIENTED_EDGE ( 'NONE', *, *, #825, .F. ) ;
#425 = CARTESIAN_POINT ( 'NONE',  ( 15.00000000000000000, 12.00000000000000000, 0.000000000000000000 ) ) ;
#426 = CYLINDRICAL_SURFACE ( 'NONE', #750, 1.699999999999998401 ) ;
#427 = ORIENTED_EDGE ( 'NONE', *, *, #292, .T. ) ;
#428 = AXIS2_PLACEMENT_3D ( 'NONE', #568, #644, #171 ) ;
#429 = DIRECTION ( 'NONE',  ( 0.000000000000000000, 0.000000000000000000, 1.000000000000000000 ) ) ;
#430 = FACE_BOUND ( 'NONE', #647, .T. ) ;
#431 = EDGE_LOOP ( 'NONE', ( #17, #146 ) ) ;
#432 = DIRECTION ( 'NONE',  ( 0.000000000000000000, 0.000000000000000000, 1.000000000000000000 ) ) ;
#433 = DIRECTION ( 'NONE',  ( -0.000000000000000000, 1.000000000000000000, -0.000000000000000000 ) ) ;
#434 = ORIENTED_EDGE ( 'NONE', *, *, #601, .T. ) ;
#435 = ADVANCED_FACE ( 'NONE', ( #789 ), #254, .T. ) ;
#436 = FACE_OUTER_BOUND ( 'NONE', #149, .T. ) ;
#437 = ADVANCED_BREP_SHAPE_REPRESENTATION ( 'die_horiz', ( #840, #387 ), #582 ) ;
#438 = DIRECTION ( 'NONE',  ( -0.000000000000000000, 1.000000000000000000, -0.000000000000000000 ) ) ;
#439 = ORIENTED_EDGE ( 'NONE', *, *, #274, .F. ) ;
#440 = CIRCLE ( 'NONE', #398, 1.700000000000000178 ) ;
#441 = DIRECTION ( 'NONE',  ( 0.000000000000000000, 0.000000000000000000, -1.000000000000000000 ) ) ;
#442 = DIRECTION ( 'NONE',  ( 0.000000000000000000, 0.000000000000000000, 1.000000000000000000 ) ) ;
#443 = ADVANCED_FACE ( 'NONE', ( #340 ), #21, .F. ) ;
#444 = ORIENTED_EDGE ( 'NONE', *, *, #93, .T. ) ;
#445 = AXIS2_PLACEMENT_3D ( 'NONE', #780, #83, #472 ) ;
#446 = DIRECTION ( 'NONE',  ( 0.000000000000000000, 0.000000000000000000, 1.000000000000000000 ) ) ;
#447 = AXIS2_PLACEMENT_3D ( 'NONE', #168, #293, #432 ) ;
#448 = ORIENTED_EDGE ( 'NONE', *, *, #707, .T. ) ;
#449 = ADVANCED_FACE ( 'NONE', ( #140 ), #271, .F. ) ;
#450 = CARTESIAN_POINT ( 'NONE',  ( -15.00000000000000000, 12.00000000000000000, 0.000000000000000000 ) ) ;
#451 = VERTEX_POINT ( 'NONE', #335 ) ;
#452 = AXIS2_PLACEMENT_3D ( 'NONE', #213, #728, #545 ) ;
#453 = AXIS2_PLACEMENT_3D ( 'NONE', #628, #225, #616 ) ;
#454 = VERTEX_POINT ( 'NONE', #470 ) ;
#455 = EDGE_CURVE ( 'NONE', #396, #369, #496, .T. ) ;
#456 = CIRCLE ( 'NONE', #222, 3.249999999999996003 ) ;
#457 = AXIS2_PLACEMENT_3D ( 'NONE', #683, #619, #25 ) ;
#458 = PERSON_AND_ORGANIZATION ( #91, #390 ) ;
#459 = FACE_OUTER_BOUND ( 'NONE', #341, .T. ) ;
#460 = VECTOR ( 'NONE', #491, 1000.000000000000000 ) ;
#461 = DIRECTION ( 'NONE',  ( 0.000000000000000000, 0.000000000000000000, 1.000000000000000000 ) ) ;
#462 = ORIENTED_EDGE ( 'NONE', *, *, #253, .F. ) ;
#463 = EDGE_CURVE ( 'NONE', #520, #566, #671, .T. ) ;
#464 = SECURITY_CLASSIFICATION_LEVEL ( 'unclassified' ) ;
#465 = DIRECTION ( 'NONE',  ( -0.000000000000000000, 1.000000000000000000, -0.000000000000000000 ) ) ;
#466 = ORIENTED_EDGE ( 'NONE', *, *, #661, .T. ) ;
#467 = DATE_AND_TIME ( #190, #38 ) ;
#468 = CIRCLE ( 'NONE', #711, 3.249999999999996003 ) ;
#469 = DIRECTION ( 'NONE',  ( -0.000000000000000000, 1.000000000000000000, -0.000000000000000000 ) ) ;
#470 = CARTESIAN_POINT ( 'NONE',  ( -15.00000000000000000, 0.000000000000000000, 1.699999999999998401 ) ) ;
#471 = ORIENTED_EDGE ( 'NONE', *, *, #794, .T. ) ;
#472 = DIRECTION ( 'NONE',  ( 0.000000000000000000, 0.000000000000000000, 1.000000000000000000 ) ) ;
#473 = DIRECTION ( 'NONE',  ( -0.000000000000000000, 1.000000000000000000, -0.000000000000000000 ) ) ;
#474 = EDGE_LOOP ( 'NONE', ( #280, #248, #821, #638 ) ) ;
#475 = VECTOR ( 'NONE', #469, 1000.000000000000000 ) ;
#476 = EDGE_CURVE ( 'NONE', #360, #828, #44, .T. ) ;
#477 = CYLINDRICAL_SURFACE ( 'NONE', #692, 3.249999999999996003 ) ;
#478 = DIRECTION ( 'NONE',  ( -0.000000000000000000, 1.000000000000000000, -0.000000000000000000 ) ) ;
#479 = ORIENTED_EDGE ( 'NONE', *, *, #455, .F. ) ;
#480 = AXIS2_PLACEMENT_3D ( 'NONE', #724, #205, #196 ) ;
#481 = CYLINDRICAL_SURFACE ( 'NONE', #241, 19.99999999999999645 ) ;
#482 = AXIS2_PLACEMENT_3D ( 'NONE', #621, #487, #294 ) ;
#483 = PLANE ( 'NONE',  #620 ) ;
#484 = ORIENTED_EDGE ( 'NONE', *, *, #315, .T. ) ;
#485 = EDGE_CURVE ( 'NONE', #706, #141, #150, .T. ) ;
#486 = CARTESIAN_POINT ( 'NONE',  ( 2.081899558550499047E-16, 12.00000000000000000, 13.30000000000000071 ) ) ;
#487 = DIRECTION ( 'NONE',  ( -0.000000000000000000, 1.000000000000000000, -0.000000000000000000 ) ) ;
#488 = VERTEX_POINT ( 'NONE', #669 ) ;
#489 = AXIS2_PLACEMENT_3D ( 'NONE', #239, #761, #827 ) ;
#490 = AXIS2_PLACEMENT_3D ( 'NONE', #158, #421, #164 ) ;
#491 = DIRECTION ( 'NONE',  ( -0.000000000000000000, 1.000000000000000000, -0.000000000000000000 ) ) ;
#492 = CARTESIAN_POINT ( 'NONE',  ( 0.000000000000000000, 8.599999999999999645, -15.00000000000000000 ) ) ;
#493 = ORIENTED_EDGE ( 'NONE', *, *, #759, .F. ) ;
#494 = CARTESIAN_POINT ( 'NONE',  ( 0.000000000000000000, 12.00000000000000000, 0.000000000000000000 ) ) ;
#495 = DIRECTION ( 'NONE',  ( -0.000000000000000000, 1.000000000000000000, -0.000000000000000000 ) ) ;
#496 = CIRCLE ( 'NONE', #121, 3.249999999999996003 ) ;
#497 = ORIENTED_EDGE ( 'NONE', *, *, #179, .T. ) ;
#498 = EDGE_CURVE ( 'NONE', #454, #698, #69, .T. ) ;
#499 = VECTOR ( 'NONE', #740, 1000.000000000000000 ) ;
#500 = DIRECTION ( 'NONE',  ( -0.000000000000000000, -1.000000000000000000, -0.000000000000000000 ) ) ;
#501 = FACE_OUTER_BOUND ( 'NONE', #729, .T. ) ;
#502 = ORIENTED_EDGE ( 'NONE', *, *, #253, .T. ) ;
#503 = EDGE_CURVE ( 'NONE', #252, #741, #777, .T. ) ;
#504 = CIRCLE ( 'NONE', #457, 18.99999999999998579 ) ;
#505 = DIRECTION ( 'NONE',  ( 0.000000000000000000, 0.000000000000000000, 1.000000000000000000 ) ) ;
#506 = DIRECTION ( 'NONE',  ( 0.000000000000000000, 0.000000000000000000, 1.000000000000000000 ) ) ;
#507 = ORIENTED_EDGE ( 'NONE', *, *, #356, .F. ) ;
#508 = PRODUCT_RELATED_PRODUCT_CATEGORY ( 'detail', '', ( #720 ) ) ;
#509 = EDGE_CURVE ( 'NONE', #197, #512, #286, .T. ) ;
#510 = FACE_BOUND ( 'NONE', #807, .T. ) ;
#511 =( LENGTH_UNIT ( ) NAMED_UNIT ( * ) SI_UNIT ( .MILLI., .METRE. ) );
#512 = VERTEX_POINT ( 'NONE', #652 ) ;
#513 = AXIS2_PLACEMENT_3D ( 'NONE', #612, #495, #673 ) ;
#514 = CARTESIAN_POINT ( 'NONE',  ( 0.000000000000000000, 12.00000000000000000, 18.24999999999999645 ) ) ;
#515 = ADVANCED_FACE ( 'NONE', ( #785 ), #67, .F. ) ;
#516 = VERTEX_POINT ( 'NONE', #322 ) ;
#517 = CIRCLE ( 'NONE', #547, 3.249999999999996003 ) ;
#518 = CARTESIAN_POINT ( 'NONE',  ( 15.00000000000000000, 0.000000000000000000, 0.000000000000000000 ) ) ;
#519 = FACE_BOUND ( 'NONE', #51, .T. ) ;
#520 = VERTEX_POINT ( 'NONE', #659 ) ;
#521 = DIRECTION ( 'NONE',  ( -0.000000000000000000, 1.000000000000000000, -0.000000000000000000 ) ) ;
#522 = EDGE_LOOP ( 'NONE', ( #177, #71, #351, #762 ) ) ;
#523 = AXIS2_PLACEMENT_3D ( 'NONE', #6, #465, #267 ) ;
#524 = CIRCLE ( 'NONE', #635, 3.249999999999996003 ) ;
#525 = PERSON_AND_ORGANIZATION_ROLE ( 'design_owner' ) ;
#526 = LINE ( 'NONE', #270, #810 ) ;
#527 = FACE_OUTER_BOUND ( 'NONE', #812, .T. ) ;
#528 = EDGE_CURVE ( 'NONE', #625, #106, #524, .T. ) ;
#529 = COORDINATED_UNIVERSAL_TIME_OFFSET ( 0, 0, .AHEAD. ) ;
#530 = DIRECTION ( 'NONE',  ( 0.000000000000000000, 0.000000000000000000, 1.000000000000000000 ) ) ;
#531 = CARTESIAN_POINT ( 'NONE',  ( -15.00000000000000000, 8.599999999999999645, 0.000000000000000000 ) ) ;
#532 = ORIENTED_EDGE ( 'NONE', *, *, #75, .T. ) ;
#533 = CALENDAR_DATE ( 2025, 17, 12 ) ;
#534 = CARTESIAN_POINT ( 'NONE',  ( -15.00000000000000000, 8.599999999999999645, -3.249999999999996003 ) ) ;
#535 = CYLINDRICAL_SURFACE ( 'NONE', #255, 1.699999999999998401 ) ;
#536 = ORIENTED_EDGE ( 'NONE', *, *, #503, .F. ) ;
#537 = DATE_AND_TIME ( #402, #143 ) ;
#538 = ADVANCED_FACE ( 'NONE', ( #527 ), #535, .F. ) ;
#539 = VECTOR ( 'NONE', #316, 1000.000000000000000 ) ;
#540 = FACE_BOUND ( 'NONE', #13, .T. ) ;
#541 = CARTESIAN_POINT ( 'NONE',  ( 15.00000000000000000, 12.00000000000000000, 0.000000000000000000 ) ) ;
#542 = EDGE_LOOP ( 'NONE', ( #60, #191, #767, #123 ) ) ;
#543 = DIRECTION ( 'NONE',  ( -0.000000000000000000, 1.000000000000000000, -0.000000000000000000 ) ) ;
#544 = APPROVAL_PERSON_ORGANIZATION ( #408, #575, #783 ) ;
#545 = DIRECTION ( 'NONE',  ( 0.000000000000000000, 0.000000000000000000, 1.000000000000000000 ) ) ;
#546 = ORIENTED_EDGE ( 'NONE', *, *, #463, .F. ) ;
#547 = AXIS2_PLACEMENT_3D ( 'NONE', #130, #543, #209 ) ;
#548 = DIRECTION ( 'NONE',  ( -0.000000000000000000, 1.000000000000000000, -0.000000000000000000 ) ) ;
#549 = FACE_BOUND ( 'NONE', #102, .T. ) ;
#550 = VERTEX_POINT ( 'NONE', #718 ) ;
#551 = CARTESIAN_POINT ( 'NONE',  ( 2.449293598294706119E-15, 12.00000000000000000, 19.99999999999999645 ) ) ;
#552 = AXIS2_PLACEMENT_3D ( 'NONE', #799, #2, #404 ) ;
#553 = CIRCLE ( 'NONE', #383, 3.249999999999996003 ) ;
#554 = CARTESIAN_POINT ( 'NONE',  ( 0.000000000000000000, 12.00000000000000000, -19.99999999999999645 ) ) ;
#555 = EDGE_LOOP ( 'NONE', ( #415, #166, #737, #62 ) ) ;
#556 = CARTESIAN_POINT ( 'NONE',  ( 0.000000000000000000, 12.00000000000000000, -11.75000000000000355 ) ) ;
#557 = LINE ( 'NONE', #744, #99 ) ;
#558 = ORIENTED_EDGE ( 'NONE', *, *, #81, .T. ) ;
#559 = CARTESIAN_POINT ( 'NONE',  ( -15.00000000000000000, 12.00000000000000000, -3.249999999999996003 ) ) ;
#560 = ADVANCED_FACE ( 'NONE', ( #395 ), #654, .F. ) ;
#561 = DIRECTION ( 'NONE',  ( 0.000000000000000000, 0.000000000000000000, 1.000000000000000000 ) ) ;
#562 = ORIENTED_EDGE ( 'NONE', *, *, #32, .F. ) ;
#563 = DIRECTION ( 'NONE',  ( 0.000000000000000000, 0.000000000000000000, 1.000000000000000000 ) ) ;
#564 = ADVANCED_FACE ( 'NONE', ( #42 ), #426, .F. ) ;
#565 = CARTESIAN_POINT ( 'NONE',  ( -15.00000000000000000, 12.00000000000000000, 1.699999999999998401 ) ) ;
#566 = VERTEX_POINT ( 'NONE', #681 ) ;
#567 = FACE_OUTER_BOUND ( 'NONE', #240, .T. ) ;
#568 = CARTESIAN_POINT ( 'NONE',  ( 0.000000000000000000, 0.000000000000000000, -15.00000000000000000 ) ) ;
#569 = ORIENTED_EDGE ( 'NONE', *, *, #712, .F. ) ;
#570 = CIRCLE ( 'NONE', #155, 3.249999999999996003 ) ;
#571 = AXIS2_PLACEMENT_3D ( 'NONE', #658, #20, #723 ) ;
#572 = DIRECTION ( 'NONE',  ( 0.000000000000000000, -1.000000000000000000, 0.000000000000000000 ) ) ;
#573 = CARTESIAN_POINT ( 'NONE',  ( 15.00000000000000000, 12.00000000000000000, 0.000000000000000000 ) ) ;
#574 = ORIENTED_EDGE ( 'NONE', *, *, #498, .F. ) ;
#575 = APPROVAL ( #193, 'UNSPECIFIED' ) ;
#576 = CARTESIAN_POINT ( 'NONE',  ( 15.00000000000000000, 12.00000000000000000, -3.249999999999996003 ) ) ;
#577 = VERTEX_POINT ( 'NONE', #554 ) ;
#578 = AXIS2_PLACEMENT_3D ( 'NONE', #704, #243, #376 ) ;
#579 = VECTOR ( 'NONE', #180, 1000.000000000000000 ) ;
#580 = CARTESIAN_POINT ( 'NONE',  ( 0.000000000000000000, 8.599999999999999645, 15.00000000000000000 ) ) ;
#581 = ORIENTED_EDGE ( 'NONE', *, *, #770, .T. ) ;
#582 =( GEOMETRIC_REPRESENTATION_CONTEXT ( 3 ) GLOBAL_UNCERTAINTY_ASSIGNED_CONTEXT ( ( #651 ) ) GLOBAL_UNIT_ASSIGNED_CONTEXT ( ( #511, #247, #198 ) ) REPRESENTATION_CONTEXT ( 'NONE', 'WORKASPACE' ) );
#583 = VECTOR ( 'NONE', #636, 1000.000000000000000 ) ;
#584 = FACE_OUTER_BOUND ( 'NONE', #187, .T. ) ;
#585 = EDGE_CURVE ( 'NONE', #741, #252, #207, .T. ) ;
#586 = VERTEX_POINT ( 'NONE', #97 ) ;
#587 = APPROVAL_STATUS ( 'not_yet_approved' ) ;
#588 = CARTESIAN_POINT ( 'NONE',  ( 0.000000000000000000, 12.00000000000000000, -15.00000000000000000 ) ) ;
#589 = EDGE_CURVE ( 'NONE', #837, #298, #440, .T. ) ;
#590 = DIRECTION ( 'NONE',  ( 0.000000000000000000, 0.000000000000000000, 1.000000000000000000 ) ) ;
#591 = MECHANICAL_CONTEXT ( 'NONE', #55, 'mechanical' ) ;
#592 = LINE ( 'NONE', #5, #475 ) ;
#593 = DIRECTION ( 'NONE',  ( 0.000000000000000000, 0.000000000000000000, 1.000000000000000000 ) ) ;
#594 = ORIENTED_EDGE ( 'NONE', *, *, #675, .T. ) ;
#595 = CC_DESIGN_DATE_AND_TIME_ASSIGNMENT ( #596, #208, ( #128 ) ) ;
#596 = DATE_AND_TIME ( #721, #730 ) ;
#597 = DIRECTION ( 'NONE',  ( 0.000000000000000000, -1.000000000000000000, 0.000000000000000000 ) ) ;
#598 = CIRCLE ( 'NONE', #406, 1.700000000000000178 ) ;
#599 = CARTESIAN_POINT ( 'NONE',  ( 15.00000000000000000, 12.00000000000000000, 0.000000000000000000 ) ) ;
#600 = VERTEX_POINT ( 'NONE', #220 ) ;
#601 = EDGE_CURVE ( 'NONE', #752, #211, #153, .T. ) ;
#602 = DATE_AND_TIME ( #663, #195 ) ;
#603 = CARTESIAN_POINT ( 'NONE',  ( 0.000000000000000000, 8.599999999999999645, -15.00000000000000000 ) ) ;
#604 = CARTESIAN_POINT ( 'NONE',  ( 15.00000000000000000, 8.599999999999999645, 0.000000000000000000 ) ) ;
#605 = ORIENTED_EDGE ( 'NONE', *, *, #46, .F. ) ;
#606 = COORDINATED_UNIVERSAL_TIME_OFFSET ( 0, 0, .AHEAD. ) ;
#607 = CIRCLE ( 'NONE', #138, 19.99999999999999645 ) ;
#608 = DIRECTION ( 'NONE',  ( -0.000000000000000000, 1.000000000000000000, -0.000000000000000000 ) ) ;
#609 = DIRECTION ( 'NONE',  ( -0.000000000000000000, 1.000000000000000000, -0.000000000000000000 ) ) ;
#610 = ORIENTED_EDGE ( 'NONE', *, *, #167, .F. ) ;
#611 = DIRECTION ( 'NONE',  ( 0.000000000000000000, 0.000000000000000000, 1.000000000000000000 ) ) ;
#612 = CARTESIAN_POINT ( 'NONE',  ( 0.000000000000000000, 0.000000000000000000, -15.00000000000000000 ) ) ;
#613 = EDGE_LOOP ( 'NONE', ( #98, #160 ) ) ;
#614 = VECTOR ( 'NONE', #120, 1000.000000000000000 ) ;
#615 = DIRECTION ( 'NONE',  ( -0.000000000000000000, 1.000000000000000000, -0.000000000000000000 ) ) ;
#616 = DIRECTION ( 'NONE',  ( 0.000000000000000000, 0.000000000000000000, 1.000000000000000000 ) ) ;
#617 = EDGE_LOOP ( 'NONE', ( #244, #824 ) ) ;
#618 = EDGE_CURVE ( 'NONE', #290, #488, #299, .T. ) ;
#619 = DIRECTION ( 'NONE',  ( -0.000000000000000000, -1.000000000000000000, -0.000000000000000000 ) ) ;
#620 = AXIS2_PLACEMENT_3D ( 'NONE', #418, #766, #115 ) ;
#621 = CARTESIAN_POINT ( 'NONE',  ( -15.00000000000000000, 12.00000000000000000, 0.000000000000000000 ) ) ;
#622 = ORIENTED_EDGE ( 'NONE', *, *, #633, .F. ) ;
#623 = DIRECTION ( 'NONE',  ( -0.000000000000000000, -1.000000000000000000, -0.000000000000000000 ) ) ;
#624 = LINE ( 'NONE', #565, #499 ) ;
#625 = VERTEX_POINT ( 'NONE', #162 ) ;
#626 = ADVANCED_FACE ( 'NONE', ( #501 ), #94, .F. ) ;
#627 = LINE ( 'NONE', #100, #185 ) ;
#628 = CARTESIAN_POINT ( 'NONE',  ( -15.00000000000000000, 8.599999999999999645, 0.000000000000000000 ) ) ;
#629 = ORIENTED_EDGE ( 'NONE', *, *, #135, .F. ) ;
#630 = CC_DESIGN_PERSON_AND_ORGANIZATION_ASSIGNMENT ( #319, #726, ( #128 ) ) ;
#631 = PLANE ( 'NONE',  #284 ) ;
#632 = DIRECTION ( 'NONE',  ( 0.000000000000000000, 0.000000000000000000, 1.000000000000000000 ) ) ;
#633 = EDGE_CURVE ( 'NONE', #512, #197, #778, .T. ) ;
#634 = EDGE_LOOP ( 'NONE', ( #262, #650 ) ) ;
#635 = AXIS2_PLACEMENT_3D ( 'NONE', #329, #16, #590 ) ;
#636 = DIRECTION ( 'NONE',  ( -0.000000000000000000, 1.000000000000000000, -0.000000000000000000 ) ) ;
#637 = DIRECTION ( 'NONE',  ( 0.000000000000000000, 0.000000000000000000, 1.000000000000000000 ) ) ;
#638 = ORIENTED_EDGE ( 'NONE', *, *, #528, .T. ) ;
#639 = EDGE_CURVE ( 'NONE', #586, #488, #557, .T. ) ;
#640 = AXIS2_PLACEMENT_3D ( 'NONE', #266, #608, #530 ) ;
#641 = DIRECTION ( 'NONE',  ( -0.000000000000000000, 1.000000000000000000, -0.000000000000000000 ) ) ;
#642 = CYLINDRICAL_SURFACE ( 'NONE', #361, 3.249999999999996003 ) ;
#643 = ORIENTED_EDGE ( 'NONE', *, *, #639, .T. ) ;
#644 = DIRECTION ( 'NONE',  ( -0.000000000000000000, 1.000000000000000000, -0.000000000000000000 ) ) ;
#645 = FACE_BOUND ( 'NONE', #634, .T. ) ;
#646 = CARTESIAN_POINT ( 'NONE',  ( 15.00000000000000000, 0.000000000000000000, -1.700000000000000178 ) ) ;
#647 = EDGE_LOOP ( 'NONE', ( #389, #605 ) ) ;
#648 = EDGE_CURVE ( 'NONE', #235, #550, #553, .T. ) ;
#649 = AXIS2_PLACEMENT_3D ( 'NONE', #358, #623, #417 ) ;
#650 = ORIENTED_EDGE ( 'NONE', *, *, #712, .T. ) ;
#651 = UNCERTAINTY_MEASURE_WITH_UNIT (LENGTH_MEASURE( 1.000000000000000082E-05 ), #511, 'distance_accuracy_value', 'NONE');
#652 = CARTESIAN_POINT ( 'NONE',  ( 15.00000000000000000, 8.599999999999999645, -3.249999999999996003 ) ) ;
#653 = DIRECTION ( 'NONE',  ( -0.000000000000000000, 1.000000000000000000, -0.000000000000000000 ) ) ;
#654 = CYLINDRICAL_SURFACE ( 'NONE', #124, 1.699999999999998401 ) ;
#655 = VERTEX_POINT ( 'NONE', #350 ) ;
#656 = CIRCLE ( 'NONE', #287, 3.249999999999996003 ) ;
#657 = PERSON_AND_ORGANIZATION ( #91, #390 ) ;
#658 = CARTESIAN_POINT ( 'NONE',  ( 0.000000000000000000, 0.000000000000000000, 0.000000000000000000 ) ) ;
#659 = CARTESIAN_POINT ( 'NONE',  ( 2.449293598294706119E-15, 1.000000000000004441, 19.99999999999999645 ) ) ;
#660 = ORIENTED_EDGE ( 'NONE', *, *, #228, .F. ) ;
#661 = EDGE_CURVE ( 'NONE', #454, #741, #624, .T. ) ;
#662 = AXIS2_PLACEMENT_3D ( 'NONE', #573, #521, #506 ) ;
#663 = CALENDAR_DATE ( 2025, 17, 12 ) ;
#664 = FACE_OUTER_BOUND ( 'NONE', #127, .T. ) ;
#665 = DIRECTION ( 'NONE',  ( -0.000000000000000000, 1.000000000000000000, -0.000000000000000000 ) ) ;
#666 = EDGE_LOOP ( 'NONE', ( #137, #507 ) ) ;
#667 = PERSON_AND_ORGANIZATION_ROLE ( 'creator' ) ;
#668 = DIRECTION ( 'NONE',  ( 0.000000000000000000, 0.7071067811865451302, 0.7071067811865500152 ) ) ;
#669 = CARTESIAN_POINT ( 'NONE',  ( -15.00000000000000000, 12.00000000000000000, 3.249999999999996003 ) ) ;
#670 = ORIENTED_EDGE ( 'NONE', *, *, #264, .F. ) ;
#671 = CIRCLE ( 'NONE', #452, 19.99999999999999645 ) ;
#672 = DIRECTION ( 'NONE',  ( -0.000000000000000000, 1.000000000000000000, -0.000000000000000000 ) ) ;
#673 = DIRECTION ( 'NONE',  ( 0.000000000000000000, 0.000000000000000000, 1.000000000000000000 ) ) ;
#674 = EDGE_LOOP ( 'NONE', ( #424, #574, #466, #312 ) ) ;
#675 = EDGE_CURVE ( 'NONE', #566, #520, #607, .T. ) ;
#676 = DIRECTION ( 'NONE',  ( 0.000000000000000000, 0.000000000000000000, -1.000000000000000000 ) ) ;
#677 = CC_DESIGN_SECURITY_CLASSIFICATION ( #128, ( #757 ) ) ;
#678 = CARTESIAN_POINT ( 'NONE',  ( 0.000000000000000000, 12.00000000000000000, 15.00000000000000000 ) ) ;
#679 = ORIENTED_EDGE ( 'NONE', *, *, #648, .T. ) ;
#680 = CARTESIAN_POINT ( 'NONE',  ( 2.081899558550499047E-16, 12.00000000000000000, -16.69999999999999929 ) ) ;
#681 = CARTESIAN_POINT ( 'NONE',  ( 0.000000000000000000, 1.000000000000004441, -19.99999999999999645 ) ) ;
#682 = ORIENTED_EDGE ( 'NONE', *, *, #763, .F. ) ;
#683 = CARTESIAN_POINT ( 'NONE',  ( 0.000000000000000000, 0.000000000000000000, 0.000000000000000000 ) ) ;
#684 = CIRCLE ( 'NONE', #428, 1.699999999999998401 ) ;
#685 = CARTESIAN_POINT ( 'NONE',  ( -15.00000000000000000, 12.00000000000000000, 0.000000000000000000 ) ) ;
#686 = ORIENTED_EDGE ( 'NONE', *, *, #633, .T. ) ;
#687 = ADVANCED_FACE ( 'NONE', ( #754 ), #815, .F. ) ;
#688 = LINE ( 'NONE', #514, #583 ) ;
#689 = DIRECTION ( 'NONE',  ( 0.000000000000000000, 0.000000000000000000, 1.000000000000000000 ) ) ;
#690 = ORIENTED_EDGE ( 'NONE', *, *, #407, .T. ) ;
#691 = CC_DESIGN_APPROVAL ( #801, ( #393 ) ) ;
#692 = AXIS2_PLACEMENT_3D ( 'NONE', #403, #147, #413 ) ;
#693 = CARTESIAN_POINT ( 'NONE',  ( -15.00000000000000000, 12.00000000000000000, -3.249999999999996003 ) ) ;
#694 = DIRECTION ( 'NONE',  ( -0.000000000000000000, 1.000000000000000000, -0.000000000000000000 ) ) ;
#695 = ORIENTED_EDGE ( 'NONE', *, *, #157, .F. ) ;
#696 = CARTESIAN_POINT ( 'NONE',  ( 0.000000000000000000, 12.00000000000000000, -15.00000000000000000 ) ) ;
#697 = DIRECTION ( 'NONE',  ( -0.000000000000000000, 1.000000000000000000, -0.000000000000000000 ) ) ;
#698 = VERTEX_POINT ( 'NONE', #234 ) ;
#699 = DIRECTION ( 'NONE',  ( 0.000000000000000000, -1.000000000000000000, 0.000000000000000000 ) ) ;
#700 = LINE ( 'NONE', #772, #838 ) ;
#701 = EDGE_LOOP ( 'NONE', ( #796, #610, #272, #43 ) ) ;
#702 = APPROVAL_PERSON_ORGANIZATION ( #126, #801, #787 ) ;
#703 = VECTOR ( 'NONE', #273, 1000.000000000000000 ) ;
#704 = CARTESIAN_POINT ( 'NONE',  ( 0.000000000000000000, 12.00000000000000000, 0.000000000000000000 ) ) ;
#705 = CARTESIAN_POINT ( 'NONE',  ( -13.30000000000000071, 8.599999999999999645, 0.000000000000000000 ) ) ;
#706 = VERTEX_POINT ( 'NONE', #229 ) ;
#707 = EDGE_CURVE ( 'NONE', #303, #655, #656, .T. ) ;
#708 = CYLINDRICAL_SURFACE ( 'NONE', #662, 3.249999999999996003 ) ;
#709 = EDGE_LOOP ( 'NONE', ( #471, #715 ) ) ;
#710 = VECTOR ( 'NONE', #641, 1000.000000000000000 ) ;
#711 = AXIS2_PLACEMENT_3D ( 'NONE', #379, #249, #442 ) ;
#712 = EDGE_CURVE ( 'NONE', #451, #755, #33, .T. ) ;
#713 = AXIS2_PLACEMENT_3D ( 'NONE', #760, #304, #505 ) ;
#714 = APPROVAL_DATE_TIME ( #537, #575 ) ;
#715 = ORIENTED_EDGE ( 'NONE', *, *, #476, .T. ) ;
#716 = ADVANCED_FACE ( 'NONE', ( #751, #430, #279, #549, #803 ), #483, .T. ) ;
#717 = DIRECTION ( 'NONE',  ( -0.000000000000000000, 1.000000000000000000, -0.000000000000000000 ) ) ;
#718 = CARTESIAN_POINT ( 'NONE',  ( 3.980102097228892808E-16, 8.599999999999999645, -18.24999999999999645 ) ) ;
#719 = ORIENTED_EDGE ( 'NONE', *, *, #372, .T. ) ;
#720 = PRODUCT ( 'die_horiz', 'die_horiz', '', ( #591 ) ) ;
#721 = CALENDAR_DATE ( 2025, 17, 12 ) ;
#722 = CC_DESIGN_DATE_AND_TIME_ASSIGNMENT ( #82, #338, ( #393 ) ) ;
#723 = DIRECTION ( 'NONE',  ( 0.000000000000000000, -0.000000000000000000, 1.000000000000000000 ) ) ;
#724 = CARTESIAN_POINT ( 'NONE',  ( 0.000000000000000000, 1.000000000000004441, 0.000000000000000000 ) ) ;
#725 = ORIENTED_EDGE ( 'NONE', *, *, #56, .F. ) ;
#726 = PERSON_AND_ORGANIZATION_ROLE ( 'classification_officer' ) ;
#727 = DIRECTION ( 'NONE',  ( 0.000000000000000000, 0.000000000000000000, 1.000000000000000000 ) ) ;
#728 = DIRECTION ( 'NONE',  ( -0.000000000000000000, 1.000000000000000000, -0.000000000000000000 ) ) ;
#729 = EDGE_LOOP ( 'NONE', ( #113, #493, #643, #790 ) ) ;
#730 = LOCAL_TIME ( 10, 21, 31.00000000000000000, #18 ) ;
#731 = DIRECTION ( 'NONE',  ( 0.000000000000000000, 0.000000000000000000, 1.000000000000000000 ) ) ;
#732 = VECTOR ( 'NONE', #500, 1000.000000000000000 ) ;
#733 = DIRECTION ( 'NONE',  ( 0.000000000000000000, 0.000000000000000000, 1.000000000000000000 ) ) ;
#734 = ORIENTED_EDGE ( 'NONE', *, *, #639, .F. ) ;
#735 = DIRECTION ( 'NONE',  ( -0.000000000000000000, 1.000000000000000000, -0.000000000000000000 ) ) ;
#736 = DIRECTION ( 'NONE',  ( -0.000000000000000000, 1.000000000000000000, -0.000000000000000000 ) ) ;
#737 = ORIENTED_EDGE ( 'NONE', *, *, #830, .T. ) ;
#738 = ADVANCED_FACE ( 'NONE', ( #839 ), #834, .T. ) ;
#739 = DIRECTION ( 'NONE',  ( -0.000000000000000000, -1.000000000000000000, -0.000000000000000000 ) ) ;
#740 = DIRECTION ( 'NONE',  ( -0.000000000000000000, 1.000000000000000000, -0.000000000000000000 ) ) ;
#741 = VERTEX_POINT ( 'NONE', #823 ) ;
#742 = CARTESIAN_POINT ( 'NONE',  ( 15.00000000000000000, 0.000000000000000000, 0.000000000000000000 ) ) ;
#743 = EDGE_CURVE ( 'NONE', #360, #655, #832, .T. ) ;
#744 = CARTESIAN_POINT ( 'NONE',  ( -15.00000000000000000, 12.00000000000000000, 3.249999999999996003 ) ) ;
#745 = ORIENTED_EDGE ( 'NONE', *, *, #509, .F. ) ;
#746 = DIRECTION ( 'NONE',  ( -0.000000000000000000, 1.000000000000000000, -0.000000000000000000 ) ) ;
#747 = ADVANCED_FACE ( 'NONE', ( #183, #109 ), #377, .F. ) ;
#748 = ORIENTED_EDGE ( 'NONE', *, *, #422, .T. ) ;
#749 = CARTESIAN_POINT ( 'NONE',  ( 2.449293598294706119E-15, 1.000000000000004441, -19.99999999999999645 ) ) ;
#750 = AXIS2_PLACEMENT_3D ( 'NONE', #105, #423, #88 ) ;
#751 = FACE_BOUND ( 'NONE', #617, .T. ) ;
#752 = VERTEX_POINT ( 'NONE', #646 ) ;
#753 = CYLINDRICAL_SURFACE ( 'NONE', #447, 1.700000000000000178 ) ;
#754 = FACE_OUTER_BOUND ( 'NONE', #7, .T. ) ;
#755 = VERTEX_POINT ( 'NONE', #769 ) ;
#756 = CC_DESIGN_APPROVAL ( #258, ( #128 ) ) ;
#757 = PRODUCT_DEFINITION_FORMATION_WITH_SPECIFIED_SOURCE ( 'ANY', '', #720, .NOT_KNOWN. ) ;
#758 = AXIS2_PLACEMENT_3D ( 'NONE', #399, #597, #320 ) ;
#759 = EDGE_CURVE ( 'NONE', #586, #89, #468, .T. ) ;
#760 = CARTESIAN_POINT ( 'NONE',  ( 15.00000000000000000, 8.599999999999999645, 0.000000000000000000 ) ) ;
#761 = DIRECTION ( 'NONE',  ( -0.000000000000000000, 1.000000000000000000, -0.000000000000000000 ) ) ;
#762 = ORIENTED_EDGE ( 'NONE', *, *, #203, .F. ) ;
#763 = EDGE_CURVE ( 'NONE', #755, #451, #684, .T. ) ;
#764 = FACE_OUTER_BOUND ( 'NONE', #184, .T. ) ;
#765 = CIRCLE ( 'NONE', #791, 1.700000000000000178 ) ;
#766 = DIRECTION ( 'NONE',  ( 0.000000000000000000, 1.000000000000000000, 0.000000000000000000 ) ) ;
#767 = ORIENTED_EDGE ( 'NONE', *, *, #203, .T. ) ;
#768 = FACE_BOUND ( 'NONE', #666, .T. ) ;
#769 = CARTESIAN_POINT ( 'NONE',  ( 0.000000000000000000, 0.000000000000000000, -13.30000000000000071 ) ) ;
#770 = EDGE_CURVE ( 'NONE', #512, #369, #176, .T. ) ;
#771 = ORIENTED_EDGE ( 'NONE', *, *, #822, .F. ) ;
#772 = CARTESIAN_POINT ( 'NONE',  ( -15.00000000000000000, 12.00000000000000000, -1.699999999999998401 ) ) ;
#773 = ORIENTED_EDGE ( 'NONE', *, *, #179, .F. ) ;
#774 = ADVANCED_FACE ( 'NONE', ( #251 ), #642, .F. ) ;
#775 = ORIENTED_EDGE ( 'NONE', *, *, #142, .F. ) ;
#776 = VERTEX_POINT ( 'NONE', #61 ) ;
#777 = CIRCLE ( 'NONE', #792, 1.699999999999998401 ) ;
#778 = CIRCLE ( 'NONE', #313, 3.249999999999996003 ) ;
#779 = PERSON_AND_ORGANIZATION ( #91, #390 ) ;
#780 = CARTESIAN_POINT ( 'NONE',  ( -15.00000000000000000, 8.599999999999999645, 0.000000000000000000 ) ) ;
#781 = CARTESIAN_POINT ( 'NONE',  ( -15.00000000000000000, 12.00000000000000000, 0.000000000000000000 ) ) ;
#782 = ADVANCED_FACE ( 'NONE', ( #584 ), #708, .F. ) ;
#783 = APPROVAL_ROLE ( '' ) ;
#784 = FACE_BOUND ( 'NONE', #385, .T. ) ;
#785 = FACE_OUTER_BOUND ( 'NONE', #347, .T. ) ;
#786 = ORIENTED_EDGE ( 'NONE', *, *, #770, .F. ) ;
#787 = APPROVAL_ROLE ( '' ) ;
#788 = CARTESIAN_POINT ( 'NONE',  ( 3.980102097228892808E-16, 12.00000000000000000, -18.24999999999999645 ) ) ;
#789 = FACE_OUTER_BOUND ( 'NONE', #701, .T. ) ;
#790 = ORIENTED_EDGE ( 'NONE', *, *, #56, .T. ) ;
#791 = AXIS2_PLACEMENT_3D ( 'NONE', #84, #473, #261 ) ;
#792 = AXIS2_PLACEMENT_3D ( 'NONE', #531, #478, #131 ) ;
#793 = DIRECTION ( 'NONE',  ( -0.000000000000000000, 1.000000000000000000, -0.000000000000000000 ) ) ;
#794 = EDGE_CURVE ( 'NONE', #828, #360, #456, .T. ) ;
#795 = DIRECTION ( 'NONE',  ( 0.000000000000000000, 0.000000000000000000, 1.000000000000000000 ) ) ;
#796 = ORIENTED_EDGE ( 'NONE', *, *, #315, .F. ) ;
#797 = CIRCLE ( 'NONE', #64, 3.249999999999996003 ) ;
#798 = CARTESIAN_POINT ( 'NONE',  ( -15.00000000000000000, 0.000000000000000000, 0.000000000000000000 ) ) ;
#799 = CARTESIAN_POINT ( 'NONE',  ( -15.00000000000000000, 0.000000000000000000, 0.000000000000000000 ) ) ;
#800 = ORIENTED_EDGE ( 'NONE', *, *, #218, .F. ) ;
#801 = APPROVAL ( #65, 'UNSPECIFIED' ) ;
#802 = CARTESIAN_POINT ( 'NONE',  ( 0.000000000000000000, 0.000000000000000000, 18.99999999999998579 ) ) ;
#803 = FACE_OUTER_BOUND ( 'NONE', #386, .T. ) ;
#804 = ORIENTED_EDGE ( 'NONE', *, *, #743, .F. ) ;
#805 = LINE ( 'NONE', #749, #9 ) ;
#806 = CARTESIAN_POINT ( 'NONE',  ( 0.000000000000000000, 0.000000000000000000, 15.00000000000000000 ) ) ;
#807 = EDGE_LOOP ( 'NONE', ( #307, #330 ) ) ;
#808 = CC_DESIGN_PERSON_AND_ORGANIZATION_ASSIGNMENT ( #657, #667, ( #757 ) ) ;
#809 = CARTESIAN_POINT ( 'NONE',  ( 0.000000000000000000, 8.599999999999999645, 15.00000000000000000 ) ) ;
#810 = VECTOR ( 'NONE', #668, 1000.000000000000114 ) ;
#811 = DIRECTION ( 'NONE',  ( -0.000000000000000000, 1.000000000000000000, -0.000000000000000000 ) ) ;
#812 = EDGE_LOOP ( 'NONE', ( #74, #374, #317, #295 ) ) ;
#813 = CIRCLE ( 'NONE', #490, 1.700000000000000178 ) ;
#814 = CARTESIAN_POINT ( 'NONE',  ( 15.00000000000000000, 12.00000000000000000, 1.700000000000000178 ) ) ;
#815 = CYLINDRICAL_SURFACE ( 'NONE', #59, 1.699999999999998401 ) ;
#816 = ORIENTED_EDGE ( 'NONE', *, *, #509, .T. ) ;
#817 = AXIS2_PLACEMENT_3D ( 'NONE', #275, #148, #733 ) ;
#818 = DIRECTION ( 'NONE',  ( -0.000000000000000000, 1.000000000000000000, -0.000000000000000000 ) ) ;
#819 = CIRCLE ( 'NONE', #578, 19.99999999999999645 ) ;
#820 = DIRECTION ( 'NONE',  ( 0.000000000000000000, 0.000000000000000000, 1.000000000000000000 ) ) ;
#821 = ORIENTED_EDGE ( 'NONE', *, *, #228, .T. ) ;
#822 = EDGE_CURVE ( 'NONE', #516, #752, #23, .T. ) ;
#823 = CARTESIAN_POINT ( 'NONE',  ( -15.00000000000000000, 8.599999999999999645, 1.699999999999998401 ) ) ;
#824 = ORIENTED_EDGE ( 'NONE', *, *, #830, .F. ) ;
#825 = EDGE_CURVE ( 'NONE', #698, #252, #700, .T. ) ;
#826 = DIRECTION ( 'NONE',  ( -0.000000000000000000, 1.000000000000000000, -0.000000000000000000 ) ) ;
#827 = DIRECTION ( 'NONE',  ( 0.000000000000000000, 0.000000000000000000, 1.000000000000000000 ) ) ;
#828 = VERTEX_POINT ( 'NONE', #311 ) ;
#829 = CC_DESIGN_PERSON_AND_ORGANIZATION_ASSIGNMENT ( #388, #202, ( #757 ) ) ;
#830 = EDGE_CURVE ( 'NONE', #655, #303, #570, .T. ) ;
#831 = LINE ( 'NONE', #693, #710 ) ;
#832 = LINE ( 'NONE', #384, #579 ) ;
#833 = ORIENTED_EDGE ( 'NONE', *, *, #618, .F. ) ;
#834 = CONICAL_SURFACE ( 'NONE', #231, 19.99999999999999645, 0.7853981633974517207 ) ;
#835 = ADVANCED_FACE ( 'NONE', ( #47 ), #302, .F. ) ;
#836 = DIRECTION ( 'NONE',  ( 0.000000000000000000, -0.000000000000000000, -1.000000000000000000 ) ) ;
#837 = VERTEX_POINT ( 'NONE', #112 ) ;
#838 = VECTOR ( 'NONE', #697, 1000.000000000000000 ) ;
#839 = FACE_OUTER_BOUND ( 'NONE', #230, .T. ) ;
#840 = MANIFOLD_SOLID_BREP ( 'CBORE for M3 Hex Socket Head Cap Screw1', #8 ) ;
#841 = ORIENTED_EDGE ( 'NONE', *, *, #135, .T. ) ;
ENDSEC;
END-ISO-10303-21;
