ISO-10303-21;
HEADER;
FILE_DESCRIPTION (( 'STEP AP203' ),
    '1' );
FILE_NAME ('pillar_horiz.STEP',
    '2025-12-17T10:18:36',
    ( '' ),
    ( '' ),
    'SwSTEP 2.0',
    'SolidWorks 2025',
    '' );
FILE_SCHEMA (( 'CONFIG_CONTROL_DESIGN' ));
ENDSEC;

DATA;
#1 = EDGE_LOOP ( 'NONE', ( #20, #36, #67, #52 ) ) ;
#2 = AXIS2_PLACEMENT_3D ( 'NONE', #56, #74, #133 ) ;
#3 = APPLICATION_CONTEXT ( 'configuration controlled 3d designs of mechanical parts and assemblies' ) ;
#4 = DIRECTION ( 'NONE',  ( 0.000000000000000000, -0.7071067811865545671, -0.7071067811865404673 ) ) ;
#5 = PLANE ( 'NONE',  #2 ) ;
#6 = CARTESIAN_POINT ( 'NONE',  ( 8.572527594031483051E-16, 160.0000000000000000, 6.500000000000018652 ) ) ;
#7 = CARTESIAN_POINT ( 'NONE',  ( 0.000000000000000000, 160.0000000000000000, -7.500000000000000000 ) ) ;
#8 = ADVANCED_FACE ( 'NONE', ( #96 ), #5, .F. ) ;
#9 = APPROVAL_PERSON_ORGANIZATION ( #225, #68, #190 ) ;
#10 = LINE ( 'NONE', #214, #53 ) ;
#11 = UNCERTAINTY_MEASURE_WITH_UNIT (LENGTH_MEASURE( 1.000000000000000082E-05 ), #140, 'distance_accuracy_value', 'NONE');
#12 = CC_DESIGN_PERSON_AND_ORGANIZATION_ASSIGNMENT ( #202, #157, ( #42 ) ) ;
#13 = MECHANICAL_CONTEXT ( 'NONE', #219, 'mechanical' ) ;
#14 =( NAMED_UNIT ( * ) SI_UNIT ( $, .STERADIAN. ) SOLID_ANGLE_UNIT ( ) );
#15 = CIRCLE ( 'NONE', #70, 7.500000000000000000 ) ;
#16 = DATE_TIME_ROLE ( 'creation_date' ) ;
#17 = CC_DESIGN_SECURITY_CLASSIFICATION ( #189, ( #42 ) ) ;
#18 = DATE_TIME_ROLE ( 'classification_date' ) ;
#19 = ORIENTED_EDGE ( 'NONE', *, *, #142, .F. ) ;
#20 = ORIENTED_EDGE ( 'NONE', *, *, #159, .F. ) ;
#21 = CIRCLE ( 'NONE', #24, 6.500000000000018652 ) ;
#22 = DIRECTION ( 'NONE',  ( 0.000000000000000000, 0.000000000000000000, -1.000000000000000000 ) ) ;
#23 = DIRECTION ( 'NONE',  ( 0.000000000000000000, 0.000000000000000000, 1.000000000000000000 ) ) ;
#24 = AXIS2_PLACEMENT_3D ( 'NONE', #199, #218, #44 ) ;
#25 = DIRECTION ( 'NONE',  ( 0.000000000000000000, 1.000000000000000000, 0.000000000000000000 ) ) ;
#26 = CARTESIAN_POINT ( 'NONE',  ( 0.000000000000000000, 160.0000000000000000, 0.000000000000000000 ) ) ;
#27 = FACE_OUTER_BOUND ( 'NONE', #192, .T. ) ;
#28 = APPROVAL_STATUS ( 'not_yet_approved' ) ;
#29 = CC_DESIGN_PERSON_AND_ORGANIZATION_ASSIGNMENT ( #173, #221, ( #110 ) ) ;
#30 = APPROVAL_DATE_TIME ( #169, #68 ) ;
#31 = APPLICATION_PROTOCOL_DEFINITION ( 'international standard', 'config_control_design', 1994, #219 ) ;
#32 = CIRCLE ( 'NONE', #145, 6.500000000000018652 ) ;
#33 = CALENDAR_DATE ( 2025, 17, 12 ) ;
#34 = ADVANCED_FACE ( 'NONE', ( #181 ), #55, .T. ) ;
#35 = EDGE_LOOP ( 'NONE', ( #104, #69 ) ) ;
#36 = ORIENTED_EDGE ( 'NONE', *, *, #63, .T. ) ;
#37 = ORIENTED_EDGE ( 'NONE', *, *, #148, .F. ) ;
#38 = DIRECTION ( 'NONE',  ( 0.000000000000000000, -1.000000000000000000, 0.000000000000000000 ) ) ;
#39 = FACE_OUTER_BOUND ( 'NONE', #35, .T. ) ;
#40 = CONICAL_SURFACE ( 'NONE', #164, 6.500000000000018652, 0.7853981633974382870 ) ;
#41 = CC_DESIGN_DATE_AND_TIME_ASSIGNMENT ( #172, #18, ( #189 ) ) ;
#42 = PRODUCT_DEFINITION_FORMATION_WITH_SPECIFIED_SOURCE ( 'ANY', '', #120, .NOT_KNOWN. ) ;
#43 = DIRECTION ( 'NONE',  ( 0.000000000000000000, -1.000000000000000000, 0.000000000000000000 ) ) ;
#44 = DIRECTION ( 'NONE',  ( 0.000000000000000000, 0.000000000000000000, 1.000000000000000000 ) ) ;
#45 = DIRECTION ( 'NONE',  ( 0.000000000000000000, 0.000000000000000000, -1.000000000000000000 ) ) ;
#46 = PERSON_AND_ORGANIZATION ( #115, #90 ) ;
#47 = AXIS2_PLACEMENT_3D ( 'NONE', #117, #183, #45 ) ;
#48 = ADVANCED_FACE ( 'NONE', ( #27 ), #58, .T. ) ;
#49 = DATE_AND_TIME ( #205, #129 ) ;
#50 = CALENDAR_DATE ( 2025, 17, 12 ) ;
#51 = ORIENTED_EDGE ( 'NONE', *, *, #63, .F. ) ;
#52 = ORIENTED_EDGE ( 'NONE', *, *, #105, .F. ) ;
#53 = VECTOR ( 'NONE', #154, 1000.000000000000000 ) ;
#54 = VERTEX_POINT ( 'NONE', #200 ) ;
#55 = CYLINDRICAL_SURFACE ( 'NONE', #111, 7.500000000000000000 ) ;
#56 = CARTESIAN_POINT ( 'NONE',  ( 0.000000000000000000, 0.000000000000000000, 0.000000000000000000 ) ) ;
#57 = DIRECTION ( 'NONE',  ( 0.000000000000000000, 1.000000000000000000, 0.000000000000000000 ) ) ;
#58 = CYLINDRICAL_SURFACE ( 'NONE', #61, 7.500000000000000000 ) ;
#59 = CARTESIAN_POINT ( 'NONE',  ( 0.000000000000000000, 0.000000000000000000, 0.000000000000000000 ) ) ;
#60 = DATE_AND_TIME ( #33, #204 ) ;
#61 = AXIS2_PLACEMENT_3D ( 'NONE', #151, #93, #22 ) ;
#62 = PERSON_AND_ORGANIZATION_ROLE ( 'classification_officer' ) ;
#63 = EDGE_CURVE ( 'NONE', #127, #210, #198, .T. ) ;
#64 = COORDINATED_UNIVERSAL_TIME_OFFSET ( 0, 0, .AHEAD. ) ;
#65 = COORDINATED_UNIVERSAL_TIME_OFFSET ( 0, 0, .AHEAD. ) ;
#66 = PRODUCT_RELATED_PRODUCT_CATEGORY ( 'detail', '', ( #120 ) ) ;
#67 = ORIENTED_EDGE ( 'NONE', *, *, #185, .F. ) ;
#68 = APPROVAL ( #28, 'UNSPECIFIED' ) ;
#69 = ORIENTED_EDGE ( 'NONE', *, *, #159, .T. ) ;
#70 = AXIS2_PLACEMENT_3D ( 'NONE', #75, #109, #23 ) ;
#71 = CLOSED_SHELL ( 'NONE', ( #122, #48, #34, #208, #8, #76 ) ) ;
#72 = ADVANCED_BREP_SHAPE_REPRESENTATION ( 'pillar_horiz', ( #101, #171 ), #78 ) ;
#73 = ORIENTED_EDGE ( 'NONE', *, *, #185, .T. ) ;
#74 = DIRECTION ( 'NONE',  ( 0.000000000000000000, 1.000000000000000000, 0.000000000000000000 ) ) ;
#75 = CARTESIAN_POINT ( 'NONE',  ( 0.000000000000000000, 0.000000000000000000, 0.000000000000000000 ) ) ;
#76 = ADVANCED_FACE ( 'NONE', ( #216 ), #153, .T. ) ;
#77 = CARTESIAN_POINT ( 'NONE',  ( 0.000000000000000000, 160.0000000000000000, 0.000000000000000000 ) ) ;
#78 =( GEOMETRIC_REPRESENTATION_CONTEXT ( 3 ) GLOBAL_UNCERTAINTY_ASSIGNED_CONTEXT ( ( #11 ) ) GLOBAL_UNIT_ASSIGNED_CONTEXT ( ( #140, #141, #14 ) ) REPRESENTATION_CONTEXT ( 'NONE', 'WORKASPACE' ) );
#79 = APPROVAL ( #206, 'UNSPECIFIED' ) ;
#80 = CIRCLE ( 'NONE', #193, 7.500000000000000000 ) ;
#81 = LINE ( 'NONE', #92, #217 ) ;
#82 = CC_DESIGN_PERSON_AND_ORGANIZATION_ASSIGNMENT ( #46, #62, ( #189 ) ) ;
#83 = CARTESIAN_POINT ( 'NONE',  ( 9.184850993605147944E-16, 159.0000000000000000, 7.500000000000000000 ) ) ;
#84 = PERSON_AND_ORGANIZATION ( #115, #90 ) ;
#85 = LOCAL_TIME ( 10, 18, 36.00000000000000000, #65 ) ;
#86 = APPROVAL_ROLE ( '' ) ;
#87 = PERSON_AND_ORGANIZATION ( #115, #90 ) ;
#88 = DIRECTION ( 'NONE',  ( 0.000000000000000000, 0.000000000000000000, 1.000000000000000000 ) ) ;
#89 = APPROVAL_DATE_TIME ( #49, #119 ) ;
#90 = ORGANIZATION ( 'UNSPECIFIED', 'UNSPECIFIED', '' ) ;
#91 = APPROVAL_PERSON_ORGANIZATION ( #87, #119, #158 ) ;
#92 = CARTESIAN_POINT ( 'NONE',  ( 0.000000000000000000, 160.0000000000000000, -6.500000000000018652 ) ) ;
#93 = DIRECTION ( 'NONE',  ( -0.000000000000000000, -1.000000000000000000, -0.000000000000000000 ) ) ;
#94 = CC_DESIGN_APPROVAL ( #79, ( #42 ) ) ;
#95 = DIRECTION ( 'NONE',  ( 0.000000000000000000, -0.000000000000000000, 1.000000000000000000 ) ) ;
#96 = FACE_OUTER_BOUND ( 'NONE', #174, .T. ) ;
#97 = CARTESIAN_POINT ( 'NONE',  ( 0.000000000000000000, 160.0000000000000000, -6.500000000000018652 ) ) ;
#98 = PERSON_AND_ORGANIZATION ( #115, #90 ) ;
#99 = COORDINATED_UNIVERSAL_TIME_OFFSET ( 0, 0, .AHEAD. ) ;
#100 = CIRCLE ( 'NONE', #178, 7.500000000000000000 ) ;
#101 = MANIFOLD_SOLID_BREP ( 'Chamfer1', #71 ) ;
#102 = COORDINATED_UNIVERSAL_TIME_OFFSET ( 0, 0, .AHEAD. ) ;
#103 = APPROVAL_STATUS ( 'not_yet_approved' ) ;
#104 = ORIENTED_EDGE ( 'NONE', *, *, #126, .T. ) ;
#105 = EDGE_CURVE ( 'NONE', #177, #179, #81, .T. ) ;
#106 = ORIENTED_EDGE ( 'NONE', *, *, #142, .T. ) ;
#107 = APPROVAL_PERSON_ORGANIZATION ( #98, #79, #86 ) ;
#108 = ORIENTED_EDGE ( 'NONE', *, *, #132, .F. ) ;
#109 = DIRECTION ( 'NONE',  ( 0.000000000000000000, 1.000000000000000000, 0.000000000000000000 ) ) ;
#110 = PRODUCT_DEFINITION ( 'UNKNOWN', '', #42, #175 ) ;
#111 = AXIS2_PLACEMENT_3D ( 'NONE', #77, #163, #131 ) ;
#112 = PLANE ( 'NONE',  #134 ) ;
#113 = CC_DESIGN_APPROVAL ( #68, ( #110 ) ) ;
#114 = DIRECTION ( 'NONE',  ( 8.659560562354846577E-17, -0.7071067811865545671, 0.7071067811865404673 ) ) ;
#115 = PERSON ( 'UNSPECIFIED', 'UNSPECIFIED', 'UNSPECIFIED', ('UNSPECIFIED'), ('UNSPECIFIED'), ('UNSPECIFIED') ) ;
#116 = DIRECTION ( 'NONE',  ( 0.000000000000000000, 0.000000000000000000, 1.000000000000000000 ) ) ;
#117 = CARTESIAN_POINT ( 'NONE',  ( 0.000000000000000000, 160.0000000000000000, 0.000000000000000000 ) ) ;
#118 = CARTESIAN_POINT ( 'NONE',  ( 0.000000000000000000, 0.000000000000000000, 0.000000000000000000 ) ) ;
#119 = APPROVAL ( #103, 'UNSPECIFIED' ) ;
#120 = PRODUCT ( 'pillar_horiz', 'pillar_horiz', '', ( #13 ) ) ;
#121 = PERSON_AND_ORGANIZATION ( #115, #90 ) ;
#122 = ADVANCED_FACE ( 'NONE', ( #194 ), #40, .T. ) ;
#123 = PERSON_AND_ORGANIZATION_ROLE ( 'design_owner' ) ;
#124 = LOCAL_TIME ( 10, 18, 36.00000000000000000, #102 ) ;
#125 = APPLICATION_PROTOCOL_DEFINITION ( 'international standard', 'config_control_design', 1994, #3 ) ;
#126 = EDGE_CURVE ( 'NONE', #177, #127, #32, .T. ) ;
#127 = VERTEX_POINT ( 'NONE', #6 ) ;
#128 = ORIENTED_EDGE ( 'NONE', *, *, #170, .F. ) ;
#129 = LOCAL_TIME ( 10, 18, 36.00000000000000000, #64 ) ;
#130 = ORIENTED_EDGE ( 'NONE', *, *, #180, .T. ) ;
#131 = DIRECTION ( 'NONE',  ( 0.000000000000000000, 0.000000000000000000, -1.000000000000000000 ) ) ;
#132 = EDGE_CURVE ( 'NONE', #210, #179, #80, .T. ) ;
#133 = DIRECTION ( 'NONE',  ( 0.000000000000000000, -0.000000000000000000, 1.000000000000000000 ) ) ;
#134 = AXIS2_PLACEMENT_3D ( 'NONE', #182, #25, #95 ) ;
#135 = DIRECTION ( 'NONE',  ( 0.000000000000000000, 1.000000000000000000, 0.000000000000000000 ) ) ;
#136 = DIRECTION ( 'NONE',  ( 0.000000000000000000, 0.000000000000000000, 1.000000000000000000 ) ) ;
#137 = DIRECTION ( 'NONE',  ( 0.000000000000000000, -1.000000000000000000, 0.000000000000000000 ) ) ;
#138 = DATE_AND_TIME ( #50, #124 ) ;
#139 = VECTOR ( 'NONE', #114, 1000.000000000000000 ) ;
#140 =( LENGTH_UNIT ( ) NAMED_UNIT ( * ) SI_UNIT ( .MILLI., .METRE. ) );
#141 =( NAMED_UNIT ( * ) PLANE_ANGLE_UNIT ( ) SI_UNIT ( $, .RADIAN. ) );
#142 = EDGE_CURVE ( 'NONE', #160, #54, #15, .T. ) ;
#143 = EDGE_LOOP ( 'NONE', ( #162, #176, #209, #106 ) ) ;
#144 = ORIENTED_EDGE ( 'NONE', *, *, #170, .T. ) ;
#145 = AXIS2_PLACEMENT_3D ( 'NONE', #213, #57, #136 ) ;
#146 = CC_DESIGN_PERSON_AND_ORGANIZATION_ASSIGNMENT ( #84, #156, ( #42 ) ) ;
#147 = SHAPE_DEFINITION_REPRESENTATION ( #161, #72 ) ;
#148 = EDGE_CURVE ( 'NONE', #179, #160, #167, .T. ) ;
#149 = DIRECTION ( 'NONE',  ( 0.000000000000000000, 0.000000000000000000, -1.000000000000000000 ) ) ;
#150 = CARTESIAN_POINT ( 'NONE',  ( 0.000000000000000000, 159.0000000000000000, 0.000000000000000000 ) ) ;
#151 = CARTESIAN_POINT ( 'NONE',  ( 0.000000000000000000, 160.0000000000000000, 0.000000000000000000 ) ) ;
#152 = DIRECTION ( 'NONE',  ( -0.000000000000000000, -1.000000000000000000, -0.000000000000000000 ) ) ;
#153 = CONICAL_SURFACE ( 'NONE', #47, 6.500000000000018652, 0.7853981633974382870 ) ;
#154 = DIRECTION ( 'NONE',  ( -0.000000000000000000, -1.000000000000000000, -0.000000000000000000 ) ) ;
#155 = CC_DESIGN_PERSON_AND_ORGANIZATION_ASSIGNMENT ( #121, #123, ( #120 ) ) ;
#156 = PERSON_AND_ORGANIZATION_ROLE ( 'creator' ) ;
#157 = PERSON_AND_ORGANIZATION_ROLE ( 'design_supplier' ) ;
#158 = APPROVAL_ROLE ( '' ) ;
#159 = EDGE_CURVE ( 'NONE', #127, #177, #21, .T. ) ;
#160 = VERTEX_POINT ( 'NONE', #166 ) ;
#161 = PRODUCT_DEFINITION_SHAPE ( 'NONE', 'NONE',  #110 ) ;
#162 = ORIENTED_EDGE ( 'NONE', *, *, #180, .F. ) ;
#163 = DIRECTION ( 'NONE',  ( -0.000000000000000000, -1.000000000000000000, -0.000000000000000000 ) ) ;
#164 = AXIS2_PLACEMENT_3D ( 'NONE', #26, #43, #149 ) ;
#165 = CARTESIAN_POINT ( 'NONE',  ( 0.000000000000000000, 159.0000000000000000, -7.500000000000000000 ) ) ;
#166 = CARTESIAN_POINT ( 'NONE',  ( 0.000000000000000000, 0.000000000000000000, -7.500000000000000000 ) ) ;
#167 = LINE ( 'NONE', #7, #197 ) ;
#168 = DIRECTION ( 'NONE',  ( 0.000000000000000000, 0.000000000000000000, 1.000000000000000000 ) ) ;
#169 = DATE_AND_TIME ( #201, #85 ) ;
#170 = EDGE_CURVE ( 'NONE', #54, #160, #196, .T. ) ;
#171 = AXIS2_PLACEMENT_3D ( 'NONE', #118, #88, #186 ) ;
#172 = DATE_AND_TIME ( #188, #222 ) ;
#173 = PERSON_AND_ORGANIZATION ( #115, #90 ) ;
#174 = EDGE_LOOP ( 'NONE', ( #19, #128 ) ) ;
#175 = DESIGN_CONTEXT ( 'detailed design', #3, 'design' ) ;
#176 = ORIENTED_EDGE ( 'NONE', *, *, #132, .T. ) ;
#177 = VERTEX_POINT ( 'NONE', #97 ) ;
#178 = AXIS2_PLACEMENT_3D ( 'NONE', #220, #137, #195 ) ;
#179 = VERTEX_POINT ( 'NONE', #165 ) ;
#180 = EDGE_CURVE ( 'NONE', #210, #54, #10, .T. ) ;
#181 = FACE_OUTER_BOUND ( 'NONE', #143, .T. ) ;
#182 = CARTESIAN_POINT ( 'NONE',  ( 0.000000000000000000, 160.0000000000000000, 0.000000000000000000 ) ) ;
#183 = DIRECTION ( 'NONE',  ( 0.000000000000000000, -1.000000000000000000, 0.000000000000000000 ) ) ;
#184 = CARTESIAN_POINT ( 'NONE',  ( 7.960204194457819143E-16, 160.0000000000000000, 6.500000000000018652 ) ) ;
#185 = EDGE_CURVE ( 'NONE', #179, #210, #100, .T. ) ;
#186 = DIRECTION ( 'NONE',  ( 1.000000000000000000, 0.000000000000000000, 0.000000000000000000 ) ) ;
#187 = AXIS2_PLACEMENT_3D ( 'NONE', #59, #135, #116 ) ;
#188 = CALENDAR_DATE ( 2025, 17, 12 ) ;
#189 = SECURITY_CLASSIFICATION ( '', '', #223 ) ;
#190 = APPROVAL_ROLE ( '' ) ;
#191 = ORIENTED_EDGE ( 'NONE', *, *, #126, .F. ) ;
#192 = EDGE_LOOP ( 'NONE', ( #73, #130, #144, #37 ) ) ;
#193 = AXIS2_PLACEMENT_3D ( 'NONE', #150, #38, #168 ) ;
#194 = FACE_OUTER_BOUND ( 'NONE', #1, .T. ) ;
#195 = DIRECTION ( 'NONE',  ( 0.000000000000000000, 0.000000000000000000, 1.000000000000000000 ) ) ;
#196 = CIRCLE ( 'NONE', #187, 7.500000000000000000 ) ;
#197 = VECTOR ( 'NONE', #152, 1000.000000000000000 ) ;
#198 = LINE ( 'NONE', #184, #139 ) ;
#199 = CARTESIAN_POINT ( 'NONE',  ( 0.000000000000000000, 160.0000000000000000, 0.000000000000000000 ) ) ;
#200 = CARTESIAN_POINT ( 'NONE',  ( 9.184850993605147944E-16, 0.000000000000000000, 7.500000000000000000 ) ) ;
#201 = CALENDAR_DATE ( 2025, 17, 12 ) ;
#202 = PERSON_AND_ORGANIZATION ( #115, #90 ) ;
#203 = COORDINATED_UNIVERSAL_TIME_OFFSET ( 0, 0, .AHEAD. ) ;
#204 = LOCAL_TIME ( 10, 18, 36.00000000000000000, #99 ) ;
#205 = CALENDAR_DATE ( 2025, 17, 12 ) ;
#206 = APPROVAL_STATUS ( 'not_yet_approved' ) ;
#207 = EDGE_LOOP ( 'NONE', ( #51, #191, #212, #108 ) ) ;
#208 = ADVANCED_FACE ( 'NONE', ( #39 ), #112, .T. ) ;
#209 = ORIENTED_EDGE ( 'NONE', *, *, #148, .T. ) ;
#210 = VERTEX_POINT ( 'NONE', #83 ) ;
#211 = CC_DESIGN_APPROVAL ( #119, ( #189 ) ) ;
#212 = ORIENTED_EDGE ( 'NONE', *, *, #105, .T. ) ;
#213 = CARTESIAN_POINT ( 'NONE',  ( 0.000000000000000000, 160.0000000000000000, 0.000000000000000000 ) ) ;
#214 = CARTESIAN_POINT ( 'NONE',  ( 9.184850993605147944E-16, 160.0000000000000000, 7.500000000000000000 ) ) ;
#215 = CC_DESIGN_DATE_AND_TIME_ASSIGNMENT ( #60, #16, ( #110 ) ) ;
#216 = FACE_OUTER_BOUND ( 'NONE', #207, .T. ) ;
#217 = VECTOR ( 'NONE', #4, 1000.000000000000000 ) ;
#218 = DIRECTION ( 'NONE',  ( 0.000000000000000000, 1.000000000000000000, 0.000000000000000000 ) ) ;
#219 = APPLICATION_CONTEXT ( 'configuration controlled 3d designs of mechanical parts and assemblies' ) ;
#220 = CARTESIAN_POINT ( 'NONE',  ( 0.000000000000000000, 159.0000000000000000, 0.000000000000000000 ) ) ;
#221 = PERSON_AND_ORGANIZATION_ROLE ( 'creator' ) ;
#222 = LOCAL_TIME ( 10, 18, 36.00000000000000000, #203 ) ;
#223 = SECURITY_CLASSIFICATION_LEVEL ( 'unclassified' ) ;
#224 = APPROVAL_DATE_TIME ( #138, #79 ) ;
#225 = PERSON_AND_ORGANIZATION ( #115, #90 ) ;
ENDSEC;
END-ISO-10303-21;
