ISO-10303-21;
HEADER;
FILE_DESCRIPTION (( 'STEP AP203' ),
    '1' );
FILE_NAME ('rail.STEP',
    '2025-12-17T10:19:44',
    ( '' ),
    ( '' ),
    '',
    '',
    '' );
FILE_SCHEMA (( 'CONFIG_CONTROL_DESIGN' ));
ENDSEC;

DATA;
#1 = VERTEX_POINT ( 'NONE', #508 ) ;
#2 = DIRECTION ( 'NONE',  ( -1.000000000000000000, -4.818676322157798854E-17, -0.000000000000000000 ) ) ;
#3 = DIRECTION ( 'NONE',  ( 8.673617379884035472E-16, 1.000000000000000000, 0.000000000000000000 ) ) ;
#4 = EDGE_CURVE ( 'NONE', #404, #1278, #514, .T. ) ;
#5 = VERTEX_POINT ( 'NONE', #199 ) ;
#6 = FACE_OUTER_BOUND ( 'NONE', #653, .T. ) ;
#7 = EDGE_LOOP ( 'NONE', ( #186, #518, #814, #424 ) ) ;
#8 = CARTESIAN_POINT ( 'NONE',  ( 9.000000000000000000, 3.414213562373080713, 75.00000000000000000 ) ) ;
#9 = DIRECTION ( 'NONE',  ( -0.7071067811865511255, 0.7071067811865440200, 0.000000000000000000 ) ) ;
#10 = CARTESIAN_POINT ( 'NONE',  ( -7.500000000000001776, -1.500000000000000000, 75.00000000000000000 ) ) ;
#11 = PERSON_AND_ORGANIZATION_ROLE ( 'creator' ) ;
#12 = ORIENTED_EDGE ( 'NONE', *, *, #78, .T. ) ;
#13 = CARTESIAN_POINT ( 'NONE',  ( -4.981065714214516045E-13, 1.599999999999983435, -18.75000000000001776 ) ) ;
#14 = DIRECTION ( 'NONE',  ( -0.000000000000000000, 1.000000000000000000, -0.000000000000000000 ) ) ;
#15 = VECTOR ( 'NONE', #160, 1000.000000000000000 ) ;
#16 = LINE ( 'NONE', #438, #69 ) ;
#17 = ORIENTED_EDGE ( 'NONE', *, *, #1104, .F. ) ;
#18 = EDGE_CURVE ( 'NONE', #1147, #486, #1351, .T. ) ;
#19 = AXIS2_PLACEMENT_3D ( 'NONE', #30, #658, #538 ) ;
#20 = EDGE_LOOP ( 'NONE', ( #93, #1373 ) ) ;
#21 = CARTESIAN_POINT ( 'NONE',  ( -8.000000000000021316, -7.999999999999983125, -75.00000000000000000 ) ) ;
#22 = LINE ( 'NONE', #756, #883 ) ;
#23 = CARTESIAN_POINT ( 'NONE',  ( 1.363685399170656723E-14, -7.999999999999983125, -54.55000000000001137 ) ) ;
#24 = EDGE_CURVE ( 'NONE', #1247, #64, #829, .T. ) ;
#25 = ORIENTED_EDGE ( 'NONE', *, *, #258, .F. ) ;
#26 = CARTESIAN_POINT ( 'NONE',  ( -4.977085612117286837E-13, 1.599999999999983435, -22.00000000000001421 ) ) ;
#27 = VECTOR ( 'NONE', #1259, 1000.000000000000000 ) ;
#28 = FACE_BOUND ( 'NONE', #534, .T. ) ;
#29 = CIRCLE ( 'NONE', #859, 1.700000000000000178 ) ;
#30 = CARTESIAN_POINT ( 'NONE',  ( 7.500000000000001776, 1.500000000000000000, 75.00000000000000000 ) ) ;
#31 = VERTEX_POINT ( 'NONE', #628 ) ;
#32 = AXIS2_PLACEMENT_3D ( 'NONE', #398, #945, #1153 ) ;
#33 = ORIENTED_EDGE ( 'NONE', *, *, #886, .T. ) ;
#34 = CARTESIAN_POINT ( 'NONE',  ( -3.697370341991677785E-13, 1.599999999999983435, 21.99999999999997868 ) ) ;
#35 = APPROVAL ( #861, 'UNSPECIFIED' ) ;
#36 = FACE_OUTER_BOUND ( 'NONE', #1106, .T. ) ;
#37 = EDGE_CURVE ( 'NONE', #67, #161, #740, .T. ) ;
#38 = CARTESIAN_POINT ( 'NONE',  ( -4.978983814655965724E-13, 4.999999999999984013, -20.45000000000002416 ) ) ;
#39 = EDGE_LOOP ( 'NONE', ( #1386, #379, #165, #288 ) ) ;
#40 = VECTOR ( 'NONE', #333, 1000.000000000000000 ) ;
#41 = VERTEX_POINT ( 'NONE', #1038 ) ;
#42 = DIRECTION ( 'NONE',  ( 0.000000000000000000, 0.000000000000000000, 1.000000000000000000 ) ) ;
#43 = DIRECTION ( 'NONE',  ( 0.000000000000000000, -1.000000000000000000, 0.000000000000000000 ) ) ;
#44 = AXIS2_PLACEMENT_3D ( 'NONE', #565, #1107, #256 ) ;
#45 = ADVANCED_FACE ( 'NONE', ( #502 ), #950, .F. ) ;
#46 = LINE ( 'NONE', #464, #735 ) ;
#47 = VECTOR ( 'NONE', #1146, 1000.000000000000000 ) ;
#48 = DIRECTION ( 'NONE',  ( 0.000000000000000000, -0.000000000000000000, -1.000000000000000000 ) ) ;
#49 = DIRECTION ( 'NONE',  ( 1.000000000000000000, 0.000000000000000000, 0.000000000000000000 ) ) ;
#50 = DIRECTION ( 'NONE',  ( -0.000000000000000000, 1.000000000000000000, -0.000000000000000000 ) ) ;
#51 = VERTEX_POINT ( 'NONE', #289 ) ;
#52 = CYLINDRICAL_SURFACE ( 'NONE', #1277, 1.700000000000007061 ) ;
#53 = ORIENTED_EDGE ( 'NONE', *, *, #1108, .T. ) ;
#54 = FACE_BOUND ( 'NONE', #1225, .T. ) ;
#55 = PLANE ( 'NONE',  #1298 ) ;
#56 = EDGE_LOOP ( 'NONE', ( #53, #559, #439, #481 ) ) ;
#57 = ADVANCED_FACE ( 'NONE', ( #719 ), #1148, .F. ) ;
#58 = PLANE ( 'NONE',  #345 ) ;
#59 = VERTEX_POINT ( 'NONE', #177 ) ;
#60 = CARTESIAN_POINT ( 'NONE',  ( -9.000000000000000000, -2.999999999999982681, -75.00000000000000000 ) ) ;
#61 = LINE ( 'NONE', #1341, #15 ) ;
#62 = ORIENTED_EDGE ( 'NONE', *, *, #163, .F. ) ;
#63 = CIRCLE ( 'NONE', #130, 3.249999999999996003 ) ;
#64 = VERTEX_POINT ( 'NONE', #1165 ) ;
#65 = CARTESIAN_POINT ( 'NONE',  ( -4.981065714214516045E-13, 4.999999999999984013, -15.50000000000002132 ) ) ;
#66 = EDGE_CURVE ( 'NONE', #377, #1342, #1053, .T. ) ;
#67 = VERTEX_POINT ( 'NONE', #94 ) ;
#68 = FACE_OUTER_BOUND ( 'NONE', #935, .T. ) ;
#69 = VECTOR ( 'NONE', #979, 1000.000000000000000 ) ;
#70 = CARTESIAN_POINT ( 'NONE',  ( -8.000000000000021316, -7.999999999999983125, -75.00000000000000000 ) ) ;
#71 = VERTEX_POINT ( 'NONE', #841 ) ;
#72 = CARTESIAN_POINT ( 'NONE',  ( 1.363685399170656723E-14, 4.999999999999984013, 56.24999999999997868 ) ) ;
#73 = DIRECTION ( 'NONE',  ( -0.000000000000000000, 1.000000000000000000, -0.000000000000000000 ) ) ;
#74 = VECTOR ( 'NONE', #3, 1000.000000000000000 ) ;
#75 = EDGE_LOOP ( 'NONE', ( #693, #609, #1358, #62 ) ) ;
#76 = CARTESIAN_POINT ( 'NONE',  ( 1.363685399170656723E-14, 4.999999999999984013, 56.24999999999997868 ) ) ;
#77 = CARTESIAN_POINT ( 'NONE',  ( 8.999999999999996447, -7.000000000000009770, -75.00000000000000000 ) ) ;
#78 = EDGE_CURVE ( 'NONE', #975, #454, #932, .T. ) ;
#79 = ORIENTED_EDGE ( 'NONE', *, *, #608, .T. ) ;
#80 = DIRECTION ( 'NONE',  ( 0.000000000000000000, 0.000000000000000000, 1.000000000000000000 ) ) ;
#81 = FACE_OUTER_BOUND ( 'NONE', #636, .T. ) ;
#82 = EDGE_LOOP ( 'NONE', ( #711, #387, #938, #923 ) ) ;
#83 = CARTESIAN_POINT ( 'NONE',  ( -3.697370341991677785E-13, 4.999999999999984013, 18.74999999999998224 ) ) ;
#84 = DIRECTION ( 'NONE',  ( -0.000000000000000000, 0.000000000000000000, 1.000000000000000000 ) ) ;
#85 = ORIENTED_EDGE ( 'NONE', *, *, #558, .F. ) ;
#86 = ADVANCED_FACE ( 'NONE', ( #1374 ), #1387, .F. ) ;
#87 = CARTESIAN_POINT ( 'NONE',  ( 8.000000000000021316, -7.999999999999983125, 75.00000000000000000 ) ) ;
#88 = AXIS2_PLACEMENT_3D ( 'NONE', #271, #187, #1369 ) ;
#89 = FACE_BOUND ( 'NONE', #176, .T. ) ;
#90 = ORIENTED_EDGE ( 'NONE', *, *, #776, .T. ) ;
#91 = DIRECTION ( 'NONE',  ( -0.7071067811865482389, -0.7071067811865469066, 0.000000000000000000 ) ) ;
#92 = DIRECTION ( 'NONE',  ( 1.000000000000000000, -1.734723475976807094E-15, 0.000000000000000000 ) ) ;
#93 = ORIENTED_EDGE ( 'NONE', *, *, #847, .F. ) ;
#94 = CARTESIAN_POINT ( 'NONE',  ( 1.384504394756161825E-14, -7.999999999999983125, -57.95000000000000995 ) ) ;
#95 = PERSON_AND_ORGANIZATION_ROLE ( 'creator' ) ;
#96 = ORIENTED_EDGE ( 'NONE', *, *, #858, .F. ) ;
#97 = CARTESIAN_POINT ( 'NONE',  ( -9.000000000000000000, -3.414213562373079824, -75.00000000000000000 ) ) ;
#98 = CARTESIAN_POINT ( 'NONE',  ( 8.707106781186542577, -2.707106781186528366, 75.00000000000000000 ) ) ;
#99 = VECTOR ( 'NONE', #223, 999.9999999999998863 ) ;
#100 = VERTEX_POINT ( 'NONE', #704 ) ;
#101 = CARTESIAN_POINT ( 'NONE',  ( 9.000000000000000000, 2.999999999999983125, -75.00000000000000000 ) ) ;
#102 = APPROVAL_DATE_TIME ( #226, #35 ) ;
#103 = EDGE_CURVE ( 'NONE', #275, #715, #805, .T. ) ;
#104 = ORIENTED_EDGE ( 'NONE', *, *, #406, .F. ) ;
#105 = LINE ( 'NONE', #8, #1035 ) ;
#106 = DIRECTION ( 'NONE',  ( 0.000000000000000000, 0.000000000000000000, 1.000000000000000000 ) ) ;
#107 = ORIENTED_EDGE ( 'NONE', *, *, #155, .T. ) ;
#108 = DIRECTION ( 'NONE',  ( 0.000000000000000000, 0.000000000000000000, 1.000000000000000000 ) ) ;
#109 = AXIS2_PLACEMENT_3D ( 'NONE', #1239, #157, #1232 ) ;
#110 = APPROVAL_STATUS ( 'not_yet_approved' ) ;
#111 = ORIENTED_EDGE ( 'NONE', *, *, #657, .T. ) ;
#112 = DIRECTION ( 'NONE',  ( 0.000000000000000000, 0.000000000000000000, 1.000000000000000000 ) ) ;
#113 = EDGE_CURVE ( 'NONE', #64, #1352, #251, .T. ) ;
#114 = LINE ( 'NONE', #971, #495 ) ;
#115 = FACE_OUTER_BOUND ( 'NONE', #894, .T. ) ;
#116 = COORDINATED_UNIVERSAL_TIME_OFFSET ( 0, 0, .AHEAD. ) ;
#117 = VERTEX_POINT ( 'NONE', #860 ) ;
#118 = CARTESIAN_POINT ( 'NONE',  ( -7.500000000000001776, 1.500000000000000000, -75.00000000000000000 ) ) ;
#119 = DIRECTION ( 'NONE',  ( 0.000000000000000000, 0.000000000000000000, 1.000000000000000000 ) ) ;
#120 = EDGE_CURVE ( 'NONE', #31, #404, #240, .T. ) ;
#121 = CIRCLE ( 'NONE', #1243, 1.700000000000000178 ) ;
#122 = DIRECTION ( 'NONE',  ( -0.000000000000000000, -0.000000000000000000, -1.000000000000000000 ) ) ;
#123 = ORIENTED_EDGE ( 'NONE', *, *, #1008, .F. ) ;
#124 = CARTESIAN_POINT ( 'NONE',  ( -7.999999999999998224, -3.414213562373078936, 75.00000000000000000 ) ) ;
#125 = CARTESIAN_POINT ( 'NONE',  ( -7.999999999999996447, 4.999999999999983125, 75.00000000000000000 ) ) ;
#126 = DIRECTION ( 'NONE',  ( -0.000000000000000000, 1.000000000000000000, -0.000000000000000000 ) ) ;
#127 = ADVANCED_FACE ( 'NONE', ( #6 ), #132, .F. ) ;
#128 = VERTEX_POINT ( 'NONE', #1299 ) ;
#129 = CARTESIAN_POINT ( 'NONE',  ( 7.999999999999998224, 3.414213562373079824, -75.00000000000000000 ) ) ;
#130 = AXIS2_PLACEMENT_3D ( 'NONE', #772, #358, #455 ) ;
#131 = CARTESIAN_POINT ( 'NONE',  ( -3.695288442433127465E-13, -7.999999999999983125, 17.04999999999998295 ) ) ;
#132 = PLANE ( 'NONE',  #19 ) ;
#133 = VECTOR ( 'NONE', #1050, 1000.000000000000000 ) ;
#134 = EDGE_CURVE ( 'NONE', #185, #128, #550, .T. ) ;
#135 = ORIENTED_EDGE ( 'NONE', *, *, #909, .F. ) ;
#136 = LINE ( 'NONE', #253, #218 ) ;
#137 = CARTESIAN_POINT ( 'NONE',  ( 1.363685399170656723E-14, 1.599999999999983435, -56.25000000000000711 ) ) ;
#138 = DIRECTION ( 'NONE',  ( -0.000000000000000000, 1.000000000000000000, -0.000000000000000000 ) ) ;
#139 = CIRCLE ( 'NONE', #562, 3.249999999999996003 ) ;
#140 = ORIENTED_EDGE ( 'NONE', *, *, #847, .T. ) ;
#141 = CARTESIAN_POINT ( 'NONE',  ( -9.000000000000000000, -2.999999999999982681, 75.00000000000000000 ) ) ;
#142 = EDGE_CURVE ( 'NONE', #824, #1274, #556, .T. ) ;
#143 = DIRECTION ( 'NONE',  ( -0.000000000000000000, 1.000000000000000000, -0.000000000000000000 ) ) ;
#144 = EDGE_CURVE ( 'NONE', #862, #59, #1123, .T. ) ;
#145 = FACE_OUTER_BOUND ( 'NONE', #169, .T. ) ;
#146 = DIRECTION ( 'NONE',  ( 0.000000000000000000, 0.000000000000000000, 1.000000000000000000 ) ) ;
#147 = LINE ( 'NONE', #1014, #1265 ) ;
#148 = AXIS2_PLACEMENT_3D ( 'NONE', #394, #706, #804 ) ;
#149 = DIRECTION ( 'NONE',  ( -0.000000000000000000, 1.000000000000000000, -0.000000000000000000 ) ) ;
#150 = FACE_OUTER_BOUND ( 'NONE', #585, .T. ) ;
#151 = LINE ( 'NONE', #667, #720 ) ;
#152 = AXIS2_PLACEMENT_3D ( 'NONE', #727, #1067, #1253 ) ;
#153 = CARTESIAN_POINT ( 'NONE',  ( 8.999999999999998224, -4.999999999999983125, 75.00000000000000000 ) ) ;
#154 = VERTEX_POINT ( 'NONE', #1291 ) ;
#155 = EDGE_CURVE ( 'NONE', #117, #1027, #557, .T. ) ;
#156 = EDGE_CURVE ( 'NONE', #1289, #460, #532, .T. ) ;
#157 = DIRECTION ( 'NONE',  ( -0.000000000000000000, 1.000000000000000000, -0.000000000000000000 ) ) ;
#158 = ORIENTED_EDGE ( 'NONE', *, *, #1111, .F. ) ;
#159 = CYLINDRICAL_SURFACE ( 'NONE', #1000, 3.249999999999996003 ) ;
#160 = DIRECTION ( 'NONE',  ( -8.673617379884035472E-16, -1.000000000000000000, 0.000000000000000000 ) ) ;
#161 = VERTEX_POINT ( 'NONE', #23 ) ;
#162 = ORIENTED_EDGE ( 'NONE', *, *, #103, .T. ) ;
#163 = EDGE_CURVE ( 'NONE', #1274, #486, #750, .T. ) ;
#164 = CARTESIAN_POINT ( 'NONE',  ( -4.981065714214516045E-13, 4.999999999999984013, -18.75000000000001776 ) ) ;
#165 = ORIENTED_EDGE ( 'NONE', *, *, #1324, .T. ) ;
#166 = CARTESIAN_POINT ( 'NONE',  ( 8.707106781186542577, 2.707106781186528366, 75.00000000000000000 ) ) ;
#167 = LOCAL_TIME ( 10, 19, 44.00000000000000000, #433 ) ;
#168 = DIRECTION ( 'NONE',  ( 0.000000000000000000, -0.000000000000000000, -1.000000000000000000 ) ) ;
#169 = EDGE_LOOP ( 'NONE', ( #812, #777, #497, #806 ) ) ;
#170 = DIRECTION ( 'NONE',  ( 0.7071067811865510144, 0.7071067811865441310, -0.000000000000000000 ) ) ;
#171 = DIRECTION ( 'NONE',  ( 0.000000000000000000, -1.000000000000000000, 0.000000000000000000 ) ) ;
#172 = EDGE_CURVE ( 'NONE', #311, #1175, #1091, .T. ) ;
#173 = EDGE_LOOP ( 'NONE', ( #391, #1040, #914, #633 ) ) ;
#174 = DIRECTION ( 'NONE',  ( 0.000000000000000000, 0.000000000000000000, 1.000000000000000000 ) ) ;
#175 = FACE_OUTER_BOUND ( 'NONE', #272, .T. ) ;
#176 = EDGE_LOOP ( 'NONE', ( #1377, #1255 ) ) ;
#177 = CARTESIAN_POINT ( 'NONE',  ( 1.363685399170656723E-14, 4.999999999999984013, -53.00000000000001421 ) ) ;
#178 = DIRECTION ( 'NONE',  ( 4.818676322157798854E-17, -1.000000000000000000, 0.000000000000000000 ) ) ;
#179 = AXIS2_PLACEMENT_3D ( 'NONE', #1096, #764, #1198 ) ;
#180 = ORIENTED_EDGE ( 'NONE', *, *, #960, .F. ) ;
#181 = PLANE ( 'NONE',  #397 ) ;
#182 = EDGE_CURVE ( 'NONE', #1152, #982, #645, .T. ) ;
#183 = CARTESIAN_POINT ( 'NONE',  ( -3.693390239894449082E-13, 1.599999999999983435, 15.49999999999998579 ) ) ;
#184 = EDGE_CURVE ( 'NONE', #601, #699, #16, .T. ) ;
#185 = VERTEX_POINT ( 'NONE', #10 ) ;
#186 = ORIENTED_EDGE ( 'NONE', *, *, #1080, .F. ) ;
#187 = DIRECTION ( 'NONE',  ( -0.000000000000000000, 1.000000000000000000, -0.000000000000000000 ) ) ;
#188 = ORIENTED_EDGE ( 'NONE', *, *, #782, .F. ) ;
#189 = DIRECTION ( 'NONE',  ( -0.000000000000000000, 1.000000000000000000, -0.000000000000000000 ) ) ;
#190 = CARTESIAN_POINT ( 'NONE',  ( 1.363685399170656723E-14, 1.599999999999983435, 56.24999999999997868 ) ) ;
#191 = ORIENTED_EDGE ( 'NONE', *, *, #18, .F. ) ;
#192 = CARTESIAN_POINT ( 'NONE',  ( 8.999999999999996447, -7.000000000000009770, -75.00000000000000000 ) ) ;
#193 = CIRCLE ( 'NONE', #775, 0.9999999999999991118 ) ;
#194 = AXIS2_PLACEMENT_3D ( 'NONE', #153, #1004, #349 ) ;
#195 = ORIENTED_EDGE ( 'NONE', *, *, #1042, .T. ) ;
#196 = CYLINDRICAL_SURFACE ( 'NONE', #1120, 1.700000000000007061 ) ;
#197 = DIRECTION ( 'NONE',  ( -0.000000000000000000, 1.000000000000000000, -0.000000000000000000 ) ) ;
#198 = ORIENTED_EDGE ( 'NONE', *, *, #37, .T. ) ;
#199 = CARTESIAN_POINT ( 'NONE',  ( -3.697370341991677785E-13, -7.999999999999983125, 20.44999999999998153 ) ) ;
#200 = ADVANCED_FACE ( 'NONE', ( #742 ), #1082, .T. ) ;
#201 = AXIS2_PLACEMENT_3D ( 'NONE', #1250, #279, #388 ) ;
#202 = APPROVAL_DATE_TIME ( #1181, #629 ) ;
#203 = ADVANCED_FACE ( 'NONE', ( #115 ), #879, .F. ) ;
#204 = VERTEX_POINT ( 'NONE', #998 ) ;
#205 = CARTESIAN_POINT ( 'NONE',  ( 8.000000000000024869, 4.999999999999984013, -75.00000000000000000 ) ) ;
#206 = VECTOR ( 'NONE', #1034, 1000.000000000000000 ) ;
#207 = CARTESIAN_POINT ( 'NONE',  ( -8.000000000000021316, -7.999999999999983125, 0.000000000000000000 ) ) ;
#208 = ORIENTED_EDGE ( 'NONE', *, *, #1008, .T. ) ;
#209 = CARTESIAN_POINT ( 'NONE',  ( 7.500000000000001776, 1.500000000000000000, 75.00000000000000000 ) ) ;
#210 = EDGE_CURVE ( 'NONE', #100, #862, #326, .T. ) ;
#211 = PERSON_AND_ORGANIZATION ( #857, #243 ) ;
#212 = CIRCLE ( 'NONE', #781, 3.249999999999996003 ) ;
#213 = ORIENTED_EDGE ( 'NONE', *, *, #357, .T. ) ;
#214 = DIRECTION ( 'NONE',  ( -0.000000000000000000, 0.000000000000000000, 1.000000000000000000 ) ) ;
#215 = CARTESIAN_POINT ( 'NONE',  ( -9.000000000000000000, 2.999999999999982681, 75.00000000000000000 ) ) ;
#216 = VERTEX_POINT ( 'NONE', #1311 ) ;
#217 = DIRECTION ( 'NONE',  ( -0.000000000000000000, 1.000000000000000000, -0.000000000000000000 ) ) ;
#218 = VECTOR ( 'NONE', #767, 1000.000000000000000 ) ;
#219 = DATE_TIME_ROLE ( 'classification_date' ) ;
#220 = ORIENTED_EDGE ( 'NONE', *, *, #909, .T. ) ;
#221 = CARTESIAN_POINT ( 'NONE',  ( -7.999999999999998224, 3.414213562373078936, 75.00000000000000000 ) ) ;
#222 = ADVANCED_FACE ( 'NONE', ( #1199 ), #1194, .F. ) ;
#223 = DIRECTION ( 'NONE',  ( -0.7071067811865482389, 0.7071067811865469066, -0.000000000000000000 ) ) ;
#224 = AXIS2_PLACEMENT_3D ( 'NONE', #865, #1304, #765 ) ;
#225 = CARTESIAN_POINT ( 'NONE',  ( -8.999999999999998224, -4.999999999999983125, 75.00000000000000000 ) ) ;
#226 = DATE_AND_TIME ( #1070, #167 ) ;
#227 = VERTEX_POINT ( 'NONE', #337 ) ;
#228 = LINE ( 'NONE', #623, #1097 ) ;
#229 = DIRECTION ( 'NONE',  ( -0.7071067811865469066, -0.7071067811865482389, 0.000000000000000000 ) ) ;
#230 = EDGE_CURVE ( 'NONE', #708, #275, #770, .T. ) ;
#231 = CIRCLE ( 'NONE', #291, 3.249999999999996003 ) ;
#232 = DIRECTION ( 'NONE',  ( -8.673617379884035472E-16, 1.000000000000000000, 0.000000000000000000 ) ) ;
#233 = ORIENTED_EDGE ( 'NONE', *, *, #808, .T. ) ;
#234 = VECTOR ( 'NONE', #723, 1000.000000000000000 ) ;
#235 = ORIENTED_EDGE ( 'NONE', *, *, #230, .F. ) ;
#236 = DIRECTION ( 'NONE',  ( -0.000000000000000000, -0.000000000000000000, 1.000000000000000000 ) ) ;
#237 = VECTOR ( 'NONE', #122, 1000.000000000000000 ) ;
#238 = PLANE ( 'NONE',  #336 ) ;
#239 = CIRCLE ( 'NONE', #702, 1.700000000000013944 ) ;
#240 = LINE ( 'NONE', #209, #237 ) ;
#241 = EDGE_LOOP ( 'NONE', ( #1133, #956 ) ) ;
#242 = DIRECTION ( 'NONE',  ( 0.7071067811865440200, -0.7071067811865511255, 0.000000000000000000 ) ) ;
#243 = ORGANIZATION ( 'UNSPECIFIED', 'UNSPECIFIED', '' ) ;
#244 = DIRECTION ( 'NONE',  ( 0.000000000000000000, 0.000000000000000000, -1.000000000000000000 ) ) ;
#245 = CARTESIAN_POINT ( 'NONE',  ( -8.707106781186542577, -2.707106781186528366, 75.00000000000000000 ) ) ;
#246 = ORIENTED_EDGE ( 'NONE', *, *, #676, .T. ) ;
#247 = CARTESIAN_POINT ( 'NONE',  ( -4.978983814655965724E-13, 1.599999999999983435, -20.45000000000003126 ) ) ;
#248 = DIRECTION ( 'NONE',  ( 1.000000000000000000, -1.734723475976807094E-15, 0.000000000000000000 ) ) ;
#249 = AXIS2_PLACEMENT_3D ( 'NONE', #619, #1381, #820 ) ;
#250 = CARTESIAN_POINT ( 'NONE',  ( -3.697370341991677785E-13, 4.999999999999984013, 18.74999999999998224 ) ) ;
#251 = CIRCLE ( 'NONE', #603, 3.249999999999996003 ) ;
#252 = AXIS2_PLACEMENT_3D ( 'NONE', #430, #14, #106 ) ;
#253 = CARTESIAN_POINT ( 'NONE',  ( 8.999999999999998224, 4.999999999999984013, 75.00000000000000000 ) ) ;
#254 = CARTESIAN_POINT ( 'NONE',  ( -7.999999999999998224, 3.414213562373078936, 75.00000000000000000 ) ) ;
#255 = LINE ( 'NONE', #577, #753 ) ;
#256 = DIRECTION ( 'NONE',  ( -1.000000000000000000, 0.000000000000000000, 0.000000000000000000 ) ) ;
#257 = LINE ( 'NONE', #372, #451 ) ;
#258 = EDGE_CURVE ( 'NONE', #41, #908, #239, .T. ) ;
#259 = DIRECTION ( 'NONE',  ( 0.000000000000000000, 0.000000000000000000, -1.000000000000000000 ) ) ;
#260 = ORIENTED_EDGE ( 'NONE', *, *, #886, .F. ) ;
#261 = AXIS2_PLACEMENT_3D ( 'NONE', #793, #1229, #259 ) ;
#262 = VECTOR ( 'NONE', #280, 1000.000000000000000 ) ;
#263 = DIRECTION ( 'NONE',  ( 0.000000000000000000, 0.000000000000000000, 1.000000000000000000 ) ) ;
#264 = VERTEX_POINT ( 'NONE', #774 ) ;
#265 = DIRECTION ( 'NONE',  ( 0.000000000000000000, 0.000000000000000000, 1.000000000000000000 ) ) ;
#266 = EDGE_CURVE ( 'NONE', #715, #275, #611, .T. ) ;
#267 = DIRECTION ( 'NONE',  ( 0.000000000000000000, -1.000000000000000000, 0.000000000000000000 ) ) ;
#268 = ORIENTED_EDGE ( 'NONE', *, *, #1294, .T. ) ;
#269 = ORIENTED_EDGE ( 'NONE', *, *, #434, .F. ) ;
#270 = VECTOR ( 'NONE', #1219, 1000.000000000000000 ) ;
#271 = CARTESIAN_POINT ( 'NONE',  ( -3.697370341991677785E-13, 4.999999999999984013, 18.74999999999998224 ) ) ;
#272 = EDGE_LOOP ( 'NONE', ( #665, #613, #729, #926 ) ) ;
#273 = CARTESIAN_POINT ( 'NONE',  ( 8.707106781186542577, -2.707106781186528366, 75.00000000000000000 ) ) ;
#274 = LINE ( 'NONE', #1138, #827 ) ;
#275 = VERTEX_POINT ( 'NONE', #1015 ) ;
#276 = CARTESIAN_POINT ( 'NONE',  ( -4.981065714214516045E-13, 1.599999999999983435, -18.75000000000001776 ) ) ;
#277 = EDGE_CURVE ( 'NONE', #824, #1147, #1213, .T. ) ;
#278 = VERTEX_POINT ( 'NONE', #245 ) ;
#279 = DIRECTION ( 'NONE',  ( -0.000000000000000000, 1.000000000000000000, -0.000000000000000000 ) ) ;
#280 = DIRECTION ( 'NONE',  ( -0.000000000000000000, 1.000000000000000000, -0.000000000000000000 ) ) ;
#281 = EDGE_LOOP ( 'NONE', ( #135, #307, #671, #447 ) ) ;
#282 = VERTEX_POINT ( 'NONE', #458 ) ;
#283 = ADVANCED_FACE ( 'NONE', ( #1026 ), #55, .T. ) ;
#284 = DIRECTION ( 'NONE',  ( 0.000000000000000000, -0.000000000000000000, -1.000000000000000000 ) ) ;
#285 = EDGE_LOOP ( 'NONE', ( #784, #343, #318, #435 ) ) ;
#286 = CARTESIAN_POINT ( 'NONE',  ( -8.999999999999996447, -7.000000000000009770, 75.00000000000000000 ) ) ;
#287 = LINE ( 'NONE', #1065, #369 ) ;
#288 = ORIENTED_EDGE ( 'NONE', *, *, #1032, .F. ) ;
#289 = CARTESIAN_POINT ( 'NONE',  ( -8.999999999999998224, 3.999999999999994671, -75.00000000000000000 ) ) ;
#290 = CARTESIAN_POINT ( 'NONE',  ( -3.693390239894449082E-13, 4.999999999999984013, 15.49999999999998579 ) ) ;
#291 = AXIS2_PLACEMENT_3D ( 'NONE', #137, #884, #467 ) ;
#292 = ORIENTED_EDGE ( 'NONE', *, *, #1002, .F. ) ;
#293 = CARTESIAN_POINT ( 'NONE',  ( 1.384504394756161982E-14, 1.599999999999983435, -57.95000000000002416 ) ) ;
#294 = DIRECTION ( 'NONE',  ( -0.7071067811865511255, 0.7071067811865440200, 0.000000000000000000 ) ) ;
#295 = ORIENTED_EDGE ( 'NONE', *, *, #1143, .T. ) ;
#296 = CARTESIAN_POINT ( 'NONE',  ( -3.697370341991677785E-13, 4.999999999999984013, 21.99999999999997868 ) ) ;
#297 = DIRECTION ( 'NONE',  ( 0.000000000000000000, 0.000000000000000000, 1.000000000000000000 ) ) ;
#298 = ORIENTED_EDGE ( 'NONE', *, *, #1315, .T. ) ;
#299 = DIRECTION ( 'NONE',  ( 0.000000000000000000, 0.000000000000000000, 1.000000000000000000 ) ) ;
#300 = DIRECTION ( 'NONE',  ( -0.000000000000000000, 0.000000000000000000, 1.000000000000000000 ) ) ;
#301 = ADVANCED_FACE ( 'NONE', ( #367 ), #893, .F. ) ;
#302 = ORIENTED_EDGE ( 'NONE', *, *, #120, .T. ) ;
#303 = DIRECTION ( 'NONE',  ( 0.000000000000000000, 0.000000000000000000, 1.000000000000000000 ) ) ;
#304 = EDGE_CURVE ( 'NONE', #622, #1365, #255, .T. ) ;
#305 = CC_DESIGN_APPROVAL ( #1151, ( #524 ) ) ;
#306 = CC_DESIGN_SECURITY_CLASSIFICATION ( #588, ( #551 ) ) ;
#307 = ORIENTED_EDGE ( 'NONE', *, *, #1368, .T. ) ;
#308 = DIRECTION ( 'NONE',  ( 1.000000000000000000, 0.000000000000000000, -0.000000000000000000 ) ) ;
#309 = AXIS2_PLACEMENT_3D ( 'NONE', #591, #300, #1036 ) ;
#310 = CARTESIAN_POINT ( 'NONE',  ( 0.000000000000000000, 0.000000000000000000, -75.00000000000000000 ) ) ;
#311 = VERTEX_POINT ( 'NONE', #1235 ) ;
#312 = ADVANCED_FACE ( 'NONE', ( #145 ), #913, .F. ) ;
#313 = DIRECTION ( 'NONE',  ( -1.000000000000000000, 0.000000000000000000, 0.000000000000000000 ) ) ;
#314 = VERTEX_POINT ( 'NONE', #1322 ) ;
#315 = FACE_OUTER_BOUND ( 'NONE', #1370, .T. ) ;
#316 = CIRCLE ( 'NONE', #810, 1.000000000000000000 ) ;
#317 = FACE_OUTER_BOUND ( 'NONE', #921, .T. ) ;
#318 = ORIENTED_EDGE ( 'NONE', *, *, #363, .T. ) ;
#319 = CARTESIAN_POINT ( 'NONE',  ( 6.500000000000059508, 6.499999999999968914, 75.00000000000000000 ) ) ;
#320 = APPLICATION_CONTEXT ( 'configuration controlled 3d designs of mechanical parts and assemblies' ) ;
#321 = CALENDAR_DATE ( 2025, 17, 12 ) ;
#322 = EDGE_CURVE ( 'NONE', #581, #501, #61, .T. ) ;
#323 = ORIENTED_EDGE ( 'NONE', *, *, #4, .F. ) ;
#324 = LINE ( 'NONE', #648, #499 ) ;
#325 = CARTESIAN_POINT ( 'NONE',  ( -8.000000000000021316, -7.999999999999983125, -75.00000000000000000 ) ) ;
#326 = LINE ( 'NONE', #758, #40 ) ;
#327 = AXIS2_PLACEMENT_3D ( 'NONE', #1150, #587, #263 ) ;
#328 = PERSON_AND_ORGANIZATION ( #857, #243 ) ;
#329 = ADVANCED_FACE ( 'NONE', ( #1316 ), #802, .F. ) ;
#330 = ORIENTED_EDGE ( 'NONE', *, *, #1069, .T. ) ;
#331 = CARTESIAN_POINT ( 'NONE',  ( 1.363685399170656723E-14, 1.599999999999983435, -56.25000000000000711 ) ) ;
#332 = CARTESIAN_POINT ( 'NONE',  ( 9.000000000000000000, 2.999999999999983125, 75.00000000000000000 ) ) ;
#333 = DIRECTION ( 'NONE',  ( -0.000000000000000000, 1.000000000000000000, -0.000000000000000000 ) ) ;
#334 = ORIENTED_EDGE ( 'NONE', *, *, #406, .T. ) ;
#335 = CARTESIAN_POINT ( 'NONE',  ( -3.697370341991677785E-13, 4.999999999999984013, 18.74999999999998224 ) ) ;
#336 = AXIS2_PLACEMENT_3D ( 'NONE', #310, #1205, #529 ) ;
#337 = CARTESIAN_POINT ( 'NONE',  ( 1.384504394756161982E-14, 1.599999999999983435, 54.54999999999996874 ) ) ;
#338 = ORIENTED_EDGE ( 'NONE', *, *, #705, .T. ) ;
#339 = DIRECTION ( 'NONE',  ( 1.000000000000000000, -1.734723475976808672E-15, 0.000000000000000000 ) ) ;
#340 = LINE ( 'NONE', #1211, #270 ) ;
#341 = ADVANCED_FACE ( 'NONE', ( #583, #1115 ), #780, .F. ) ;
#342 = DIRECTION ( 'NONE',  ( -0.000000000000000000, -0.000000000000000000, 1.000000000000000000 ) ) ;
#343 = ORIENTED_EDGE ( 'NONE', *, *, #1348, .T. ) ;
#344 = CIRCLE ( 'NONE', #463, 1.700000000000013944 ) ;
#345 = AXIS2_PLACEMENT_3D ( 'NONE', #713, #171, #284 ) ;
#346 = VERTEX_POINT ( 'NONE', #1009 ) ;
#347 = CARTESIAN_POINT ( 'NONE',  ( 9.000000000000000000, -3.414213562373079824, -75.00000000000000000 ) ) ;
#348 = CYLINDRICAL_SURFACE ( 'NONE', #543, 1.700000000000007061 ) ;
#349 = DIRECTION ( 'NONE',  ( -8.673617379884035472E-16, -1.000000000000000000, 0.000000000000000000 ) ) ;
#350 = EDGE_CURVE ( 'NONE', #1354, #278, #1220, .T. ) ;
#351 = VECTOR ( 'NONE', #985, 1000.000000000000000 ) ;
#352 = ORIENTED_EDGE ( 'NONE', *, *, #4, .T. ) ;
#353 = CARTESIAN_POINT ( 'NONE',  ( 1.403486420142945804E-14, 4.999999999999984013, 52.99999999999998579 ) ) ;
#354 = DIRECTION ( 'NONE',  ( -1.000000000000000000, -0.000000000000000000, -0.000000000000000000 ) ) ;
#355 = CARTESIAN_POINT ( 'NONE',  ( 1.363685399170656723E-14, 1.599999999999983435, -56.25000000000000711 ) ) ;
#356 = AXIS2_PLACEMENT_3D ( 'NONE', #566, #43, #450 ) ;
#357 = EDGE_CURVE ( 'NONE', #1267, #264, #46, .T. ) ;
#358 = DIRECTION ( 'NONE',  ( -0.000000000000000000, 1.000000000000000000, -0.000000000000000000 ) ) ;
#359 = DIRECTION ( 'NONE',  ( 0.7071067811865511255, -0.7071067811865440200, 0.000000000000000000 ) ) ;
#360 = PLANE ( 'NONE',  #261 ) ;
#361 = ORIENTED_EDGE ( 'NONE', *, *, #24, .F. ) ;
#362 = DIRECTION ( 'NONE',  ( 1.000000000000000000, 4.818676322157798854E-17, 0.000000000000000000 ) ) ;
#363 = EDGE_CURVE ( 'NONE', #908, #41, #684, .T. ) ;
#364 = ORIENTED_EDGE ( 'NONE', *, *, #939, .F. ) ;
#365 = FACE_OUTER_BOUND ( 'NONE', #988, .T. ) ;
#366 = CIRCLE ( 'NONE', #845, 3.249999999999996003 ) ;
#367 = FACE_OUTER_BOUND ( 'NONE', #1063, .T. ) ;
#368 = ORIENTED_EDGE ( 'NONE', *, *, #939, .T. ) ;
#369 = VECTOR ( 'NONE', #1372, 1000.000000000000000 ) ;
#370 = PLANE ( 'NONE',  #615 ) ;
#371 = VERTEX_POINT ( 'NONE', #907 ) ;
#372 = CARTESIAN_POINT ( 'NONE',  ( 8.000000000000021316, -7.999999999999983125, -75.00000000000000000 ) ) ;
#373 = CC_DESIGN_PERSON_AND_ORGANIZATION_ASSIGNMENT ( #1382, #752, ( #551 ) ) ;
#374 = CYLINDRICAL_SURFACE ( 'NONE', #993, 3.249999999999996003 ) ;
#375 = ADVANCED_FACE ( 'NONE', ( #1336 ), #360, .F. ) ;
#376 = ORIENTED_EDGE ( 'NONE', *, *, #322, .T. ) ;
#377 = VERTEX_POINT ( 'NONE', #607 ) ;
#378 = DIRECTION ( 'NONE',  ( -0.7071067811865441310, 0.7071067811865510144, 0.000000000000000000 ) ) ;
#379 = ORIENTED_EDGE ( 'NONE', *, *, #172, .T. ) ;
#380 = CARTESIAN_POINT ( 'NONE',  ( 1.363685399170656723E-14, 1.599999999999983435, 56.24999999999997868 ) ) ;
#381 = LINE ( 'NONE', #1357, #620 ) ;
#382 = ORIENTED_EDGE ( 'NONE', *, *, #1069, .F. ) ;
#383 = EDGE_CURVE ( 'NONE', #264, #601, #899, .T. ) ;
#384 = DIRECTION ( 'NONE',  ( 0.000000000000000000, 0.000000000000000000, -1.000000000000000000 ) ) ;
#385 = AXIS2_PLACEMENT_3D ( 'NONE', #250, #50, #902 ) ;
#386 =( LENGTH_UNIT ( ) NAMED_UNIT ( * ) SI_UNIT ( .MILLI., .METRE. ) );
#387 = ORIENTED_EDGE ( 'NONE', *, *, #1172, .F. ) ;
#388 = DIRECTION ( 'NONE',  ( 0.000000000000000000, 0.000000000000000000, 1.000000000000000000 ) ) ;
#389 = CIRCLE ( 'NONE', #1166, 1.700000000000000178 ) ;
#390 = DIRECTION ( 'NONE',  ( -0.000000000000000000, 1.000000000000000000, -0.000000000000000000 ) ) ;
#391 = ORIENTED_EDGE ( 'NONE', *, *, #277, .F. ) ;
#392 = DIRECTION ( 'NONE',  ( 0.000000000000000000, 0.000000000000000000, 1.000000000000000000 ) ) ;
#393 = CIRCLE ( 'NONE', #958, 3.249999999999996003 ) ;
#394 = CARTESIAN_POINT ( 'NONE',  ( -3.697370341991677785E-13, -7.999999999999983125, 18.74999999999998224 ) ) ;
#395 = AXIS2_PLACEMENT_3D ( 'NONE', #431, #873, #313 ) ;
#396 = ORIENTED_EDGE ( 'NONE', *, *, #1215, .F. ) ;
#397 = AXIS2_PLACEMENT_3D ( 'NONE', #1378, #1256, #691 ) ;
#398 = CARTESIAN_POINT ( 'NONE',  ( 1.363685399170656723E-14, 4.999999999999984013, -56.25000000000000711 ) ) ;
#399 = CARTESIAN_POINT ( 'NONE',  ( -8.999999999999996447, -7.000000000000009770, 75.00000000000000000 ) ) ;
#400 = ORIENTED_EDGE ( 'NONE', *, *, #724, .T. ) ;
#401 = VERTEX_POINT ( 'NONE', #183 ) ;
#402 = DIRECTION ( 'NONE',  ( 1.000000000000000000, 0.000000000000000000, 0.000000000000000000 ) ) ;
#403 = EDGE_CURVE ( 'NONE', #185, #278, #381, .T. ) ;
#404 = VERTEX_POINT ( 'NONE', #834 ) ;
#405 = LINE ( 'NONE', #166, #951 ) ;
#406 = EDGE_CURVE ( 'NONE', #282, #371, #1043, .T. ) ;
#407 = LINE ( 'NONE', #816, #262 ) ;
#408 = ORIENTED_EDGE ( 'NONE', *, *, #1192, .T. ) ;
#409 = CARTESIAN_POINT ( 'NONE',  ( -3.697370341991677785E-13, 1.599999999999983435, 18.74999999999998224 ) ) ;
#410 = CALENDAR_DATE ( 2025, 17, 12 ) ;
#411 = ORIENTED_EDGE ( 'NONE', *, *, #571, .T. ) ;
#412 = DIRECTION ( 'NONE',  ( -0.000000000000000000, 1.000000000000000000, -0.000000000000000000 ) ) ;
#413 = ADVANCED_FACE ( 'NONE', ( #175 ), #374, .F. ) ;
#414 = DIRECTION ( 'NONE',  ( 8.673617379884035472E-16, -1.000000000000000000, -0.000000000000000000 ) ) ;
#415 = EDGE_LOOP ( 'NONE', ( #1173, #509 ) ) ;
#416 = CC_DESIGN_APPROVAL ( #629, ( #551 ) ) ;
#417 = ORIENTED_EDGE ( 'NONE', *, *, #631, .F. ) ;
#418 = VECTOR ( 'NONE', #1039, 1000.000000000000000 ) ;
#419 = APPROVAL_ROLE ( '' ) ;
#420 = VERTEX_POINT ( 'NONE', #839 ) ;
#421 = PLANE ( 'NONE',  #1268 ) ;
#422 = AXIS2_PLACEMENT_3D ( 'NONE', #1098, #1103, #1283 ) ;
#423 = CARTESIAN_POINT ( 'NONE',  ( -4.981065714214516045E-13, 4.999999999999984013, -18.75000000000001776 ) ) ;
#424 = ORIENTED_EDGE ( 'NONE', *, *, #1308, .F. ) ;
#425 = EDGE_CURVE ( 'NONE', #975, #264, #274, .T. ) ;
#426 = CARTESIAN_POINT ( 'NONE',  ( -4.981065714214516045E-13, 4.999999999999984013, -17.05000000000001137 ) ) ;
#427 = PERSON_AND_ORGANIZATION ( #857, #243 ) ;
#428 = VERTEX_POINT ( 'NONE', #809 ) ;
#429 = CYLINDRICAL_SURFACE ( 'NONE', #493, 3.249999999999996003 ) ;
#430 = CARTESIAN_POINT ( 'NONE',  ( 1.363685399170656723E-14, 4.999999999999984013, 56.24999999999997868 ) ) ;
#431 = CARTESIAN_POINT ( 'NONE',  ( 7.999999999999998224, -3.414213562373078936, 75.00000000000000000 ) ) ;
#432 = EDGE_CURVE ( 'NONE', #1027, #1354, #1011, .T. ) ;
#433 = COORDINATED_UNIVERSAL_TIME_OFFSET ( 0, 0, .AHEAD. ) ;
#434 = EDGE_CURVE ( 'NONE', #428, #404, #407, .T. ) ;
#435 = ORIENTED_EDGE ( 'NONE', *, *, #694, .F. ) ;
#436 = CARTESIAN_POINT ( 'NONE',  ( 1.363685399170656723E-14, 4.999999999999984013, -56.25000000000000711 ) ) ;
#437 = LINE ( 'NONE', #536, #74 ) ;
#438 = CARTESIAN_POINT ( 'NONE',  ( 9.000000000000000000, -2.999999999999982681, 75.00000000000000000 ) ) ;
#439 = ORIENTED_EDGE ( 'NONE', *, *, #657, .F. ) ;
#440 = LOCAL_TIME ( 10, 19, 44.00000000000000000, #116 ) ;
#441 = ORIENTED_EDGE ( 'NONE', *, *, #457, .T. ) ;
#442 = DIRECTION ( 'NONE',  ( 0.7071067811865425767, -0.7071067811865524577, 0.000000000000000000 ) ) ;
#443 = VECTOR ( 'NONE', #936, 1000.000000000000000 ) ;
#444 = CARTESIAN_POINT ( 'NONE',  ( -8.000000000000021316, -7.999999999999983125, 75.00000000000000000 ) ) ;
#445 = CARTESIAN_POINT ( 'NONE',  ( 1.363685399170656723E-14, 4.999999999999984013, 57.94999999999998863 ) ) ;
#446 = ORIENTED_EDGE ( 'NONE', *, *, #480, .F. ) ;
#447 = ORIENTED_EDGE ( 'NONE', *, *, #304, .F. ) ;
#448 = CARTESIAN_POINT ( 'NONE',  ( -7.999999999999994671, -8.000000000000008882, 75.00000000000000000 ) ) ;
#449 = EDGE_CURVE ( 'NONE', #311, #71, #1083, .T. ) ;
#450 = DIRECTION ( 'NONE',  ( 0.000000000000000000, -0.000000000000000000, -1.000000000000000000 ) ) ;
#451 = VECTOR ( 'NONE', #91, 999.9999999999998863 ) ;
#452 = DIRECTION ( 'NONE',  ( -0.000000000000000000, -0.000000000000000000, -1.000000000000000000 ) ) ;
#453 = EDGE_LOOP ( 'NONE', ( #268, #220 ) ) ;
#454 = VERTEX_POINT ( 'NONE', #77 ) ;
#455 = DIRECTION ( 'NONE',  ( 0.000000000000000000, 0.000000000000000000, 1.000000000000000000 ) ) ;
#456 = DIRECTION ( 'NONE',  ( 0.000000000000000000, -1.000000000000000000, 0.000000000000000000 ) ) ;
#457 = EDGE_CURVE ( 'NONE', #154, #428, #500, .T. ) ;
#458 = CARTESIAN_POINT ( 'NONE',  ( -8.707106781186542577, 2.707106781186528366, 75.00000000000000000 ) ) ;
#459 = AXIS2_PLACEMENT_3D ( 'NONE', #1113, #1210, #1203 ) ;
#460 = VERTEX_POINT ( 'NONE', #1155 ) ;
#461 = DIRECTION ( 'NONE',  ( 0.000000000000000000, 0.000000000000000000, 1.000000000000000000 ) ) ;
#462 = LINE ( 'NONE', #1329, #906 ) ;
#463 = AXIS2_PLACEMENT_3D ( 'NONE', #13, #761, #730 ) ;
#464 = CARTESIAN_POINT ( 'NONE',  ( 9.000000000000000000, -3.414213562373079824, 75.00000000000000000 ) ) ;
#465 = VECTOR ( 'NONE', #1072, 999.9999999999998863 ) ;
#466 = CARTESIAN_POINT ( 'NONE',  ( 1.363685399170656723E-14, -7.999999999999983125, 56.24999999999997868 ) ) ;
#467 = DIRECTION ( 'NONE',  ( 0.000000000000000000, 0.000000000000000000, 1.000000000000000000 ) ) ;
#468 = AXIS2_PLACEMENT_3D ( 'NONE', #380, #1129, #489 ) ;
#469 = CARTESIAN_POINT ( 'NONE',  ( 1.700000000000025935, 1.599999999999983435, -56.25000000000000711 ) ) ;
#470 = ORIENTED_EDGE ( 'NONE', *, *, #182, .F. ) ;
#471 = AXIS2_PLACEMENT_3D ( 'NONE', #1335, #1223, #359 ) ;
#472 = ADVANCED_FACE ( 'NONE', ( #1273 ), #710, .T. ) ;
#473 = CARTESIAN_POINT ( 'NONE',  ( -9.000000000000000000, 3.414213562373079824, 75.00000000000000000 ) ) ;
#474 = EDGE_LOOP ( 'NONE', ( #726, #828, #889, #1132, #1238, #746, #1139, #330, #1021, #573, #1178, #411, #376, #647, #334, #111, #1037, #1346, #79, #522 ) ) ;
#475 = FACE_OUTER_BOUND ( 'NONE', #967, .T. ) ;
#476 = DIRECTION ( 'NONE',  ( -0.000000000000000000, 1.000000000000000000, -0.000000000000000000 ) ) ;
#477 = ORIENTED_EDGE ( 'NONE', *, *, #1045, .F. ) ;
#478 = CC_DESIGN_PERSON_AND_ORGANIZATION_ASSIGNMENT ( #540, #95, ( #524 ) ) ;
#479 = LINE ( 'NONE', #916, #680 ) ;
#480 = EDGE_CURVE ( 'NONE', #564, #1071, #717, .T. ) ;
#481 = ORIENTED_EDGE ( 'NONE', *, *, #1188, .T. ) ;
#482 = DIRECTION ( 'NONE',  ( -0.000000000000000000, -0.000000000000000000, 1.000000000000000000 ) ) ;
#483 = CIRCLE ( 'NONE', #327, 3.249999999999996003 ) ;
#484 = LINE ( 'NONE', #512, #1201 ) ;
#485 = VERTEX_POINT ( 'NONE', #937 ) ;
#486 = VERTEX_POINT ( 'NONE', #1349 ) ;
#487 = LINE ( 'NONE', #924, #991 ) ;
#488 = ORIENTED_EDGE ( 'NONE', *, *, #457, .F. ) ;
#489 = DIRECTION ( 'NONE',  ( 0.000000000000000000, 0.000000000000000000, 1.000000000000000000 ) ) ;
#490 = EDGE_CURVE ( 'NONE', #51, #346, #920, .T. ) ;
#491 = DIRECTION ( 'NONE',  ( 0.000000000000000000, 0.000000000000000000, -1.000000000000000000 ) ) ;
#492 = EDGE_LOOP ( 'NONE', ( #1086, #547, #1209, #530 ) ) ;
#493 = AXIS2_PLACEMENT_3D ( 'NONE', #1286, #1184, #299 ) ;
#494 = DIRECTION ( 'NONE',  ( 0.000000000000000000, 0.000000000000000000, 1.000000000000000000 ) ) ;
#495 = VECTOR ( 'NONE', #855, 1000.000000000000000 ) ;
#496 = PLANE ( 'NONE',  #872 ) ;
#497 = ORIENTED_EDGE ( 'NONE', *, *, #929, .T. ) ;
#498 = CARTESIAN_POINT ( 'NONE',  ( -8.999999999999998224, 4.999999999999983125, -75.00000000000000000 ) ) ;
#499 = VECTOR ( 'NONE', #412, 1000.000000000000000 ) ;
#500 = LINE ( 'NONE', #1244, #1059 ) ;
#501 = VERTEX_POINT ( 'NONE', #732 ) ;
#502 = FACE_OUTER_BOUND ( 'NONE', #948, .T. ) ;
#503 = LINE ( 'NONE', #1054, #418 ) ;
#504 = ORIENTED_EDGE ( 'NONE', *, *, #449, .T. ) ;
#505 = FACE_OUTER_BOUND ( 'NONE', #173, .T. ) ;
#506 = DIRECTION ( 'NONE',  ( 0.000000000000000000, 0.000000000000000000, 1.000000000000000000 ) ) ;
#507 = ORIENTED_EDGE ( 'NONE', *, *, #230, .T. ) ;
#508 = CARTESIAN_POINT ( 'NONE',  ( -4.977085612117286837E-13, 4.999999999999984013, -22.00000000000001421 ) ) ;
#509 = ORIENTED_EDGE ( 'NONE', *, *, #1292, .F. ) ;
#510 = VECTOR ( 'NONE', #716, 1000.000000000000000 ) ;
#511 = DIRECTION ( 'NONE',  ( 0.000000000000000000, 0.000000000000000000, 1.000000000000000000 ) ) ;
#512 = CARTESIAN_POINT ( 'NONE',  ( 8.000000000000024869, 4.999999999999984013, 75.00000000000000000 ) ) ;
#513 = EDGE_LOOP ( 'NONE', ( #972, #999, #1094, #1258 ) ) ;
#514 = LINE ( 'NONE', #101, #575 ) ;
#515 = EDGE_CURVE ( 'NONE', #699, #31, #826, .T. ) ;
#516 = PERSON_AND_ORGANIZATION ( #857, #243 ) ;
#517 = AXIS2_PLACEMENT_3D ( 'NONE', #773, #456, #891 ) ;
#518 = ORIENTED_EDGE ( 'NONE', *, *, #210, .T. ) ;
#519 = DIRECTION ( 'NONE',  ( -0.000000000000000000, 0.000000000000000000, -1.000000000000000000 ) ) ;
#520 = CIRCLE ( 'NONE', #1204, 0.9999999999999991118 ) ;
#521 = CARTESIAN_POINT ( 'NONE',  ( 8.999999999999998224, 4.999999999999984013, -75.00000000000000000 ) ) ;
#522 = ORIENTED_EDGE ( 'NONE', *, *, #1221, .T. ) ;
#523 = ORIENTED_EDGE ( 'NONE', *, *, #1192, .F. ) ;
#524 = PRODUCT_DEFINITION ( 'UNKNOWN', '', #551, #1154 ) ;
#525 = ORIENTED_EDGE ( 'NONE', *, *, #1221, .F. ) ;
#526 = PLANE ( 'NONE',  #593 ) ;
#527 = EDGE_CURVE ( 'NONE', #832, #227, #287, .T. ) ;
#528 = MANIFOLD_SOLID_BREP ( 'CBORE for M3 Hex Socket Head Cap Screw1', #688 ) ;
#529 = DIRECTION ( 'NONE',  ( 1.000000000000000000, 0.000000000000000000, 0.000000000000000000 ) ) ;
#530 = ORIENTED_EDGE ( 'NONE', *, *, #969, .F. ) ;
#531 = AXIS2_PLACEMENT_3D ( 'NONE', #164, #910, #1248 ) ;
#532 = LINE ( 'NONE', #319, #1305 ) ;
#533 = CALENDAR_DATE ( 2025, 17, 12 ) ;
#534 = EDGE_LOOP ( 'NONE', ( #33, #1047 ) ) ;
#535 = DIRECTION ( 'NONE',  ( 0.000000000000000000, 0.000000000000000000, -1.000000000000000000 ) ) ;
#536 = CARTESIAN_POINT ( 'NONE',  ( 8.999999999999998224, -4.999999999999983125, -75.00000000000000000 ) ) ;
#537 = EDGE_CURVE ( 'NONE', #617, #961, #946, .T. ) ;
#538 = DIRECTION ( 'NONE',  ( 0.000000000000000000, 0.000000000000000000, 1.000000000000000000 ) ) ;
#539 = EDGE_CURVE ( 'NONE', #71, #311, #393, .T. ) ;
#540 = PERSON_AND_ORGANIZATION ( #857, #243 ) ;
#541 = ORIENTED_EDGE ( 'NONE', *, *, #1080, .T. ) ;
#542 = CARTESIAN_POINT ( 'NONE',  ( 7.999999999999998224, 3.414213562373079824, 75.00000000000000000 ) ) ;
#543 = AXIS2_PLACEMENT_3D ( 'NONE', #779, #143, #1007 ) ;
#544 = LINE ( 'NONE', #521, #1290 ) ;
#545 = DIRECTION ( 'NONE',  ( 0.000000000000000000, 0.000000000000000000, -1.000000000000000000 ) ) ;
#546 = VECTOR ( 'NONE', #2, 1000.000000000000000 ) ;
#547 = ORIENTED_EDGE ( 'NONE', *, *, #357, .F. ) ;
#548 = CARTESIAN_POINT ( 'NONE',  ( -8.999999999999998224, 3.999999999999995559, 75.00000000000000000 ) ) ;
#549 = CARTESIAN_POINT ( 'NONE',  ( -8.999999999999998224, 4.999999999999983125, 75.00000000000000000 ) ) ;
#550 = LINE ( 'NONE', #992, #1344 ) ;
#551 = PRODUCT_DEFINITION_FORMATION_WITH_SPECIFIED_SOURCE ( 'ANY', '', #579, .NOT_KNOWN. ) ;
#552 = EDGE_CURVE ( 'NONE', #460, #1217, #484, .T. ) ;
#553 = EDGE_LOOP ( 'NONE', ( #104, #338, #897, #686 ) ) ;
#554 = CARTESIAN_POINT ( 'NONE',  ( 1.363685399170656723E-14, -7.999999999999983125, -56.25000000000000711 ) ) ;
#555 = CARTESIAN_POINT ( 'NONE',  ( 7.500000000000001776, -1.500000000000000000, 75.00000000000000000 ) ) ;
#556 = CIRCLE ( 'NONE', #422, 1.700000000000000178 ) ;
#557 = LINE ( 'NONE', #637, #974 ) ;
#558 = EDGE_CURVE ( 'NONE', #314, #420, #544, .T. ) ;
#559 = ORIENTED_EDGE ( 'NONE', *, *, #134, .F. ) ;
#560 = DIRECTION ( 'NONE',  ( -0.000000000000000000, 1.000000000000000000, -0.000000000000000000 ) ) ;
#561 = LINE ( 'NONE', #798, #632 ) ;
#562 = AXIS2_PLACEMENT_3D ( 'NONE', #423, #1185, #864 ) ;
#563 = CARTESIAN_POINT ( 'NONE',  ( 1.363685399170656723E-14, 1.599999999999983435, -56.25000000000000711 ) ) ;
#564 = VERTEX_POINT ( 'NONE', #444 ) ;
#565 = CARTESIAN_POINT ( 'NONE',  ( 7.999999999999998224, 3.414213562373079824, 75.00000000000000000 ) ) ;
#566 = CARTESIAN_POINT ( 'NONE',  ( 0.000000000000000000, -7.999999999999983125, 0.000000000000000000 ) ) ;
#567 = ADVANCED_FACE ( 'NONE', ( #1297 ), #871, .F. ) ;
#568 = CARTESIAN_POINT ( 'NONE',  ( -8.999999999999998224, 4.999999999999983125, 75.00000000000000000 ) ) ;
#569 = CYLINDRICAL_SURFACE ( 'NONE', #44, 1.000000000000000000 ) ;
#570 = DIRECTION ( 'NONE',  ( 1.000000000000000000, 0.000000000000000000, 0.000000000000000000 ) ) ;
#571 = EDGE_CURVE ( 'NONE', #690, #581, #984, .T. ) ;
#572 = DIRECTION ( 'NONE',  ( 0.000000000000000000, 0.000000000000000000, 1.000000000000000000 ) ) ;
#573 = ORIENTED_EDGE ( 'NONE', *, *, #156, .T. ) ;
#574 = CARTESIAN_POINT ( 'NONE',  ( 1.363685399170656723E-14, 1.599999999999983435, 56.24999999999997868 ) ) ;
#575 = VECTOR ( 'NONE', #170, 999.9999999999998863 ) ;
#576 = DIRECTION ( 'NONE',  ( -0.000000000000000000, 0.000000000000000000, 1.000000000000000000 ) ) ;
#577 = CARTESIAN_POINT ( 'NONE',  ( -4.981065714214516045E-13, 4.999999999999984013, -15.50000000000002132 ) ) ;
#578 = ORIENTED_EDGE ( 'NONE', *, *, #618, .T. ) ;
#579 = PRODUCT ( 'rail', 'rail', '', ( #1284 ) ) ;
#580 = FACE_OUTER_BOUND ( 'NONE', #1066, .T. ) ;
#581 = VERTEX_POINT ( 'NONE', #748 ) ;
#582 = CARTESIAN_POINT ( 'NONE',  ( -4.981065714214516045E-13, 4.999999999999984013, -18.75000000000001776 ) ) ;
#583 = FACE_BOUND ( 'NONE', #848, .T. ) ;
#584 = ORIENTED_EDGE ( 'NONE', *, *, #258, .T. ) ;
#585 = EDGE_LOOP ( 'NONE', ( #368, #1262, #597, #1350 ) ) ;
#586 = ADVANCED_FACE ( 'NONE', ( #635 ), #238, .F. ) ;
#587 = DIRECTION ( 'NONE',  ( -0.000000000000000000, 1.000000000000000000, -0.000000000000000000 ) ) ;
#588 = SECURITY_CLASSIFICATION ( '', '', #1174 ) ;
#589 = ORIENTED_EDGE ( 'NONE', *, *, #830, .T. ) ;
#590 = FACE_OUTER_BOUND ( 'NONE', #7, .T. ) ;
#591 = CARTESIAN_POINT ( 'NONE',  ( 0.000000000000000000, 0.000000000000000000, 75.00000000000000000 ) ) ;
#592 = ORIENTED_EDGE ( 'NONE', *, *, #697, .T. ) ;
#593 = AXIS2_PLACEMENT_3D ( 'NONE', #548, #442, #1087 ) ;
#594 = DIRECTION ( 'NONE',  ( -0.000000000000000000, 1.000000000000000000, -0.000000000000000000 ) ) ;
#595 = CYLINDRICAL_SURFACE ( 'NONE', #88, 1.700000000000007061 ) ;
#596 = EDGE_CURVE ( 'NONE', #31, #1167, #650, .T. ) ;
#597 = ORIENTED_EDGE ( 'NONE', *, *, #403, .F. ) ;
#598 = DIRECTION ( 'NONE',  ( 0.000000000000000000, 0.000000000000000000, 1.000000000000000000 ) ) ;
#599 = CIRCLE ( 'NONE', #468, 1.700000000000013944 ) ;
#600 = DIRECTION ( 'NONE',  ( 8.673617379884035472E-16, 1.000000000000000000, 0.000000000000000000 ) ) ;
#601 = VERTEX_POINT ( 'NONE', #98 ) ;
#602 = EDGE_LOOP ( 'NONE', ( #876, #507, #162, #477 ) ) ;
#603 = AXIS2_PLACEMENT_3D ( 'NONE', #734, #1140, #108 ) ;
#604 = FACE_BOUND ( 'NONE', #1266, .T. ) ;
#605 = ORIENTED_EDGE ( 'NONE', *, *, #1104, .T. ) ;
#606 = CYLINDRICAL_SURFACE ( 'NONE', #922, 3.249999999999996003 ) ;
#607 = CARTESIAN_POINT ( 'NONE',  ( 8.000000000000021316, -7.999999999999983125, -75.00000000000000000 ) ) ;
#608 = EDGE_CURVE ( 'NONE', #117, #961, #739, .T. ) ;
#609 = ORIENTED_EDGE ( 'NONE', *, *, #277, .T. ) ;
#610 = EDGE_LOOP ( 'NONE', ( #818, #198 ) ) ;
#611 = CIRCLE ( 'NONE', #817, 1.700000000000013944 ) ;
#612 = CARTESIAN_POINT ( 'NONE',  ( 8.000000000000021316, -7.999999999999983125, 75.00000000000000000 ) ) ;
#613 = ORIENTED_EDGE ( 'NONE', *, *, #1294, .F. ) ;
#614 = LINE ( 'NONE', #60, #133 ) ;
#615 = AXIS2_PLACEMENT_3D ( 'NONE', #933, #178, #362 ) ;
#616 = CARTESIAN_POINT ( 'NONE',  ( 7.999999999999998224, -3.414213562373078936, 75.00000000000000000 ) ) ;
#617 = VERTEX_POINT ( 'NONE', #1385 ) ;
#618 = EDGE_CURVE ( 'NONE', #1071, #617, #1088, .T. ) ;
#619 = CARTESIAN_POINT ( 'NONE',  ( -4.981065714214516045E-13, 4.999999999999984013, -18.75000000000001776 ) ) ;
#620 = VECTOR ( 'NONE', #955, 1000.000000000000000 ) ;
#621 = APPROVAL_STATUS ( 'not_yet_approved' ) ;
#622 = VERTEX_POINT ( 'NONE', #642 ) ;
#623 = CARTESIAN_POINT ( 'NONE',  ( -3.697370341991677785E-13, 4.999999999999984013, 20.44999999999998863 ) ) ;
#624 = DIRECTION ( 'NONE',  ( -0.000000000000000000, 1.000000000000000000, -0.000000000000000000 ) ) ;
#625 = AXIS2_PLACEMENT_3D ( 'NONE', #72, #957, #494 ) ;
#626 = EDGE_LOOP ( 'NONE', ( #869, #1005, #292, #1099 ) ) ;
#627 = VECTOR ( 'NONE', #384, 1000.000000000000000 ) ;
#628 = CARTESIAN_POINT ( 'NONE',  ( 7.500000000000001776, 1.500000000000000000, 75.00000000000000000 ) ) ;
#629 = APPROVAL ( #110, 'UNSPECIFIED' ) ;
#630 = DATE_AND_TIME ( #533, #1388 ) ;
#631 = EDGE_CURVE ( 'NONE', #460, #690, #1081, .T. ) ;
#632 = VECTOR ( 'NONE', #265, 1000.000000000000000 ) ;
#633 = ORIENTED_EDGE ( 'NONE', *, *, #1111, .T. ) ;
#634 = DIRECTION ( 'NONE',  ( 0.7071067811865426878, -0.7071067811865524577, -0.000000000000000000 ) ) ;
#635 = FACE_OUTER_BOUND ( 'NONE', #1058, .T. ) ;
#636 = EDGE_LOOP ( 'NONE', ( #295, #605 ) ) ;
#637 = CARTESIAN_POINT ( 'NONE',  ( -9.000000000000000000, -3.414213562373079824, 75.00000000000000000 ) ) ;
#638 = ADVANCED_FACE ( 'NONE', ( #1280 ), #990, .T. ) ;
#639 = ORIENTED_EDGE ( 'NONE', *, *, #1308, .T. ) ;
#640 = FACE_OUTER_BOUND ( 'NONE', #39, .T. ) ;
#641 = ADVANCED_FACE ( 'NONE', ( #656 ), #846, .F. ) ;
#642 = CARTESIAN_POINT ( 'NONE',  ( -4.981065714214516045E-13, 1.599999999999983435, -15.50000000000002132 ) ) ;
#643 = ORIENTED_EDGE ( 'NONE', *, *, #66, .T. ) ;
#644 = CIRCLE ( 'NONE', #1141, 1.700000000000013944 ) ;
#645 = LINE ( 'NONE', #445, #901 ) ;
#646 = AXIS2_PLACEMENT_3D ( 'NONE', #190, #624, #1057 ) ;
#647 = ORIENTED_EDGE ( 'NONE', *, *, #714, .T. ) ;
#648 = CARTESIAN_POINT ( 'NONE',  ( 1.363685399170656723E-14, 4.999999999999984013, 59.49999999999997868 ) ) ;
#649 = CC_DESIGN_DATE_AND_TIME_ASSIGNMENT ( #630, #219, ( #588 ) ) ;
#650 = LINE ( 'NONE', #332, #655 ) ;
#651 = DIRECTION ( 'NONE',  ( 1.000000000000000000, 8.673617379884035472E-16, -0.000000000000000000 ) ) ;
#652 = SHAPE_DEFINITION_REPRESENTATION ( #851, #783 ) ;
#653 = EDGE_LOOP ( 'NONE', ( #1214, #1016, #911, #1270 ) ) ;
#654 = CYLINDRICAL_SURFACE ( 'NONE', #763, 0.9999999999999991118 ) ;
#655 = VECTOR ( 'NONE', #977, 999.9999999999998863 ) ;
#656 = FACE_OUTER_BOUND ( 'NONE', #1245, .T. ) ;
#657 = EDGE_CURVE ( 'NONE', #371, #185, #114, .T. ) ;
#658 = DIRECTION ( 'NONE',  ( -1.000000000000000000, 0.000000000000000000, 0.000000000000000000 ) ) ;
#659 = EDGE_LOOP ( 'NONE', ( #722, #849, #931, #107 ) ) ;
#660 = CARTESIAN_POINT ( 'NONE',  ( 8.707106781186542577, 2.707106781186528366, 75.00000000000000000 ) ) ;
#661 = AXIS2_PLACEMENT_3D ( 'NONE', #225, #651, #232 ) ;
#662 = DIRECTION ( 'NONE',  ( 0.000000000000000000, 0.000000000000000000, 1.000000000000000000 ) ) ;
#663 = EDGE_CURVE ( 'NONE', #454, #1267, #437, .T. ) ;
#664 = VECTOR ( 'NONE', #898, 999.9999999999998863 ) ;
#665 = ORIENTED_EDGE ( 'NONE', *, *, #1368, .F. ) ;
#666 = DIRECTION ( 'NONE',  ( -0.000000000000000000, 1.000000000000000000, -0.000000000000000000 ) ) ;
#667 = CARTESIAN_POINT ( 'NONE',  ( 1.363685399170656723E-14, 4.999999999999984013, -54.55000000000000426 ) ) ;
#668 = VECTOR ( 'NONE', #217, 1000.000000000000000 ) ;
#669 = DIRECTION ( 'NONE',  ( 0.7071067811865469066, -0.7071067811865482389, 0.000000000000000000 ) ) ;
#670 = EDGE_CURVE ( 'NONE', #1365, #1, #139, .T. ) ;
#671 = ORIENTED_EDGE ( 'NONE', *, *, #1261, .T. ) ;
#672 = PLANE ( 'NONE',  #1079 ) ;
#673 = PLANE ( 'NONE',  #517 ) ;
#674 = CARTESIAN_POINT ( 'NONE',  ( -8.707106781186542577, -2.707106781186528366, 75.00000000000000000 ) ) ;
#675 = CARTESIAN_POINT ( 'NONE',  ( 1.363685399170656723E-14, 4.999999999999984013, -56.25000000000000711 ) ) ;
#676 = EDGE_CURVE ( 'NONE', #346, #690, #22, .T. ) ;
#677 = FACE_OUTER_BOUND ( 'NONE', #1033, .T. ) ;
#678 = ADVANCED_FACE ( 'NONE', ( #317 ), #1303, .T. ) ;
#679 = DIRECTION ( 'NONE',  ( -0.000000000000000000, 1.000000000000000000, -0.000000000000000000 ) ) ;
#680 = VECTOR ( 'NONE', #1031, 1000.000000000000000 ) ;
#681 = FACE_OUTER_BOUND ( 'NONE', #285, .T. ) ;
#682 = LINE ( 'NONE', #1314, #1068 ) ;
#683 = CC_DESIGN_DATE_AND_TIME_ASSIGNMENT ( #852, #959, ( #524 ) ) ;
#684 = CIRCLE ( 'NONE', #1105, 1.700000000000013944 ) ;
#685 = CARTESIAN_POINT ( 'NONE',  ( 8.000000000000021316, -7.999999999999983125, 0.000000000000000000 ) ) ;
#686 = ORIENTED_EDGE ( 'NONE', *, *, #1188, .F. ) ;
#687 = CARTESIAN_POINT ( 'NONE',  ( 8.999999999999998224, 3.999999999999995559, 75.00000000000000000 ) ) ;
#688 = CLOSED_SHELL ( 'NONE', ( #978, #1182, #86, #1272, #301, #1331, #1089, #57, #567, #1061, #1163, #222, #329, #819, #127, #1376, #203, #1334, #312, #472, #586, #986, #678, #200, #1142, #762, #283, #638, #375, #1017, #641, #751, #892, #1118, #1282, #850, #875, #941, #413, #799, #341, #45 ) ) ;
#689 = AXIS2_PLACEMENT_3D ( 'NONE', #582, #919, #1041 ) ;
#690 = VERTEX_POINT ( 'NONE', #125 ) ;
#691 = DIRECTION ( 'NONE',  ( 0.000000000000000000, -0.000000000000000000, -1.000000000000000000 ) ) ;
#692 = CARTESIAN_POINT ( 'NONE',  ( -3.697370341991677785E-13, 1.599999999999983435, 18.74999999999998224 ) ) ;
#693 = ORIENTED_EDGE ( 'NONE', *, *, #142, .F. ) ;
#694 = EDGE_CURVE ( 'NONE', #161, #41, #151, .T. ) ;
#695 = AXIS2_PLACEMENT_3D ( 'NONE', #215, #1310, #9 ) ;
#696 = EDGE_LOOP ( 'NONE', ( #880, #737, #1281, #703 ) ) ;
#697 = EDGE_CURVE ( 'NONE', #789, #216, #745, .T. ) ;
#698 = CARTESIAN_POINT ( 'NONE',  ( 8.707106781186542577, 2.707106781186528366, -75.00000000000000000 ) ) ;
#699 = VERTEX_POINT ( 'NONE', #555 ) ;
#700 = CARTESIAN_POINT ( 'NONE',  ( 8.999999999999996447, -7.000000000000009770, 75.00000000000000000 ) ) ;
#701 = CARTESIAN_POINT ( 'NONE',  ( -4.981065714214516045E-13, 4.999999999999984013, -18.75000000000001776 ) ) ;
#702 = AXIS2_PLACEMENT_3D ( 'NONE', #563, #1020, #572 ) ;
#703 = ORIENTED_EDGE ( 'NONE', *, *, #113, .T. ) ;
#704 = CARTESIAN_POINT ( 'NONE',  ( 1.403486420142945804E-14, 1.599999999999983435, -59.50000000000000711 ) ) ;
#705 = EDGE_CURVE ( 'NONE', #282, #789, #682, .T. ) ;
#706 = DIRECTION ( 'NONE',  ( -0.000000000000000000, 1.000000000000000000, -0.000000000000000000 ) ) ;
#707 = CC_DESIGN_APPROVAL ( #35, ( #588 ) ) ;
#708 = VERTEX_POINT ( 'NONE', #131 ) ;
#709 = CARTESIAN_POINT ( 'NONE',  ( 7.500000000000001776, -1.500000000000000000, 75.00000000000000000 ) ) ;
#710 = PLANE ( 'NONE',  #309 ) ;
#711 = ORIENTED_EDGE ( 'NONE', *, *, #714, .F. ) ;
#712 = CARTESIAN_POINT ( 'NONE',  ( 1.363685399170656723E-14, 4.999999999999984013, -56.25000000000000711 ) ) ;
#713 = CARTESIAN_POINT ( 'NONE',  ( 1.699999999999642464, 1.599999999999983435, 18.74999999999998224 ) ) ;
#714 = EDGE_CURVE ( 'NONE', #501, #282, #316, .T. ) ;
#715 = VERTEX_POINT ( 'NONE', #1122 ) ;
#716 = DIRECTION ( 'NONE',  ( 0.000000000000000000, 0.000000000000000000, -1.000000000000000000 ) ) ;
#717 = LINE ( 'NONE', #70, #949 ) ;
#718 = EDGE_LOOP ( 'NONE', ( #400, #1160 ) ) ;
#719 = FACE_OUTER_BOUND ( 'NONE', #1049, .T. ) ;
#720 = VECTOR ( 'NONE', #1228, 1000.000000000000000 ) ;
#721 = FACE_BOUND ( 'NONE', #241, .T. ) ;
#722 = ORIENTED_EDGE ( 'NONE', *, *, #1356, .T. ) ;
#723 = DIRECTION ( 'NONE',  ( 0.7071067811865511255, -0.7071067811865440200, 0.000000000000000000 ) ) ;
#724 = EDGE_CURVE ( 'NONE', #1274, #824, #121, .T. ) ;
#725 = CARTESIAN_POINT ( 'NONE',  ( 1.363685399170656723E-14, 1.599999999999983435, 56.24999999999997868 ) ) ;
#726 = ORIENTED_EDGE ( 'NONE', *, *, #808, .F. ) ;
#727 = CARTESIAN_POINT ( 'NONE',  ( 1.363685399170656723E-14, -7.999999999999983125, -56.25000000000000711 ) ) ;
#728 = PERSON_AND_ORGANIZATION_ROLE ( 'design_owner' ) ;
#729 = ORIENTED_EDGE ( 'NONE', *, *, #304, .T. ) ;
#730 = DIRECTION ( 'NONE',  ( 0.000000000000000000, 0.000000000000000000, 1.000000000000000000 ) ) ;
#731 = VECTOR ( 'NONE', #236, 1000.000000000000000 ) ;
#732 = CARTESIAN_POINT ( 'NONE',  ( -9.000000000000000000, 3.414213562373079824, 75.00000000000000000 ) ) ;
#733 = ORIENTED_EDGE ( 'NONE', *, *, #769, .F. ) ;
#734 = CARTESIAN_POINT ( 'NONE',  ( -3.697370341991677785E-13, 4.999999999999984013, 18.74999999999998224 ) ) ;
#735 = VECTOR ( 'NONE', #1330, 1000.000000000000000 ) ;
#736 = PERSON_AND_ORGANIZATION ( #857, #243 ) ;
#737 = ORIENTED_EDGE ( 'NONE', *, *, #1143, .F. ) ;
#738 = DIRECTION ( 'NONE',  ( 1.000000000000000000, 0.000000000000000000, 0.000000000000000000 ) ) ;
#739 = LINE ( 'NONE', #963, #1130 ) ;
#740 = CIRCLE ( 'NONE', #152, 1.700000000000000178 ) ;
#741 = ORIENTED_EDGE ( 'NONE', *, *, #266, .F. ) ;
#742 = FACE_OUTER_BOUND ( 'NONE', #492, .T. ) ;
#743 = EDGE_CURVE ( 'NONE', #485, #100, #231, .T. ) ;
#744 = APPLICATION_PROTOCOL_DEFINITION ( 'international standard', 'config_control_design', 1994, #1332 ) ;
#745 = CIRCLE ( 'NONE', #981, 1.000000000000000000 ) ;
#746 = ORIENTED_EDGE ( 'NONE', *, *, #515, .T. ) ;
#747 = DIRECTION ( 'NONE',  ( -0.000000000000000000, 1.000000000000000000, -0.000000000000000000 ) ) ;
#748 = CARTESIAN_POINT ( 'NONE',  ( -8.999999999999998224, 3.999999999999994671, 75.00000000000000000 ) ) ;
#749 = ORIENTED_EDGE ( 'NONE', *, *, #172, .F. ) ;
#750 = LINE ( 'NONE', #426, #351 ) ;
#751 = ADVANCED_FACE ( 'NONE', ( #54, #475 ), #673, .F. ) ;
#752 = PERSON_AND_ORGANIZATION_ROLE ( 'design_supplier' ) ;
#753 = VECTOR ( 'NONE', #476, 1000.000000000000000 ) ;
#754 = ORIENTED_EDGE ( 'NONE', *, *, #1348, .F. ) ;
#755 = DIRECTION ( 'NONE',  ( -0.000000000000000000, 0.000000000000000000, 1.000000000000000000 ) ) ;
#756 = CARTESIAN_POINT ( 'NONE',  ( -7.999999999999996447, 4.999999999999983125, 75.00000000000000000 ) ) ;
#757 = CIRCLE ( 'NONE', #148, 1.700000000000000178 ) ;
#758 = CARTESIAN_POINT ( 'NONE',  ( 1.403486420142945804E-14, 4.999999999999984013, -59.50000000000000711 ) ) ;
#759 = PERSON_AND_ORGANIZATION ( #857, #243 ) ;
#760 = ORIENTED_EDGE ( 'NONE', *, *, #1207, .T. ) ;
#761 = DIRECTION ( 'NONE',  ( -0.000000000000000000, 1.000000000000000000, -0.000000000000000000 ) ) ;
#762 = ADVANCED_FACE ( 'NONE', ( #1340, #912, #1234, #28, #365 ), #1320, .T. ) ;
#763 = AXIS2_PLACEMENT_3D ( 'NONE', #221, #535, #1095 ) ;
#764 = DIRECTION ( 'NONE',  ( 0.000000000000000000, 0.000000000000000000, -1.000000000000000000 ) ) ;
#765 = DIRECTION ( 'NONE',  ( 8.673617379884034486E-16, -1.000000000000000000, 0.000000000000000000 ) ) ;
#766 = ORIENTED_EDGE ( 'NONE', *, *, #917, .T. ) ;
#767 = DIRECTION ( 'NONE',  ( -8.673617379884033500E-16, 1.000000000000000000, -0.000000000000000000 ) ) ;
#768 = DIRECTION ( 'NONE',  ( -0.7071067811865524577, -0.7071067811865426878, -0.000000000000000000 ) ) ;
#769 = EDGE_CURVE ( 'NONE', #581, #51, #340, .T. ) ;
#770 = LINE ( 'NONE', #1208, #987 ) ;
#771 = ORIENTED_EDGE ( 'NONE', *, *, #558, .T. ) ;
#772 = CARTESIAN_POINT ( 'NONE',  ( -4.981065714214516045E-13, 4.999999999999984013, -18.75000000000001776 ) ) ;
#773 = CARTESIAN_POINT ( 'NONE',  ( 1.700000000000025935, 1.599999999999983435, 56.24999999999997868 ) ) ;
#774 = CARTESIAN_POINT ( 'NONE',  ( 9.000000000000000000, -3.414213562373079824, 75.00000000000000000 ) ) ;
#775 = AXIS2_PLACEMENT_3D ( 'NONE', #881, #1313, #339 ) ;
#776 = EDGE_CURVE ( 'NONE', #420, #1289, #561, .T. ) ;
#777 = ORIENTED_EDGE ( 'NONE', *, *, #769, .T. ) ;
#778 = DIRECTION ( 'NONE',  ( 0.000000000000000000, 0.000000000000000000, 1.000000000000000000 ) ) ;
#779 = CARTESIAN_POINT ( 'NONE',  ( 1.363685399170656723E-14, 4.999999999999984013, -56.25000000000000711 ) ) ;
#780 = PLANE ( 'NONE',  #1325 ) ;
#781 = AXIS2_PLACEMENT_3D ( 'NONE', #331, #747, #1176 ) ;
#782 = EDGE_CURVE ( 'NONE', #5, #708, #1093, .T. ) ;
#783 = ADVANCED_BREP_SHAPE_REPRESENTATION ( 'rail', ( #528, #1212 ), #1231 ) ;
#784 = ORIENTED_EDGE ( 'NONE', *, *, #37, .F. ) ;
#785 = CARTESIAN_POINT ( 'NONE',  ( -3.693390239894449082E-13, 4.999999999999984013, 15.49999999999998579 ) ) ;
#786 = CARTESIAN_POINT ( 'NONE',  ( -8.707106781186542577, 2.707106781186528366, -75.00000000000000000 ) ) ;
#787 = VECTOR ( 'NONE', #1193, 1000.000000000000000 ) ;
#788 = DIRECTION ( 'NONE',  ( -0.000000000000000000, 1.000000000000000000, -0.000000000000000000 ) ) ;
#789 = VERTEX_POINT ( 'NONE', #786 ) ;
#790 = CC_DESIGN_PERSON_AND_ORGANIZATION_ASSIGNMENT ( #211, #952, ( #588 ) ) ;
#791 = CARTESIAN_POINT ( 'NONE',  ( -7.500000000000001776, 1.500000000000000000, 75.00000000000000000 ) ) ;
#792 = CARTESIAN_POINT ( 'NONE',  ( -4.978983814655965724E-13, -7.999999999999983125, -20.45000000000001705 ) ) ;
#793 = CARTESIAN_POINT ( 'NONE',  ( 8.000000000000024869, 4.999999999999984013, 75.00000000000000000 ) ) ;
#794 = ORIENTED_EDGE ( 'NONE', *, *, #663, .F. ) ;
#795 = LOCAL_TIME ( 10, 19, 44.00000000000000000, #1276 ) ;
#796 = DIRECTION ( 'NONE',  ( -0.000000000000000000, 1.000000000000000000, -0.000000000000000000 ) ) ;
#797 = ORIENTED_EDGE ( 'NONE', *, *, #1215, .T. ) ;
#798 = CARTESIAN_POINT ( 'NONE',  ( 8.999999999999998224, 3.999999999999995559, 75.00000000000000000 ) ) ;
#799 = ADVANCED_FACE ( 'NONE', ( #36 ), #348, .F. ) ;
#800 = AXIS2_PLACEMENT_3D ( 'NONE', #1379, #168, #92 ) ;
#801 = VECTOR ( 'NONE', #1364, 1000.000000000000000 ) ;
#802 = PLANE ( 'NONE',  #194 ) ;
#803 = ORIENTED_EDGE ( 'NONE', *, *, #969, .T. ) ;
#804 = DIRECTION ( 'NONE',  ( 0.000000000000000000, 0.000000000000000000, 1.000000000000000000 ) ) ;
#805 = CIRCLE ( 'NONE', #882, 1.700000000000013944 ) ;
#806 = ORIENTED_EDGE ( 'NONE', *, *, #1172, .T. ) ;
#807 = CARTESIAN_POINT ( 'NONE',  ( -7.500000000000001776, 1.500000000000000000, -75.00000000000000000 ) ) ;
#808 = EDGE_CURVE ( 'NONE', #1342, #564, #462, .T. ) ;
#809 = CARTESIAN_POINT ( 'NONE',  ( 7.500000000000001776, -1.500000000000000000, -75.00000000000000000 ) ) ;
#810 = AXIS2_PLACEMENT_3D ( 'NONE', #254, #576, #570 ) ;
#811 = ORIENTED_EDGE ( 'NONE', *, *, #571, .F. ) ;
#812 = ORIENTED_EDGE ( 'NONE', *, *, #322, .F. ) ;
#813 = DIRECTION ( 'NONE',  ( -0.7071067811865510144, -0.7071067811865441310, 0.000000000000000000 ) ) ;
#814 = ORIENTED_EDGE ( 'NONE', *, *, #144, .T. ) ;
#815 = DIRECTION ( 'NONE',  ( -0.000000000000000000, 1.000000000000000000, -0.000000000000000000 ) ) ;
#816 = CARTESIAN_POINT ( 'NONE',  ( 7.500000000000001776, 1.500000000000000000, -75.00000000000000000 ) ) ;
#817 = AXIS2_PLACEMENT_3D ( 'NONE', #692, #149, #1125 ) ;
#818 = ORIENTED_EDGE ( 'NONE', *, *, #1124, .T. ) ;
#819 = ADVANCED_FACE ( 'NONE', ( #677 ), #1117, .F. ) ;
#820 = DIRECTION ( 'NONE',  ( 0.000000000000000000, 0.000000000000000000, 1.000000000000000000 ) ) ;
#821 = EDGE_CURVE ( 'NONE', #1071, #377, #147, .T. ) ;
#822 = FACE_BOUND ( 'NONE', #20, .T. ) ;
#823 = CIRCLE ( 'NONE', #943, 0.9999999999999991118 ) ;
#824 = VERTEX_POINT ( 'NONE', #792 ) ;
#825 = DIRECTION ( 'NONE',  ( -0.000000000000000000, 1.000000000000000000, -0.000000000000000000 ) ) ;
#826 = LINE ( 'NONE', #1169, #994 ) ;
#827 = VECTOR ( 'NONE', #600, 1000.000000000000000 ) ;
#828 = ORIENTED_EDGE ( 'NONE', *, *, #1002, .T. ) ;
#829 = LINE ( 'NONE', #296, #27 ) ;
#830 = EDGE_CURVE ( 'NONE', #454, #377, #257, .T. ) ;
#831 = FACE_OUTER_BOUND ( 'NONE', #602, .T. ) ;
#832 = VERTEX_POINT ( 'NONE', #1271 ) ;
#833 = DIRECTION ( 'NONE',  ( -0.000000000000000000, 1.000000000000000000, -0.000000000000000000 ) ) ;
#834 = CARTESIAN_POINT ( 'NONE',  ( 7.500000000000001776, 1.500000000000000000, -75.00000000000000000 ) ) ;
#835 = VERTEX_POINT ( 'NONE', #807 ) ;
#836 = EDGE_LOOP ( 'NONE', ( #525, #1380, #953, #446 ) ) ;
#837 = EDGE_LOOP ( 'NONE', ( #235, #188, #1318, #1157 ) ) ;
#838 = FACE_OUTER_BOUND ( 'NONE', #696, .T. ) ;
#839 = CARTESIAN_POINT ( 'NONE',  ( 8.999999999999998224, 3.999999999999995559, -75.00000000000000000 ) ) ;
#840 = ORIENTED_EDGE ( 'NONE', *, *, #350, .F. ) ;
#841 = CARTESIAN_POINT ( 'NONE',  ( 1.363685399170656723E-14, 1.599999999999983435, 59.49999999999997868 ) ) ;
#842 = CALENDAR_DATE ( 2025, 17, 12 ) ;
#843 = ORIENTED_EDGE ( 'NONE', *, *, #210, .F. ) ;
#844 = DIRECTION ( 'NONE',  ( 0.000000000000000000, 0.000000000000000000, -1.000000000000000000 ) ) ;
#845 = AXIS2_PLACEMENT_3D ( 'NONE', #1134, #796, #1048 ) ;
#846 = CYLINDRICAL_SURFACE ( 'NONE', #252, 1.700000000000007061 ) ;
#847 = EDGE_CURVE ( 'NONE', #59, #862, #1240, .T. ) ;
#848 = EDGE_LOOP ( 'NONE', ( #25, #1337 ) ) ;
#849 = ORIENTED_EDGE ( 'NONE', *, *, #537, .T. ) ;
#850 = ADVANCED_FACE ( 'NONE', ( #838 ), #159, .F. ) ;
#851 = PRODUCT_DEFINITION_SHAPE ( 'NONE', 'NONE',  #524 ) ;
#852 = DATE_AND_TIME ( #842, #795 ) ;
#853 = ORIENTED_EDGE ( 'NONE', *, *, #480, .T. ) ;
#854 = CARTESIAN_POINT ( 'NONE',  ( -7.500000000000001776, 1.500000000000000000, 75.00000000000000000 ) ) ;
#855 = DIRECTION ( 'NONE',  ( 0.000000000000000000, -1.000000000000000000, 0.000000000000000000 ) ) ;
#856 = ORIENTED_EDGE ( 'NONE', *, *, #552, .T. ) ;
#857 = PERSON ( 'UNSPECIFIED', 'UNSPECIFIED', 'UNSPECIFIED', ('UNSPECIFIED'), ('UNSPECIFIED'), ('UNSPECIFIED') ) ;
#858 = EDGE_CURVE ( 'NONE', #699, #428, #927, .T. ) ;
#859 = AXIS2_PLACEMENT_3D ( 'NONE', #1371, #815, #511 ) ;
#860 = CARTESIAN_POINT ( 'NONE',  ( -9.000000000000000000, -3.414213562373079824, 75.00000000000000000 ) ) ;
#861 = APPROVAL_STATUS ( 'not_yet_approved' ) ;
#862 = VERTEX_POINT ( 'NONE', #1347 ) ;
#863 = DIRECTION ( 'NONE',  ( 0.000000000000000000, 0.000000000000000000, 1.000000000000000000 ) ) ;
#864 = DIRECTION ( 'NONE',  ( 0.000000000000000000, 0.000000000000000000, 1.000000000000000000 ) ) ;
#865 = CARTESIAN_POINT ( 'NONE',  ( 8.999999999999998224, 4.999999999999984013, 75.00000000000000000 ) ) ;
#866 =( NAMED_UNIT ( * ) PLANE_ANGLE_UNIT ( ) SI_UNIT ( $, .RADIAN. ) );
#867 = EDGE_CURVE ( 'NONE', #789, #835, #1355, .T. ) ;
#868 = AXIS2_PLACEMENT_3D ( 'NONE', #568, #887, #1224 ) ;
#869 = ORIENTED_EDGE ( 'NONE', *, *, #830, .F. ) ;
#870 = CARTESIAN_POINT ( 'NONE',  ( 1.363685399170656723E-14, 1.599999999999983435, 57.94999999999999574 ) ) ;
#871 = PLANE ( 'NONE',  #695 ) ;
#872 = AXIS2_PLACEMENT_3D ( 'NONE', #1353, #378, #813 ) ;
#873 = DIRECTION ( 'NONE',  ( 0.000000000000000000, 0.000000000000000000, -1.000000000000000000 ) ) ;
#874 = VECTOR ( 'NONE', #342, 1000.000000000000000 ) ;
#875 = ADVANCED_FACE ( 'NONE', ( #505 ), #1025, .F. ) ;
#876 = ORIENTED_EDGE ( 'NONE', *, *, #1315, .F. ) ;
#877 = LINE ( 'NONE', #989, #546 ) ;
#878 = CARTESIAN_POINT ( 'NONE',  ( -6.499999999999934275, 6.500000000000024869, 75.00000000000000000 ) ) ;
#879 = PLANE ( 'NONE',  #224 ) ;
#880 = ORIENTED_EDGE ( 'NONE', *, *, #1207, .F. ) ;
#881 = CARTESIAN_POINT ( 'NONE',  ( 7.999999999999998224, -3.414213562373078936, -75.00000000000000000 ) ) ;
#882 = AXIS2_PLACEMENT_3D ( 'NONE', #409, #1275, #303 ) ;
#883 = VECTOR ( 'NONE', #1287, 1000.000000000000000 ) ;
#884 = DIRECTION ( 'NONE',  ( -0.000000000000000000, 1.000000000000000000, -0.000000000000000000 ) ) ;
#885 = CC_DESIGN_PERSON_AND_ORGANIZATION_ASSIGNMENT ( #328, #728, ( #579 ) ) ;
#886 = EDGE_CURVE ( 'NONE', #1152, #832, #29, .T. ) ;
#887 = DIRECTION ( 'NONE',  ( 1.000000000000000000, -8.673617379884035472E-16, 0.000000000000000000 ) ) ;
#888 = ORIENTED_EDGE ( 'NONE', *, *, #896, .T. ) ;
#889 = ORIENTED_EDGE ( 'NONE', *, *, #425, .T. ) ;
#890 = FACE_OUTER_BOUND ( 'NONE', #75, .T. ) ;
#891 = DIRECTION ( 'NONE',  ( 0.000000000000000000, -0.000000000000000000, -1.000000000000000000 ) ) ;
#892 = ADVANCED_FACE ( 'NONE', ( #68 ), #1263, .F. ) ;
#893 = CYLINDRICAL_SURFACE ( 'NONE', #385, 3.249999999999996003 ) ;
#894 = EDGE_LOOP ( 'NONE', ( #771, #90, #1189, #208 ) ) ;
#895 = VECTOR ( 'NONE', #1100, 1000.000000000000000 ) ;
#896 = EDGE_CURVE ( 'NONE', #982, #227, #599, .T. ) ;
#897 = ORIENTED_EDGE ( 'NONE', *, *, #867, .T. ) ;
#898 = DIRECTION ( 'NONE',  ( 0.7071067811865482389, -0.7071067811865469066, 0.000000000000000000 ) ) ;
#899 = CIRCLE ( 'NONE', #1216, 0.9999999999999991118 ) ;
#900 = DIRECTION ( 'NONE',  ( 0.000000000000000000, -0.000000000000000000, -1.000000000000000000 ) ) ;
#901 = VECTOR ( 'NONE', #1179, 1000.000000000000000 ) ;
#902 = DIRECTION ( 'NONE',  ( 0.000000000000000000, 0.000000000000000000, 1.000000000000000000 ) ) ;
#903 = CC_DESIGN_PERSON_AND_ORGANIZATION_ASSIGNMENT ( #759, #11, ( #551 ) ) ;
#904 = DIRECTION ( 'NONE',  ( -0.000000000000000000, 1.000000000000000000, -0.000000000000000000 ) ) ;
#905 = CARTESIAN_POINT ( 'NONE',  ( -7.999999999999998224, 3.414213562373078936, -75.00000000000000000 ) ) ;
#906 = VECTOR ( 'NONE', #354, 1000.000000000000000 ) ;
#907 = CARTESIAN_POINT ( 'NONE',  ( -7.500000000000001776, 1.500000000000000000, 75.00000000000000000 ) ) ;
#908 = VERTEX_POINT ( 'NONE', #293 ) ;
#909 = EDGE_CURVE ( 'NONE', #1164, #622, #1309, .T. ) ;
#910 = DIRECTION ( 'NONE',  ( -0.000000000000000000, 1.000000000000000000, -0.000000000000000000 ) ) ;
#911 = ORIENTED_EDGE ( 'NONE', *, *, #515, .F. ) ;
#912 = FACE_BOUND ( 'NONE', #718, .T. ) ;
#913 = PLANE ( 'NONE',  #868 ) ;
#914 = ORIENTED_EDGE ( 'NONE', *, *, #163, .T. ) ;
#915 = APPROVAL_PERSON_ORGANIZATION ( #516, #1151, #1085 ) ;
#916 = CARTESIAN_POINT ( 'NONE',  ( -8.999999999999998224, -4.999999999999983125, -75.00000000000000000 ) ) ;
#917 = EDGE_CURVE ( 'NONE', #204, #1175, #1149, .T. ) ;
#918 = ORIENTED_EDGE ( 'NONE', *, *, #182, .T. ) ;
#919 = DIRECTION ( 'NONE',  ( -0.000000000000000000, 1.000000000000000000, -0.000000000000000000 ) ) ;
#920 = LINE ( 'NONE', #928, #801 ) ;
#921 = EDGE_LOOP ( 'NONE', ( #1170, #840, #1055, #995 ) ) ;
#922 = AXIS2_PLACEMENT_3D ( 'NONE', #436, #1296, #863 ) ;
#923 = ORIENTED_EDGE ( 'NONE', *, *, #705, .F. ) ;
#924 = CARTESIAN_POINT ( 'NONE',  ( -4.977085612117286837E-13, 4.999999999999984013, -22.00000000000001421 ) ) ;
#925 = AXIS2_PLACEMENT_3D ( 'NONE', #712, #594, #80 ) ;
#926 = ORIENTED_EDGE ( 'NONE', *, *, #670, .T. ) ;
#927 = LINE ( 'NONE', #709, #206 ) ;
#928 = CARTESIAN_POINT ( 'NONE',  ( -8.999999999999998224, 3.999999999999995559, -75.00000000000000000 ) ) ;
#929 = EDGE_CURVE ( 'NONE', #51, #216, #1137, .T. ) ;
#930 = AXIS2_PLACEMENT_3D ( 'NONE', #207, #229, #119 ) ;
#931 = ORIENTED_EDGE ( 'NONE', *, *, #608, .F. ) ;
#932 = LINE ( 'NONE', #192, #627 ) ;
#933 = CARTESIAN_POINT ( 'NONE',  ( -8.999999999999998224, 4.999999999999983125, 75.00000000000000000 ) ) ;
#934 = VECTOR ( 'NONE', #983, 1000.000000000000000 ) ;
#935 = EDGE_LOOP ( 'NONE', ( #749, #1112, #1323, #766 ) ) ;
#936 = DIRECTION ( 'NONE',  ( -8.673617379884035472E-16, -1.000000000000000000, 0.000000000000000000 ) ) ;
#937 = CARTESIAN_POINT ( 'NONE',  ( 1.363685399170656723E-14, 1.599999999999983435, -53.00000000000001421 ) ) ;
#938 = ORIENTED_EDGE ( 'NONE', *, *, #697, .F. ) ;
#939 = EDGE_CURVE ( 'NONE', #128, #1354, #614, .T. ) ;
#940 = ORIENTED_EDGE ( 'NONE', *, *, #184, .F. ) ;
#941 = ADVANCED_FACE ( 'NONE', ( #1056, #1363 ), #181, .F. ) ;
#942 = CYLINDRICAL_SURFACE ( 'NONE', #531, 1.700000000000007061 ) ;
#943 = AXIS2_PLACEMENT_3D ( 'NONE', #129, #48, #1307 ) ;
#944 = ORIENTED_EDGE ( 'NONE', *, *, #539, .T. ) ;
#945 = DIRECTION ( 'NONE',  ( -0.000000000000000000, 1.000000000000000000, -0.000000000000000000 ) ) ;
#946 = LINE ( 'NONE', #399, #1013 ) ;
#947 = AXIS2_PLACEMENT_3D ( 'NONE', #1161, #189, #174 ) ;
#948 = EDGE_LOOP ( 'NONE', ( #843, #1126, #639, #140 ) ) ;
#949 = VECTOR ( 'NONE', #491, 1000.000000000000000 ) ;
#950 = CYLINDRICAL_SURFACE ( 'NONE', #925, 3.249999999999996003 ) ;
#951 = VECTOR ( 'NONE', #482, 1000.000000000000000 ) ;
#952 = PERSON_AND_ORGANIZATION_ROLE ( 'classification_officer' ) ;
#953 = ORIENTED_EDGE ( 'NONE', *, *, #618, .F. ) ;
#954 = DIRECTION ( 'NONE',  ( 0.000000000000000000, 0.000000000000000000, 1.000000000000000000 ) ) ;
#955 = DIRECTION ( 'NONE',  ( -0.7071067811865511255, -0.7071067811865440200, -0.000000000000000000 ) ) ;
#956 = ORIENTED_EDGE ( 'NONE', *, *, #1261, .F. ) ;
#957 = DIRECTION ( 'NONE',  ( -0.000000000000000000, 1.000000000000000000, -0.000000000000000000 ) ) ;
#958 = AXIS2_PLACEMENT_3D ( 'NONE', #725, #197, #1162 ) ;
#959 = DATE_TIME_ROLE ( 'creation_date' ) ;
#960 = EDGE_CURVE ( 'NONE', #1278, #1167, #405, .T. ) ;
#961 = VERTEX_POINT ( 'NONE', #286 ) ;
#962 = DIRECTION ( 'NONE',  ( 1.000000000000000000, 0.000000000000000000, 0.000000000000000000 ) ) ;
#963 = CARTESIAN_POINT ( 'NONE',  ( -8.999999999999998224, -4.999999999999983125, 75.00000000000000000 ) ) ;
#964 = ORIENTED_EDGE ( 'NONE', *, *, #694, .T. ) ;
#965 = DIRECTION ( 'NONE',  ( 0.000000000000000000, 0.000000000000000000, 1.000000000000000000 ) ) ;
#966 = APPLICATION_PROTOCOL_DEFINITION ( 'international standard', 'config_control_design', 1994, #320 ) ;
#967 = EDGE_LOOP ( 'NONE', ( #944, #504 ) ) ;
#968 = CARTESIAN_POINT ( 'NONE',  ( 7.999999999999994671, -8.000000000000008882, 75.00000000000000000 ) ) ;
#969 = EDGE_CURVE ( 'NONE', #601, #154, #1242, .T. ) ;
#970 = AXIS2_PLACEMENT_3D ( 'NONE', #554, #1226, #146 ) ;
#971 = CARTESIAN_POINT ( 'NONE',  ( -7.500000000000001776, 1.500000000000000000, 75.00000000000000000 ) ) ;
#972 = ORIENTED_EDGE ( 'NONE', *, *, #156, .F. ) ;
#973 = DIRECTION ( 'NONE',  ( -0.7071067811865426878, 0.7071067811865524577, -0.000000000000000000 ) ) ;
#974 = VECTOR ( 'NONE', #545, 1000.000000000000000 ) ;
#975 = VERTEX_POINT ( 'NONE', #700 ) ;
#976 = LINE ( 'NONE', #118, #934 ) ;
#977 = DIRECTION ( 'NONE',  ( 0.7071067811865510144, 0.7071067811865441310, -0.000000000000000000 ) ) ;
#978 = ADVANCED_FACE ( 'NONE', ( #590 ), #606, .F. ) ;
#979 = DIRECTION ( 'NONE',  ( -0.7071067811865511255, 0.7071067811865440200, 0.000000000000000000 ) ) ;
#980 =( NAMED_UNIT ( * ) SI_UNIT ( $, .STERADIAN. ) SOLID_ANGLE_UNIT ( ) );
#981 = AXIS2_PLACEMENT_3D ( 'NONE', #905, #900, #248 ) ;
#982 = VERTEX_POINT ( 'NONE', #870 ) ;
#983 = DIRECTION ( 'NONE',  ( 0.000000000000000000, -1.000000000000000000, 0.000000000000000000 ) ) ;
#984 = LINE ( 'NONE', #878, #1044 ) ;
#985 = DIRECTION ( 'NONE',  ( -0.000000000000000000, 1.000000000000000000, -0.000000000000000000 ) ) ;
#986 = ADVANCED_FACE ( 'NONE', ( #1301 ), #654, .T. ) ;
#987 = VECTOR ( 'NONE', #138, 1000.000000000000000 ) ;
#988 = EDGE_LOOP ( 'NONE', ( #1183, #643, #233, #853 ) ) ;
#989 = CARTESIAN_POINT ( 'NONE',  ( -8.999999999999998224, 4.999999999999983125, -75.00000000000000000 ) ) ;
#990 = PLANE ( 'NONE',  #930 ) ;
#991 = VECTOR ( 'NONE', #73, 1000.000000000000000 ) ;
#992 = CARTESIAN_POINT ( 'NONE',  ( -7.500000000000001776, -1.500000000000000000, 75.00000000000000000 ) ) ;
#993 = AXIS2_PLACEMENT_3D ( 'NONE', #701, #390, #506 ) ;
#994 = VECTOR ( 'NONE', #1257, 1000.000000000000000 ) ;
#995 = ORIENTED_EDGE ( 'NONE', *, *, #155, .F. ) ;
#996 = CARTESIAN_POINT ( 'NONE',  ( 8.000000000000024869, 4.999999999999984013, -75.00000000000000000 ) ) ;
#997 = DIRECTION ( 'NONE',  ( -0.000000000000000000, 1.000000000000000000, -0.000000000000000000 ) ) ;
#998 = CARTESIAN_POINT ( 'NONE',  ( 1.363685399170656723E-14, 4.999999999999984013, 59.49999999999997868 ) ) ;
#999 = ORIENTED_EDGE ( 'NONE', *, *, #776, .F. ) ;
#1000 = AXIS2_PLACEMENT_3D ( 'NONE', #83, #825, #598 ) ;
#1001 = DIRECTION ( 'NONE',  ( 0.7071067811865511255, 0.7071067811865440200, 0.000000000000000000 ) ) ;
#1002 = EDGE_CURVE ( 'NONE', #1342, #975, #1384, .T. ) ;
#1003 = DIRECTION ( 'NONE',  ( 0.000000000000000000, 0.000000000000000000, 1.000000000000000000 ) ) ;
#1004 = DIRECTION ( 'NONE',  ( -1.000000000000000000, 8.673617379884035472E-16, 0.000000000000000000 ) ) ;
#1005 = ORIENTED_EDGE ( 'NONE', *, *, #78, .F. ) ;
#1006 = CARTESIAN_POINT ( 'NONE',  ( 1.363685399170656723E-14, -7.999999999999983125, 57.94999999999998153 ) ) ;
#1007 = DIRECTION ( 'NONE',  ( 0.000000000000000000, 0.000000000000000000, 1.000000000000000000 ) ) ;
#1008 = EDGE_CURVE ( 'NONE', #1249, #314, #105, .T. ) ;
#1009 = CARTESIAN_POINT ( 'NONE',  ( -7.999999999999996447, 4.999999999999983125, -75.00000000000000000 ) ) ;
#1010 = CIRCLE ( 'NONE', #970, 1.700000000000000178 ) ;
#1011 = CIRCLE ( 'NONE', #800, 1.000000000000000000 ) ;
#1012 = LINE ( 'NONE', #785, #1191 ) ;
#1013 = VECTOR ( 'NONE', #1264, 1000.000000000000000 ) ;
#1014 = CARTESIAN_POINT ( 'NONE',  ( -9.000000000000005329, -7.999999999999983125, -75.00000000000000000 ) ) ;
#1015 = CARTESIAN_POINT ( 'NONE',  ( -3.695288442433127465E-13, 1.599999999999983435, 17.04999999999996874 ) ) ;
#1016 = ORIENTED_EDGE ( 'NONE', *, *, #120, .F. ) ;
#1017 = ADVANCED_FACE ( 'NONE', ( #315 ), #526, .F. ) ;
#1018 = CARTESIAN_POINT ( 'NONE',  ( 9.000000000000000000, 3.414213562373080713, 75.00000000000000000 ) ) ;
#1019 = CARTESIAN_POINT ( 'NONE',  ( -4.981065714214516045E-13, -7.999999999999983125, -18.75000000000001776 ) ) ;
#1020 = DIRECTION ( 'NONE',  ( -0.000000000000000000, 1.000000000000000000, -0.000000000000000000 ) ) ;
#1021 = ORIENTED_EDGE ( 'NONE', *, *, #1227, .T. ) ;
#1022 = EDGE_CURVE ( 'NONE', #1217, #420, #1197, .T. ) ;
#1023 = DIRECTION ( 'NONE',  ( -0.000000000000000000, 1.000000000000000000, -0.000000000000000000 ) ) ;
#1024 = ORIENTED_EDGE ( 'NONE', *, *, #743, .T. ) ;
#1025 = CYLINDRICAL_SURFACE ( 'NONE', #689, 1.700000000000007061 ) ;
#1026 = FACE_OUTER_BOUND ( 'NONE', #626, .T. ) ;
#1027 = VERTEX_POINT ( 'NONE', #97 ) ;
#1028 = EDGE_LOOP ( 'NONE', ( #1075, #298 ) ) ;
#1029 = EDGE_CURVE ( 'NONE', #278, #117, #1171, .T. ) ;
#1030 = LOCAL_TIME ( 10, 19, 44.00000000000000000, #1389 ) ;
#1031 = DIRECTION ( 'NONE',  ( 8.673617379884035472E-16, -1.000000000000000000, -0.000000000000000000 ) ) ;
#1032 = EDGE_CURVE ( 'NONE', #71, #204, #324, .T. ) ;
#1033 = EDGE_LOOP ( 'NONE', ( #940, #803, #441, #96 ) ) ;
#1034 = DIRECTION ( 'NONE',  ( -0.000000000000000000, -0.000000000000000000, -1.000000000000000000 ) ) ;
#1035 = VECTOR ( 'NONE', #844, 1000.000000000000000 ) ;
#1036 = DIRECTION ( 'NONE',  ( 1.000000000000000000, 0.000000000000000000, 0.000000000000000000 ) ) ;
#1037 = ORIENTED_EDGE ( 'NONE', *, *, #403, .T. ) ;
#1038 = CARTESIAN_POINT ( 'NONE',  ( 1.363685399170656723E-14, 1.599999999999983435, -54.54999999999999716 ) ) ;
#1039 = DIRECTION ( 'NONE',  ( -0.000000000000000000, 1.000000000000000000, -0.000000000000000000 ) ) ;
#1040 = ORIENTED_EDGE ( 'NONE', *, *, #724, .F. ) ;
#1041 = DIRECTION ( 'NONE',  ( 0.000000000000000000, 0.000000000000000000, 1.000000000000000000 ) ) ;
#1042 = EDGE_CURVE ( 'NONE', #1217, #346, #877, .T. ) ;
#1043 = LINE ( 'NONE', #1251, #47 ) ;
#1044 = VECTOR ( 'NONE', #768, 1000.000000000000000 ) ;
#1045 = EDGE_CURVE ( 'NONE', #5, #715, #228, .T. ) ;
#1046 = ORIENTED_EDGE ( 'NONE', *, *, #1246, .F. ) ;
#1047 = ORIENTED_EDGE ( 'NONE', *, *, #1246, .T. ) ;
#1048 = DIRECTION ( 'NONE',  ( 0.000000000000000000, 0.000000000000000000, 1.000000000000000000 ) ) ;
#1049 = EDGE_LOOP ( 'NONE', ( #1046, #1383, #797, #470 ) ) ;
#1050 = DIRECTION ( 'NONE',  ( -0.7071067811865511255, -0.7071067811865440200, -0.000000000000000000 ) ) ;
#1051 = DIRECTION ( 'NONE',  ( 1.000000000000000000, 0.000000000000000000, 0.000000000000000000 ) ) ;
#1052 = ORIENTED_EDGE ( 'NONE', *, *, #929, .F. ) ;
#1053 = LINE ( 'NONE', #87, #1237 ) ;
#1054 = CARTESIAN_POINT ( 'NONE',  ( 1.363685399170656723E-14, 4.999999999999984013, -53.00000000000001421 ) ) ;
#1055 = ORIENTED_EDGE ( 'NONE', *, *, #432, .F. ) ;
#1056 = FACE_BOUND ( 'NONE', #1312, .T. ) ;
#1057 = DIRECTION ( 'NONE',  ( 0.000000000000000000, 0.000000000000000000, 1.000000000000000000 ) ) ;
#1058 = EDGE_LOOP ( 'NONE', ( #794, #589, #1136, #578, #1186, #1326, #364, #1077, #1230, #592, #1052, #1241, #1359, #1128, #85, #408, #323, #269, #488, #1252 ) ) ;
#1059 = VECTOR ( 'NONE', #294, 1000.000000000000000 ) ;
#1060 = DIRECTION ( 'NONE',  ( -0.000000000000000000, 1.000000000000000000, -0.000000000000000000 ) ) ;
#1061 = ADVANCED_FACE ( 'NONE', ( #1064 ), #421, .F. ) ;
#1062 = APPROVAL_DATE_TIME ( #1092, #1151 ) ;
#1063 = EDGE_LOOP ( 'NONE', ( #17, #760, #1202, #361 ) ) ;
#1064 = FACE_OUTER_BOUND ( 'NONE', #56, .T. ) ;
#1065 = CARTESIAN_POINT ( 'NONE',  ( 1.384504394756161982E-14, 4.999999999999984013, 54.54999999999997584 ) ) ;
#1066 = EDGE_LOOP ( 'NONE', ( #417, #856, #195, #246 ) ) ;
#1067 = DIRECTION ( 'NONE',  ( -0.000000000000000000, 1.000000000000000000, -0.000000000000000000 ) ) ;
#1068 = VECTOR ( 'NONE', #244, 1000.000000000000000 ) ;
#1069 = EDGE_CURVE ( 'NONE', #1167, #1249, #520, .T. ) ;
#1070 = CALENDAR_DATE ( 2025, 17, 12 ) ;
#1071 = VERTEX_POINT ( 'NONE', #21 ) ;
#1072 = DIRECTION ( 'NONE',  ( 0.7071067811865482389, 0.7071067811865469066, 0.000000000000000000 ) ) ;
#1073 = UNCERTAINTY_MEASURE_WITH_UNIT (LENGTH_MEASURE( 1.000000000000000082E-05 ), #386, 'distance_accuracy_value', 'NONE');
#1074 = DIRECTION ( 'NONE',  ( -8.673617379884033500E-16, 1.000000000000000000, -0.000000000000000000 ) ) ;
#1075 = ORIENTED_EDGE ( 'NONE', *, *, #782, .T. ) ;
#1076 = CARTESIAN_POINT ( 'NONE',  ( 1.363685399170656723E-14, 4.999999999999984013, -56.25000000000000711 ) ) ;
#1077 = ORIENTED_EDGE ( 'NONE', *, *, #1108, .F. ) ;
#1078 = DIRECTION ( 'NONE',  ( -0.000000000000000000, 1.000000000000000000, -0.000000000000000000 ) ) ;
#1079 = AXIS2_PLACEMENT_3D ( 'NONE', #141, #242, #1001 ) ;
#1080 = EDGE_CURVE ( 'NONE', #100, #485, #212, .T. ) ;
#1081 = LINE ( 'NONE', #549, #787 ) ;
#1082 = CYLINDRICAL_SURFACE ( 'NONE', #395, 1.000000000000000000 ) ;
#1083 = CIRCLE ( 'NONE', #646, 3.249999999999996003 ) ;
#1084 = VECTOR ( 'NONE', #634, 1000.000000000000000 ) ;
#1085 = APPROVAL_ROLE ( '' ) ;
#1086 = ORIENTED_EDGE ( 'NONE', *, *, #383, .F. ) ;
#1087 = DIRECTION ( 'NONE',  ( 0.000000000000000000, 0.000000000000000000, -1.000000000000000000 ) ) ;
#1088 = LINE ( 'NONE', #325, #99 ) ;
#1089 = ADVANCED_FACE ( 'NONE', ( #640 ), #429, .F. ) ;
#1090 = AXIS2_PLACEMENT_3D ( 'NONE', #76, #833, #954 ) ;
#1091 = LINE ( 'NONE', #1187, #668 ) ;
#1092 = DATE_AND_TIME ( #321, #440 ) ;
#1093 = CIRCLE ( 'NONE', #1156, 1.700000000000000178 ) ;
#1094 = ORIENTED_EDGE ( 'NONE', *, *, #1022, .F. ) ;
#1095 = DIRECTION ( 'NONE',  ( -1.000000000000000000, 0.000000000000000000, 0.000000000000000000 ) ) ;
#1096 = CARTESIAN_POINT ( 'NONE',  ( -7.999999999999998224, -3.414213562373078936, 75.00000000000000000 ) ) ;
#1097 = VECTOR ( 'NONE', #1279, 1000.000000000000000 ) ;
#1098 = CARTESIAN_POINT ( 'NONE',  ( -4.981065714214516045E-13, -7.999999999999983125, -18.75000000000001776 ) ) ;
#1099 = ORIENTED_EDGE ( 'NONE', *, *, #66, .F. ) ;
#1100 = DIRECTION ( 'NONE',  ( -0.000000000000000000, -0.000000000000000000, -1.000000000000000000 ) ) ;
#1101 = CARTESIAN_POINT ( 'NONE',  ( -3.697370341991677785E-13, -7.999999999999983125, 18.74999999999998224 ) ) ;
#1102 = CIRCLE ( 'NONE', #459, 3.249999999999996003 ) ;
#1103 = DIRECTION ( 'NONE',  ( -0.000000000000000000, 1.000000000000000000, -0.000000000000000000 ) ) ;
#1104 = EDGE_CURVE ( 'NONE', #401, #1247, #1288, .T. ) ;
#1105 = AXIS2_PLACEMENT_3D ( 'NONE', #355, #679, #1119 ) ;
#1106 = EDGE_LOOP ( 'NONE', ( #754, #1306, #964, #584 ) ) ;
#1107 = DIRECTION ( 'NONE',  ( 0.000000000000000000, 0.000000000000000000, -1.000000000000000000 ) ) ;
#1108 = EDGE_CURVE ( 'NONE', #835, #128, #976, .T. ) ;
#1109 = DIRECTION ( 'NONE',  ( 0.000000000000000000, 0.000000000000000000, 1.000000000000000000 ) ) ;
#1110 = DIRECTION ( 'NONE',  ( 0.000000000000000000, 0.000000000000000000, -1.000000000000000000 ) ) ;
#1111 = EDGE_CURVE ( 'NONE', #486, #1147, #344, .T. ) ;
#1112 = ORIENTED_EDGE ( 'NONE', *, *, #539, .F. ) ;
#1113 = CARTESIAN_POINT ( 'NONE',  ( -3.697370341991677785E-13, 1.599999999999983435, 18.74999999999998224 ) ) ;
#1114 = DIRECTION ( 'NONE',  ( -0.000000000000000000, 1.000000000000000000, -0.000000000000000000 ) ) ;
#1115 = FACE_OUTER_BOUND ( 'NONE', #1317, .T. ) ;
#1116 = LINE ( 'NONE', #473, #731 ) ;
#1117 = PLANE ( 'NONE',  #471 ) ;
#1118 = ADVANCED_FACE ( 'NONE', ( #1168 ), #196, .F. ) ;
#1119 = DIRECTION ( 'NONE',  ( 0.000000000000000000, 0.000000000000000000, 1.000000000000000000 ) ) ;
#1120 = AXIS2_PLACEMENT_3D ( 'NONE', #335, #666, #778 ) ;
#1121 = LINE ( 'NONE', #791, #895 ) ;
#1122 = CARTESIAN_POINT ( 'NONE',  ( -3.697370341991677785E-13, 1.599999999999983435, 20.44999999999999574 ) ) ;
#1123 = CIRCLE ( 'NONE', #1328, 3.249999999999996003 ) ;
#1124 = EDGE_CURVE ( 'NONE', #161, #67, #1010, .T. ) ;
#1125 = DIRECTION ( 'NONE',  ( 0.000000000000000000, 0.000000000000000000, 1.000000000000000000 ) ) ;
#1126 = ORIENTED_EDGE ( 'NONE', *, *, #743, .F. ) ;
#1127 = FACE_BOUND ( 'NONE', #415, .T. ) ;
#1128 = ORIENTED_EDGE ( 'NONE', *, *, #1022, .T. ) ;
#1129 = DIRECTION ( 'NONE',  ( -0.000000000000000000, 1.000000000000000000, -0.000000000000000000 ) ) ;
#1130 = VECTOR ( 'NONE', #414, 1000.000000000000000 ) ;
#1131 = DIRECTION ( 'NONE',  ( 0.000000000000000000, -0.000000000000000000, -1.000000000000000000 ) ) ;
#1132 = ORIENTED_EDGE ( 'NONE', *, *, #383, .T. ) ;
#1133 = ORIENTED_EDGE ( 'NONE', *, *, #670, .F. ) ;
#1134 = CARTESIAN_POINT ( 'NONE',  ( -3.697370341991677785E-13, 4.999999999999984013, 18.74999999999998224 ) ) ;
#1135 = VECTOR ( 'NONE', #788, 1000.000000000000000 ) ;
#1136 = ORIENTED_EDGE ( 'NONE', *, *, #821, .F. ) ;
#1137 = LINE ( 'NONE', #498, #443 ) ;
#1138 = CARTESIAN_POINT ( 'NONE',  ( 8.999999999999998224, -4.999999999999983125, 75.00000000000000000 ) ) ;
#1139 = ORIENTED_EDGE ( 'NONE', *, *, #596, .T. ) ;
#1140 = DIRECTION ( 'NONE',  ( -0.000000000000000000, 1.000000000000000000, -0.000000000000000000 ) ) ;
#1141 = AXIS2_PLACEMENT_3D ( 'NONE', #574, #1222, #461 ) ;
#1142 = ADVANCED_FACE ( 'NONE', ( #1218 ), #569, .T. ) ;
#1143 = EDGE_CURVE ( 'NONE', #1247, #401, #1102, .T. ) ;
#1144 = EDGE_LOOP ( 'NONE', ( #382, #180, #523, #123 ) ) ;
#1145 = CARTESIAN_POINT ( 'NONE',  ( -9.000000000000000000, 2.999999999999982681, -75.00000000000000000 ) ) ;
#1146 = DIRECTION ( 'NONE',  ( 0.7071067811865511255, -0.7071067811865440200, 0.000000000000000000 ) ) ;
#1147 = VERTEX_POINT ( 'NONE', #247 ) ;
#1148 = CYLINDRICAL_SURFACE ( 'NONE', #625, 1.700000000000007061 ) ;
#1149 = CIRCLE ( 'NONE', #947, 3.249999999999996003 ) ;
#1150 = CARTESIAN_POINT ( 'NONE',  ( 1.363685399170656723E-14, 4.999999999999984013, 56.24999999999997868 ) ) ;
#1151 = APPROVAL ( #621, 'UNSPECIFIED' ) ;
#1152 = VERTEX_POINT ( 'NONE', #1006 ) ;
#1153 = DIRECTION ( 'NONE',  ( 0.000000000000000000, 0.000000000000000000, 1.000000000000000000 ) ) ;
#1154 = DESIGN_CONTEXT ( 'detailed design', #1332, 'design' ) ;
#1155 = CARTESIAN_POINT ( 'NONE',  ( 8.000000000000024869, 4.999999999999984013, 75.00000000000000000 ) ) ;
#1156 = AXIS2_PLACEMENT_3D ( 'NONE', #1101, #997, #1003 ) ;
#1157 = ORIENTED_EDGE ( 'NONE', *, *, #266, .T. ) ;
#1158 = ORIENTED_EDGE ( 'NONE', *, *, #896, .F. ) ;
#1159 = LINE ( 'NONE', #1260, #1302 ) ;
#1160 = ORIENTED_EDGE ( 'NONE', *, *, #142, .T. ) ;
#1161 = CARTESIAN_POINT ( 'NONE',  ( 1.363685399170656723E-14, 4.999999999999984013, 56.24999999999997868 ) ) ;
#1162 = DIRECTION ( 'NONE',  ( 0.000000000000000000, 0.000000000000000000, 1.000000000000000000 ) ) ;
#1163 = ADVANCED_FACE ( 'NONE', ( #150 ), #672, .F. ) ;
#1164 = VERTEX_POINT ( 'NONE', #26 ) ;
#1165 = CARTESIAN_POINT ( 'NONE',  ( -3.697370341991677785E-13, 4.999999999999984013, 21.99999999999997868 ) ) ;
#1166 = AXIS2_PLACEMENT_3D ( 'NONE', #466, #904, #1333 ) ;
#1167 = VERTEX_POINT ( 'NONE', #660 ) ;
#1168 = FACE_OUTER_BOUND ( 'NONE', #837, .T. ) ;
#1169 = CARTESIAN_POINT ( 'NONE',  ( 7.500000000000001776, 1.500000000000000000, 75.00000000000000000 ) ) ;
#1170 = ORIENTED_EDGE ( 'NONE', *, *, #1029, .F. ) ;
#1171 = CIRCLE ( 'NONE', #1360, 1.000000000000000000 ) ;
#1172 = EDGE_CURVE ( 'NONE', #216, #501, #1116, .T. ) ;
#1173 = ORIENTED_EDGE ( 'NONE', *, *, #113, .F. ) ;
#1174 = SECURITY_CLASSIFICATION_LEVEL ( 'unclassified' ) ;
#1175 = VERTEX_POINT ( 'NONE', #353 ) ;
#1176 = DIRECTION ( 'NONE',  ( 0.000000000000000000, 0.000000000000000000, 1.000000000000000000 ) ) ;
#1177 = DIRECTION ( 'NONE',  ( 0.000000000000000000, 0.000000000000000000, -1.000000000000000000 ) ) ;
#1178 = ORIENTED_EDGE ( 'NONE', *, *, #631, .T. ) ;
#1179 = DIRECTION ( 'NONE',  ( -0.000000000000000000, 1.000000000000000000, -0.000000000000000000 ) ) ;
#1180 = PRODUCT_RELATED_PRODUCT_CATEGORY ( 'detail', '', ( #579 ) ) ;
#1181 = DATE_AND_TIME ( #410, #1030 ) ;
#1182 = ADVANCED_FACE ( 'NONE', ( #681 ), #52, .F. ) ;
#1183 = ORIENTED_EDGE ( 'NONE', *, *, #821, .T. ) ;
#1184 = DIRECTION ( 'NONE',  ( -0.000000000000000000, 1.000000000000000000, -0.000000000000000000 ) ) ;
#1185 = DIRECTION ( 'NONE',  ( -0.000000000000000000, 1.000000000000000000, -0.000000000000000000 ) ) ;
#1186 = ORIENTED_EDGE ( 'NONE', *, *, #1356, .F. ) ;
#1187 = CARTESIAN_POINT ( 'NONE',  ( 1.403486420142945804E-14, 4.999999999999984013, 52.99999999999998579 ) ) ;
#1188 = EDGE_CURVE ( 'NONE', #371, #835, #1121, .T. ) ;
#1189 = ORIENTED_EDGE ( 'NONE', *, *, #1227, .F. ) ;
#1190 = CARTESIAN_POINT ( 'NONE',  ( -3.697370341991677785E-13, 1.599999999999983435, 18.74999999999998224 ) ) ;
#1191 = VECTOR ( 'NONE', #1319, 1000.000000000000000 ) ;
#1192 = EDGE_CURVE ( 'NONE', #314, #1278, #823, .T. ) ;
#1193 = DIRECTION ( 'NONE',  ( -1.000000000000000000, -4.818676322157798854E-17, -0.000000000000000000 ) ) ;
#1194 = PLANE ( 'NONE',  #661 ) ;
#1195 = COORDINATED_UNIVERSAL_TIME_OFFSET ( 0, 0, .AHEAD. ) ;
#1196 = ORIENTED_EDGE ( 'NONE', *, *, #527, .F. ) ;
#1197 = LINE ( 'NONE', #205, #1084 ) ;
#1198 = DIRECTION ( 'NONE',  ( -1.000000000000000000, 0.000000000000000000, 0.000000000000000000 ) ) ;
#1199 = FACE_OUTER_BOUND ( 'NONE', #659, .T. ) ;
#1200 = EDGE_LOOP ( 'NONE', ( #1285, #12, #1236, #213 ) ) ;
#1201 = VECTOR ( 'NONE', #1177, 1000.000000000000000 ) ;
#1202 = ORIENTED_EDGE ( 'NONE', *, *, #1292, .T. ) ;
#1203 = DIRECTION ( 'NONE',  ( 0.000000000000000000, 0.000000000000000000, 1.000000000000000000 ) ) ;
#1204 = AXIS2_PLACEMENT_3D ( 'NONE', #542, #755, #738 ) ;
#1205 = DIRECTION ( 'NONE',  ( -0.000000000000000000, 0.000000000000000000, 1.000000000000000000 ) ) ;
#1206 = AXIS2_PLACEMENT_3D ( 'NONE', #1190, #1078, #112 ) ;
#1207 = EDGE_CURVE ( 'NONE', #401, #1352, #1012, .T. ) ;
#1208 = CARTESIAN_POINT ( 'NONE',  ( -3.695288442433127465E-13, 4.999999999999984013, 17.04999999999997584 ) ) ;
#1209 = ORIENTED_EDGE ( 'NONE', *, *, #1254, .F. ) ;
#1210 = DIRECTION ( 'NONE',  ( -0.000000000000000000, 1.000000000000000000, -0.000000000000000000 ) ) ;
#1211 = CARTESIAN_POINT ( 'NONE',  ( -8.999999999999998224, 3.999999999999994671, 75.00000000000000000 ) ) ;
#1212 = AXIS2_PLACEMENT_3D ( 'NONE', #1269, #297, #402 ) ;
#1213 = LINE ( 'NONE', #38, #1135 ) ;
#1214 = ORIENTED_EDGE ( 'NONE', *, *, #434, .T. ) ;
#1215 = EDGE_CURVE ( 'NONE', #227, #982, #644, .T. ) ;
#1216 = AXIS2_PLACEMENT_3D ( 'NONE', #616, #84, #1051 ) ;
#1217 = VERTEX_POINT ( 'NONE', #996 ) ;
#1218 = FACE_OUTER_BOUND ( 'NONE', #1144, .T. ) ;
#1219 = DIRECTION ( 'NONE',  ( 0.000000000000000000, 0.000000000000000000, -1.000000000000000000 ) ) ;
#1220 = LINE ( 'NONE', #674, #874 ) ;
#1221 = EDGE_CURVE ( 'NONE', #961, #564, #1327, .T. ) ;
#1222 = DIRECTION ( 'NONE',  ( -0.000000000000000000, 1.000000000000000000, -0.000000000000000000 ) ) ;
#1223 = DIRECTION ( 'NONE',  ( -0.7071067811865440200, -0.7071067811865511255, 0.000000000000000000 ) ) ;
#1224 = DIRECTION ( 'NONE',  ( 8.673617379884035472E-16, 1.000000000000000000, 0.000000000000000000 ) ) ;
#1225 = EDGE_LOOP ( 'NONE', ( #1158, #396 ) ) ;
#1226 = DIRECTION ( 'NONE',  ( -0.000000000000000000, 1.000000000000000000, -0.000000000000000000 ) ) ;
#1227 = EDGE_CURVE ( 'NONE', #1249, #1289, #136, .T. ) ;
#1228 = DIRECTION ( 'NONE',  ( -0.000000000000000000, 1.000000000000000000, -0.000000000000000000 ) ) ;
#1229 = DIRECTION ( 'NONE',  ( -0.7071067811865524577, -0.7071067811865426878, -0.000000000000000000 ) ) ;
#1230 = ORIENTED_EDGE ( 'NONE', *, *, #867, .F. ) ;
#1231 =( GEOMETRIC_REPRESENTATION_CONTEXT ( 3 ) GLOBAL_UNCERTAINTY_ASSIGNED_CONTEXT ( ( #1073 ) ) GLOBAL_UNIT_ASSIGNED_CONTEXT ( ( #386, #866, #980 ) ) REPRESENTATION_CONTEXT ( 'NONE', 'WORKASPACE' ) );
#1232 = DIRECTION ( 'NONE',  ( 0.000000000000000000, 0.000000000000000000, 1.000000000000000000 ) ) ;
#1233 = ORIENTED_EDGE ( 'NONE', *, *, #596, .F. ) ;
#1234 = FACE_BOUND ( 'NONE', #1028, .T. ) ;
#1235 = CARTESIAN_POINT ( 'NONE',  ( 1.403486420142945804E-14, 1.599999999999983435, 52.99999999999998579 ) ) ;
#1236 = ORIENTED_EDGE ( 'NONE', *, *, #663, .T. ) ;
#1237 = VECTOR ( 'NONE', #965, 1000.000000000000000 ) ;
#1238 = ORIENTED_EDGE ( 'NONE', *, *, #184, .T. ) ;
#1239 = CARTESIAN_POINT ( 'NONE',  ( -4.981065714214516045E-13, 1.599999999999983435, -18.75000000000001776 ) ) ;
#1240 = CIRCLE ( 'NONE', #32, 3.249999999999996003 ) ;
#1241 = ORIENTED_EDGE ( 'NONE', *, *, #490, .T. ) ;
#1242 = LINE ( 'NONE', #273, #510 ) ;
#1243 = AXIS2_PLACEMENT_3D ( 'NONE', #1019, #1114, #1109 ) ;
#1244 = CARTESIAN_POINT ( 'NONE',  ( 9.000000000000000000, -2.999999999999982681, -75.00000000000000000 ) ) ;
#1245 = EDGE_LOOP ( 'NONE', ( #1196, #260, #918, #888 ) ) ;
#1246 = EDGE_CURVE ( 'NONE', #832, #1152, #389, .T. ) ;
#1247 = VERTEX_POINT ( 'NONE', #34 ) ;
#1248 = DIRECTION ( 'NONE',  ( 0.000000000000000000, 0.000000000000000000, 1.000000000000000000 ) ) ;
#1249 = VERTEX_POINT ( 'NONE', #1018 ) ;
#1250 = CARTESIAN_POINT ( 'NONE',  ( -4.981065714214516045E-13, 1.599999999999983435, -18.75000000000001776 ) ) ;
#1251 = CARTESIAN_POINT ( 'NONE',  ( -9.000000000000000000, 2.999999999999982681, 75.00000000000000000 ) ) ;
#1252 = ORIENTED_EDGE ( 'NONE', *, *, #1254, .T. ) ;
#1253 = DIRECTION ( 'NONE',  ( 0.000000000000000000, 0.000000000000000000, 1.000000000000000000 ) ) ;
#1254 = EDGE_CURVE ( 'NONE', #154, #1267, #193, .T. ) ;
#1255 = ORIENTED_EDGE ( 'NONE', *, *, #1324, .F. ) ;
#1256 = DIRECTION ( 'NONE',  ( 0.000000000000000000, -1.000000000000000000, 0.000000000000000000 ) ) ;
#1257 = DIRECTION ( 'NONE',  ( -0.000000000000000000, 1.000000000000000000, -0.000000000000000000 ) ) ;
#1258 = ORIENTED_EDGE ( 'NONE', *, *, #552, .F. ) ;
#1259 = DIRECTION ( 'NONE',  ( -0.000000000000000000, 1.000000000000000000, -0.000000000000000000 ) ) ;
#1260 = CARTESIAN_POINT ( 'NONE',  ( 1.384504394756161982E-14, 4.999999999999984013, -57.95000000000001705 ) ) ;
#1261 = EDGE_CURVE ( 'NONE', #1, #1365, #63, .T. ) ;
#1262 = ORIENTED_EDGE ( 'NONE', *, *, #350, .T. ) ;
#1263 = CYLINDRICAL_SURFACE ( 'NONE', #1090, 3.249999999999996003 ) ;
#1264 = DIRECTION ( 'NONE',  ( 0.000000000000000000, 0.000000000000000000, 1.000000000000000000 ) ) ;
#1265 = VECTOR ( 'NONE', #49, 1000.000000000000000 ) ;
#1266 = EDGE_LOOP ( 'NONE', ( #741, #1300 ) ) ;
#1267 = VERTEX_POINT ( 'NONE', #347 ) ;
#1268 = AXIS2_PLACEMENT_3D ( 'NONE', #854, #308, #519 ) ;
#1269 = CARTESIAN_POINT ( 'NONE',  ( 0.000000000000000000, 0.000000000000000000, 0.000000000000000000 ) ) ;
#1270 = ORIENTED_EDGE ( 'NONE', *, *, #858, .T. ) ;
#1271 = CARTESIAN_POINT ( 'NONE',  ( 1.384504394756161825E-14, -7.999999999999983125, 54.54999999999998295 ) ) ;
#1272 = ADVANCED_FACE ( 'NONE', ( #890 ), #942, .F. ) ;
#1273 = FACE_OUTER_BOUND ( 'NONE', #474, .T. ) ;
#1274 = VERTEX_POINT ( 'NONE', #1345 ) ;
#1275 = DIRECTION ( 'NONE',  ( -0.000000000000000000, 1.000000000000000000, -0.000000000000000000 ) ) ;
#1276 = COORDINATED_UNIVERSAL_TIME_OFFSET ( 0, 0, .AHEAD. ) ;
#1277 = AXIS2_PLACEMENT_3D ( 'NONE', #675, #560, #42 ) ;
#1278 = VERTEX_POINT ( 'NONE', #698 ) ;
#1279 = DIRECTION ( 'NONE',  ( -0.000000000000000000, 1.000000000000000000, -0.000000000000000000 ) ) ;
#1280 = FACE_OUTER_BOUND ( 'NONE', #836, .T. ) ;
#1281 = ORIENTED_EDGE ( 'NONE', *, *, #24, .T. ) ;
#1282 = ADVANCED_FACE ( 'NONE', ( #604, #81 ), #58, .F. ) ;
#1283 = DIRECTION ( 'NONE',  ( 0.000000000000000000, 0.000000000000000000, 1.000000000000000000 ) ) ;
#1284 = MECHANICAL_CONTEXT ( 'NONE', #320, 'mechanical' ) ;
#1285 = ORIENTED_EDGE ( 'NONE', *, *, #425, .F. ) ;
#1286 = CARTESIAN_POINT ( 'NONE',  ( 1.363685399170656723E-14, 4.999999999999984013, 56.24999999999997868 ) ) ;
#1287 = DIRECTION ( 'NONE',  ( 0.000000000000000000, 0.000000000000000000, 1.000000000000000000 ) ) ;
#1288 = CIRCLE ( 'NONE', #1206, 3.249999999999996003 ) ;
#1289 = VERTEX_POINT ( 'NONE', #687 ) ;
#1290 = VECTOR ( 'NONE', #1074, 1000.000000000000000 ) ;
#1291 = CARTESIAN_POINT ( 'NONE',  ( 8.707106781186542577, -2.707106781186528366, -75.00000000000000000 ) ) ;
#1292 = EDGE_CURVE ( 'NONE', #1352, #64, #366, .T. ) ;
#1293 = APPROVAL_ROLE ( '' ) ;
#1294 = EDGE_CURVE ( 'NONE', #622, #1164, #1367, .T. ) ;
#1295 = ORIENTED_EDGE ( 'NONE', *, *, #490, .F. ) ;
#1296 = DIRECTION ( 'NONE',  ( -0.000000000000000000, 1.000000000000000000, -0.000000000000000000 ) ) ;
#1297 = FACE_OUTER_BOUND ( 'NONE', #553, .T. ) ;
#1298 = AXIS2_PLACEMENT_3D ( 'NONE', #685, #669, #1110 ) ;
#1299 = CARTESIAN_POINT ( 'NONE',  ( -7.500000000000001776, -1.500000000000000000, -75.00000000000000000 ) ) ;
#1300 = ORIENTED_EDGE ( 'NONE', *, *, #103, .F. ) ;
#1301 = FACE_OUTER_BOUND ( 'NONE', #82, .T. ) ;
#1302 = VECTOR ( 'NONE', #1023, 1000.000000000000000 ) ;
#1303 = CYLINDRICAL_SURFACE ( 'NONE', #179, 0.9999999999999991118 ) ;
#1304 = DIRECTION ( 'NONE',  ( -1.000000000000000000, -8.673617379884034486E-16, 0.000000000000000000 ) ) ;
#1305 = VECTOR ( 'NONE', #973, 1000.000000000000000 ) ;
#1306 = ORIENTED_EDGE ( 'NONE', *, *, #1124, .F. ) ;
#1307 = DIRECTION ( 'NONE',  ( 1.000000000000000000, 0.000000000000000000, 0.000000000000000000 ) ) ;
#1308 = EDGE_CURVE ( 'NONE', #485, #59, #503, .T. ) ;
#1309 = CIRCLE ( 'NONE', #201, 3.249999999999996003 ) ;
#1310 = DIRECTION ( 'NONE',  ( 0.7071067811865440200, 0.7071067811865511255, -0.000000000000000000 ) ) ;
#1311 = CARTESIAN_POINT ( 'NONE',  ( -9.000000000000000000, 3.414213562373079824, -75.00000000000000000 ) ) ;
#1312 = EDGE_LOOP ( 'NONE', ( #158, #191 ) ) ;
#1313 = DIRECTION ( 'NONE',  ( 0.000000000000000000, -0.000000000000000000, -1.000000000000000000 ) ) ;
#1314 = CARTESIAN_POINT ( 'NONE',  ( -8.707106781186542577, 2.707106781186528366, 75.00000000000000000 ) ) ;
#1315 = EDGE_CURVE ( 'NONE', #708, #5, #757, .T. ) ;
#1316 = FACE_OUTER_BOUND ( 'NONE', #1200, .T. ) ;
#1317 = EDGE_LOOP ( 'NONE', ( #1024, #541 ) ) ;
#1318 = ORIENTED_EDGE ( 'NONE', *, *, #1045, .T. ) ;
#1319 = DIRECTION ( 'NONE',  ( -0.000000000000000000, 1.000000000000000000, -0.000000000000000000 ) ) ;
#1320 = PLANE ( 'NONE',  #356 ) ;
#1321 = APPROVAL_PERSON_ORGANIZATION ( #427, #35, #1293 ) ;
#1322 = CARTESIAN_POINT ( 'NONE',  ( 9.000000000000000000, 3.414213562373080713, -75.00000000000000000 ) ) ;
#1323 = ORIENTED_EDGE ( 'NONE', *, *, #1032, .T. ) ;
#1324 = EDGE_CURVE ( 'NONE', #1175, #204, #483, .T. ) ;
#1325 = AXIS2_PLACEMENT_3D ( 'NONE', #469, #267, #1131 ) ;
#1326 = ORIENTED_EDGE ( 'NONE', *, *, #432, .T. ) ;
#1327 = LINE ( 'NONE', #448, #664 ) ;
#1328 = AXIS2_PLACEMENT_3D ( 'NONE', #1076, #126, #662 ) ;
#1329 = CARTESIAN_POINT ( 'NONE',  ( -9.000000000000005329, -7.999999999999983125, 75.00000000000000000 ) ) ;
#1330 = DIRECTION ( 'NONE',  ( -0.000000000000000000, -0.000000000000000000, 1.000000000000000000 ) ) ;
#1331 = ADVANCED_FACE ( 'NONE', ( #831 ), #595, .F. ) ;
#1332 = APPLICATION_CONTEXT ( 'configuration controlled 3d designs of mechanical parts and assemblies' ) ;
#1333 = DIRECTION ( 'NONE',  ( 0.000000000000000000, 0.000000000000000000, 1.000000000000000000 ) ) ;
#1334 = ADVANCED_FACE ( 'NONE', ( #822, #721, #1127, #89, #580 ), #370, .F. ) ;
#1335 = CARTESIAN_POINT ( 'NONE',  ( 9.000000000000000000, -2.999999999999982681, 75.00000000000000000 ) ) ;
#1336 = FACE_OUTER_BOUND ( 'NONE', #513, .T. ) ;
#1337 = ORIENTED_EDGE ( 'NONE', *, *, #363, .F. ) ;
#1338 = CARTESIAN_POINT ( 'NONE',  ( -8.707106781186542577, -2.707106781186528366, -75.00000000000000000 ) ) ;
#1339 = ORIENTED_EDGE ( 'NONE', *, *, #676, .F. ) ;
#1340 = FACE_BOUND ( 'NONE', #610, .T. ) ;
#1341 = CARTESIAN_POINT ( 'NONE',  ( -8.999999999999998224, 4.999999999999983125, 75.00000000000000000 ) ) ;
#1342 = VERTEX_POINT ( 'NONE', #612 ) ;
#1343 = APPROVAL_PERSON_ORGANIZATION ( #736, #629, #419 ) ;
#1344 = VECTOR ( 'NONE', #452, 1000.000000000000000 ) ;
#1345 = CARTESIAN_POINT ( 'NONE',  ( -4.981065714214516045E-13, -7.999999999999983125, -17.05000000000001492 ) ) ;
#1346 = ORIENTED_EDGE ( 'NONE', *, *, #1029, .T. ) ;
#1347 = CARTESIAN_POINT ( 'NONE',  ( 1.403486420142945804E-14, 4.999999999999984013, -59.50000000000000711 ) ) ;
#1348 = EDGE_CURVE ( 'NONE', #67, #908, #1159, .T. ) ;
#1349 = CARTESIAN_POINT ( 'NONE',  ( -4.981065714214516045E-13, 1.599999999999983435, -17.05000000000000426 ) ) ;
#1350 = ORIENTED_EDGE ( 'NONE', *, *, #134, .T. ) ;
#1351 = CIRCLE ( 'NONE', #1375, 1.700000000000013944 ) ;
#1352 = VERTEX_POINT ( 'NONE', #290 ) ;
#1353 = CARTESIAN_POINT ( 'NONE',  ( 9.000000000000000000, 2.999999999999983125, 75.00000000000000000 ) ) ;
#1354 = VERTEX_POINT ( 'NONE', #1338 ) ;
#1355 = LINE ( 'NONE', #1145, #234 ) ;
#1356 = EDGE_CURVE ( 'NONE', #1027, #617, #479, .T. ) ;
#1357 = CARTESIAN_POINT ( 'NONE',  ( -9.000000000000000000, -2.999999999999982681, 75.00000000000000000 ) ) ;
#1358 = ORIENTED_EDGE ( 'NONE', *, *, #18, .T. ) ;
#1359 = ORIENTED_EDGE ( 'NONE', *, *, #1042, .F. ) ;
#1360 = AXIS2_PLACEMENT_3D ( 'NONE', #124, #214, #962 ) ;
#1361 = FACE_OUTER_BOUND ( 'NONE', #1366, .T. ) ;
#1362 = ORIENTED_EDGE ( 'NONE', *, *, #960, .T. ) ;
#1363 = FACE_OUTER_BOUND ( 'NONE', #453, .T. ) ;
#1364 = DIRECTION ( 'NONE',  ( 0.7071067811865524577, 0.7071067811865426878, -0.000000000000000000 ) ) ;
#1365 = VERTEX_POINT ( 'NONE', #65 ) ;
#1366 = EDGE_LOOP ( 'NONE', ( #352, #1362, #1233, #302 ) ) ;
#1367 = CIRCLE ( 'NONE', #109, 3.249999999999996003 ) ;
#1368 = EDGE_CURVE ( 'NONE', #1164, #1, #487, .T. ) ;
#1369 = DIRECTION ( 'NONE',  ( 0.000000000000000000, 0.000000000000000000, 1.000000000000000000 ) ) ;
#1370 = EDGE_LOOP ( 'NONE', ( #811, #1339, #1295, #733 ) ) ;
#1371 = CARTESIAN_POINT ( 'NONE',  ( 1.363685399170656723E-14, -7.999999999999983125, 56.24999999999997868 ) ) ;
#1372 = DIRECTION ( 'NONE',  ( -0.000000000000000000, 1.000000000000000000, -0.000000000000000000 ) ) ;
#1373 = ORIENTED_EDGE ( 'NONE', *, *, #144, .F. ) ;
#1374 = FACE_OUTER_BOUND ( 'NONE', #281, .T. ) ;
#1375 = AXIS2_PLACEMENT_3D ( 'NONE', #276, #1060, #392 ) ;
#1376 = ADVANCED_FACE ( 'NONE', ( #1361 ), #496, .F. ) ;
#1377 = ORIENTED_EDGE ( 'NONE', *, *, #917, .F. ) ;
#1378 = CARTESIAN_POINT ( 'NONE',  ( 1.699999999999514122, 1.599999999999983435, -18.75000000000001776 ) ) ;
#1379 = CARTESIAN_POINT ( 'NONE',  ( -7.999999999999998224, -3.414213562373078936, -75.00000000000000000 ) ) ;
#1380 = ORIENTED_EDGE ( 'NONE', *, *, #537, .F. ) ;
#1381 = DIRECTION ( 'NONE',  ( -0.000000000000000000, 1.000000000000000000, -0.000000000000000000 ) ) ;
#1382 = PERSON_AND_ORGANIZATION ( #857, #243 ) ;
#1383 = ORIENTED_EDGE ( 'NONE', *, *, #527, .T. ) ;
#1384 = LINE ( 'NONE', #968, #465 ) ;
#1385 = CARTESIAN_POINT ( 'NONE',  ( -8.999999999999996447, -7.000000000000009770, -75.00000000000000000 ) ) ;
#1386 = ORIENTED_EDGE ( 'NONE', *, *, #449, .F. ) ;
#1387 = CYLINDRICAL_SURFACE ( 'NONE', #249, 3.249999999999996003 ) ;
#1388 = LOCAL_TIME ( 10, 19, 44.00000000000000000, #1195 ) ;
#1389 = COORDINATED_UNIVERSAL_TIME_OFFSET ( 0, 0, .AHEAD. ) ;
ENDSEC;
END-ISO-10303-21;
