ISO-10303-21;
HEADER;
FILE_DESCRIPTION (( 'STEP AP203' ),
    '1' );
FILE_NAME ('container.STEP',
    '2025-11-24T20:07:59',
    ( '' ),
    ( '' ),
    '',
    '',
    '' );
FILE_SCHEMA (( 'CONFIG_CONTROL_DESIGN' ));
ENDSEC;

DATA;
#1 = CARTESIAN_POINT ( 'NONE',  ( 0.000000000000000000, 0.000000000000000000, 0.000000000000000000 ) ) ;
#2 = EDGE_CURVE ( 'NONE', #210, #494, #235, .T. ) ;
#3 = ORIENTED_EDGE ( 'NONE', *, *, #151, .T. ) ;
#4 = DIRECTION ( 'NONE',  ( 0.000000000000000000, 0.000000000000000000, -1.000000000000000000 ) ) ;
#5 = VECTOR ( 'NONE', #316, 1000.000000000000000 ) ;
#6 = LINE ( 'NONE', #343, #60 ) ;
#7 = CARTESIAN_POINT ( 'NONE',  ( 7.347880794884119736E-16, 0.000000000000000000, -6.000000000000000000 ) ) ;
#8 = ORIENTED_EDGE ( 'NONE', *, *, #353, .F. ) ;
#9 = EDGE_CURVE ( 'NONE', #222, #201, #97, .T. ) ;
#10 = ORIENTED_EDGE ( 'NONE', *, *, #442, .F. ) ;
#11 = DIRECTION ( 'NONE',  ( 0.000000000000000000, 0.000000000000000000, 1.000000000000000000 ) ) ;
#12 = AXIS2_PLACEMENT_3D ( 'NONE', #481, #255, #211 ) ;
#13 = VERTEX_POINT ( 'NONE', #273 ) ;
#14 = DIRECTION ( 'NONE',  ( -0.000000000000000000, 1.000000000000000000, 0.000000000000000000 ) ) ;
#15 = FACE_BOUND ( 'NONE', #120, .T. ) ;
#16 = EDGE_LOOP ( 'NONE', ( #129, #41 ) ) ;
#17 = CARTESIAN_POINT ( 'NONE',  ( 1.836970198721029589E-15, 21.99999999999999645, -15.00000000000000000 ) ) ;
#18 = ADVANCED_FACE ( 'NONE', ( #183 ), #503, .T. ) ;
#19 = FACE_OUTER_BOUND ( 'NONE', #16, .T. ) ;
#20 = FACE_OUTER_BOUND ( 'NONE', #403, .T. ) ;
#21 = AXIS2_PLACEMENT_3D ( 'NONE', #445, #208, #138 ) ;
#22 = AXIS2_PLACEMENT_3D ( 'NONE', #401, #14, #175 ) ;
#23 = VECTOR ( 'NONE', #376, 1000.000000000000000 ) ;
#24 = DIRECTION ( 'NONE',  ( 0.000000000000000000, -1.000000000000000000, 0.000000000000000000 ) ) ;
#25 = CALENDAR_DATE ( 2025, 24, 11 ) ;
#26 = EDGE_CURVE ( 'NONE', #431, #494, #462, .T. ) ;
#27 = DIRECTION ( 'NONE',  ( 0.000000000000000000, -0.000000000000000000, -1.000000000000000000 ) ) ;
#28 = EDGE_LOOP ( 'NONE', ( #244, #443, #270, #68 ) ) ;
#29 = FACE_OUTER_BOUND ( 'NONE', #258, .T. ) ;
#30 = AXIS2_PLACEMENT_3D ( 'NONE', #243, #472, #476 ) ;
#31 = ORIENTED_EDGE ( 'NONE', *, *, #436, .F. ) ;
#32 = COORDINATED_UNIVERSAL_TIME_OFFSET ( 0, 0, .AHEAD. ) ;
#33 = LOCAL_TIME ( 20, 7, 59.00000000000000000, #385 ) ;
#34 = FACE_BOUND ( 'NONE', #370, .T. ) ;
#35 = APPLICATION_PROTOCOL_DEFINITION ( 'international standard', 'config_control_design', 1994, #261 ) ;
#36 = DIRECTION ( 'NONE',  ( -0.000000000000000000, 1.000000000000000000, -0.000000000000000000 ) ) ;
#37 = ADVANCED_FACE ( 'NONE', ( #78 ), #161, .T. ) ;
#38 = FACE_OUTER_BOUND ( 'NONE', #455, .T. ) ;
#39 = CIRCLE ( 'NONE', #305, 7.599999999999998757 ) ;
#40 = DIRECTION ( 'NONE',  ( -0.000000000000000000, 1.000000000000000000, -0.000000000000000000 ) ) ;
#41 = ORIENTED_EDGE ( 'NONE', *, *, #204, .T. ) ;
#42 = CARTESIAN_POINT ( 'NONE',  ( 0.000000000000000000, -2.332798677367345844E-16, 0.000000000000000000 ) ) ;
#43 = CARTESIAN_POINT ( 'NONE',  ( 0.000000000000000000, -7.000000000000000000, 0.000000000000000000 ) ) ;
#44 = DIRECTION ( 'NONE',  ( 0.000000000000000000, 0.000000000000000000, 1.000000000000000000 ) ) ;
#45 = DIRECTION ( 'NONE',  ( 0.000000000000000000, -1.000000000000000000, 0.000000000000000000 ) ) ;
#46 = ORIENTED_EDGE ( 'NONE', *, *, #128, .F. ) ;
#47 = AXIS2_PLACEMENT_3D ( 'NONE', #475, #50, #44 ) ;
#48 = DIRECTION ( 'NONE',  ( -0.000000000000000000, 1.000000000000000000, -0.000000000000000000 ) ) ;
#49 = ORIENTED_EDGE ( 'NONE', *, *, #383, .F. ) ;
#50 = DIRECTION ( 'NONE',  ( -0.000000000000000000, 1.000000000000000000, -0.000000000000000000 ) ) ;
#51 = ADVANCED_FACE ( 'NONE', ( #285, #391 ), #433, .F. ) ;
#52 = VERTEX_POINT ( 'NONE', #192 ) ;
#53 = AXIS2_PLACEMENT_3D ( 'NONE', #43, #398, #101 ) ;
#54 = CIRCLE ( 'NONE', #135, 15.00000000000000000 ) ;
#55 = ORIENTED_EDGE ( 'NONE', *, *, #361, .F. ) ;
#56 = DIRECTION ( 'NONE',  ( 0.000000000000000000, 0.000000000000000000, 1.000000000000000000 ) ) ;
#57 = DIRECTION ( 'NONE',  ( 0.000000000000000000, 0.000000000000000000, 1.000000000000000000 ) ) ;
#58 = PRODUCT_RELATED_PRODUCT_CATEGORY ( 'detail', '', ( #355 ) ) ;
#59 = DIRECTION ( 'NONE',  ( -0.000000000000000000, 1.000000000000000000, -0.000000000000000000 ) ) ;
#60 = VECTOR ( 'NONE', #293, 1000.000000000000000 ) ;
#61 = ORIENTED_EDGE ( 'NONE', *, *, #345, .T. ) ;
#62 = ADVANCED_FACE ( 'NONE', ( #284 ), #280, .F. ) ;
#63 = LOCAL_TIME ( 20, 7, 59.00000000000000000, #278 ) ;
#64 = DIRECTION ( 'NONE',  ( 0.000000000000000000, 0.000000000000000000, 1.000000000000000000 ) ) ;
#65 = VERTEX_POINT ( 'NONE', #508 ) ;
#66 = APPROVAL_STATUS ( 'not_yet_approved' ) ;
#67 = PLANE ( 'NONE',  #272 ) ;
#68 = ORIENTED_EDGE ( 'NONE', *, *, #353, .T. ) ;
#69 = PERSON_AND_ORGANIZATION_ROLE ( 'classification_officer' ) ;
#70 = FACE_OUTER_BOUND ( 'NONE', #423, .T. ) ;
#71 = AXIS2_PLACEMENT_3D ( 'NONE', #199, #76, #323 ) ;
#72 = AXIS2_PLACEMENT_3D ( 'NONE', #277, #195, #348 ) ;
#73 = CARTESIAN_POINT ( 'NONE',  ( 0.000000000000000000, -5.999999999999993783, 0.000000000000000000 ) ) ;
#74 = ORIENTED_EDGE ( 'NONE', *, *, #436, .T. ) ;
#75 = DATE_TIME_ROLE ( 'creation_date' ) ;
#76 = DIRECTION ( 'NONE',  ( -0.000000000000000000, 1.000000000000000000, 0.000000000000000000 ) ) ;
#77 = DIRECTION ( 'NONE',  ( 0.000000000000000000, 0.000000000000000000, 1.000000000000000000 ) ) ;
#78 = FACE_OUTER_BOUND ( 'NONE', #112, .T. ) ;
#79 = LOCAL_TIME ( 20, 7, 59.00000000000000000, #416 ) ;
#80 = DIRECTION ( 'NONE',  ( 0.000000000000000000, 0.000000000000000000, 1.000000000000000000 ) ) ;
#81 = ORIENTED_EDGE ( 'NONE', *, *, #257, .T. ) ;
#82 = EDGE_CURVE ( 'NONE', #434, #431, #206, .T. ) ;
#83 = DIRECTION ( 'NONE',  ( 0.000000000000000000, 0.000000000000000000, 1.000000000000000000 ) ) ;
#84 = APPLICATION_CONTEXT ( 'configuration controlled 3d designs of mechanical parts and assemblies' ) ;
#85 = ORIENTED_EDGE ( 'NONE', *, *, #82, .T. ) ;
#86 = DIRECTION ( 'NONE',  ( 0.000000000000000000, -1.000000000000000000, 0.000000000000000000 ) ) ;
#87 = DIRECTION ( 'NONE',  ( -0.000000000000000000, 1.000000000000000000, -0.000000000000000000 ) ) ;
#88 = ORIENTED_EDGE ( 'NONE', *, *, #171, .T. ) ;
#89 = CIRCLE ( 'NONE', #224, 4.599999999999999645 ) ;
#90 = DIRECTION ( 'NONE',  ( 0.000000000000000000, 0.000000000000000000, 1.000000000000000000 ) ) ;
#91 = CIRCLE ( 'NONE', #389, 6.000000000000000000 ) ;
#92 = ORIENTED_EDGE ( 'NONE', *, *, #303, .F. ) ;
#93 = CARTESIAN_POINT ( 'NONE',  ( 0.000000000000000000, -5.000000000000000000, 0.000000000000000000 ) ) ;
#94 = ORIENTED_EDGE ( 'NONE', *, *, #151, .F. ) ;
#95 = CARTESIAN_POINT ( 'NONE',  ( 5.633375276077825098E-16, -5.000000000000000000, -4.600000000000000533 ) ) ;
#96 = DIRECTION ( 'NONE',  ( -0.000000000000000000, 1.000000000000000000, -0.000000000000000000 ) ) ;
#97 = CIRCLE ( 'NONE', #250, 6.000000000000000000 ) ;
#98 = AXIS2_PLACEMENT_3D ( 'NONE', #378, #266, #57 ) ;
#99 = ORIENTED_EDGE ( 'NONE', *, *, #204, .F. ) ;
#100 = MECHANICAL_CONTEXT ( 'NONE', #84, 'mechanical' ) ;
#101 = DIRECTION ( 'NONE',  ( 0.000000000000000000, 0.000000000000000000, 1.000000000000000000 ) ) ;
#102 = ADVANCED_FACE ( 'NONE', ( #426 ), #150, .F. ) ;
#103 = PERSON_AND_ORGANIZATION ( #140, #297 ) ;
#104 = CC_DESIGN_APPROVAL ( #325, ( #119 ) ) ;
#105 = EDGE_LOOP ( 'NONE', ( #364, #148 ) ) ;
#106 = DATE_AND_TIME ( #25, #127 ) ;
#107 = CARTESIAN_POINT ( 'NONE',  ( 1.836970198721029589E-15, 0.000000000000000000, -15.00000000000000000 ) ) ;
#108 = EDGE_CURVE ( 'NONE', #457, #478, #360, .T. ) ;
#109 = DIRECTION ( 'NONE',  ( 0.000000000000000000, 0.000000000000000000, 1.000000000000000000 ) ) ;
#110 = AXIS2_PLACEMENT_3D ( 'NONE', #390, #474, #505 ) ;
#111 = AXIS2_PLACEMENT_3D ( 'NONE', #386, #507, #64 ) ;
#112 = EDGE_LOOP ( 'NONE', ( #122, #294, #344, #334 ) ) ;
#113 = APPROVAL_DATE_TIME ( #106, #325 ) ;
#114 = APPROVAL ( #460, 'UNSPECIFIED' ) ;
#115 = DIRECTION ( 'NONE',  ( 0.000000000000000000, 0.000000000000000000, -1.000000000000000000 ) ) ;
#116 = ORIENTED_EDGE ( 'NONE', *, *, #9, .F. ) ;
#117 = EDGE_CURVE ( 'NONE', #470, #231, #321, .T. ) ;
#118 = ORIENTED_EDGE ( 'NONE', *, *, #409, .F. ) ;
#119 = PRODUCT_DEFINITION ( 'UNKNOWN', '', #298, #487 ) ;
#120 = EDGE_LOOP ( 'NONE', ( #55, #451 ) ) ;
#121 = DIRECTION ( 'NONE',  ( -0.000000000000000000, 1.000000000000000000, -0.000000000000000000 ) ) ;
#122 = ORIENTED_EDGE ( 'NONE', *, *, #147, .F. ) ;
#123 = CARTESIAN_POINT ( 'NONE',  ( 0.000000000000000000, 0.000000000000000000, 0.000000000000000000 ) ) ;
#124 = VERTEX_POINT ( 'NONE', #430 ) ;
#125 = EDGE_CURVE ( 'NONE', #193, #181, #397, .T. ) ;
#126 = ORIENTED_EDGE ( 'NONE', *, *, #108, .F. ) ;
#127 = LOCAL_TIME ( 20, 7, 59.00000000000000000, #274 ) ;
#128 = EDGE_CURVE ( 'NONE', #218, #314, #492, .T. ) ;
#129 = ORIENTED_EDGE ( 'NONE', *, *, #137, .T. ) ;
#130 = CARTESIAN_POINT ( 'NONE',  ( 0.000000000000000000, 0.000000000000000000, 0.000000000000000000 ) ) ;
#131 = PERSON_AND_ORGANIZATION_ROLE ( 'design_owner' ) ;
#132 = CC_DESIGN_PERSON_AND_ORGANIZATION_ASSIGNMENT ( #495, #229, ( #298 ) ) ;
#133 =( NAMED_UNIT ( * ) PLANE_ANGLE_UNIT ( ) SI_UNIT ( $, .RADIAN. ) );
#134 = DIRECTION ( 'NONE',  ( 0.000000000000000000, 0.000000000000000000, 1.000000000000000000 ) ) ;
#135 = AXIS2_PLACEMENT_3D ( 'NONE', #73, #236, #154 ) ;
#136 = CARTESIAN_POINT ( 'NONE',  ( 0.000000000000000000, 0.000000000000000000, 0.000000000000000000 ) ) ;
#137 = EDGE_CURVE ( 'NONE', #52, #124, #466, .T. ) ;
#138 = DIRECTION ( 'NONE',  ( 0.000000000000000000, 0.000000000000000000, -1.000000000000000000 ) ) ;
#139 = ORIENTED_EDGE ( 'NONE', *, *, #330, .F. ) ;
#140 = PERSON ( 'UNSPECIFIED', 'UNSPECIFIED', 'UNSPECIFIED', ('UNSPECIFIED'), ('UNSPECIFIED'), ('UNSPECIFIED') ) ;
#141 = ADVANCED_FACE ( 'NONE', ( #437 ), #268, .T. ) ;
#142 = CARTESIAN_POINT ( 'NONE',  ( 0.000000000000000000, 0.000000000000000000, 0.000000000000000000 ) ) ;
#143 = DIRECTION ( 'NONE',  ( 0.000000000000000000, 0.000000000000000000, 1.000000000000000000 ) ) ;
#144 = DATE_AND_TIME ( #149, #79 ) ;
#145 = VECTOR ( 'NONE', #156, 1000.000000000000000 ) ;
#146 = DIRECTION ( 'NONE',  ( -0.000000000000000000, 1.000000000000000000, -0.000000000000000000 ) ) ;
#147 = EDGE_CURVE ( 'NONE', #470, #210, #358, .T. ) ;
#148 = ORIENTED_EDGE ( 'NONE', *, *, #383, .T. ) ;
#149 = CALENDAR_DATE ( 2025, 24, 11 ) ;
#150 = CYLINDRICAL_SURFACE ( 'NONE', #177, 4.599999999999999645 ) ;
#151 = EDGE_CURVE ( 'NONE', #418, #337, #340, .T. ) ;
#152 = ORIENTED_EDGE ( 'NONE', *, *, #237, .F. ) ;
#153 = PERSON_AND_ORGANIZATION ( #140, #297 ) ;
#154 = DIRECTION ( 'NONE',  ( 0.000000000000000000, 0.000000000000000000, 1.000000000000000000 ) ) ;
#155 = AXIS2_PLACEMENT_3D ( 'NONE', #249, #497, #450 ) ;
#156 = DIRECTION ( 'NONE',  ( -0.000000000000000000, 1.000000000000000000, -0.000000000000000000 ) ) ;
#157 = ORIENTED_EDGE ( 'NONE', *, *, #330, .T. ) ;
#158 = DIRECTION ( 'NONE',  ( 0.000000000000000000, -1.000000000000000000, 0.000000000000000000 ) ) ;
#159 = EDGE_CURVE ( 'NONE', #314, #13, #6, .T. ) ;
#160 = CARTESIAN_POINT ( 'NONE',  ( 1.714505518806294244E-15, 23.00000000000000000, 13.99999999999999645 ) ) ;
#161 = CONICAL_SURFACE ( 'NONE', #30, 13.99999999999999645, 0.7853981633974473908 ) ;
#162 = CIRCLE ( 'NONE', #342, 7.599999999999999645 ) ;
#163 = CARTESIAN_POINT ( 'NONE',  ( 0.000000000000000000, -7.000000000000000000, 0.000000000000000000 ) ) ;
#164 = EDGE_LOOP ( 'NONE', ( #363, #347, #368, #8 ) ) ;
#165 = DIRECTION ( 'NONE',  ( -0.000000000000000000, 1.000000000000000000, -0.000000000000000000 ) ) ;
#166 = ORIENTED_EDGE ( 'NONE', *, *, #493, .T. ) ;
#167 = DIRECTION ( 'NONE',  ( 0.000000000000000000, 0.000000000000000000, -1.000000000000000000 ) ) ;
#168 = AXIS2_PLACEMENT_3D ( 'NONE', #123, #435, #90 ) ;
#169 = ORIENTED_EDGE ( 'NONE', *, *, #147, .T. ) ;
#170 = CARTESIAN_POINT ( 'NONE',  ( 7.347880794884119736E-16, -5.000000000000000000, -6.000000000000000000 ) ) ;
#171 = EDGE_CURVE ( 'NONE', #478, #337, #89, .T. ) ;
#172 = DIRECTION ( 'NONE',  ( 0.000000000000000000, 0.7071067811865474617, 0.7071067811865474617 ) ) ;
#173 = DIRECTION ( 'NONE',  ( 0.000000000000000000, 0.000000000000000000, 1.000000000000000000 ) ) ;
#174 = CARTESIAN_POINT ( 'NONE',  ( 0.000000000000000000, 0.000000000000000000, 0.000000000000000000 ) ) ;
#175 = DIRECTION ( 'NONE',  ( 0.000000000000000000, 0.000000000000000000, 1.000000000000000000 ) ) ;
#176 = FACE_OUTER_BOUND ( 'NONE', #300, .T. ) ;
#177 = AXIS2_PLACEMENT_3D ( 'NONE', #1, #36, #80 ) ;
#178 = VECTOR ( 'NONE', #410, 1000.000000000000000 ) ;
#179 = LOCAL_TIME ( 20, 7, 59.00000000000000000, #32 ) ;
#180 = PERSON_AND_ORGANIZATION_ROLE ( 'design_supplier' ) ;
#181 = VERTEX_POINT ( 'NONE', #367 ) ;
#182 = CARTESIAN_POINT ( 'NONE',  ( 0.000000000000000000, -5.000000000000000000, 0.000000000000000000 ) ) ;
#183 = FACE_OUTER_BOUND ( 'NONE', #392, .T. ) ;
#184 = ORIENTED_EDGE ( 'NONE', *, *, #26, .T. ) ;
#185 = CYLINDRICAL_SURFACE ( 'NONE', #111, 4.599999999999999645 ) ;
#186 = ADVANCED_FACE ( 'NONE', ( #176 ), #313, .T. ) ;
#187 = VECTOR ( 'NONE', #172, 1000.000000000000114 ) ;
#188 = CARTESIAN_POINT ( 'NONE',  ( 0.000000000000000000, -5.000000000000000000, 0.000000000000000000 ) ) ;
#189 = SHAPE_DEFINITION_REPRESENTATION ( #230, #196 ) ;
#190 = CARTESIAN_POINT ( 'NONE',  ( 0.000000000000000000, 23.00000000000000000, 0.000000000000000000 ) ) ;
#191 = CC_DESIGN_DATE_AND_TIME_ASSIGNMENT ( #351, #419, ( #469 ) ) ;
#192 = CARTESIAN_POINT ( 'NONE',  ( 0.000000000000000000, -7.000000000000000000, 13.99999999999999289 ) ) ;
#193 = VERTEX_POINT ( 'NONE', #346 ) ;
#194 = APPROVAL_STATUS ( 'not_yet_approved' ) ;
#195 = DIRECTION ( 'NONE',  ( -0.000000000000000000, 1.000000000000000000, -0.000000000000000000 ) ) ;
#196 = ADVANCED_BREP_SHAPE_REPRESENTATION ( 'container', ( #254, #359 ), #225 ) ;
#197 = DIRECTION ( 'NONE',  ( -0.000000000000000000, 1.000000000000000000, -0.000000000000000000 ) ) ;
#198 = CIRCLE ( 'NONE', #422, 13.99999999999999289 ) ;
#199 = CARTESIAN_POINT ( 'NONE',  ( 4.600000000000000533, -5.000000000000000000, 0.000000000000000000 ) ) ;
#200 = CONICAL_SURFACE ( 'NONE', #484, 15.00000000000000000, 0.7853981633974482790 ) ;
#201 = VERTEX_POINT ( 'NONE', #308 ) ;
#202 = ORIENTED_EDGE ( 'NONE', *, *, #496, .F. ) ;
#203 = CARTESIAN_POINT ( 'NONE',  ( 0.000000000000000000, 21.99999999999999645, 0.000000000000000000 ) ) ;
#204 = EDGE_CURVE ( 'NONE', #124, #52, #198, .T. ) ;
#205 = EDGE_LOOP ( 'NONE', ( #286, #46, #166, #452 ) ) ;
#206 = CIRCLE ( 'NONE', #483, 15.00000000000000000 ) ;
#207 = AXIS2_PLACEMENT_3D ( 'NONE', #190, #356, #115 ) ;
#208 = DIRECTION ( 'NONE',  ( -0.000000000000000000, 1.000000000000000000, -0.000000000000000000 ) ) ;
#209 = CC_DESIGN_DATE_AND_TIME_ASSIGNMENT ( #144, #75, ( #119 ) ) ;
#210 = VERTEX_POINT ( 'NONE', #382 ) ;
#211 = DIRECTION ( 'NONE',  ( 0.000000000000000000, 0.000000000000000000, 1.000000000000000000 ) ) ;
#212 = UNCERTAINTY_MEASURE_WITH_UNIT (LENGTH_MEASURE( 1.000000000000000082E-05 ), #223, 'distance_accuracy_value', 'NONE');
#213 = ORIENTED_EDGE ( 'NONE', *, *, #128, .T. ) ;
#214 = ADVANCED_FACE ( 'NONE', ( #15, #20 ), #456, .F. ) ;
#215 = PLANE ( 'NONE',  #22 ) ;
#216 = CARTESIAN_POINT ( 'NONE',  ( 0.000000000000000000, -5.000000000000000000, 0.000000000000000000 ) ) ;
#217 = CIRCLE ( 'NONE', #253, 4.600000000000000533 ) ;
#218 = VERTEX_POINT ( 'NONE', #328 ) ;
#219 = FACE_BOUND ( 'NONE', #105, .T. ) ;
#220 = LINE ( 'NONE', #408, #5 ) ;
#221 = CARTESIAN_POINT ( 'NONE',  ( 0.000000000000000000, 0.000000000000000000, 4.599999999999999645 ) ) ;
#222 = VERTEX_POINT ( 'NONE', #170 ) ;
#223 =( LENGTH_UNIT ( ) NAMED_UNIT ( * ) SI_UNIT ( .MILLI., .METRE. ) );
#224 = AXIS2_PLACEMENT_3D ( 'NONE', #309, #87, #134 ) ;
#225 =( GEOMETRIC_REPRESENTATION_CONTEXT ( 3 ) GLOBAL_UNCERTAINTY_ASSIGNED_CONTEXT ( ( #212 ) ) GLOBAL_UNIT_ASSIGNED_CONTEXT ( ( #223, #133, #304 ) ) REPRESENTATION_CONTEXT ( 'NONE', 'WORKASPACE' ) );
#226 = APPROVAL_PERSON_ORGANIZATION ( #317, #439, #232 ) ;
#227 = CARTESIAN_POINT ( 'NONE',  ( 0.000000000000000000, 23.00000000000000000, -13.99999999999999645 ) ) ;
#228 = DIRECTION ( 'NONE',  ( -0.000000000000000000, 1.000000000000000000, -0.000000000000000000 ) ) ;
#229 = PERSON_AND_ORGANIZATION_ROLE ( 'creator' ) ;
#230 = PRODUCT_DEFINITION_SHAPE ( 'NONE', 'NONE',  #119 ) ;
#231 = VERTEX_POINT ( 'NONE', #489 ) ;
#232 = APPROVAL_ROLE ( '' ) ;
#233 = CARTESIAN_POINT ( 'NONE',  ( 0.000000000000000000, 0.000000000000000000, 0.000000000000000000 ) ) ;
#234 = VECTOR ( 'NONE', #165, 1000.000000000000000 ) ;
#235 = LINE ( 'NONE', #227, #428 ) ;
#236 = DIRECTION ( 'NONE',  ( -0.000000000000000000, 1.000000000000000000, -0.000000000000000000 ) ) ;
#237 = EDGE_CURVE ( 'NONE', #65, #13, #39, .T. ) ;
#238 = DIRECTION ( 'NONE',  ( 0.000000000000000000, 0.000000000000000000, 1.000000000000000000 ) ) ;
#239 = DATE_AND_TIME ( #312, #179 ) ;
#240 = CARTESIAN_POINT ( 'NONE',  ( 1.836970198721029589E-15, -5.999999999999993783, -15.00000000000000000 ) ) ;
#241 = CIRCLE ( 'NONE', #447, 15.00000000000000000 ) ;
#242 = DIRECTION ( 'NONE',  ( -0.000000000000000000, 1.000000000000000000, -0.000000000000000000 ) ) ;
#243 = CARTESIAN_POINT ( 'NONE',  ( 0.000000000000000000, 23.00000000000000000, 0.000000000000000000 ) ) ;
#244 = ORIENTED_EDGE ( 'NONE', *, *, #26, .F. ) ;
#245 = EDGE_CURVE ( 'NONE', #193, #201, #220, .T. ) ;
#246 = DIRECTION ( 'NONE',  ( 0.000000000000000000, 0.000000000000000000, 1.000000000000000000 ) ) ;
#247 = ORIENTED_EDGE ( 'NONE', *, *, #9, .T. ) ;
#248 = EDGE_CURVE ( 'NONE', #457, #418, #217, .T. ) ;
#249 = CARTESIAN_POINT ( 'NONE',  ( 0.000000000000000000, -7.000000000000000000, 0.000000000000000000 ) ) ;
#250 = AXIS2_PLACEMENT_3D ( 'NONE', #188, #228, #143 ) ;
#251 = ORIENTED_EDGE ( 'NONE', *, *, #137, .F. ) ;
#252 = CIRCLE ( 'NONE', #412, 4.600000000000000533 ) ;
#253 = AXIS2_PLACEMENT_3D ( 'NONE', #182, #502, #109 ) ;
#254 = MANIFOLD_SOLID_BREP ( 'Chamfer2', #372 ) ;
#255 = DIRECTION ( 'NONE',  ( -0.000000000000000000, 1.000000000000000000, -0.000000000000000000 ) ) ;
#256 = CC_DESIGN_SECURITY_CLASSIFICATION ( #469, ( #298 ) ) ;
#257 = EDGE_CURVE ( 'NONE', #210, #470, #335, .T. ) ;
#258 = EDGE_LOOP ( 'NONE', ( #126, #202, #3, #499 ) ) ;
#259 = DIRECTION ( 'NONE',  ( 0.000000000000000000, 0.000000000000000000, 1.000000000000000000 ) ) ;
#260 = LINE ( 'NONE', #267, #178 ) ;
#261 = APPLICATION_CONTEXT ( 'configuration controlled 3d designs of mechanical parts and assemblies' ) ;
#262 = EDGE_LOOP ( 'NONE', ( #139, #473, #269, #299 ) ) ;
#263 = DIRECTION ( 'NONE',  ( 0.000000000000000000, 0.000000000000000000, 1.000000000000000000 ) ) ;
#264 = LINE ( 'NONE', #341, #187 ) ;
#265 = ADVANCED_FACE ( 'NONE', ( #38, #34 ), #67, .F. ) ;
#266 = DIRECTION ( 'NONE',  ( -0.000000000000000000, 1.000000000000000000, -0.000000000000000000 ) ) ;
#267 = CARTESIAN_POINT ( 'NONE',  ( 0.000000000000000000, 0.000000000000000000, 15.00000000000000000 ) ) ;
#268 = CYLINDRICAL_SURFACE ( 'NONE', #379, 15.00000000000000000 ) ;
#269 = ORIENTED_EDGE ( 'NONE', *, *, #283, .T. ) ;
#270 = ORIENTED_EDGE ( 'NONE', *, *, #442, .T. ) ;
#271 = APPROVAL_DATE_TIME ( #384, #114 ) ;
#272 = AXIS2_PLACEMENT_3D ( 'NONE', #414, #158, #27 ) ;
#273 = CARTESIAN_POINT ( 'NONE',  ( 9.307315673519883487E-16, 23.00000000000000000, -7.599999999999998757 ) ) ;
#274 = COORDINATED_UNIVERSAL_TIME_OFFSET ( 0, 0, .AHEAD. ) ;
#275 = DIRECTION ( 'NONE',  ( 0.000000000000000000, 0.000000000000000000, 1.000000000000000000 ) ) ;
#276 = PERSON_AND_ORGANIZATION ( #140, #297 ) ;
#277 = CARTESIAN_POINT ( 'NONE',  ( 0.000000000000000000, 23.00000000000000000, 0.000000000000000000 ) ) ;
#278 = COORDINATED_UNIVERSAL_TIME_OFFSET ( 0, 0, .AHEAD. ) ;
#279 = CIRCLE ( 'NONE', #12, 6.000000000000000888 ) ;
#280 = CYLINDRICAL_SURFACE ( 'NONE', #110, 7.599999999999998757 ) ;
#281 = CC_DESIGN_APPROVAL ( #439, ( #298 ) ) ;
#282 = PERSON_AND_ORGANIZATION ( #140, #297 ) ;
#283 = EDGE_CURVE ( 'NONE', #13, #65, #365, .T. ) ;
#284 = FACE_OUTER_BOUND ( 'NONE', #205, .T. ) ;
#285 = FACE_OUTER_BOUND ( 'NONE', #459, .T. ) ;
#286 = ORIENTED_EDGE ( 'NONE', *, *, #159, .F. ) ;
#287 = VECTOR ( 'NONE', #324, 999.9999999999998863 ) ;
#288 = CARTESIAN_POINT ( 'NONE',  ( 0.000000000000000000, -5.999999999999993783, 0.000000000000000000 ) ) ;
#289 = CONICAL_SURFACE ( 'NONE', #207, 13.99999999999999645, 0.7853981633974473908 ) ;
#290 = ADVANCED_FACE ( 'NONE', ( #352 ), #289, .T. ) ;
#291 = CYLINDRICAL_SURFACE ( 'NONE', #47, 7.599999999999998757 ) ;
#292 = ADVANCED_FACE ( 'NONE', ( #29 ), #185, .F. ) ;
#293 = DIRECTION ( 'NONE',  ( -0.000000000000000000, 1.000000000000000000, -0.000000000000000000 ) ) ;
#294 = ORIENTED_EDGE ( 'NONE', *, *, #117, .T. ) ;
#295 = ADVANCED_FACE ( 'NONE', ( #70 ), #504, .F. ) ;
#296 = AXIS2_PLACEMENT_3D ( 'NONE', #174, #146, #349 ) ;
#297 = ORGANIZATION ( 'UNSPECIFIED', 'UNSPECIFIED', '' ) ;
#298 = PRODUCT_DEFINITION_FORMATION_WITH_SPECIFIED_SOURCE ( 'ANY', '', #355, .NOT_KNOWN. ) ;
#299 = ORIENTED_EDGE ( 'NONE', *, *, #493, .F. ) ;
#300 = EDGE_LOOP ( 'NONE', ( #118, #251, #74, #92 ) ) ;
#301 = DIRECTION ( 'NONE',  ( 0.000000000000000000, -0.000000000000000000, -1.000000000000000000 ) ) ;
#302 = ORIENTED_EDGE ( 'NONE', *, *, #108, .T. ) ;
#303 = EDGE_CURVE ( 'NONE', #431, #434, #54, .T. ) ;
#304 =( NAMED_UNIT ( * ) SI_UNIT ( $, .STERADIAN. ) SOLID_ANGLE_UNIT ( ) );
#305 = AXIS2_PLACEMENT_3D ( 'NONE', #406, #96, #56 ) ;
#306 = CARTESIAN_POINT ( 'NONE',  ( 0.000000000000000000, -2.332798677367345844E-16, 0.000000000000000000 ) ) ;
#307 = DIRECTION ( 'NONE',  ( 0.000000000000000000, 0.000000000000000000, 1.000000000000000000 ) ) ;
#308 = CARTESIAN_POINT ( 'NONE',  ( 0.000000000000000000, -5.000000000000000000, 6.000000000000000000 ) ) ;
#309 = CARTESIAN_POINT ( 'NONE',  ( 0.000000000000000000, 0.000000000000000000, 0.000000000000000000 ) ) ;
#310 = ADVANCED_FACE ( 'NONE', ( #427 ), #200, .T. ) ;
#311 = ORIENTED_EDGE ( 'NONE', *, *, #82, .F. ) ;
#312 = CALENDAR_DATE ( 2025, 24, 11 ) ;
#313 = CONICAL_SURFACE ( 'NONE', #98, 15.00000000000000000, 0.7853981633974482790 ) ;
#314 = VERTEX_POINT ( 'NONE', #366 ) ;
#315 = EDGE_LOOP ( 'NONE', ( #332, #395 ) ) ;
#316 = DIRECTION ( 'NONE',  ( -0.000000000000000000, 1.000000000000000000, -0.000000000000000000 ) ) ;
#317 = PERSON_AND_ORGANIZATION ( #140, #297 ) ;
#318 = ADVANCED_FACE ( 'NONE', ( #331 ), #291, .F. ) ;
#319 = VECTOR ( 'NONE', #491, 1000.000000000000000 ) ;
#320 = AXIS2_PLACEMENT_3D ( 'NONE', #394, #45, #301 ) ;
#321 = LINE ( 'NONE', #160, #287 ) ;
#322 = ORIENTED_EDGE ( 'NONE', *, *, #409, .T. ) ;
#323 = DIRECTION ( 'NONE',  ( 0.000000000000000000, 0.000000000000000000, 1.000000000000000000 ) ) ;
#324 = DIRECTION ( 'NONE',  ( 8.659560562354926695E-17, -0.7071067811865482389, 0.7071067811865469066 ) ) ;
#325 = APPROVAL ( #194, 'UNSPECIFIED' ) ;
#326 = APPROVAL_PERSON_ORGANIZATION ( #282, #114, #501 ) ;
#327 = CARTESIAN_POINT ( 'NONE',  ( 0.000000000000000000, 21.99999999999999645, 0.000000000000000000 ) ) ;
#328 = CARTESIAN_POINT ( 'NONE',  ( 0.000000000000000000, -2.332798677367345844E-16, 7.599999999999999645 ) ) ;
#329 = ORIENTED_EDGE ( 'NONE', *, *, #245, .T. ) ;
#330 = EDGE_CURVE ( 'NONE', #314, #218, #162, .T. ) ;
#331 = FACE_OUTER_BOUND ( 'NONE', #262, .T. ) ;
#332 = ORIENTED_EDGE ( 'NONE', *, *, #496, .T. ) ;
#333 = CC_DESIGN_PERSON_AND_ORGANIZATION_ASSIGNMENT ( #153, #506, ( #119 ) ) ;
#334 = ORIENTED_EDGE ( 'NONE', *, *, #2, .F. ) ;
#335 = CIRCLE ( 'NONE', #72, 13.99999999999999645 ) ;
#336 = CARTESIAN_POINT ( 'NONE',  ( 1.775737858763662015E-15, 23.00000000000000000, 13.99999999999999645 ) ) ;
#337 = VERTEX_POINT ( 'NONE', #432 ) ;
#338 = APPLICATION_PROTOCOL_DEFINITION ( 'international standard', 'config_control_design', 1994, #84 ) ;
#339 = EDGE_LOOP ( 'NONE', ( #464, #302, #88, #94 ) ) ;
#340 = LINE ( 'NONE', #221, #319 ) ;
#341 = CARTESIAN_POINT ( 'NONE',  ( 0.000000000000000000, -5.999999999999993783, 15.00000000000000000 ) ) ;
#342 = AXIS2_PLACEMENT_3D ( 'NONE', #42, #121, #77 ) ;
#343 = CARTESIAN_POINT ( 'NONE',  ( 9.307315673519883487E-16, 0.000000000000000000, -7.599999999999998757 ) ) ;
#344 = ORIENTED_EDGE ( 'NONE', *, *, #345, .F. ) ;
#345 = EDGE_CURVE ( 'NONE', #494, #231, #440, .T. ) ;
#346 = CARTESIAN_POINT ( 'NONE',  ( 0.000000000000000000, -7.000000000000000000, 6.000000000000000888 ) ) ;
#347 = ORIENTED_EDGE ( 'NONE', *, *, #257, .F. ) ;
#348 = DIRECTION ( 'NONE',  ( 0.000000000000000000, 0.000000000000000000, -1.000000000000000000 ) ) ;
#349 = DIRECTION ( 'NONE',  ( 0.000000000000000000, 0.000000000000000000, 1.000000000000000000 ) ) ;
#350 = CIRCLE ( 'NONE', #168, 4.599999999999999645 ) ;
#351 = DATE_AND_TIME ( #387, #33 ) ;
#352 = FACE_OUTER_BOUND ( 'NONE', #164, .T. ) ;
#353 = EDGE_CURVE ( 'NONE', #231, #494, #241, .T. ) ;
#354 = APPROVAL_ROLE ( '' ) ;
#355 = PRODUCT ( 'container', 'container', '', ( #100 ) ) ;
#356 = DIRECTION ( 'NONE',  ( 0.000000000000000000, -1.000000000000000000, 0.000000000000000000 ) ) ;
#357 = DIRECTION ( 'NONE',  ( -0.000000000000000000, 1.000000000000000000, -0.000000000000000000 ) ) ;
#358 = CIRCLE ( 'NONE', #21, 13.99999999999999645 ) ;
#359 = AXIS2_PLACEMENT_3D ( 'NONE', #136, #307, #444 ) ;
#360 = LINE ( 'NONE', #362, #145 ) ;
#361 = EDGE_CURVE ( 'NONE', #337, #478, #350, .T. ) ;
#362 = CARTESIAN_POINT ( 'NONE',  ( 5.633375276077824112E-16, 0.000000000000000000, -4.599999999999999645 ) ) ;
#363 = ORIENTED_EDGE ( 'NONE', *, *, #117, .F. ) ;
#364 = ORIENTED_EDGE ( 'NONE', *, *, #125, .T. ) ;
#365 = CIRCLE ( 'NONE', #500, 7.599999999999998757 ) ;
#366 = CARTESIAN_POINT ( 'NONE',  ( 9.307315673519885459E-16, -2.332798677367345844E-16, -7.600000000000000533 ) ) ;
#367 = CARTESIAN_POINT ( 'NONE',  ( 7.347880794884121708E-16, -7.000000000000000000, -6.000000000000001776 ) ) ;
#368 = ORIENTED_EDGE ( 'NONE', *, *, #2, .T. ) ;
#369 = LINE ( 'NONE', #240, #458 ) ;
#370 = EDGE_LOOP ( 'NONE', ( #152, #400 ) ) ;
#371 = CARTESIAN_POINT ( 'NONE',  ( 5.633375276077824112E-16, 0.000000000000000000, -4.599999999999999645 ) ) ;
#372 = CLOSED_SHELL ( 'NONE', ( #37, #310, #318, #18, #295, #102, #214, #292, #51, #477, #425, #141, #265, #62, #186, #290 ) ) ;
#373 = ORIENTED_EDGE ( 'NONE', *, *, #245, .F. ) ;
#374 = DIRECTION ( 'NONE',  ( -0.000000000000000000, 1.000000000000000000, -0.000000000000000000 ) ) ;
#375 = EDGE_CURVE ( 'NONE', #181, #222, #396, .T. ) ;
#376 = DIRECTION ( 'NONE',  ( -0.000000000000000000, 1.000000000000000000, -0.000000000000000000 ) ) ;
#377 = CC_DESIGN_PERSON_AND_ORGANIZATION_ASSIGNMENT ( #461, #69, ( #469 ) ) ;
#378 = CARTESIAN_POINT ( 'NONE',  ( 0.000000000000000000, -5.999999999999993783, 0.000000000000000000 ) ) ;
#379 = AXIS2_PLACEMENT_3D ( 'NONE', #142, #48, #246 ) ;
#380 = ORIENTED_EDGE ( 'NONE', *, *, #375, .T. ) ;
#381 = LINE ( 'NONE', #449, #23 ) ;
#382 = CARTESIAN_POINT ( 'NONE',  ( 0.000000000000000000, 23.00000000000000000, -13.99999999999999645 ) ) ;
#383 = EDGE_CURVE ( 'NONE', #181, #193, #279, .T. ) ;
#384 = DATE_AND_TIME ( #413, #63 ) ;
#385 = COORDINATED_UNIVERSAL_TIME_OFFSET ( 0, 0, .AHEAD. ) ;
#386 = CARTESIAN_POINT ( 'NONE',  ( 0.000000000000000000, 0.000000000000000000, 0.000000000000000000 ) ) ;
#387 = CALENDAR_DATE ( 2025, 24, 11 ) ;
#388 = CARTESIAN_POINT ( 'NONE',  ( 0.000000000000000000, -5.000000000000000000, 4.600000000000000533 ) ) ;
#389 = AXIS2_PLACEMENT_3D ( 'NONE', #216, #374, #259 ) ;
#390 = CARTESIAN_POINT ( 'NONE',  ( 0.000000000000000000, 0.000000000000000000, 0.000000000000000000 ) ) ;
#391 = FACE_BOUND ( 'NONE', #315, .T. ) ;
#392 = EDGE_LOOP ( 'NONE', ( #85, #184, #61, #10 ) ) ;
#393 = CARTESIAN_POINT ( 'NONE',  ( 0.000000000000000000, -5.999999999999993783, 0.000000000000000000 ) ) ;
#394 = CARTESIAN_POINT ( 'NONE',  ( 7.599999999999999645, -1.166399338683672922E-16, 0.000000000000000000 ) ) ;
#395 = ORIENTED_EDGE ( 'NONE', *, *, #248, .T. ) ;
#396 = LINE ( 'NONE', #7, #234 ) ;
#397 = CIRCLE ( 'NONE', #53, 6.000000000000000888 ) ;
#398 = DIRECTION ( 'NONE',  ( -0.000000000000000000, 1.000000000000000000, -0.000000000000000000 ) ) ;
#399 = ORIENTED_EDGE ( 'NONE', *, *, #454, .F. ) ;
#400 = ORIENTED_EDGE ( 'NONE', *, *, #283, .F. ) ;
#401 = CARTESIAN_POINT ( 'NONE',  ( 6.000000000000000888, -7.000000000000000000, 0.000000000000000000 ) ) ;
#402 = DIRECTION ( 'NONE',  ( -0.000000000000000000, 1.000000000000000000, -0.000000000000000000 ) ) ;
#403 = EDGE_LOOP ( 'NONE', ( #213, #157 ) ) ;
#404 = AXIS2_PLACEMENT_3D ( 'NONE', #233, #424, #421 ) ;
#405 = CYLINDRICAL_SURFACE ( 'NONE', #468, 6.000000000000000000 ) ;
#406 = CARTESIAN_POINT ( 'NONE',  ( 0.000000000000000000, 23.00000000000000000, 0.000000000000000000 ) ) ;
#407 = FACE_OUTER_BOUND ( 'NONE', #488, .T. ) ;
#408 = CARTESIAN_POINT ( 'NONE',  ( 0.000000000000000000, 0.000000000000000000, 6.000000000000000000 ) ) ;
#409 = EDGE_CURVE ( 'NONE', #124, #431, #369, .T. ) ;
#410 = DIRECTION ( 'NONE',  ( -0.000000000000000000, 1.000000000000000000, -0.000000000000000000 ) ) ;
#411 = DIRECTION ( 'NONE',  ( 0.000000000000000000, 0.000000000000000000, 1.000000000000000000 ) ) ;
#412 = AXIS2_PLACEMENT_3D ( 'NONE', #93, #402, #11 ) ;
#413 = CALENDAR_DATE ( 2025, 24, 11 ) ;
#414 = CARTESIAN_POINT ( 'NONE',  ( 15.00000000000000000, 23.00000000000000000, 0.000000000000000000 ) ) ;
#415 = APPROVAL_DATE_TIME ( #239, #439 ) ;
#416 = COORDINATED_UNIVERSAL_TIME_OFFSET ( 0, 0, .AHEAD. ) ;
#417 = CARTESIAN_POINT ( 'NONE',  ( 0.000000000000000000, 23.00000000000000000, 0.000000000000000000 ) ) ;
#418 = VERTEX_POINT ( 'NONE', #388 ) ;
#419 = DATE_TIME_ROLE ( 'classification_date' ) ;
#420 = VECTOR ( 'NONE', #357, 1000.000000000000000 ) ;
#421 = DIRECTION ( 'NONE',  ( 0.000000000000000000, 0.000000000000000000, 1.000000000000000000 ) ) ;
#422 = AXIS2_PLACEMENT_3D ( 'NONE', #163, #24, #411 ) ;
#423 = EDGE_LOOP ( 'NONE', ( #49, #380, #247, #373 ) ) ;
#424 = DIRECTION ( 'NONE',  ( -0.000000000000000000, 1.000000000000000000, -0.000000000000000000 ) ) ;
#425 = ADVANCED_FACE ( 'NONE', ( #19, #219 ), #215, .F. ) ;
#426 = FACE_OUTER_BOUND ( 'NONE', #339, .T. ) ;
#427 = FACE_OUTER_BOUND ( 'NONE', #446, .T. ) ;
#428 = VECTOR ( 'NONE', #498, 999.9999999999998863 ) ;
#429 = APPROVAL_PERSON_ORGANIZATION ( #276, #325, #354 ) ;
#430 = CARTESIAN_POINT ( 'NONE',  ( 1.775737858763661620E-15, -7.000000000000000000, -13.99999999999999289 ) ) ;
#431 = VERTEX_POINT ( 'NONE', #490 ) ;
#432 = CARTESIAN_POINT ( 'NONE',  ( 0.000000000000000000, 0.000000000000000000, 4.599999999999999645 ) ) ;
#433 = PLANE ( 'NONE',  #71 ) ;
#434 = VERTEX_POINT ( 'NONE', #485 ) ;
#435 = DIRECTION ( 'NONE',  ( -0.000000000000000000, 1.000000000000000000, -0.000000000000000000 ) ) ;
#436 = EDGE_CURVE ( 'NONE', #52, #434, #264, .T. ) ;
#437 = FACE_OUTER_BOUND ( 'NONE', #28, .T. ) ;
#438 = ORIENTED_EDGE ( 'NONE', *, *, #125, .F. ) ;
#439 = APPROVAL ( #66, 'UNSPECIFIED' ) ;
#440 = CIRCLE ( 'NONE', #509, 15.00000000000000000 ) ;
#441 = PERSON_AND_ORGANIZATION ( #140, #297 ) ;
#442 = EDGE_CURVE ( 'NONE', #434, #231, #260, .T. ) ;
#443 = ORIENTED_EDGE ( 'NONE', *, *, #303, .T. ) ;
#444 = DIRECTION ( 'NONE',  ( 1.000000000000000000, 0.000000000000000000, 0.000000000000000000 ) ) ;
#445 = CARTESIAN_POINT ( 'NONE',  ( 0.000000000000000000, 23.00000000000000000, 0.000000000000000000 ) ) ;
#446 = EDGE_LOOP ( 'NONE', ( #99, #322, #311, #31 ) ) ;
#447 = AXIS2_PLACEMENT_3D ( 'NONE', #327, #479, #167 ) ;
#448 = CC_DESIGN_APPROVAL ( #114, ( #469 ) ) ;
#449 = CARTESIAN_POINT ( 'NONE',  ( 0.000000000000000000, 0.000000000000000000, 7.599999999999998757 ) ) ;
#450 = DIRECTION ( 'NONE',  ( 0.000000000000000000, 0.000000000000000000, 1.000000000000000000 ) ) ;
#451 = ORIENTED_EDGE ( 'NONE', *, *, #171, .F. ) ;
#452 = ORIENTED_EDGE ( 'NONE', *, *, #237, .T. ) ;
#453 = DIRECTION ( 'NONE',  ( -0.000000000000000000, 1.000000000000000000, -0.000000000000000000 ) ) ;
#454 = EDGE_CURVE ( 'NONE', #201, #222, #91, .T. ) ;
#455 = EDGE_LOOP ( 'NONE', ( #81, #169 ) ) ;
#456 = PLANE ( 'NONE',  #320 ) ;
#457 = VERTEX_POINT ( 'NONE', #95 ) ;
#458 = VECTOR ( 'NONE', #471, 1000.000000000000114 ) ;
#459 = EDGE_LOOP ( 'NONE', ( #399, #116 ) ) ;
#460 = APPROVAL_STATUS ( 'not_yet_approved' ) ;
#461 = PERSON_AND_ORGANIZATION ( #140, #297 ) ;
#462 = LINE ( 'NONE', #107, #420 ) ;
#463 = CC_DESIGN_PERSON_AND_ORGANIZATION_ASSIGNMENT ( #103, #180, ( #298 ) ) ;
#464 = ORIENTED_EDGE ( 'NONE', *, *, #248, .F. ) ;
#465 = SECURITY_CLASSIFICATION_LEVEL ( 'unclassified' ) ;
#466 = CIRCLE ( 'NONE', #155, 13.99999999999999289 ) ;
#467 = AXIS2_PLACEMENT_3D ( 'NONE', #306, #59, #173 ) ;
#468 = AXIS2_PLACEMENT_3D ( 'NONE', #130, #453, #263 ) ;
#469 = SECURITY_CLASSIFICATION ( '', '', #465 ) ;
#470 = VERTEX_POINT ( 'NONE', #336 ) ;
#471 = DIRECTION ( 'NONE',  ( 8.659560562354932858E-17, 0.7071067811865474617, -0.7071067811865474617 ) ) ;
#472 = DIRECTION ( 'NONE',  ( 0.000000000000000000, -1.000000000000000000, 0.000000000000000000 ) ) ;
#473 = ORIENTED_EDGE ( 'NONE', *, *, #159, .T. ) ;
#474 = DIRECTION ( 'NONE',  ( -0.000000000000000000, 1.000000000000000000, -0.000000000000000000 ) ) ;
#475 = CARTESIAN_POINT ( 'NONE',  ( 0.000000000000000000, 0.000000000000000000, 0.000000000000000000 ) ) ;
#476 = DIRECTION ( 'NONE',  ( 0.000000000000000000, 0.000000000000000000, -1.000000000000000000 ) ) ;
#477 = ADVANCED_FACE ( 'NONE', ( #407 ), #405, .F. ) ;
#478 = VERTEX_POINT ( 'NONE', #371 ) ;
#479 = DIRECTION ( 'NONE',  ( 0.000000000000000000, -1.000000000000000000, 0.000000000000000000 ) ) ;
#480 = ORIENTED_EDGE ( 'NONE', *, *, #375, .F. ) ;
#481 = CARTESIAN_POINT ( 'NONE',  ( 0.000000000000000000, -7.000000000000000000, 0.000000000000000000 ) ) ;
#482 = ORIENTED_EDGE ( 'NONE', *, *, #454, .T. ) ;
#483 = AXIS2_PLACEMENT_3D ( 'NONE', #288, #40, #238 ) ;
#484 = AXIS2_PLACEMENT_3D ( 'NONE', #393, #242, #83 ) ;
#485 = CARTESIAN_POINT ( 'NONE',  ( 0.000000000000000000, -5.999999999999993783, 15.00000000000000000 ) ) ;
#486 = CC_DESIGN_PERSON_AND_ORGANIZATION_ASSIGNMENT ( #441, #131, ( #355 ) ) ;
#487 = DESIGN_CONTEXT ( 'detailed design', #261, 'design' ) ;
#488 = EDGE_LOOP ( 'NONE', ( #480, #438, #329, #482 ) ) ;
#489 = CARTESIAN_POINT ( 'NONE',  ( 0.000000000000000000, 21.99999999999999645, 15.00000000000000000 ) ) ;
#490 = CARTESIAN_POINT ( 'NONE',  ( 1.836970198721029589E-15, -5.999999999999993783, -15.00000000000000000 ) ) ;
#491 = DIRECTION ( 'NONE',  ( -0.000000000000000000, 1.000000000000000000, -0.000000000000000000 ) ) ;
#492 = CIRCLE ( 'NONE', #467, 7.599999999999999645 ) ;
#493 = EDGE_CURVE ( 'NONE', #218, #65, #381, .T. ) ;
#494 = VERTEX_POINT ( 'NONE', #17 ) ;
#495 = PERSON_AND_ORGANIZATION ( #140, #297 ) ;
#496 = EDGE_CURVE ( 'NONE', #418, #457, #252, .T. ) ;
#497 = DIRECTION ( 'NONE',  ( 0.000000000000000000, -1.000000000000000000, 0.000000000000000000 ) ) ;
#498 = DIRECTION ( 'NONE',  ( 0.000000000000000000, -0.7071067811865482389, -0.7071067811865469066 ) ) ;
#499 = ORIENTED_EDGE ( 'NONE', *, *, #361, .T. ) ;
#500 = AXIS2_PLACEMENT_3D ( 'NONE', #417, #197, #275 ) ;
#501 = APPROVAL_ROLE ( '' ) ;
#502 = DIRECTION ( 'NONE',  ( -0.000000000000000000, 1.000000000000000000, -0.000000000000000000 ) ) ;
#503 = CYLINDRICAL_SURFACE ( 'NONE', #296, 15.00000000000000000 ) ;
#504 = CYLINDRICAL_SURFACE ( 'NONE', #404, 6.000000000000000000 ) ;
#505 = DIRECTION ( 'NONE',  ( 0.000000000000000000, 0.000000000000000000, 1.000000000000000000 ) ) ;
#506 = PERSON_AND_ORGANIZATION_ROLE ( 'creator' ) ;
#507 = DIRECTION ( 'NONE',  ( -0.000000000000000000, 1.000000000000000000, -0.000000000000000000 ) ) ;
#508 = CARTESIAN_POINT ( 'NONE',  ( 0.000000000000000000, 23.00000000000000000, 7.599999999999998757 ) ) ;
#509 = AXIS2_PLACEMENT_3D ( 'NONE', #203, #86, #4 ) ;
ENDSEC;
END-ISO-10303-21;
