ISO-10303-21;
HEADER;
FILE_DESCRIPTION (( 'STEP AP203' ),
    '1' );
FILE_NAME ('die.STEP',
    '2025-12-05T15:00:32',
    ( '' ),
    ( '' ),
    '',
    '',
    '' );
FILE_SCHEMA (( 'CONFIG_CONTROL_DESIGN' ));
ENDSEC;

DATA;
#1 = CC_DESIGN_PERSON_AND_ORGANIZATION_ASSIGNMENT ( #63, #144, ( #50 ) ) ;
#2 = CARTESIAN_POINT ( 'NONE',  ( 3.122849337825750419E-16, 2.000000000000000000, 2.549999999999999822 ) ) ;
#3 = ORIENTED_EDGE ( 'NONE', *, *, #18, .T. ) ;
#4 = AXIS2_PLACEMENT_3D ( 'NONE', #284, #44, #118 ) ;
#5 =( GEOMETRIC_REPRESENTATION_CONTEXT ( 3 ) GLOBAL_UNCERTAINTY_ASSIGNED_CONTEXT ( ( #97 ) ) GLOBAL_UNIT_ASSIGNED_CONTEXT ( ( #59, #272, #269 ) ) REPRESENTATION_CONTEXT ( 'NONE', 'WORKASPACE' ) );
#6 = LINE ( 'NONE', #99, #168 ) ;
#7 = DIRECTION ( 'NONE',  ( 0.000000000000000000, 0.000000000000000000, 1.000000000000000000 ) ) ;
#8 = ORIENTED_EDGE ( 'NONE', *, *, #119, .F. ) ;
#9 = ORIENTED_EDGE ( 'NONE', *, *, #296, .T. ) ;
#10 = PERSON_AND_ORGANIZATION ( #69, #66 ) ;
#11 = CARTESIAN_POINT ( 'NONE',  ( 0.000000000000000000, 0.000000000000000000, 0.000000000000000000 ) ) ;
#12 = CALENDAR_DATE ( 2025, 5, 12 ) ;
#13 = ADVANCED_FACE ( 'NONE', ( #122 ), #60, .T. ) ;
#14 = DATE_AND_TIME ( #276, #58 ) ;
#15 = CIRCLE ( 'NONE', #88, 19.99999999999999645 ) ;
#16 = EDGE_LOOP ( 'NONE', ( #259, #98, #49, #201 ) ) ;
#17 = CARTESIAN_POINT ( 'NONE',  ( 0.000000000000000000, 0.000000000000000000, 0.000000000000000000 ) ) ;
#18 = EDGE_CURVE ( 'NONE', #156, #71, #62, .T. ) ;
#19 = AXIS2_PLACEMENT_3D ( 'NONE', #90, #226, #252 ) ;
#20 = DIRECTION ( 'NONE',  ( 0.000000000000000000, 0.7071067811865451302, 0.7071067811865500152 ) ) ;
#21 = ORIENTED_EDGE ( 'NONE', *, *, #83, .T. ) ;
#22 = EDGE_CURVE ( 'NONE', #158, #288, #142, .T. ) ;
#23 = CIRCLE ( 'NONE', #193, 2.549999999999999822 ) ;
#24 = EDGE_LOOP ( 'NONE', ( #75, #186, #109, #302 ) ) ;
#25 = FACE_OUTER_BOUND ( 'NONE', #298, .T. ) ;
#26 = EDGE_LOOP ( 'NONE', ( #21, #242 ) ) ;
#27 = EDGE_CURVE ( 'NONE', #116, #158, #80, .T. ) ;
#28 = DIRECTION ( 'NONE',  ( -0.000000000000000000, -1.000000000000000000, -0.000000000000000000 ) ) ;
#29 = DIRECTION ( 'NONE',  ( -0.000000000000000000, -1.000000000000000000, -0.000000000000000000 ) ) ;
#30 = DIRECTION ( 'NONE',  ( 0.000000000000000000, 0.000000000000000000, -1.000000000000000000 ) ) ;
#31 = DIRECTION ( 'NONE',  ( -0.000000000000000000, -1.000000000000000000, -0.000000000000000000 ) ) ;
#32 = APPROVAL_ROLE ( '' ) ;
#33 = CIRCLE ( 'NONE', #229, 19.99999999999999645 ) ;
#34 = CARTESIAN_POINT ( 'NONE',  ( 0.000000000000000000, 0.000000000000000000, 0.000000000000000000 ) ) ;
#35 = APPROVAL_ROLE ( '' ) ;
#36 = DIRECTION ( 'NONE',  ( 0.000000000000000000, 0.000000000000000000, -1.000000000000000000 ) ) ;
#37 = EDGE_CURVE ( 'NONE', #71, #140, #73, .T. ) ;
#38 = AXIS2_PLACEMENT_3D ( 'NONE', #230, #155, #134 ) ;
#39 = DIRECTION ( 'NONE',  ( 0.000000000000000000, -1.000000000000000000, 0.000000000000000000 ) ) ;
#40 = CARTESIAN_POINT ( 'NONE',  ( 0.000000000000000000, 1.000000000000004441, -19.99999999999999645 ) ) ;
#41 = EDGE_CURVE ( 'NONE', #114, #116, #15, .T. ) ;
#42 = FACE_OUTER_BOUND ( 'NONE', #172, .T. ) ;
#43 = VECTOR ( 'NONE', #111, 1000.000000000000000 ) ;
#44 = DIRECTION ( 'NONE',  ( 0.000000000000000000, 1.000000000000000000, 0.000000000000000000 ) ) ;
#45 = DIRECTION ( 'NONE',  ( -0.000000000000000000, 1.000000000000000000, -0.000000000000000000 ) ) ;
#46 = VERTEX_POINT ( 'NONE', #146 ) ;
#47 = DIRECTION ( 'NONE',  ( -0.000000000000000000, -1.000000000000000000, -0.000000000000000000 ) ) ;
#48 = AXIS2_PLACEMENT_3D ( 'NONE', #11, #31, #128 ) ;
#49 = ORIENTED_EDGE ( 'NONE', *, *, #223, .T. ) ;
#50 = PRODUCT_DEFINITION_FORMATION_WITH_SPECIFIED_SOURCE ( 'ANY', '', #244, .NOT_KNOWN. ) ;
#51 = CC_DESIGN_PERSON_AND_ORGANIZATION_ASSIGNMENT ( #10, #167, ( #244 ) ) ;
#52 = PERSON_AND_ORGANIZATION ( #69, #66 ) ;
#53 = DIRECTION ( 'NONE',  ( 0.000000000000000000, 0.000000000000000000, 1.000000000000000000 ) ) ;
#54 = APPROVAL_DATE_TIME ( #14, #218 ) ;
#55 = CARTESIAN_POINT ( 'NONE',  ( 2.449293598294706119E-15, 1.000000000000004441, -19.99999999999999645 ) ) ;
#56 = CIRCLE ( 'NONE', #81, 2.549999999999999822 ) ;
#57 = COORDINATED_UNIVERSAL_TIME_OFFSET ( 0, 0, .AHEAD. ) ;
#58 = LOCAL_TIME ( 15, 0, 32.00000000000000000, #271 ) ;
#59 =( LENGTH_UNIT ( ) NAMED_UNIT ( * ) SI_UNIT ( .MILLI., .METRE. ) );
#60 = PLANE ( 'NONE',  #290 ) ;
#61 = PERSON_AND_ORGANIZATION_ROLE ( 'creator' ) ;
#62 = LINE ( 'NONE', #292, #176 ) ;
#63 = PERSON_AND_ORGANIZATION ( #69, #66 ) ;
#64 = EDGE_CURVE ( 'NONE', #156, #264, #56, .T. ) ;
#65 = DIRECTION ( 'NONE',  ( -0.000000000000000000, -1.000000000000000000, -0.000000000000000000 ) ) ;
#66 = ORGANIZATION ( 'UNSPECIFIED', 'UNSPECIFIED', '' ) ;
#67 = EDGE_CURVE ( 'NONE', #116, #114, #33, .T. ) ;
#68 = PRODUCT_RELATED_PRODUCT_CATEGORY ( 'detail', '', ( #244 ) ) ;
#69 = PERSON ( 'UNSPECIFIED', 'UNSPECIFIED', 'UNSPECIFIED', ('UNSPECIFIED'), ('UNSPECIFIED'), ('UNSPECIFIED') ) ;
#70 = EDGE_LOOP ( 'NONE', ( #233, #289 ) ) ;
#71 = VERTEX_POINT ( 'NONE', #190 ) ;
#72 = CC_DESIGN_DATE_AND_TIME_ASSIGNMENT ( #246, #196, ( #197 ) ) ;
#73 = CIRCLE ( 'NONE', #263, 2.549999999999999822 ) ;
#74 = AXIS2_PLACEMENT_3D ( 'NONE', #89, #39, #180 ) ;
#75 = ORIENTED_EDGE ( 'NONE', *, *, #283, .F. ) ;
#76 = CARTESIAN_POINT ( 'NONE',  ( 0.000000000000000000, 0.000000000000000000, 0.000000000000000000 ) ) ;
#77 = DIRECTION ( 'NONE',  ( 0.000000000000000000, 0.000000000000000000, -1.000000000000000000 ) ) ;
#78 = COORDINATED_UNIVERSAL_TIME_OFFSET ( 0, 0, .AHEAD. ) ;
#79 = DIRECTION ( 'NONE',  ( 0.000000000000000000, 0.000000000000000000, 1.000000000000000000 ) ) ;
#80 = LINE ( 'NONE', #220, #203 ) ;
#81 = AXIS2_PLACEMENT_3D ( 'NONE', #163, #273, #266 ) ;
#82 = PERSON_AND_ORGANIZATION ( #69, #66 ) ;
#83 = EDGE_CURVE ( 'NONE', #46, #93, #183, .T. ) ;
#84 = APPROVAL_DATE_TIME ( #294, #278 ) ;
#85 = CARTESIAN_POINT ( 'NONE',  ( 0.000000000000000000, 1.000000000000004441, 0.000000000000000000 ) ) ;
#86 = CALENDAR_DATE ( 2025, 5, 12 ) ;
#87 = PERSON_AND_ORGANIZATION_ROLE ( 'design_supplier' ) ;
#88 = AXIS2_PLACEMENT_3D ( 'NONE', #191, #104, #165 ) ;
#89 = CARTESIAN_POINT ( 'NONE',  ( 0.000000000000000000, 0.000000000000000000, 0.000000000000000000 ) ) ;
#90 = CARTESIAN_POINT ( 'NONE',  ( 0.000000000000000000, 1.000000000000004441, 0.000000000000000000 ) ) ;
#91 = CC_DESIGN_APPROVAL ( #278, ( #197 ) ) ;
#92 = DIRECTION ( 'NONE',  ( 0.000000000000000000, -0.000000000000000000, 1.000000000000000000 ) ) ;
#93 = VERTEX_POINT ( 'NONE', #253 ) ;
#94 = DIRECTION ( 'NONE',  ( -0.000000000000000000, -1.000000000000000000, -0.000000000000000000 ) ) ;
#95 = LINE ( 'NONE', #2, #210 ) ;
#96 = ORIENTED_EDGE ( 'NONE', *, *, #67, .T. ) ;
#97 = UNCERTAINTY_MEASURE_WITH_UNIT (LENGTH_MEASURE( 1.000000000000000082E-05 ), #59, 'distance_accuracy_value', 'NONE');
#98 = ORIENTED_EDGE ( 'NONE', *, *, #189, .T. ) ;
#99 = CARTESIAN_POINT ( 'NONE',  ( 0.000000000000000000, 1.000000000000004441, 19.99999999999999645 ) ) ;
#100 = ORIENTED_EDGE ( 'NONE', *, *, #22, .F. ) ;
#101 = FACE_OUTER_BOUND ( 'NONE', #16, .T. ) ;
#102 = CONICAL_SURFACE ( 'NONE', #219, 19.99999999999999645, 0.7853981633974517207 ) ;
#103 = SECURITY_CLASSIFICATION ( '', '', #170 ) ;
#104 = DIRECTION ( 'NONE',  ( 0.000000000000000000, 1.000000000000000000, 0.000000000000000000 ) ) ;
#105 = PERSON_AND_ORGANIZATION ( #69, #66 ) ;
#106 = DIRECTION ( 'NONE',  ( 0.000000000000000000, -1.000000000000000000, 0.000000000000000000 ) ) ;
#107 = APPROVAL_STATUS ( 'not_yet_approved' ) ;
#108 = VECTOR ( 'NONE', #145, 1000.000000000000114 ) ;
#109 = ORIENTED_EDGE ( 'NONE', *, *, #119, .T. ) ;
#110 = DIRECTION ( 'NONE',  ( -0.000000000000000000, 1.000000000000000000, -0.000000000000000000 ) ) ;
#111 = DIRECTION ( 'NONE',  ( -0.000000000000000000, -1.000000000000000000, -0.000000000000000000 ) ) ;
#112 = ADVANCED_FACE ( 'NONE', ( #303 ), #281, .F. ) ;
#113 = CARTESIAN_POINT ( 'NONE',  ( 0.000000000000000000, 2.000000000000000000, 0.000000000000000000 ) ) ;
#114 = VERTEX_POINT ( 'NONE', #200 ) ;
#115 = DIRECTION ( 'NONE',  ( -0.000000000000000000, -1.000000000000000000, -0.000000000000000000 ) ) ;
#116 = VERTEX_POINT ( 'NONE', #178 ) ;
#117 = CIRCLE ( 'NONE', #130, 18.99999999999998579 ) ;
#118 = DIRECTION ( 'NONE',  ( 0.000000000000000000, -0.000000000000000000, 1.000000000000000000 ) ) ;
#119 = EDGE_CURVE ( 'NONE', #140, #71, #204, .T. ) ;
#120 = MECHANICAL_CONTEXT ( 'NONE', #133, 'mechanical' ) ;
#121 = CC_DESIGN_PERSON_AND_ORGANIZATION_ASSIGNMENT ( #300, #87, ( #50 ) ) ;
#122 = FACE_OUTER_BOUND ( 'NONE', #70, .T. ) ;
#123 = CARTESIAN_POINT ( 'NONE',  ( 0.000000000000000000, 2.000000000000000000, 0.000000000000000000 ) ) ;
#124 = ADVANCED_FACE ( 'NONE', ( #42 ), #149, .T. ) ;
#125 = DATE_AND_TIME ( #86, #285 ) ;
#126 = LOCAL_TIME ( 15, 0, 32.00000000000000000, #78 ) ;
#127 = DIRECTION ( 'NONE',  ( 0.000000000000000000, -1.000000000000000000, 0.000000000000000000 ) ) ;
#128 = DIRECTION ( 'NONE',  ( 0.000000000000000000, 0.000000000000000000, 1.000000000000000000 ) ) ;
#129 = FACE_OUTER_BOUND ( 'NONE', #235, .T. ) ;
#130 = AXIS2_PLACEMENT_3D ( 'NONE', #151, #287, #282 ) ;
#131 = CYLINDRICAL_SURFACE ( 'NONE', #38, 19.99999999999999645 ) ;
#132 = CARTESIAN_POINT ( 'NONE',  ( 0.000000000000000000, 10.00000000000000000, 0.000000000000000000 ) ) ;
#133 = APPLICATION_CONTEXT ( 'configuration controlled 3d designs of mechanical parts and assemblies' ) ;
#134 = DIRECTION ( 'NONE',  ( 0.000000000000000000, 0.000000000000000000, -1.000000000000000000 ) ) ;
#135 = ORIENTED_EDGE ( 'NONE', *, *, #67, .F. ) ;
#136 = PLANE ( 'NONE',  #4 ) ;
#137 = ADVANCED_FACE ( 'NONE', ( #129 ), #102, .T. ) ;
#138 = EDGE_LOOP ( 'NONE', ( #213, #8 ) ) ;
#139 = EDGE_LOOP ( 'NONE', ( #161, #135, #185, #295 ) ) ;
#140 = VERTEX_POINT ( 'NONE', #299 ) ;
#141 = CC_DESIGN_PERSON_AND_ORGANIZATION_ASSIGNMENT ( #171, #61, ( #197 ) ) ;
#142 = CIRCLE ( 'NONE', #268, 19.99999999999999645 ) ;
#143 = APPROVAL_PERSON_ORGANIZATION ( #166, #218, #35 ) ;
#144 = PERSON_AND_ORGANIZATION_ROLE ( 'creator' ) ;
#145 = DIRECTION ( 'NONE',  ( 8.659560562354962440E-17, 0.7071067811865451302, -0.7071067811865500152 ) ) ;
#146 = CARTESIAN_POINT ( 'NONE',  ( 0.000000000000000000, 0.000000000000000000, 18.99999999999998579 ) ) ;
#147 = CALENDAR_DATE ( 2025, 5, 12 ) ;
#148 = DIRECTION ( 'NONE',  ( 0.000000000000000000, -0.000000000000000000, -1.000000000000000000 ) ) ;
#149 = CONICAL_SURFACE ( 'NONE', #19, 19.99999999999999645, 0.7853981633974517207 ) ;
#150 = PERSON_AND_ORGANIZATION_ROLE ( 'classification_officer' ) ;
#151 = CARTESIAN_POINT ( 'NONE',  ( 0.000000000000000000, 0.000000000000000000, 0.000000000000000000 ) ) ;
#152 = APPLICATION_CONTEXT ( 'configuration controlled 3d designs of mechanical parts and assemblies' ) ;
#153 = AXIS2_PLACEMENT_3D ( 'NONE', #160, #47, #232 ) ;
#154 = ADVANCED_FACE ( 'NONE', ( #175, #277 ), #202, .F. ) ;
#155 = DIRECTION ( 'NONE',  ( -0.000000000000000000, -1.000000000000000000, -0.000000000000000000 ) ) ;
#156 = VERTEX_POINT ( 'NONE', #254 ) ;
#157 = FACE_OUTER_BOUND ( 'NONE', #139, .T. ) ;
#158 = VERTEX_POINT ( 'NONE', #40 ) ;
#159 = CC_DESIGN_DATE_AND_TIME_ASSIGNMENT ( #250, #177, ( #103 ) ) ;
#160 = CARTESIAN_POINT ( 'NONE',  ( 0.000000000000000000, 2.000000000000000000, 0.000000000000000000 ) ) ;
#161 = ORIENTED_EDGE ( 'NONE', *, *, #189, .F. ) ;
#162 = ORIENTED_EDGE ( 'NONE', *, *, #238, .F. ) ;
#163 = CARTESIAN_POINT ( 'NONE',  ( 0.000000000000000000, 2.000000000000000000, 0.000000000000000000 ) ) ;
#164 = EDGE_CURVE ( 'NONE', #93, #46, #117, .T. ) ;
#165 = DIRECTION ( 'NONE',  ( 0.000000000000000000, 0.000000000000000000, 1.000000000000000000 ) ) ;
#166 = PERSON_AND_ORGANIZATION ( #69, #66 ) ;
#167 = PERSON_AND_ORGANIZATION_ROLE ( 'design_owner' ) ;
#168 = VECTOR ( 'NONE', #20, 1000.000000000000114 ) ;
#169 = APPROVAL_PERSON_ORGANIZATION ( #52, #278, #240 ) ;
#170 = SECURITY_CLASSIFICATION_LEVEL ( 'unclassified' ) ;
#171 = PERSON_AND_ORGANIZATION ( #69, #66 ) ;
#172 = EDGE_LOOP ( 'NONE', ( #305, #9, #239, #206 ) ) ;
#173 = ADVANCED_FACE ( 'NONE', ( #25 ), #212, .F. ) ;
#174 = COORDINATED_UNIVERSAL_TIME_OFFSET ( 0, 0, .AHEAD. ) ;
#175 = FACE_BOUND ( 'NONE', #138, .T. ) ;
#176 = VECTOR ( 'NONE', #28, 1000.000000000000000 ) ;
#177 = DATE_TIME_ROLE ( 'classification_date' ) ;
#178 = CARTESIAN_POINT ( 'NONE',  ( 0.000000000000000000, 10.00000000000000000, -19.99999999999999645 ) ) ;
#179 = APPROVAL ( #217, 'UNSPECIFIED' ) ;
#180 = DIRECTION ( 'NONE',  ( 0.000000000000000000, 0.000000000000000000, -1.000000000000000000 ) ) ;
#181 = DIRECTION ( 'NONE',  ( 0.000000000000000000, 0.000000000000000000, 1.000000000000000000 ) ) ;
#182 = ORIENTED_EDGE ( 'NONE', *, *, #41, .T. ) ;
#183 = CIRCLE ( 'NONE', #48, 18.99999999999998579 ) ;
#184 = APPROVAL_PERSON_ORGANIZATION ( #82, #179, #32 ) ;
#185 = ORIENTED_EDGE ( 'NONE', *, *, #27, .T. ) ;
#186 = ORIENTED_EDGE ( 'NONE', *, *, #238, .T. ) ;
#187 = ORIENTED_EDGE ( 'NONE', *, *, #83, .F. ) ;
#188 = AXIS2_PLACEMENT_3D ( 'NONE', #17, #279, #92 ) ;
#189 = EDGE_CURVE ( 'NONE', #114, #288, #234, .T. ) ;
#190 = CARTESIAN_POINT ( 'NONE',  ( 0.000000000000000000, 0.000000000000000000, -2.549999999999999822 ) ) ;
#191 = CARTESIAN_POINT ( 'NONE',  ( 0.000000000000000000, 10.00000000000000000, 0.000000000000000000 ) ) ;
#192 = CALENDAR_DATE ( 2025, 5, 12 ) ;
#193 = AXIS2_PLACEMENT_3D ( 'NONE', #113, #194, #30 ) ;
#194 = DIRECTION ( 'NONE',  ( 0.000000000000000000, -1.000000000000000000, 0.000000000000000000 ) ) ;
#195 = SHAPE_DEFINITION_REPRESENTATION ( #251, #256 ) ;
#196 = DATE_TIME_ROLE ( 'creation_date' ) ;
#197 = PRODUCT_DEFINITION ( 'UNKNOWN', '', #50, #255 ) ;
#198 = CLOSED_SHELL ( 'NONE', ( #112, #124, #260, #231, #208, #154, #137, #173, #13 ) ) ;
#199 = CC_DESIGN_APPROVAL ( #218, ( #103 ) ) ;
#200 = CARTESIAN_POINT ( 'NONE',  ( 2.449293598294706119E-15, 10.00000000000000000, 19.99999999999999645 ) ) ;
#201 = ORIENTED_EDGE ( 'NONE', *, *, #27, .F. ) ;
#202 = PLANE ( 'NONE',  #188 ) ;
#203 = VECTOR ( 'NONE', #29, 1000.000000000000000 ) ;
#204 = CIRCLE ( 'NONE', #74, 2.549999999999999822 ) ;
#205 = CARTESIAN_POINT ( 'NONE',  ( 0.000000000000000000, 1.000000000000004441, 0.000000000000000000 ) ) ;
#206 = ORIENTED_EDGE ( 'NONE', *, *, #275, .F. ) ;
#207 = CYLINDRICAL_SURFACE ( 'NONE', #225, 19.99999999999999645 ) ;
#208 = ADVANCED_FACE ( 'NONE', ( #261 ), #136, .T. ) ;
#209 = EDGE_LOOP ( 'NONE', ( #96, #182 ) ) ;
#210 = VECTOR ( 'NONE', #94, 1000.000000000000000 ) ;
#211 = ORIENTED_EDGE ( 'NONE', *, *, #296, .F. ) ;
#212 = CYLINDRICAL_SURFACE ( 'NONE', #153, 2.549999999999999822 ) ;
#213 = ORIENTED_EDGE ( 'NONE', *, *, #37, .F. ) ;
#214 = CIRCLE ( 'NONE', #258, 19.99999999999999645 ) ;
#215 = CC_DESIGN_SECURITY_CLASSIFICATION ( #103, ( #50 ) ) ;
#216 = DIRECTION ( 'NONE',  ( 1.000000000000000000, 0.000000000000000000, 0.000000000000000000 ) ) ;
#217 = APPROVAL_STATUS ( 'not_yet_approved' ) ;
#218 = APPROVAL ( #274, 'UNSPECIFIED' ) ;
#219 = AXIS2_PLACEMENT_3D ( 'NONE', #224, #110, #181 ) ;
#220 = CARTESIAN_POINT ( 'NONE',  ( 0.000000000000000000, 10.00000000000000000, -19.99999999999999645 ) ) ;
#221 = APPROVAL_DATE_TIME ( #125, #179 ) ;
#222 = COORDINATED_UNIVERSAL_TIME_OFFSET ( 0, 0, .AHEAD. ) ;
#223 = EDGE_CURVE ( 'NONE', #288, #158, #214, .T. ) ;
#224 = CARTESIAN_POINT ( 'NONE',  ( 0.000000000000000000, 1.000000000000004441, 0.000000000000000000 ) ) ;
#225 = AXIS2_PLACEMENT_3D ( 'NONE', #132, #115, #262 ) ;
#226 = DIRECTION ( 'NONE',  ( -0.000000000000000000, 1.000000000000000000, -0.000000000000000000 ) ) ;
#227 = CC_DESIGN_PERSON_AND_ORGANIZATION_ASSIGNMENT ( #105, #150, ( #103 ) ) ;
#228 = CARTESIAN_POINT ( 'NONE',  ( 2.449293598294706119E-15, 10.00000000000000000, 19.99999999999999645 ) ) ;
#229 = AXIS2_PLACEMENT_3D ( 'NONE', #267, #270, #53 ) ;
#230 = CARTESIAN_POINT ( 'NONE',  ( 0.000000000000000000, 10.00000000000000000, 0.000000000000000000 ) ) ;
#231 = ADVANCED_FACE ( 'NONE', ( #157 ), #207, .T. ) ;
#232 = DIRECTION ( 'NONE',  ( 0.000000000000000000, 0.000000000000000000, -1.000000000000000000 ) ) ;
#233 = ORIENTED_EDGE ( 'NONE', *, *, #64, .T. ) ;
#234 = LINE ( 'NONE', #228, #43 ) ;
#235 = EDGE_LOOP ( 'NONE', ( #211, #187, #280, #100 ) ) ;
#236 = LOCAL_TIME ( 15, 0, 32.00000000000000000, #174 ) ;
#237 = ORIENTED_EDGE ( 'NONE', *, *, #37, .T. ) ;
#238 = EDGE_CURVE ( 'NONE', #264, #140, #95, .T. ) ;
#239 = ORIENTED_EDGE ( 'NONE', *, *, #223, .F. ) ;
#240 = APPROVAL_ROLE ( '' ) ;
#241 = DIRECTION ( 'NONE',  ( -0.000000000000000000, 1.000000000000000000, -0.000000000000000000 ) ) ;
#242 = ORIENTED_EDGE ( 'NONE', *, *, #164, .T. ) ;
#243 = LINE ( 'NONE', #55, #108 ) ;
#244 = PRODUCT ( 'die', 'die', '', ( #120 ) ) ;
#245 = AXIS2_PLACEMENT_3D ( 'NONE', #304, #65, #36 ) ;
#246 = DATE_AND_TIME ( #147, #247 ) ;
#247 = LOCAL_TIME ( 15, 0, 32.00000000000000000, #222 ) ;
#248 = AXIS2_PLACEMENT_3D ( 'NONE', #76, #79, #216 ) ;
#249 = DIRECTION ( 'NONE',  ( 0.000000000000000000, 0.000000000000000000, 1.000000000000000000 ) ) ;
#250 = DATE_AND_TIME ( #12, #236 ) ;
#251 = PRODUCT_DEFINITION_SHAPE ( 'NONE', 'NONE',  #197 ) ;
#252 = DIRECTION ( 'NONE',  ( 0.000000000000000000, 0.000000000000000000, 1.000000000000000000 ) ) ;
#253 = CARTESIAN_POINT ( 'NONE',  ( 2.388061258337337756E-15, 0.000000000000000000, -18.99999999999998579 ) ) ;
#254 = CARTESIAN_POINT ( 'NONE',  ( 0.000000000000000000, 2.000000000000000000, -2.549999999999999822 ) ) ;
#255 = DESIGN_CONTEXT ( 'detailed design', #152, 'design' ) ;
#256 = ADVANCED_BREP_SHAPE_REPRESENTATION ( 'die', ( #291, #248 ), #5 ) ;
#257 = CARTESIAN_POINT ( 'NONE',  ( 3.122849337825750419E-16, 2.000000000000000000, 2.549999999999999822 ) ) ;
#258 = AXIS2_PLACEMENT_3D ( 'NONE', #205, #45, #7 ) ;
#259 = ORIENTED_EDGE ( 'NONE', *, *, #41, .F. ) ;
#260 = ADVANCED_FACE ( 'NONE', ( #101 ), #131, .T. ) ;
#261 = FACE_OUTER_BOUND ( 'NONE', #209, .T. ) ;
#262 = DIRECTION ( 'NONE',  ( 0.000000000000000000, 0.000000000000000000, -1.000000000000000000 ) ) ;
#263 = AXIS2_PLACEMENT_3D ( 'NONE', #34, #127, #77 ) ;
#264 = VERTEX_POINT ( 'NONE', #257 ) ;
#265 = APPLICATION_PROTOCOL_DEFINITION ( 'international standard', 'config_control_design', 1994, #152 ) ;
#266 = DIRECTION ( 'NONE',  ( 0.000000000000000000, 0.000000000000000000, -1.000000000000000000 ) ) ;
#267 = CARTESIAN_POINT ( 'NONE',  ( 0.000000000000000000, 10.00000000000000000, 0.000000000000000000 ) ) ;
#268 = AXIS2_PLACEMENT_3D ( 'NONE', #85, #241, #249 ) ;
#269 =( NAMED_UNIT ( * ) SI_UNIT ( $, .STERADIAN. ) SOLID_ANGLE_UNIT ( ) );
#270 = DIRECTION ( 'NONE',  ( 0.000000000000000000, 1.000000000000000000, 0.000000000000000000 ) ) ;
#271 = COORDINATED_UNIVERSAL_TIME_OFFSET ( 0, 0, .AHEAD. ) ;
#272 =( NAMED_UNIT ( * ) PLANE_ANGLE_UNIT ( ) SI_UNIT ( $, .RADIAN. ) );
#273 = DIRECTION ( 'NONE',  ( 0.000000000000000000, -1.000000000000000000, 0.000000000000000000 ) ) ;
#274 = APPROVAL_STATUS ( 'not_yet_approved' ) ;
#275 = EDGE_CURVE ( 'NONE', #46, #288, #6, .T. ) ;
#276 = CALENDAR_DATE ( 2025, 5, 12 ) ;
#277 = FACE_OUTER_BOUND ( 'NONE', #26, .T. ) ;
#278 = APPROVAL ( #107, 'UNSPECIFIED' ) ;
#279 = DIRECTION ( 'NONE',  ( 0.000000000000000000, 1.000000000000000000, 0.000000000000000000 ) ) ;
#280 = ORIENTED_EDGE ( 'NONE', *, *, #275, .T. ) ;
#281 = CYLINDRICAL_SURFACE ( 'NONE', #245, 2.549999999999999822 ) ;
#282 = DIRECTION ( 'NONE',  ( 0.000000000000000000, 0.000000000000000000, 1.000000000000000000 ) ) ;
#283 = EDGE_CURVE ( 'NONE', #264, #156, #23, .T. ) ;
#284 = CARTESIAN_POINT ( 'NONE',  ( 0.000000000000000000, 10.00000000000000000, 0.000000000000000000 ) ) ;
#285 = LOCAL_TIME ( 15, 0, 32.00000000000000000, #57 ) ;
#286 = ORIENTED_EDGE ( 'NONE', *, *, #64, .F. ) ;
#287 = DIRECTION ( 'NONE',  ( -0.000000000000000000, -1.000000000000000000, -0.000000000000000000 ) ) ;
#288 = VERTEX_POINT ( 'NONE', #297 ) ;
#289 = ORIENTED_EDGE ( 'NONE', *, *, #283, .T. ) ;
#290 = AXIS2_PLACEMENT_3D ( 'NONE', #123, #106, #148 ) ;
#291 = MANIFOLD_SOLID_BREP ( 'Cut-Extrude1', #198 ) ;
#292 = CARTESIAN_POINT ( 'NONE',  ( 0.000000000000000000, 2.000000000000000000, -2.549999999999999822 ) ) ;
#293 = APPLICATION_PROTOCOL_DEFINITION ( 'international standard', 'config_control_design', 1994, #133 ) ;
#294 = DATE_AND_TIME ( #192, #126 ) ;
#295 = ORIENTED_EDGE ( 'NONE', *, *, #22, .T. ) ;
#296 = EDGE_CURVE ( 'NONE', #93, #158, #243, .T. ) ;
#297 = CARTESIAN_POINT ( 'NONE',  ( 2.449293598294706119E-15, 1.000000000000004441, 19.99999999999999645 ) ) ;
#298 = EDGE_LOOP ( 'NONE', ( #162, #286, #3, #237 ) ) ;
#299 = CARTESIAN_POINT ( 'NONE',  ( 3.122849337825750419E-16, 0.000000000000000000, 2.549999999999999822 ) ) ;
#300 = PERSON_AND_ORGANIZATION ( #69, #66 ) ;
#301 = CC_DESIGN_APPROVAL ( #179, ( #50 ) ) ;
#302 = ORIENTED_EDGE ( 'NONE', *, *, #18, .F. ) ;
#303 = FACE_OUTER_BOUND ( 'NONE', #24, .T. ) ;
#304 = CARTESIAN_POINT ( 'NONE',  ( 0.000000000000000000, 2.000000000000000000, 0.000000000000000000 ) ) ;
#305 = ORIENTED_EDGE ( 'NONE', *, *, #164, .F. ) ;
ENDSEC;
END-ISO-10303-21;
