ISO-10303-21;
HEADER;
FILE_DESCRIPTION (( 'STEP AP203' ),
    '1' );
FILE_NAME ('ext_punch.STEP',
    '2025-12-05T15:00:40',
    ( '' ),
    ( '' ),
    'SwSTEP 2.0',
    'SolidWorks 2020',
    '' );
FILE_SCHEMA (( 'CONFIG_CONTROL_DESIGN' ));
ENDSEC;

DATA;
#1 = ORIENTED_EDGE ( 'NONE', *, *, #507, .T. ) ;
#2 = CALENDAR_DATE ( 2025, 5, 12 ) ;
#3 = DIRECTION ( 'NONE',  ( -1.000000000000000000, 0.000000000000000000, 0.000000000000000000 ) ) ;
#4 = ORIENTED_EDGE ( 'NONE', *, *, #359, .F. ) ;
#5 = CIRCLE ( 'NONE', #120, 1.000000000000000888 ) ;
#6 = CIRCLE ( 'NONE', #121, 10.65000000000000568 ) ;
#7 = CARTESIAN_POINT ( 'NONE',  ( -14.25000000000003730, 33.60000000000000142, 0.000000000000000000 ) ) ;
#8 = VERTEX_POINT ( 'NONE', #210 ) ;
#9 = EDGE_CURVE ( 'NONE', #88, #437, #172, .T. ) ;
#10 = DIRECTION ( 'NONE',  ( 8.761229676650544604E-17, -1.000000000000000000, 0.000000000000000000 ) ) ;
#11 = CARTESIAN_POINT ( 'NONE',  ( -3.469446951953614189E-15, 39.59999999999998010, 0.000000000000000000 ) ) ;
#12 = CIRCLE ( 'NONE', #41, 20.00000000000000711 ) ;
#13 = EDGE_CURVE ( 'NONE', #19, #17, #53, .T. ) ;
#14 = PRODUCT_DEFINITION ( 'UNKNOWN', '', #337, #456 ) ;
#15 = CARTESIAN_POINT ( 'NONE',  ( 10.71030737921409859, 2.708045547110081053, 0.000000000000000000 ) ) ;
#16 = DIRECTION ( 'NONE',  ( -1.000000000000000000, 0.000000000000000000, 0.000000000000000000 ) ) ;
#17 = VERTEX_POINT ( 'NONE', #104 ) ;
#18 = CARTESIAN_POINT ( 'NONE',  ( -3.381834655187110234E-15, 38.59999999999999432, 0.000000000000000000 ) ) ;
#19 = VERTEX_POINT ( 'NONE', #15 ) ;
#20 = APPROVAL_PERSON_ORGANIZATION ( #335, #100, #182 ) ;
#21 = VECTOR ( 'NONE', #74, 1000.000000000000114 ) ;
#22 = CARTESIAN_POINT ( 'NONE',  ( 2.549999999999996270, 39.59999999999998010, 3.122849337825750419E-16 ) ) ;
#23 = EDGE_CURVE ( 'NONE', #17, #440, #251, .T. ) ;
#24 = VERTEX_POINT ( 'NONE', #607 ) ;
#25 = EDGE_CURVE ( 'NONE', #346, #440, #154, .T. ) ;
#26 = CARTESIAN_POINT ( 'NONE',  ( -11.14999999999999680, -9.768771089465355612E-16, 0.000000000000000000 ) ) ;
#27 = CARTESIAN_POINT ( 'NONE',  ( -19.00000000000002487, 39.59999999999998010, 2.326828918379973731E-15 ) ) ;
#28 = DIRECTION ( 'NONE',  ( -1.000000000000000000, -8.761229676650544604E-17, 0.000000000000000000 ) ) ;
#29 = ORIENTED_EDGE ( 'NONE', *, *, #23, .T. ) ;
#30 = AXIS2_PLACEMENT_3D ( 'NONE', #411, #509, #462 ) ;
#31 = DIRECTION ( 'NONE',  ( -8.761229676650544604E-17, 1.000000000000000000, -0.000000000000000000 ) ) ;
#32 = CARTESIAN_POINT ( 'NONE',  ( -3.469446951953614189E-15, 39.59999999999998010, 0.000000000000000000 ) ) ;
#33 = CARTESIAN_POINT ( 'NONE',  ( 19.00000000000001776, 39.59999999999998010, 0.000000000000000000 ) ) ;
#34 = DIRECTION ( 'NONE',  ( -1.000000000000000000, -8.761229676650544604E-17, 0.000000000000000000 ) ) ;
#35 = EDGE_LOOP ( 'NONE', ( #191, #79 ) ) ;
#36 = DATE_TIME_ROLE ( 'creation_date' ) ;
#37 = DIRECTION ( 'NONE',  ( -8.761229676650544604E-17, 1.000000000000000000, -0.000000000000000000 ) ) ;
#38 = DIRECTION ( 'NONE',  ( -1.000000000000000000, 0.000000000000000000, 0.000000000000000000 ) ) ;
#39 = ORIENTED_EDGE ( 'NONE', *, *, #211, .F. ) ;
#40 = DATE_AND_TIME ( #2, #298 ) ;
#41 = AXIS2_PLACEMENT_3D ( 'NONE', #321, #177, #260 ) ;
#42 = CARTESIAN_POINT ( 'NONE',  ( -3.294222358420603519E-15, 37.59999999999998010, 0.000000000000000000 ) ) ;
#43 = CIRCLE ( 'NONE', #339, 11.15000000000000036 ) ;
#44 = ORIENTED_EDGE ( 'NONE', *, *, #163, .F. ) ;
#45 = DIRECTION ( 'NONE',  ( -8.761229676650544604E-17, 1.000000000000000000, 0.000000000000000000 ) ) ;
#46 = ORIENTED_EDGE ( 'NONE', *, *, #409, .T. ) ;
#47 = APPROVAL_DATE_TIME ( #131, #149 ) ;
#48 = CARTESIAN_POINT ( 'NONE',  ( -20.00000000000000711, 39.59999999999998010, 0.000000000000000000 ) ) ;
#49 = ORIENTED_EDGE ( 'NONE', *, *, #469, .F. ) ;
#50 = ADVANCED_FACE ( 'NONE', ( #395 ), #508, .T. ) ;
#51 = CARTESIAN_POINT ( 'NONE',  ( -3.469446951953614189E-15, 39.59999999999998010, 0.000000000000000000 ) ) ;
#52 = ORIENTED_EDGE ( 'NONE', *, *, #122, .F. ) ;
#53 = CIRCLE ( 'NONE', #81, 10.71030737921409859 ) ;
#54 = AXIS2_PLACEMENT_3D ( 'NONE', #494, #331, #38 ) ;
#55 = VERTEX_POINT ( 'NONE', #204 ) ;
#56 = EDGE_LOOP ( 'NONE', ( #571, #303, #482, #106 ) ) ;
#57 = EDGE_CURVE ( 'NONE', #17, #19, #549, .T. ) ;
#58 = CARTESIAN_POINT ( 'NONE',  ( -1.159700333879870052E-16, 1.323673019291544906, 0.000000000000000000 ) ) ;
#59 = ORIENTED_EDGE ( 'NONE', *, *, #13, .F. ) ;
#60 = CC_DESIGN_APPROVAL ( #100, ( #119 ) ) ;
#61 = CONICAL_SURFACE ( 'NONE', #398, 10.65000000000000568, 0.7853981633974523868 ) ;
#62 = AXIS2_PLACEMENT_3D ( 'NONE', #327, #582, #566 ) ;
#63 = VERTEX_POINT ( 'NONE', #452 ) ;
#64 = DIRECTION ( 'NONE',  ( 1.000000000000000000, 9.723786300318421592E-17, 0.000000000000000000 ) ) ;
#65 = ORIENTED_EDGE ( 'NONE', *, *, #92, .T. ) ;
#66 = EDGE_CURVE ( 'NONE', #437, #284, #402, .T. ) ;
#67 = DIRECTION ( 'NONE',  ( 1.000000000000000000, 0.000000000000000000, 0.000000000000000000 ) ) ;
#68 = DIRECTION ( 'NONE',  ( -8.761229676650544604E-17, 1.000000000000000000, -0.000000000000000000 ) ) ;
#69 = CC_DESIGN_DATE_AND_TIME_ASSIGNMENT ( #140, #36, ( #14 ) ) ;
#70 = CLOSED_SHELL ( 'NONE', ( #623, #300, #484, #99, #614, #588, #114, #527, #50, #202, #418, #491, #304, #196, #193, #322, #442, #296, #468, #137, #273, #385 ) ) ;
#71 = VECTOR ( 'NONE', #179, 1000.000000000000000 ) ;
#72 = CARTESIAN_POINT ( 'NONE',  ( -1.314184451497583724E-16, 1.500000000000001332, 0.000000000000000000 ) ) ;
#73 = CARTESIAN_POINT ( 'NONE',  ( -2.672232604277940291E-16, 3.050065690435754817, 0.000000000000000000 ) ) ;
#74 = DIRECTION ( 'NONE',  ( 0.3420201433256752077, -0.9396926207859059854, 0.000000000000000000 ) ) ;
#75 = FACE_OUTER_BOUND ( 'NONE', #84, .T. ) ;
#76 = ORIENTED_EDGE ( 'NONE', *, *, #551, .T. ) ;
#77 = EDGE_CURVE ( 'NONE', #279, #55, #326, .T. ) ;
#78 = FACE_OUTER_BOUND ( 'NONE', #221, .T. ) ;
#79 = ORIENTED_EDGE ( 'NONE', *, *, #125, .T. ) ;
#80 = SECURITY_CLASSIFICATION_LEVEL ( 'unclassified' ) ;
#81 = AXIS2_PLACEMENT_3D ( 'NONE', #450, #10, #404 ) ;
#82 = AXIS2_PLACEMENT_3D ( 'NONE', #86, #268, #126 ) ;
#83 = DIRECTION ( 'NONE',  ( -1.000000000000000000, 0.000000000000000000, 0.000000000000000000 ) ) ;
#84 = EDGE_LOOP ( 'NONE', ( #195, #44 ) ) ;
#85 = DATE_AND_TIME ( #536, #600 ) ;
#86 = CARTESIAN_POINT ( 'NONE',  ( -3.294222358420603519E-15, 37.59999999999998010, 0.000000000000000000 ) ) ;
#87 = DIRECTION ( 'NONE',  ( 1.000000000000000000, 0.000000000000000000, 0.000000000000000000 ) ) ;
#88 = VERTEX_POINT ( 'NONE', #371 ) ;
#89 = DIRECTION ( 'NONE',  ( -1.000000000000000000, 0.000000000000000000, 0.000000000000000000 ) ) ;
#90 = DIRECTION ( 'NONE',  ( 8.761229676650556930E-17, -1.000000000000000000, 0.000000000000000000 ) ) ;
#91 = VERTEX_POINT ( 'NONE', #478 ) ;
#92 = EDGE_CURVE ( 'NONE', #498, #17, #557, .T. ) ;
#93 = DIRECTION ( 'NONE',  ( 0.000000000000000000, 0.000000000000000000, 1.000000000000000000 ) ) ;
#94 = AXIS2_PLACEMENT_3D ( 'NONE', #518, #562, #117 ) ;
#95 = CIRCLE ( 'NONE', #173, 11.14999999999999680 ) ;
#96 = VERTEX_POINT ( 'NONE', #266 ) ;
#97 = APPROVAL_DATE_TIME ( #85, #305 ) ;
#98 = DIRECTION ( 'NONE',  ( -1.000000000000000000, -8.761229676650544604E-17, 0.000000000000000000 ) ) ;
#99 = ADVANCED_FACE ( 'NONE', ( #127 ), #496, .T. ) ;
#100 = APPROVAL ( #476, 'UNSPECIFIED' ) ;
#101 = CARTESIAN_POINT ( 'NONE',  ( -1.159700333879870052E-16, 1.323673019291544906, 0.000000000000000000 ) ) ;
#102 = EDGE_LOOP ( 'NONE', ( #610, #430, #499, #352 ) ) ;
#103 = CIRCLE ( 'NONE', #338, 20.00000000000000711 ) ;
#104 = CARTESIAN_POINT ( 'NONE',  ( -10.71030737921409859, 2.708045547110079276, 1.334865011070615639E-15 ) ) ;
#105 = APPROVAL_PERSON_ORGANIZATION ( #634, #149, #192 ) ;
#106 = ORIENTED_EDGE ( 'NONE', *, *, #92, .F. ) ;
#107 = CARTESIAN_POINT ( 'NONE',  ( -11.15000000000000391, 1.500000000000000222, 1.365481181049299229E-15 ) ) ;
#108 = EDGE_CURVE ( 'NONE', #55, #267, #463, .T. ) ;
#109 = EDGE_LOOP ( 'NONE', ( #637, #541, #587, #386 ) ) ;
#110 = VECTOR ( 'NONE', #217, 1000.000000000000000 ) ;
#111 = CIRCLE ( 'NONE', #225, 14.25000000000003375 ) ;
#112 = CARTESIAN_POINT ( 'NONE',  ( -3.469446951953614189E-15, 39.59999999999998010, 0.000000000000000000 ) ) ;
#113 = DIRECTION ( 'NONE',  ( -8.761229676650544604E-17, 1.000000000000000000, -0.000000000000000000 ) ) ;
#114 = ADVANCED_FACE ( 'NONE', ( #78 ), #567, .T. ) ;
#115 = DIRECTION ( 'NONE',  ( 1.000000000000000000, 0.000000000000000000, 0.000000000000000000 ) ) ;
#116 = DIRECTION ( 'NONE',  ( 8.761229676650544604E-17, -1.000000000000000000, 0.000000000000000000 ) ) ;
#117 = DIRECTION ( 'NONE',  ( -1.000000000000000000, 0.000000000000000000, 0.000000000000000000 ) ) ;
#118 = VERTEX_POINT ( 'NONE', #170 ) ;
#119 = SECURITY_CLASSIFICATION ( '', '', #80 ) ;
#120 = AXIS2_PLACEMENT_3D ( 'NONE', #244, #485, #636 ) ;
#121 = AXIS2_PLACEMENT_3D ( 'NONE', #139, #534, #282 ) ;
#122 = EDGE_CURVE ( 'NONE', #389, #267, #542, .T. ) ;
#123 = DIRECTION ( 'NONE',  ( 1.000000000000000000, 0.000000000000000000, 0.000000000000000000 ) ) ;
#124 = ORIENTED_EDGE ( 'NONE', *, *, #409, .F. ) ;
#125 = EDGE_CURVE ( 'NONE', #55, #279, #144, .T. ) ;
#126 = DIRECTION ( 'NONE',  ( -1.000000000000000000, 0.000000000000000000, 0.000000000000000000 ) ) ;
#127 = FACE_OUTER_BOUND ( 'NONE', #213, .T. ) ;
#128 = ORIENTED_EDGE ( 'NONE', *, *, #603, .F. ) ;
#129 = PERSON_AND_ORGANIZATION ( #453, #183 ) ;
#130 = DIRECTION ( 'NONE',  ( -1.000000000000000000, 0.000000000000000000, 0.000000000000000000 ) ) ;
#131 = DATE_AND_TIME ( #243, #396 ) ;
#132 = AXIS2_PLACEMENT_3D ( 'NONE', #311, #351, #165 ) ;
#133 = AXIS2_PLACEMENT_3D ( 'NONE', #324, #626, #412 ) ;
#134 = LINE ( 'NONE', #320, #618 ) ;
#135 = CARTESIAN_POINT ( 'NONE',  ( 19.00000000000001776, 39.59999999999998010, 0.000000000000000000 ) ) ;
#136 = APPLICATION_PROTOCOL_DEFINITION ( 'international standard', 'config_control_design', 1994, #417 ) ;
#137 = ADVANCED_FACE ( 'NONE', ( #425 ), #523, .F. ) ;
#138 = CARTESIAN_POINT ( 'NONE',  ( -2.628368902995162814E-15, 30.00000000000000000, 0.000000000000000000 ) ) ;
#139 = CARTESIAN_POINT ( 'NONE',  ( -2.628368902995162814E-15, 30.00000000000000000, 0.000000000000000000 ) ) ;
#140 = DATE_AND_TIME ( #373, #629 ) ;
#141 = CARTESIAN_POINT ( 'NONE',  ( 10.65000000000000391, 3.050065690435755705, 1.304248841091932049E-15 ) ) ;
#142 = ORIENTED_EDGE ( 'NONE', *, *, #344, .T. ) ;
#143 = DATE_TIME_ROLE ( 'classification_date' ) ;
#144 = CIRCLE ( 'NONE', #511, 19.00000000000002132 ) ;
#145 = LINE ( 'NONE', #555, #214 ) ;
#146 = VECTOR ( 'NONE', #436, 1000.000000000000000 ) ;
#147 = EDGE_CURVE ( 'NONE', #284, #24, #405, .T. ) ;
#148 = ORIENTED_EDGE ( 'NONE', *, *, #507, .F. ) ;
#149 = APPROVAL ( #325, 'UNSPECIFIED' ) ;
#150 = FACE_OUTER_BOUND ( 'NONE', #242, .T. ) ;
#151 = EDGE_LOOP ( 'NONE', ( #568, #301 ) ) ;
#152 = EDGE_LOOP ( 'NONE', ( #124, #245 ) ) ;
#153 = PRODUCT_DEFINITION_SHAPE ( 'NONE', 'NONE',  #14 ) ;
#154 = CIRCLE ( 'NONE', #197, 11.08969262078590745 ) ;
#155 = CARTESIAN_POINT ( 'NONE',  ( -2.372580901306222831E-16, 2.708045547110080165, 0.000000000000000000 ) ) ;
#156 = CONICAL_SURFACE ( 'NONE', #262, 11.15000000000000391, 0.3490658503988727235 ) ;
#157 = ORIENTED_EDGE ( 'NONE', *, *, #77, .F. ) ;
#158 = CARTESIAN_POINT ( 'NONE',  ( -3.469446951953614189E-15, 39.59999999999998010, 0.000000000000000000 ) ) ;
#159 = CARTESIAN_POINT ( 'NONE',  ( 0.000000000000000000, 0.000000000000000000, 0.000000000000000000 ) ) ;
#160 = CARTESIAN_POINT ( 'NONE',  ( -10.65000000000000924, 30.00000000000000000, 0.000000000000000000 ) ) ;
#161 = EDGE_CURVE ( 'NONE', #498, #250, #271, .T. ) ;
#162 = AXIS2_PLACEMENT_3D ( 'NONE', #18, #312, #67 ) ;
#163 = EDGE_CURVE ( 'NONE', #531, #118, #12, .T. ) ;
#164 = CYLINDRICAL_SURFACE ( 'NONE', #185, 11.15000000000000036 ) ;
#165 = DIRECTION ( 'NONE',  ( -1.000000000000000000, 0.000000000000000000, 0.000000000000000000 ) ) ;
#166 = DIRECTION ( 'NONE',  ( 1.000000000000000000, 8.761229676650544604E-17, 0.000000000000000000 ) ) ;
#167 = DIRECTION ( 'NONE',  ( -8.761229676650544604E-17, 1.000000000000000000, -0.000000000000000000 ) ) ;
#168 = EDGE_CURVE ( 'NONE', #118, #531, #103, .T. ) ;
#169 = DIRECTION ( 'NONE',  ( -8.761229676650544604E-17, 1.000000000000000000, -0.000000000000000000 ) ) ;
#170 = CARTESIAN_POINT ( 'NONE',  ( -20.00000000000001066, 33.59999999999999432, 0.000000000000000000 ) ) ;
#171 = VERTEX_POINT ( 'NONE', #22 ) ;
#172 = CIRCLE ( 'NONE', #132, 10.65000000000000568 ) ;
#173 = AXIS2_PLACEMENT_3D ( 'NONE', #159, #354, #559 ) ;
#174 = DIRECTION ( 'NONE',  ( -8.761229676650544604E-17, 1.000000000000000000, -0.000000000000000000 ) ) ;
#175 = ORIENTED_EDGE ( 'NONE', *, *, #368, .F. ) ;
#176 = FACE_OUTER_BOUND ( 'NONE', #109, .T. ) ;
#177 = DIRECTION ( 'NONE',  ( -8.761229676650544604E-17, 1.000000000000000000, -0.000000000000000000 ) ) ;
#178 = COORDINATED_UNIVERSAL_TIME_OFFSET ( 0, 0, .AHEAD. ) ;
#179 = DIRECTION ( 'NONE',  ( -8.761229676650544604E-17, 1.000000000000000000, -0.000000000000000000 ) ) ;
#180 = DIRECTION ( 'NONE',  ( -1.000000000000000000, -8.761229676650544604E-17, 0.000000000000000000 ) ) ;
#181 = EDGE_CURVE ( 'NONE', #464, #171, #510, .T. ) ;
#182 = APPROVAL_ROLE ( '' ) ;
#183 = ORGANIZATION ( 'UNSPECIFIED', 'UNSPECIFIED', '' ) ;
#184 = AXIS2_PLACEMENT_3D ( 'NONE', #158, #355, #560 ) ;
#185 = AXIS2_PLACEMENT_3D ( 'NONE', #112, #169, #16 ) ;
#186 = EDGE_CURVE ( 'NONE', #250, #498, #608, .T. ) ;
#187 = CARTESIAN_POINT ( 'NONE',  ( 10.65000000000000036, 39.59999999999998010, 1.304248841091931655E-15 ) ) ;
#188 = CARTESIAN_POINT ( 'NONE',  ( -3.294222358420603519E-15, 37.59999999999998010, 0.000000000000000000 ) ) ;
#189 = DIRECTION ( 'NONE',  ( -8.761229676650544604E-17, 1.000000000000000000, -0.000000000000000000 ) ) ;
#190 = FACE_OUTER_BOUND ( 'NONE', #56, .T. ) ;
#191 = ORIENTED_EDGE ( 'NONE', *, *, #77, .T. ) ;
#192 = APPROVAL_ROLE ( '' ) ;
#193 = ADVANCED_FACE ( 'NONE', ( #75, #522 ), #466, .F. ) ;
#194 = DIRECTION ( 'NONE',  ( -1.000000000000000000, 0.000000000000000000, 0.000000000000000000 ) ) ;
#195 = ORIENTED_EDGE ( 'NONE', *, *, #168, .F. ) ;
#196 = ADVANCED_FACE ( 'NONE', ( #616 ), #61, .T. ) ;
#197 = AXIS2_PLACEMENT_3D ( 'NONE', #201, #254, #207 ) ;
#198 = DIRECTION ( 'NONE',  ( 1.000000000000000000, 9.723786300318425290E-17, 0.000000000000000000 ) ) ;
#199 = ORIENTED_EDGE ( 'NONE', *, *, #595, .T. ) ;
#200 = ORIENTED_EDGE ( 'NONE', *, *, #350, .T. ) ;
#201 = CARTESIAN_POINT ( 'NONE',  ( -1.459352036851587512E-16, 1.665693162617217560, 0.000000000000000000 ) ) ;
#202 = ADVANCED_FACE ( 'NONE', ( #362 ), #369, .F. ) ;
#203 = AXIS2_PLACEMENT_3D ( 'NONE', #11, #113, #552 ) ;
#204 = CARTESIAN_POINT ( 'NONE',  ( -19.00000000000002487, 39.59999999999998010, 2.388061258337340517E-15 ) ) ;
#205 = CONICAL_SURFACE ( 'NONE', #609, 11.15000000000000391, 0.3490658503988727235 ) ;
#206 = CARTESIAN_POINT ( 'NONE',  ( -1.159700333879873996E-16, 1.323673019291544906, 0.000000000000000000 ) ) ;
#207 = DIRECTION ( 'NONE',  ( -1.000000000000000000, -7.821332544083942140E-17, 0.000000000000000000 ) ) ;
#208 = EDGE_CURVE ( 'NONE', #250, #19, #5, .T. ) ;
#209 = PLANE ( 'NONE',  #297 ) ;
#210 = CARTESIAN_POINT ( 'NONE',  ( -2.550000000000003375, 39.59999999999998010, 0.000000000000000000 ) ) ;
#211 = EDGE_CURVE ( 'NONE', #319, #464, #576, .T. ) ;
#212 = FACE_OUTER_BOUND ( 'NONE', #516, .T. ) ;
#213 = EDGE_LOOP ( 'NONE', ( #471, #413, #52, #556 ) ) ;
#214 = VECTOR ( 'NONE', #363, 1000.000000000000000 ) ;
#215 = CIRCLE ( 'NONE', #162, 20.00000000000000355 ) ;
#216 = CARTESIAN_POINT ( 'NONE',  ( 2.549999999999996270, 37.59999999999998010, 3.122849337825750419E-16 ) ) ;
#217 = DIRECTION ( 'NONE',  ( -8.761229676650544604E-17, 1.000000000000000000, -0.000000000000000000 ) ) ;
#218 = ORIENTED_EDGE ( 'NONE', *, *, #283, .T. ) ;
#219 = DIRECTION ( 'NONE',  ( 8.761229676650544604E-17, -1.000000000000000000, 0.000000000000000000 ) ) ;
#220 = CARTESIAN_POINT ( 'NONE',  ( 14.25000000000003020, 33.59999999999999432, 0.000000000000000000 ) ) ;
#221 = EDGE_LOOP ( 'NONE', ( #422, #76, #455, #519 ) ) ;
#222 = LINE ( 'NONE', #381, #21 ) ;
#223 = CARTESIAN_POINT ( 'NONE',  ( -2.628368902995162814E-15, 30.00000000000000000, 0.000000000000000000 ) ) ;
#224 = CIRCLE ( 'NONE', #451, 11.15000000000000036 ) ;
#225 = AXIS2_PLACEMENT_3D ( 'NONE', #472, #31, #232 ) ;
#226 = DIRECTION ( 'NONE',  ( -1.000000000000000000, 0.000000000000000000, 0.000000000000000000 ) ) ;
#227 = EDGE_LOOP ( 'NONE', ( #370, #240, #65, #59 ) ) ;
#228 = LINE ( 'NONE', #533, #71 ) ;
#229 = EDGE_CURVE ( 'NONE', #63, #91, #224, .T. ) ;
#230 = DIRECTION ( 'NONE',  ( -1.000000000000000000, 0.000000000000000000, 0.000000000000000000 ) ) ;
#231 = DIRECTION ( 'NONE',  ( 1.000000000000000000, 0.000000000000000000, 0.000000000000000000 ) ) ;
#232 = DIRECTION ( 'NONE',  ( -1.000000000000000000, 0.000000000000000000, 0.000000000000000000 ) ) ;
#233 = PRODUCT ( 'ext_punch', 'ext_punch', '', ( #569 ) ) ;
#234 = FACE_OUTER_BOUND ( 'NONE', #249, .T. ) ;
#235 = ORIENTED_EDGE ( 'NONE', *, *, #147, .F. ) ;
#236 = PERSON_AND_ORGANIZATION_ROLE ( 'classification_officer' ) ;
#237 = VECTOR ( 'NONE', #299, 1000.000000000000114 ) ;
#238 = CYLINDRICAL_SURFACE ( 'NONE', #558, 2.549999999999999822 ) ;
#239 = DIRECTION ( 'NONE',  ( -1.000000000000000000, 0.000000000000000000, 0.000000000000000000 ) ) ;
#240 = ORIENTED_EDGE ( 'NONE', *, *, #161, .F. ) ;
#241 = CARTESIAN_POINT ( 'NONE',  ( 20.00000000000000000, 38.59999999999999432, 2.449293598294706907E-15 ) ) ;
#242 = EDGE_LOOP ( 'NONE', ( #444, #157, #199, #358 ) ) ;
#243 = CALENDAR_DATE ( 2025, 5, 12 ) ;
#244 = CARTESIAN_POINT ( 'NONE',  ( 11.65000000000000391, 3.050065690435755705, 1.426713521006667000E-15 ) ) ;
#245 = ORIENTED_EDGE ( 'NONE', *, *, #392, .F. ) ;
#246 = AXIS2_PLACEMENT_3D ( 'NONE', #73, #167, #34 ) ;
#247 = CARTESIAN_POINT ( 'NONE',  ( -2.550000000000003375, 37.59999999999998010, 0.000000000000000000 ) ) ;
#248 = AXIS2_PLACEMENT_3D ( 'NONE', #206, #314, #604 ) ;
#249 = EDGE_LOOP ( 'NONE', ( #128, #290, #495, #448 ) ) ;
#250 = VERTEX_POINT ( 'NONE', #141 ) ;
#251 = LINE ( 'NONE', #107, #237 ) ;
#252 = VECTOR ( 'NONE', #605, 1000.000000000000114 ) ;
#253 = CARTESIAN_POINT ( 'NONE',  ( -10.65000000000000746, 39.59999999999998010, 0.000000000000000000 ) ) ;
#254 = DIRECTION ( 'NONE',  ( -8.761229676650544604E-17, 1.000000000000000000, -0.000000000000000000 ) ) ;
#255 = DIRECTION ( 'NONE',  ( -8.761229676650544604E-17, 1.000000000000000000, 0.000000000000000000 ) ) ;
#256 = EDGE_LOOP ( 'NONE', ( #474, #39, #264, #46 ) ) ;
#257 = CARTESIAN_POINT ( 'NONE',  ( -10.65000000000000391, 3.050065690435753929, 0.000000000000000000 ) ) ;
#258 = ORIENTED_EDGE ( 'NONE', *, *, #229, .T. ) ;
#259 = DIRECTION ( 'NONE',  ( 8.761229676650544604E-17, -1.000000000000000000, 0.000000000000000000 ) ) ;
#260 = DIRECTION ( 'NONE',  ( -1.000000000000000000, 0.000000000000000000, 0.000000000000000000 ) ) ;
#261 = AXIS2_PLACEMENT_3D ( 'NONE', #391, #333, #492 ) ;
#262 = AXIS2_PLACEMENT_3D ( 'NONE', #72, #274, #424 ) ;
#263 = CARTESIAN_POINT ( 'NONE',  ( -2.943773171354582178E-15, 33.59999999999999432, 0.000000000000000000 ) ) ;
#264 = ORIENTED_EDGE ( 'NONE', *, *, #574, .T. ) ;
#265 = DIRECTION ( 'NONE',  ( -1.000000000000000000, 0.000000000000000000, 0.000000000000000000 ) ) ;
#266 = CARTESIAN_POINT ( 'NONE',  ( 11.14999999999999680, 9.768771089465351668E-16, 1.365481181049298637E-15 ) ) ;
#267 = VERTEX_POINT ( 'NONE', #388 ) ;
#268 = DIRECTION ( 'NONE',  ( -8.761229676650544604E-17, 1.000000000000000000, 0.000000000000000000 ) ) ;
#269 = DIRECTION ( 'NONE',  ( 8.761229676650556930E-17, -1.000000000000000000, 0.000000000000000000 ) ) ;
#270 = ORIENTED_EDGE ( 'NONE', *, *, #283, .F. ) ;
#271 = CIRCLE ( 'NONE', #307, 10.65000000000000391 ) ;
#272 = AXIS2_PLACEMENT_3D ( 'NONE', #545, #543, #239 ) ;
#273 = ADVANCED_FACE ( 'NONE', ( #292 ), #382, .F. ) ;
#274 = DIRECTION ( 'NONE',  ( 8.761229676650544604E-17, -1.000000000000000000, 0.000000000000000000 ) ) ;
#275 = CARTESIAN_POINT ( 'NONE',  ( 4.279322358671486691E-32, -4.884385544732677806E-16, 0.000000000000000000 ) ) ;
#276 = DATE_AND_TIME ( #441, #548 ) ;
#277 = FACE_OUTER_BOUND ( 'NONE', #416, .T. ) ;
#278 = FACE_OUTER_BOUND ( 'NONE', #493, .T. ) ;
#279 = VERTEX_POINT ( 'NONE', #135 ) ;
#280 = SHAPE_DEFINITION_REPRESENTATION ( #153, #532 ) ;
#281 = CARTESIAN_POINT ( 'NONE',  ( -3.294222358420603519E-15, 37.59999999999998010, 0.000000000000000000 ) ) ;
#282 = DIRECTION ( 'NONE',  ( -1.000000000000000000, 0.000000000000000000, 0.000000000000000000 ) ) ;
#283 = EDGE_CURVE ( 'NONE', #440, #63, #460, .T. ) ;
#284 = VERTEX_POINT ( 'NONE', #7 ) ;
#285 = PERSON_AND_ORGANIZATION_ROLE ( 'creator' ) ;
#286 = AXIS2_PLACEMENT_3D ( 'NONE', #188, #447, #529 ) ;
#287 = CIRCLE ( 'NONE', #367, 2.549999999999999822 ) ;
#288 = APPLICATION_PROTOCOL_DEFINITION ( 'international standard', 'config_control_design', 1994, #611 ) ;
#289 = CARTESIAN_POINT ( 'NONE',  ( 10.65000000000000213, 30.00000000000000000, 1.304248841091931852E-15 ) ) ;
#290 = ORIENTED_EDGE ( 'NONE', *, *, #163, .T. ) ;
#291 = COORDINATED_UNIVERSAL_TIME_OFFSET ( 0, 0, .AHEAD. ) ;
#292 = FACE_OUTER_BOUND ( 'NONE', #256, .T. ) ;
#293 = ORIENTED_EDGE ( 'NONE', *, *, #397, .F. ) ;
#294 = LINE ( 'NONE', #289, #423 ) ;
#295 = ORIENTED_EDGE ( 'NONE', *, *, #603, .T. ) ;
#296 = ADVANCED_FACE ( 'NONE', ( #150 ), #421, .T. ) ;
#297 = AXIS2_PLACEMENT_3D ( 'NONE', #302, #219, #403 ) ;
#298 = LOCAL_TIME ( 15, 0, 40.00000000000000000, #483 ) ;
#299 = DIRECTION ( 'NONE',  ( -0.3420201433256750967, -0.9396926207859059854, 4.188538737677070035E-17 ) ) ;
#300 = ADVANCED_FACE ( 'NONE', ( #190 ), #617, .F. ) ;
#301 = ORIENTED_EDGE ( 'NONE', *, *, #596, .T. ) ;
#302 = CARTESIAN_POINT ( 'NONE',  ( 20.00000000000000000, 39.59999999999998010, 0.000000000000000000 ) ) ;
#303 = ORIENTED_EDGE ( 'NONE', *, *, #208, .T. ) ;
#304 = ADVANCED_FACE ( 'NONE', ( #278 ), #443, .T. ) ;
#305 = APPROVAL ( #490, 'UNSPECIFIED' ) ;
#306 = APPROVAL_PERSON_ORGANIZATION ( #520, #305, #427 ) ;
#307 = AXIS2_PLACEMENT_3D ( 'NONE', #624, #174, #313 ) ;
#308 = EDGE_LOOP ( 'NONE', ( #627, #29, #394, #329 ) ) ;
#309 = VECTOR ( 'NONE', #615, 1000.000000000000000 ) ;
#310 = FACE_OUTER_BOUND ( 'NONE', #426, .T. ) ;
#311 = CARTESIAN_POINT ( 'NONE',  ( -2.628368902995162814E-15, 30.00000000000000000, 0.000000000000000000 ) ) ;
#312 = DIRECTION ( 'NONE',  ( 8.761229676650556930E-17, -1.000000000000000000, 0.000000000000000000 ) ) ;
#313 = DIRECTION ( 'NONE',  ( -1.000000000000000000, -8.144241671252612834E-17, 0.000000000000000000 ) ) ;
#314 = DIRECTION ( 'NONE',  ( 8.761229676650544604E-17, -1.000000000000000000, 0.000000000000000000 ) ) ;
#315 = DIRECTION ( 'NONE',  ( 1.000000000000000000, 0.000000000000000000, 0.000000000000000000 ) ) ;
#316 = CIRCLE ( 'NONE', #82, 2.549999999999999822 ) ;
#317 =( NAMED_UNIT ( * ) SI_UNIT ( $, .STERADIAN. ) SOLID_ANGLE_UNIT ( ) );
#318 = CARTESIAN_POINT ( 'NONE',  ( 2.549999999999996270, 37.59999999999998010, 3.122849337825750419E-16 ) ) ;
#319 = VERTEX_POINT ( 'NONE', #247 ) ;
#320 = CARTESIAN_POINT ( 'NONE',  ( 11.14999999999999680, 39.59999999999998010, 1.365481181049298835E-15 ) ) ;
#321 = CARTESIAN_POINT ( 'NONE',  ( -2.943773171354582178E-15, 33.59999999999999432, 0.000000000000000000 ) ) ;
#322 = ADVANCED_FACE ( 'NONE', ( #234 ), #583, .T. ) ;
#323 = CC_DESIGN_PERSON_AND_ORGANIZATION_ASSIGNMENT ( #479, #285, ( #14 ) ) ;
#324 = CARTESIAN_POINT ( 'NONE',  ( -2.672232604277938319E-16, 3.050065690435754817, 0.000000000000000000 ) ) ;
#325 = APPROVAL_STATUS ( 'not_yet_approved' ) ;
#326 = CIRCLE ( 'NONE', #184, 19.00000000000002132 ) ;
#327 = CARTESIAN_POINT ( 'NONE',  ( -1.459352036851587512E-16, 1.665693162617217560, 0.000000000000000000 ) ) ;
#328 = DIRECTION ( 'NONE',  ( -1.000000000000000000, -8.761229676650544604E-17, 0.000000000000000000 ) ) ;
#329 = ORIENTED_EDGE ( 'NONE', *, *, #572, .F. ) ;
#330 = DIRECTION ( 'NONE',  ( 0.7071067811865464625, -0.7071067811865486830, 0.000000000000000000 ) ) ;
#331 = DIRECTION ( 'NONE',  ( -8.761229676650544604E-17, 1.000000000000000000, -0.000000000000000000 ) ) ;
#332 = EDGE_LOOP ( 'NONE', ( #393, #366, #433, #486 ) ) ;
#333 = DIRECTION ( 'NONE',  ( 1.224646799147353207E-16, 1.072941188010488988E-32, 1.000000000000000000 ) ) ;
#334 = ORIENTED_EDGE ( 'NONE', *, *, #457, .T. ) ;
#335 = PERSON_AND_ORGANIZATION ( #453, #183 ) ;
#336 = CC_DESIGN_DATE_AND_TIME_ASSIGNMENT ( #276, #143, ( #119 ) ) ;
#337 = PRODUCT_DEFINITION_FORMATION_WITH_SPECIFIED_SOURCE ( 'ANY', '', #233, .NOT_KNOWN. ) ;
#338 = AXIS2_PLACEMENT_3D ( 'NONE', #263, #570, #130 ) ;
#339 = AXIS2_PLACEMENT_3D ( 'NONE', #58, #259, #357 ) ;
#340 = CARTESIAN_POINT ( 'NONE',  ( -3.469446951953614189E-15, 39.59999999999998010, 0.000000000000000000 ) ) ;
#341 = ORIENTED_EDGE ( 'NONE', *, *, #211, .T. ) ;
#342 = DIRECTION ( 'NONE',  ( 0.7071067811865503483, 0.7071067811865446862, 8.659560562354967371E-17 ) ) ;
#343 = ORIENTED_EDGE ( 'NONE', *, *, #585, .T. ) ;
#344 = EDGE_CURVE ( 'NONE', #437, #88, #6, .T. ) ;
#345 = CC_DESIGN_PERSON_AND_ORGANIZATION_ASSIGNMENT ( #438, #638, ( #233 ) ) ;
#346 = VERTEX_POINT ( 'NONE', #593 ) ;
#347 = AXIS2_PLACEMENT_3D ( 'NONE', #374, #419, #89 ) ;
#348 = CC_DESIGN_APPROVAL ( #149, ( #14 ) ) ;
#349 = EDGE_LOOP ( 'NONE', ( #524, #1, #591, #258 ) ) ;
#350 = EDGE_CURVE ( 'NONE', #88, #24, #294, .T. ) ;
#351 = DIRECTION ( 'NONE',  ( -8.761229676650544604E-17, 1.000000000000000000, -0.000000000000000000 ) ) ;
#352 = ORIENTED_EDGE ( 'NONE', *, *, #596, .F. ) ;
#353 = AXIS2_PLACEMENT_3D ( 'NONE', #42, #577, #3 ) ;
#354 = DIRECTION ( 'NONE',  ( -8.761229676650544604E-17, 1.000000000000000000, -0.000000000000000000 ) ) ;
#355 = DIRECTION ( 'NONE',  ( -8.761229676650544604E-17, 1.000000000000000000, -0.000000000000000000 ) ) ;
#356 = CIRCLE ( 'NONE', #30, 11.14999999999999680 ) ;
#357 = DIRECTION ( 'NONE',  ( 1.000000000000000000, 9.723786300318425290E-17, 0.000000000000000000 ) ) ;
#358 = ORIENTED_EDGE ( 'NONE', *, *, #500, .F. ) ;
#359 = EDGE_CURVE ( 'NONE', #346, #91, #408, .T. ) ;
#360 = CC_DESIGN_PERSON_AND_ORGANIZATION_ASSIGNMENT ( #573, #581, ( #337 ) ) ;
#361 = LINE ( 'NONE', #253, #309 ) ;
#362 = FACE_OUTER_BOUND ( 'NONE', #547, .T. ) ;
#363 = DIRECTION ( 'NONE',  ( -8.761229676650544604E-17, 1.000000000000000000, -0.000000000000000000 ) ) ;
#364 = DIRECTION ( 'NONE',  ( -8.761229676650544604E-17, 1.000000000000000000, -0.000000000000000000 ) ) ;
#365 = AXIS2_PLACEMENT_3D ( 'NONE', #275, #429, #180 ) ;
#366 = ORIENTED_EDGE ( 'NONE', *, *, #57, .T. ) ;
#367 = AXIS2_PLACEMENT_3D ( 'NONE', #505, #255, #454 ) ;
#368 = EDGE_CURVE ( 'NONE', #118, #267, #384, .T. ) ;
#369 = PLANE ( 'NONE',  #365 ) ;
#370 = ORIENTED_EDGE ( 'NONE', *, *, #208, .F. ) ;
#371 = CARTESIAN_POINT ( 'NONE',  ( 10.65000000000000213, 30.00000000000000000, 1.304248841091932049E-15 ) ) ;
#372 = ORIENTED_EDGE ( 'NONE', *, *, #530, .T. ) ;
#373 = CALENDAR_DATE ( 2025, 5, 12 ) ;
#374 = CARTESIAN_POINT ( 'NONE',  ( -3.469446951953614189E-15, 39.59999999999998010, 0.000000000000000000 ) ) ;
#375 = CARTESIAN_POINT ( 'NONE',  ( -2.672232604277940291E-16, 3.050065690435754817, 0.000000000000000000 ) ) ;
#376 = AXIS2_PLACEMENT_3D ( 'NONE', #538, #93, #231 ) ;
#377 = AXIS2_PLACEMENT_3D ( 'NONE', #514, #364, #226 ) ;
#378 = PERSON_AND_ORGANIZATION_ROLE ( 'creator' ) ;
#379 = AXIS2_PLACEMENT_3D ( 'NONE', #51, #90, #87 ) ;
#380 = CC_DESIGN_APPROVAL ( #305, ( #337 ) ) ;
#381 = CARTESIAN_POINT ( 'NONE',  ( 11.15000000000000391, 1.500000000000002442, 0.000000000000000000 ) ) ;
#382 = CYLINDRICAL_SURFACE ( 'NONE', #353, 2.549999999999999822 ) ;
#383 = ORIENTED_EDGE ( 'NONE', *, *, #540, .F. ) ;
#384 = LINE ( 'NONE', #48, #146 ) ;
#385 = ADVANCED_FACE ( 'NONE', ( #586 ), #539, .T. ) ;
#386 = ORIENTED_EDGE ( 'NONE', *, *, #574, .F. ) ;
#387 = COORDINATED_UNIVERSAL_TIME_OFFSET ( 0, 0, .AHEAD. ) ;
#388 = CARTESIAN_POINT ( 'NONE',  ( -20.00000000000000711, 38.59999999999999432, 0.000000000000000000 ) ) ;
#389 = VERTEX_POINT ( 'NONE', #241 ) ;
#390 = VECTOR ( 'NONE', #431, 1000.000000000000000 ) ;
#391 = CARTESIAN_POINT ( 'NONE',  ( -10.14999999999999858, 1.323673019291544017, 1.243016501134563489E-15 ) ) ;
#392 = EDGE_CURVE ( 'NONE', #171, #8, #512, .T. ) ;
#393 = ORIENTED_EDGE ( 'NONE', *, *, #23, .F. ) ;
#394 = ORIENTED_EDGE ( 'NONE', *, *, #540, .T. ) ;
#395 = FACE_OUTER_BOUND ( 'NONE', #506, .T. ) ;
#396 = LOCAL_TIME ( 15, 0, 40.00000000000000000, #387 ) ;
#397 = EDGE_CURVE ( 'NONE', #407, #63, #145, .T. ) ;
#398 = AXIS2_PLACEMENT_3D ( 'NONE', #223, #613, #83 ) ;
#399 = TOROIDAL_SURFACE ( 'NONE', #504, 10.14999999999999858, 1.000000000000000000 ) ;
#400 = DIRECTION ( 'NONE',  ( 8.761229676650544604E-17, -1.000000000000000000, 0.000000000000000000 ) ) ;
#401 = CARTESIAN_POINT ( 'NONE',  ( -11.08969262078590745, 1.665693162617216672, 1.358095657157348319E-15 ) ) ;
#402 = LINE ( 'NONE', #160, #252 ) ;
#403 = DIRECTION ( 'NONE',  ( 1.000000000000000000, 8.761229676650544604E-17, 0.000000000000000000 ) ) ;
#404 = DIRECTION ( 'NONE',  ( 1.000000000000000000, 8.098383242218850981E-17, 0.000000000000000000 ) ) ;
#405 = CIRCLE ( 'NONE', #592, 14.25000000000003375 ) ;
#406 = DIRECTION ( 'NONE',  ( 8.761229676650544604E-17, -1.000000000000000000, 0.000000000000000000 ) ) ;
#407 = VERTEX_POINT ( 'NONE', #26 ) ;
#408 = CIRCLE ( 'NONE', #272, 1.000000000000000888 ) ;
#409 = EDGE_CURVE ( 'NONE', #8, #171, #287, .T. ) ;
#410 = EDGE_CURVE ( 'NONE', #498, #437, #361, .T. ) ;
#411 = CARTESIAN_POINT ( 'NONE',  ( 0.000000000000000000, 0.000000000000000000, 0.000000000000000000 ) ) ;
#412 = DIRECTION ( 'NONE',  ( -1.000000000000000000, -8.144241671252612834E-17, 0.000000000000000000 ) ) ;
#413 = ORIENTED_EDGE ( 'NONE', *, *, #108, .T. ) ;
#414 = CARTESIAN_POINT ( 'NONE',  ( -1.314184451497583724E-16, 1.500000000000001332, 0.000000000000000000 ) ) ;
#415 = DIRECTION ( 'NONE',  ( -8.761229676650544604E-17, 1.000000000000000000, 0.000000000000000000 ) ) ;
#416 = EDGE_LOOP ( 'NONE', ( #579, #295, #458, #175 ) ) ;
#417 = APPLICATION_CONTEXT ( 'configuration controlled 3d designs of mechanical parts and assemblies' ) ;
#418 = ADVANCED_FACE ( 'NONE', ( #561 ), #164, .T. ) ;
#419 = DIRECTION ( 'NONE',  ( -8.761229676650544604E-17, 1.000000000000000000, -0.000000000000000000 ) ) ;
#420 = CARTESIAN_POINT ( 'NONE',  ( -2.943773171354582967E-15, 33.60000000000000142, 0.000000000000000000 ) ) ;
#421 = CONICAL_SURFACE ( 'NONE', #379, 19.00000000000002132, 0.7853981633974466137 ) ;
#422 = ORIENTED_EDGE ( 'NONE', *, *, #161, .T. ) ;
#423 = VECTOR ( 'NONE', #342, 1000.000000000000114 ) ;
#424 = DIRECTION ( 'NONE',  ( 1.000000000000000000, 9.723786300318421592E-17, 0.000000000000000000 ) ) ;
#425 = FACE_OUTER_BOUND ( 'NONE', #227, .T. ) ;
#426 = EDGE_LOOP ( 'NONE', ( #270, #544, #467, #502 ) ) ;
#427 = APPROVAL_ROLE ( '' ) ;
#428 = LINE ( 'NONE', #521, #475 ) ;
#429 = DIRECTION ( 'NONE',  ( -8.761229676650544604E-17, 1.000000000000000000, 0.000000000000000000 ) ) ;
#430 = ORIENTED_EDGE ( 'NONE', *, *, #9, .T. ) ;
#431 = DIRECTION ( 'NONE',  ( -8.761229676650544604E-17, 1.000000000000000000, -0.000000000000000000 ) ) ;
#432 = DIRECTION ( 'NONE',  ( -8.761229676650544604E-17, 1.000000000000000000, -0.000000000000000000 ) ) ;
#433 = ORIENTED_EDGE ( 'NONE', *, *, #572, .T. ) ;
#434 = CC_DESIGN_SECURITY_CLASSIFICATION ( #119, ( #337 ) ) ;
#435 =( LENGTH_UNIT ( ) NAMED_UNIT ( * ) SI_UNIT ( .MILLI., .METRE. ) );
#436 = DIRECTION ( 'NONE',  ( -8.761229676650544604E-17, 1.000000000000000000, -0.000000000000000000 ) ) ;
#437 = VERTEX_POINT ( 'NONE', #564 ) ;
#438 = PERSON_AND_ORGANIZATION ( #453, #183 ) ;
#439 = CARTESIAN_POINT ( 'NONE',  ( -3.469446951953614189E-15, 39.59999999999998010, 0.000000000000000000 ) ) ;
#440 = VERTEX_POINT ( 'NONE', #401 ) ;
#441 = CALENDAR_DATE ( 2025, 5, 12 ) ;
#442 = ADVANCED_FACE ( 'NONE', ( #465, #606 ), #209, .F. ) ;
#443 = CYLINDRICAL_SURFACE ( 'NONE', #54, 10.65000000000000391 ) ;
#444 = ORIENTED_EDGE ( 'NONE', *, *, #108, .F. ) ;
#445 = AXIS2_PLACEMENT_3D ( 'NONE', #515, #269, #115 ) ;
#446 =( GEOMETRIC_REPRESENTATION_CONTEXT ( 3 ) GLOBAL_UNCERTAINTY_ASSIGNED_CONTEXT ( ( #602 ) ) GLOBAL_UNIT_ASSIGNED_CONTEXT ( ( #435, #635, #317 ) ) REPRESENTATION_CONTEXT ( 'NONE', 'WORKASPACE' ) );
#447 = DIRECTION ( 'NONE',  ( -8.761229676650544604E-17, 1.000000000000000000, 0.000000000000000000 ) ) ;
#448 = ORIENTED_EDGE ( 'NONE', *, *, #500, .T. ) ;
#449 = ORIENTED_EDGE ( 'NONE', *, *, #410, .T. ) ;
#450 = CARTESIAN_POINT ( 'NONE',  ( -2.372580901306222831E-16, 2.708045547110080165, 0.000000000000000000 ) ) ;
#451 = AXIS2_PLACEMENT_3D ( 'NONE', #101, #590, #198 ) ;
#452 = CARTESIAN_POINT ( 'NONE',  ( -11.15000000000000036, 1.323673019291543795, 0.000000000000000000 ) ) ;
#453 = PERSON ( 'UNSPECIFIED', 'UNSPECIFIED', 'UNSPECIFIED', ('UNSPECIFIED'), ('UNSPECIFIED'), ('UNSPECIFIED') ) ;
#454 = DIRECTION ( 'NONE',  ( -1.000000000000000000, 0.000000000000000000, 0.000000000000000000 ) ) ;
#455 = ORIENTED_EDGE ( 'NONE', *, *, #344, .F. ) ;
#456 = DESIGN_CONTEXT ( 'detailed design', #417, 'design' ) ;
#457 = EDGE_CURVE ( 'NONE', #407, #96, #95, .T. ) ;
#458 = ORIENTED_EDGE ( 'NONE', *, *, #122, .T. ) ;
#459 = CC_DESIGN_PERSON_AND_ORGANIZATION_ASSIGNMENT ( #589, #236, ( #119 ) ) ;
#460 = CIRCLE ( 'NONE', #261, 1.000000000000000888 ) ;
#461 = CONICAL_SURFACE ( 'NONE', #550, 10.65000000000000568, 0.7853981633974523868 ) ;
#462 = DIRECTION ( 'NONE',  ( -1.000000000000000000, -8.761229676650545836E-17, 0.000000000000000000 ) ) ;
#463 = LINE ( 'NONE', #27, #487 ) ;
#464 = VERTEX_POINT ( 'NONE', #216 ) ;
#465 = FACE_BOUND ( 'NONE', #152, .T. ) ;
#466 = PLANE ( 'NONE',  #503 ) ;
#467 = ORIENTED_EDGE ( 'NONE', *, *, #359, .T. ) ;
#468 = ADVANCED_FACE ( 'NONE', ( #310 ), #399, .T. ) ;
#469 = EDGE_CURVE ( 'NONE', #91, #63, #43, .T. ) ;
#470 = DIRECTION ( 'NONE',  ( -0.7071067811865462405, -0.7071067811865489050, 8.659560562354918067E-17 ) ) ;
#471 = ORIENTED_EDGE ( 'NONE', *, *, #125, .F. ) ;
#472 = CARTESIAN_POINT ( 'NONE',  ( -2.943773171354582967E-15, 33.60000000000000142, 0.000000000000000000 ) ) ;
#473 = CARTESIAN_POINT ( 'NONE',  ( -3.469446951953614189E-15, 39.59999999999998010, 0.000000000000000000 ) ) ;
#474 = ORIENTED_EDGE ( 'NONE', *, *, #181, .F. ) ;
#475 = VECTOR ( 'NONE', #477, 1000.000000000000000 ) ;
#476 = APPROVAL_STATUS ( 'not_yet_approved' ) ;
#477 = DIRECTION ( 'NONE',  ( -8.761229676650544604E-17, 1.000000000000000000, -0.000000000000000000 ) ) ;
#478 = CARTESIAN_POINT ( 'NONE',  ( 11.15000000000000036, 1.323673019291546016, 1.365481181049298835E-15 ) ) ;
#479 = PERSON_AND_ORGANIZATION ( #453, #183 ) ;
#480 = LINE ( 'NONE', #33, #632 ) ;
#481 = DIRECTION ( 'NONE',  ( -8.761229676650544604E-17, 1.000000000000000000, -0.000000000000000000 ) ) ;
#482 = ORIENTED_EDGE ( 'NONE', *, *, #57, .F. ) ;
#483 = COORDINATED_UNIVERSAL_TIME_OFFSET ( 0, 0, .AHEAD. ) ;
#484 = ADVANCED_FACE ( 'NONE', ( #212 ), #599, .T. ) ;
#485 = DIRECTION ( 'NONE',  ( -1.224646799147353207E-16, -1.072941188010488988E-32, 1.000000000000000000 ) ) ;
#486 = ORIENTED_EDGE ( 'NONE', *, *, #25, .T. ) ;
#487 = VECTOR ( 'NONE', #470, 1000.000000000000000 ) ;
#488 = AXIS2_PLACEMENT_3D ( 'NONE', #439, #639, #194 ) ;
#489 = CARTESIAN_POINT ( 'NONE',  ( -3.294222358420603519E-15, 37.59999999999998010, 0.000000000000000000 ) ) ;
#490 = APPROVAL_STATUS ( 'not_yet_approved' ) ;
#491 = ADVANCED_FACE ( 'NONE', ( #513 ), #205, .T. ) ;
#492 = DIRECTION ( 'NONE',  ( 1.000000000000000000, 0.000000000000000000, -1.224646799147351482E-16 ) ) ;
#493 = EDGE_LOOP ( 'NONE', ( #594, #554, #449, #633 ) ) ;
#494 = CARTESIAN_POINT ( 'NONE',  ( -3.469446951953614189E-15, 39.59999999999998010, 0.000000000000000000 ) ) ;
#495 = ORIENTED_EDGE ( 'NONE', *, *, #368, .T. ) ;
#496 = CONICAL_SURFACE ( 'NONE', #563, 19.00000000000002132, 0.7853981633974466137 ) ;
#497 = AXIS2_PLACEMENT_3D ( 'NONE', #340, #432, #631 ) ;
#498 = VERTEX_POINT ( 'NONE', #257 ) ;
#499 = ORIENTED_EDGE ( 'NONE', *, *, #66, .T. ) ;
#500 = EDGE_CURVE ( 'NONE', #267, #389, #215, .T. ) ;
#501 = CARTESIAN_POINT ( 'NONE',  ( -1.159700333879873996E-16, 1.323673019291544906, 0.000000000000000000 ) ) ;
#502 = ORIENTED_EDGE ( 'NONE', *, *, #229, .F. ) ;
#503 = AXIS2_PLACEMENT_3D ( 'NONE', #220, #415, #28 ) ;
#504 = AXIS2_PLACEMENT_3D ( 'NONE', #501, #116, #166 ) ;
#505 = CARTESIAN_POINT ( 'NONE',  ( -3.469446951953614189E-15, 39.59999999999998010, 0.000000000000000000 ) ) ;
#506 = EDGE_LOOP ( 'NONE', ( #334, #372, #597, #293 ) ) ;
#507 = EDGE_CURVE ( 'NONE', #96, #407, #356, .T. ) ;
#508 = CYLINDRICAL_SURFACE ( 'NONE', #203, 11.15000000000000036 ) ;
#509 = DIRECTION ( 'NONE',  ( -8.761229676650544604E-17, 1.000000000000000000, -0.000000000000000000 ) ) ;
#510 = LINE ( 'NONE', #318, #110 ) ;
#511 = AXIS2_PLACEMENT_3D ( 'NONE', #32, #68, #123 ) ;
#512 = CIRCLE ( 'NONE', #488, 2.549999999999999822 ) ;
#513 = FACE_OUTER_BOUND ( 'NONE', #332, .T. ) ;
#514 = CARTESIAN_POINT ( 'NONE',  ( -3.469446951953614189E-15, 39.59999999999998010, 0.000000000000000000 ) ) ;
#515 = CARTESIAN_POINT ( 'NONE',  ( -3.381834655187110234E-15, 38.59999999999999432, 0.000000000000000000 ) ) ;
#516 = EDGE_LOOP ( 'NONE', ( #383, #218, #49, #4 ) ) ;
#517 = CARTESIAN_POINT ( 'NONE',  ( 20.00000000000000355, 33.59999999999999432, 2.449293598294707302E-15 ) ) ;
#518 = CARTESIAN_POINT ( 'NONE',  ( -11.65000000000000391, 3.050065690435753929, 0.000000000000000000 ) ) ;
#519 = ORIENTED_EDGE ( 'NONE', *, *, #410, .F. ) ;
#520 = PERSON_AND_ORGANIZATION ( #453, #183 ) ;
#521 = CARTESIAN_POINT ( 'NONE',  ( -2.550000000000003375, 37.59999999999998010, 0.000000000000000000 ) ) ;
#522 = FACE_BOUND ( 'NONE', #151, .T. ) ;
#523 = TOROIDAL_SURFACE ( 'NONE', #246, 11.65000000000000391, 1.000000000000000000 ) ;
#524 = ORIENTED_EDGE ( 'NONE', *, *, #530, .F. ) ;
#525 = AXIS2_PLACEMENT_3D ( 'NONE', #489, #45, #98 ) ;
#526 = COORDINATED_UNIVERSAL_TIME_OFFSET ( 0, 0, .AHEAD. ) ;
#527 = ADVANCED_FACE ( 'NONE', ( #612 ), #156, .T. ) ;
#528 = FACE_OUTER_BOUND ( 'NONE', #535, .T. ) ;
#529 = DIRECTION ( 'NONE',  ( -1.000000000000000000, 0.000000000000000000, 0.000000000000000000 ) ) ;
#530 = EDGE_CURVE ( 'NONE', #96, #91, #134, .T. ) ;
#531 = VERTEX_POINT ( 'NONE', #517 ) ;
#532 = ADVANCED_BREP_SHAPE_REPRESENTATION ( 'ext_punch', ( #537, #376 ), #446 ) ;
#533 = CARTESIAN_POINT ( 'NONE',  ( 20.00000000000000000, 39.59999999999998010, 2.449293598294706907E-15 ) ) ;
#534 = DIRECTION ( 'NONE',  ( -8.761229676650544604E-17, 1.000000000000000000, -0.000000000000000000 ) ) ;
#535 = EDGE_LOOP ( 'NONE', ( #142, #200, #235, #584 ) ) ;
#536 = CALENDAR_DATE ( 2025, 5, 12 ) ;
#537 = MANIFOLD_SOLID_BREP ( 'Cut-Extrude1', #70 ) ;
#538 = CARTESIAN_POINT ( 'NONE',  ( 0.000000000000000000, 0.000000000000000000, 0.000000000000000000 ) ) ;
#539 = PLANE ( 'NONE',  #525 ) ;
#540 = EDGE_CURVE ( 'NONE', #440, #346, #580, .T. ) ;
#541 = ORIENTED_EDGE ( 'NONE', *, *, #181, .T. ) ;
#542 = CIRCLE ( 'NONE', #445, 20.00000000000000355 ) ;
#543 = DIRECTION ( 'NONE',  ( 0.000000000000000000, 0.000000000000000000, -1.000000000000000000 ) ) ;
#544 = ORIENTED_EDGE ( 'NONE', *, *, #25, .F. ) ;
#545 = CARTESIAN_POINT ( 'NONE',  ( 10.14999999999999858, 1.323673019291545794, 0.000000000000000000 ) ) ;
#546 = EDGE_LOOP ( 'NONE', ( #341, #343 ) ) ;
#547 = EDGE_LOOP ( 'NONE', ( #621, #148 ) ) ;
#548 = LOCAL_TIME ( 15, 0, 40.00000000000000000, #291 ) ;
#549 = CIRCLE ( 'NONE', #598, 10.71030737921409859 ) ;
#550 = AXIS2_PLACEMENT_3D ( 'NONE', #138, #189, #265 ) ;
#551 = EDGE_CURVE ( 'NONE', #250, #88, #630, .T. ) ;
#552 = DIRECTION ( 'NONE',  ( -1.000000000000000000, 0.000000000000000000, 0.000000000000000000 ) ) ;
#553 = CC_DESIGN_PERSON_AND_ORGANIZATION_ASSIGNMENT ( #129, #378, ( #337 ) ) ;
#554 = ORIENTED_EDGE ( 'NONE', *, *, #186, .T. ) ;
#555 = CARTESIAN_POINT ( 'NONE',  ( -11.15000000000000391, 39.59999999999998010, 0.000000000000000000 ) ) ;
#556 = ORIENTED_EDGE ( 'NONE', *, *, #595, .F. ) ;
#557 = CIRCLE ( 'NONE', #94, 1.000000000000000888 ) ;
#558 = AXIS2_PLACEMENT_3D ( 'NONE', #281, #575, #619 ) ;
#559 = DIRECTION ( 'NONE',  ( -1.000000000000000000, -8.761229676650545836E-17, 0.000000000000000000 ) ) ;
#560 = DIRECTION ( 'NONE',  ( 1.000000000000000000, 0.000000000000000000, 0.000000000000000000 ) ) ;
#561 = FACE_OUTER_BOUND ( 'NONE', #349, .T. ) ;
#562 = DIRECTION ( 'NONE',  ( 0.000000000000000000, -0.000000000000000000, -1.000000000000000000 ) ) ;
#563 = AXIS2_PLACEMENT_3D ( 'NONE', #473, #620, #315 ) ;
#564 = CARTESIAN_POINT ( 'NONE',  ( -10.65000000000000924, 30.00000000000000000, 0.000000000000000000 ) ) ;
#565 = DIRECTION ( 'NONE',  ( -8.761229676650544604E-17, 1.000000000000000000, -0.000000000000000000 ) ) ;
#566 = DIRECTION ( 'NONE',  ( -1.000000000000000000, -7.821332544083942140E-17, 0.000000000000000000 ) ) ;
#567 = CYLINDRICAL_SURFACE ( 'NONE', #377, 10.65000000000000391 ) ;
#568 = ORIENTED_EDGE ( 'NONE', *, *, #147, .T. ) ;
#569 = MECHANICAL_CONTEXT ( 'NONE', #611, 'mechanical' ) ;
#570 = DIRECTION ( 'NONE',  ( -8.761229676650544604E-17, 1.000000000000000000, -0.000000000000000000 ) ) ;
#571 = ORIENTED_EDGE ( 'NONE', *, *, #186, .F. ) ;
#572 = EDGE_CURVE ( 'NONE', #19, #346, #222, .T. ) ;
#573 = PERSON_AND_ORGANIZATION ( #453, #183 ) ;
#574 = EDGE_CURVE ( 'NONE', #319, #8, #428, .T. ) ;
#575 = DIRECTION ( 'NONE',  ( -8.761229676650544604E-17, 1.000000000000000000, -0.000000000000000000 ) ) ;
#576 = CIRCLE ( 'NONE', #286, 2.549999999999999822 ) ;
#577 = DIRECTION ( 'NONE',  ( -8.761229676650544604E-17, 1.000000000000000000, -0.000000000000000000 ) ) ;
#578 = AXIS2_PLACEMENT_3D ( 'NONE', #375, #481, #328 ) ;
#579 = ORIENTED_EDGE ( 'NONE', *, *, #168, .T. ) ;
#580 = CIRCLE ( 'NONE', #62, 11.08969262078590745 ) ;
#581 = PERSON_AND_ORGANIZATION_ROLE ( 'design_supplier' ) ;
#582 = DIRECTION ( 'NONE',  ( -8.761229676650544604E-17, 1.000000000000000000, -0.000000000000000000 ) ) ;
#583 = CYLINDRICAL_SURFACE ( 'NONE', #497, 20.00000000000000355 ) ;
#584 = ORIENTED_EDGE ( 'NONE', *, *, #66, .F. ) ;
#585 = EDGE_CURVE ( 'NONE', #464, #319, #316, .T. ) ;
#586 = FACE_OUTER_BOUND ( 'NONE', #546, .T. ) ;
#587 = ORIENTED_EDGE ( 'NONE', *, *, #392, .T. ) ;
#588 = ADVANCED_FACE ( 'NONE', ( #528 ), #461, .T. ) ;
#589 = PERSON_AND_ORGANIZATION ( #453, #183 ) ;
#590 = DIRECTION ( 'NONE',  ( 8.761229676650544604E-17, -1.000000000000000000, 0.000000000000000000 ) ) ;
#591 = ORIENTED_EDGE ( 'NONE', *, *, #397, .T. ) ;
#592 = AXIS2_PLACEMENT_3D ( 'NONE', #420, #565, #230 ) ;
#593 = CARTESIAN_POINT ( 'NONE',  ( 11.08969262078590745, 1.665693162617218448, 0.000000000000000000 ) ) ;
#594 = ORIENTED_EDGE ( 'NONE', *, *, #551, .F. ) ;
#595 = EDGE_CURVE ( 'NONE', #279, #389, #480, .T. ) ;
#596 = EDGE_CURVE ( 'NONE', #24, #284, #111, .T. ) ;
#597 = ORIENTED_EDGE ( 'NONE', *, *, #469, .T. ) ;
#598 = AXIS2_PLACEMENT_3D ( 'NONE', #155, #400, #601 ) ;
#599 = TOROIDAL_SURFACE ( 'NONE', #248, 10.14999999999999858, 1.000000000000000000 ) ;
#600 = LOCAL_TIME ( 15, 0, 40.00000000000000000, #178 ) ;
#601 = DIRECTION ( 'NONE',  ( 1.000000000000000000, 8.098383242218850981E-17, 0.000000000000000000 ) ) ;
#602 = UNCERTAINTY_MEASURE_WITH_UNIT (LENGTH_MEASURE( 1.000000000000000082E-05 ), #435, 'distance_accuracy_value', 'NONE');
#603 = EDGE_CURVE ( 'NONE', #531, #389, #228, .T. ) ;
#604 = DIRECTION ( 'NONE',  ( 1.000000000000000000, 8.761229676650544604E-17, 0.000000000000000000 ) ) ;
#605 = DIRECTION ( 'NONE',  ( -0.7071067811865505703, 0.7071067811865444641, 0.000000000000000000 ) ) ;
#606 = FACE_OUTER_BOUND ( 'NONE', #35, .T. ) ;
#607 = CARTESIAN_POINT ( 'NONE',  ( 14.25000000000003020, 33.60000000000000142, 1.745121688784982567E-15 ) ) ;
#608 = CIRCLE ( 'NONE', #133, 10.65000000000000391 ) ;
#609 = AXIS2_PLACEMENT_3D ( 'NONE', #414, #406, #64 ) ;
#610 = ORIENTED_EDGE ( 'NONE', *, *, #350, .F. ) ;
#611 = APPLICATION_CONTEXT ( 'configuration controlled 3d designs of mechanical parts and assemblies' ) ;
#612 = FACE_OUTER_BOUND ( 'NONE', #308, .T. ) ;
#613 = DIRECTION ( 'NONE',  ( -8.761229676650544604E-17, 1.000000000000000000, -0.000000000000000000 ) ) ;
#614 = ADVANCED_FACE ( 'NONE', ( #277 ), #622, .T. ) ;
#615 = DIRECTION ( 'NONE',  ( -8.761229676650544604E-17, 1.000000000000000000, -0.000000000000000000 ) ) ;
#616 = FACE_OUTER_BOUND ( 'NONE', #102, .T. ) ;
#617 = TOROIDAL_SURFACE ( 'NONE', #578, 11.65000000000000391, 1.000000000000000000 ) ;
#618 = VECTOR ( 'NONE', #37, 1000.000000000000000 ) ;
#619 = DIRECTION ( 'NONE',  ( -1.000000000000000000, 0.000000000000000000, 0.000000000000000000 ) ) ;
#620 = DIRECTION ( 'NONE',  ( 8.761229676650556930E-17, -1.000000000000000000, 0.000000000000000000 ) ) ;
#621 = ORIENTED_EDGE ( 'NONE', *, *, #457, .F. ) ;
#622 = CYLINDRICAL_SURFACE ( 'NONE', #347, 20.00000000000000355 ) ;
#623 = ADVANCED_FACE ( 'NONE', ( #176 ), #238, .F. ) ;
#624 = CARTESIAN_POINT ( 'NONE',  ( -2.672232604277938319E-16, 3.050065690435754817, 0.000000000000000000 ) ) ;
#625 = PRODUCT_RELATED_PRODUCT_CATEGORY ( 'detail', '', ( #233 ) ) ;
#626 = DIRECTION ( 'NONE',  ( -8.761229676650544604E-17, 1.000000000000000000, -0.000000000000000000 ) ) ;
#627 = ORIENTED_EDGE ( 'NONE', *, *, #13, .T. ) ;
#628 = APPROVAL_DATE_TIME ( #40, #100 ) ;
#629 = LOCAL_TIME ( 15, 0, 40.00000000000000000, #526 ) ;
#630 = LINE ( 'NONE', #187, #390 ) ;
#631 = DIRECTION ( 'NONE',  ( -1.000000000000000000, 0.000000000000000000, 0.000000000000000000 ) ) ;
#632 = VECTOR ( 'NONE', #330, 1000.000000000000000 ) ;
#633 = ORIENTED_EDGE ( 'NONE', *, *, #9, .F. ) ;
#634 = PERSON_AND_ORGANIZATION ( #453, #183 ) ;
#635 =( NAMED_UNIT ( * ) PLANE_ANGLE_UNIT ( ) SI_UNIT ( $, .RADIAN. ) );
#636 = DIRECTION ( 'NONE',  ( 1.000000000000000000, 0.000000000000000000, 1.224646799147351482E-16 ) ) ;
#637 = ORIENTED_EDGE ( 'NONE', *, *, #585, .F. ) ;
#638 = PERSON_AND_ORGANIZATION_ROLE ( 'design_owner' ) ;
#639 = DIRECTION ( 'NONE',  ( -8.761229676650544604E-17, 1.000000000000000000, 0.000000000000000000 ) ) ;
ENDSEC;
END-ISO-10303-21;
