ISO-10303-21;
HEADER;
FILE_DESCRIPTION (( 'STEP AP203' ),
    '1' );
FILE_NAME ('half_container.STEP',
    '2025-11-24T20:07:19',
    ( '' ),
    ( '' ),
    '',
    '',
    '' );
FILE_SCHEMA (( 'CONFIG_CONTROL_DESIGN' ));
ENDSEC;

DATA;
#1 = VERTEX_POINT ( 'NONE', #233 ) ;
#2 = VERTEX_POINT ( 'NONE', #111 ) ;
#3 = DIRECTION ( 'NONE',  ( -0.000000000000000000, 1.000000000000000000, -0.000000000000000000 ) ) ;
#4 = LINE ( 'NONE', #309, #57 ) ;
#5 = VECTOR ( 'NONE', #389, 1000.000000000000000 ) ;
#6 = CONICAL_SURFACE ( 'NONE', #192, 2.450000000000002398, 0.7853981633974500554 ) ;
#7 = APPROVAL_PERSON_ORGANIZATION ( #183, #29, #488 ) ;
#8 = EDGE_LOOP ( 'NONE', ( #506, #364, #50, #237 ) ) ;
#9 = CARTESIAN_POINT ( 'NONE',  ( -8.999999999999996447, 5.000000000000000000, 0.000000000000000000 ) ) ;
#10 = DIRECTION ( 'NONE',  ( 1.836970198721029688E-16, 0.000000000000000000, 1.000000000000000000 ) ) ;
#11 = CARTESIAN_POINT ( 'NONE',  ( 7.499999999999999112, 0.000000000000000000, -5.970153145843344783E-15 ) ) ;
#12 = ORIENTED_EDGE ( 'NONE', *, *, #423, .T. ) ;
#13 = AXIS2_PLACEMENT_3D ( 'NONE', #371, #416, #104 ) ;
#14 = VECTOR ( 'NONE', #38, 1000.000000000000000 ) ;
#15 = DIRECTION ( 'NONE',  ( -1.000000000000000000, 0.000000000000000000, 1.836970198721029688E-16 ) ) ;
#16 = PERSON_AND_ORGANIZATION ( #247, #102 ) ;
#17 = CYLINDRICAL_SURFACE ( 'NONE', #473, 7.500000000000000000 ) ;
#18 = PRODUCT_DEFINITION ( 'UNKNOWN', '', #243, #109 ) ;
#19 = ORIENTED_EDGE ( 'NONE', *, *, #332, .F. ) ;
#20 = DATE_AND_TIME ( #551, #503 ) ;
#21 = CARTESIAN_POINT ( 'NONE',  ( 0.000000000000000000, 15.79903810567658340, 0.000000000000000000 ) ) ;
#22 = CYLINDRICAL_SURFACE ( 'NONE', #91, 11.24999999999999645 ) ;
#23 = CIRCLE ( 'NONE', #203, 14.99999999999999467 ) ;
#24 = AXIS2_PLACEMENT_3D ( 'NONE', #131, #96, #495 ) ;
#25 = PERSON_AND_ORGANIZATION_ROLE ( 'creator' ) ;
#26 = AXIS2_PLACEMENT_3D ( 'NONE', #180, #522, #279 ) ;
#27 = CARTESIAN_POINT ( 'NONE',  ( -25.00000000000000000, -1.200000000000000030E-05, 0.000000000000000000 ) ) ;
#28 = ORIENTED_EDGE ( 'NONE', *, *, #337, .F. ) ;
#29 = APPROVAL ( #530, 'UNSPECIFIED' ) ;
#30 = DIRECTION ( 'NONE',  ( -0.000000000000000000, 1.000000000000000000, -0.000000000000000000 ) ) ;
#31 = LINE ( 'NONE', #83, #501 ) ;
#32 = DIRECTION ( 'NONE',  ( -1.836970198721029688E-16, -0.000000000000000000, -1.000000000000000000 ) ) ;
#33 = ORIENTED_EDGE ( 'NONE', *, *, #319, .T. ) ;
#34 = DIRECTION ( 'NONE',  ( -0.000000000000000000, 1.000000000000000000, -0.000000000000000000 ) ) ;
#35 = CIRCLE ( 'NONE', #327, 3.000000000000000888 ) ;
#36 = CIRCLE ( 'NONE', #366, 0.4999999999999935052 ) ;
#37 = DIRECTION ( 'NONE',  ( 1.836970198721029688E-16, 0.000000000000000000, 1.000000000000000000 ) ) ;
#38 = DIRECTION ( 'NONE',  ( 0.000000000000000000, -1.000000000000000000, 0.000000000000000000 ) ) ;
#39 = ORIENTED_EDGE ( 'NONE', *, *, #232, .T. ) ;
#40 = COORDINATED_UNIVERSAL_TIME_OFFSET ( 0, 0, .AHEAD. ) ;
#41 = CARTESIAN_POINT ( 'NONE',  ( -11.49999999999999645, 5.000000000000000000, 0.000000000000000000 ) ) ;
#42 = FACE_OUTER_BOUND ( 'NONE', #8, .T. ) ;
#43 = DIRECTION ( 'NONE',  ( -0.7071067811865519026, 0.7071067811865431318, 1.298934084353247941E-16 ) ) ;
#44 = LINE ( 'NONE', #11, #383 ) ;
#45 = ORIENTED_EDGE ( 'NONE', *, *, #142, .F. ) ;
#46 = EDGE_CURVE ( 'NONE', #475, #295, #250, .T. ) ;
#47 = AXIS2_PLACEMENT_3D ( 'NONE', #278, #3, #517 ) ;
#48 = DIRECTION ( 'NONE',  ( 0.000000000000000000, 0.000000000000000000, 1.000000000000000000 ) ) ;
#49 = FACE_OUTER_BOUND ( 'NONE', #511, .T. ) ;
#50 = ORIENTED_EDGE ( 'NONE', *, *, #540, .T. ) ;
#51 = ORIENTED_EDGE ( 'NONE', *, *, #105, .T. ) ;
#52 = DIRECTION ( 'NONE',  ( 0.000000000000000000, 0.000000000000000000, 1.000000000000000000 ) ) ;
#53 = MANIFOLD_SOLID_BREP ( 'Chamfer1', #272 ) ;
#54 = PERSON_AND_ORGANIZATION ( #247, #102 ) ;
#55 = ORIENTED_EDGE ( 'NONE', *, *, #388, .T. ) ;
#56 = PERSON_AND_ORGANIZATION ( #247, #102 ) ;
#57 = VECTOR ( 'NONE', #134, 1000.000000000000000 ) ;
#58 = ORIENTED_EDGE ( 'NONE', *, *, #196, .F. ) ;
#59 = EDGE_CURVE ( 'NONE', #306, #181, #185, .T. ) ;
#60 = ORIENTED_EDGE ( 'NONE', *, *, #387, .T. ) ;
#61 = EDGE_CURVE ( 'NONE', #425, #515, #373, .T. ) ;
#62 = EDGE_LOOP ( 'NONE', ( #404, #531 ) ) ;
#63 = AXIS2_PLACEMENT_3D ( 'NONE', #78, #32, #466 ) ;
#64 = LINE ( 'NONE', #68, #5 ) ;
#65 = COORDINATED_UNIVERSAL_TIME_OFFSET ( 0, 0, .AHEAD. ) ;
#66 = DIRECTION ( 'NONE',  ( -1.000000000000000000, 0.000000000000000000, 1.836970198721028948E-16 ) ) ;
#67 = ADVANCED_FACE ( 'NONE', ( #538 ), #419, .T. ) ;
#68 = CARTESIAN_POINT ( 'NONE',  ( 15.00000000000000000, 0.000000000000000000, 0.000000000000000000 ) ) ;
#69 = COORDINATED_UNIVERSAL_TIME_OFFSET ( 0, 0, .AHEAD. ) ;
#70 = FACE_OUTER_BOUND ( 'NONE', #152, .T. ) ;
#71 = CC_DESIGN_DATE_AND_TIME_ASSIGNMENT ( #198, #460, ( #18 ) ) ;
#72 = DIRECTION ( 'NONE',  ( 0.000000000000000000, 0.000000000000000000, 1.000000000000000000 ) ) ;
#73 = AXIS2_PLACEMENT_3D ( 'NONE', #573, #224, #92 ) ;
#74 = ORIENTED_EDGE ( 'NONE', *, *, #256, .T. ) ;
#75 = CALENDAR_DATE ( 2025, 24, 11 ) ;
#76 = CARTESIAN_POINT ( 'NONE',  ( -8.249999999999996447, 17.29903810567659406, 1.515500413944848839E-15 ) ) ;
#77 = CARTESIAN_POINT ( 'NONE',  ( 15.00000000000000000, 0.000000000000000000, 0.000000000000000000 ) ) ;
#78 = CARTESIAN_POINT ( 'NONE',  ( -10.49999999999999822, 9.196152422706623142, 1.928818708657080950E-15 ) ) ;
#79 = ORIENTED_EDGE ( 'NONE', *, *, #220, .T. ) ;
#80 = VERTEX_POINT ( 'NONE', #535 ) ;
#81 = CIRCLE ( 'NONE', #414, 2.450000000000007727 ) ;
#82 = CC_DESIGN_APPROVAL ( #29, ( #18 ) ) ;
#83 = CARTESIAN_POINT ( 'NONE',  ( -8.436148777472945048E-31, -2.990381056766453050, -4.592425496802572789E-15 ) ) ;
#84 = EDGE_CURVE ( 'NONE', #489, #158, #214, .T. ) ;
#85 = DIRECTION ( 'NONE',  ( 0.000000000000000000, 0.000000000000000000, 1.000000000000000000 ) ) ;
#86 = DIRECTION ( 'NONE',  ( -1.836970198721029688E-16, -0.000000000000000000, -1.000000000000000000 ) ) ;
#87 = DIRECTION ( 'NONE',  ( 0.000000000000000000, 0.000000000000000000, 1.000000000000000000 ) ) ;
#88 = CARTESIAN_POINT ( 'NONE',  ( 0.000000000000000000, 17.29903810567659406, 0.000000000000000000 ) ) ;
#89 = ORIENTED_EDGE ( 'NONE', *, *, #236, .F. ) ;
#90 = EDGE_CURVE ( 'NONE', #158, #132, #284, .T. ) ;
#91 = AXIS2_PLACEMENT_3D ( 'NONE', #253, #294, #545 ) ;
#92 = DIRECTION ( 'NONE',  ( 1.000000000000000000, 0.000000000000000000, 0.000000000000000000 ) ) ;
#93 = AXIS2_PLACEMENT_3D ( 'NONE', #173, #52, #316 ) ;
#94 = LOCAL_TIME ( 20, 7, 19.00000000000000000, #65 ) ;
#95 = EDGE_CURVE ( 'NONE', #1, #418, #64, .T. ) ;
#96 = DIRECTION ( 'NONE',  ( 0.000000000000000000, -1.000000000000000000, 0.000000000000000000 ) ) ;
#97 = CALENDAR_DATE ( 2025, 24, 11 ) ;
#98 = CARTESIAN_POINT ( 'NONE',  ( 11.49999999999999822, 5.000000000000000888, -6.704941225331755672E-15 ) ) ;
#99 = DIRECTION ( 'NONE',  ( 0.000000000000000000, 0.000000000000000000, 1.000000000000000000 ) ) ;
#100 = AXIS2_PLACEMENT_3D ( 'NONE', #378, #424, #304 ) ;
#101 = CONICAL_SURFACE ( 'NONE', #444, 2.450000000000002398, 0.7853981633974500554 ) ;
#102 = ORGANIZATION ( 'UNSPECIFIED', 'UNSPECIFIED', '' ) ;
#103 = EDGE_CURVE ( 'NONE', #291, #80, #558, .T. ) ;
#104 = DIRECTION ( 'NONE',  ( 0.000000000000000000, 0.000000000000000000, -1.000000000000000000 ) ) ;
#105 = EDGE_CURVE ( 'NONE', #489, #402, #472, .T. ) ;
#106 = VERTEX_POINT ( 'NONE', #246 ) ;
#107 = ORIENTED_EDGE ( 'NONE', *, *, #314, .F. ) ;
#108 = DIRECTION ( 'NONE',  ( 0.000000000000000000, 0.000000000000000000, 1.000000000000000000 ) ) ;
#109 = DESIGN_CONTEXT ( 'detailed design', #188, 'design' ) ;
#110 = AXIS2_PLACEMENT_3D ( 'NONE', #324, #99, #553 ) ;
#111 = CARTESIAN_POINT ( 'NONE',  ( -11.00000000000000355, 5.000000000000000000, -2.000000000000000000 ) ) ;
#112 = DIRECTION ( 'NONE',  ( -1.836970198721029688E-16, 0.000000000000000000, -1.000000000000000000 ) ) ;
#113 = VERTEX_POINT ( 'NONE', #301 ) ;
#114 = CALENDAR_DATE ( 2025, 24, 11 ) ;
#115 = DIRECTION ( 'NONE',  ( 0.000000000000000000, 0.000000000000000000, 1.000000000000000000 ) ) ;
#116 = AXIS2_PLACEMENT_3D ( 'NONE', #98, #10, #333 ) ;
#117 = AXIS2_PLACEMENT_3D ( 'NONE', #398, #562, #115 ) ;
#118 = ORIENTED_EDGE ( 'NONE', *, *, #236, .T. ) ;
#119 = DIRECTION ( 'NONE',  ( 0.5000000000000037748, 0.8660254037844364872, -9.184850993605217463E-17 ) ) ;
#120 = EDGE_CURVE ( 'NONE', #448, #2, #443, .T. ) ;
#121 = DIRECTION ( 'NONE',  ( 1.000000000000000000, 0.000000000000000000, -0.000000000000000000 ) ) ;
#122 = EDGE_LOOP ( 'NONE', ( #368, #437 ) ) ;
#123 = DIRECTION ( 'NONE',  ( 0.000000000000000000, 0.000000000000000000, 1.000000000000000000 ) ) ;
#124 = CARTESIAN_POINT ( 'NONE',  ( -8.436148777472945048E-31, -2.990381056766453050, -4.592425496802572789E-15 ) ) ;
#125 = VECTOR ( 'NONE', #478, 1000.000000000000000 ) ;
#126 = ADVANCED_FACE ( 'NONE', ( #342 ), #22, .F. ) ;
#127 = CARTESIAN_POINT ( 'NONE',  ( -11.24999999999999467, 45.49519052838321898, -2.525834023241415981E-15 ) ) ;
#128 = DIRECTION ( 'NONE',  ( -1.000000000000000000, 0.000000000000000000, 1.836970198721030181E-16 ) ) ;
#129 = MECHANICAL_CONTEXT ( 'NONE', #432, 'mechanical' ) ;
#130 = PLANE ( 'NONE',  #285 ) ;
#131 = CARTESIAN_POINT ( 'NONE',  ( 0.000000000000000000, 46.49519052838321898, 0.000000000000000000 ) ) ;
#132 = VERTEX_POINT ( 'NONE', #258 ) ;
#133 = AXIS2_PLACEMENT_3D ( 'NONE', #353, #86, #128 ) ;
#134 = DIRECTION ( 'NONE',  ( 0.7071067811865487940, 0.000000000000000000, -0.7071067811865463515 ) ) ;
#135 = EDGE_CURVE ( 'NONE', #2, #303, #157, .T. ) ;
#136 = PERSON_AND_ORGANIZATION_ROLE ( 'design_owner' ) ;
#137 = CARTESIAN_POINT ( 'NONE',  ( -25.00000000000000000, 46.49519052838321898, 0.000000000000000000 ) ) ;
#138 = ADVANCED_FACE ( 'NONE', ( #212 ), #431, .T. ) ;
#139 = CARTESIAN_POINT ( 'NONE',  ( 7.499999999999999112, 9.196152422706624918, -5.970153145843344783E-15 ) ) ;
#140 = DIRECTION ( 'NONE',  ( 1.836970198721029688E-16, 0.000000000000000000, 1.000000000000000000 ) ) ;
#141 = CONICAL_SURFACE ( 'NONE', #286, 2.500000000000000444, 0.7853981633974500554 ) ;
#142 = EDGE_CURVE ( 'NONE', #132, #402, #35, .T. ) ;
#143 = ORIENTED_EDGE ( 'NONE', *, *, #95, .F. ) ;
#144 = ORIENTED_EDGE ( 'NONE', *, *, #220, .F. ) ;
#145 = ADVANCED_FACE ( 'NONE', ( #160 ), #393, .T. ) ;
#146 = APPROVAL_DATE_TIME ( #542, #29 ) ;
#147 = VERTEX_POINT ( 'NONE', #349 ) ;
#148 = EDGE_CURVE ( 'NONE', #376, #181, #340, .T. ) ;
#149 = DATE_TIME_ROLE ( 'classification_date' ) ;
#150 = AXIS2_PLACEMENT_3D ( 'NONE', #457, #560, #151 ) ;
#151 = DIRECTION ( 'NONE',  ( 0.000000000000000000, 0.000000000000000000, 1.000000000000000000 ) ) ;
#152 = EDGE_LOOP ( 'NONE', ( #567, #323, #550, #528 ) ) ;
#153 = APPROVAL ( #207, 'UNSPECIFIED' ) ;
#154 = FACE_BOUND ( 'NONE', #122, .T. ) ;
#155 = VERTEX_POINT ( 'NONE', #396 ) ;
#156 = EDGE_CURVE ( 'NONE', #331, #1, #384, .T. ) ;
#157 = LINE ( 'NONE', #344, #568 ) ;
#158 = VERTEX_POINT ( 'NONE', #504 ) ;
#159 = CARTESIAN_POINT ( 'NONE',  ( -11.99999999999998934, 5.000000000000000000, -2.000000000000000000 ) ) ;
#160 = FACE_OUTER_BOUND ( 'NONE', #470, .T. ) ;
#161 = CIRCLE ( 'NONE', #110, 2.500000000000000444 ) ;
#162 = ORIENTED_EDGE ( 'NONE', *, *, #148, .F. ) ;
#163 = CARTESIAN_POINT ( 'NONE',  ( 14.99999999999999467, 0.000000000000000000, -7.347880794884115200E-15 ) ) ;
#164 = EDGE_LOOP ( 'NONE', ( #107, #357, #557, #217 ) ) ;
#165 = CARTESIAN_POINT ( 'NONE',  ( -11.49999999999999645, 5.000000000000000000, -2.000000000000000000 ) ) ;
#166 = CARTESIAN_POINT ( 'NONE',  ( -14.99999999999999467, 46.49519052838321898, -1.836970198721029983E-15 ) ) ;
#167 = ORIENTED_EDGE ( 'NONE', *, *, #189, .F. ) ;
#168 = ADVANCED_FACE ( 'NONE', ( #154, #505 ), #462, .F. ) ;
#169 = PLANE ( 'NONE',  #339 ) ;
#170 = ORIENTED_EDGE ( 'NONE', *, *, #358, .T. ) ;
#171 = AXIS2_PLACEMENT_3D ( 'NONE', #571, #400, #352 ) ;
#172 = CC_DESIGN_PERSON_AND_ORGANIZATION_ASSIGNMENT ( #507, #25, ( #18 ) ) ;
#173 = CARTESIAN_POINT ( 'NONE',  ( 11.49999999999999822, 5.000000000000000888, 2.000000000000000000 ) ) ;
#174 = APPLICATION_PROTOCOL_DEFINITION ( 'international standard', 'config_control_design', 1994, #432 ) ;
#175 = CARTESIAN_POINT ( 'NONE',  ( -11.49999999999999645, 5.000000000000000000, 0.000000000000000000 ) ) ;
#176 = ORIENTED_EDGE ( 'NONE', *, *, #369, .T. ) ;
#177 = DIRECTION ( 'NONE',  ( -0.000000000000000000, -0.000000000000000000, -1.000000000000000000 ) ) ;
#178 = ADVANCED_FACE ( 'NONE', ( #310 ), #271, .F. ) ;
#179 = ORIENTED_EDGE ( 'NONE', *, *, #387, .F. ) ;
#180 = CARTESIAN_POINT ( 'NONE',  ( 0.000000000000000000, 0.000000000000000000, 0.000000000000000000 ) ) ;
#181 = VERTEX_POINT ( 'NONE', #166 ) ;
#182 = VECTOR ( 'NONE', #204, 1000.000000000000000 ) ;
#183 = PERSON_AND_ORGANIZATION ( #247, #102 ) ;
#184 = PRODUCT_DEFINITION_SHAPE ( 'NONE', 'NONE',  #18 ) ;
#185 = LINE ( 'NONE', #137, #500 ) ;
#186 = DIRECTION ( 'NONE',  ( 0.000000000000000000, 0.000000000000000000, 1.000000000000000000 ) ) ;
#187 = DIRECTION ( 'NONE',  ( -0.000000000000000000, 1.000000000000000000, -0.000000000000000000 ) ) ;
#188 = APPLICATION_CONTEXT ( 'configuration controlled 3d designs of mechanical parts and assemblies' ) ;
#189 = EDGE_CURVE ( 'NONE', #418, #213, #44, .T. ) ;
#190 = LINE ( 'NONE', #481, #125 ) ;
#191 = EDGE_LOOP ( 'NONE', ( #241, #60 ) ) ;
#192 = AXIS2_PLACEMENT_3D ( 'NONE', #281, #177, #221 ) ;
#193 = ORIENTED_EDGE ( 'NONE', *, *, #319, .F. ) ;
#194 = APPROVAL_ROLE ( '' ) ;
#195 = UNCERTAINTY_MEASURE_WITH_UNIT (LENGTH_MEASURE( 1.000000000000000082E-05 ), #477, 'distance_accuracy_value', 'NONE');
#196 = EDGE_CURVE ( 'NONE', #106, #376, #190, .T. ) ;
#197 = CARTESIAN_POINT ( 'NONE',  ( -11.49999999999999645, 5.000000000000000000, -2.000000000000000000 ) ) ;
#198 = DATE_AND_TIME ( #97, #94 ) ;
#199 = CC_DESIGN_PERSON_AND_ORGANIZATION_ASSIGNMENT ( #56, #421, ( #243 ) ) ;
#200 = DATE_AND_TIME ( #114, #275 ) ;
#201 = CARTESIAN_POINT ( 'NONE',  ( 11.49999999999999822, 5.000000000000000888, 0.000000000000000000 ) ) ;
#202 = CARTESIAN_POINT ( 'NONE',  ( 11.49999999999999822, 5.000000000000000888, -6.704941225331755672E-15 ) ) ;
#203 = AXIS2_PLACEMENT_3D ( 'NONE', #440, #325, #87 ) ;
#204 = DIRECTION ( 'NONE',  ( -0.000000000000000000, 1.000000000000000000, -0.000000000000000000 ) ) ;
#205 = VECTOR ( 'NONE', #359, 1000.000000000000000 ) ;
#206 = ORIENTED_EDGE ( 'NONE', *, *, #296, .T. ) ;
#207 = APPROVAL_STATUS ( 'not_yet_approved' ) ;
#208 = ADVANCED_FACE ( 'NONE', ( #523 ), #130, .T. ) ;
#209 = ORIENTED_EDGE ( 'NONE', *, *, #453, .T. ) ;
#210 = SECURITY_CLASSIFICATION_LEVEL ( 'unclassified' ) ;
#211 = FACE_OUTER_BOUND ( 'NONE', #487, .T. ) ;
#212 = FACE_OUTER_BOUND ( 'NONE', #441, .T. ) ;
#213 = VERTEX_POINT ( 'NONE', #139 ) ;
#214 = CIRCLE ( 'NONE', #260, 3.000000000000000888 ) ;
#215 = DIRECTION ( 'NONE',  ( 1.836970198721029688E-16, 0.000000000000000000, 1.000000000000000000 ) ) ;
#216 = TOROIDAL_SURFACE ( 'NONE', #406, 8.249999999999996447, 3.000000000000000888 ) ;
#217 = ORIENTED_EDGE ( 'NONE', *, *, #434, .T. ) ;
#218 = DIRECTION ( 'NONE',  ( -1.000000000000000000, 0.000000000000000000, 1.836970198721031167E-16 ) ) ;
#219 = DIRECTION ( 'NONE',  ( -1.000000000000000000, 0.000000000000000000, 1.836970198721029688E-16 ) ) ;
#220 = EDGE_CURVE ( 'NONE', #402, #291, #261, .T. ) ;
#221 = DIRECTION ( 'NONE',  ( 1.000000000000000000, 0.000000000000000000, 0.000000000000000000 ) ) ;
#222 = CARTESIAN_POINT ( 'NONE',  ( 0.000000000000000000, 15.79903810567658340, 0.000000000000000000 ) ) ;
#223 = FACE_OUTER_BOUND ( 'NONE', #164, .T. ) ;
#224 = DIRECTION ( 'NONE',  ( 0.000000000000000000, 0.000000000000000000, 1.000000000000000000 ) ) ;
#225 = DIRECTION ( 'NONE',  ( -0.000000000000000000, 1.000000000000000000, -0.000000000000000000 ) ) ;
#226 = EDGE_LOOP ( 'NONE', ( #521, #496 ) ) ;
#227 = CIRCLE ( 'NONE', #537, 2.500000000000000444 ) ;
#228 = DIRECTION ( 'NONE',  ( -0.7071067811865487940, 8.659560562354948882E-17, 0.7071067811865463515 ) ) ;
#229 = ORIENTED_EDGE ( 'NONE', *, *, #156, .T. ) ;
#230 = CARTESIAN_POINT ( 'NONE',  ( -25.00000000000000000, -1.200000000000000030E-05, 0.000000000000000000 ) ) ;
#231 = DIRECTION ( 'NONE',  ( 0.000000000000000000, 0.000000000000000000, 1.000000000000000000 ) ) ;
#232 = EDGE_CURVE ( 'NONE', #331, #181, #23, .T. ) ;
#233 = CARTESIAN_POINT ( 'NONE',  ( 15.00000000000000178, 0.000000000000000000, -7.347880794884118356E-15 ) ) ;
#234 = CIRCLE ( 'NONE', #73, 0.4499999999999937939 ) ;
#235 = DIRECTION ( 'NONE',  ( -0.000000000000000000, -0.000000000000000000, 1.000000000000000000 ) ) ;
#236 = EDGE_CURVE ( 'NONE', #493, #475, #490, .T. ) ;
#237 = ORIENTED_EDGE ( 'NONE', *, *, #491, .T. ) ;
#238 = ADVANCED_BREP_SHAPE_REPRESENTATION ( 'half_container', ( #53, #26 ), #348 ) ;
#239 = ORIENTED_EDGE ( 'NONE', *, *, #59, .T. ) ;
#240 = CC_DESIGN_PERSON_AND_ORGANIZATION_ASSIGNMENT ( #390, #547, ( #408 ) ) ;
#241 = ORIENTED_EDGE ( 'NONE', *, *, #374, .T. ) ;
#242 = CONICAL_SURFACE ( 'NONE', #455, 11.24999999999999645, 0.7853981633974543852 ) ;
#243 = PRODUCT_DEFINITION_FORMATION_WITH_SPECIFIED_SOURCE ( 'ANY', '', #494, .NOT_KNOWN. ) ;
#244 = PERSON_AND_ORGANIZATION ( #247, #102 ) ;
#245 = DATE_AND_TIME ( #502, #329 ) ;
#246 = CARTESIAN_POINT ( 'NONE',  ( -7.500000000000000000, 0.000000000000000000, 4.133182947122316772E-15 ) ) ;
#247 = PERSON ( 'UNSPECIFIED', 'UNSPECIFIED', 'UNSPECIFIED', ('UNSPECIFIED'), ('UNSPECIFIED'), ('UNSPECIFIED') ) ;
#248 = ORIENTED_EDGE ( 'NONE', *, *, #256, .F. ) ;
#249 = PERSON_AND_ORGANIZATION ( #247, #102 ) ;
#250 = CIRCLE ( 'NONE', #13, 11.24999999999999645 ) ;
#251 = VECTOR ( 'NONE', #264, 1000.000000000000000 ) ;
#252 = LOCAL_TIME ( 20, 7, 19.00000000000000000, #40 ) ;
#253 = CARTESIAN_POINT ( 'NONE',  ( 0.000000000000000000, 0.000000000000000000, 0.000000000000000000 ) ) ;
#254 = ORIENTED_EDGE ( 'NONE', *, *, #46, .F. ) ;
#255 = CARTESIAN_POINT ( 'NONE',  ( 0.000000000000000000, 0.000000000000000000, 0.000000000000000000 ) ) ;
#256 = EDGE_CURVE ( 'NONE', #80, #106, #469, .T. ) ;
#257 = DIRECTION ( 'NONE',  ( 0.000000000000000000, 0.000000000000000000, 1.000000000000000000 ) ) ;
#258 = CARTESIAN_POINT ( 'NONE',  ( -11.24999999999999822, 17.29903810567659406, 2.066591473561157992E-15 ) ) ;
#259 = ORIENTED_EDGE ( 'NONE', *, *, #90, .T. ) ;
#260 = AXIS2_PLACEMENT_3D ( 'NONE', #451, #140, #15 ) ;
#261 = LINE ( 'NONE', #124, #308 ) ;
#262 = CIRCLE ( 'NONE', #509, 7.901923788646691094 ) ;
#263 = CC_DESIGN_APPROVAL ( #153, ( #408 ) ) ;
#264 = DIRECTION ( 'NONE',  ( -0.7071067811865487940, -8.659560562354948882E-17, -0.7071067811865463515 ) ) ;
#265 = DIRECTION ( 'NONE',  ( -1.836970198721029688E-16, 0.000000000000000000, -1.000000000000000000 ) ) ;
#266 = ADVANCED_FACE ( 'NONE', ( #223 ), #299, .F. ) ;
#267 =( NAMED_UNIT ( * ) SI_UNIT ( $, .STERADIAN. ) SOLID_ANGLE_UNIT ( ) );
#268 = DIRECTION ( 'NONE',  ( -0.7071067811865519026, -0.7071067811865431318, 1.298934084353247941E-16 ) ) ;
#269 = ORIENTED_EDGE ( 'NONE', *, *, #533, .T. ) ;
#270 =( NAMED_UNIT ( * ) PLANE_ANGLE_UNIT ( ) SI_UNIT ( $, .RADIAN. ) );
#271 = PLANE ( 'NONE',  #318 ) ;
#272 = CLOSED_SHELL ( 'NONE', ( #362, #302, #458, #322, #145, #529, #282, #126, #178, #138, #168, #552, #266, #67, #401, #208, #428 ) ) ;
#273 = AXIS2_PLACEMENT_3D ( 'NONE', #27, #112, #219 ) ;
#274 = CC_DESIGN_DATE_AND_TIME_ASSIGNMENT ( #245, #149, ( #408 ) ) ;
#275 = LOCAL_TIME ( 20, 7, 19.00000000000000000, #69 ) ;
#276 = LINE ( 'NONE', #485, #365 ) ;
#277 = ORIENTED_EDGE ( 'NONE', *, *, #105, .F. ) ;
#278 = CARTESIAN_POINT ( 'NONE',  ( 0.000000000000000000, 0.000000000000000000, 0.000000000000000000 ) ) ;
#279 = DIRECTION ( 'NONE',  ( 1.000000000000000000, 0.000000000000000000, 0.000000000000000000 ) ) ;
#280 = ORIENTED_EDGE ( 'NONE', *, *, #533, .F. ) ;
#281 = CARTESIAN_POINT ( 'NONE',  ( 11.49999999999999822, 5.000000000000000888, 0.000000000000000000 ) ) ;
#282 = ADVANCED_FACE ( 'NONE', ( #514 ), #216, .F. ) ;
#283 = DIRECTION ( 'NONE',  ( 1.000000000000000000, 0.000000000000000000, -0.000000000000000000 ) ) ;
#284 = CIRCLE ( 'NONE', #355, 11.24999999999999822 ) ;
#285 = AXIS2_PLACEMENT_3D ( 'NONE', #372, #445, #121 ) ;
#286 = AXIS2_PLACEMENT_3D ( 'NONE', #41, #235, #415 ) ;
#287 = VECTOR ( 'NONE', #43, 1000.000000000000000 ) ;
#288 = DIRECTION ( 'NONE',  ( -1.000000000000000000, -0.000000000000000000, 1.836970198721029441E-16 ) ) ;
#289 = FACE_OUTER_BOUND ( 'NONE', #311, .T. ) ;
#290 = EDGE_LOOP ( 'NONE', ( #450, #33, #280, #39 ) ) ;
#291 = VERTEX_POINT ( 'NONE', #474 ) ;
#292 = CC_DESIGN_PERSON_AND_ORGANIZATION_ASSIGNMENT ( #54, #136, ( #494 ) ) ;
#293 = VECTOR ( 'NONE', #228, 1000.000000000000000 ) ;
#294 = DIRECTION ( 'NONE',  ( -0.000000000000000000, 1.000000000000000000, -0.000000000000000000 ) ) ;
#295 = VERTEX_POINT ( 'NONE', #127 ) ;
#296 = EDGE_CURVE ( 'NONE', #155, #303, #227, .T. ) ;
#297 = CARTESIAN_POINT ( 'NONE',  ( -14.99999999999999467, 0.000000000000000000, -1.836970198721029589E-15 ) ) ;
#298 = ORIENTED_EDGE ( 'NONE', *, *, #405, .F. ) ;
#299 = CONICAL_SURFACE ( 'NONE', #171, 2.500000000000000444, 0.7853981633974500554 ) ;
#300 = CC_DESIGN_SECURITY_CLASSIFICATION ( #408, ( #243 ) ) ;
#301 = CARTESIAN_POINT ( 'NONE',  ( 11.05000000000000426, 5.000000000000000888, 2.000000000000000000 ) ) ;
#302 = ADVANCED_FACE ( 'NONE', ( #49 ), #141, .F. ) ;
#303 = VERTEX_POINT ( 'NONE', #9 ) ;
#304 = DIRECTION ( 'NONE',  ( 1.000000000000000000, 0.000000000000000000, 0.000000000000000000 ) ) ;
#305 = CARTESIAN_POINT ( 'NONE',  ( 7.901923788646691094, 10.69615242270663735, -1.451559851230874157E-15 ) ) ;
#306 = VERTEX_POINT ( 'NONE', #370 ) ;
#307 = LINE ( 'NONE', #471, #251 ) ;
#308 = VECTOR ( 'NONE', #313, 999.9999999999998863 ) ;
#309 = CARTESIAN_POINT ( 'NONE',  ( 13.95000000000000107, 5.000000000000000888, 0.000000000000000000 ) ) ;
#310 = FACE_OUTER_BOUND ( 'NONE', #290, .T. ) ;
#311 = EDGE_LOOP ( 'NONE', ( #422, #74, #28, #572 ) ) ;
#312 = CARTESIAN_POINT ( 'NONE',  ( 9.049999999999988276, 5.000000000000000888, -6.254883526645102110E-15 ) ) ;
#313 = DIRECTION ( 'NONE',  ( 0.5000000000000037748, -0.8660254037844364872, -9.184850993605217463E-17 ) ) ;
#314 = EDGE_CURVE ( 'NONE', #448, #155, #403, .T. ) ;
#315 = ORIENTED_EDGE ( 'NONE', *, *, #120, .F. ) ;
#316 = DIRECTION ( 'NONE',  ( 1.000000000000000000, 0.000000000000000000, 0.000000000000000000 ) ) ;
#317 = AXIS2_PLACEMENT_3D ( 'NONE', #556, #34, #72 ) ;
#318 = AXIS2_PLACEMENT_3D ( 'NONE', #435, #417, #534 ) ;
#319 = EDGE_CURVE ( 'NONE', #306, #493, #483, .T. ) ;
#320 = CC_DESIGN_APPROVAL ( #574, ( #243 ) ) ;
#321 = LINE ( 'NONE', #575, #205 ) ;
#322 = ADVANCED_FACE ( 'NONE', ( #289 ), #17, .F. ) ;
#323 = ORIENTED_EDGE ( 'NONE', *, *, #95, .T. ) ;
#324 = CARTESIAN_POINT ( 'NONE',  ( -11.49999999999999645, 5.000000000000000000, 0.000000000000000000 ) ) ;
#325 = DIRECTION ( 'NONE',  ( -0.000000000000000000, 1.000000000000000000, -0.000000000000000000 ) ) ;
#326 = DIRECTION ( 'NONE',  ( 0.000000000000000000, 0.000000000000000000, 1.000000000000000000 ) ) ;
#327 = AXIS2_PLACEMENT_3D ( 'NONE', #76, #215, #66 ) ;
#328 = CIRCLE ( 'NONE', #93, 0.4499999999999937939 ) ;
#329 = LOCAL_TIME ( 20, 7, 19.00000000000000000, #456 ) ;
#330 = VERTEX_POINT ( 'NONE', #305 ) ;
#331 = VERTEX_POINT ( 'NONE', #468 ) ;
#332 = EDGE_CURVE ( 'NONE', #213, #80, #347, .T. ) ;
#333 = DIRECTION ( 'NONE',  ( -1.000000000000000000, 0.000000000000000000, 1.836970198721031167E-16 ) ) ;
#334 = DIRECTION ( 'NONE',  ( -0.000000000000000000, 1.000000000000000000, -0.000000000000000000 ) ) ;
#335 = ORIENTED_EDGE ( 'NONE', *, *, #135, .F. ) ;
#336 = SHAPE_DEFINITION_REPRESENTATION ( #184, #238 ) ;
#337 = EDGE_CURVE ( 'NONE', #418, #106, #356, .T. ) ;
#338 = AXIS2_PLACEMENT_3D ( 'NONE', #77, #430, #257 ) ;
#339 = AXIS2_PLACEMENT_3D ( 'NONE', #230, #265, #361 ) ;
#340 = LINE ( 'NONE', #297, #182 ) ;
#341 = DIRECTION ( 'NONE',  ( 1.000000000000000000, 0.000000000000000000, 0.000000000000000000 ) ) ;
#342 = FACE_OUTER_BOUND ( 'NONE', #479, .T. ) ;
#343 = APPROVAL_STATUS ( 'not_yet_approved' ) ;
#344 = CARTESIAN_POINT ( 'NONE',  ( -8.999999999999996447, 5.000000000000000000, 0.000000000000000000 ) ) ;
#345 = EDGE_LOOP ( 'NONE', ( #89, #193, #546, #254 ) ) ;
#346 = DIRECTION ( 'NONE',  ( -0.000000000000000000, 1.000000000000000000, -0.000000000000000000 ) ) ;
#347 = CIRCLE ( 'NONE', #117, 7.500000000000000888 ) ;
#348 =( GEOMETRIC_REPRESENTATION_CONTEXT ( 3 ) GLOBAL_UNCERTAINTY_ASSIGNED_CONTEXT ( ( #195 ) ) GLOBAL_UNIT_ASSIGNED_CONTEXT ( ( #477, #270, #267 ) ) REPRESENTATION_CONTEXT ( 'NONE', 'WORKASPACE' ) );
#349 = CARTESIAN_POINT ( 'NONE',  ( 11.94999999999999218, 5.000000000000000888, 2.000000000000000000 ) ) ;
#350 = EDGE_LOOP ( 'NONE', ( #541, #351, #239, #162, #58, #248, #446, #144, #45 ) ) ;
#351 = ORIENTED_EDGE ( 'NONE', *, *, #555, .T. ) ;
#352 = DIRECTION ( 'NONE',  ( 1.000000000000000000, 0.000000000000000000, 0.000000000000000000 ) ) ;
#353 = CARTESIAN_POINT ( 'NONE',  ( 10.49999999999999822, 9.196152422706623142, -1.928818708657080950E-15 ) ) ;
#354 = LINE ( 'NONE', #525, #287 ) ;
#355 = AXIS2_PLACEMENT_3D ( 'NONE', #497, #454, #326 ) ;
#356 = CIRCLE ( 'NONE', #395, 7.500000000000000000 ) ;
#357 = ORIENTED_EDGE ( 'NONE', *, *, #513, .F. ) ;
#358 = EDGE_CURVE ( 'NONE', #113, #425, #307, .T. ) ;
#359 = DIRECTION ( 'NONE',  ( -1.000000000000000000, -0.000000000000000000, 1.836970198721029441E-16 ) ) ;
#360 = DIRECTION ( 'NONE',  ( 0.000000000000000000, 0.000000000000000000, 1.000000000000000000 ) ) ;
#361 = DIRECTION ( 'NONE',  ( -1.000000000000000000, 0.000000000000000000, 1.836970198721029688E-16 ) ) ;
#362 = ADVANCED_FACE ( 'NONE', ( #211 ), #101, .T. ) ;
#363 = EDGE_CURVE ( 'NONE', #158, #475, #461, .T. ) ;
#364 = ORIENTED_EDGE ( 'NONE', *, *, #374, .F. ) ;
#365 = VECTOR ( 'NONE', #438, 1000.000000000000000 ) ;
#366 = AXIS2_PLACEMENT_3D ( 'NONE', #165, #48, #486 ) ;
#367 = DIRECTION ( 'NONE',  ( -0.000000000000000000, 1.000000000000000000, -0.000000000000000000 ) ) ;
#368 = ORIENTED_EDGE ( 'NONE', *, *, #491, .F. ) ;
#369 = EDGE_CURVE ( 'NONE', #295, #132, #276, .T. ) ;
#370 = CARTESIAN_POINT ( 'NONE',  ( -12.25000000000000888, 46.49519052838321898, -2.342137003369311286E-15 ) ) ;
#371 = CARTESIAN_POINT ( 'NONE',  ( 0.000000000000000000, 45.49519052838321898, 0.000000000000000000 ) ) ;
#372 = CARTESIAN_POINT ( 'NONE',  ( 11.49999999999999822, 5.000000000000000888, 2.000000000000000000 ) ) ;
#373 = CIRCLE ( 'NONE', #116, 2.450000000000007727 ) ;
#374 = EDGE_CURVE ( 'NONE', #147, #113, #328, .T. ) ;
#375 = ORIENTED_EDGE ( 'NONE', *, *, #363, .T. ) ;
#376 = VERTEX_POINT ( 'NONE', #411 ) ;
#377 = APPROVAL_DATE_TIME ( #20, #153 ) ;
#378 = CARTESIAN_POINT ( 'NONE',  ( -11.49999999999999645, 5.000000000000000000, -2.000000000000000000 ) ) ;
#379 = EDGE_LOOP ( 'NONE', ( #269, #118, #413, #561, #452, #447, #167, #143, #512 ) ) ;
#380 = APPROVAL_ROLE ( '' ) ;
#381 = AXIS2_PLACEMENT_3D ( 'NONE', #21, #429, #465 ) ;
#382 = DIRECTION ( 'NONE',  ( -0.000000000000000000, -0.000000000000000000, -1.000000000000000000 ) ) ;
#383 = VECTOR ( 'NONE', #225, 1000.000000000000000 ) ;
#384 = LINE ( 'NONE', #163, #518 ) ;
#385 = EDGE_LOOP ( 'NONE', ( #51, #79, #298, #209 ) ) ;
#386 = COORDINATED_UNIVERSAL_TIME_OFFSET ( 0, 0, .AHEAD. ) ;
#387 = EDGE_CURVE ( 'NONE', #113, #147, #234, .T. ) ;
#388 = EDGE_CURVE ( 'NONE', #1, #376, #464, .T. ) ;
#389 = DIRECTION ( 'NONE',  ( -1.000000000000000000, 0.000000000000000000, 1.836970198721029688E-16 ) ) ;
#390 = PERSON_AND_ORGANIZATION ( #247, #102 ) ;
#391 = DIRECTION ( 'NONE',  ( 0.7071067811865487940, 0.000000000000000000, 0.7071067811865463515 ) ) ;
#392 = ORIENTED_EDGE ( 'NONE', *, *, #148, .T. ) ;
#393 = TOROIDAL_SURFACE ( 'NONE', #150, 10.49999999999999822, 2.999999999999999556 ) ;
#394 = CARTESIAN_POINT ( 'NONE',  ( 11.24999999999999467, 45.49519052838321898, -6.659016970363729992E-15 ) ) ;
#395 = AXIS2_PLACEMENT_3D ( 'NONE', #255, #30, #123 ) ;
#396 = CARTESIAN_POINT ( 'NONE',  ( -13.99999999999999645, 5.000000000000000000, 0.000000000000000000 ) ) ;
#397 = ORIENTED_EDGE ( 'NONE', *, *, #142, .T. ) ;
#398 = CARTESIAN_POINT ( 'NONE',  ( 0.000000000000000000, 9.196152422706624918, 0.000000000000000000 ) ) ;
#399 = CARTESIAN_POINT ( 'NONE',  ( 12.25000000000001066, 46.49519052838321898, -6.842713990235837447E-15 ) ) ;
#400 = DIRECTION ( 'NONE',  ( -0.000000000000000000, -0.000000000000000000, 1.000000000000000000 ) ) ;
#401 = ADVANCED_FACE ( 'NONE', ( #42 ), #6, .T. ) ;
#402 = VERTEX_POINT ( 'NONE', #476 ) ;
#403 = LINE ( 'NONE', #566, #293 ) ;
#404 = ORIENTED_EDGE ( 'NONE', *, *, #513, .T. ) ;
#405 = EDGE_CURVE ( 'NONE', #330, #291, #262, .T. ) ;
#406 = AXIS2_PLACEMENT_3D ( 'NONE', #88, #187, #85 ) ;
#407 = CARTESIAN_POINT ( 'NONE',  ( -7.499999999999999112, 0.000000000000000000, -3.214697847761801189E-15 ) ) ;
#408 = SECURITY_CLASSIFICATION ( '', '', #210 ) ;
#409 = PRODUCT_RELATED_PRODUCT_CATEGORY ( 'detail', '', ( #494 ) ) ;
#410 = ORIENTED_EDGE ( 'NONE', *, *, #90, .F. ) ;
#411 = CARTESIAN_POINT ( 'NONE',  ( -14.99999999999999467, 0.000000000000000000, -1.836970198721029589E-15 ) ) ;
#412 = APPLICATION_PROTOCOL_DEFINITION ( 'international standard', 'config_control_design', 1994, #188 ) ;
#413 = ORIENTED_EDGE ( 'NONE', *, *, #363, .F. ) ;
#414 = AXIS2_PLACEMENT_3D ( 'NONE', #202, #37, #218 ) ;
#415 = DIRECTION ( 'NONE',  ( 1.000000000000000000, 0.000000000000000000, 0.000000000000000000 ) ) ;
#416 = DIRECTION ( 'NONE',  ( 0.000000000000000000, 1.000000000000000000, 0.000000000000000000 ) ) ;
#417 = DIRECTION ( 'NONE',  ( 0.000000000000000000, -1.000000000000000000, 0.000000000000000000 ) ) ;
#418 = VERTEX_POINT ( 'NONE', #569 ) ;
#419 = PLANE ( 'NONE',  #516 ) ;
#420 = CIRCLE ( 'NONE', #133, 2.999999999999999112 ) ;
#421 = PERSON_AND_ORGANIZATION_ROLE ( 'creator' ) ;
#422 = ORIENTED_EDGE ( 'NONE', *, *, #332, .T. ) ;
#423 = EDGE_CURVE ( 'NONE', #213, #330, #420, .T. ) ;
#424 = DIRECTION ( 'NONE',  ( 0.000000000000000000, 0.000000000000000000, 1.000000000000000000 ) ) ;
#425 = VERTEX_POINT ( 'NONE', #312 ) ;
#426 = VECTOR ( 'NONE', #268, 1000.000000000000000 ) ;
#427 = CARTESIAN_POINT ( 'NONE',  ( 11.24999999999999467, 0.000000000000000000, -6.659016970363729992E-15 ) ) ;
#428 = ADVANCED_FACE ( 'NONE', ( #480 ), #242, .F. ) ;
#429 = DIRECTION ( 'NONE',  ( -0.000000000000000000, 1.000000000000000000, -0.000000000000000000 ) ) ;
#430 = DIRECTION ( 'NONE',  ( -0.000000000000000000, 1.000000000000000000, 0.000000000000000000 ) ) ;
#431 = CYLINDRICAL_SURFACE ( 'NONE', #317, 14.99999999999999645 ) ;
#432 = APPLICATION_CONTEXT ( 'configuration controlled 3d designs of mechanical parts and assemblies' ) ;
#433 = PLANE ( 'NONE',  #338 ) ;
#434 = EDGE_CURVE ( 'NONE', #303, #155, #161, .T. ) ;
#435 = CARTESIAN_POINT ( 'NONE',  ( 11.24999999999999645, 46.49519052838321898, 0.000000000000000000 ) ) ;
#436 = DIRECTION ( 'NONE',  ( 1.000000000000000000, 0.000000000000000000, 0.000000000000000000 ) ) ;
#437 = ORIENTED_EDGE ( 'NONE', *, *, #61, .F. ) ;
#438 = DIRECTION ( 'NONE',  ( 0.000000000000000000, -1.000000000000000000, 0.000000000000000000 ) ) ;
#439 = CARTESIAN_POINT ( 'NONE',  ( 13.95000000000000817, 5.000000000000000888, -7.154998924018410813E-15 ) ) ;
#440 = CARTESIAN_POINT ( 'NONE',  ( 0.000000000000000000, 46.49519052838321898, 0.000000000000000000 ) ) ;
#441 = EDGE_LOOP ( 'NONE', ( #55, #392, #508, #229 ) ) ;
#442 = FACE_OUTER_BOUND ( 'NONE', #385, .T. ) ;
#443 = CIRCLE ( 'NONE', #100, 0.4999999999999935052 ) ;
#444 = AXIS2_PLACEMENT_3D ( 'NONE', #201, #382, #341 ) ;
#445 = DIRECTION ( 'NONE',  ( 0.000000000000000000, 0.000000000000000000, 1.000000000000000000 ) ) ;
#446 = ORIENTED_EDGE ( 'NONE', *, *, #103, .F. ) ;
#447 = ORIENTED_EDGE ( 'NONE', *, *, #423, .F. ) ;
#448 = VERTEX_POINT ( 'NONE', #159 ) ;
#449 = APPROVAL_DATE_TIME ( #200, #574 ) ;
#450 = ORIENTED_EDGE ( 'NONE', *, *, #59, .F. ) ;
#451 = CARTESIAN_POINT ( 'NONE',  ( 8.249999999999996447, 17.29903810567659406, -1.515500413944848839E-15 ) ) ;
#452 = ORIENTED_EDGE ( 'NONE', *, *, #453, .F. ) ;
#453 = EDGE_CURVE ( 'NONE', #330, #489, #31, .T. ) ;
#454 = DIRECTION ( 'NONE',  ( -0.000000000000000000, 1.000000000000000000, -0.000000000000000000 ) ) ;
#455 = AXIS2_PLACEMENT_3D ( 'NONE', #524, #532, #186 ) ;
#456 = COORDINATED_UNIVERSAL_TIME_OFFSET ( 0, 0, .AHEAD. ) ;
#457 = CARTESIAN_POINT ( 'NONE',  ( 0.000000000000000000, 9.196152422706623142, 0.000000000000000000 ) ) ;
#458 = ADVANCED_FACE ( 'NONE', ( #70 ), #433, .F. ) ;
#459 = ORIENTED_EDGE ( 'NONE', *, *, #405, .T. ) ;
#460 = DATE_TIME_ROLE ( 'creation_date' ) ;
#461 = LINE ( 'NONE', #427, #492 ) ;
#462 = PLANE ( 'NONE',  #273 ) ;
#463 = ORIENTED_EDGE ( 'NONE', *, *, #61, .T. ) ;
#464 = CIRCLE ( 'NONE', #47, 15.00000000000000000 ) ;
#465 = DIRECTION ( 'NONE',  ( 0.000000000000000000, 0.000000000000000000, 1.000000000000000000 ) ) ;
#466 = DIRECTION ( 'NONE',  ( -1.000000000000000000, 0.000000000000000000, 1.836970198721030181E-16 ) ) ;
#467 = ORIENTED_EDGE ( 'NONE', *, *, #46, .T. ) ;
#468 = CARTESIAN_POINT ( 'NONE',  ( 14.99999999999999645, 46.49519052838321898, -7.347880794884116778E-15 ) ) ;
#469 = LINE ( 'NONE', #407, #14 ) ;
#470 = EDGE_LOOP ( 'NONE', ( #459, #554, #19, #12 ) ) ;
#471 = CARTESIAN_POINT ( 'NONE',  ( 9.049999999999995381, 5.000000000000000888, 0.000000000000000000 ) ) ;
#472 = CIRCLE ( 'NONE', #381, 10.84807621135330713 ) ;
#473 = AXIS2_PLACEMENT_3D ( 'NONE', #544, #334, #108 ) ;
#474 = CARTESIAN_POINT ( 'NONE',  ( -7.901923788646691094, 10.69615242270663735, 1.451559851230874157E-15 ) ) ;
#475 = VERTEX_POINT ( 'NONE', #394 ) ;
#476 = CARTESIAN_POINT ( 'NONE',  ( -10.84807621135330891, 15.79903810567658695, -2.599666225431516566E-15 ) ) ;
#477 =( LENGTH_UNIT ( ) NAMED_UNIT ( * ) SI_UNIT ( .MILLI., .METRE. ) );
#478 = DIRECTION ( 'NONE',  ( -1.000000000000000000, 0.000000000000000000, 1.836970198721029688E-16 ) ) ;
#479 = EDGE_LOOP ( 'NONE', ( #375, #467, #176, #410 ) ) ;
#480 = FACE_OUTER_BOUND ( 'NONE', #345, .T. ) ;
#481 = CARTESIAN_POINT ( 'NONE',  ( 15.00000000000000000, 0.000000000000000000, 0.000000000000000000 ) ) ;
#482 = CARTESIAN_POINT ( 'NONE',  ( 0.000000000000000000, 10.69615242270663735, 0.000000000000000000 ) ) ;
#483 = CIRCLE ( 'NONE', #24, 12.25000000000000888 ) ;
#484 = ORIENTED_EDGE ( 'NONE', *, *, #314, .T. ) ;
#485 = CARTESIAN_POINT ( 'NONE',  ( -11.24999999999999467, 0.000000000000000000, -2.525834023241415981E-15 ) ) ;
#486 = DIRECTION ( 'NONE',  ( 1.000000000000000000, 0.000000000000000000, 0.000000000000000000 ) ) ;
#487 = EDGE_LOOP ( 'NONE', ( #179, #170, #463, #526 ) ) ;
#488 = APPROVAL_ROLE ( '' ) ;
#489 = VERTEX_POINT ( 'NONE', #559 ) ;
#490 = LINE ( 'NONE', #520, #426 ) ;
#491 = EDGE_CURVE ( 'NONE', #515, #425, #81, .T. ) ;
#492 = VECTOR ( 'NONE', #346, 1000.000000000000000 ) ;
#493 = VERTEX_POINT ( 'NONE', #399 ) ;
#494 = PRODUCT ( 'half_container', 'half_container', '', ( #129 ) ) ;
#495 = DIRECTION ( 'NONE',  ( 0.000000000000000000, 0.000000000000000000, -1.000000000000000000 ) ) ;
#496 = ORIENTED_EDGE ( 'NONE', *, *, #296, .F. ) ;
#497 = CARTESIAN_POINT ( 'NONE',  ( 0.000000000000000000, 17.29903810567659406, 0.000000000000000000 ) ) ;
#498 = PERSON_AND_ORGANIZATION_ROLE ( 'design_supplier' ) ;
#499 = EDGE_LOOP ( 'NONE', ( #259, #397, #277, #563 ) ) ;
#500 = VECTOR ( 'NONE', #288, 1000.000000000000000 ) ;
#501 = VECTOR ( 'NONE', #119, 999.9999999999998863 ) ;
#502 = CALENDAR_DATE ( 2025, 24, 11 ) ;
#503 = LOCAL_TIME ( 20, 7, 19.00000000000000000, #386 ) ;
#504 = CARTESIAN_POINT ( 'NONE',  ( 11.24999999999999822, 17.29903810567659406, -2.066591473561157992E-15 ) ) ;
#505 = FACE_OUTER_BOUND ( 'NONE', #379, .T. ) ;
#506 = ORIENTED_EDGE ( 'NONE', *, *, #358, .F. ) ;
#507 = PERSON_AND_ORGANIZATION ( #247, #102 ) ;
#508 = ORIENTED_EDGE ( 'NONE', *, *, #232, .F. ) ;
#509 = AXIS2_PLACEMENT_3D ( 'NONE', #482, #367, #564 ) ;
#510 = APPROVAL_PERSON_ORGANIZATION ( #244, #574, #380 ) ;
#511 = EDGE_LOOP ( 'NONE', ( #315, #484, #206, #335 ) ) ;
#512 = ORIENTED_EDGE ( 'NONE', *, *, #156, .F. ) ;
#513 = EDGE_CURVE ( 'NONE', #2, #448, #36, .T. ) ;
#514 = FACE_OUTER_BOUND ( 'NONE', #499, .T. ) ;
#515 = VERTEX_POINT ( 'NONE', #439 ) ;
#516 = AXIS2_PLACEMENT_3D ( 'NONE', #197, #543, #283 ) ;
#517 = DIRECTION ( 'NONE',  ( 0.000000000000000000, 0.000000000000000000, 1.000000000000000000 ) ) ;
#518 = VECTOR ( 'NONE', #549, 1000.000000000000000 ) ;
#519 = AXIS2_PLACEMENT_3D ( 'NONE', #222, #527, #231 ) ;
#520 = CARTESIAN_POINT ( 'NONE',  ( -8.436148777472945048E-31, 34.24519052838336108, -4.592425496802572789E-15 ) ) ;
#521 = ORIENTED_EDGE ( 'NONE', *, *, #434, .F. ) ;
#522 = DIRECTION ( 'NONE',  ( 0.000000000000000000, 0.000000000000000000, 1.000000000000000000 ) ) ;
#523 = FACE_OUTER_BOUND ( 'NONE', #191, .T. ) ;
#524 = CARTESIAN_POINT ( 'NONE',  ( 0.000000000000000000, 45.49519052838321898, 0.000000000000000000 ) ) ;
#525 = CARTESIAN_POINT ( 'NONE',  ( -8.436148777472945048E-31, 34.24519052838336108, -4.592425496802572789E-15 ) ) ;
#526 = ORIENTED_EDGE ( 'NONE', *, *, #540, .F. ) ;
#527 = DIRECTION ( 'NONE',  ( -0.000000000000000000, 1.000000000000000000, -0.000000000000000000 ) ) ;
#528 = ORIENTED_EDGE ( 'NONE', *, *, #196, .T. ) ;
#529 = ADVANCED_FACE ( 'NONE', ( #442 ), #539, .F. ) ;
#530 = APPROVAL_STATUS ( 'not_yet_approved' ) ;
#531 = ORIENTED_EDGE ( 'NONE', *, *, #120, .T. ) ;
#532 = DIRECTION ( 'NONE',  ( 0.000000000000000000, 1.000000000000000000, 0.000000000000000000 ) ) ;
#533 = EDGE_CURVE ( 'NONE', #331, #493, #321, .T. ) ;
#534 = DIRECTION ( 'NONE',  ( 0.000000000000000000, -0.000000000000000000, -1.000000000000000000 ) ) ;
#535 = CARTESIAN_POINT ( 'NONE',  ( -7.499999999999999112, 9.196152422706624918, -3.214697847761801189E-15 ) ) ;
#536 = CC_DESIGN_PERSON_AND_ORGANIZATION_ASSIGNMENT ( #16, #498, ( #243 ) ) ;
#537 = AXIS2_PLACEMENT_3D ( 'NONE', #175, #360, #436 ) ;
#538 = FACE_OUTER_BOUND ( 'NONE', #62, .T. ) ;
#539 = CONICAL_SURFACE ( 'NONE', #519, 10.84807621135330713, 0.5235987755983031455 ) ;
#540 = EDGE_CURVE ( 'NONE', #147, #515, #4, .T. ) ;
#541 = ORIENTED_EDGE ( 'NONE', *, *, #369, .F. ) ;
#542 = DATE_AND_TIME ( #75, #252 ) ;
#543 = DIRECTION ( 'NONE',  ( 0.000000000000000000, 0.000000000000000000, 1.000000000000000000 ) ) ;
#544 = CARTESIAN_POINT ( 'NONE',  ( 0.000000000000000000, 0.000000000000000000, 0.000000000000000000 ) ) ;
#545 = DIRECTION ( 'NONE',  ( 0.000000000000000000, 0.000000000000000000, 1.000000000000000000 ) ) ;
#546 = ORIENTED_EDGE ( 'NONE', *, *, #555, .F. ) ;
#547 = PERSON_AND_ORGANIZATION_ROLE ( 'classification_officer' ) ;
#548 = APPROVAL_PERSON_ORGANIZATION ( #249, #153, #194 ) ;
#549 = DIRECTION ( 'NONE',  ( 0.000000000000000000, -1.000000000000000000, 0.000000000000000000 ) ) ;
#550 = ORIENTED_EDGE ( 'NONE', *, *, #337, .T. ) ;
#551 = CALENDAR_DATE ( 2025, 24, 11 ) ;
#552 = ADVANCED_FACE ( 'NONE', ( #570, #565 ), #169, .F. ) ;
#553 = DIRECTION ( 'NONE',  ( 1.000000000000000000, 0.000000000000000000, 0.000000000000000000 ) ) ;
#554 = ORIENTED_EDGE ( 'NONE', *, *, #103, .T. ) ;
#555 = EDGE_CURVE ( 'NONE', #295, #306, #354, .T. ) ;
#556 = CARTESIAN_POINT ( 'NONE',  ( 0.000000000000000000, 0.000000000000000000, 0.000000000000000000 ) ) ;
#557 = ORIENTED_EDGE ( 'NONE', *, *, #135, .T. ) ;
#558 = CIRCLE ( 'NONE', #63, 2.999999999999999112 ) ;
#559 = CARTESIAN_POINT ( 'NONE',  ( 10.84807621135330891, 15.79903810567658695, -6.585184768173629407E-15 ) ) ;
#560 = DIRECTION ( 'NONE',  ( -0.000000000000000000, 1.000000000000000000, -0.000000000000000000 ) ) ;
#561 = ORIENTED_EDGE ( 'NONE', *, *, #84, .F. ) ;
#562 = DIRECTION ( 'NONE',  ( -0.000000000000000000, 1.000000000000000000, -0.000000000000000000 ) ) ;
#563 = ORIENTED_EDGE ( 'NONE', *, *, #84, .T. ) ;
#564 = DIRECTION ( 'NONE',  ( 0.000000000000000000, 0.000000000000000000, 1.000000000000000000 ) ) ;
#565 = FACE_OUTER_BOUND ( 'NONE', #350, .T. ) ;
#566 = CARTESIAN_POINT ( 'NONE',  ( -13.99999999999999645, 5.000000000000000000, 0.000000000000000000 ) ) ;
#567 = ORIENTED_EDGE ( 'NONE', *, *, #388, .F. ) ;
#568 = VECTOR ( 'NONE', #391, 1000.000000000000000 ) ;
#569 = CARTESIAN_POINT ( 'NONE',  ( 7.500000000000000000, 0.000000000000000000, 1.377727649040772192E-15 ) ) ;
#570 = FACE_BOUND ( 'NONE', #226, .T. ) ;
#571 = CARTESIAN_POINT ( 'NONE',  ( -11.49999999999999645, 5.000000000000000000, 0.000000000000000000 ) ) ;
#572 = ORIENTED_EDGE ( 'NONE', *, *, #189, .T. ) ;
#573 = CARTESIAN_POINT ( 'NONE',  ( 11.49999999999999822, 5.000000000000000888, 2.000000000000000000 ) ) ;
#574 = APPROVAL ( #343, 'UNSPECIFIED' ) ;
#575 = CARTESIAN_POINT ( 'NONE',  ( -25.00000000000000000, 46.49519052838321898, 0.000000000000000000 ) ) ;
ENDSEC;
END-ISO-10303-21;
