ISO-10303-21;
HEADER;
FILE_DESCRIPTION (( 'STEP AP203' ),
    '1' );
FILE_NAME ('punch.STEP',
    '2025-12-05T15:00:49',
    ( '' ),
    ( '' ),
    'SwSTEP 2.0',
    'SolidWorks 2020',
    '' );
FILE_SCHEMA (( 'CONFIG_CONTROL_DESIGN' ));
ENDSEC;

DATA;
#1 = FACE_BOUND ( 'NONE', #173, .T. ) ;
#2 = CIRCLE ( 'NONE', #264, 7.500000000000000000 ) ;
#3 = AXIS2_PLACEMENT_3D ( 'NONE', #9, #235, #187 ) ;
#4 = CARTESIAN_POINT ( 'NONE',  ( 0.000000000000000000, 7.000000000000000000, 0.000000000000000000 ) ) ;
#5 = MECHANICAL_CONTEXT ( 'NONE', #312, 'mechanical' ) ;
#6 = DIRECTION ( 'NONE',  ( 0.000000000000000000, 0.000000000000000000, 1.000000000000000000 ) ) ;
#7 = CIRCLE ( 'NONE', #309, 4.549999999999999822 ) ;
#8 = EDGE_CURVE ( 'NONE', #67, #21, #174, .T. ) ;
#9 = CARTESIAN_POINT ( 'NONE',  ( 0.000000000000000000, 7.000000000000000000, 0.000000000000000000 ) ) ;
#10 = ORIENTED_EDGE ( 'NONE', *, *, #254, .F. ) ;
#11 = EDGE_LOOP ( 'NONE', ( #278, #329, #276, #44 ) ) ;
#12 = APPROVAL_STATUS ( 'not_yet_approved' ) ;
#13 = VERTEX_POINT ( 'NONE', #280 ) ;
#14 = AXIS2_PLACEMENT_3D ( 'NONE', #128, #98, #271 ) ;
#15 = EDGE_LOOP ( 'NONE', ( #178, #204, #148, #321 ) ) ;
#16 = ADVANCED_FACE ( 'NONE', ( #122 ), #73, .F. ) ;
#17 = CALENDAR_DATE ( 2025, 5, 12 ) ;
#18 = VERTEX_POINT ( 'NONE', #227 ) ;
#19 = ORIENTED_EDGE ( 'NONE', *, *, #291, .F. ) ;
#20 = CIRCLE ( 'NONE', #287, 2.549999999999999822 ) ;
#21 = VERTEX_POINT ( 'NONE', #302 ) ;
#22 = VECTOR ( 'NONE', #319, 1000.000000000000000 ) ;
#23 = DIRECTION ( 'NONE',  ( 0.000000000000000000, 0.000000000000000000, -1.000000000000000000 ) ) ;
#24 = CARTESIAN_POINT ( 'NONE',  ( 0.000000000000000000, 10.00000000000000000, 0.000000000000000000 ) ) ;
#25 = CARTESIAN_POINT ( 'NONE',  ( 0.000000000000000000, 10.00000000000000000, 0.000000000000000000 ) ) ;
#26 = DIRECTION ( 'NONE',  ( 0.000000000000000000, 1.000000000000000000, 0.000000000000000000 ) ) ;
#27 = CYLINDRICAL_SURFACE ( 'NONE', #137, 4.549999999999999822 ) ;
#28 = CARTESIAN_POINT ( 'NONE',  ( 0.000000000000000000, 5.000000000000000000, 0.000000000000000000 ) ) ;
#29 = LINE ( 'NONE', #294, #100 ) ;
#30 = EDGE_CURVE ( 'NONE', #324, #13, #2, .T. ) ;
#31 = ORIENTED_EDGE ( 'NONE', *, *, #161, .T. ) ;
#32 = CC_DESIGN_SECURITY_CLASSIFICATION ( #162, ( #184 ) ) ;
#33 = LINE ( 'NONE', #189, #92 ) ;
#34 = CALENDAR_DATE ( 2025, 5, 12 ) ;
#35 = DIRECTION ( 'NONE',  ( -0.000000000000000000, 1.000000000000000000, -0.000000000000000000 ) ) ;
#36 = CALENDAR_DATE ( 2025, 5, 12 ) ;
#37 = EDGE_CURVE ( 'NONE', #18, #125, #331, .T. ) ;
#38 = ORIENTED_EDGE ( 'NONE', *, *, #226, .F. ) ;
#39 = AXIS2_PLACEMENT_3D ( 'NONE', #116, #318, #213 ) ;
#40 = ORIENTED_EDGE ( 'NONE', *, *, #141, .F. ) ;
#41 = APPLICATION_PROTOCOL_DEFINITION ( 'international standard', 'config_control_design', 1994, #51 ) ;
#42 = PRODUCT_DEFINITION ( 'UNKNOWN', '', #184, #311 ) ;
#43 = ORIENTED_EDGE ( 'NONE', *, *, #240, .T. ) ;
#44 = ORIENTED_EDGE ( 'NONE', *, *, #37, .F. ) ;
#45 = LOCAL_TIME ( 15, 0, 49.00000000000000000, #101 ) ;
#46 = CARTESIAN_POINT ( 'NONE',  ( 0.000000000000000000, 10.00000000000000000, 0.000000000000000000 ) ) ;
#47 = DIRECTION ( 'NONE',  ( 0.000000000000000000, 0.000000000000000000, 1.000000000000000000 ) ) ;
#48 = DIRECTION ( 'NONE',  ( 0.000000000000000000, 0.000000000000000000, 1.000000000000000000 ) ) ;
#49 = AXIS2_PLACEMENT_3D ( 'NONE', #46, #134, #23 ) ;
#50 = CIRCLE ( 'NONE', #39, 4.549999999999999822 ) ;
#51 = APPLICATION_CONTEXT ( 'configuration controlled 3d designs of mechanical parts and assemblies' ) ;
#52 = DIRECTION ( 'NONE',  ( -0.000000000000000000, -1.000000000000000000, -0.000000000000000000 ) ) ;
#53 = CC_DESIGN_PERSON_AND_ORGANIZATION_ASSIGNMENT ( #96, #245, ( #260 ) ) ;
#54 = DIRECTION ( 'NONE',  ( 1.000000000000000000, 0.000000000000000000, 0.000000000000000000 ) ) ;
#55 = DIRECTION ( 'NONE',  ( -0.000000000000000000, 1.000000000000000000, -0.000000000000000000 ) ) ;
#56 = VECTOR ( 'NONE', #228, 1000.000000000000000 ) ;
#57 = AXIS2_PLACEMENT_3D ( 'NONE', #82, #289, #54 ) ;
#58 = DIRECTION ( 'NONE',  ( -0.000000000000000000, -1.000000000000000000, -0.000000000000000000 ) ) ;
#59 = DIRECTION ( 'NONE',  ( 0.000000000000000000, 1.000000000000000000, 0.000000000000000000 ) ) ;
#60 =( NAMED_UNIT ( * ) SI_UNIT ( $, .STERADIAN. ) SOLID_ANGLE_UNIT ( ) );
#61 = LOCAL_TIME ( 15, 0, 49.00000000000000000, #272 ) ;
#62 = ORIENTED_EDGE ( 'NONE', *, *, #240, .F. ) ;
#63 = VERTEX_POINT ( 'NONE', #283 ) ;
#64 = ORIENTED_EDGE ( 'NONE', *, *, #269, .F. ) ;
#65 = APPROVAL_STATUS ( 'not_yet_approved' ) ;
#66 = ORIENTED_EDGE ( 'NONE', *, *, #286, .T. ) ;
#67 = VERTEX_POINT ( 'NONE', #206 ) ;
#68 = CIRCLE ( 'NONE', #3, 2.549999999999999822 ) ;
#69 = APPROVAL_ROLE ( '' ) ;
#70 = DIRECTION ( 'NONE',  ( 0.000000000000000000, 1.000000000000000000, 0.000000000000000000 ) ) ;
#71 = EDGE_CURVE ( 'NONE', #145, #179, #110, .T. ) ;
#72 = ORIENTED_EDGE ( 'NONE', *, *, #254, .T. ) ;
#73 = PLANE ( 'NONE',  #14 ) ;
#74 = DIRECTION ( 'NONE',  ( 0.000000000000000000, -0.000000000000000000, 1.000000000000000000 ) ) ;
#75 = CIRCLE ( 'NONE', #282, 7.500000000000000000 ) ;
#76 = CARTESIAN_POINT ( 'NONE',  ( 9.184850993605147944E-16, 0.000000000000000000, 7.500000000000000000 ) ) ;
#77 = CARTESIAN_POINT ( 'NONE',  ( 3.122849337825750419E-16, 7.000000000000000000, -2.549999999999999822 ) ) ;
#78 = DIRECTION ( 'NONE',  ( -0.000000000000000000, 1.000000000000000000, -0.000000000000000000 ) ) ;
#79 = DIRECTION ( 'NONE',  ( 0.000000000000000000, 1.000000000000000000, 0.000000000000000000 ) ) ;
#80 = CC_DESIGN_DATE_AND_TIME_ASSIGNMENT ( #149, #222, ( #42 ) ) ;
#81 = CC_DESIGN_PERSON_AND_ORGANIZATION_ASSIGNMENT ( #195, #301, ( #184 ) ) ;
#82 = CARTESIAN_POINT ( 'NONE',  ( 0.000000000000000000, 0.000000000000000000, 0.000000000000000000 ) ) ;
#83 = PLANE ( 'NONE',  #214 ) ;
#84 = PERSON ( 'UNSPECIFIED', 'UNSPECIFIED', 'UNSPECIFIED', ('UNSPECIFIED'), ('UNSPECIFIED'), ('UNSPECIFIED') ) ;
#85 = DIRECTION ( 'NONE',  ( 0.000000000000000000, 0.000000000000000000, 1.000000000000000000 ) ) ;
#86 = AXIS2_PLACEMENT_3D ( 'NONE', #24, #52, #104 ) ;
#87 = CARTESIAN_POINT ( 'NONE',  ( 5.572142936120457327E-16, 10.00000000000000000, -4.549999999999999822 ) ) ;
#88 = CYLINDRICAL_SURFACE ( 'NONE', #112, 4.549999999999999822 ) ;
#89 = VERTEX_POINT ( 'NONE', #129 ) ;
#90 = EDGE_CURVE ( 'NONE', #89, #126, #193, .T. ) ;
#91 = ORIENTED_EDGE ( 'NONE', *, *, #30, .F. ) ;
#92 = VECTOR ( 'NONE', #58, 1000.000000000000000 ) ;
#93 = PERSON_AND_ORGANIZATION_ROLE ( 'creator' ) ;
#94 = ORIENTED_EDGE ( 'NONE', *, *, #197, .T. ) ;
#95 = APPROVAL_ROLE ( '' ) ;
#96 = PERSON_AND_ORGANIZATION ( #84, #169 ) ;
#97 = EDGE_CURVE ( 'NONE', #13, #324, #75, .T. ) ;
#98 = DIRECTION ( 'NONE',  ( 0.000000000000000000, 1.000000000000000000, 0.000000000000000000 ) ) ;
#99 = VECTOR ( 'NONE', #135, 1000.000000000000000 ) ;
#100 = VECTOR ( 'NONE', #317, 1000.000000000000000 ) ;
#101 = COORDINATED_UNIVERSAL_TIME_OFFSET ( 0, 0, .AHEAD. ) ;
#102 = MANIFOLD_SOLID_BREP ( 'Cut-Extrude2', #160 ) ;
#103 = CARTESIAN_POINT ( 'NONE',  ( 0.000000000000000000, 5.000000000000000000, 2.549999999999999822 ) ) ;
#104 = DIRECTION ( 'NONE',  ( 0.000000000000000000, 0.000000000000000000, -1.000000000000000000 ) ) ;
#105 = ADVANCED_FACE ( 'NONE', ( #284 ), #180, .T. ) ;
#106 = PRODUCT_DEFINITION_SHAPE ( 'NONE', 'NONE',  #42 ) ;
#107 = AXIS2_PLACEMENT_3D ( 'NONE', #258, #79, #261 ) ;
#108 = CARTESIAN_POINT ( 'NONE',  ( 0.000000000000000000, 5.000000000000000000, 0.000000000000000000 ) ) ;
#109 = FACE_OUTER_BOUND ( 'NONE', #140, .T. ) ;
#110 = LINE ( 'NONE', #158, #99 ) ;
#111 = CARTESIAN_POINT ( 'NONE',  ( 0.000000000000000000, 7.000000000000000000, 0.000000000000000000 ) ) ;
#112 = AXIS2_PLACEMENT_3D ( 'NONE', #4, #55, #6 ) ;
#113 = DIRECTION ( 'NONE',  ( 0.000000000000000000, 1.000000000000000000, 0.000000000000000000 ) ) ;
#114 = FACE_OUTER_BOUND ( 'NONE', #11, .T. ) ;
#115 = AXIS2_PLACEMENT_3D ( 'NONE', #164, #263, #236 ) ;
#116 = CARTESIAN_POINT ( 'NONE',  ( 0.000000000000000000, 10.00000000000000000, 0.000000000000000000 ) ) ;
#117 = EDGE_CURVE ( 'NONE', #324, #89, #208, .T. ) ;
#118 = ORIENTED_EDGE ( 'NONE', *, *, #97, .T. ) ;
#119 = APPROVAL_ROLE ( '' ) ;
#120 = CIRCLE ( 'NONE', #315, 7.500000000000000000 ) ;
#121 = APPROVAL_DATE_TIME ( #192, #320 ) ;
#122 = FACE_OUTER_BOUND ( 'NONE', #220, .T. ) ;
#123 = EDGE_LOOP ( 'NONE', ( #10, #298, #217, #241 ) ) ;
#124 = PERSON_AND_ORGANIZATION ( #84, #169 ) ;
#125 = VERTEX_POINT ( 'NONE', #333 ) ;
#126 = VERTEX_POINT ( 'NONE', #76 ) ;
#127 = CALENDAR_DATE ( 2025, 5, 12 ) ;
#128 = CARTESIAN_POINT ( 'NONE',  ( 0.000000000000000000, 0.000000000000000000, 0.000000000000000000 ) ) ;
#129 = CARTESIAN_POINT ( 'NONE',  ( 0.000000000000000000, 0.000000000000000000, -7.500000000000000000 ) ) ;
#130 = ADVANCED_FACE ( 'NONE', ( #232 ), #27, .F. ) ;
#131 = FACE_OUTER_BOUND ( 'NONE', #273, .T. ) ;
#132 = CARTESIAN_POINT ( 'NONE',  ( 0.000000000000000000, 7.000000000000000000, 0.000000000000000000 ) ) ;
#133 = ADVANCED_FACE ( 'NONE', ( #154 ), #288, .T. ) ;
#134 = DIRECTION ( 'NONE',  ( -0.000000000000000000, -1.000000000000000000, -0.000000000000000000 ) ) ;
#135 = DIRECTION ( 'NONE',  ( -0.000000000000000000, 1.000000000000000000, -0.000000000000000000 ) ) ;
#136 = CYLINDRICAL_SURFACE ( 'NONE', #115, 2.549999999999999822 ) ;
#137 = AXIS2_PLACEMENT_3D ( 'NONE', #281, #185, #47 ) ;
#138 = CIRCLE ( 'NONE', #251, 2.549999999999999822 ) ;
#139 = FACE_OUTER_BOUND ( 'NONE', #123, .T. ) ;
#140 = EDGE_LOOP ( 'NONE', ( #203, #323, #201, #224 ) ) ;
#141 = EDGE_CURVE ( 'NONE', #63, #248, #314, .T. ) ;
#142 =( NAMED_UNIT ( * ) PLANE_ANGLE_UNIT ( ) SI_UNIT ( $, .RADIAN. ) );
#143 = PERSON_AND_ORGANIZATION ( #84, #169 ) ;
#144 = DIRECTION ( 'NONE',  ( 0.000000000000000000, 1.000000000000000000, 0.000000000000000000 ) ) ;
#145 = VERTEX_POINT ( 'NONE', #233 ) ;
#146 = DATE_AND_TIME ( #172, #45 ) ;
#147 = ORIENTED_EDGE ( 'NONE', *, *, #90, .F. ) ;
#148 = ORIENTED_EDGE ( 'NONE', *, *, #291, .T. ) ;
#149 = DATE_AND_TIME ( #34, #296 ) ;
#150 = CARTESIAN_POINT ( 'NONE',  ( 0.000000000000000000, 10.00000000000000000, 0.000000000000000000 ) ) ;
#151 = CC_DESIGN_APPROVAL ( #279, ( #162 ) ) ;
#152 = ADVANCED_FACE ( 'NONE', ( #253, #131 ), #255, .T. ) ;
#153 = CARTESIAN_POINT ( 'NONE',  ( 0.000000000000000000, 10.00000000000000000, 0.000000000000000000 ) ) ;
#154 = FACE_OUTER_BOUND ( 'NONE', #15, .T. ) ;
#155 = DIRECTION ( 'NONE',  ( 0.000000000000000000, 1.000000000000000000, 0.000000000000000000 ) ) ;
#156 = LOCAL_TIME ( 15, 0, 49.00000000000000000, #330 ) ;
#157 = PLANE ( 'NONE',  #237 ) ;
#158 = CARTESIAN_POINT ( 'NONE',  ( 3.122849337825750419E-16, 5.000000000000000000, -2.549999999999999822 ) ) ;
#159 = APPLICATION_PROTOCOL_DEFINITION ( 'international standard', 'config_control_design', 1994, #312 ) ;
#160 = CLOSED_SHELL ( 'NONE', ( #219, #130, #133, #105, #152, #16, #332, #166, #190, #210 ) ) ;
#161 = EDGE_CURVE ( 'NONE', #145, #18, #168, .T. ) ;
#162 = SECURITY_CLASSIFICATION ( '', '', #325 ) ;
#163 = CC_DESIGN_PERSON_AND_ORGANIZATION_ASSIGNMENT ( #299, #297, ( #162 ) ) ;
#164 = CARTESIAN_POINT ( 'NONE',  ( 0.000000000000000000, 5.000000000000000000, 0.000000000000000000 ) ) ;
#165 =( LENGTH_UNIT ( ) NAMED_UNIT ( * ) SI_UNIT ( .MILLI., .METRE. ) );
#166 = ADVANCED_FACE ( 'NONE', ( #1, #310 ), #157, .T. ) ;
#167 = DIRECTION ( 'NONE',  ( 0.000000000000000000, 0.000000000000000000, 1.000000000000000000 ) ) ;
#168 = CIRCLE ( 'NONE', #199, 2.549999999999999822 ) ;
#169 = ORGANIZATION ( 'UNSPECIFIED', 'UNSPECIFIED', '' ) ;
#170 = ORIENTED_EDGE ( 'NONE', *, *, #197, .F. ) ;
#171 = CARTESIAN_POINT ( 'NONE',  ( 0.000000000000000000, 7.000000000000000000, 0.000000000000000000 ) ) ;
#172 = CALENDAR_DATE ( 2025, 5, 12 ) ;
#173 = EDGE_LOOP ( 'NONE', ( #64, #303 ) ) ;
#174 = CIRCLE ( 'NONE', #218, 4.549999999999999822 ) ;
#175 = ORIENTED_EDGE ( 'NONE', *, *, #30, .T. ) ;
#176 = APPROVAL_DATE_TIME ( #242, #279 ) ;
#177 = ADVANCED_BREP_SHAPE_REPRESENTATION ( 'punch', ( #102, #57 ), #308 ) ;
#178 = ORIENTED_EDGE ( 'NONE', *, *, #97, .F. ) ;
#179 = VERTEX_POINT ( 'NONE', #77 ) ;
#180 = CYLINDRICAL_SURFACE ( 'NONE', #49, 7.500000000000000000 ) ;
#181 = APPROVAL_PERSON_ORGANIZATION ( #277, #279, #69 ) ;
#182 = DIRECTION ( 'NONE',  ( 0.000000000000000000, 1.000000000000000000, 0.000000000000000000 ) ) ;
#183 = DIRECTION ( 'NONE',  ( 0.000000000000000000, 0.000000000000000000, 1.000000000000000000 ) ) ;
#184 = PRODUCT_DEFINITION_FORMATION_WITH_SPECIFIED_SOURCE ( 'ANY', '', #260, .NOT_KNOWN. ) ;
#185 = DIRECTION ( 'NONE',  ( -0.000000000000000000, 1.000000000000000000, -0.000000000000000000 ) ) ;
#186 = EDGE_CURVE ( 'NONE', #179, #125, #20, .T. ) ;
#187 = DIRECTION ( 'NONE',  ( 0.000000000000000000, 0.000000000000000000, 1.000000000000000000 ) ) ;
#188 = LINE ( 'NONE', #265, #22 ) ;
#189 = CARTESIAN_POINT ( 'NONE',  ( 9.184850993605147944E-16, 10.00000000000000000, 7.500000000000000000 ) ) ;
#190 = ADVANCED_FACE ( 'NONE', ( #109 ), #207, .F. ) ;
#191 = DIRECTION ( 'NONE',  ( 0.000000000000000000, 1.000000000000000000, 0.000000000000000000 ) ) ;
#192 = DATE_AND_TIME ( #17, #61 ) ;
#193 = CIRCLE ( 'NONE', #107, 7.500000000000000000 ) ;
#194 = LOCAL_TIME ( 15, 0, 49.00000000000000000, #270 ) ;
#195 = PERSON_AND_ORGANIZATION ( #84, #169 ) ;
#196 = ORIENTED_EDGE ( 'NONE', *, *, #306, .F. ) ;
#197 = EDGE_CURVE ( 'NONE', #21, #67, #7, .T. ) ;
#198 = COORDINATED_UNIVERSAL_TIME_OFFSET ( 0, 0, .AHEAD. ) ;
#199 = AXIS2_PLACEMENT_3D ( 'NONE', #108, #182, #285 ) ;
#200 = APPROVAL_PERSON_ORGANIZATION ( #274, #295, #95 ) ;
#201 = ORIENTED_EDGE ( 'NONE', *, *, #37, .T. ) ;
#202 = SHAPE_DEFINITION_REPRESENTATION ( #106, #177 ) ;
#203 = ORIENTED_EDGE ( 'NONE', *, *, #71, .F. ) ;
#204 = ORIENTED_EDGE ( 'NONE', *, *, #226, .T. ) ;
#205 = DIRECTION ( 'NONE',  ( 0.000000000000000000, 0.000000000000000000, 1.000000000000000000 ) ) ;
#206 = CARTESIAN_POINT ( 'NONE',  ( 0.000000000000000000, 7.000000000000000000, 4.549999999999999822 ) ) ;
#207 = CYLINDRICAL_SURFACE ( 'NONE', #239, 2.549999999999999822 ) ;
#208 = LINE ( 'NONE', #305, #56 ) ;
#209 = APPROVAL_PERSON_ORGANIZATION ( #143, #320, #119 ) ;
#210 = ADVANCED_FACE ( 'NONE', ( #268 ), #83, .T. ) ;
#211 = CARTESIAN_POINT ( 'NONE',  ( 0.000000000000000000, 0.000000000000000000, 0.000000000000000000 ) ) ;
#212 = DIRECTION ( 'NONE',  ( 0.000000000000000000, -0.000000000000000000, 1.000000000000000000 ) ) ;
#213 = DIRECTION ( 'NONE',  ( 0.000000000000000000, 0.000000000000000000, 1.000000000000000000 ) ) ;
#214 = AXIS2_PLACEMENT_3D ( 'NONE', #292, #191, #212 ) ;
#215 = DIRECTION ( 'NONE',  ( 0.000000000000000000, 0.000000000000000000, 1.000000000000000000 ) ) ;
#216 = DATE_AND_TIME ( #127, #194 ) ;
#217 = ORIENTED_EDGE ( 'NONE', *, *, #306, .T. ) ;
#218 = AXIS2_PLACEMENT_3D ( 'NONE', #171, #144, #328 ) ;
#219 = ADVANCED_FACE ( 'NONE', ( #114 ), #136, .F. ) ;
#220 = EDGE_LOOP ( 'NONE', ( #147, #19 ) ) ;
#221 = PERSON_AND_ORGANIZATION ( #84, #169 ) ;
#222 = DATE_TIME_ROLE ( 'creation_date' ) ;
#223 = EDGE_LOOP ( 'NONE', ( #38, #91, #244, #246 ) ) ;
#224 = ORIENTED_EDGE ( 'NONE', *, *, #269, .T. ) ;
#225 = APPROVAL_DATE_TIME ( #216, #295 ) ;
#226 = EDGE_CURVE ( 'NONE', #13, #126, #33, .T. ) ;
#227 = CARTESIAN_POINT ( 'NONE',  ( 0.000000000000000000, 5.000000000000000000, 2.549999999999999822 ) ) ;
#228 = DIRECTION ( 'NONE',  ( -0.000000000000000000, -1.000000000000000000, -0.000000000000000000 ) ) ;
#229 = DIRECTION ( 'NONE',  ( 0.000000000000000000, 1.000000000000000000, 0.000000000000000000 ) ) ;
#230 = VECTOR ( 'NONE', #35, 1000.000000000000000 ) ;
#231 = DIRECTION ( 'NONE',  ( 0.000000000000000000, -0.000000000000000000, 1.000000000000000000 ) ) ;
#232 = FACE_OUTER_BOUND ( 'NONE', #249, .T. ) ;
#233 = CARTESIAN_POINT ( 'NONE',  ( 3.122849337825750419E-16, 5.000000000000000000, -2.549999999999999822 ) ) ;
#234 = CC_DESIGN_PERSON_AND_ORGANIZATION_ASSIGNMENT ( #221, #93, ( #184 ) ) ;
#235 = DIRECTION ( 'NONE',  ( 0.000000000000000000, 1.000000000000000000, 0.000000000000000000 ) ) ;
#236 = DIRECTION ( 'NONE',  ( 0.000000000000000000, 0.000000000000000000, 1.000000000000000000 ) ) ;
#237 = AXIS2_PLACEMENT_3D ( 'NONE', #111, #26, #74 ) ;
#238 = DIRECTION ( 'NONE',  ( 0.000000000000000000, 1.000000000000000000, 0.000000000000000000 ) ) ;
#239 = AXIS2_PLACEMENT_3D ( 'NONE', #313, #78, #183 ) ;
#240 = EDGE_CURVE ( 'NONE', #248, #63, #50, .T. ) ;
#241 = ORIENTED_EDGE ( 'NONE', *, *, #141, .T. ) ;
#242 = DATE_AND_TIME ( #36, #156 ) ;
#243 = AXIS2_PLACEMENT_3D ( 'NONE', #153, #155, #205 ) ;
#244 = ORIENTED_EDGE ( 'NONE', *, *, #117, .T. ) ;
#245 = PERSON_AND_ORGANIZATION_ROLE ( 'design_owner' ) ;
#246 = ORIENTED_EDGE ( 'NONE', *, *, #90, .T. ) ;
#247 = DATE_TIME_ROLE ( 'classification_date' ) ;
#248 = VERTEX_POINT ( 'NONE', #87 ) ;
#249 = EDGE_LOOP ( 'NONE', ( #170, #72, #43, #196 ) ) ;
#250 = DIRECTION ( 'NONE',  ( 0.000000000000000000, 0.000000000000000000, 1.000000000000000000 ) ) ;
#251 = AXIS2_PLACEMENT_3D ( 'NONE', #28, #59, #85 ) ;
#252 = DIRECTION ( 'NONE',  ( 0.000000000000000000, 0.000000000000000000, 1.000000000000000000 ) ) ;
#253 = FACE_BOUND ( 'NONE', #267, .T. ) ;
#254 = EDGE_CURVE ( 'NONE', #21, #248, #29, .T. ) ;
#255 = PLANE ( 'NONE',  #256 ) ;
#256 = AXIS2_PLACEMENT_3D ( 'NONE', #25, #229, #231 ) ;
#257 = CC_DESIGN_APPROVAL ( #320, ( #42 ) ) ;
#258 = CARTESIAN_POINT ( 'NONE',  ( 0.000000000000000000, 0.000000000000000000, 0.000000000000000000 ) ) ;
#259 = CC_DESIGN_PERSON_AND_ORGANIZATION_ASSIGNMENT ( #124, #322, ( #42 ) ) ;
#260 = PRODUCT ( 'punch', 'punch', '', ( #5 ) ) ;
#261 = DIRECTION ( 'NONE',  ( 0.000000000000000000, 0.000000000000000000, 1.000000000000000000 ) ) ;
#262 = UNCERTAINTY_MEASURE_WITH_UNIT (LENGTH_MEASURE( 1.000000000000000082E-05 ), #165, 'distance_accuracy_value', 'NONE');
#263 = DIRECTION ( 'NONE',  ( -0.000000000000000000, 1.000000000000000000, -0.000000000000000000 ) ) ;
#264 = AXIS2_PLACEMENT_3D ( 'NONE', #150, #70, #250 ) ;
#265 = CARTESIAN_POINT ( 'NONE',  ( 0.000000000000000000, 7.000000000000000000, 4.549999999999999822 ) ) ;
#266 = PRODUCT_RELATED_PRODUCT_CATEGORY ( 'detail', '', ( #260 ) ) ;
#267 = EDGE_LOOP ( 'NONE', ( #40, #62 ) ) ;
#268 = FACE_OUTER_BOUND ( 'NONE', #300, .T. ) ;
#269 = EDGE_CURVE ( 'NONE', #125, #179, #68, .T. ) ;
#270 = COORDINATED_UNIVERSAL_TIME_OFFSET ( 0, 0, .AHEAD. ) ;
#271 = DIRECTION ( 'NONE',  ( 0.000000000000000000, -0.000000000000000000, 1.000000000000000000 ) ) ;
#272 = COORDINATED_UNIVERSAL_TIME_OFFSET ( 0, 0, .AHEAD. ) ;
#273 = EDGE_LOOP ( 'NONE', ( #175, #118 ) ) ;
#274 = PERSON_AND_ORGANIZATION ( #84, #169 ) ;
#275 = CC_DESIGN_APPROVAL ( #295, ( #184 ) ) ;
#276 = ORIENTED_EDGE ( 'NONE', *, *, #186, .T. ) ;
#277 = PERSON_AND_ORGANIZATION ( #84, #169 ) ;
#278 = ORIENTED_EDGE ( 'NONE', *, *, #161, .F. ) ;
#279 = APPROVAL ( #65, 'UNSPECIFIED' ) ;
#280 = CARTESIAN_POINT ( 'NONE',  ( 9.184850993605147944E-16, 10.00000000000000000, 7.500000000000000000 ) ) ;
#281 = CARTESIAN_POINT ( 'NONE',  ( 0.000000000000000000, 7.000000000000000000, 0.000000000000000000 ) ) ;
#282 = AXIS2_PLACEMENT_3D ( 'NONE', #334, #307, #48 ) ;
#283 = CARTESIAN_POINT ( 'NONE',  ( 0.000000000000000000, 10.00000000000000000, 4.549999999999999822 ) ) ;
#284 = FACE_OUTER_BOUND ( 'NONE', #223, .T. ) ;
#285 = DIRECTION ( 'NONE',  ( 0.000000000000000000, 0.000000000000000000, 1.000000000000000000 ) ) ;
#286 = EDGE_CURVE ( 'NONE', #18, #145, #138, .T. ) ;
#287 = AXIS2_PLACEMENT_3D ( 'NONE', #132, #335, #252 ) ;
#288 = CYLINDRICAL_SURFACE ( 'NONE', #86, 7.500000000000000000 ) ;
#289 = DIRECTION ( 'NONE',  ( 0.000000000000000000, 0.000000000000000000, 1.000000000000000000 ) ) ;
#290 = CARTESIAN_POINT ( 'NONE',  ( 0.000000000000000000, 10.00000000000000000, -7.500000000000000000 ) ) ;
#291 = EDGE_CURVE ( 'NONE', #126, #89, #120, .T. ) ;
#292 = CARTESIAN_POINT ( 'NONE',  ( 0.000000000000000000, 5.000000000000000000, 0.000000000000000000 ) ) ;
#293 = CC_DESIGN_DATE_AND_TIME_ASSIGNMENT ( #146, #247, ( #162 ) ) ;
#294 = CARTESIAN_POINT ( 'NONE',  ( 5.572142936120457327E-16, 7.000000000000000000, -4.549999999999999822 ) ) ;
#295 = APPROVAL ( #327, 'UNSPECIFIED' ) ;
#296 = LOCAL_TIME ( 15, 0, 49.00000000000000000, #198 ) ;
#297 = PERSON_AND_ORGANIZATION_ROLE ( 'classification_officer' ) ;
#298 = ORIENTED_EDGE ( 'NONE', *, *, #8, .F. ) ;
#299 = PERSON_AND_ORGANIZATION ( #84, #169 ) ;
#300 = EDGE_LOOP ( 'NONE', ( #66, #31 ) ) ;
#301 = PERSON_AND_ORGANIZATION_ROLE ( 'design_supplier' ) ;
#302 = CARTESIAN_POINT ( 'NONE',  ( 5.572142936120457327E-16, 7.000000000000000000, -4.549999999999999822 ) ) ;
#303 = ORIENTED_EDGE ( 'NONE', *, *, #186, .F. ) ;
#304 = ORIENTED_EDGE ( 'NONE', *, *, #8, .T. ) ;
#305 = CARTESIAN_POINT ( 'NONE',  ( 0.000000000000000000, 10.00000000000000000, -7.500000000000000000 ) ) ;
#306 = EDGE_CURVE ( 'NONE', #67, #63, #188, .T. ) ;
#307 = DIRECTION ( 'NONE',  ( 0.000000000000000000, 1.000000000000000000, 0.000000000000000000 ) ) ;
#308 =( GEOMETRIC_REPRESENTATION_CONTEXT ( 3 ) GLOBAL_UNCERTAINTY_ASSIGNED_CONTEXT ( ( #262 ) ) GLOBAL_UNIT_ASSIGNED_CONTEXT ( ( #165, #142, #60 ) ) REPRESENTATION_CONTEXT ( 'NONE', 'WORKASPACE' ) );
#309 = AXIS2_PLACEMENT_3D ( 'NONE', #316, #238, #167 ) ;
#310 = FACE_OUTER_BOUND ( 'NONE', #326, .T. ) ;
#311 = DESIGN_CONTEXT ( 'detailed design', #51, 'design' ) ;
#312 = APPLICATION_CONTEXT ( 'configuration controlled 3d designs of mechanical parts and assemblies' ) ;
#313 = CARTESIAN_POINT ( 'NONE',  ( 0.000000000000000000, 5.000000000000000000, 0.000000000000000000 ) ) ;
#314 = CIRCLE ( 'NONE', #243, 4.549999999999999822 ) ;
#315 = AXIS2_PLACEMENT_3D ( 'NONE', #211, #113, #215 ) ;
#316 = CARTESIAN_POINT ( 'NONE',  ( 0.000000000000000000, 7.000000000000000000, 0.000000000000000000 ) ) ;
#317 = DIRECTION ( 'NONE',  ( -0.000000000000000000, 1.000000000000000000, -0.000000000000000000 ) ) ;
#318 = DIRECTION ( 'NONE',  ( 0.000000000000000000, 1.000000000000000000, 0.000000000000000000 ) ) ;
#319 = DIRECTION ( 'NONE',  ( -0.000000000000000000, 1.000000000000000000, -0.000000000000000000 ) ) ;
#320 = APPROVAL ( #12, 'UNSPECIFIED' ) ;
#321 = ORIENTED_EDGE ( 'NONE', *, *, #117, .F. ) ;
#322 = PERSON_AND_ORGANIZATION_ROLE ( 'creator' ) ;
#323 = ORIENTED_EDGE ( 'NONE', *, *, #286, .F. ) ;
#324 = VERTEX_POINT ( 'NONE', #290 ) ;
#325 = SECURITY_CLASSIFICATION_LEVEL ( 'unclassified' ) ;
#326 = EDGE_LOOP ( 'NONE', ( #304, #94 ) ) ;
#327 = APPROVAL_STATUS ( 'not_yet_approved' ) ;
#328 = DIRECTION ( 'NONE',  ( 0.000000000000000000, 0.000000000000000000, 1.000000000000000000 ) ) ;
#329 = ORIENTED_EDGE ( 'NONE', *, *, #71, .T. ) ;
#330 = COORDINATED_UNIVERSAL_TIME_OFFSET ( 0, 0, .AHEAD. ) ;
#331 = LINE ( 'NONE', #103, #230 ) ;
#332 = ADVANCED_FACE ( 'NONE', ( #139 ), #88, .F. ) ;
#333 = CARTESIAN_POINT ( 'NONE',  ( 0.000000000000000000, 7.000000000000000000, 2.549999999999999822 ) ) ;
#334 = CARTESIAN_POINT ( 'NONE',  ( 0.000000000000000000, 10.00000000000000000, 0.000000000000000000 ) ) ;
#335 = DIRECTION ( 'NONE',  ( 0.000000000000000000, 1.000000000000000000, 0.000000000000000000 ) ) ;
ENDSEC;
END-ISO-10303-21;
