ISO-10303-21;
HEADER;
FILE_DESCRIPTION (( 'STEP AP203' ),
    '1' );
FILE_NAME ('punch_holder.STEP',
    '2025-12-05T15:00:03',
    ( '' ),
    ( '' ),
    '',
    '',
    '' );
FILE_SCHEMA (( 'CONFIG_CONTROL_DESIGN' ));
ENDSEC;

DATA;
#1 = CARTESIAN_POINT ( 'NONE',  ( 0.000000000000000000, 0.000000000000000000, 0.000000000000000000 ) ) ;
#2 = ADVANCED_FACE ( 'NONE', ( #312 ), #669, .F. ) ;
#3 = VERTEX_POINT ( 'NONE', #71 ) ;
#4 = DIRECTION ( 'NONE',  ( 0.000000000000000000, 0.000000000000000000, -1.000000000000000000 ) ) ;
#5 = DIRECTION ( 'NONE',  ( -1.000000000000000000, 0.000000000000000000, 0.000000000000000000 ) ) ;
#6 = EDGE_CURVE ( 'NONE', #665, #530, #23, .T. ) ;
#7 = VERTEX_POINT ( 'NONE', #15 ) ;
#8 = DIRECTION ( 'NONE',  ( 0.000000000000000000, 0.000000000000000000, -1.000000000000000000 ) ) ;
#9 = DIRECTION ( 'NONE',  ( 0.000000000000000000, 0.000000000000000000, 1.000000000000000000 ) ) ;
#10 = ORIENTED_EDGE ( 'NONE', *, *, #718, .F. ) ;
#11 = CARTESIAN_POINT ( 'NONE',  ( 7.470345474798856265E-16, 3.500000000000000000, -6.100000000000001421 ) ) ;
#12 = CIRCLE ( 'NONE', #315, 2.549999999999999822 ) ;
#13 = AXIS2_PLACEMENT_3D ( 'NONE', #515, #410, #297 ) ;
#14 = FACE_BOUND ( 'NONE', #28, .T. ) ;
#15 = CARTESIAN_POINT ( 'NONE',  ( 3.122849337825750419E-16, 2.000000000000000000, 2.549999999999999822 ) ) ;
#16 = CARTESIAN_POINT ( 'NONE',  ( 0.000000000000000000, 5.000000000000000000, 0.000000000000000000 ) ) ;
#17 = EDGE_CURVE ( 'NONE', #151, #3, #610, .T. ) ;
#18 = DIRECTION ( 'NONE',  ( 0.000000000000000000, 0.000000000000000000, 1.000000000000000000 ) ) ;
#19 = APPLICATION_CONTEXT ( 'configuration controlled 3d designs of mechanical parts and assemblies' ) ;
#20 = ORIENTED_EDGE ( 'NONE', *, *, #41, .T. ) ;
#21 = CARTESIAN_POINT ( 'NONE',  ( 0.000000000000000000, 0.9999999999999974465, 0.000000000000000000 ) ) ;
#22 = DIRECTION ( 'NONE',  ( -0.000000000000000000, -1.000000000000000000, -0.000000000000000000 ) ) ;
#23 = LINE ( 'NONE', #715, #367 ) ;
#24 = MANIFOLD_SOLID_BREP ( 'Cut-Extrude4', #721 ) ;
#25 = DIRECTION ( 'NONE',  ( 0.000000000000000000, -1.000000000000000000, 0.000000000000000000 ) ) ;
#26 = CARTESIAN_POINT ( 'NONE',  ( 0.000000000000000000, 53.00000000000000000, 0.000000000000000000 ) ) ;
#27 = ADVANCED_FACE ( 'NONE', ( #668 ), #686, .T. ) ;
#28 = EDGE_LOOP ( 'NONE', ( #105, #221 ) ) ;
#29 = DIRECTION ( 'NONE',  ( 0.000000000000000000, 0.000000000000000000, -1.000000000000000000 ) ) ;
#30 = EDGE_CURVE ( 'NONE', #536, #589, #73, .T. ) ;
#31 = PERSON_AND_ORGANIZATION_ROLE ( 'design_owner' ) ;
#32 = ORIENTED_EDGE ( 'NONE', *, *, #117, .F. ) ;
#33 = CARTESIAN_POINT ( 'NONE',  ( 0.000000000000000000, 55.00000000000000000, 0.000000000000000000 ) ) ;
#34 = EDGE_LOOP ( 'NONE', ( #638, #641 ) ) ;
#35 = CYLINDRICAL_SURFACE ( 'NONE', #522, 0.5999999999999998668 ) ;
#36 = APPROVAL_DATE_TIME ( #763, #700 ) ;
#37 = AXIS2_PLACEMENT_3D ( 'NONE', #512, #759, #218 ) ;
#38 = CC_DESIGN_APPROVAL ( #667, ( #333 ) ) ;
#39 = PERSON_AND_ORGANIZATION_ROLE ( 'design_supplier' ) ;
#40 = ORIENTED_EDGE ( 'NONE', *, *, #425, .T. ) ;
#41 = EDGE_CURVE ( 'NONE', #178, #298, #177, .T. ) ;
#42 = CARTESIAN_POINT ( 'NONE',  ( 0.000000000000000000, 2.000000000000001776, 0.000000000000000000 ) ) ;
#43 = PERSON_AND_ORGANIZATION ( #60, #139 ) ;
#44 = VERTEX_POINT ( 'NONE', #360 ) ;
#45 = DIRECTION ( 'NONE',  ( 0.000000000000000000, -1.000000000000000000, 0.000000000000000000 ) ) ;
#46 = COORDINATED_UNIVERSAL_TIME_OFFSET ( 0, 0, .AHEAD. ) ;
#47 = EDGE_LOOP ( 'NONE', ( #511, #743 ) ) ;
#48 = DIRECTION ( 'NONE',  ( -0.000000000000000000, 1.000000000000000000, -0.000000000000000000 ) ) ;
#49 = TOROIDAL_SURFACE ( 'NONE', #183, 6.100000000000001421, 0.5000000000000000000 ) ;
#50 = CIRCLE ( 'NONE', #586, 0.5999999999999998668 ) ;
#51 = VERTEX_POINT ( 'NONE', #352 ) ;
#52 = CARTESIAN_POINT ( 'NONE',  ( 0.000000000000000000, 53.00000000000000000, 0.000000000000000000 ) ) ;
#53 = DIRECTION ( 'NONE',  ( 0.000000000000000000, -1.000000000000000000, 0.000000000000000000 ) ) ;
#54 = ORIENTED_EDGE ( 'NONE', *, *, #494, .F. ) ;
#55 = DIRECTION ( 'NONE',  ( -0.000000000000000000, -1.000000000000000000, -0.000000000000000000 ) ) ;
#56 = DIRECTION ( 'NONE',  ( 0.000000000000000000, 0.000000000000000000, -1.000000000000000000 ) ) ;
#57 = VERTEX_POINT ( 'NONE', #526 ) ;
#58 = CARTESIAN_POINT ( 'NONE',  ( 0.000000000000000000, 55.00000000000000000, 0.000000000000000000 ) ) ;
#59 = EDGE_CURVE ( 'NONE', #96, #151, #598, .T. ) ;
#60 = PERSON ( 'UNSPECIFIED', 'UNSPECIFIED', 'UNSPECIFIED', ('UNSPECIFIED'), ('UNSPECIFIED'), ('UNSPECIFIED') ) ;
#61 = ORIENTED_EDGE ( 'NONE', *, *, #319, .F. ) ;
#62 = DIRECTION ( 'NONE',  ( 0.000000000000000000, 0.000000000000000000, 1.000000000000000000 ) ) ;
#63 = VECTOR ( 'NONE', #608, 1000.000000000000000 ) ;
#64 = ADVANCED_FACE ( 'NONE', ( #300, #663 ), #772, .T. ) ;
#65 = ORIENTED_EDGE ( 'NONE', *, *, #618, .T. ) ;
#66 = CARTESIAN_POINT ( 'NONE',  ( 0.000000000000000000, 5.000000000000000000, 0.000000000000000000 ) ) ;
#67 = FACE_BOUND ( 'NONE', #34, .T. ) ;
#68 = ORIENTED_EDGE ( 'NONE', *, *, #392, .T. ) ;
#69 = CARTESIAN_POINT ( 'NONE',  ( 0.000000000000000000, 2.000000000000001776, -0.5999999999999998668 ) ) ;
#70 = CARTESIAN_POINT ( 'NONE',  ( 0.000000000000000000, 0.000000000000000000, 0.000000000000000000 ) ) ;
#71 = CARTESIAN_POINT ( 'NONE',  ( 2.449293598294706119E-15, 0.9999999999999974465, 19.99999999999999645 ) ) ;
#72 = DIRECTION ( 'NONE',  ( -0.000000000000000000, -1.000000000000000000, -0.000000000000000000 ) ) ;
#73 = CIRCLE ( 'NONE', #647, 0.5000000000000004441 ) ;
#74 = AXIS2_PLACEMENT_3D ( 'NONE', #629, #330, #279 ) ;
#75 = FACE_OUTER_BOUND ( 'NONE', #655, .T. ) ;
#76 = AXIS2_PLACEMENT_3D ( 'NONE', #745, #761, #693 ) ;
#77 = EDGE_LOOP ( 'NONE', ( #266, #40 ) ) ;
#78 = DIRECTION ( 'NONE',  ( 0.000000000000000000, 0.000000000000000000, -1.000000000000000000 ) ) ;
#79 = CARTESIAN_POINT ( 'NONE',  ( 0.000000000000000000, 3.000000000000000000, 6.600000000000000533 ) ) ;
#80 = ORIENTED_EDGE ( 'NONE', *, *, #458, .T. ) ;
#81 = CARTESIAN_POINT ( 'NONE',  ( 0.000000000000000000, 0.9999999999999974465, 19.99999999999999645 ) ) ;
#82 = EDGE_CURVE ( 'NONE', #644, #214, #723, .T. ) ;
#83 = CARTESIAN_POINT ( 'NONE',  ( 0.000000000000000000, 2.000000000000000000, 0.000000000000000000 ) ) ;
#84 = DIRECTION ( 'NONE',  ( 8.659560562354914369E-17, -0.7071067811865490160, 0.7071067811865460184 ) ) ;
#85 = ORIENTED_EDGE ( 'NONE', *, *, #412, .T. ) ;
#86 = DIRECTION ( 'NONE',  ( 0.000000000000000000, 1.000000000000000000, 0.000000000000000000 ) ) ;
#87 = CIRCLE ( 'NONE', #111, 4.999999999999999112 ) ;
#88 = AXIS2_PLACEMENT_3D ( 'NONE', #617, #738, #133 ) ;
#89 = CARTESIAN_POINT ( 'NONE',  ( 0.000000000000000000, 30.00000000000000000, 0.000000000000000000 ) ) ;
#90 = VERTEX_POINT ( 'NONE', #244 ) ;
#91 = DIRECTION ( 'NONE',  ( 0.000000000000000000, -1.000000000000000000, 0.000000000000000000 ) ) ;
#92 = APPROVAL_ROLE ( '' ) ;
#93 = VERTEX_POINT ( 'NONE', #289 ) ;
#94 = CARTESIAN_POINT ( 'NONE',  ( 0.000000000000000000, 54.00000000000000711, 0.000000000000000000 ) ) ;
#95 = EDGE_CURVE ( 'NONE', #710, #57, #545, .T. ) ;
#96 = VERTEX_POINT ( 'NONE', #348 ) ;
#97 = CARTESIAN_POINT ( 'NONE',  ( 0.000000000000000000, 55.00000000000000000, 0.000000000000000000 ) ) ;
#98 = CIRCLE ( 'NONE', #636, 2.549999999999999822 ) ;
#99 = CIRCLE ( 'NONE', #687, 4.500000000000000000 ) ;
#100 = AXIS2_PLACEMENT_3D ( 'NONE', #435, #72, #191 ) ;
#101 = APPROVAL_ROLE ( '' ) ;
#102 = ORIENTED_EDGE ( 'NONE', *, *, #30, .T. ) ;
#103 = CARTESIAN_POINT ( 'NONE',  ( 3.122849337825750419E-16, 2.000000000000000000, 2.549999999999999822 ) ) ;
#104 = SHAPE_DEFINITION_REPRESENTATION ( #624, #127 ) ;
#105 = ORIENTED_EDGE ( 'NONE', *, *, #407, .T. ) ;
#106 = FACE_OUTER_BOUND ( 'NONE', #273, .T. ) ;
#107 = ADVANCED_FACE ( 'NONE', ( #479 ), #717, .F. ) ;
#108 = ORIENTED_EDGE ( 'NONE', *, *, #30, .F. ) ;
#109 = CARTESIAN_POINT ( 'NONE',  ( 0.000000000000000000, 53.00000000000000000, 0.000000000000000000 ) ) ;
#110 = ADVANCED_FACE ( 'NONE', ( #67, #709 ), #116, .T. ) ;
#111 = AXIS2_PLACEMENT_3D ( 'NONE', #255, #487, #140 ) ;
#112 = AXIS2_PLACEMENT_3D ( 'NONE', #109, #172, #531 ) ;
#113 = ORIENTED_EDGE ( 'NONE', *, *, #355, .F. ) ;
#114 = VECTOR ( 'NONE', #485, 1000.000000000000000 ) ;
#115 = CARTESIAN_POINT ( 'NONE',  ( 0.000000000000000000, 3.000000000000000000, 0.000000000000000000 ) ) ;
#116 = PLANE ( 'NONE',  #661 ) ;
#117 = EDGE_CURVE ( 'NONE', #569, #589, #341, .T. ) ;
#118 = VERTEX_POINT ( 'NONE', #551 ) ;
#119 = CARTESIAN_POINT ( 'NONE',  ( 0.000000000000000000, 3.500000000000000000, 6.600000000000000533 ) ) ;
#120 = CARTESIAN_POINT ( 'NONE',  ( 0.000000000000000000, 5.000000000000000000, -19.99999999999999645 ) ) ;
#121 = ADVANCED_FACE ( 'NONE', ( #436 ), #671, .F. ) ;
#122 = ORIENTED_EDGE ( 'NONE', *, *, #17, .T. ) ;
#123 = CARTESIAN_POINT ( 'NONE',  ( 0.000000000000000000, 3.500000000000003109, 0.000000000000000000 ) ) ;
#124 = AXIS2_PLACEMENT_3D ( 'NONE', #539, #474, #234 ) ;
#125 = DIRECTION ( 'NONE',  ( 0.000000000000000000, 0.000000000000000000, 1.000000000000000000 ) ) ;
#126 = APPROVAL_PERSON_ORGANIZATION ( #502, #667, #101 ) ;
#127 = ADVANCED_BREP_SHAPE_REPRESENTATION ( 'punch_holder', ( #24, #712 ), #264 ) ;
#128 = EDGE_LOOP ( 'NONE', ( #321, #370 ) ) ;
#129 = CARTESIAN_POINT ( 'NONE',  ( 0.000000000000000000, 54.00000000000000711, -4.500000000000000000 ) ) ;
#130 = CARTESIAN_POINT ( 'NONE',  ( 0.000000000000000000, 3.000000000000000000, 0.000000000000000000 ) ) ;
#131 = ADVANCED_FACE ( 'NONE', ( #265 ), #363, .F. ) ;
#132 = ORIENTED_EDGE ( 'NONE', *, *, #359, .F. ) ;
#133 = DIRECTION ( 'NONE',  ( 0.000000000000000000, 0.000000000000000000, 1.000000000000000000 ) ) ;
#134 = LINE ( 'NONE', #205, #776 ) ;
#135 = ORIENTED_EDGE ( 'NONE', *, *, #402, .F. ) ;
#136 = UNCERTAINTY_MEASURE_WITH_UNIT (LENGTH_MEASURE( 1.000000000000000082E-05 ), #631, 'distance_accuracy_value', 'NONE');
#137 = DIRECTION ( 'NONE',  ( 0.000000000000000000, 0.000000000000000000, 1.000000000000000000 ) ) ;
#138 = CIRCLE ( 'NONE', #74, 2.549999999999999822 ) ;
#139 = ORGANIZATION ( 'UNSPECIFIED', 'UNSPECIFIED', '' ) ;
#140 = DIRECTION ( 'NONE',  ( 0.000000000000000000, 0.000000000000000000, 1.000000000000000000 ) ) ;
#141 = LOCAL_TIME ( 15, 0, 3.000000000000000000, #326 ) ;
#142 = ORIENTED_EDGE ( 'NONE', *, *, #677, .F. ) ;
#143 = EDGE_CURVE ( 'NONE', #90, #658, #468, .T. ) ;
#144 = DIRECTION ( 'NONE',  ( 0.000000000000000000, 0.000000000000000000, 1.000000000000000000 ) ) ;
#145 = PLANE ( 'NONE',  #454 ) ;
#146 = CARTESIAN_POINT ( 'NONE',  ( 6.123233995736765296E-16, 3.500000000000003109, -4.999999999999999112 ) ) ;
#147 = EDGE_CURVE ( 'NONE', #184, #644, #134, .T. ) ;
#148 = ORIENTED_EDGE ( 'NONE', *, *, #95, .F. ) ;
#149 = DIRECTION ( 'NONE',  ( 0.000000000000000000, 0.000000000000000000, 1.000000000000000000 ) ) ;
#150 = DIRECTION ( 'NONE',  ( -0.000000000000000000, -1.000000000000000000, -0.000000000000000000 ) ) ;
#151 = VERTEX_POINT ( 'NONE', #259 ) ;
#152 = CARTESIAN_POINT ( 'NONE',  ( 8.082668874372532006E-16, 3.000000000000000000, -6.600000000000000533 ) ) ;
#153 = VECTOR ( 'NONE', #399, 1000.000000000000000 ) ;
#154 = AXIS2_PLACEMENT_3D ( 'NONE', #388, #162, #169 ) ;
#155 = AXIS2_PLACEMENT_3D ( 'NONE', #683, #150, #627 ) ;
#156 = DIRECTION ( 'NONE',  ( 0.000000000000000000, -1.000000000000000000, 0.000000000000000000 ) ) ;
#157 = ORIENTED_EDGE ( 'NONE', *, *, #147, .F. ) ;
#158 = DIRECTION ( 'NONE',  ( 0.000000000000000000, 0.000000000000000000, 1.000000000000000000 ) ) ;
#159 = EDGE_CURVE ( 'NONE', #93, #7, #98, .T. ) ;
#160 = APPROVAL_DATE_TIME ( #442, #667 ) ;
#161 = ORIENTED_EDGE ( 'NONE', *, *, #696, .T. ) ;
#162 = DIRECTION ( 'NONE',  ( 0.000000000000000000, 1.000000000000000000, 0.000000000000000000 ) ) ;
#163 = ORIENTED_EDGE ( 'NONE', *, *, #117, .T. ) ;
#164 = DIRECTION ( 'NONE',  ( 0.000000000000000000, 0.000000000000000000, -1.000000000000000000 ) ) ;
#165 = AXIS2_PLACEMENT_3D ( 'NONE', #525, #55, #8 ) ;
#166 = DIRECTION ( 'NONE',  ( 0.000000000000000000, -0.000000000000000000, -1.000000000000000000 ) ) ;
#167 = EDGE_CURVE ( 'NONE', #530, #672, #293, .T. ) ;
#168 = ORIENTED_EDGE ( 'NONE', *, *, #143, .F. ) ;
#169 = DIRECTION ( 'NONE',  ( 0.000000000000000000, 0.000000000000000000, 1.000000000000000000 ) ) ;
#170 = ORIENTED_EDGE ( 'NONE', *, *, #756, .F. ) ;
#171 = ORIENTED_EDGE ( 'NONE', *, *, #660, .F. ) ;
#172 = DIRECTION ( 'NONE',  ( 0.000000000000000000, 1.000000000000000000, 0.000000000000000000 ) ) ;
#173 = AXIS2_PLACEMENT_3D ( 'NONE', #643, #578, #635 ) ;
#174 = VERTEX_POINT ( 'NONE', #739 ) ;
#175 = CIRCLE ( 'NONE', #88, 6.100000000000001421 ) ;
#176 = DIRECTION ( 'NONE',  ( 0.000000000000000000, 1.000000000000000000, 0.000000000000000000 ) ) ;
#177 = LINE ( 'NONE', #654, #417 ) ;
#178 = VERTEX_POINT ( 'NONE', #493 ) ;
#179 = DIRECTION ( 'NONE',  ( 0.000000000000000000, 1.000000000000000000, 0.000000000000000000 ) ) ;
#180 = DIRECTION ( 'NONE',  ( 0.000000000000000000, 0.000000000000000000, -1.000000000000000000 ) ) ;
#181 = ORIENTED_EDGE ( 'NONE', *, *, #59, .T. ) ;
#182 = FACE_OUTER_BOUND ( 'NONE', #777, .T. ) ;
#183 = AXIS2_PLACEMENT_3D ( 'NONE', #730, #86, #734 ) ;
#184 = VERTEX_POINT ( 'NONE', #380 ) ;
#185 = AXIS2_PLACEMENT_3D ( 'NONE', #401, #416, #347 ) ;
#186 = DIRECTION ( 'NONE',  ( 1.224646799147351482E-16, 0.000000000000000000, -1.000000000000000000 ) ) ;
#187 = EDGE_CURVE ( 'NONE', #704, #118, #441, .T. ) ;
#188 = AXIS2_PLACEMENT_3D ( 'NONE', #58, #291, #423 ) ;
#189 = LOCAL_TIME ( 15, 0, 3.000000000000000000, #516 ) ;
#190 = ORIENTED_EDGE ( 'NONE', *, *, #708, .T. ) ;
#191 = DIRECTION ( 'NONE',  ( 0.000000000000000000, 0.000000000000000000, 1.000000000000000000 ) ) ;
#192 = CARTESIAN_POINT ( 'NONE',  ( 0.000000000000000000, 53.00000000000000000, 2.549999999999999822 ) ) ;
#193 = VERTEX_POINT ( 'NONE', #192 ) ;
#194 = LINE ( 'NONE', #81, #114 ) ;
#195 = DIRECTION ( 'NONE',  ( 0.000000000000000000, -0.000000000000000000, -1.000000000000000000 ) ) ;
#196 = ADVANCED_FACE ( 'NONE', ( #75 ), #49, .F. ) ;
#197 = EDGE_LOOP ( 'NONE', ( #732, #565, #256, #697 ) ) ;
#198 = DIRECTION ( 'NONE',  ( 1.224646799147351482E-16, 0.000000000000000000, -1.000000000000000000 ) ) ;
#199 = TOROIDAL_SURFACE ( 'NONE', #637, 6.100000000000001421, 0.5000000000000000000 ) ;
#200 = DIRECTION ( 'NONE',  ( 0.000000000000000000, 0.000000000000000000, 1.000000000000000000 ) ) ;
#201 = APPROVAL ( #513, 'UNSPECIFIED' ) ;
#202 = CARTESIAN_POINT ( 'NONE',  ( 0.000000000000000000, 53.00000000000000000, 2.549999999999999822 ) ) ;
#203 = FACE_OUTER_BOUND ( 'NONE', #770, .T. ) ;
#204 = ORIENTED_EDGE ( 'NONE', *, *, #677, .T. ) ;
#205 = CARTESIAN_POINT ( 'NONE',  ( 0.000000000000000000, 55.00000000000000000, -3.500000000000010214 ) ) ;
#206 = CALENDAR_DATE ( 2025, 5, 12 ) ;
#207 = ORIENTED_EDGE ( 'NONE', *, *, #696, .F. ) ;
#208 = ADVANCED_FACE ( 'NONE', ( #267, #14 ), #145, .T. ) ;
#209 = DIRECTION ( 'NONE',  ( 0.000000000000000000, 0.000000000000000000, 1.000000000000000000 ) ) ;
#210 = TOROIDAL_SURFACE ( 'NONE', #185, 4.999999999999999112, 0.5000000000000000000 ) ;
#211 = AXIS2_PLACEMENT_3D ( 'NONE', #666, #726, #309 ) ;
#212 = CC_DESIGN_SECURITY_CLASSIFICATION ( #225, ( #724 ) ) ;
#213 = PERSON_AND_ORGANIZATION_ROLE ( 'creator' ) ;
#214 = VERTEX_POINT ( 'NONE', #308 ) ;
#215 = DIRECTION ( 'NONE',  ( -1.000000000000000000, 0.000000000000000000, 0.000000000000000000 ) ) ;
#216 = COORDINATED_UNIVERSAL_TIME_OFFSET ( 0, 0, .AHEAD. ) ;
#217 = ORIENTED_EDGE ( 'NONE', *, *, #684, .T. ) ;
#218 = DIRECTION ( 'NONE',  ( 0.000000000000000000, 0.000000000000000000, -1.000000000000000000 ) ) ;
#219 = EDGE_CURVE ( 'NONE', #193, #174, #12, .T. ) ;
#220 = PLANE ( 'NONE',  #508 ) ;
#221 = ORIENTED_EDGE ( 'NONE', *, *, #167, .T. ) ;
#222 = CARTESIAN_POINT ( 'NONE',  ( 0.000000000000000000, 55.00000000000000000, 0.000000000000000000 ) ) ;
#223 = AXIS2_PLACEMENT_3D ( 'NONE', #535, #475, #470 ) ;
#224 = CIRCLE ( 'NONE', #444, 6.100000000000001421 ) ;
#225 = SECURITY_CLASSIFICATION ( '', '', #757 ) ;
#226 = CC_DESIGN_PERSON_AND_ORGANIZATION_ASSIGNMENT ( #580, #281, ( #225 ) ) ;
#227 = DATE_TIME_ROLE ( 'classification_date' ) ;
#228 = EDGE_LOOP ( 'NONE', ( #54, #438, #448, #207 ) ) ;
#229 = DIRECTION ( 'NONE',  ( 0.000000000000000000, 1.000000000000000000, 0.000000000000000000 ) ) ;
#230 = ORIENTED_EDGE ( 'NONE', *, *, #319, .T. ) ;
#231 = DIRECTION ( 'NONE',  ( 0.000000000000000000, 0.000000000000000000, 1.000000000000000000 ) ) ;
#232 = DIRECTION ( 'NONE',  ( -0.000000000000000000, -1.000000000000000000, -0.000000000000000000 ) ) ;
#233 = EDGE_LOOP ( 'NONE', ( #632, #170, #190, #480 ) ) ;
#234 = DIRECTION ( 'NONE',  ( 0.000000000000000000, 0.000000000000000000, 1.000000000000000000 ) ) ;
#235 = ADVANCED_FACE ( 'NONE', ( #376 ), #727, .F. ) ;
#236 = AXIS2_PLACEMENT_3D ( 'NONE', #1, #342, #601 ) ;
#237 = CIRCLE ( 'NONE', #154, 19.99999999999999645 ) ;
#238 = CIRCLE ( 'NONE', #650, 4.500000000000000000 ) ;
#239 = ORIENTED_EDGE ( 'NONE', *, *, #554, .F. ) ;
#240 = CARTESIAN_POINT ( 'NONE',  ( 0.000000000000000000, 55.00000000000000000, 0.000000000000000000 ) ) ;
#241 = CARTESIAN_POINT ( 'NONE',  ( 0.000000000000000000, 3.500000000000000000, 0.000000000000000000 ) ) ;
#242 = ORIENTED_EDGE ( 'NONE', *, *, #498, .T. ) ;
#243 = LINE ( 'NONE', #716, #418 ) ;
#244 = CARTESIAN_POINT ( 'NONE',  ( 0.000000000000000000, 5.000000000000000000, 6.600000000000000533 ) ) ;
#245 = ADVANCED_FACE ( 'NONE', ( #558, #203 ), #622, .F. ) ;
#246 = ORIENTED_EDGE ( 'NONE', *, *, #280, .F. ) ;
#247 = LINE ( 'NONE', #421, #63 ) ;
#248 = CARTESIAN_POINT ( 'NONE',  ( 0.000000000000000000, 3.500000000000000000, 6.100000000000001421 ) ) ;
#249 = AXIS2_PLACEMENT_3D ( 'NONE', #33, #691, #582 ) ;
#250 = EDGE_CURVE ( 'NONE', #118, #704, #87, .T. ) ;
#251 = EDGE_LOOP ( 'NONE', ( #430, #324, #400, #361 ) ) ;
#252 = CIRCLE ( 'NONE', #331, 3.500000000000010214 ) ;
#253 = DIRECTION ( 'NONE',  ( -0.000000000000000000, -1.000000000000000000, -0.000000000000000000 ) ) ;
#254 = APPROVAL_PERSON_ORGANIZATION ( #461, #700, #338 ) ;
#255 = CARTESIAN_POINT ( 'NONE',  ( 0.000000000000000000, 3.000000000000000000, 0.000000000000000000 ) ) ;
#256 = ORIENTED_EDGE ( 'NONE', *, *, #613, .T. ) ;
#257 = DIRECTION ( 'NONE',  ( -0.000000000000000000, 1.000000000000000000, -0.000000000000000000 ) ) ;
#258 = CYLINDRICAL_SURFACE ( 'NONE', #779, 19.99999999999999645 ) ;
#259 = CARTESIAN_POINT ( 'NONE',  ( 0.000000000000000000, 0.9999999999999974465, -19.99999999999999645 ) ) ;
#260 = EDGE_CURVE ( 'NONE', #589, #90, #615, .T. ) ;
#261 = AXIS2_PLACEMENT_3D ( 'NONE', #364, #556, #607 ) ;
#262 = CARTESIAN_POINT ( 'NONE',  ( 0.000000000000000000, 2.000000000000000000, -2.549999999999999822 ) ) ;
#263 = CIRCLE ( 'NONE', #572, 6.600000000000000533 ) ;
#264 =( GEOMETRIC_REPRESENTATION_CONTEXT ( 3 ) GLOBAL_UNCERTAINTY_ASSIGNED_CONTEXT ( ( #136 ) ) GLOBAL_UNIT_ASSIGNED_CONTEXT ( ( #631, #640, #320 ) ) REPRESENTATION_CONTEXT ( 'NONE', 'WORKASPACE' ) );
#265 = FACE_OUTER_BOUND ( 'NONE', #390, .T. ) ;
#266 = ORIENTED_EDGE ( 'NONE', *, *, #280, .T. ) ;
#267 = FACE_OUTER_BOUND ( 'NONE', #773, .T. ) ;
#268 = EDGE_CURVE ( 'NONE', #374, #719, #623, .T. ) ;
#269 = APPLICATION_PROTOCOL_DEFINITION ( 'international standard', 'config_control_design', 1994, #19 ) ;
#270 = ORIENTED_EDGE ( 'NONE', *, *, #684, .F. ) ;
#271 = DIRECTION ( 'NONE',  ( 0.000000000000000000, 0.000000000000000000, 1.000000000000000000 ) ) ;
#272 = CARTESIAN_POINT ( 'NONE',  ( 0.000000000000000000, 0.000000000000000000, 0.000000000000000000 ) ) ;
#273 = EDGE_LOOP ( 'NONE', ( #339, #217 ) ) ;
#274 = AXIS2_PLACEMENT_3D ( 'NONE', #651, #465, #56 ) ;
#275 = DIRECTION ( 'NONE',  ( -0.000000000000000000, -1.000000000000000000, -0.000000000000000000 ) ) ;
#276 = AXIS2_PLACEMENT_3D ( 'NONE', #656, #358, #287 ) ;
#277 = CARTESIAN_POINT ( 'NONE',  ( 2.388061258337338150E-15, 0.000000000000000000, -18.99999999999999645 ) ) ;
#278 = CALENDAR_DATE ( 2025, 5, 12 ) ;
#279 = DIRECTION ( 'NONE',  ( 0.000000000000000000, 0.000000000000000000, -1.000000000000000000 ) ) ;
#280 = EDGE_CURVE ( 'NONE', #184, #599, #284, .T. ) ;
#281 = PERSON_AND_ORGANIZATION_ROLE ( 'classification_officer' ) ;
#282 = ORIENTED_EDGE ( 'NONE', *, *, #167, .F. ) ;
#283 = DIRECTION ( 'NONE',  ( -0.000000000000000000, -1.000000000000000000, -0.000000000000000000 ) ) ;
#284 = CIRCLE ( 'NONE', #249, 3.500000000000010214 ) ;
#285 = CONICAL_SURFACE ( 'NONE', #307, 19.99999999999999645, 0.7853981633974500554 ) ;
#286 = ORIENTED_EDGE ( 'NONE', *, *, #450, .T. ) ;
#287 = DIRECTION ( 'NONE',  ( 0.000000000000000000, 0.000000000000000000, 1.000000000000000000 ) ) ;
#288 = EDGE_LOOP ( 'NONE', ( #646, #398, #68, #725 ) ) ;
#289 = CARTESIAN_POINT ( 'NONE',  ( 0.000000000000000000, 2.000000000000000000, -2.549999999999999822 ) ) ;
#290 = ORIENTED_EDGE ( 'NONE', *, *, #450, .F. ) ;
#291 = DIRECTION ( 'NONE',  ( 0.000000000000000000, -1.000000000000000000, 0.000000000000000000 ) ) ;
#292 = DIRECTION ( 'NONE',  ( 0.000000000000000000, 0.000000000000000000, 1.000000000000000000 ) ) ;
#293 = CIRCLE ( 'NONE', #735, 0.5999999999999998668 ) ;
#294 = CIRCLE ( 'NONE', #112, 2.549999999999999822 ) ;
#295 = VECTOR ( 'NONE', #84, 1000.000000000000114 ) ;
#296 = ORIENTED_EDGE ( 'NONE', *, *, #714, .T. ) ;
#297 = DIRECTION ( 'NONE',  ( 0.000000000000000000, 0.000000000000000000, 1.000000000000000000 ) ) ;
#298 = VERTEX_POINT ( 'NONE', #566 ) ;
#299 = DIRECTION ( 'NONE',  ( 0.000000000000000000, 0.000000000000000000, -1.000000000000000000 ) ) ;
#300 = FACE_BOUND ( 'NONE', #506, .T. ) ;
#301 = ADVANCED_FACE ( 'NONE', ( #570 ), #35, .F. ) ;
#302 = ORIENTED_EDGE ( 'NONE', *, *, #82, .F. ) ;
#303 = CYLINDRICAL_SURFACE ( 'NONE', #211, 0.5999999999999998668 ) ;
#304 = DIRECTION ( 'NONE',  ( 0.000000000000000000, 1.000000000000000000, 0.000000000000000000 ) ) ;
#305 = AXIS2_PLACEMENT_3D ( 'NONE', #501, #682, #428 ) ;
#306 = FACE_OUTER_BOUND ( 'NONE', #621, .T. ) ;
#307 = AXIS2_PLACEMENT_3D ( 'NONE', #550, #673, #137 ) ;
#308 = CARTESIAN_POINT ( 'NONE',  ( 0.000000000000000000, 3.500000000000003109, -4.500000000000000000 ) ) ;
#309 = DIRECTION ( 'NONE',  ( 0.000000000000000000, 0.000000000000000000, -1.000000000000000000 ) ) ;
#310 = EDGE_CURVE ( 'NONE', #174, #374, #395, .T. ) ;
#311 = DIRECTION ( 'NONE',  ( 0.000000000000000000, 0.000000000000000000, -1.000000000000000000 ) ) ;
#312 = FACE_OUTER_BOUND ( 'NONE', #228, .T. ) ;
#313 = DIRECTION ( 'NONE',  ( 1.000000000000000000, -0.000000000000000000, 1.224646799147353207E-16 ) ) ;
#314 = DIRECTION ( 'NONE',  ( 0.000000000000000000, 0.000000000000000000, 1.000000000000000000 ) ) ;
#315 = AXIS2_PLACEMENT_3D ( 'NONE', #26, #564, #200 ) ;
#316 = DIRECTION ( 'NONE',  ( -0.000000000000000000, 1.000000000000000000, -0.000000000000000000 ) ) ;
#317 = ORIENTED_EDGE ( 'NONE', *, *, #760, .T. ) ;
#318 = CARTESIAN_POINT ( 'NONE',  ( 0.000000000000000000, 2.000000000000000000, 0.000000000000000000 ) ) ;
#319 = EDGE_CURVE ( 'NONE', #569, #658, #322, .T. ) ;
#320 =( NAMED_UNIT ( * ) SI_UNIT ( $, .STERADIAN. ) SOLID_ANGLE_UNIT ( ) );
#321 = ORIENTED_EDGE ( 'NONE', *, *, #219, .T. ) ;
#322 = LINE ( 'NONE', #152, #675 ) ;
#323 = CALENDAR_DATE ( 2025, 5, 12 ) ;
#324 = ORIENTED_EDGE ( 'NONE', *, *, #368, .T. ) ;
#325 = CARTESIAN_POINT ( 'NONE',  ( 0.000000000000000000, 3.500000000000000000, 0.000000000000000000 ) ) ;
#326 = COORDINATED_UNIVERSAL_TIME_OFFSET ( 0, 0, .AHEAD. ) ;
#327 = ADVANCED_FACE ( 'NONE', ( #106, #703 ), #575, .T. ) ;
#328 = ORIENTED_EDGE ( 'NONE', *, *, #425, .F. ) ;
#329 = AXIS2_PLACEMENT_3D ( 'NONE', #555, #497, #314 ) ;
#330 = DIRECTION ( 'NONE',  ( 0.000000000000000000, -1.000000000000000000, 0.000000000000000000 ) ) ;
#331 = AXIS2_PLACEMENT_3D ( 'NONE', #97, #229, #685 ) ;
#332 = DATE_AND_TIME ( #278, #473 ) ;
#333 = PRODUCT_DEFINITION ( 'UNKNOWN', '', #724, #446 ) ;
#334 = DIRECTION ( 'NONE',  ( -0.000000000000000000, 1.000000000000000000, -0.000000000000000000 ) ) ;
#335 = DIRECTION ( 'NONE',  ( 0.000000000000000000, 0.000000000000000000, 1.000000000000000000 ) ) ;
#336 = ORIENTED_EDGE ( 'NONE', *, *, #159, .T. ) ;
#337 = DIRECTION ( 'NONE',  ( 0.000000000000000000, -0.000000000000000000, 1.000000000000000000 ) ) ;
#338 = APPROVAL_ROLE ( '' ) ;
#339 = ORIENTED_EDGE ( 'NONE', *, *, #554, .T. ) ;
#340 = CYLINDRICAL_SURFACE ( 'NONE', #736, 19.99999999999999645 ) ;
#341 = CIRCLE ( 'NONE', #699, 6.600000000000000533 ) ;
#342 = DIRECTION ( 'NONE',  ( 0.000000000000000000, -1.000000000000000000, 0.000000000000000000 ) ) ;
#343 = CIRCLE ( 'NONE', #701, 0.5000000000000004441 ) ;
#344 = EDGE_CURVE ( 'NONE', #7, #93, #138, .T. ) ;
#345 = VECTOR ( 'NONE', #316, 1000.000000000000000 ) ;
#346 = ORIENTED_EDGE ( 'NONE', *, *, #310, .F. ) ;
#347 = DIRECTION ( 'NONE',  ( 0.000000000000000000, 0.000000000000000000, 1.000000000000000000 ) ) ;
#348 = CARTESIAN_POINT ( 'NONE',  ( 0.000000000000000000, 5.000000000000000000, -19.99999999999999645 ) ) ;
#349 = CC_DESIGN_PERSON_AND_ORGANIZATION_ASSIGNMENT ( #397, #31, ( #742 ) ) ;
#350 = EDGE_LOOP ( 'NONE', ( #132, #394, #242, #690 ) ) ;
#351 = CYLINDRICAL_SURFACE ( 'NONE', #165, 4.500000000000000000 ) ;
#352 = CARTESIAN_POINT ( 'NONE',  ( 2.449293598294706119E-15, 5.000000000000000000, 19.99999999999999645 ) ) ;
#353 = ORIENTED_EDGE ( 'NONE', *, *, #41, .F. ) ;
#354 = CARTESIAN_POINT ( 'NONE',  ( 0.000000000000000000, 30.00000000000000000, -0.5999999999999998668 ) ) ;
#355 = EDGE_CURVE ( 'NONE', #589, #569, #263, .T. ) ;
#356 = AXIS2_PLACEMENT_3D ( 'NONE', #130, #490, #18 ) ;
#357 = EDGE_LOOP ( 'NONE', ( #415, #286 ) ) ;
#358 = DIRECTION ( 'NONE',  ( -0.000000000000000000, 1.000000000000000000, -0.000000000000000000 ) ) ;
#359 = EDGE_CURVE ( 'NONE', #51, #96, #237, .T. ) ;
#360 = CARTESIAN_POINT ( 'NONE',  ( 7.776507174585694135E-16, 3.000000000000000000, -6.100000000000001421 ) ) ;
#361 = ORIENTED_EDGE ( 'NONE', *, *, #613, .F. ) ;
#362 = CARTESIAN_POINT ( 'NONE',  ( 3.122849337825750419E-16, 0.000000000000000000, 2.549999999999999822 ) ) ;
#363 = CYLINDRICAL_SURFACE ( 'NONE', #329, 6.600000000000000533 ) ;
#364 = CARTESIAN_POINT ( 'NONE',  ( 0.000000000000000000, 53.00000000000000000, 0.000000000000000000 ) ) ;
#365 = LINE ( 'NONE', #202, #345 ) ;
#366 = CARTESIAN_POINT ( 'NONE',  ( 0.000000000000000000, 2.000000000000001776, 0.000000000000000000 ) ) ;
#367 = VECTOR ( 'NONE', #549, 1000.000000000000000 ) ;
#368 = EDGE_CURVE ( 'NONE', #7, #710, #768, .T. ) ;
#369 = CIRCLE ( 'NONE', #611, 0.5999999999999998668 ) ;
#370 = ORIENTED_EDGE ( 'NONE', *, *, #494, .T. ) ;
#371 = CARTESIAN_POINT ( 'NONE',  ( 0.000000000000000000, 30.00000000000000000, 0.000000000000000000 ) ) ;
#372 = CIRCLE ( 'NONE', #688, 0.5000000000000004441 ) ;
#373 = DIRECTION ( 'NONE',  ( 0.000000000000000000, -1.000000000000000000, 0.000000000000000000 ) ) ;
#374 = VERTEX_POINT ( 'NONE', #762 ) ;
#375 = CARTESIAN_POINT ( 'NONE',  ( 0.000000000000000000, 54.00000000000000711, 0.000000000000000000 ) ) ;
#376 = FACE_OUTER_BOUND ( 'NONE', #527, .T. ) ;
#377 = CARTESIAN_POINT ( 'NONE',  ( 7.347880794884117764E-17, 30.00000000000000000, 0.5999999999999998668 ) ) ;
#378 = ORIENTED_EDGE ( 'NONE', *, *, #344, .T. ) ;
#379 = EDGE_CURVE ( 'NONE', #178, #644, #99, .T. ) ;
#380 = CARTESIAN_POINT ( 'NONE',  ( 0.000000000000000000, 55.00000000000000000, -3.500000000000010214 ) ) ;
#381 = AXIS2_PLACEMENT_3D ( 'NONE', #411, #540, #9 ) ;
#382 = APPLICATION_PROTOCOL_DEFINITION ( 'international standard', 'config_control_design', 1994, #440 ) ;
#383 = VERTEX_POINT ( 'NONE', #277 ) ;
#384 = CONICAL_SURFACE ( 'NONE', #188, 3.500000000000010214, 0.7853981633974460586 ) ;
#385 = CARTESIAN_POINT ( 'NONE',  ( 3.122849337825750419E-16, 53.00000000000000000, -2.549999999999999822 ) ) ;
#386 = PRODUCT_RELATED_PRODUCT_CATEGORY ( 'detail', '', ( #742 ) ) ;
#387 = PERSON_AND_ORGANIZATION ( #60, #139 ) ;
#388 = CARTESIAN_POINT ( 'NONE',  ( 0.000000000000000000, 5.000000000000000000, 0.000000000000000000 ) ) ;
#389 = PERSON_AND_ORGANIZATION_ROLE ( 'creator' ) ;
#390 = EDGE_LOOP ( 'NONE', ( #61, #163, #462, #488 ) ) ;
#391 = DIRECTION ( 'NONE',  ( 0.000000000000000000, 0.000000000000000000, -1.000000000000000000 ) ) ;
#392 = EDGE_CURVE ( 'NONE', #298, #704, #343, .T. ) ;
#393 = DIRECTION ( 'NONE',  ( 1.000000000000000000, 0.000000000000000000, 0.000000000000000000 ) ) ;
#394 = ORIENTED_EDGE ( 'NONE', *, *, #402, .T. ) ;
#395 = LINE ( 'NONE', #385, #722 ) ;
#396 = AXIS2_PLACEMENT_3D ( 'NONE', #52, #467, #707 ) ;
#397 = PERSON_AND_ORGANIZATION ( #60, #139 ) ;
#398 = ORIENTED_EDGE ( 'NONE', *, *, #412, .F. ) ;
#399 = DIRECTION ( 'NONE',  ( -0.000000000000000000, 1.000000000000000000, -0.000000000000000000 ) ) ;
#400 = ORIENTED_EDGE ( 'NONE', *, *, #95, .T. ) ;
#401 = CARTESIAN_POINT ( 'NONE',  ( 0.000000000000000000, 3.500000000000003109, 0.000000000000000000 ) ) ;
#402 = EDGE_CURVE ( 'NONE', #51, #3, #504, .T. ) ;
#403 = ORIENTED_EDGE ( 'NONE', *, *, #392, .F. ) ;
#404 = CARTESIAN_POINT ( 'NONE',  ( 0.000000000000000000, 3.000000000000000000, 6.100000000000001421 ) ) ;
#405 = AXIS2_PLACEMENT_3D ( 'NONE', #222, #445, #748 ) ;
#406 = CARTESIAN_POINT ( 'NONE',  ( 0.000000000000000000, 55.00000000000000000, -4.500000000000000000 ) ) ;
#407 = EDGE_CURVE ( 'NONE', #672, #530, #50, .T. ) ;
#408 = AXIS2_PLACEMENT_3D ( 'NONE', #492, #733, #634 ) ;
#409 = EDGE_LOOP ( 'NONE', ( #443, #65, #758, #403 ) ) ;
#410 = DIRECTION ( 'NONE',  ( 0.000000000000000000, 1.000000000000000000, 0.000000000000000000 ) ) ;
#411 = CARTESIAN_POINT ( 'NONE',  ( 0.000000000000000000, 0.9999999999999974465, 0.000000000000000000 ) ) ;
#412 = EDGE_CURVE ( 'NONE', #298, #214, #507, .T. ) ;
#413 = ORIENTED_EDGE ( 'NONE', *, *, #498, .F. ) ;
#414 = FACE_OUTER_BOUND ( 'NONE', #754, .T. ) ;
#415 = ORIENTED_EDGE ( 'NONE', *, *, #740, .T. ) ;
#416 = DIRECTION ( 'NONE',  ( 0.000000000000000000, 1.000000000000000000, 0.000000000000000000 ) ) ;
#417 = VECTOR ( 'NONE', #588, 1000.000000000000000 ) ;
#418 = VECTOR ( 'NONE', #528, 1000.000000000000000 ) ;
#419 = AXIS2_PLACEMENT_3D ( 'NONE', #21, #257, #144 ) ;
#420 = ORIENTED_EDGE ( 'NONE', *, *, #219, .F. ) ;
#421 = CARTESIAN_POINT ( 'NONE',  ( 0.000000000000000000, 30.00000000000000000, -0.5999999999999998668 ) ) ;
#422 = ORIENTED_EDGE ( 'NONE', *, *, #714, .F. ) ;
#423 = DIRECTION ( 'NONE',  ( 0.000000000000000000, 0.000000000000000000, -1.000000000000000000 ) ) ;
#424 = DIRECTION ( 'NONE',  ( 0.000000000000000000, -1.000000000000000000, 0.000000000000000000 ) ) ;
#425 = EDGE_CURVE ( 'NONE', #599, #184, #252, .T. ) ;
#426 = ORIENTED_EDGE ( 'NONE', *, *, #756, .T. ) ;
#427 = DIRECTION ( 'NONE',  ( 1.000000000000000000, -0.000000000000000000, 1.224646799147353207E-16 ) ) ;
#428 = DIRECTION ( 'NONE',  ( 0.000000000000000000, 0.000000000000000000, 1.000000000000000000 ) ) ;
#429 = CIRCLE ( 'NONE', #560, 2.549999999999999822 ) ;
#430 = ORIENTED_EDGE ( 'NONE', *, *, #344, .F. ) ;
#431 = FACE_OUTER_BOUND ( 'NONE', #350, .T. ) ;
#432 = CC_DESIGN_APPROVAL ( #700, ( #225 ) ) ;
#433 = CARTESIAN_POINT ( 'NONE',  ( 0.000000000000000000, 5.000000000000000000, 0.000000000000000000 ) ) ;
#434 = EDGE_CURVE ( 'NONE', #57, #710, #649, .T. ) ;
#435 = CARTESIAN_POINT ( 'NONE',  ( 0.000000000000000000, 0.000000000000000000, 0.000000000000000000 ) ) ;
#436 = FACE_OUTER_BOUND ( 'NONE', #251, .T. ) ;
#437 = CC_DESIGN_DATE_AND_TIME_ASSIGNMENT ( #518, #227, ( #225 ) ) ;
#438 = ORIENTED_EDGE ( 'NONE', *, *, #310, .T. ) ;
#439 = DIRECTION ( 'NONE',  ( -0.000000000000000000, 1.000000000000000000, -0.000000000000000000 ) ) ;
#440 = APPLICATION_CONTEXT ( 'configuration controlled 3d designs of mechanical parts and assemblies' ) ;
#441 = CIRCLE ( 'NONE', #356, 4.999999999999999112 ) ;
#442 = DATE_AND_TIME ( #206, #472 ) ;
#443 = ORIENTED_EDGE ( 'NONE', *, *, #471, .F. ) ;
#444 = AXIS2_PLACEMENT_3D ( 'NONE', #115, #179, #231 ) ;
#445 = DIRECTION ( 'NONE',  ( 0.000000000000000000, 1.000000000000000000, 0.000000000000000000 ) ) ;
#446 = DESIGN_CONTEXT ( 'detailed design', #19, 'design' ) ;
#447 = APPROVAL_STATUS ( 'not_yet_approved' ) ;
#448 = ORIENTED_EDGE ( 'NONE', *, *, #268, .T. ) ;
#449 = CARTESIAN_POINT ( 'NONE',  ( 2.449293598294706119E-15, 5.000000000000000000, 19.99999999999999645 ) ) ;
#450 = EDGE_CURVE ( 'NONE', #665, #500, #369, .T. ) ;
#451 = EDGE_LOOP ( 'NONE', ( #80, #552 ) ) ;
#452 = CARTESIAN_POINT ( 'NONE',  ( 0.000000000000000000, 30.00000000000000000, 0.000000000000000000 ) ) ;
#453 = EDGE_LOOP ( 'NONE', ( #290, #466, #574, #10 ) ) ;
#454 = AXIS2_PLACEMENT_3D ( 'NONE', #318, #424, #195 ) ;
#455 = CARTESIAN_POINT ( 'NONE',  ( 0.000000000000000000, 3.500000000000003109, 4.999999999999999112 ) ) ;
#456 = AXIS2_PLACEMENT_3D ( 'NONE', #521, #755, #337 ) ;
#457 = APPROVAL_PERSON_ORGANIZATION ( #43, #201, #92 ) ;
#458 = EDGE_CURVE ( 'NONE', #96, #51, #751, .T. ) ;
#459 = ORIENTED_EDGE ( 'NONE', *, *, #471, .T. ) ;
#460 = FACE_OUTER_BOUND ( 'NONE', #288, .T. ) ;
#461 = PERSON_AND_ORGANIZATION ( #60, #139 ) ;
#462 = ORIENTED_EDGE ( 'NONE', *, *, #260, .T. ) ;
#463 = CC_DESIGN_PERSON_AND_ORGANIZATION_ASSIGNMENT ( #573, #39, ( #724 ) ) ;
#464 = FACE_OUTER_BOUND ( 'NONE', #581, .T. ) ;
#465 = DIRECTION ( 'NONE',  ( -0.000000000000000000, -1.000000000000000000, -0.000000000000000000 ) ) ;
#466 = ORIENTED_EDGE ( 'NONE', *, *, #6, .T. ) ;
#467 = DIRECTION ( 'NONE',  ( -0.000000000000000000, 1.000000000000000000, -0.000000000000000000 ) ) ;
#468 = CIRCLE ( 'NONE', #495, 6.600000000000000533 ) ;
#469 = VECTOR ( 'NONE', #275, 1000.000000000000000 ) ;
#470 = DIRECTION ( 'NONE',  ( 0.000000000000000000, -0.000000000000000000, 1.000000000000000000 ) ) ;
#471 = EDGE_CURVE ( 'NONE', #214, #298, #534, .T. ) ;
#472 = LOCAL_TIME ( 15, 0, 3.000000000000000000, #216 ) ;
#473 = LOCAL_TIME ( 15, 0, 3.000000000000000000, #689 ) ;
#474 = DIRECTION ( 'NONE',  ( 0.000000000000000000, 1.000000000000000000, 0.000000000000000000 ) ) ;
#475 = DIRECTION ( 'NONE',  ( 0.000000000000000000, 1.000000000000000000, 0.000000000000000000 ) ) ;
#476 = CC_DESIGN_PERSON_AND_ORGANIZATION_ASSIGNMENT ( #387, #389, ( #333 ) ) ;
#477 = ORIENTED_EDGE ( 'NONE', *, *, #760, .F. ) ;
#478 = CARTESIAN_POINT ( 'NONE',  ( 7.347880794884117764E-17, 2.000000000000001776, 0.5999999999999998668 ) ) ;
#479 = FACE_OUTER_BOUND ( 'NONE', #197, .T. ) ;
#480 = ORIENTED_EDGE ( 'NONE', *, *, #17, .F. ) ;
#481 = FACE_OUTER_BOUND ( 'NONE', #453, .T. ) ;
#482 = AXIS2_PLACEMENT_3D ( 'NONE', #680, #22, #744 ) ;
#483 = AXIS2_PLACEMENT_3D ( 'NONE', #146, #313, #198 ) ;
#484 = ORIENTED_EDGE ( 'NONE', *, *, #692, .F. ) ;
#485 = DIRECTION ( 'NONE',  ( 0.000000000000000000, 0.7071067811865463515, 0.7071067811865487940 ) ) ;
#486 = ADVANCED_FACE ( 'NONE', ( #711 ), #199, .F. ) ;
#487 = DIRECTION ( 'NONE',  ( -0.000000000000000000, -1.000000000000000000, -0.000000000000000000 ) ) ;
#488 = ORIENTED_EDGE ( 'NONE', *, *, #143, .T. ) ;
#489 = DIRECTION ( 'NONE',  ( -0.000000000000000000, -1.000000000000000000, -0.000000000000000000 ) ) ;
#490 = DIRECTION ( 'NONE',  ( -0.000000000000000000, -1.000000000000000000, -0.000000000000000000 ) ) ;
#491 = EDGE_LOOP ( 'NONE', ( #270, #296, #113, #108 ) ) ;
#492 = CARTESIAN_POINT ( 'NONE',  ( 0.000000000000000000, 53.00000000000000000, 0.000000000000000000 ) ) ;
#493 = CARTESIAN_POINT ( 'NONE',  ( 5.510910596163088569E-16, 54.00000000000000711, 4.500000000000000000 ) ) ;
#494 = EDGE_CURVE ( 'NONE', #174, #193, #294, .T. ) ;
#495 = AXIS2_PLACEMENT_3D ( 'NONE', #433, #544, #149 ) ;
#496 = PLANE ( 'NONE',  #408 ) ;
#497 = DIRECTION ( 'NONE',  ( -0.000000000000000000, 1.000000000000000000, -0.000000000000000000 ) ) ;
#498 = EDGE_CURVE ( 'NONE', #3, #151, #625, .T. ) ;
#499 = FACE_OUTER_BOUND ( 'NONE', #357, .T. ) ;
#500 = VERTEX_POINT ( 'NONE', #354 ) ;
#501 = CARTESIAN_POINT ( 'NONE',  ( 0.000000000000000000, 3.000000000000000000, 0.000000000000000000 ) ) ;
#502 = PERSON_AND_ORGANIZATION ( #60, #139 ) ;
#503 = EDGE_LOOP ( 'NONE', ( #584, #148 ) ) ;
#504 = LINE ( 'NONE', #449, #546 ) ;
#505 = APPROVAL_DATE_TIME ( #568, #201 ) ;
#506 = EDGE_LOOP ( 'NONE', ( #168, #477 ) ) ;
#507 = CIRCLE ( 'NONE', #173, 4.500000000000000000 ) ;
#508 = AXIS2_PLACEMENT_3D ( 'NONE', #89, #156, #166 ) ;
#509 = DIRECTION ( 'NONE',  ( -0.000000000000000000, 1.000000000000000000, -0.000000000000000000 ) ) ;
#510 = APPROVAL_STATUS ( 'not_yet_approved' ) ;
#511 = ORIENTED_EDGE ( 'NONE', *, *, #187, .T. ) ;
#512 = CARTESIAN_POINT ( 'NONE',  ( 0.000000000000000000, 0.000000000000000000, 0.000000000000000000 ) ) ;
#513 = APPROVAL_STATUS ( 'not_yet_approved' ) ;
#514 = EDGE_LOOP ( 'NONE', ( #135, #538, #181, #122 ) ) ;
#515 = CARTESIAN_POINT ( 'NONE',  ( 0.000000000000000000, 5.000000000000000000, 0.000000000000000000 ) ) ;
#516 = COORDINATED_UNIVERSAL_TIME_OFFSET ( 0, 0, .AHEAD. ) ;
#517 = ADVANCED_FACE ( 'NONE', ( #585 ), #597, .T. ) ;
#518 = DATE_AND_TIME ( #765, #676 ) ;
#519 = ORIENTED_EDGE ( 'NONE', *, *, #692, .T. ) ;
#520 = AXIS2_PLACEMENT_3D ( 'NONE', #70, #304, #674 ) ;
#521 = CARTESIAN_POINT ( 'NONE',  ( 0.000000000000000000, 3.000000000000000000, 0.000000000000000000 ) ) ;
#522 = AXIS2_PLACEMENT_3D ( 'NONE', #698, #639, #633 ) ;
#523 = CIRCLE ( 'NONE', #155, 18.99999999999999645 ) ;
#524 = ADVANCED_FACE ( 'NONE', ( #645 ), #340, .T. ) ;
#525 = CARTESIAN_POINT ( 'NONE',  ( 0.000000000000000000, 55.00000000000000000, 0.000000000000000000 ) ) ;
#526 = CARTESIAN_POINT ( 'NONE',  ( 0.000000000000000000, 0.000000000000000000, -2.549999999999999822 ) ) ;
#527 = EDGE_LOOP ( 'NONE', ( #542, #230, #317, #652 ) ) ;
#528 = DIRECTION ( 'NONE',  ( 8.659560562354950115E-17, 0.7071067811865463515, -0.7071067811865487940 ) ) ;
#529 = DIRECTION ( 'NONE',  ( 0.000000000000000000, 1.000000000000000000, 0.000000000000000000 ) ) ;
#530 = VERTEX_POINT ( 'NONE', #478 ) ;
#531 = DIRECTION ( 'NONE',  ( 0.000000000000000000, 0.000000000000000000, 1.000000000000000000 ) ) ;
#532 = AXIS2_PLACEMENT_3D ( 'NONE', #595, #53, #180 ) ;
#533 = ADVANCED_FACE ( 'NONE', ( #464 ), #705, .F. ) ;
#534 = CIRCLE ( 'NONE', #124, 4.500000000000000000 ) ;
#535 = CARTESIAN_POINT ( 'NONE',  ( 0.000000000000000000, 5.000000000000000000, 0.000000000000000000 ) ) ;
#536 = VERTEX_POINT ( 'NONE', #404 ) ;
#537 = FACE_OUTER_BOUND ( 'NONE', #409, .T. ) ;
#538 = ORIENTED_EDGE ( 'NONE', *, *, #458, .F. ) ;
#539 = CARTESIAN_POINT ( 'NONE',  ( 0.000000000000000000, 3.500000000000003109, 0.000000000000000000 ) ) ;
#540 = DIRECTION ( 'NONE',  ( -0.000000000000000000, 1.000000000000000000, -0.000000000000000000 ) ) ;
#541 = ADVANCED_FACE ( 'NONE', ( #414 ), #351, .T. ) ;
#542 = ORIENTED_EDGE ( 'NONE', *, *, #355, .T. ) ;
#543 = CARTESIAN_POINT ( 'NONE',  ( 0.000000000000000000, 0.000000000000000000, 18.99999999999999645 ) ) ;
#544 = DIRECTION ( 'NONE',  ( 0.000000000000000000, 1.000000000000000000, 0.000000000000000000 ) ) ;
#545 = CIRCLE ( 'NONE', #236, 2.549999999999999822 ) ;
#546 = VECTOR ( 'NONE', #695, 1000.000000000000000 ) ;
#547 = AXIS2_PLACEMENT_3D ( 'NONE', #371, #614, #78 ) ;
#548 = EDGE_CURVE ( 'NONE', #719, #374, #429, .T. ) ;
#549 = DIRECTION ( 'NONE',  ( -0.000000000000000000, -1.000000000000000000, -0.000000000000000000 ) ) ;
#550 = CARTESIAN_POINT ( 'NONE',  ( 0.000000000000000000, 0.9999999999999974465, 0.000000000000000000 ) ) ;
#551 = CARTESIAN_POINT ( 'NONE',  ( 6.123233995736765296E-16, 3.000000000000001776, -4.999999999999999112 ) ) ;
#552 = ORIENTED_EDGE ( 'NONE', *, *, #359, .T. ) ;
#553 = FACE_OUTER_BOUND ( 'NONE', #128, .T. ) ;
#554 = EDGE_CURVE ( 'NONE', #536, #44, #224, .T. ) ;
#555 = CARTESIAN_POINT ( 'NONE',  ( 0.000000000000000000, 3.000000000000000000, 0.000000000000000000 ) ) ;
#556 = DIRECTION ( 'NONE',  ( -0.000000000000000000, 1.000000000000000000, -0.000000000000000000 ) ) ;
#557 = CARTESIAN_POINT ( 'NONE',  ( 4.286263797015748428E-16, 55.00000000000000000, 3.500000000000010214 ) ) ;
#558 = FACE_BOUND ( 'NONE', #503, .T. ) ;
#559 = CC_DESIGN_DATE_AND_TIME_ASSIGNMENT ( #332, #576, ( #333 ) ) ;
#560 = AXIS2_PLACEMENT_3D ( 'NONE', #240, #653, #713 ) ;
#561 = CC_DESIGN_APPROVAL ( #201, ( #724 ) ) ;
#562 = CARTESIAN_POINT ( 'NONE',  ( 0.000000000000000000, 3.000000000000001776, 4.999999999999999112 ) ) ;
#563 = EDGE_LOOP ( 'NONE', ( #204, #20, #85, #302 ) ) ;
#564 = DIRECTION ( 'NONE',  ( 0.000000000000000000, 1.000000000000000000, 0.000000000000000000 ) ) ;
#565 = ORIENTED_EDGE ( 'NONE', *, *, #159, .F. ) ;
#566 = CARTESIAN_POINT ( 'NONE',  ( 5.510910596163088569E-16, 3.500000000000003109, 4.500000000000000000 ) ) ;
#567 = ADVANCED_FACE ( 'NONE', ( #460 ), #210, .F. ) ;
#568 = DATE_AND_TIME ( #323, #141 ) ;
#569 = VERTEX_POINT ( 'NONE', #774 ) ;
#570 = FACE_OUTER_BOUND ( 'NONE', #596, .T. ) ;
#571 = VECTOR ( 'NONE', #232, 1000.000000000000000 ) ;
#572 = AXIS2_PLACEMENT_3D ( 'NONE', #325, #283, #158 ) ;
#573 = PERSON_AND_ORGANIZATION ( #60, #139 ) ;
#574 = ORIENTED_EDGE ( 'NONE', *, *, #407, .F. ) ;
#575 = PLANE ( 'NONE',  #456 ) ;
#576 = DATE_TIME_ROLE ( 'creation_date' ) ;
#577 = ORIENTED_EDGE ( 'NONE', *, *, #548, .T. ) ;
#578 = DIRECTION ( 'NONE',  ( 0.000000000000000000, 1.000000000000000000, 0.000000000000000000 ) ) ;
#579 = ADVANCED_FACE ( 'NONE', ( #537 ), #662, .F. ) ;
#580 = PERSON_AND_ORGANIZATION ( #60, #139 ) ;
#581 = EDGE_LOOP ( 'NONE', ( #346, #420, #161, #577 ) ) ;
#582 = DIRECTION ( 'NONE',  ( 0.000000000000000000, 0.000000000000000000, 1.000000000000000000 ) ) ;
#583 = CC_DESIGN_PERSON_AND_ORGANIZATION_ASSIGNMENT ( #753, #213, ( #724 ) ) ;
#584 = ORIENTED_EDGE ( 'NONE', *, *, #434, .F. ) ;
#585 = FACE_OUTER_BOUND ( 'NONE', #563, .T. ) ;
#586 = AXIS2_PLACEMENT_3D ( 'NONE', #42, #334, #391 ) ;
#587 = CIRCLE ( 'NONE', #547, 0.5999999999999998668 ) ;
#588 = DIRECTION ( 'NONE',  ( -0.000000000000000000, -1.000000000000000000, -0.000000000000000000 ) ) ;
#589 = VERTEX_POINT ( 'NONE', #119 ) ;
#590 = CARTESIAN_POINT ( 'NONE',  ( 0.000000000000000000, 3.500000000000000000, 0.000000000000000000 ) ) ;
#591 = CARTESIAN_POINT ( 'NONE',  ( 0.000000000000000000, 55.00000000000000000, 0.000000000000000000 ) ) ;
#592 = EDGE_CURVE ( 'NONE', #383, #151, #243, .T. ) ;
#593 = ORIENTED_EDGE ( 'NONE', *, *, #718, .T. ) ;
#594 = CARTESIAN_POINT ( 'NONE',  ( 4.898587196589418745E-16, 55.00000000000000000, 3.500000000000010214 ) ) ;
#595 = CARTESIAN_POINT ( 'NONE',  ( 0.000000000000000000, 55.00000000000000000, 0.000000000000000000 ) ) ;
#596 = EDGE_LOOP ( 'NONE', ( #728, #678, #593, #282 ) ) ;
#597 = CYLINDRICAL_SURFACE ( 'NONE', #778, 4.500000000000000000 ) ;
#598 = LINE ( 'NONE', #120, #750 ) ;
#599 = VERTEX_POINT ( 'NONE', #594 ) ;
#600 = DIRECTION ( 'NONE',  ( 0.000000000000000000, 1.000000000000000000, 0.000000000000000000 ) ) ;
#601 = DIRECTION ( 'NONE',  ( 0.000000000000000000, 0.000000000000000000, -1.000000000000000000 ) ) ;
#602 = ADVANCED_FACE ( 'NONE', ( #182 ), #384, .T. ) ;
#603 = ORIENTED_EDGE ( 'NONE', *, *, #82, .T. ) ;
#604 = CARTESIAN_POINT ( 'NONE',  ( 0.000000000000000000, 55.00000000000000000, 2.549999999999999822 ) ) ;
#605 = DIRECTION ( 'NONE',  ( -0.000000000000000000, -1.000000000000000000, -0.000000000000000000 ) ) ;
#606 = ADVANCED_FACE ( 'NONE', ( #431 ), #258, .T. ) ;
#607 = DIRECTION ( 'NONE',  ( 0.000000000000000000, 0.000000000000000000, 1.000000000000000000 ) ) ;
#608 = DIRECTION ( 'NONE',  ( -0.000000000000000000, -1.000000000000000000, -0.000000000000000000 ) ) ;
#609 = DIRECTION ( 'NONE',  ( 0.000000000000000000, -0.7071067811865490160, -0.7071067811865460184 ) ) ;
#610 = CIRCLE ( 'NONE', #381, 19.99999999999999645 ) ;
#611 = AXIS2_PLACEMENT_3D ( 'NONE', #452, #45, #164 ) ;
#612 = ORIENTED_EDGE ( 'NONE', *, *, #708, .F. ) ;
#613 = EDGE_CURVE ( 'NONE', #93, #57, #679, .T. ) ;
#614 = DIRECTION ( 'NONE',  ( 0.000000000000000000, -1.000000000000000000, 0.000000000000000000 ) ) ;
#615 = LINE ( 'NONE', #79, #153 ) ;
#616 = ORIENTED_EDGE ( 'NONE', *, *, #660, .T. ) ;
#617 = CARTESIAN_POINT ( 'NONE',  ( 0.000000000000000000, 3.000000000000000000, 0.000000000000000000 ) ) ;
#618 = EDGE_CURVE ( 'NONE', #214, #118, #664, .T. ) ;
#619 = DIRECTION ( 'NONE',  ( 0.000000000000000000, 0.000000000000000000, 1.000000000000000000 ) ) ;
#620 = LINE ( 'NONE', #557, #295 ) ;
#621 = EDGE_LOOP ( 'NONE', ( #171, #694, #413, #612 ) ) ;
#622 = PLANE ( 'NONE',  #520 ) ;
#623 = CIRCLE ( 'NONE', #405, 2.549999999999999822 ) ;
#624 = PRODUCT_DEFINITION_SHAPE ( 'NONE', 'NONE',  #333 ) ;
#625 = CIRCLE ( 'NONE', #276, 19.99999999999999645 ) ;
#626 = CIRCLE ( 'NONE', #100, 18.99999999999999645 ) ;
#627 = DIRECTION ( 'NONE',  ( 0.000000000000000000, 0.000000000000000000, 1.000000000000000000 ) ) ;
#628 = ORIENTED_EDGE ( 'NONE', *, *, #379, .T. ) ;
#629 = CARTESIAN_POINT ( 'NONE',  ( 0.000000000000000000, 2.000000000000000000, 0.000000000000000000 ) ) ;
#630 = ADVANCED_FACE ( 'NONE', ( #481 ), #303, .F. ) ;
#631 =( LENGTH_UNIT ( ) NAMED_UNIT ( * ) SI_UNIT ( .MILLI., .METRE. ) );
#632 = ORIENTED_EDGE ( 'NONE', *, *, #592, .F. ) ;
#633 = DIRECTION ( 'NONE',  ( 0.000000000000000000, 0.000000000000000000, -1.000000000000000000 ) ) ;
#634 = DIRECTION ( 'NONE',  ( 0.000000000000000000, -0.000000000000000000, 1.000000000000000000 ) ) ;
#635 = DIRECTION ( 'NONE',  ( 0.000000000000000000, 0.000000000000000000, 1.000000000000000000 ) ) ;
#636 = AXIS2_PLACEMENT_3D ( 'NONE', #83, #373, #29 ) ;
#637 = AXIS2_PLACEMENT_3D ( 'NONE', #590, #600, #125 ) ;
#638 = ORIENTED_EDGE ( 'NONE', *, *, #548, .F. ) ;
#639 = DIRECTION ( 'NONE',  ( -0.000000000000000000, -1.000000000000000000, -0.000000000000000000 ) ) ;
#640 =( NAMED_UNIT ( * ) PLANE_ANGLE_UNIT ( ) SI_UNIT ( $, .RADIAN. ) );
#641 = ORIENTED_EDGE ( 'NONE', *, *, #268, .F. ) ;
#642 = ADVANCED_FACE ( 'NONE', ( #729 ), #767, .T. ) ;
#643 = CARTESIAN_POINT ( 'NONE',  ( 0.000000000000000000, 3.500000000000003109, 0.000000000000000000 ) ) ;
#644 = VERTEX_POINT ( 'NONE', #129 ) ;
#645 = FACE_OUTER_BOUND ( 'NONE', #514, .T. ) ;
#646 = ORIENTED_EDGE ( 'NONE', *, *, #618, .F. ) ;
#647 = AXIS2_PLACEMENT_3D ( 'NONE', #248, #5, #292 ) ;
#648 = DIRECTION ( 'NONE',  ( -0.000000000000000000, -1.000000000000000000, -0.000000000000000000 ) ) ;
#649 = CIRCLE ( 'NONE', #37, 2.549999999999999822 ) ;
#650 = AXIS2_PLACEMENT_3D ( 'NONE', #375, #25, #670 ) ;
#651 = CARTESIAN_POINT ( 'NONE',  ( 0.000000000000000000, 2.000000000000000000, 0.000000000000000000 ) ) ;
#652 = ORIENTED_EDGE ( 'NONE', *, *, #260, .F. ) ;
#653 = DIRECTION ( 'NONE',  ( 0.000000000000000000, 1.000000000000000000, 0.000000000000000000 ) ) ;
#654 = CARTESIAN_POINT ( 'NONE',  ( 5.510910596163088569E-16, 55.00000000000000000, 4.500000000000000000 ) ) ;
#655 = EDGE_LOOP ( 'NONE', ( #422, #239, #102, #32 ) ) ;
#656 = CARTESIAN_POINT ( 'NONE',  ( 0.000000000000000000, 0.9999999999999974465, 0.000000000000000000 ) ) ;
#657 = DIRECTION ( 'NONE',  ( -0.000000000000000000, -1.000000000000000000, -0.000000000000000000 ) ) ;
#658 = VERTEX_POINT ( 'NONE', #720 ) ;
#659 = DIRECTION ( 'NONE',  ( -0.000000000000000000, -1.000000000000000000, -0.000000000000000000 ) ) ;
#660 = EDGE_CURVE ( 'NONE', #383, #706, #626, .T. ) ;
#661 = AXIS2_PLACEMENT_3D ( 'NONE', #591, #529, #775 ) ;
#662 = TOROIDAL_SURFACE ( 'NONE', #764, 4.999999999999999112, 0.5000000000000000000 ) ;
#663 = FACE_OUTER_BOUND ( 'NONE', #451, .T. ) ;
#664 = CIRCLE ( 'NONE', #483, 0.5000000000000004441 ) ;
#665 = VERTEX_POINT ( 'NONE', #377 ) ;
#666 = CARTESIAN_POINT ( 'NONE',  ( 0.000000000000000000, 30.00000000000000000, 0.000000000000000000 ) ) ;
#667 = APPROVAL ( #447, 'UNSPECIFIED' ) ;
#668 = FACE_OUTER_BOUND ( 'NONE', #766, .T. ) ;
#669 = CYLINDRICAL_SURFACE ( 'NONE', #261, 2.549999999999999822 ) ;
#670 = DIRECTION ( 'NONE',  ( 0.000000000000000000, 0.000000000000000000, 1.000000000000000000 ) ) ;
#671 = CYLINDRICAL_SURFACE ( 'NONE', #482, 2.549999999999999822 ) ;
#672 = VERTEX_POINT ( 'NONE', #69 ) ;
#673 = DIRECTION ( 'NONE',  ( -0.000000000000000000, 1.000000000000000000, -0.000000000000000000 ) ) ;
#674 = DIRECTION ( 'NONE',  ( 0.000000000000000000, -0.000000000000000000, 1.000000000000000000 ) ) ;
#675 = VECTOR ( 'NONE', #509, 1000.000000000000000 ) ;
#676 = LOCAL_TIME ( 15, 0, 3.000000000000000000, #46 ) ;
#677 = EDGE_CURVE ( 'NONE', #644, #178, #238, .T. ) ;
#678 = ORIENTED_EDGE ( 'NONE', *, *, #740, .F. ) ;
#679 = LINE ( 'NONE', #262, #737 ) ;
#680 = CARTESIAN_POINT ( 'NONE',  ( 0.000000000000000000, 2.000000000000000000, 0.000000000000000000 ) ) ;
#681 = DIRECTION ( 'NONE',  ( 0.000000000000000000, 0.000000000000000000, -1.000000000000000000 ) ) ;
#682 = DIRECTION ( 'NONE',  ( -0.000000000000000000, 1.000000000000000000, -0.000000000000000000 ) ) ;
#683 = CARTESIAN_POINT ( 'NONE',  ( 0.000000000000000000, 0.000000000000000000, 0.000000000000000000 ) ) ;
#684 = EDGE_CURVE ( 'NONE', #44, #536, #175, .T. ) ;
#685 = DIRECTION ( 'NONE',  ( 0.000000000000000000, 0.000000000000000000, 1.000000000000000000 ) ) ;
#686 = CONICAL_SURFACE ( 'NONE', #532, 3.500000000000010214, 0.7853981633974460586 ) ;
#687 = AXIS2_PLACEMENT_3D ( 'NONE', #94, #91, #209 ) ;
#688 = AXIS2_PLACEMENT_3D ( 'NONE', #11, #427, #186 ) ;
#689 = COORDINATED_UNIVERSAL_TIME_OFFSET ( 0, 0, .AHEAD. ) ;
#690 = ORIENTED_EDGE ( 'NONE', *, *, #59, .F. ) ;
#691 = DIRECTION ( 'NONE',  ( 0.000000000000000000, 1.000000000000000000, 0.000000000000000000 ) ) ;
#692 = EDGE_CURVE ( 'NONE', #599, #178, #620, .T. ) ;
#693 = DIRECTION ( 'NONE',  ( 0.000000000000000000, 0.000000000000000000, 1.000000000000000000 ) ) ;
#694 = ORIENTED_EDGE ( 'NONE', *, *, #592, .T. ) ;
#695 = DIRECTION ( 'NONE',  ( -0.000000000000000000, -1.000000000000000000, -0.000000000000000000 ) ) ;
#696 = EDGE_CURVE ( 'NONE', #193, #719, #365, .T. ) ;
#697 = ORIENTED_EDGE ( 'NONE', *, *, #434, .T. ) ;
#698 = CARTESIAN_POINT ( 'NONE',  ( 0.000000000000000000, 30.00000000000000000, 0.000000000000000000 ) ) ;
#699 = AXIS2_PLACEMENT_3D ( 'NONE', #241, #605, #619 ) ;
#700 = APPROVAL ( #510, 'UNSPECIFIED' ) ;
#701 = AXIS2_PLACEMENT_3D ( 'NONE', #455, #215, #271 ) ;
#702 = ORIENTED_EDGE ( 'NONE', *, *, #379, .F. ) ;
#703 = FACE_BOUND ( 'NONE', #47, .T. ) ;
#704 = VERTEX_POINT ( 'NONE', #562 ) ;
#705 = CYLINDRICAL_SURFACE ( 'NONE', #396, 2.549999999999999822 ) ;
#706 = VERTEX_POINT ( 'NONE', #543 ) ;
#707 = DIRECTION ( 'NONE',  ( 0.000000000000000000, 0.000000000000000000, 1.000000000000000000 ) ) ;
#708 = EDGE_CURVE ( 'NONE', #706, #3, #194, .T. ) ;
#709 = FACE_OUTER_BOUND ( 'NONE', #77, .T. ) ;
#710 = VERTEX_POINT ( 'NONE', #362 ) ;
#711 = FACE_OUTER_BOUND ( 'NONE', #491, .T. ) ;
#712 = AXIS2_PLACEMENT_3D ( 'NONE', #272, #335, #393 ) ;
#713 = DIRECTION ( 'NONE',  ( 0.000000000000000000, 0.000000000000000000, 1.000000000000000000 ) ) ;
#714 = EDGE_CURVE ( 'NONE', #44, #569, #372, .T. ) ;
#715 = CARTESIAN_POINT ( 'NONE',  ( 7.347880794884117764E-17, 30.00000000000000000, 0.5999999999999998668 ) ) ;
#716 = CARTESIAN_POINT ( 'NONE',  ( 2.449293598294706119E-15, 0.9999999999999974465, -19.99999999999999645 ) ) ;
#717 = CYLINDRICAL_SURFACE ( 'NONE', #274, 2.549999999999999822 ) ;
#718 = EDGE_CURVE ( 'NONE', #500, #672, #247, .T. ) ;
#719 = VERTEX_POINT ( 'NONE', #604 ) ;
#720 = CARTESIAN_POINT ( 'NONE',  ( 8.082668874372532006E-16, 5.000000000000000000, -6.600000000000000533 ) ) ;
#721 = CLOSED_SHELL ( 'NONE', ( #630, #121, #2, #579, #486, #517, #27, #235, #731, #606, #524, #64, #245, #642, #131, #327, #110, #602, #541, #196, #567, #533, #746, #208, #107, #769, #301 ) ) ;
#722 = VECTOR ( 'NONE', #48, 1000.000000000000000 ) ;
#723 = LINE ( 'NONE', #406, #571 ) ;
#724 = PRODUCT_DEFINITION_FORMATION_WITH_SPECIFIED_SOURCE ( 'ANY', '', #742, .NOT_KNOWN. ) ;
#725 = ORIENTED_EDGE ( 'NONE', *, *, #250, .F. ) ;
#726 = DIRECTION ( 'NONE',  ( -0.000000000000000000, -1.000000000000000000, -0.000000000000000000 ) ) ;
#727 = CYLINDRICAL_SURFACE ( 'NONE', #305, 6.600000000000000533 ) ;
#728 = ORIENTED_EDGE ( 'NONE', *, *, #6, .F. ) ;
#729 = FACE_OUTER_BOUND ( 'NONE', #233, .T. ) ;
#730 = CARTESIAN_POINT ( 'NONE',  ( 0.000000000000000000, 3.500000000000000000, 0.000000000000000000 ) ) ;
#731 = ADVANCED_FACE ( 'NONE', ( #306 ), #285, .T. ) ;
#732 = ORIENTED_EDGE ( 'NONE', *, *, #368, .F. ) ;
#733 = DIRECTION ( 'NONE',  ( 0.000000000000000000, 1.000000000000000000, 0.000000000000000000 ) ) ;
#734 = DIRECTION ( 'NONE',  ( 0.000000000000000000, 0.000000000000000000, 1.000000000000000000 ) ) ;
#735 = AXIS2_PLACEMENT_3D ( 'NONE', #366, #439, #311 ) ;
#736 = AXIS2_PLACEMENT_3D ( 'NONE', #66, #648, #299 ) ;
#737 = VECTOR ( 'NONE', #489, 1000.000000000000000 ) ;
#738 = DIRECTION ( 'NONE',  ( 0.000000000000000000, 1.000000000000000000, 0.000000000000000000 ) ) ;
#739 = CARTESIAN_POINT ( 'NONE',  ( 3.122849337825750419E-16, 53.00000000000000000, -2.549999999999999822 ) ) ;
#740 = EDGE_CURVE ( 'NONE', #500, #665, #587, .T. ) ;
#741 = MECHANICAL_CONTEXT ( 'NONE', #440, 'mechanical' ) ;
#742 = PRODUCT ( 'punch_holder', 'punch_holder', '', ( #741 ) ) ;
#743 = ORIENTED_EDGE ( 'NONE', *, *, #250, .T. ) ;
#744 = DIRECTION ( 'NONE',  ( 0.000000000000000000, 0.000000000000000000, -1.000000000000000000 ) ) ;
#745 = CARTESIAN_POINT ( 'NONE',  ( 0.000000000000000000, 5.000000000000000000, 0.000000000000000000 ) ) ;
#746 = ADVANCED_FACE ( 'NONE', ( #553 ), #496, .T. ) ;
#747 = ORIENTED_EDGE ( 'NONE', *, *, #147, .T. ) ;
#748 = DIRECTION ( 'NONE',  ( 0.000000000000000000, 0.000000000000000000, 1.000000000000000000 ) ) ;
#749 = CALENDAR_DATE ( 2025, 5, 12 ) ;
#750 = VECTOR ( 'NONE', #657, 1000.000000000000000 ) ;
#751 = CIRCLE ( 'NONE', #13, 19.99999999999999645 ) ;
#752 = CIRCLE ( 'NONE', #76, 6.600000000000000533 ) ;
#753 = PERSON_AND_ORGANIZATION ( #60, #139 ) ;
#754 = EDGE_LOOP ( 'NONE', ( #353, #628, #603, #459 ) ) ;
#755 = DIRECTION ( 'NONE',  ( 0.000000000000000000, 1.000000000000000000, 0.000000000000000000 ) ) ;
#756 = EDGE_CURVE ( 'NONE', #706, #383, #523, .T. ) ;
#757 = SECURITY_CLASSIFICATION_LEVEL ( 'unclassified' ) ;
#758 = ORIENTED_EDGE ( 'NONE', *, *, #187, .F. ) ;
#759 = DIRECTION ( 'NONE',  ( 0.000000000000000000, -1.000000000000000000, 0.000000000000000000 ) ) ;
#760 = EDGE_CURVE ( 'NONE', #658, #90, #752, .T. ) ;
#761 = DIRECTION ( 'NONE',  ( 0.000000000000000000, 1.000000000000000000, 0.000000000000000000 ) ) ;
#762 = CARTESIAN_POINT ( 'NONE',  ( 3.122849337825750419E-16, 55.00000000000000000, -2.549999999999999822 ) ) ;
#763 = DATE_AND_TIME ( #749, #189 ) ;
#764 = AXIS2_PLACEMENT_3D ( 'NONE', #123, #176, #62 ) ;
#765 = CALENDAR_DATE ( 2025, 5, 12 ) ;
#766 = EDGE_LOOP ( 'NONE', ( #328, #519, #142, #157 ) ) ;
#767 = CONICAL_SURFACE ( 'NONE', #419, 19.99999999999999645, 0.7853981633974500554 ) ;
#768 = LINE ( 'NONE', #103, #469 ) ;
#769 = ADVANCED_FACE ( 'NONE', ( #499 ), #220, .T. ) ;
#770 = EDGE_LOOP ( 'NONE', ( #426, #616 ) ) ;
#771 = CARTESIAN_POINT ( 'NONE',  ( 0.000000000000000000, 55.00000000000000000, 0.000000000000000000 ) ) ;
#772 = PLANE ( 'NONE',  #223 ) ;
#773 = EDGE_LOOP ( 'NONE', ( #336, #378 ) ) ;
#774 = CARTESIAN_POINT ( 'NONE',  ( 8.082668874372532006E-16, 3.500000000000000000, -6.600000000000000533 ) ) ;
#775 = DIRECTION ( 'NONE',  ( 0.000000000000000000, -0.000000000000000000, 1.000000000000000000 ) ) ;
#776 = VECTOR ( 'NONE', #609, 1000.000000000000114 ) ;
#777 = EDGE_LOOP ( 'NONE', ( #484, #246, #747, #702 ) ) ;
#778 = AXIS2_PLACEMENT_3D ( 'NONE', #771, #659, #4 ) ;
#779 = AXIS2_PLACEMENT_3D ( 'NONE', #16, #253, #681 ) ;
ENDSEC;
END-ISO-10303-21;
