ISO-10303-21;
HEADER;
FILE_DESCRIPTION (( 'STEP AP203' ),
    '1' );
FILE_NAME ('stress_ring.STEP',
    '2025-11-24T20:06:40',
    ( '' ),
    ( '' ),
    'SwSTEP 2.0',
    'SolidWorks 2020',
    '' );
FILE_SCHEMA (( 'CONFIG_CONTROL_DESIGN' ));
ENDSEC;

DATA;
#1 = CYLINDRICAL_SURFACE ( 'NONE', #330, 12.50000000000000000 ) ;
#2 = DIRECTION ( 'NONE',  ( 0.000000000000000000, 0.000000000000000000, 1.000000000000000000 ) ) ;
#3 = DIRECTION ( 'NONE',  ( 0.000000000000000000, 0.000000000000000000, 1.000000000000000000 ) ) ;
#4 = VECTOR ( 'NONE', #514, 1000.000000000000000 ) ;
#5 = CIRCLE ( 'NONE', #279, 15.09999999999999787 ) ;
#6 = PERSON_AND_ORGANIZATION_ROLE ( 'design_owner' ) ;
#7 = CARTESIAN_POINT ( 'NONE',  ( 0.000000000000000000, 0.000000000000000000, 0.000000000000000000 ) ) ;
#8 = ORIENTED_EDGE ( 'NONE', *, *, #347, .T. ) ;
#9 = CARTESIAN_POINT ( 'NONE',  ( 9.999999999999998224, -30.00000000000000000, 7.500000000000004441 ) ) ;
#10 = ORIENTED_EDGE ( 'NONE', *, *, #95, .F. ) ;
#11 = CARTESIAN_POINT ( 'NONE',  ( 9.999999999999998224, 0.000000000000000000, 7.500000000000004441 ) ) ;
#12 = CARTESIAN_POINT ( 'NONE',  ( -10.00000000000000178, -30.00000000000000000, 17.32050807568877815 ) ) ;
#13 = VERTEX_POINT ( 'NONE', #321 ) ;
#14 = ORIENTED_EDGE ( 'NONE', *, *, #372, .F. ) ;
#15 = AXIS2_PLACEMENT_3D ( 'NONE', #327, #285, #411 ) ;
#16 = CIRCLE ( 'NONE', #469, 12.50000000000000000 ) ;
#17 = CARTESIAN_POINT ( 'NONE',  ( 9.999999999999998224, -30.00000000000000000, 7.500000000000004441 ) ) ;
#18 = ORIENTED_EDGE ( 'NONE', *, *, #387, .F. ) ;
#19 = LINE ( 'NONE', #11, #287 ) ;
#20 = ORIENTED_EDGE ( 'NONE', *, *, #202, .T. ) ;
#21 = ORIENTED_EDGE ( 'NONE', *, *, #194, .F. ) ;
#22 = DIRECTION ( 'NONE',  ( 0.000000000000000000, 1.000000000000000000, 0.000000000000000000 ) ) ;
#23 = ADVANCED_FACE ( 'NONE', ( #275 ), #127, .F. ) ;
#24 = ORIENTED_EDGE ( 'NONE', *, *, #186, .T. ) ;
#25 = ORIENTED_EDGE ( 'NONE', *, *, #161, .T. ) ;
#26 = PERSON ( 'UNSPECIFIED', 'UNSPECIFIED', 'UNSPECIFIED', ('UNSPECIFIED'), ('UNSPECIFIED'), ('UNSPECIFIED') ) ;
#27 = DIRECTION ( 'NONE',  ( -0.000000000000000000, 1.000000000000000000, -0.000000000000000000 ) ) ;
#28 = CIRCLE ( 'NONE', #277, 20.00000000000000000 ) ;
#29 = CARTESIAN_POINT ( 'NONE',  ( 0.000000000000000000, 0.000000000000000000, 0.000000000000000000 ) ) ;
#30 = AXIS2_PLACEMENT_3D ( 'NONE', #104, #301, #55 ) ;
#31 = AXIS2_PLACEMENT_3D ( 'NONE', #146, #532, #149 ) ;
#32 = APPROVAL_ROLE ( '' ) ;
#33 = LINE ( 'NONE', #323, #187 ) ;
#34 = ORIENTED_EDGE ( 'NONE', *, *, #419, .T. ) ;
#35 = CYLINDRICAL_SURFACE ( 'NONE', #64, 20.00000000000000000 ) ;
#36 = ORIENTED_EDGE ( 'NONE', *, *, #254, .T. ) ;
#37 = CARTESIAN_POINT ( 'NONE',  ( 9.999999999999998224, 0.000000000000000000, 17.32050807568877460 ) ) ;
#38 = AXIS2_PLACEMENT_3D ( 'NONE', #404, #436, #529 ) ;
#39 = LINE ( 'NONE', #185, #199 ) ;
#40 = LINE ( 'NONE', #184, #200 ) ;
#41 = SECURITY_CLASSIFICATION_LEVEL ( 'unclassified' ) ;
#42 = LINE ( 'NONE', #243, #435 ) ;
#43 = ADVANCED_FACE ( 'NONE', ( #232 ), #88, .F. ) ;
#44 = AXIS2_PLACEMENT_3D ( 'NONE', #100, #331, #562 ) ;
#45 = DIRECTION ( 'NONE',  ( 0.000000000000000000, 0.000000000000000000, 1.000000000000000000 ) ) ;
#46 = CARTESIAN_POINT ( 'NONE',  ( 0.000000000000000000, 0.000000000000000000, 0.000000000000000000 ) ) ;
#47 = DIRECTION ( 'NONE',  ( 0.000000000000000000, 0.000000000000000000, -1.000000000000000000 ) ) ;
#48 = DIRECTION ( 'NONE',  ( 0.000000000000000000, 1.000000000000000000, 0.000000000000000000 ) ) ;
#49 =( LENGTH_UNIT ( ) NAMED_UNIT ( * ) SI_UNIT ( .MILLI., .METRE. ) );
#50 = DIRECTION ( 'NONE',  ( 0.000000000000000000, 0.000000000000000000, 1.000000000000000000 ) ) ;
#51 = CARTESIAN_POINT ( 'NONE',  ( 0.000000000000000000, 0.000000000000000000, 0.000000000000000000 ) ) ;
#52 = APPROVAL ( #505, 'UNSPECIFIED' ) ;
#53 = DIRECTION ( 'NONE',  ( 0.000000000000000000, 0.000000000000000000, 1.000000000000000000 ) ) ;
#54 = PLANE ( 'NONE',  #31 ) ;
#55 = DIRECTION ( 'NONE',  ( 0.000000000000000000, 0.000000000000000000, 1.000000000000000000 ) ) ;
#56 = ORIENTED_EDGE ( 'NONE', *, *, #141, .T. ) ;
#57 = DIRECTION ( 'NONE',  ( 0.000000000000000000, 0.000000000000000000, 1.000000000000000000 ) ) ;
#58 = ADVANCED_FACE ( 'NONE', ( #282 ), #543, .T. ) ;
#59 = DIRECTION ( 'NONE',  ( 1.000000000000000000, 0.000000000000000000, -0.000000000000000000 ) ) ;
#60 = ORIENTED_EDGE ( 'NONE', *, *, #168, .F. ) ;
#61 = CARTESIAN_POINT ( 'NONE',  ( 0.000000000000000000, 0.000000000000000000, -20.00000000000000000 ) ) ;
#62 = VERTEX_POINT ( 'NONE', #237 ) ;
#63 = VECTOR ( 'NONE', #602, 1000.000000000000000 ) ;
#64 = AXIS2_PLACEMENT_3D ( 'NONE', #181, #124, #497 ) ;
#65 = DIRECTION ( 'NONE',  ( -0.000000000000000000, 1.000000000000000000, -0.000000000000000000 ) ) ;
#66 = CARTESIAN_POINT ( 'NONE',  ( -10.00000000000000178, 0.000000000000000000, -17.32050807568877815 ) ) ;
#67 = ORIENTED_EDGE ( 'NONE', *, *, #342, .F. ) ;
#68 = MECHANICAL_CONTEXT ( 'NONE', #262, 'mechanical' ) ;
#69 = CARTESIAN_POINT ( 'NONE',  ( 0.000000000000000000, 0.000000000000000000, 0.000000000000000000 ) ) ;
#70 = ORIENTED_EDGE ( 'NONE', *, *, #372, .T. ) ;
#71 = ORIENTED_EDGE ( 'NONE', *, *, #426, .F. ) ;
#72 = APPROVAL_STATUS ( 'not_yet_approved' ) ;
#73 = EDGE_CURVE ( 'NONE', #433, #216, #33, .T. ) ;
#74 = DATE_AND_TIME ( #499, #564 ) ;
#75 = AXIS2_PLACEMENT_3D ( 'NONE', #509, #554, #425 ) ;
#76 = EDGE_CURVE ( 'NONE', #216, #368, #28, .T. ) ;
#77 = CIRCLE ( 'NONE', #252, 15.09999999999999787 ) ;
#78 = LOCAL_TIME ( 20, 6, 40.00000000000000000, #117 ) ;
#79 = ORIENTED_EDGE ( 'NONE', *, *, #342, .T. ) ;
#80 = PERSON_AND_ORGANIZATION ( #26, #398 ) ;
#81 = VERTEX_POINT ( 'NONE', #507 ) ;
#82 = DIRECTION ( 'NONE',  ( 0.000000000000000000, 1.000000000000000000, 0.000000000000000000 ) ) ;
#83 = DIRECTION ( 'NONE',  ( -0.000000000000000000, 1.000000000000000000, -0.000000000000000000 ) ) ;
#84 = CARTESIAN_POINT ( 'NONE',  ( 9.999999999999998224, -30.00000000000000000, -7.500000000000004441 ) ) ;
#85 = CARTESIAN_POINT ( 'NONE',  ( 0.000000000000000000, 0.000000000000000000, 0.000000000000000000 ) ) ;
#86 = APPROVAL ( #72, 'UNSPECIFIED' ) ;
#87 = ADVANCED_BREP_SHAPE_REPRESENTATION ( 'stress_ring', ( #271, #106 ), #548 ) ;
#88 = CYLINDRICAL_SURFACE ( 'NONE', #556, 12.50000000000000000 ) ;
#89 = CIRCLE ( 'NONE', #437, 15.09999999999999787 ) ;
#90 = CC_DESIGN_SECURITY_CLASSIFICATION ( #353, ( #107 ) ) ;
#91 = CALENDAR_DATE ( 2025, 24, 11 ) ;
#92 = UNCERTAINTY_MEASURE_WITH_UNIT (LENGTH_MEASURE( 1.000000000000000082E-05 ), #49, 'distance_accuracy_value', 'NONE');
#93 = FACE_OUTER_BOUND ( 'NONE', #536, .T. ) ;
#94 = ORIENTED_EDGE ( 'NONE', *, *, #171, .T. ) ;
#95 = EDGE_CURVE ( 'NONE', #357, #526, #502, .T. ) ;
#96 = CARTESIAN_POINT ( 'NONE',  ( -10.00000000000000178, -30.00000000000000000, -17.32050807568877815 ) ) ;
#97 = DIRECTION ( 'NONE',  ( -0.000000000000000000, -0.000000000000000000, -1.000000000000000000 ) ) ;
#98 = ADVANCED_FACE ( 'NONE', ( #174 ), #373, .F. ) ;
#99 = CC_DESIGN_APPROVAL ( #126, ( #434 ) ) ;
#100 = CARTESIAN_POINT ( 'NONE',  ( 0.000000000000000000, -30.00000000000000000, 0.000000000000000000 ) ) ;
#101 = EDGE_CURVE ( 'NONE', #588, #356, #166, .T. ) ;
#102 = ORIENTED_EDGE ( 'NONE', *, *, #347, .F. ) ;
#103 = FACE_OUTER_BOUND ( 'NONE', #299, .T. ) ;
#104 = CARTESIAN_POINT ( 'NONE',  ( 0.000000000000000000, 0.000000000000000000, 0.000000000000000000 ) ) ;
#105 = ORIENTED_EDGE ( 'NONE', *, *, #595, .T. ) ;
#106 = AXIS2_PLACEMENT_3D ( 'NONE', #320, #53, #570 ) ;
#107 = PRODUCT_DEFINITION_FORMATION_WITH_SPECIFIED_SOURCE ( 'ANY', '', #246, .NOT_KNOWN. ) ;
#108 = ORIENTED_EDGE ( 'NONE', *, *, #387, .T. ) ;
#109 = ADVANCED_FACE ( 'NONE', ( #178 ), #377, .F. ) ;
#110 = LINE ( 'NONE', #211, #304 ) ;
#111 = ORIENTED_EDGE ( 'NONE', *, *, #186, .F. ) ;
#112 = ORIENTED_EDGE ( 'NONE', *, *, #238, .F. ) ;
#113 = CARTESIAN_POINT ( 'NONE',  ( -10.00000000000001066, -30.00000000000000000, -17.32050807568877104 ) ) ;
#114 = ORIENTED_EDGE ( 'NONE', *, *, #461, .F. ) ;
#115 = DIRECTION ( 'NONE',  ( 0.000000000000000000, -0.000000000000000000, 1.000000000000000000 ) ) ;
#116 = ORIENTED_EDGE ( 'NONE', *, *, #133, .T. ) ;
#117 = COORDINATED_UNIVERSAL_TIME_OFFSET ( 0, 0, .AHEAD. ) ;
#118 = ORIENTED_EDGE ( 'NONE', *, *, #153, .F. ) ;
#119 = APPROVAL_DATE_TIME ( #213, #126 ) ;
#120 = AXIS2_PLACEMENT_3D ( 'NONE', #227, #82, #173 ) ;
#121 = PLANE ( 'NONE',  #324 ) ;
#122 = EDGE_LOOP ( 'NONE', ( #10, #369, #170, #382, #401, #151 ) ) ;
#123 = FACE_OUTER_BOUND ( 'NONE', #272, .T. ) ;
#124 = DIRECTION ( 'NONE',  ( -0.000000000000000000, -1.000000000000000000, -0.000000000000000000 ) ) ;
#125 = VERTEX_POINT ( 'NONE', #329 ) ;
#126 = APPROVAL ( #269, 'UNSPECIFIED' ) ;
#127 = CYLINDRICAL_SURFACE ( 'NONE', #477, 15.09999999999999787 ) ;
#128 = ORIENTED_EDGE ( 'NONE', *, *, #73, .T. ) ;
#129 = AXIS2_PLACEMENT_3D ( 'NONE', #487, #349, #445 ) ;
#130 = CARTESIAN_POINT ( 'NONE',  ( 0.000000000000000000, -30.00000000000000000, 0.000000000000000000 ) ) ;
#131 = CC_DESIGN_DATE_AND_TIME_ASSIGNMENT ( #74, #365, ( #434 ) ) ;
#132 = DIRECTION ( 'NONE',  ( -0.000000000000000000, 1.000000000000000000, -0.000000000000000000 ) ) ;
#133 = EDGE_CURVE ( 'NONE', #438, #234, #463, .T. ) ;
#134 = AXIS2_PLACEMENT_3D ( 'NONE', #248, #561, #136 ) ;
#135 = ADVANCED_FACE ( 'NONE', ( #333 ), #611, .F. ) ;
#136 = DIRECTION ( 'NONE',  ( 0.000000000000000000, -0.000000000000000000, 1.000000000000000000 ) ) ;
#137 = CC_DESIGN_PERSON_AND_ORGANIZATION_ASSIGNMENT ( #278, #6, ( #246 ) ) ;
#138 = ORIENTED_EDGE ( 'NONE', *, *, #488, .T. ) ;
#139 = EDGE_CURVE ( 'NONE', #62, #357, #312, .T. ) ;
#140 = DIRECTION ( 'NONE',  ( 0.000000000000000000, 0.000000000000000000, -1.000000000000000000 ) ) ;
#141 = EDGE_CURVE ( 'NONE', #270, #438, #336, .T. ) ;
#142 = DIRECTION ( 'NONE',  ( -0.000000000000000000, -0.000000000000000000, -1.000000000000000000 ) ) ;
#143 = VECTOR ( 'NONE', #542, 1000.000000000000000 ) ;
#144 = CC_DESIGN_APPROVAL ( #86, ( #107 ) ) ;
#145 = DIRECTION ( 'NONE',  ( 0.000000000000000000, 1.000000000000000000, 0.000000000000000000 ) ) ;
#146 = CARTESIAN_POINT ( 'NONE',  ( 0.000000000000000000, 0.000000000000000000, 0.000000000000000000 ) ) ;
#147 = CARTESIAN_POINT ( 'NONE',  ( -10.00000000000000178, -30.00000000000000000, -7.499999999999999112 ) ) ;
#148 = ORIENTED_EDGE ( 'NONE', *, *, #139, .F. ) ;
#149 = DIRECTION ( 'NONE',  ( 0.000000000000000000, -0.000000000000000000, -1.000000000000000000 ) ) ;
#150 = FACE_OUTER_BOUND ( 'NONE', #249, .T. ) ;
#151 = ORIENTED_EDGE ( 'NONE', *, *, #527, .F. ) ;
#152 = CALENDAR_DATE ( 2025, 24, 11 ) ;
#153 = EDGE_CURVE ( 'NONE', #438, #13, #39, .T. ) ;
#154 = APPROVAL_PERSON_ORGANIZATION ( #192, #52, #268 ) ;
#155 = CARTESIAN_POINT ( 'NONE',  ( -10.00000000000000000, 0.000000000000000000, 17.32050807568877460 ) ) ;
#156 = ORIENTED_EDGE ( 'NONE', *, *, #549, .F. ) ;
#157 = FACE_BOUND ( 'NONE', #574, .T. ) ;
#158 = VERTEX_POINT ( 'NONE', #198 ) ;
#159 = ORIENTED_EDGE ( 'NONE', *, *, #488, .F. ) ;
#160 = PLANE ( 'NONE',  #129 ) ;
#161 = EDGE_CURVE ( 'NONE', #234, #158, #388, .T. ) ;
#162 = ORIENTED_EDGE ( 'NONE', *, *, #239, .F. ) ;
#163 = ORIENTED_EDGE ( 'NONE', *, *, #362, .F. ) ;
#164 = AXIS2_PLACEMENT_3D ( 'NONE', #384, #423, #193 ) ;
#165 = AXIS2_PLACEMENT_3D ( 'NONE', #96, #470, #45 ) ;
#166 = LINE ( 'NONE', #416, #468 ) ;
#167 = EDGE_LOOP ( 'NONE', ( #116, #25, #34, #56 ) ) ;
#168 = EDGE_CURVE ( 'NONE', #209, #433, #567, .T. ) ;
#169 = CARTESIAN_POINT ( 'NONE',  ( 0.000000000000000000, 0.000000000000000000, 0.000000000000000000 ) ) ;
#170 = ORIENTED_EDGE ( 'NONE', *, *, #239, .T. ) ;
#171 = EDGE_CURVE ( 'NONE', #270, #125, #517, .T. ) ;
#172 = COORDINATED_UNIVERSAL_TIME_OFFSET ( 0, 0, .AHEAD. ) ;
#173 = DIRECTION ( 'NONE',  ( 0.000000000000000000, 0.000000000000000000, 1.000000000000000000 ) ) ;
#174 = FACE_OUTER_BOUND ( 'NONE', #380, .T. ) ;
#175 = CIRCLE ( 'NONE', #265, 20.00000000000000000 ) ;
#176 = ORIENTED_EDGE ( 'NONE', *, *, #161, .F. ) ;
#177 = CIRCLE ( 'NONE', #528, 12.50000000000000000 ) ;
#178 = FACE_OUTER_BOUND ( 'NONE', #572, .T. ) ;
#179 = COORDINATED_UNIVERSAL_TIME_OFFSET ( 0, 0, .AHEAD. ) ;
#180 = CARTESIAN_POINT ( 'NONE',  ( 2.449293598294706119E-15, 0.000000000000000000, 20.00000000000000000 ) ) ;
#181 = CARTESIAN_POINT ( 'NONE',  ( 0.000000000000000000, 46.50000000000000000, 0.000000000000000000 ) ) ;
#182 = DIRECTION ( 'NONE',  ( 0.000000000000000000, 1.000000000000000000, 0.000000000000000000 ) ) ;
#183 = ORIENTED_EDGE ( 'NONE', *, *, #141, .F. ) ;
#184 = CARTESIAN_POINT ( 'NONE',  ( 0.000000000000000000, 46.50000000000000000, -20.00000000000000000 ) ) ;
#185 = CARTESIAN_POINT ( 'NONE',  ( -10.00000000000000178, -30.00000000000000000, -7.499999999999999112 ) ) ;
#186 = EDGE_CURVE ( 'NONE', #444, #484, #42, .T. ) ;
#187 = VECTOR ( 'NONE', #550, 1000.000000000000000 ) ;
#188 = DIRECTION ( 'NONE',  ( -0.000000000000000000, -1.000000000000000000, -0.000000000000000000 ) ) ;
#189 = DIRECTION ( 'NONE',  ( -0.000000000000000000, 1.000000000000000000, -0.000000000000000000 ) ) ;
#190 = VECTOR ( 'NONE', #601, 1000.000000000000000 ) ;
#191 = EDGE_CURVE ( 'NONE', #484, #308, #241, .T. ) ;
#192 = PERSON_AND_ORGANIZATION ( #26, #398 ) ;
#193 = DIRECTION ( 'NONE',  ( 0.000000000000000000, -0.000000000000000000, -1.000000000000000000 ) ) ;
#194 = EDGE_CURVE ( 'NONE', #357, #62, #578, .T. ) ;
#195 = CARTESIAN_POINT ( 'NONE',  ( 0.000000000000000000, -30.00000000000000000, 0.000000000000000000 ) ) ;
#196 = LINE ( 'NONE', #563, #446 ) ;
#197 = EDGE_CURVE ( 'NONE', #240, #346, #196, .T. ) ;
#198 = CARTESIAN_POINT ( 'NONE',  ( -10.00000000000000178, -30.00000000000000000, 17.32050807568877815 ) ) ;
#199 = VECTOR ( 'NONE', #189, 1000.000000000000000 ) ;
#200 = VECTOR ( 'NONE', #289, 1000.000000000000000 ) ;
#201 = CARTESIAN_POINT ( 'NONE',  ( 9.999999999999998224, -30.00000000000000000, -7.500000000000004441 ) ) ;
#202 = EDGE_CURVE ( 'NONE', #599, #220, #175, .T. ) ;
#203 = CARTESIAN_POINT ( 'NONE',  ( -10.00000000000000178, 0.000000000000000000, 11.31415043209165994 ) ) ;
#204 = ORIENTED_EDGE ( 'NONE', *, *, #205, .F. ) ;
#205 = EDGE_CURVE ( 'NONE', #217, #264, #263, .T. ) ;
#206 = CARTESIAN_POINT ( 'NONE',  ( -10.00000000000000178, -30.00000000000000000, 7.499999999999999112 ) ) ;
#207 = ORIENTED_EDGE ( 'NONE', *, *, #595, .F. ) ;
#208 = VECTOR ( 'NONE', #609, 1000.000000000000000 ) ;
#209 = VERTEX_POINT ( 'NONE', #476 ) ;
#210 = CIRCLE ( 'NONE', #30, 15.09999999999999787 ) ;
#211 = CARTESIAN_POINT ( 'NONE',  ( 2.449293598294706119E-15, 46.50000000000000000, 20.00000000000000000 ) ) ;
#212 = ORIENTED_EDGE ( 'NONE', *, *, #133, .F. ) ;
#213 = DATE_AND_TIME ( #370, #293 ) ;
#214 = EDGE_CURVE ( 'NONE', #433, #526, #511, .T. ) ;
#215 = CARTESIAN_POINT ( 'NONE',  ( 0.000000000000000000, 46.50000000000000000, -15.09999999999999787 ) ) ;
#216 = VERTEX_POINT ( 'NONE', #155 ) ;
#217 = VERTEX_POINT ( 'NONE', #9 ) ;
#218 = PERSON_AND_ORGANIZATION_ROLE ( 'creator' ) ;
#219 = LINE ( 'NONE', #367, #143 ) ;
#220 = VERTEX_POINT ( 'NONE', #582 ) ;
#221 = DATE_AND_TIME ( #250, #400 ) ;
#222 = VECTOR ( 'NONE', #414, 1000.000000000000000 ) ;
#223 = DIRECTION ( 'NONE',  ( 0.000000000000000000, 1.000000000000000000, 0.000000000000000000 ) ) ;
#224 = ORIENTED_EDGE ( 'NONE', *, *, #76, .T. ) ;
#225 = EDGE_CURVE ( 'NONE', #368, #356, #538, .T. ) ;
#226 = APPROVAL_DATE_TIME ( #221, #86 ) ;
#227 = CARTESIAN_POINT ( 'NONE',  ( 0.000000000000000000, 0.000000000000000000, 0.000000000000000000 ) ) ;
#228 = CARTESIAN_POINT ( 'NONE',  ( 1.849216666712502552E-15, 46.50000000000000000, 15.09999999999999787 ) ) ;
#229 = EDGE_CURVE ( 'NONE', #81, #264, #391, .T. ) ;
#230 = ORIENTED_EDGE ( 'NONE', *, *, #254, .F. ) ;
#231 = CARTESIAN_POINT ( 'NONE',  ( 0.000000000000000000, -30.00000000000000000, 0.000000000000000000 ) ) ;
#232 = FACE_OUTER_BOUND ( 'NONE', #605, .T. ) ;
#233 = LINE ( 'NONE', #420, #190 ) ;
#234 = VERTEX_POINT ( 'NONE', #206 ) ;
#235 = CIRCLE ( 'NONE', #120, 15.09999999999999787 ) ;
#236 = CARTESIAN_POINT ( 'NONE',  ( 10.00000000000000000, 0.000000000000000000, -17.32050807568877815 ) ) ;
#237 = CARTESIAN_POINT ( 'NONE',  ( 0.000000000000000000, 46.50000000000000000, -15.09999999999999787 ) ) ;
#238 = EDGE_CURVE ( 'NONE', #356, #81, #19, .T. ) ;
#239 = EDGE_CURVE ( 'NONE', #62, #260, #575, .T. ) ;
#240 = VERTEX_POINT ( 'NONE', #201 ) ;
#241 = CIRCLE ( 'NONE', #547, 20.00000000000000000 ) ;
#242 = CARTESIAN_POINT ( 'NONE',  ( 0.000000000000000000, 46.50000000000000000, 0.000000000000000000 ) ) ;
#243 = CARTESIAN_POINT ( 'NONE',  ( 9.999999999999998224, 0.000000000000000000, -17.32050807568877460 ) ) ;
#244 = AXIS2_PLACEMENT_3D ( 'NONE', #231, #274, #47 ) ;
#245 = CC_DESIGN_APPROVAL ( #52, ( #353 ) ) ;
#246 = PRODUCT ( 'stress_ring', 'stress_ring', '', ( #68 ) ) ;
#247 = DIRECTION ( 'NONE',  ( 0.000000000000000000, 1.000000000000000000, 0.000000000000000000 ) ) ;
#248 = CARTESIAN_POINT ( 'NONE',  ( 0.000000000000000000, 0.000000000000000000, 0.000000000000000000 ) ) ;
#249 = EDGE_LOOP ( 'NONE', ( #399, #24, #67, #486, #518 ) ) ;
#250 = CALENDAR_DATE ( 2025, 24, 11 ) ;
#251 = DIRECTION ( 'NONE',  ( -0.000000000000000000, 1.000000000000000000, -0.000000000000000000 ) ) ;
#252 = AXIS2_PLACEMENT_3D ( 'NONE', #29, #223, #500 ) ;
#253 = CARTESIAN_POINT ( 'NONE',  ( 0.000000000000000000, -30.00000000000000000, 0.000000000000000000 ) ) ;
#254 = EDGE_CURVE ( 'NONE', #220, #599, #313, .T. ) ;
#255 = CARTESIAN_POINT ( 'NONE',  ( 10.00000000000000000, -30.00000000000000000, -17.32050807568877815 ) ) ;
#256 = VERTEX_POINT ( 'NONE', #586 ) ;
#257 = DIRECTION ( 'NONE',  ( 0.000000000000000000, 1.000000000000000000, 0.000000000000000000 ) ) ;
#258 = PRODUCT_RELATED_PRODUCT_CATEGORY ( 'detail', '', ( #246 ) ) ;
#259 = DIRECTION ( 'NONE',  ( -0.000000000000000000, 0.000000000000000000, -1.000000000000000000 ) ) ;
#260 = VERTEX_POINT ( 'NONE', #394 ) ;
#261 = ADVANCED_FACE ( 'NONE', ( #355 ), #54, .F. ) ;
#262 = APPLICATION_CONTEXT ( 'configuration controlled 3d designs of mechanical parts and assemblies' ) ;
#263 = LINE ( 'NONE', #360, #417 ) ;
#264 = VERTEX_POINT ( 'NONE', #344 ) ;
#265 = AXIS2_PLACEMENT_3D ( 'NONE', #521, #48, #57 ) ;
#266 = APPROVAL_PERSON_ORGANIZATION ( #460, #126, #408 ) ;
#267 = ORIENTED_EDGE ( 'NONE', *, *, #101, .F. ) ;
#268 = APPROVAL_ROLE ( '' ) ;
#269 = APPROVAL_STATUS ( 'not_yet_approved' ) ;
#270 = VERTEX_POINT ( 'NONE', #113 ) ;
#271 = MANIFOLD_SOLID_BREP ( 'Boss-Extrude2', #459 ) ;
#272 = EDGE_LOOP ( 'NONE', ( #71, #18, #553, #111, #591, #393 ) ) ;
#273 = COORDINATED_UNIVERSAL_TIME_OFFSET ( 0, 0, .AHEAD. ) ;
#274 = DIRECTION ( 'NONE',  ( 0.000000000000000000, -1.000000000000000000, 0.000000000000000000 ) ) ;
#275 = FACE_OUTER_BOUND ( 'NONE', #122, .T. ) ;
#276 = ORIENTED_EDGE ( 'NONE', *, *, #197, .T. ) ;
#277 = AXIS2_PLACEMENT_3D ( 'NONE', #169, #422, #594 ) ;
#278 = PERSON_AND_ORGANIZATION ( #26, #398 ) ;
#279 = AXIS2_PLACEMENT_3D ( 'NONE', #69, #22, #409 ) ;
#280 = LOCAL_TIME ( 20, 6, 40.00000000000000000, #179 ) ;
#281 = CARTESIAN_POINT ( 'NONE',  ( 1.849216666712502552E-15, 0.000000000000000000, 15.09999999999999787 ) ) ;
#282 = FACE_OUTER_BOUND ( 'NONE', #439, .T. ) ;
#283 = ORIENTED_EDGE ( 'NONE', *, *, #238, .T. ) ;
#284 = CARTESIAN_POINT ( 'NONE',  ( 9.999999999999998224, -30.00000000000000000, 7.500000000000004441 ) ) ;
#285 = DIRECTION ( 'NONE',  ( 0.000000000000000000, -1.000000000000000000, 0.000000000000000000 ) ) ;
#286 = AXIS2_PLACEMENT_3D ( 'NONE', #7, #257, #50 ) ;
#287 = VECTOR ( 'NONE', #579, 1000.000000000000000 ) ;
#288 = DATE_AND_TIME ( #91, #280 ) ;
#289 = DIRECTION ( 'NONE',  ( -0.000000000000000000, -1.000000000000000000, -0.000000000000000000 ) ) ;
#290 = DIRECTION ( 'NONE',  ( -0.000000000000000000, 1.000000000000000000, -0.000000000000000000 ) ) ;
#291 = APPLICATION_CONTEXT ( 'configuration controlled 3d designs of mechanical parts and assemblies' ) ;
#292 = AXIS2_PLACEMENT_3D ( 'NONE', #431, #474, #2 ) ;
#293 = LOCAL_TIME ( 20, 6, 40.00000000000000000, #172 ) ;
#294 = DIRECTION ( 'NONE',  ( 0.000000000000000000, 0.000000000000000000, 1.000000000000000000 ) ) ;
#295 = COORDINATED_UNIVERSAL_TIME_OFFSET ( 0, 0, .AHEAD. ) ;
#296 = CARTESIAN_POINT ( 'NONE',  ( -10.00000000000000178, -30.00000000000000000, -17.32050807568877815 ) ) ;
#297 = DIRECTION ( 'NONE',  ( 0.000000000000000000, 0.000000000000000000, 1.000000000000000000 ) ) ;
#298 = ADVANCED_FACE ( 'NONE', ( #300 ), #160, .F. ) ;
#299 = EDGE_LOOP ( 'NONE', ( #283, #316, #204, #159, #494 ) ) ;
#300 = FACE_OUTER_BOUND ( 'NONE', #534, .T. ) ;
#301 = DIRECTION ( 'NONE',  ( 0.000000000000000000, 1.000000000000000000, 0.000000000000000000 ) ) ;
#302 = CIRCLE ( 'NONE', #340, 20.00000000000000355 ) ;
#303 = ORIENTED_EDGE ( 'NONE', *, *, #229, .F. ) ;
#304 = VECTOR ( 'NONE', #402, 1000.000000000000000 ) ;
#305 = PLANE ( 'NONE',  #381 ) ;
#306 = ORIENTED_EDGE ( 'NONE', *, *, #426, .T. ) ;
#307 = CARTESIAN_POINT ( 'NONE',  ( 0.000000000000000000, 46.50000000000000000, 0.000000000000000000 ) ) ;
#308 = VERTEX_POINT ( 'NONE', #61 ) ;
#309 = ORIENTED_EDGE ( 'NONE', *, *, #214, .T. ) ;
#310 = CARTESIAN_POINT ( 'NONE',  ( 0.000000000000000000, 46.50000000000000000, 0.000000000000000000 ) ) ;
#311 = DIRECTION ( 'NONE',  ( 0.000000000000000000, -1.000000000000000000, 0.000000000000000000 ) ) ;
#312 = CIRCLE ( 'NONE', #427, 15.09999999999999787 ) ;
#313 = CIRCLE ( 'NONE', #351, 20.00000000000000000 ) ;
#314 = CARTESIAN_POINT ( 'NONE',  ( 1.849216666712502552E-15, 46.50000000000000000, 15.09999999999999787 ) ) ;
#315 = DIRECTION ( 'NONE',  ( 0.000000000000000000, 0.000000000000000000, -1.000000000000000000 ) ) ;
#316 = ORIENTED_EDGE ( 'NONE', *, *, #229, .T. ) ;
#317 = APPROVAL_DATE_TIME ( #485, #52 ) ;
#318 = ORIENTED_EDGE ( 'NONE', *, *, #533, .T. ) ;
#319 = ADVANCED_FACE ( 'NONE', ( #103 ), #121, .F. ) ;
#320 = CARTESIAN_POINT ( 'NONE',  ( 0.000000000000000000, 0.000000000000000000, 0.000000000000000000 ) ) ;
#321 = CARTESIAN_POINT ( 'NONE',  ( -10.00000000000000178, 0.000000000000000000, -7.499999999999999112 ) ) ;
#322 = EDGE_CURVE ( 'NONE', #599, #368, #110, .T. ) ;
#323 = CARTESIAN_POINT ( 'NONE',  ( -10.00000000000000178, 0.000000000000000000, 7.499999999999999112 ) ) ;
#324 = AXIS2_PLACEMENT_3D ( 'NONE', #17, #479, #483 ) ;
#325 = ORIENTED_EDGE ( 'NONE', *, *, #533, .F. ) ;
#326 = LINE ( 'NONE', #284, #428 ) ;
#327 = CARTESIAN_POINT ( 'NONE',  ( 0.000000000000000000, -30.00000000000000000, 0.000000000000000000 ) ) ;
#328 = CARTESIAN_POINT ( 'NONE',  ( 0.000000000000000000, 0.000000000000000000, 0.000000000000000000 ) ) ;
#329 = CARTESIAN_POINT ( 'NONE',  ( -10.00000000000000178, 0.000000000000000000, -17.32050807568877460 ) ) ;
#330 = AXIS2_PLACEMENT_3D ( 'NONE', #195, #386, #339 ) ;
#331 = DIRECTION ( 'NONE',  ( 0.000000000000000000, -1.000000000000000000, 0.000000000000000000 ) ) ;
#332 = CARTESIAN_POINT ( 'NONE',  ( 0.000000000000000000, 0.000000000000000000, 0.000000000000000000 ) ) ;
#333 = FACE_OUTER_BOUND ( 'NONE', #565, .T. ) ;
#334 = ADVANCED_FACE ( 'NONE', ( #535, #157 ), #305, .T. ) ;
#335 = LINE ( 'NONE', #606, #375 ) ;
#336 = LINE ( 'NONE', #296, #208 ) ;
#337 = CARTESIAN_POINT ( 'NONE',  ( 0.000000000000000000, -30.00000000000000000, 0.000000000000000000 ) ) ;
#338 = AXIS2_PLACEMENT_3D ( 'NONE', #85, #182, #379 ) ;
#339 = DIRECTION ( 'NONE',  ( 0.000000000000000000, 0.000000000000000000, 1.000000000000000000 ) ) ;
#340 = AXIS2_PLACEMENT_3D ( 'NONE', #337, #311, #315 ) ;
#341 = ORIENTED_EDGE ( 'NONE', *, *, #168, .T. ) ;
#342 = EDGE_CURVE ( 'NONE', #346, #484, #490, .T. ) ;
#343 = EDGE_LOOP ( 'NONE', ( #432, #403, #587, #267, #325, #79, #421, #412 ) ) ;
#344 = CARTESIAN_POINT ( 'NONE',  ( 9.999999999999998224, 0.000000000000000000, 7.500000000000004441 ) ) ;
#345 = CARTESIAN_POINT ( 'NONE',  ( 9.999999999999998224, 0.000000000000000000, -11.31415043209166349 ) ) ;
#346 = VERTEX_POINT ( 'NONE', #255 ) ;
#347 = EDGE_CURVE ( 'NONE', #13, #209, #177, .T. ) ;
#348 = EDGE_CURVE ( 'NONE', #444, #260, #77, .T. ) ;
#349 = DIRECTION ( 'NONE',  ( -1.000000000000000000, 0.000000000000000000, 0.000000000000000000 ) ) ;
#350 = AXIS2_PLACEMENT_3D ( 'NONE', #600, #546, #590 ) ;
#351 = AXIS2_PLACEMENT_3D ( 'NONE', #307, #524, #571 ) ;
#352 = EDGE_LOOP ( 'NONE', ( #580, #230, #361, #108, #354, #407, #604, #224 ) ) ;
#353 = SECURITY_CLASSIFICATION ( '', '', #41 ) ;
#354 = ORIENTED_EDGE ( 'NONE', *, *, #171, .F. ) ;
#355 = FACE_OUTER_BOUND ( 'NONE', #363, .T. ) ;
#356 = VERTEX_POINT ( 'NONE', #37 ) ;
#357 = VERTEX_POINT ( 'NONE', #314 ) ;
#358 = DIRECTION ( 'NONE',  ( 0.000000000000000000, 1.000000000000000000, 0.000000000000000000 ) ) ;
#359 = ORIENTED_EDGE ( 'NONE', *, *, #153, .T. ) ;
#360 = CARTESIAN_POINT ( 'NONE',  ( 9.999999999999998224, -30.00000000000000000, 7.500000000000004441 ) ) ;
#361 = ORIENTED_EDGE ( 'NONE', *, *, #557, .T. ) ;
#362 = EDGE_CURVE ( 'NONE', #256, #444, #233, .T. ) ;
#363 = EDGE_LOOP ( 'NONE', ( #303, #472, #163, #540 ) ) ;
#364 = VECTOR ( 'NONE', #397, 1000.000000000000000 ) ;
#365 = DATE_TIME_ROLE ( 'creation_date' ) ;
#366 = APPROVAL_PERSON_ORGANIZATION ( #496, #86, #32 ) ;
#367 = CARTESIAN_POINT ( 'NONE',  ( -10.00000000000000178, 0.000000000000000000, -17.32050807568877815 ) ) ;
#368 = VERTEX_POINT ( 'NONE', #180 ) ;
#369 = ORIENTED_EDGE ( 'NONE', *, *, #194, .T. ) ;
#370 = CALENDAR_DATE ( 2025, 24, 11 ) ;
#371 = PRODUCT_DEFINITION_SHAPE ( 'NONE', 'NONE',  #434 ) ;
#372 = EDGE_CURVE ( 'NONE', #448, #433, #5, .T. ) ;
#373 = CYLINDRICAL_SURFACE ( 'NONE', #350, 15.09999999999999787 ) ;
#374 = VECTOR ( 'NONE', #290, 1000.000000000000000 ) ;
#375 = VECTOR ( 'NONE', #522, 1000.000000000000000 ) ;
#376 = ORIENTED_EDGE ( 'NONE', *, *, #475, .F. ) ;
#377 = PLANE ( 'NONE',  #338 ) ;
#378 = CC_DESIGN_PERSON_AND_ORGANIZATION_ASSIGNMENT ( #80, #512, ( #353 ) ) ;
#379 = DIRECTION ( 'NONE',  ( 0.000000000000000000, -0.000000000000000000, 1.000000000000000000 ) ) ;
#380 = EDGE_LOOP ( 'NONE', ( #544, #451, #592, #14, #455, #162 ) ) ;
#381 = AXIS2_PLACEMENT_3D ( 'NONE', #310, #358, #115 ) ;
#382 = ORIENTED_EDGE ( 'NONE', *, *, #348, .F. ) ;
#383 = DIRECTION ( 'NONE',  ( 0.000000000000000000, 0.000000000000000000, -1.000000000000000000 ) ) ;
#384 = CARTESIAN_POINT ( 'NONE',  ( 0.000000000000000000, 0.000000000000000000, 0.000000000000000000 ) ) ;
#385 = ADVANCED_FACE ( 'NONE', ( #123 ), #593, .F. ) ;
#386 = DIRECTION ( 'NONE',  ( -0.000000000000000000, 1.000000000000000000, -0.000000000000000000 ) ) ;
#387 = EDGE_CURVE ( 'NONE', #308, #125, #389, .T. ) ;
#388 = LINE ( 'NONE', #559, #503 ) ;
#389 = CIRCLE ( 'NONE', #504, 20.00000000000000000 ) ;
#390 = PERSON_AND_ORGANIZATION ( #26, #398 ) ;
#391 = LINE ( 'NONE', #442, #418 ) ;
#392 = CC_DESIGN_PERSON_AND_ORGANIZATION_ASSIGNMENT ( #456, #545, ( #107 ) ) ;
#393 = ORIENTED_EDGE ( 'NONE', *, *, #449, .T. ) ;
#394 = CARTESIAN_POINT ( 'NONE',  ( 0.000000000000000000, 0.000000000000000000, -15.09999999999999787 ) ) ;
#395 = ORIENTED_EDGE ( 'NONE', *, *, #76, .F. ) ;
#396 = EDGE_CURVE ( 'NONE', #264, #256, #16, .T. ) ;
#397 = DIRECTION ( 'NONE',  ( -0.000000000000000000, 1.000000000000000000, -0.000000000000000000 ) ) ;
#398 = ORGANIZATION ( 'UNSPECIFIED', 'UNSPECIFIED', '' ) ;
#399 = ORIENTED_EDGE ( 'NONE', *, *, #362, .T. ) ;
#400 = LOCAL_TIME ( 20, 6, 40.00000000000000000, #273 ) ;
#401 = ORIENTED_EDGE ( 'NONE', *, *, #573, .F. ) ;
#402 = DIRECTION ( 'NONE',  ( -0.000000000000000000, -1.000000000000000000, -0.000000000000000000 ) ) ;
#403 = ORIENTED_EDGE ( 'NONE', *, *, #322, .T. ) ;
#404 = CARTESIAN_POINT ( 'NONE',  ( 0.000000000000000000, 0.000000000000000000, 0.000000000000000000 ) ) ;
#405 = DIRECTION ( 'NONE',  ( 0.000000000000000000, 0.000000000000000000, -1.000000000000000000 ) ) ;
#406 = DIRECTION ( 'NONE',  ( 0.000000000000000000, 0.000000000000000000, -1.000000000000000000 ) ) ;
#407 = ORIENTED_EDGE ( 'NONE', *, *, #419, .F. ) ;
#408 = APPROVAL_ROLE ( '' ) ;
#409 = DIRECTION ( 'NONE',  ( 0.000000000000000000, 0.000000000000000000, 1.000000000000000000 ) ) ;
#410 = DIRECTION ( 'NONE',  ( -0.000000000000000000, -0.000000000000000000, -1.000000000000000000 ) ) ;
#411 = DIRECTION ( 'NONE',  ( 0.000000000000000000, -0.000000000000000000, -1.000000000000000000 ) ) ;
#412 = ORIENTED_EDGE ( 'NONE', *, *, #557, .F. ) ;
#413 = PERSON_AND_ORGANIZATION ( #26, #398 ) ;
#414 = DIRECTION ( 'NONE',  ( -0.000000000000000000, 1.000000000000000000, -0.000000000000000000 ) ) ;
#415 = ORIENTED_EDGE ( 'NONE', *, *, #464, .T. ) ;
#416 = CARTESIAN_POINT ( 'NONE',  ( 9.999999999999998224, -30.00000000000000000, 17.32050807568878170 ) ) ;
#417 = VECTOR ( 'NONE', #251, 1000.000000000000000 ) ;
#418 = VECTOR ( 'NONE', #537, 1000.000000000000000 ) ;
#419 = EDGE_CURVE ( 'NONE', #158, #270, #302, .T. ) ;
#420 = CARTESIAN_POINT ( 'NONE',  ( 9.999999999999998224, 0.000000000000000000, -17.32050807568877460 ) ) ;
#421 = ORIENTED_EDGE ( 'NONE', *, *, #191, .T. ) ;
#422 = DIRECTION ( 'NONE',  ( 0.000000000000000000, 1.000000000000000000, 0.000000000000000000 ) ) ;
#423 = DIRECTION ( 'NONE',  ( 0.000000000000000000, -1.000000000000000000, 0.000000000000000000 ) ) ;
#424 = CYLINDRICAL_SURFACE ( 'NONE', #539, 20.00000000000000000 ) ;
#425 = DIRECTION ( 'NONE',  ( 0.000000000000000000, 0.000000000000000000, -1.000000000000000000 ) ) ;
#426 = EDGE_CURVE ( 'NONE', #125, #448, #491, .T. ) ;
#427 = AXIS2_PLACEMENT_3D ( 'NONE', #465, #607, #3 ) ;
#428 = VECTOR ( 'NONE', #410, 1000.000000000000000 ) ;
#429 = PLANE ( 'NONE',  #165 ) ;
#430 = FACE_OUTER_BOUND ( 'NONE', #454, .T. ) ;
#431 = CARTESIAN_POINT ( 'NONE',  ( 0.000000000000000000, 46.50000000000000000, 0.000000000000000000 ) ) ;
#432 = ORIENTED_EDGE ( 'NONE', *, *, #202, .F. ) ;
#433 = VERTEX_POINT ( 'NONE', #203 ) ;
#434 = PRODUCT_DEFINITION ( 'UNKNOWN', '', #107, #510 ) ;
#435 = VECTOR ( 'NONE', #97, 1000.000000000000000 ) ;
#436 = DIRECTION ( 'NONE',  ( 0.000000000000000000, 1.000000000000000000, 0.000000000000000000 ) ) ;
#437 = AXIS2_PLACEMENT_3D ( 'NONE', #332, #516, #560 ) ;
#438 = VERTEX_POINT ( 'NONE', #147 ) ;
#439 = EDGE_LOOP ( 'NONE', ( #105, #276, #318, #138 ) ) ;
#440 = APPLICATION_PROTOCOL_DEFINITION ( 'international standard', 'config_control_design', 1994, #262 ) ;
#441 = DIRECTION ( 'NONE',  ( -0.000000000000000000, -1.000000000000000000, -0.000000000000000000 ) ) ;
#442 = CARTESIAN_POINT ( 'NONE',  ( 9.999999999999998224, 0.000000000000000000, 7.500000000000004441 ) ) ;
#443 = LINE ( 'NONE', #12, #364 ) ;
#444 = VERTEX_POINT ( 'NONE', #345 ) ;
#445 = DIRECTION ( 'NONE',  ( 0.000000000000000000, 0.000000000000000000, 1.000000000000000000 ) ) ;
#446 = VECTOR ( 'NONE', #142, 1000.000000000000000 ) ;
#447 = VECTOR ( 'NONE', #441, 1000.000000000000000 ) ;
#448 = VERTEX_POINT ( 'NONE', #525 ) ;
#449 = EDGE_CURVE ( 'NONE', #260, #448, #210, .T. ) ;
#450 = CARTESIAN_POINT ( 'NONE',  ( 10.00000000000000000, -30.00000000000000000, -17.32050807568877815 ) ) ;
#451 = ORIENTED_EDGE ( 'NONE', *, *, #95, .T. ) ;
#452 = ADVANCED_FACE ( 'NONE', ( #150 ), #481, .F. ) ;
#453 = DIRECTION ( 'NONE',  ( 0.000000000000000000, 0.000000000000000000, 1.000000000000000000 ) ) ;
#454 = EDGE_LOOP ( 'NONE', ( #8, #156, #212, #359 ) ) ;
#455 = ORIENTED_EDGE ( 'NONE', *, *, #449, .F. ) ;
#456 = PERSON_AND_ORGANIZATION ( #26, #398 ) ;
#457 = CC_DESIGN_DATE_AND_TIME_ASSIGNMENT ( #288, #515, ( #353 ) ) ;
#458 = DIRECTION ( 'NONE',  ( 0.000000000000000000, 0.000000000000000000, 1.000000000000000000 ) ) ;
#459 = CLOSED_SHELL ( 'NONE', ( #98, #495, #109, #385, #334, #568, #23, #261, #43, #452, #319, #58, #135, #581, #298, #577, #552 ) ) ;
#460 = PERSON_AND_ORGANIZATION ( #26, #398 ) ;
#461 = EDGE_CURVE ( 'NONE', #158, #216, #443, .T. ) ;
#462 = ORIENTED_EDGE ( 'NONE', *, *, #549, .T. ) ;
#463 = CIRCLE ( 'NONE', #75, 12.50000000000000000 ) ;
#464 = EDGE_CURVE ( 'NONE', #448, #13, #219, .T. ) ;
#465 = CARTESIAN_POINT ( 'NONE',  ( 0.000000000000000000, 46.50000000000000000, 0.000000000000000000 ) ) ;
#466 = CC_DESIGN_PERSON_AND_ORGANIZATION_ASSIGNMENT ( #413, #218, ( #434 ) ) ;
#467 = CARTESIAN_POINT ( 'NONE',  ( -10.00000000000001066, -30.00000000000000000, -17.32050807568877104 ) ) ;
#468 = VECTOR ( 'NONE', #132, 1000.000000000000000 ) ;
#469 = AXIS2_PLACEMENT_3D ( 'NONE', #51, #555, #140 ) ;
#470 = DIRECTION ( 'NONE',  ( -1.000000000000000000, 0.000000000000000000, 0.000000000000000000 ) ) ;
#471 = DIRECTION ( 'NONE',  ( 0.000000000000000000, 0.000000000000000000, 1.000000000000000000 ) ) ;
#472 = ORIENTED_EDGE ( 'NONE', *, *, #573, .T. ) ;
#473 = FACE_OUTER_BOUND ( 'NONE', #167, .T. ) ;
#474 = DIRECTION ( 'NONE',  ( 0.000000000000000000, 1.000000000000000000, 0.000000000000000000 ) ) ;
#475 = EDGE_CURVE ( 'NONE', #240, #256, #508, .T. ) ;
#476 = CARTESIAN_POINT ( 'NONE',  ( -10.00000000000000178, 0.000000000000000000, 7.499999999999999112 ) ) ;
#477 = AXIS2_PLACEMENT_3D ( 'NONE', #498, #598, #406 ) ;
#478 =( NAMED_UNIT ( * ) SI_UNIT ( $, .STERADIAN. ) SOLID_ANGLE_UNIT ( ) );
#479 = DIRECTION ( 'NONE',  ( 1.000000000000000000, 0.000000000000000000, -0.000000000000000000 ) ) ;
#480 = VECTOR ( 'NONE', #65, 1000.000000000000000 ) ;
#481 = PLANE ( 'NONE',  #492 ) ;
#482 = ORIENTED_EDGE ( 'NONE', *, *, #464, .F. ) ;
#483 = DIRECTION ( 'NONE',  ( -0.000000000000000000, 0.000000000000000000, -1.000000000000000000 ) ) ;
#484 = VERTEX_POINT ( 'NONE', #236 ) ;
#485 = DATE_AND_TIME ( #152, #78 ) ;
#486 = ORIENTED_EDGE ( 'NONE', *, *, #197, .F. ) ;
#487 = CARTESIAN_POINT ( 'NONE',  ( -10.00000000000000178, -30.00000000000000000, 7.499999999999999112 ) ) ;
#488 = EDGE_CURVE ( 'NONE', #588, #217, #326, .T. ) ;
#489 = ORIENTED_EDGE ( 'NONE', *, *, #225, .F. ) ;
#490 = LINE ( 'NONE', #450, #480 ) ;
#491 = LINE ( 'NONE', #66, #610 ) ;
#492 = AXIS2_PLACEMENT_3D ( 'NONE', #530, #59, #259 ) ;
#493 = ORIENTED_EDGE ( 'NONE', *, *, #73, .F. ) ;
#494 = ORIENTED_EDGE ( 'NONE', *, *, #101, .T. ) ;
#495 = ADVANCED_FACE ( 'NONE', ( #501 ), #35, .T. ) ;
#496 = PERSON_AND_ORGANIZATION ( #26, #398 ) ;
#497 = DIRECTION ( 'NONE',  ( 0.000000000000000000, 0.000000000000000000, -1.000000000000000000 ) ) ;
#498 = CARTESIAN_POINT ( 'NONE',  ( 0.000000000000000000, 46.50000000000000000, 0.000000000000000000 ) ) ;
#499 = CALENDAR_DATE ( 2025, 24, 11 ) ;
#500 = DIRECTION ( 'NONE',  ( 0.000000000000000000, 0.000000000000000000, 1.000000000000000000 ) ) ;
#501 = FACE_OUTER_BOUND ( 'NONE', #343, .T. ) ;
#502 = LINE ( 'NONE', #228, #63 ) ;
#503 = VECTOR ( 'NONE', #471, 1000.000000000000000 ) ;
#504 = AXIS2_PLACEMENT_3D ( 'NONE', #569, #145, #297 ) ;
#505 = APPROVAL_STATUS ( 'not_yet_approved' ) ;
#506 = CC_DESIGN_PERSON_AND_ORGANIZATION_ASSIGNMENT ( #390, #603, ( #107 ) ) ;
#507 = CARTESIAN_POINT ( 'NONE',  ( 9.999999999999998224, 0.000000000000000000, 11.31415043209166349 ) ) ;
#508 = LINE ( 'NONE', #84, #222 ) ;
#509 = CARTESIAN_POINT ( 'NONE',  ( 0.000000000000000000, -30.00000000000000000, 0.000000000000000000 ) ) ;
#510 = DESIGN_CONTEXT ( 'detailed design', #291, 'design' ) ;
#511 = CIRCLE ( 'NONE', #38, 15.09999999999999787 ) ;
#512 = PERSON_AND_ORGANIZATION_ROLE ( 'classification_officer' ) ;
#513 = CIRCLE ( 'NONE', #519, 12.50000000000000000 ) ;
#514 = DIRECTION ( 'NONE',  ( 0.000000000000000000, 0.000000000000000000, 1.000000000000000000 ) ) ;
#515 = DATE_TIME_ROLE ( 'classification_date' ) ;
#516 = DIRECTION ( 'NONE',  ( 0.000000000000000000, 1.000000000000000000, 0.000000000000000000 ) ) ;
#517 = LINE ( 'NONE', #467, #374 ) ;
#518 = ORIENTED_EDGE ( 'NONE', *, *, #475, .T. ) ;
#519 = AXIS2_PLACEMENT_3D ( 'NONE', #253, #27, #405 ) ;
#520 = CARTESIAN_POINT ( 'NONE',  ( 9.999999999999998224, -30.00000000000000000, 17.32050807568878170 ) ) ;
#521 = CARTESIAN_POINT ( 'NONE',  ( 0.000000000000000000, 46.50000000000000000, 0.000000000000000000 ) ) ;
#522 = DIRECTION ( 'NONE',  ( -0.000000000000000000, 1.000000000000000000, -0.000000000000000000 ) ) ;
#523 = CARTESIAN_POINT ( 'NONE',  ( -10.00000000000000178, 0.000000000000000000, 7.499999999999999112 ) ) ;
#524 = DIRECTION ( 'NONE',  ( 0.000000000000000000, 1.000000000000000000, 0.000000000000000000 ) ) ;
#525 = CARTESIAN_POINT ( 'NONE',  ( -10.00000000000000178, 0.000000000000000000, -11.31415043209165994 ) ) ;
#526 = VERTEX_POINT ( 'NONE', #281 ) ;
#527 = EDGE_CURVE ( 'NONE', #526, #81, #235, .T. ) ;
#528 = AXIS2_PLACEMENT_3D ( 'NONE', #328, #83, #589 ) ;
#529 = DIRECTION ( 'NONE',  ( 0.000000000000000000, 0.000000000000000000, 1.000000000000000000 ) ) ;
#530 = CARTESIAN_POINT ( 'NONE',  ( 9.999999999999998224, -30.00000000000000000, -17.32050807568877460 ) ) ;
#531 = EDGE_LOOP ( 'NONE', ( #36, #20 ) ) ;
#532 = DIRECTION ( 'NONE',  ( 0.000000000000000000, -1.000000000000000000, 0.000000000000000000 ) ) ;
#533 = EDGE_CURVE ( 'NONE', #346, #588, #558, .T. ) ;
#534 = EDGE_LOOP ( 'NONE', ( #341, #128, #114, #176, #462 ) ) ;
#535 = FACE_OUTER_BOUND ( 'NONE', #531, .T. ) ;
#536 = EDGE_LOOP ( 'NONE', ( #306, #415, #118, #183, #94 ) ) ;
#537 = DIRECTION ( 'NONE',  ( -0.000000000000000000, -0.000000000000000000, -1.000000000000000000 ) ) ;
#538 = CIRCLE ( 'NONE', #286, 20.00000000000000000 ) ;
#539 = AXIS2_PLACEMENT_3D ( 'NONE', #242, #188, #383 ) ;
#540 = ORIENTED_EDGE ( 'NONE', *, *, #396, .F. ) ;
#541 = CARTESIAN_POINT ( 'NONE',  ( 2.449293598294706119E-15, 46.50000000000000000, 20.00000000000000000 ) ) ;
#542 = DIRECTION ( 'NONE',  ( 0.000000000000000000, 0.000000000000000000, 1.000000000000000000 ) ) ;
#543 = PLANE ( 'NONE',  #15 ) ;
#544 = ORIENTED_EDGE ( 'NONE', *, *, #139, .T. ) ;
#545 = PERSON_AND_ORGANIZATION_ROLE ( 'creator' ) ;
#546 = DIRECTION ( 'NONE',  ( -0.000000000000000000, -1.000000000000000000, -0.000000000000000000 ) ) ;
#547 = AXIS2_PLACEMENT_3D ( 'NONE', #46, #247, #294 ) ;
#548 =( GEOMETRIC_REPRESENTATION_CONTEXT ( 3 ) GLOBAL_UNCERTAINTY_ASSIGNED_CONTEXT ( ( #92 ) ) GLOBAL_UNIT_ASSIGNED_CONTEXT ( ( #49, #585, #478 ) ) REPRESENTATION_CONTEXT ( 'NONE', 'WORKASPACE' ) );
#549 = EDGE_CURVE ( 'NONE', #234, #209, #335, .T. ) ;
#550 = DIRECTION ( 'NONE',  ( 0.000000000000000000, 0.000000000000000000, 1.000000000000000000 ) ) ;
#551 = DIRECTION ( 'NONE',  ( -0.000000000000000000, 1.000000000000000000, -0.000000000000000000 ) ) ;
#552 = ADVANCED_FACE ( 'NONE', ( #473 ), #566, .T. ) ;
#553 = ORIENTED_EDGE ( 'NONE', *, *, #191, .F. ) ;
#554 = DIRECTION ( 'NONE',  ( -0.000000000000000000, 1.000000000000000000, -0.000000000000000000 ) ) ;
#555 = DIRECTION ( 'NONE',  ( -0.000000000000000000, 1.000000000000000000, -0.000000000000000000 ) ) ;
#556 = AXIS2_PLACEMENT_3D ( 'NONE', #130, #551, #458 ) ;
#557 = EDGE_CURVE ( 'NONE', #220, #308, #40, .T. ) ;
#558 = CIRCLE ( 'NONE', #244, 20.00000000000000355 ) ;
#559 = CARTESIAN_POINT ( 'NONE',  ( -10.00000000000000178, -30.00000000000000000, 7.499999999999999112 ) ) ;
#560 = DIRECTION ( 'NONE',  ( 0.000000000000000000, 0.000000000000000000, 1.000000000000000000 ) ) ;
#561 = DIRECTION ( 'NONE',  ( 0.000000000000000000, 1.000000000000000000, 0.000000000000000000 ) ) ;
#562 = DIRECTION ( 'NONE',  ( 0.000000000000000000, -0.000000000000000000, -1.000000000000000000 ) ) ;
#563 = CARTESIAN_POINT ( 'NONE',  ( 9.999999999999998224, -30.00000000000000000, -17.32050807568877460 ) ) ;
#564 = LOCAL_TIME ( 20, 6, 40.00000000000000000, #295 ) ;
#565 = EDGE_LOOP ( 'NONE', ( #70, #60, #102, #482 ) ) ;
#566 = PLANE ( 'NONE',  #44 ) ;
#567 = LINE ( 'NONE', #523, #4 ) ;
#568 = ADVANCED_FACE ( 'NONE', ( #608 ), #424, .T. ) ;
#569 = CARTESIAN_POINT ( 'NONE',  ( 0.000000000000000000, 0.000000000000000000, 0.000000000000000000 ) ) ;
#570 = DIRECTION ( 'NONE',  ( 1.000000000000000000, 0.000000000000000000, 0.000000000000000000 ) ) ;
#571 = DIRECTION ( 'NONE',  ( 0.000000000000000000, 0.000000000000000000, 1.000000000000000000 ) ) ;
#572 = EDGE_LOOP ( 'NONE', ( #493, #309, #576, #112, #489, #395 ) ) ;
#573 = EDGE_CURVE ( 'NONE', #81, #444, #89, .T. ) ;
#574 = EDGE_LOOP ( 'NONE', ( #148, #21 ) ) ;
#575 = LINE ( 'NONE', #215, #447 ) ;
#576 = ORIENTED_EDGE ( 'NONE', *, *, #527, .T. ) ;
#577 = ADVANCED_FACE ( 'NONE', ( #93 ), #429, .F. ) ;
#578 = CIRCLE ( 'NONE', #292, 15.09999999999999787 ) ;
#579 = DIRECTION ( 'NONE',  ( -0.000000000000000000, -0.000000000000000000, -1.000000000000000000 ) ) ;
#580 = ORIENTED_EDGE ( 'NONE', *, *, #322, .F. ) ;
#581 = ADVANCED_FACE ( 'NONE', ( #430 ), #1, .F. ) ;
#582 = CARTESIAN_POINT ( 'NONE',  ( 0.000000000000000000, 46.50000000000000000, -20.00000000000000000 ) ) ;
#583 = ORIENTED_EDGE ( 'NONE', *, *, #205, .T. ) ;
#584 = SHAPE_DEFINITION_REPRESENTATION ( #371, #87 ) ;
#585 =( NAMED_UNIT ( * ) PLANE_ANGLE_UNIT ( ) SI_UNIT ( $, .RADIAN. ) );
#586 = CARTESIAN_POINT ( 'NONE',  ( 9.999999999999998224, 0.000000000000000000, -7.500000000000004441 ) ) ;
#587 = ORIENTED_EDGE ( 'NONE', *, *, #225, .T. ) ;
#588 = VERTEX_POINT ( 'NONE', #520 ) ;
#589 = DIRECTION ( 'NONE',  ( 0.000000000000000000, 0.000000000000000000, -1.000000000000000000 ) ) ;
#590 = DIRECTION ( 'NONE',  ( 0.000000000000000000, 0.000000000000000000, -1.000000000000000000 ) ) ;
#591 = ORIENTED_EDGE ( 'NONE', *, *, #348, .T. ) ;
#592 = ORIENTED_EDGE ( 'NONE', *, *, #214, .F. ) ;
#593 = PLANE ( 'NONE',  #134 ) ;
#594 = DIRECTION ( 'NONE',  ( 0.000000000000000000, 0.000000000000000000, 1.000000000000000000 ) ) ;
#595 = EDGE_CURVE ( 'NONE', #217, #240, #513, .T. ) ;
#596 = ORIENTED_EDGE ( 'NONE', *, *, #396, .T. ) ;
#597 = APPLICATION_PROTOCOL_DEFINITION ( 'international standard', 'config_control_design', 1994, #291 ) ;
#598 = DIRECTION ( 'NONE',  ( -0.000000000000000000, -1.000000000000000000, -0.000000000000000000 ) ) ;
#599 = VERTEX_POINT ( 'NONE', #541 ) ;
#600 = CARTESIAN_POINT ( 'NONE',  ( 0.000000000000000000, 46.50000000000000000, 0.000000000000000000 ) ) ;
#601 = DIRECTION ( 'NONE',  ( -0.000000000000000000, -0.000000000000000000, -1.000000000000000000 ) ) ;
#602 = DIRECTION ( 'NONE',  ( -0.000000000000000000, -1.000000000000000000, -0.000000000000000000 ) ) ;
#603 = PERSON_AND_ORGANIZATION_ROLE ( 'design_supplier' ) ;
#604 = ORIENTED_EDGE ( 'NONE', *, *, #461, .T. ) ;
#605 = EDGE_LOOP ( 'NONE', ( #596, #376, #207, #583 ) ) ;
#606 = CARTESIAN_POINT ( 'NONE',  ( -10.00000000000000178, -30.00000000000000000, 7.499999999999999112 ) ) ;
#607 = DIRECTION ( 'NONE',  ( 0.000000000000000000, 1.000000000000000000, 0.000000000000000000 ) ) ;
#608 = FACE_OUTER_BOUND ( 'NONE', #352, .T. ) ;
#609 = DIRECTION ( 'NONE',  ( 0.000000000000000000, 0.000000000000000000, 1.000000000000000000 ) ) ;
#610 = VECTOR ( 'NONE', #453, 1000.000000000000000 ) ;
#611 = PLANE ( 'NONE',  #164 ) ;
ENDSEC;
END-ISO-10303-21;
