ISO-10303-21;
HEADER;
FILE_DESCRIPTION (( 'STEP AP203' ),
    '1' );
FILE_NAME ('support_plate.STEP',
    '2025-12-05T15:00:16',
    ( '' ),
    ( '' ),
    'SwSTEP 2.0',
    'SolidWorks 2020',
    '' );
FILE_SCHEMA (( 'CONFIG_CONTROL_DESIGN' ));
ENDSEC;

DATA;
#1 = LINE ( 'NONE', #102, #110 ) ;
#2 = ORIENTED_EDGE ( 'NONE', *, *, #510, .F. ) ;
#3 = APPLICATION_PROTOCOL_DEFINITION ( 'international standard', 'config_control_design', 1994, #565 ) ;
#4 = CARTESIAN_POINT ( 'NONE',  ( 4.898587196589415787E-16, -4.000000000000001776, -25.00000000000000000 ) ) ;
#5 = SECURITY_CLASSIFICATION_LEVEL ( 'unclassified' ) ;
#6 = FACE_BOUND ( 'NONE', #455, .T. ) ;
#7 = CIRCLE ( 'NONE', #333, 1.000000000000000000 ) ;
#8 = AXIS2_PLACEMENT_3D ( 'NONE', #476, #372, #287 ) ;
#9 = DIRECTION ( 'NONE',  ( 1.000000000000000000, 0.000000000000000000, 0.000000000000000000 ) ) ;
#10 = DIRECTION ( 'NONE',  ( -1.000000000000000000, -1.239088197126290817E-16, 0.000000000000000000 ) ) ;
#11 = ORIENTED_EDGE ( 'NONE', *, *, #30, .F. ) ;
#12 = CARTESIAN_POINT ( 'NONE',  ( 7.347880794884121708E-16, -6.000000000000001776, -25.00000000000000000 ) ) ;
#13 = UNCERTAINTY_MEASURE_WITH_UNIT (LENGTH_MEASURE( 1.000000000000000082E-05 ), #513, 'distance_accuracy_value', 'NONE');
#14 = CIRCLE ( 'NONE', #453, 2.549999999999999822 ) ;
#15 = CIRCLE ( 'NONE', #100, 34.00000000000000000 ) ;
#16 = DIRECTION ( 'NONE',  ( -1.224646799147353207E-16, 1.000000000000000000, -0.000000000000000000 ) ) ;
#17 = EDGE_CURVE ( 'NONE', #118, #200, #548, .T. ) ;
#18 = ORIENTED_EDGE ( 'NONE', *, *, #468, .T. ) ;
#19 = VERTEX_POINT ( 'NONE', #127 ) ;
#20 = CARTESIAN_POINT ( 'NONE',  ( 0.000000000000000000, 0.000000000000000000, 0.000000000000000000 ) ) ;
#21 = CARTESIAN_POINT ( 'NONE',  ( -2.549999999999999378, -2.000000000000000444, 0.000000000000000000 ) ) ;
#22 = CARTESIAN_POINT ( 'NONE',  ( 7.347880794884134527E-16, -6.000000000000011546, 0.000000000000000000 ) ) ;
#23 = DIRECTION ( 'NONE',  ( 1.224646799147353207E-16, -1.000000000000000000, 0.000000000000000000 ) ) ;
#24 = EDGE_LOOP ( 'NONE', ( #18, #176, #587, #73 ) ) ;
#25 = DIRECTION ( 'NONE',  ( 1.000000000000000000, 0.000000000000000000, 0.000000000000000000 ) ) ;
#26 = AXIS2_PLACEMENT_3D ( 'NONE', #37, #466, #520 ) ;
#27 = APPROVAL_PERSON_ORGANIZATION ( #566, #384, #556 ) ;
#28 = EDGE_LOOP ( 'NONE', ( #618, #375, #307, #518 ) ) ;
#29 = DIRECTION ( 'NONE',  ( -1.224646799147353207E-16, 1.000000000000000000, -0.000000000000000000 ) ) ;
#30 = EDGE_CURVE ( 'NONE', #200, #19, #598, .T. ) ;
#31 = CARTESIAN_POINT ( 'NONE',  ( 2.550000000000000711, -6.000000000000001776, 25.00000000000000000 ) ) ;
#32 = DIRECTION ( 'NONE',  ( 1.224646799147353207E-16, -1.000000000000000000, -0.000000000000000000 ) ) ;
#33 = CYLINDRICAL_SURFACE ( 'NONE', #442, 20.05000000000000071 ) ;
#34 = PLANE ( 'NONE',  #139 ) ;
#35 = AXIS2_PLACEMENT_3D ( 'NONE', #22, #356, #82 ) ;
#36 = APPROVAL_DATE_TIME ( #92, #108 ) ;
#37 = CARTESIAN_POINT ( 'NONE',  ( -3.673940397442053459E-16, 2.999999999999994671, 0.000000000000000000 ) ) ;
#38 = EDGE_CURVE ( 'NONE', #59, #207, #258, .T. ) ;
#39 = PERSON_AND_ORGANIZATION ( #51, #339 ) ;
#40 = DIRECTION ( 'NONE',  ( 1.224646799147353207E-16, -1.000000000000000000, 0.000000000000000000 ) ) ;
#41 = VERTEX_POINT ( 'NONE', #114 ) ;
#42 =( NAMED_UNIT ( * ) SI_UNIT ( $, .STERADIAN. ) SOLID_ANGLE_UNIT ( ) );
#43 = EDGE_CURVE ( 'NONE', #99, #509, #491, .T. ) ;
#44 = CARTESIAN_POINT ( 'NONE',  ( 20.05000000000000071, 1.230770033143090329E-15, 0.000000000000000000 ) ) ;
#45 = AXIS2_PLACEMENT_3D ( 'NONE', #253, #440, #390 ) ;
#46 = DATE_TIME_ROLE ( 'classification_date' ) ;
#47 = EDGE_CURVE ( 'NONE', #48, #148, #97, .T. ) ;
#48 = VERTEX_POINT ( 'NONE', #402 ) ;
#49 = APPROVAL_STATUS ( 'not_yet_approved' ) ;
#50 = CARTESIAN_POINT ( 'NONE',  ( 2.449293598294706414E-16, -2.000000000000000000, 0.000000000000000000 ) ) ;
#51 = PERSON ( 'UNSPECIFIED', 'UNSPECIFIED', 'UNSPECIFIED', ('UNSPECIFIED'), ('UNSPECIFIED'), ('UNSPECIFIED') ) ;
#52 = FACE_OUTER_BOUND ( 'NONE', #516, .T. ) ;
#53 = CIRCLE ( 'NONE', #294, 2.549999999999999822 ) ;
#54 = EDGE_CURVE ( 'NONE', #207, #405, #380, .T. ) ;
#55 = AXIS2_PLACEMENT_3D ( 'NONE', #89, #329, #522 ) ;
#56 = DIRECTION ( 'NONE',  ( -1.224646799147353207E-16, 1.000000000000000000, -0.000000000000000000 ) ) ;
#57 = ORIENTED_EDGE ( 'NONE', *, *, #510, .T. ) ;
#58 = EDGE_CURVE ( 'NONE', #405, #207, #7, .T. ) ;
#59 = VERTEX_POINT ( 'NONE', #354 ) ;
#60 = CYLINDRICAL_SURFACE ( 'NONE', #331, 1.000000000000000000 ) ;
#61 = ADVANCED_FACE ( 'NONE', ( #311, #216, #256, #393 ), #584, .F. ) ;
#62 = CARTESIAN_POINT ( 'NONE',  ( 7.347880794884121708E-16, -6.000000000000001776, 25.00000000000000000 ) ) ;
#63 = EDGE_LOOP ( 'NONE', ( #94, #439 ) ) ;
#64 = AXIS2_PLACEMENT_3D ( 'NONE', #387, #336, #438 ) ;
#65 = CARTESIAN_POINT ( 'NONE',  ( -2.549999999999998934, -6.000000000000001776, -25.00000000000000000 ) ) ;
#66 = CC_DESIGN_APPROVAL ( #384, ( #524 ) ) ;
#67 = DIRECTION ( 'NONE',  ( 1.224646799147353207E-16, -1.000000000000000000, -0.000000000000000000 ) ) ;
#68 = VECTOR ( 'NONE', #120, 1000.000000000000000 ) ;
#69 = EDGE_LOOP ( 'NONE', ( #246, #278, #392, #243 ) ) ;
#70 = VERTEX_POINT ( 'NONE', #346 ) ;
#71 = LINE ( 'NONE', #226, #414 ) ;
#72 = CARTESIAN_POINT ( 'NONE',  ( 4.898587196589415787E-16, -4.000000000000001776, -25.00000000000000000 ) ) ;
#73 = ORIENTED_EDGE ( 'NONE', *, *, #210, .F. ) ;
#74 = CARTESIAN_POINT ( 'NONE',  ( -2.549999999999999378, -4.000000000000001776, -25.00000000000000000 ) ) ;
#75 = CARTESIAN_POINT ( 'NONE',  ( 0.000000000000000000, 0.000000000000000000, 0.000000000000000000 ) ) ;
#76 = ORIENTED_EDGE ( 'NONE', *, *, #614, .F. ) ;
#77 = EDGE_CURVE ( 'NONE', #48, #613, #539, .T. ) ;
#78 = FACE_OUTER_BOUND ( 'NONE', #186, .T. ) ;
#79 = CIRCLE ( 'NONE', #64, 2.549999999999999822 ) ;
#80 = DIRECTION ( 'NONE',  ( 1.000000000000000000, 0.000000000000000000, 0.000000000000000000 ) ) ;
#81 = ORIENTED_EDGE ( 'NONE', *, *, #373, .F. ) ;
#82 = DIRECTION ( 'NONE',  ( -1.000000000000000000, 0.000000000000000000, 0.000000000000000000 ) ) ;
#83 = CARTESIAN_POINT ( 'NONE',  ( 4.898587196589415787E-16, -4.000000000000001776, -25.00000000000000000 ) ) ;
#84 = ORIENTED_EDGE ( 'NONE', *, *, #43, .F. ) ;
#85 = DIRECTION ( 'NONE',  ( -1.224646799147353207E-16, 1.000000000000000000, -0.000000000000000000 ) ) ;
#86 =( NAMED_UNIT ( * ) PLANE_ANGLE_UNIT ( ) SI_UNIT ( $, .RADIAN. ) );
#87 = CIRCLE ( 'NONE', #543, 35.00000000000000000 ) ;
#88 = EDGE_LOOP ( 'NONE', ( #432, #426 ) ) ;
#89 = CARTESIAN_POINT ( 'NONE',  ( 7.347880794884134527E-16, -6.000000000000011546, 0.000000000000000000 ) ) ;
#90 = ORIENTED_EDGE ( 'NONE', *, *, #232, .F. ) ;
#91 = EDGE_CURVE ( 'NONE', #197, #164, #132, .T. ) ;
#92 = DATE_AND_TIME ( #327, #421 ) ;
#93 = DIRECTION ( 'NONE',  ( 1.224646799147353207E-16, -1.000000000000000000, -0.000000000000000000 ) ) ;
#94 = ORIENTED_EDGE ( 'NONE', *, *, #91, .F. ) ;
#95 = ADVANCED_FACE ( 'NONE', ( #78 ), #446, .T. ) ;
#96 = PERSON_AND_ORGANIZATION ( #51, #339 ) ;
#97 = CIRCLE ( 'NONE', #607, 2.549999999999999822 ) ;
#98 = AXIS2_PLACEMENT_3D ( 'NONE', #62, #155, #206 ) ;
#99 = VERTEX_POINT ( 'NONE', #317 ) ;
#100 = AXIS2_PLACEMENT_3D ( 'NONE', #227, #409, #318 ) ;
#101 = PERSON_AND_ORGANIZATION_ROLE ( 'classification_officer' ) ;
#102 = CARTESIAN_POINT ( 'NONE',  ( -35.00000000000000000, -4.286263797015736496E-15, 0.000000000000000000 ) ) ;
#103 = ORIENTED_EDGE ( 'NONE', *, *, #416, .T. ) ;
#104 = CARTESIAN_POINT ( 'NONE',  ( 2.999519565323715216E-31, -2.449293598294706513E-15, 0.000000000000000000 ) ) ;
#105 = EDGE_CURVE ( 'NONE', #70, #19, #428, .T. ) ;
#106 = ORIENTED_EDGE ( 'NONE', *, *, #271, .T. ) ;
#107 = CARTESIAN_POINT ( 'NONE',  ( 2.999519565323715216E-31, -2.449293598294706513E-15, 0.000000000000000000 ) ) ;
#108 = APPROVAL ( #371, 'UNSPECIFIED' ) ;
#109 = ORIENTED_EDGE ( 'NONE', *, *, #17, .T. ) ;
#110 = VECTOR ( 'NONE', #240, 1000.000000000000000 ) ;
#111 = DIRECTION ( 'NONE',  ( 1.224646799147353207E-16, -1.000000000000000000, -0.000000000000000000 ) ) ;
#112 = EDGE_CURVE ( 'NONE', #560, #197, #71, .T. ) ;
#113 = CARTESIAN_POINT ( 'NONE',  ( -0.9999999999999997780, -2.000000000000000000, 0.000000000000000000 ) ) ;
#114 = CARTESIAN_POINT ( 'NONE',  ( -0.9999999999999993339, -6.000000000000011546, 0.000000000000000000 ) ) ;
#115 = ORIENTED_EDGE ( 'NONE', *, *, #345, .F. ) ;
#116 = DIRECTION ( 'NONE',  ( -1.224646799147353207E-16, 1.000000000000000000, -0.000000000000000000 ) ) ;
#117 = FACE_OUTER_BOUND ( 'NONE', #554, .T. ) ;
#118 = VERTEX_POINT ( 'NONE', #601 ) ;
#119 = CIRCLE ( 'NONE', #26, 35.00000000000000000 ) ;
#120 = DIRECTION ( 'NONE',  ( 1.224646799147353207E-16, -1.000000000000000000, -0.000000000000000000 ) ) ;
#121 = CARTESIAN_POINT ( 'NONE',  ( -20.05000000000000071, -4.904710430585150099E-15, 0.000000000000000000 ) ) ;
#122 = ORIENTED_EDGE ( 'NONE', *, *, #219, .F. ) ;
#123 = ORIENTED_EDGE ( 'NONE', *, *, #47, .T. ) ;
#124 = DIRECTION ( 'NONE',  ( -1.224646799147353207E-16, 1.000000000000000000, 0.000000000000000000 ) ) ;
#125 = DIRECTION ( 'NONE',  ( 1.224646799147353207E-16, -1.000000000000000000, 0.000000000000000000 ) ) ;
#126 = EDGE_CURVE ( 'NONE', #259, #348, #260, .T. ) ;
#127 = CARTESIAN_POINT ( 'NONE',  ( 35.00000000000000000, 2.999999999999999112, 4.286263797015736496E-15 ) ) ;
#128 = ORIENTED_EDGE ( 'NONE', *, *, #210, .T. ) ;
#129 = CARTESIAN_POINT ( 'NONE',  ( 2.449293598294706907E-16, -2.000000000000000000, 0.000000000000000000 ) ) ;
#130 = DIRECTION ( 'NONE',  ( -1.000000000000000000, -1.224646799147353207E-16, 0.000000000000000000 ) ) ;
#131 = DIRECTION ( 'NONE',  ( -1.224646799147353207E-16, 1.000000000000000000, -0.000000000000000000 ) ) ;
#132 = CIRCLE ( 'NONE', #571, 2.549999999999999822 ) ;
#133 = DIRECTION ( 'NONE',  ( -1.000000000000000000, 0.000000000000000000, 0.000000000000000000 ) ) ;
#134 = VECTOR ( 'NONE', #583, 1000.000000000000000 ) ;
#135 = DIRECTION ( 'NONE',  ( 1.000000000000000000, 0.000000000000000000, 0.000000000000000000 ) ) ;
#136 = ADVANCED_FACE ( 'NONE', ( #408 ), #220, .F. ) ;
#137 = EDGE_LOOP ( 'NONE', ( #366, #343 ) ) ;
#138 = APPROVAL_STATUS ( 'not_yet_approved' ) ;
#139 = AXIS2_PLACEMENT_3D ( 'NONE', #83, #351, #362 ) ;
#140 = DIRECTION ( 'NONE',  ( 1.000000000000000000, 0.000000000000000000, 0.000000000000000000 ) ) ;
#141 = DIRECTION ( 'NONE',  ( -1.224646799147353207E-16, 1.000000000000000000, -0.000000000000000000 ) ) ;
#142 = CALENDAR_DATE ( 2025, 5, 12 ) ;
#143 = CARTESIAN_POINT ( 'NONE',  ( 2.550000000000000711, -6.000000000000001776, -25.00000000000000000 ) ) ;
#144 = CARTESIAN_POINT ( 'NONE',  ( -2.549999999999999378, -4.000000000000001776, 25.00000000000000000 ) ) ;
#145 = VECTOR ( 'NONE', #342, 1000.000000000000000 ) ;
#146 = AXIS2_PLACEMENT_3D ( 'NONE', #423, #141, #149 ) ;
#147 = EDGE_LOOP ( 'NONE', ( #299, #165, #330, #215 ) ) ;
#148 = VERTEX_POINT ( 'NONE', #552 ) ;
#149 = DIRECTION ( 'NONE',  ( -1.000000000000000000, -1.224646799147353207E-16, 0.000000000000000000 ) ) ;
#150 = ORIENTED_EDGE ( 'NONE', *, *, #201, .F. ) ;
#151 = CARTESIAN_POINT ( 'NONE',  ( -3.673940397442053459E-16, 2.999999999999994671, 0.000000000000000000 ) ) ;
#152 = DIRECTION ( 'NONE',  ( -1.224646799147353454E-16, 1.000000000000000000, 0.000000000000000000 ) ) ;
#153 = ADVANCED_FACE ( 'NONE', ( #396 ), #511, .F. ) ;
#154 = CONICAL_SURFACE ( 'NONE', #303, 35.00000000000000000, 0.7853981633974517207 ) ;
#155 = DIRECTION ( 'NONE',  ( 1.224646799147353207E-16, -1.000000000000000000, 0.000000000000000000 ) ) ;
#156 = CARTESIAN_POINT ( 'NONE',  ( 35.00000000000000000, 4.286263797015736496E-15, 4.286263797015736496E-15 ) ) ;
#157 = ADVANCED_FACE ( 'NONE', ( #460 ), #180, .F. ) ;
#158 = ORIENTED_EDGE ( 'NONE', *, *, #232, .T. ) ;
#159 = CARTESIAN_POINT ( 'NONE',  ( -3.673940397442053459E-16, 2.999999999999994671, 0.000000000000000000 ) ) ;
#160 = CARTESIAN_POINT ( 'NONE',  ( 1.000000000000000666, -6.000000000000011546, 1.224646799147353207E-16 ) ) ;
#161 = ORIENTED_EDGE ( 'NONE', *, *, #388, .F. ) ;
#162 = DIRECTION ( 'NONE',  ( -1.224646799147353207E-16, 1.000000000000000000, 0.000000000000000000 ) ) ;
#163 = CARTESIAN_POINT ( 'NONE',  ( 6.123233995736775157E-16, -5.000000000000007994, 0.000000000000000000 ) ) ;
#164 = VERTEX_POINT ( 'NONE', #65 ) ;
#165 = ORIENTED_EDGE ( 'NONE', *, *, #201, .T. ) ;
#166 = AXIS2_PLACEMENT_3D ( 'NONE', #361, #116, #300 ) ;
#167 = CIRCLE ( 'NONE', #211, 20.05000000000000071 ) ;
#168 = CARTESIAN_POINT ( 'NONE',  ( 4.898587196589415787E-16, -4.000000000000001776, 25.00000000000000000 ) ) ;
#169 = EDGE_CURVE ( 'NONE', #399, #348, #540, .T. ) ;
#170 = FACE_OUTER_BOUND ( 'NONE', #242, .T. ) ;
#171 = ORIENTED_EDGE ( 'NONE', *, *, #47, .F. ) ;
#172 = VERTEX_POINT ( 'NONE', #74 ) ;
#173 = DIRECTION ( 'NONE',  ( 1.224646799147353207E-16, -1.000000000000000000, 0.000000000000000000 ) ) ;
#174 = CARTESIAN_POINT ( 'NONE',  ( -20.05000000000000071, 2.999999999999992450, 0.000000000000000000 ) ) ;
#175 = APPROVAL ( #138, 'UNSPECIFIED' ) ;
#176 = ORIENTED_EDGE ( 'NONE', *, *, #30, .T. ) ;
#177 = CARTESIAN_POINT ( 'NONE',  ( 2.550000000000000266, -1.999999999999999556, 3.122849337825750419E-16 ) ) ;
#178 = FACE_OUTER_BOUND ( 'NONE', #28, .T. ) ;
#179 = AXIS2_PLACEMENT_3D ( 'NONE', #457, #29, #497 ) ;
#180 = CYLINDRICAL_SURFACE ( 'NONE', #166, 2.549999999999999822 ) ;
#181 = CONICAL_SURFACE ( 'NONE', #420, 35.00000000000000000, 0.7853981633974517207 ) ;
#182 = CARTESIAN_POINT ( 'NONE',  ( 6.123233995736775157E-16, -5.000000000000007994, 0.000000000000000000 ) ) ;
#183 = CIRCLE ( 'NONE', #267, 2.549999999999999822 ) ;
#184 = ADVANCED_FACE ( 'NONE', ( #263 ), #369, .F. ) ;
#185 = CARTESIAN_POINT ( 'NONE',  ( 7.347880794884121708E-16, -6.000000000000001776, 0.000000000000000000 ) ) ;
#186 = EDGE_LOOP ( 'NONE', ( #123, #604 ) ) ;
#187 = CALENDAR_DATE ( 2025, 5, 12 ) ;
#188 = ORIENTED_EDGE ( 'NONE', *, *, #437, .F. ) ;
#189 = PERSON_AND_ORGANIZATION ( #51, #339 ) ;
#190 = CIRCLE ( 'NONE', #529, 2.549999999999999822 ) ;
#191 = EDGE_CURVE ( 'NONE', #19, #70, #119, .T. ) ;
#192 = FACE_OUTER_BOUND ( 'NONE', #137, .T. ) ;
#193 = AXIS2_PLACEMENT_3D ( 'NONE', #276, #615, #140 ) ;
#194 = ORIENTED_EDGE ( 'NONE', *, *, #91, .T. ) ;
#195 = CALENDAR_DATE ( 2025, 5, 12 ) ;
#196 = CYLINDRICAL_SURFACE ( 'NONE', #146, 35.00000000000000000 ) ;
#197 = VERTEX_POINT ( 'NONE', #143 ) ;
#198 = DATE_AND_TIME ( #195, #360 ) ;
#199 = DIRECTION ( 'NONE',  ( 1.224646799147353207E-16, -1.000000000000000000, 0.000000000000000000 ) ) ;
#200 = VERTEX_POINT ( 'NONE', #417 ) ;
#201 = EDGE_CURVE ( 'NONE', #148, #319, #612, .T. ) ;
#202 = CARTESIAN_POINT ( 'NONE',  ( 2.449293598294706414E-16, -2.000000000000000000, 0.000000000000000000 ) ) ;
#203 = CLOSED_SHELL ( 'NONE', ( #427, #610, #504, #374, #184, #205, #477, #136, #251, #61, #563, #603, #568, #573, #296, #157, #153, #547, #541, #95 ) ) ;
#204 = VECTOR ( 'NONE', #585, 1000.000000000000000 ) ;
#205 = ADVANCED_FACE ( 'NONE', ( #332 ), #196, .T. ) ;
#206 = DIRECTION ( 'NONE',  ( 1.000000000000000000, 0.000000000000000000, 0.000000000000000000 ) ) ;
#207 = VERTEX_POINT ( 'NONE', #558 ) ;
#208 = CARTESIAN_POINT ( 'NONE',  ( 2.549999999999999822, 3.122849337825750419E-16, 3.122849337825750419E-16 ) ) ;
#209 = FACE_OUTER_BOUND ( 'NONE', #69, .T. ) ;
#210 = EDGE_CURVE ( 'NONE', #544, #70, #1, .T. ) ;
#211 = AXIS2_PLACEMENT_3D ( 'NONE', #104, #302, #217 ) ;
#212 = VECTOR ( 'NONE', #391, 1000.000000000000114 ) ;
#213 = FACE_OUTER_BOUND ( 'NONE', #147, .T. ) ;
#214 = EDGE_LOOP ( 'NONE', ( #500, #577 ) ) ;
#215 = ORIENTED_EDGE ( 'NONE', *, *, #77, .F. ) ;
#216 = FACE_BOUND ( 'NONE', #63, .T. ) ;
#217 = DIRECTION ( 'NONE',  ( -1.000000000000000000, -1.224646799147353454E-16, 0.000000000000000000 ) ) ;
#218 = ORIENTED_EDGE ( 'NONE', *, *, #411, .F. ) ;
#219 = EDGE_CURVE ( 'NONE', #41, #59, #286, .T. ) ;
#220 = CYLINDRICAL_SURFACE ( 'NONE', #35, 1.000000000000000000 ) ;
#221 = DIRECTION ( 'NONE',  ( -1.224646799147353207E-16, 1.000000000000000000, -0.000000000000000000 ) ) ;
#222 = ORIENTED_EDGE ( 'NONE', *, *, #169, .F. ) ;
#223 = AXIS2_PLACEMENT_3D ( 'NONE', #185, #23, #449 ) ;
#224 = DIRECTION ( 'NONE',  ( -1.000000000000000000, 0.000000000000000000, 0.000000000000000000 ) ) ;
#225 = ORIENTED_EDGE ( 'NONE', *, *, #43, .T. ) ;
#226 = CARTESIAN_POINT ( 'NONE',  ( 2.550000000000000266, -4.000000000000001776, -25.00000000000000000 ) ) ;
#227 = CARTESIAN_POINT ( 'NONE',  ( 7.347880794884121708E-16, -6.000000000000001776, 0.000000000000000000 ) ) ;
#228 = DIRECTION ( 'NONE',  ( 1.224646799147353207E-16, -1.000000000000000000, 0.000000000000000000 ) ) ;
#229 = AXIS2_PLACEMENT_3D ( 'NONE', #605, #162, #502 ) ;
#230 = FACE_OUTER_BOUND ( 'NONE', #436, .T. ) ;
#231 = PERSON_AND_ORGANIZATION_ROLE ( 'creator' ) ;
#232 = EDGE_CURVE ( 'NONE', #560, #172, #14, .T. ) ;
#233 = DIRECTION ( 'NONE',  ( 1.000000000000000000, 0.000000000000000000, 0.000000000000000000 ) ) ;
#234 = EDGE_LOOP ( 'NONE', ( #470, #376 ) ) ;
#235 = APPLICATION_PROTOCOL_DEFINITION ( 'international standard', 'config_control_design', 1994, #600 ) ;
#236 = AXIS2_PLACEMENT_3D ( 'NONE', #202, #527, #277 ) ;
#237 = DIRECTION ( 'NONE',  ( 1.000000000000000000, 0.000000000000000000, 0.000000000000000000 ) ) ;
#238 = CC_DESIGN_SECURITY_CLASSIFICATION ( #370, ( #524 ) ) ;
#239 = PERSON_AND_ORGANIZATION ( #51, #339 ) ;
#240 = DIRECTION ( 'NONE',  ( -1.224646799147353207E-16, 1.000000000000000000, -0.000000000000000000 ) ) ;
#241 = EDGE_CURVE ( 'NONE', #379, #259, #53, .T. ) ;
#242 = EDGE_LOOP ( 'NONE', ( #395, #310 ) ) ;
#243 = ORIENTED_EDGE ( 'NONE', *, *, #322, .F. ) ;
#244 = COORDINATED_UNIVERSAL_TIME_OFFSET ( 0, 0, .AHEAD. ) ;
#245 = DIRECTION ( 'NONE',  ( -1.000000000000000000, -1.224646799147353207E-16, 0.000000000000000000 ) ) ;
#246 = ORIENTED_EDGE ( 'NONE', *, *, #301, .F. ) ;
#247 = LINE ( 'NONE', #531, #338 ) ;
#248 = AXIS2_PLACEMENT_3D ( 'NONE', #20, #124, #308 ) ;
#249 = CIRCLE ( 'NONE', #223, 34.00000000000000000 ) ;
#250 = DIRECTION ( 'NONE',  ( -1.224646799147352961E-16, 1.000000000000000000, -0.000000000000000000 ) ) ;
#251 = ADVANCED_FACE ( 'NONE', ( #616, #192 ), #282, .F. ) ;
#252 = CARTESIAN_POINT ( 'NONE',  ( -2.549999999999999378, -2.000000000000000444, 0.000000000000000000 ) ) ;
#253 = CARTESIAN_POINT ( 'NONE',  ( 7.347880794884121708E-16, -6.000000000000001776, 25.00000000000000000 ) ) ;
#254 = AXIS2_PLACEMENT_3D ( 'NONE', #12, #581, #9 ) ;
#255 = APPROVAL_PERSON_ORGANIZATION ( #239, #175, #368 ) ;
#256 = FACE_BOUND ( 'NONE', #234, .T. ) ;
#257 = CARTESIAN_POINT ( 'NONE',  ( -2.549999999999999822, -3.122849337825750419E-16, 0.000000000000000000 ) ) ;
#258 = LINE ( 'NONE', #160, #288 ) ;
#259 = VERTEX_POINT ( 'NONE', #328 ) ;
#260 = LINE ( 'NONE', #177, #410 ) ;
#261 = CARTESIAN_POINT ( 'NONE',  ( 4.898587196589415787E-16, -4.000000000000001776, 25.00000000000000000 ) ) ;
#262 = CC_DESIGN_DATE_AND_TIME_ASSIGNMENT ( #473, #46, ( #370 ) ) ;
#263 = FACE_OUTER_BOUND ( 'NONE', #451, .T. ) ;
#264 = DIRECTION ( 'NONE',  ( 1.224646799147353207E-16, -1.000000000000000000, -0.000000000000000000 ) ) ;
#265 = ORIENTED_EDGE ( 'NONE', *, *, #468, .F. ) ;
#266 = AXIS2_PLACEMENT_3D ( 'NONE', #378, #290, #245 ) ;
#267 = AXIS2_PLACEMENT_3D ( 'NONE', #305, #228, #80 ) ;
#268 = DIRECTION ( 'NONE',  ( 1.000000000000000000, 1.224646799147353207E-16, 0.000000000000000000 ) ) ;
#269 = CARTESIAN_POINT ( 'NONE',  ( 35.00000000000000000, 2.999999999999999112, 0.000000000000000000 ) ) ;
#270 = CARTESIAN_POINT ( 'NONE',  ( 4.898587196589415787E-16, -4.000000000000001776, -25.00000000000000000 ) ) ;
#271 = EDGE_CURVE ( 'NONE', #172, #560, #190, .T. ) ;
#272 = DIRECTION ( 'NONE',  ( -1.224646799147352961E-16, 1.000000000000000000, -0.000000000000000000 ) ) ;
#273 = DIRECTION ( 'NONE',  ( 1.224646799147353207E-16, -1.000000000000000000, -0.000000000000000000 ) ) ;
#274 = AXIS2_PLACEMENT_3D ( 'NONE', #270, #545, #589 ) ;
#275 = AXIS2_PLACEMENT_3D ( 'NONE', #606, #553, #463 ) ;
#276 = CARTESIAN_POINT ( 'NONE',  ( 0.000000000000000000, 0.000000000000000000, 0.000000000000000000 ) ) ;
#277 = DIRECTION ( 'NONE',  ( -1.000000000000000000, -1.224646799147353207E-16, 0.000000000000000000 ) ) ;
#278 = ORIENTED_EDGE ( 'NONE', *, *, #38, .T. ) ;
#279 = CALENDAR_DATE ( 2025, 5, 12 ) ;
#280 = CARTESIAN_POINT ( 'NONE',  ( 4.898587196589415787E-16, -4.000000000000001776, -25.00000000000000000 ) ) ;
#281 = CC_DESIGN_PERSON_AND_ORGANIZATION_ASSIGNMENT ( #284, #611, ( #524 ) ) ;
#282 = PLANE ( 'NONE',  #572 ) ;
#283 = EDGE_LOOP ( 'NONE', ( #445, #122, #594, #450 ) ) ;
#284 = PERSON_AND_ORGANIZATION ( #51, #339 ) ;
#285 = EDGE_CURVE ( 'NONE', #348, #399, #359, .T. ) ;
#286 = CIRCLE ( 'NONE', #55, 1.000000000000000000 ) ;
#287 = DIRECTION ( 'NONE',  ( -1.000000000000000000, -1.224646799147353454E-16, 0.000000000000000000 ) ) ;
#288 = VECTOR ( 'NONE', #535, 1000.000000000000000 ) ;
#289 = COORDINATED_UNIVERSAL_TIME_OFFSET ( 0, 0, .AHEAD. ) ;
#290 = DIRECTION ( 'NONE',  ( -1.224646799147353207E-16, 1.000000000000000000, 0.000000000000000000 ) ) ;
#291 = PRODUCT_DEFINITION_SHAPE ( 'NONE', 'NONE',  #326 ) ;
#292 = LINE ( 'NONE', #21, #134 ) ;
#293 = DIRECTION ( 'NONE',  ( -1.000000000000000000, 0.000000000000000000, 0.000000000000000000 ) ) ;
#294 = AXIS2_PLACEMENT_3D ( 'NONE', #50, #382, #418 ) ;
#295 = DESIGN_CONTEXT ( 'detailed design', #600, 'design' ) ;
#296 = ADVANCED_FACE ( 'NONE', ( #425, #6 ), #335, .T. ) ;
#297 = DIRECTION ( 'NONE',  ( -1.000000000000000000, 0.000000000000000000, 0.000000000000000000 ) ) ;
#298 = DIRECTION ( 'NONE',  ( -1.224646799147353454E-16, 1.000000000000000000, -0.000000000000000000 ) ) ;
#299 = ORIENTED_EDGE ( 'NONE', *, *, #588, .F. ) ;
#300 = DIRECTION ( 'NONE',  ( -1.000000000000000000, -1.700709290173340409E-16, 0.000000000000000000 ) ) ;
#301 = EDGE_CURVE ( 'NONE', #59, #41, #381, .T. ) ;
#302 = DIRECTION ( 'NONE',  ( -1.224646799147353207E-16, 1.000000000000000000, -0.000000000000000000 ) ) ;
#303 = AXIS2_PLACEMENT_3D ( 'NONE', #182, #272, #309 ) ;
#304 = DIRECTION ( 'NONE',  ( 1.224646799147353207E-16, -1.000000000000000000, 0.000000000000000000 ) ) ;
#305 = CARTESIAN_POINT ( 'NONE',  ( 4.898587196589415787E-16, -4.000000000000001776, 25.00000000000000000 ) ) ;
#306 = EDGE_CURVE ( 'NONE', #319, #613, #429, .T. ) ;
#307 = ORIENTED_EDGE ( 'NONE', *, *, #422, .T. ) ;
#308 = DIRECTION ( 'NONE',  ( -1.000000000000000000, -1.224646799147353207E-16, 0.000000000000000000 ) ) ;
#309 = DIRECTION ( 'NONE',  ( -1.000000000000000000, -1.239088197126290817E-16, 0.000000000000000000 ) ) ;
#310 = ORIENTED_EDGE ( 'NONE', *, *, #191, .T. ) ;
#311 = FACE_BOUND ( 'NONE', #88, .T. ) ;
#312 = FACE_OUTER_BOUND ( 'NONE', #532, .T. ) ;
#313 = CARTESIAN_POINT ( 'NONE',  ( 4.898587196589415787E-16, -4.000000000000001776, 25.00000000000000000 ) ) ;
#314 = ORIENTED_EDGE ( 'NONE', *, *, #241, .F. ) ;
#315 = AXIS2_PLACEMENT_3D ( 'NONE', #578, #111, #487 ) ;
#316 = EDGE_CURVE ( 'NONE', #172, #164, #383, .T. ) ;
#317 = CARTESIAN_POINT ( 'NONE',  ( 20.05000000000000071, 6.123233995737214701E-18, 2.455416832290443586E-15 ) ) ;
#318 = DIRECTION ( 'NONE',  ( -1.000000000000000000, -1.275531967630005245E-16, 0.000000000000000000 ) ) ;
#319 = VERTEX_POINT ( 'NONE', #347 ) ;
#320 = DIRECTION ( 'NONE',  ( -0.7071067811865501263, 0.7071067811865450192, 0.000000000000000000 ) ) ;
#321 = PERSON_AND_ORGANIZATION ( #51, #339 ) ;
#322 = EDGE_CURVE ( 'NONE', #41, #405, #247, .T. ) ;
#323 = PRODUCT ( 'support_plate', 'support_plate', '', ( #424 ) ) ;
#324 = AXIS2_PLACEMENT_3D ( 'NONE', #159, #56, #344 ) ;
#325 = PERSON_AND_ORGANIZATION ( #51, #339 ) ;
#326 = PRODUCT_DEFINITION ( 'UNKNOWN', '', #524, #295 ) ;
#327 = CALENDAR_DATE ( 2025, 5, 12 ) ;
#328 = CARTESIAN_POINT ( 'NONE',  ( 2.550000000000000266, -1.999999999999999556, 3.122849337825750419E-16 ) ) ;
#329 = DIRECTION ( 'NONE',  ( -1.224646799147353454E-16, 1.000000000000000000, 0.000000000000000000 ) ) ;
#330 = ORIENTED_EDGE ( 'NONE', *, *, #306, .T. ) ;
#331 = AXIS2_PLACEMENT_3D ( 'NONE', #385, #579, #297 ) ;
#332 = FACE_OUTER_BOUND ( 'NONE', #24, .T. ) ;
#333 = AXIS2_PLACEMENT_3D ( 'NONE', #350, #448, #133 ) ;
#334 = ORIENTED_EDGE ( 'NONE', *, *, #364, .F. ) ;
#335 = PLANE ( 'NONE',  #236 ) ;
#336 = DIRECTION ( 'NONE',  ( -1.224646799147353207E-16, 1.000000000000000000, 0.000000000000000000 ) ) ;
#337 = CARTESIAN_POINT ( 'NONE',  ( -34.00000000000000000, -6.000000000000006217, 0.000000000000000000 ) ) ;
#338 = VECTOR ( 'NONE', #298, 1000.000000000000000 ) ;
#339 = ORGANIZATION ( 'UNSPECIFIED', 'UNSPECIFIED', '' ) ;
#340 = ORIENTED_EDGE ( 'NONE', *, *, #126, .F. ) ;
#341 = DIRECTION ( 'NONE',  ( -1.000000000000000000, -1.224646799147353454E-16, 0.000000000000000000 ) ) ;
#342 = DIRECTION ( 'NONE',  ( -1.224646799147353207E-16, 1.000000000000000000, -0.000000000000000000 ) ) ;
#343 = ORIENTED_EDGE ( 'NONE', *, *, #437, .T. ) ;
#344 = DIRECTION ( 'NONE',  ( -1.000000000000000000, -1.297798111703346826E-16, 0.000000000000000000 ) ) ;
#345 = EDGE_CURVE ( 'NONE', #536, #509, #464, .T. ) ;
#346 = CARTESIAN_POINT ( 'NONE',  ( -35.00000000000000000, 2.999999999999990674, 0.000000000000000000 ) ) ;
#347 = CARTESIAN_POINT ( 'NONE',  ( -2.549999999999998934, -6.000000000000001776, 25.00000000000000000 ) ) ;
#348 = VERTEX_POINT ( 'NONE', #208 ) ;
#349 = VECTOR ( 'NONE', #67, 1000.000000000000000 ) ;
#350 = CARTESIAN_POINT ( 'NONE',  ( 2.449293598294706907E-16, -2.000000000000000000, 0.000000000000000000 ) ) ;
#351 = DIRECTION ( 'NONE',  ( 1.224646799147353207E-16, -1.000000000000000000, 0.000000000000000000 ) ) ;
#352 = ORIENTED_EDGE ( 'NONE', *, *, #526, .T. ) ;
#353 = ORIENTED_EDGE ( 'NONE', *, *, #533, .F. ) ;
#354 = CARTESIAN_POINT ( 'NONE',  ( 1.000000000000000666, -6.000000000000011546, 1.224646799147353454E-16 ) ) ;
#355 = CARTESIAN_POINT ( 'NONE',  ( -35.00000000000000000, -5.000000000000012434, 0.000000000000000000 ) ) ;
#356 = DIRECTION ( 'NONE',  ( -1.224646799147353454E-16, 1.000000000000000000, -0.000000000000000000 ) ) ;
#357 = FACE_OUTER_BOUND ( 'NONE', #582, .T. ) ;
#358 = ORIENTED_EDGE ( 'NONE', *, *, #126, .T. ) ;
#359 = CIRCLE ( 'NONE', #266, 2.549999999999999822 ) ;
#360 = LOCAL_TIME ( 15, 0, 16.00000000000000000, #619 ) ;
#361 = CARTESIAN_POINT ( 'NONE',  ( 2.449293598294706414E-16, -2.000000000000000000, 0.000000000000000000 ) ) ;
#362 = DIRECTION ( 'NONE',  ( 1.000000000000000000, 1.224646799147353207E-16, 0.000000000000000000 ) ) ;
#363 = ORIENTED_EDGE ( 'NONE', *, *, #58, .T. ) ;
#364 = EDGE_CURVE ( 'NONE', #569, #99, #167, .T. ) ;
#365 = COORDINATED_UNIVERSAL_TIME_OFFSET ( 0, 0, .AHEAD. ) ;
#366 = ORIENTED_EDGE ( 'NONE', *, *, #364, .T. ) ;
#367 = CC_DESIGN_PERSON_AND_ORGANIZATION_ASSIGNMENT ( #96, #231, ( #524 ) ) ;
#368 = APPROVAL_ROLE ( '' ) ;
#369 = CYLINDRICAL_SURFACE ( 'NONE', #8, 20.05000000000000071 ) ;
#370 = SECURITY_CLASSIFICATION ( '', '', #5 ) ;
#371 = APPROVAL_STATUS ( 'not_yet_approved' ) ;
#372 = DIRECTION ( 'NONE',  ( -1.224646799147353207E-16, 1.000000000000000000, -0.000000000000000000 ) ) ;
#373 = EDGE_CURVE ( 'NONE', #259, #379, #79, .T. ) ;
#374 = ADVANCED_FACE ( 'NONE', ( #52 ), #181, .T. ) ;
#375 = ORIENTED_EDGE ( 'NONE', *, *, #316, .T. ) ;
#376 = ORIENTED_EDGE ( 'NONE', *, *, #301, .T. ) ;
#377 = COORDINATED_UNIVERSAL_TIME_OFFSET ( 0, 0, .AHEAD. ) ;
#378 = CARTESIAN_POINT ( 'NONE',  ( 0.000000000000000000, 0.000000000000000000, 0.000000000000000000 ) ) ;
#379 = VERTEX_POINT ( 'NONE', #252 ) ;
#380 = CIRCLE ( 'NONE', #608, 1.000000000000000000 ) ;
#381 = CIRCLE ( 'NONE', #617, 1.000000000000000000 ) ;
#382 = DIRECTION ( 'NONE',  ( -1.224646799147353207E-16, 1.000000000000000000, 0.000000000000000000 ) ) ;
#383 = LINE ( 'NONE', #479, #349 ) ;
#384 = APPROVAL ( #49, 'UNSPECIFIED' ) ;
#385 = CARTESIAN_POINT ( 'NONE',  ( 7.347880794884134527E-16, -6.000000000000011546, 0.000000000000000000 ) ) ;
#386 = ORIENTED_EDGE ( 'NONE', *, *, #411, .T. ) ;
#387 = CARTESIAN_POINT ( 'NONE',  ( 2.449293598294706414E-16, -2.000000000000000000, 0.000000000000000000 ) ) ;
#388 = EDGE_CURVE ( 'NONE', #569, #536, #528, .T. ) ;
#389 = ORIENTED_EDGE ( 'NONE', *, *, #285, .T. ) ;
#390 = DIRECTION ( 'NONE',  ( 1.000000000000000000, 0.000000000000000000, 0.000000000000000000 ) ) ;
#391 = DIRECTION ( 'NONE',  ( 0.7071067811865499042, 0.7071067811865452413, 8.659560562354962440E-17 ) ) ;
#392 = ORIENTED_EDGE ( 'NONE', *, *, #58, .F. ) ;
#393 = FACE_OUTER_BOUND ( 'NONE', #564, .T. ) ;
#394 = DIRECTION ( 'NONE',  ( -1.000000000000000000, -1.239088197126290817E-16, 0.000000000000000000 ) ) ;
#395 = ORIENTED_EDGE ( 'NONE', *, *, #105, .T. ) ;
#396 = FACE_OUTER_BOUND ( 'NONE', #481, .T. ) ;
#397 = CARTESIAN_POINT ( 'NONE',  ( -35.00000000000000000, -5.000000000000012434, 0.000000000000000000 ) ) ;
#398 = CIRCLE ( 'NONE', #275, 35.00000000000000000 ) ;
#399 = VERTEX_POINT ( 'NONE', #257 ) ;
#400 = VECTOR ( 'NONE', #320, 1000.000000000000114 ) ;
#401 = AXIS2_PLACEMENT_3D ( 'NONE', #72, #264, #597 ) ;
#402 = CARTESIAN_POINT ( 'NONE',  ( 2.550000000000000266, -4.000000000000001776, 25.00000000000000000 ) ) ;
#403 = LINE ( 'NONE', #355, #400 ) ;
#404 = ORIENTED_EDGE ( 'NONE', *, *, #499, .T. ) ;
#405 = VERTEX_POINT ( 'NONE', #113 ) ;
#406 = DIRECTION ( 'NONE',  ( 1.224646799147353207E-16, -1.000000000000000000, -0.000000000000000000 ) ) ;
#407 = CARTESIAN_POINT ( 'NONE',  ( 2.449293598294706414E-16, -2.000000000000000000, 0.000000000000000000 ) ) ;
#408 = FACE_OUTER_BOUND ( 'NONE', #283, .T. ) ;
#409 = DIRECTION ( 'NONE',  ( 1.224646799147353207E-16, -1.000000000000000000, 0.000000000000000000 ) ) ;
#410 = VECTOR ( 'NONE', #493, 1000.000000000000000 ) ;
#411 = EDGE_CURVE ( 'NONE', #509, #536, #506, .T. ) ;
#412 = AXIS2_PLACEMENT_3D ( 'NONE', #107, #484, #341 ) ;
#413 = LOCAL_TIME ( 15, 0, 16.00000000000000000, #377 ) ;
#414 = VECTOR ( 'NONE', #406, 1000.000000000000000 ) ;
#415 = CARTESIAN_POINT ( 'NONE',  ( 0.000000000000000000, 0.000000000000000000, 0.000000000000000000 ) ) ;
#416 = EDGE_CURVE ( 'NONE', #379, #399, #292, .T. ) ;
#417 = CARTESIAN_POINT ( 'NONE',  ( 35.00000000000000000, -5.000000000000003553, 4.286263797015736496E-15 ) ) ;
#418 = DIRECTION ( 'NONE',  ( -1.000000000000000000, -1.700709290173340409E-16, 0.000000000000000000 ) ) ;
#419 = VERTEX_POINT ( 'NONE', #337 ) ;
#420 = AXIS2_PLACEMENT_3D ( 'NONE', #163, #250, #394 ) ;
#421 = LOCAL_TIME ( 15, 0, 16.00000000000000000, #289 ) ;
#422 = EDGE_CURVE ( 'NONE', #164, #197, #482, .T. ) ;
#423 = CARTESIAN_POINT ( 'NONE',  ( 0.000000000000000000, 0.000000000000000000, 0.000000000000000000 ) ) ;
#424 = MECHANICAL_CONTEXT ( 'NONE', #565, 'mechanical' ) ;
#425 = FACE_OUTER_BOUND ( 'NONE', #214, .T. ) ;
#426 = ORIENTED_EDGE ( 'NONE', *, *, #306, .F. ) ;
#427 = ADVANCED_FACE ( 'NONE', ( #213 ), #490, .F. ) ;
#428 = CIRCLE ( 'NONE', #179, 35.00000000000000000 ) ;
#429 = CIRCLE ( 'NONE', #98, 2.549999999999999822 ) ;
#430 = CARTESIAN_POINT ( 'NONE',  ( 7.347880794884134527E-16, -6.000000000000011546, 0.000000000000000000 ) ) ;
#431 = APPROVAL_PERSON_ORGANIZATION ( #189, #108, #562 ) ;
#432 = ORIENTED_EDGE ( 'NONE', *, *, #499, .F. ) ;
#433 = CC_DESIGN_PERSON_AND_ORGANIZATION_ASSIGNMENT ( #39, #469, ( #323 ) ) ;
#434 = CARTESIAN_POINT ( 'NONE',  ( 6.123233995736775157E-16, -5.000000000000007994, 0.000000000000000000 ) ) ;
#435 = ORIENTED_EDGE ( 'NONE', *, *, #526, .F. ) ;
#436 = EDGE_LOOP ( 'NONE', ( #150, #171, #514, #404 ) ) ;
#437 = EDGE_CURVE ( 'NONE', #99, #569, #591, .T. ) ;
#438 = DIRECTION ( 'NONE',  ( -1.000000000000000000, -1.700709290173340409E-16, 0.000000000000000000 ) ) ;
#439 = ORIENTED_EDGE ( 'NONE', *, *, #422, .F. ) ;
#440 = DIRECTION ( 'NONE',  ( 1.224646799147353207E-16, -1.000000000000000000, 0.000000000000000000 ) ) ;
#441 = CC_DESIGN_DATE_AND_TIME_ASSIGNMENT ( #198, #475, ( #326 ) ) ;
#442 = AXIS2_PLACEMENT_3D ( 'NONE', #75, #221, #609 ) ;
#443 = CARTESIAN_POINT ( 'NONE',  ( 35.00000000000000000, -5.000000000000003553, 4.286263797015736496E-15 ) ) ;
#444 = VECTOR ( 'NONE', #131, 1000.000000000000000 ) ;
#445 = ORIENTED_EDGE ( 'NONE', *, *, #38, .F. ) ;
#446 = PLANE ( 'NONE',  #471 ) ;
#447 = DIRECTION ( 'NONE',  ( -1.000000000000000000, -1.297798111703346826E-16, 0.000000000000000000 ) ) ;
#448 = DIRECTION ( 'NONE',  ( 1.224646799147353207E-16, -1.000000000000000000, -0.000000000000000000 ) ) ;
#449 = DIRECTION ( 'NONE',  ( -1.000000000000000000, -1.275531967630005245E-16, 0.000000000000000000 ) ) ;
#450 = ORIENTED_EDGE ( 'NONE', *, *, #54, .F. ) ;
#451 = EDGE_LOOP ( 'NONE', ( #188, #225, #386, #161 ) ) ;
#452 = CARTESIAN_POINT ( 'NONE',  ( 2.550000000000000266, -4.000000000000001776, 25.00000000000000000 ) ) ;
#453 = AXIS2_PLACEMENT_3D ( 'NONE', #280, #40, #233 ) ;
#454 = AXIS2_PLACEMENT_3D ( 'NONE', #269, #125, #555 ) ;
#455 = EDGE_LOOP ( 'NONE', ( #363, #462 ) ) ;
#456 = PRODUCT_RELATED_PRODUCT_CATEGORY ( 'detail', '', ( #323 ) ) ;
#457 = CARTESIAN_POINT ( 'NONE',  ( -3.673940397442053459E-16, 2.999999999999994671, 0.000000000000000000 ) ) ;
#458 = CYLINDRICAL_SURFACE ( 'NONE', #530, 35.00000000000000000 ) ;
#459 = CARTESIAN_POINT ( 'NONE',  ( 20.05000000000000071, 2.455416832290443586E-15, 2.455416832290443586E-15 ) ) ;
#460 = FACE_OUTER_BOUND ( 'NONE', #496, .T. ) ;
#461 = DIRECTION ( 'NONE',  ( -1.224646799147353207E-16, 1.000000000000000000, -0.000000000000000000 ) ) ;
#462 = ORIENTED_EDGE ( 'NONE', *, *, #54, .T. ) ;
#463 = DIRECTION ( 'NONE',  ( -1.000000000000000000, -1.239088197126290817E-16, 0.000000000000000000 ) ) ;
#464 = CIRCLE ( 'NONE', #324, 20.05000000000000071 ) ;
#465 = DIRECTION ( 'NONE',  ( 1.000000000000000000, 1.224646799147353207E-16, 0.000000000000000000 ) ) ;
#466 = DIRECTION ( 'NONE',  ( -1.224646799147353207E-16, 1.000000000000000000, -0.000000000000000000 ) ) ;
#467 = ORIENTED_EDGE ( 'NONE', *, *, #388, .T. ) ;
#468 = EDGE_CURVE ( 'NONE', #544, #200, #87, .T. ) ;
#469 = PERSON_AND_ORGANIZATION_ROLE ( 'design_owner' ) ;
#470 = ORIENTED_EDGE ( 'NONE', *, *, #219, .T. ) ;
#471 = AXIS2_PLACEMENT_3D ( 'NONE', #168, #304, #268 ) ;
#472 = AXIS2_PLACEMENT_3D ( 'NONE', #261, #273, #135 ) ;
#473 = DATE_AND_TIME ( #187, #508 ) ;
#474 = EDGE_LOOP ( 'NONE', ( #486, #76, #538, #435 ) ) ;
#475 = DATE_TIME_ROLE ( 'creation_date' ) ;
#476 = CARTESIAN_POINT ( 'NONE',  ( 0.000000000000000000, 0.000000000000000000, 0.000000000000000000 ) ) ;
#477 = ADVANCED_FACE ( 'NONE', ( #209 ), #60, .F. ) ;
#478 = ORIENTED_EDGE ( 'NONE', *, *, #614, .T. ) ;
#479 = CARTESIAN_POINT ( 'NONE',  ( -2.549999999999999378, -4.000000000000001776, -25.00000000000000000 ) ) ;
#480 = CC_DESIGN_PERSON_AND_ORGANIZATION_ASSIGNMENT ( #321, #519, ( #326 ) ) ;
#481 = EDGE_LOOP ( 'NONE', ( #586, #90, #501, #194 ) ) ;
#482 = CIRCLE ( 'NONE', #254, 2.549999999999999822 ) ;
#483 = CC_DESIGN_APPROVAL ( #175, ( #370 ) ) ;
#484 = DIRECTION ( 'NONE',  ( -1.224646799147353207E-16, 1.000000000000000000, -0.000000000000000000 ) ) ;
#485 = LOCAL_TIME ( 15, 0, 16.00000000000000000, #244 ) ;
#486 = ORIENTED_EDGE ( 'NONE', *, *, #17, .F. ) ;
#487 = DIRECTION ( 'NONE',  ( 1.000000000000000000, 0.000000000000000000, 0.000000000000000000 ) ) ;
#488 = ORIENTED_EDGE ( 'NONE', *, *, #345, .T. ) ;
#489 = CC_DESIGN_PERSON_AND_ORGANIZATION_ASSIGNMENT ( #325, #101, ( #370 ) ) ;
#490 = CYLINDRICAL_SURFACE ( 'NONE', #315, 2.549999999999999822 ) ;
#491 = LINE ( 'NONE', #459, #444 ) ;
#492 = ORIENTED_EDGE ( 'NONE', *, *, #191, .F. ) ;
#493 = DIRECTION ( 'NONE',  ( -1.224646799147353207E-16, 1.000000000000000000, -0.000000000000000000 ) ) ;
#494 = CYLINDRICAL_SURFACE ( 'NONE', #517, 2.549999999999999822 ) ;
#495 = CIRCLE ( 'NONE', #45, 2.549999999999999822 ) ;
#496 = EDGE_LOOP ( 'NONE', ( #340, #314, #103, #593 ) ) ;
#497 = DIRECTION ( 'NONE',  ( -1.000000000000000000, -1.239088197126290817E-16, 0.000000000000000000 ) ) ;
#498 = FACE_BOUND ( 'NONE', #599, .T. ) ;
#499 = EDGE_CURVE ( 'NONE', #613, #319, #495, .T. ) ;
#500 = ORIENTED_EDGE ( 'NONE', *, *, #241, .T. ) ;
#501 = ORIENTED_EDGE ( 'NONE', *, *, #112, .T. ) ;
#502 = DIRECTION ( 'NONE',  ( -1.000000000000000000, -1.224646799147353207E-16, 0.000000000000000000 ) ) ;
#503 = CYLINDRICAL_SURFACE ( 'NONE', #472, 2.549999999999999822 ) ;
#504 = ADVANCED_FACE ( 'NONE', ( #117 ), #494, .F. ) ;
#505 = FACE_OUTER_BOUND ( 'NONE', #576, .T. ) ;
#506 = CIRCLE ( 'NONE', #523, 20.05000000000000071 ) ;
#507 = DIRECTION ( 'NONE',  ( 1.224646799147353207E-16, -1.000000000000000000, 0.000000000000000000 ) ) ;
#508 = LOCAL_TIME ( 15, 0, 16.00000000000000000, #365 ) ;
#509 = VERTEX_POINT ( 'NONE', #542 ) ;
#510 = EDGE_CURVE ( 'NONE', #118, #419, #249, .T. ) ;
#511 = CYLINDRICAL_SURFACE ( 'NONE', #274, 2.549999999999999822 ) ;
#512 = DIRECTION ( 'NONE',  ( -1.000000000000000000, -1.700709290173340409E-16, 0.000000000000000000 ) ) ;
#513 =( LENGTH_UNIT ( ) NAMED_UNIT ( * ) SI_UNIT ( .MILLI., .METRE. ) );
#514 = ORIENTED_EDGE ( 'NONE', *, *, #77, .T. ) ;
#515 = DATE_AND_TIME ( #279, #413 ) ;
#516 = EDGE_LOOP ( 'NONE', ( #2, #109, #265, #353 ) ) ;
#517 = AXIS2_PLACEMENT_3D ( 'NONE', #407, #85, #512 ) ;
#518 = ORIENTED_EDGE ( 'NONE', *, *, #112, .F. ) ;
#519 = PERSON_AND_ORGANIZATION_ROLE ( 'creator' ) ;
#520 = DIRECTION ( 'NONE',  ( -1.000000000000000000, -1.239088197126290817E-16, 0.000000000000000000 ) ) ;
#521 = APPROVAL_DATE_TIME ( #525, #384 ) ;
#522 = DIRECTION ( 'NONE',  ( -1.000000000000000000, 0.000000000000000000, 0.000000000000000000 ) ) ;
#523 = AXIS2_PLACEMENT_3D ( 'NONE', #151, #16, #447 ) ;
#524 = PRODUCT_DEFINITION_FORMATION_WITH_SPECIFIED_SOURCE ( 'ANY', '', #323, .NOT_KNOWN. ) ;
#525 = DATE_AND_TIME ( #142, #485 ) ;
#526 = EDGE_CURVE ( 'NONE', #200, #544, #398, .T. ) ;
#527 = DIRECTION ( 'NONE',  ( -1.224646799147353207E-16, 1.000000000000000000, 0.000000000000000000 ) ) ;
#528 = LINE ( 'NONE', #537, #204 ) ;
#529 = AXIS2_PLACEMENT_3D ( 'NONE', #4, #199, #237 ) ;
#530 = AXIS2_PLACEMENT_3D ( 'NONE', #415, #461, #130 ) ;
#531 = CARTESIAN_POINT ( 'NONE',  ( -0.9999999999999993339, -6.000000000000011546, 0.000000000000000000 ) ) ;
#532 = EDGE_LOOP ( 'NONE', ( #158, #106 ) ) ;
#533 = EDGE_CURVE ( 'NONE', #419, #544, #403, .T. ) ;
#534 = DIRECTION ( 'NONE',  ( -1.224646799147352961E-16, 1.000000000000000000, -0.000000000000000000 ) ) ;
#535 = DIRECTION ( 'NONE',  ( -1.224646799147353454E-16, 1.000000000000000000, -0.000000000000000000 ) ) ;
#536 = VERTEX_POINT ( 'NONE', #174 ) ;
#537 = CARTESIAN_POINT ( 'NONE',  ( -20.05000000000000071, -2.455416832290443586E-15, 0.000000000000000000 ) ) ;
#538 = ORIENTED_EDGE ( 'NONE', *, *, #533, .T. ) ;
#539 = LINE ( 'NONE', #452, #68 ) ;
#540 = CIRCLE ( 'NONE', #248, 2.549999999999999822 ) ;
#541 = ADVANCED_FACE ( 'NONE', ( #230 ), #503, .F. ) ;
#542 = CARTESIAN_POINT ( 'NONE',  ( 20.05000000000000071, 2.999999999999997335, 2.455416832290443586E-15 ) ) ;
#543 = AXIS2_PLACEMENT_3D ( 'NONE', #434, #534, #10 ) ;
#544 = VERTEX_POINT ( 'NONE', #397 ) ;
#545 = DIRECTION ( 'NONE',  ( 1.224646799147353207E-16, -1.000000000000000000, -0.000000000000000000 ) ) ;
#546 = PLANE ( 'NONE',  #454 ) ;
#547 = ADVANCED_FACE ( 'NONE', ( #312 ), #34, .T. ) ;
#548 = LINE ( 'NONE', #443, #212 ) ;
#549 = ORIENTED_EDGE ( 'NONE', *, *, #285, .F. ) ;
#550 = DIRECTION ( 'NONE',  ( 1.000000000000000000, 0.000000000000000000, 0.000000000000000000 ) ) ;
#551 = CYLINDRICAL_SURFACE ( 'NONE', #401, 2.549999999999999822 ) ;
#552 = CARTESIAN_POINT ( 'NONE',  ( -2.549999999999999378, -4.000000000000001776, 25.00000000000000000 ) ) ;
#553 = DIRECTION ( 'NONE',  ( -1.224646799147352961E-16, 1.000000000000000000, -0.000000000000000000 ) ) ;
#554 = EDGE_LOOP ( 'NONE', ( #81, #358, #389, #567 ) ) ;
#555 = DIRECTION ( 'NONE',  ( 1.000000000000000000, 1.224646799147353207E-16, 0.000000000000000000 ) ) ;
#556 = APPROVAL_ROLE ( '' ) ;
#557 = SHAPE_DEFINITION_REPRESENTATION ( #291, #595 ) ;
#558 = CARTESIAN_POINT ( 'NONE',  ( 1.000000000000000222, -2.000000000000000000, 1.224646799147353207E-16 ) ) ;
#559 = VECTOR ( 'NONE', #93, 1000.000000000000000 ) ;
#560 = VERTEX_POINT ( 'NONE', #602 ) ;
#561 = CC_DESIGN_APPROVAL ( #108, ( #326 ) ) ;
#562 = APPROVAL_ROLE ( '' ) ;
#563 = ADVANCED_FACE ( 'NONE', ( #505 ), #458, .T. ) ;
#564 = EDGE_LOOP ( 'NONE', ( #478, #57 ) ) ;
#565 = APPLICATION_CONTEXT ( 'configuration controlled 3d designs of mechanical parts and assemblies' ) ;
#566 = PERSON_AND_ORGANIZATION ( #51, #339 ) ;
#567 = ORIENTED_EDGE ( 'NONE', *, *, #416, .F. ) ;
#568 = ADVANCED_FACE ( 'NONE', ( #357 ), #33, .F. ) ;
#569 = VERTEX_POINT ( 'NONE', #121 ) ;
#570 = APPROVAL_DATE_TIME ( #515, #175 ) ;
#571 = AXIS2_PLACEMENT_3D ( 'NONE', #596, #173, #550 ) ;
#572 = AXIS2_PLACEMENT_3D ( 'NONE', #44, #575, #465 ) ;
#573 = ADVANCED_FACE ( 'NONE', ( #590 ), #154, .T. ) ;
#574 = EDGE_LOOP ( 'NONE', ( #222, #549 ) ) ;
#575 = DIRECTION ( 'NONE',  ( 1.224646799147353207E-16, -1.000000000000000000, 0.000000000000000000 ) ) ;
#576 = EDGE_LOOP ( 'NONE', ( #11, #352, #128, #492 ) ) ;
#577 = ORIENTED_EDGE ( 'NONE', *, *, #373, .T. ) ;
#578 = CARTESIAN_POINT ( 'NONE',  ( 4.898587196589415787E-16, -4.000000000000001776, 25.00000000000000000 ) ) ;
#579 = DIRECTION ( 'NONE',  ( -1.224646799147353454E-16, 1.000000000000000000, -0.000000000000000000 ) ) ;
#580 = MANIFOLD_SOLID_BREP ( 'Cut-Extrude3', #203 ) ;
#581 = DIRECTION ( 'NONE',  ( 1.224646799147353207E-16, -1.000000000000000000, 0.000000000000000000 ) ) ;
#582 = EDGE_LOOP ( 'NONE', ( #84, #334, #467, #488 ) ) ;
#583 = DIRECTION ( 'NONE',  ( -1.224646799147353207E-16, 1.000000000000000000, -0.000000000000000000 ) ) ;
#584 = PLANE ( 'NONE',  #229 ) ;
#585 = DIRECTION ( 'NONE',  ( -1.224646799147353207E-16, 1.000000000000000000, -0.000000000000000000 ) ) ;
#586 = ORIENTED_EDGE ( 'NONE', *, *, #316, .F. ) ;
#587 = ORIENTED_EDGE ( 'NONE', *, *, #105, .F. ) ;
#588 = EDGE_CURVE ( 'NONE', #148, #48, #183, .T. ) ;
#589 = DIRECTION ( 'NONE',  ( 1.000000000000000000, 0.000000000000000000, 0.000000000000000000 ) ) ;
#590 = FACE_OUTER_BOUND ( 'NONE', #474, .T. ) ;
#591 = CIRCLE ( 'NONE', #412, 20.05000000000000071 ) ;
#592 =( GEOMETRIC_REPRESENTATION_CONTEXT ( 3 ) GLOBAL_UNCERTAINTY_ASSIGNED_CONTEXT ( ( #13 ) ) GLOBAL_UNIT_ASSIGNED_CONTEXT ( ( #513, #86, #42 ) ) REPRESENTATION_CONTEXT ( 'NONE', 'WORKASPACE' ) );
#593 = ORIENTED_EDGE ( 'NONE', *, *, #169, .T. ) ;
#594 = ORIENTED_EDGE ( 'NONE', *, *, #322, .T. ) ;
#595 = ADVANCED_BREP_SHAPE_REPRESENTATION ( 'support_plate', ( #580, #193 ), #592 ) ;
#596 = CARTESIAN_POINT ( 'NONE',  ( 7.347880794884121708E-16, -6.000000000000001776, -25.00000000000000000 ) ) ;
#597 = DIRECTION ( 'NONE',  ( 1.000000000000000000, 0.000000000000000000, 0.000000000000000000 ) ) ;
#598 = LINE ( 'NONE', #156, #145 ) ;
#599 = EDGE_LOOP ( 'NONE', ( #115, #218 ) ) ;
#600 = APPLICATION_CONTEXT ( 'configuration controlled 3d designs of mechanical parts and assemblies' ) ;
#601 = CARTESIAN_POINT ( 'NONE',  ( 34.00000000000000000, -5.999999999999997335, 4.225031457058368133E-15 ) ) ;
#602 = CARTESIAN_POINT ( 'NONE',  ( 2.550000000000000266, -4.000000000000001776, -25.00000000000000000 ) ) ;
#603 = ADVANCED_FACE ( 'NONE', ( #498, #170 ), #546, .F. ) ;
#604 = ORIENTED_EDGE ( 'NONE', *, *, #588, .T. ) ;
#605 = CARTESIAN_POINT ( 'NONE',  ( 7.347880794884122694E-16, -6.000000000000001776, 0.000000000000000000 ) ) ;
#606 = CARTESIAN_POINT ( 'NONE',  ( 6.123233995736775157E-16, -5.000000000000007994, 0.000000000000000000 ) ) ;
#607 = AXIS2_PLACEMENT_3D ( 'NONE', #313, #507, #25 ) ;
#608 = AXIS2_PLACEMENT_3D ( 'NONE', #129, #32, #224 ) ;
#609 = DIRECTION ( 'NONE',  ( -1.000000000000000000, -1.224646799147353454E-16, 0.000000000000000000 ) ) ;
#610 = ADVANCED_FACE ( 'NONE', ( #178 ), #551, .F. ) ;
#611 = PERSON_AND_ORGANIZATION_ROLE ( 'design_supplier' ) ;
#612 = LINE ( 'NONE', #144, #559 ) ;
#613 = VERTEX_POINT ( 'NONE', #31 ) ;
#614 = EDGE_CURVE ( 'NONE', #419, #118, #15, .T. ) ;
#615 = DIRECTION ( 'NONE',  ( 0.000000000000000000, 0.000000000000000000, 1.000000000000000000 ) ) ;
#616 = FACE_BOUND ( 'NONE', #574, .T. ) ;
#617 = AXIS2_PLACEMENT_3D ( 'NONE', #430, #152, #293 ) ;
#618 = ORIENTED_EDGE ( 'NONE', *, *, #271, .F. ) ;
#619 = COORDINATED_UNIVERSAL_TIME_OFFSET ( 0, 0, .AHEAD. ) ;
ENDSEC;
END-ISO-10303-21;
