ISO-10303-21;
HEADER;
FILE_DESCRIPTION (( 'STEP AP203' ),
    '1' );
FILE_NAME ('bolster_bottom.STEP',
    '2025-12-05T14:59:19',
    ( '' ),
    ( '' ),
    'SwSTEP 2.0',
    'SolidWorks 2020',
    '' );
FILE_SCHEMA (( 'CONFIG_CONTROL_DESIGN' ));
ENDSEC;

DATA;
#1 = ADVANCED_FACE ( 'NONE', ( #192 ), #356, .F. ) ;
#2 = AXIS2_PLACEMENT_3D ( 'NONE', #120, #972, #764 ) ;
#3 = DIRECTION ( 'NONE',  ( 0.000000000000000000, 0.000000000000000000, 1.000000000000000000 ) ) ;
#4 = AXIS2_PLACEMENT_3D ( 'NONE', #480, #812, #74 ) ;
#5 = CARTESIAN_POINT ( 'NONE',  ( 40.00000000000000711, 7.500000000000000000, 34.99999999999999289 ) ) ;
#6 = CARTESIAN_POINT ( 'NONE',  ( 0.000000000000000000, 15.00000000000000000, 35.04999999999999716 ) ) ;
#7 = ORIENTED_EDGE ( 'NONE', *, *, #73, .T. ) ;
#8 = VERTEX_POINT ( 'NONE', #530 ) ;
#9 = LOCAL_TIME ( 14, 59, 19.00000000000000000, #732 ) ;
#10 =( NAMED_UNIT ( * ) SI_UNIT ( $, .STERADIAN. ) SOLID_ANGLE_UNIT ( ) );
#11 = EDGE_CURVE ( 'NONE', #353, #541, #653, .T. ) ;
#12 = DIRECTION ( 'NONE',  ( -0.000000000000000000, -0.000000000000000000, 1.000000000000000000 ) ) ;
#13 = ORIENTED_EDGE ( 'NONE', *, *, #575, .T. ) ;
#14 = AXIS2_PLACEMENT_3D ( 'NONE', #115, #687, #274 ) ;
#15 = AXIS2_PLACEMENT_3D ( 'NONE', #405, #647, #1064 ) ;
#16 = AXIS2_PLACEMENT_3D ( 'NONE', #302, #908, #57 ) ;
#17 = FACE_OUTER_BOUND ( 'NONE', #386, .T. ) ;
#18 = DIRECTION ( 'NONE',  ( 0.000000000000000000, 1.000000000000000000, 0.000000000000000000 ) ) ;
#19 = CIRCLE ( 'NONE', #36, 2.499999999999998668 ) ;
#20 = VERTEX_POINT ( 'NONE', #943 ) ;
#21 = ADVANCED_FACE ( 'NONE', ( #952, #522, #773 ), #1041, .F. ) ;
#22 = DIRECTION ( 'NONE',  ( 0.000000000000000000, 0.000000000000000000, -1.000000000000000000 ) ) ;
#23 = ORIENTED_EDGE ( 'NONE', *, *, #348, .F. ) ;
#24 = ORIENTED_EDGE ( 'NONE', *, *, #247, .F. ) ;
#25 = CARTESIAN_POINT ( 'NONE',  ( 40.00000000000000711, 7.500000000000000000, -34.99999999999999289 ) ) ;
#26 = EDGE_CURVE ( 'NONE', #623, #1014, #778, .T. ) ;
#27 = ORIENTED_EDGE ( 'NONE', *, *, #176, .T. ) ;
#28 = DIRECTION ( 'NONE',  ( 0.000000000000000000, 0.000000000000000000, 1.000000000000000000 ) ) ;
#29 = CARTESIAN_POINT ( 'NONE',  ( 4.292387031011472780E-15, 15.00000000000000000, -35.04999999999999716 ) ) ;
#30 = ORIENTED_EDGE ( 'NONE', *, *, #1030, .T. ) ;
#31 = EDGE_CURVE ( 'NONE', #141, #803, #100, .T. ) ;
#32 = AXIS2_PLACEMENT_3D ( 'NONE', #1027, #602, #268 ) ;
#33 = CARTESIAN_POINT ( 'NONE',  ( -70.00000000000000000, 15.00000000000000000, -45.00000000000000000 ) ) ;
#34 = AXIS2_PLACEMENT_3D ( 'NONE', #942, #1036, #993 ) ;
#35 = VERTEX_POINT ( 'NONE', #814 ) ;
#36 = AXIS2_PLACEMENT_3D ( 'NONE', #886, #1063, #468 ) ;
#37 = DIRECTION ( 'NONE',  ( 0.000000000000000000, 1.000000000000000000, -0.000000000000000000 ) ) ;
#38 = DIRECTION ( 'NONE',  ( 0.000000000000000000, 0.000000000000000000, 1.000000000000000000 ) ) ;
#39 = VERTEX_POINT ( 'NONE', #324 ) ;
#40 = CARTESIAN_POINT ( 'NONE',  ( 41.30000000000001137, 7.500000000000000000, -34.99999999999999289 ) ) ;
#41 = CARTESIAN_POINT ( 'NONE',  ( 55.00000000000000711, 0.000000000000000000, 30.00000000000000000 ) ) ;
#42 = EDGE_LOOP ( 'NONE', ( #650, #869 ) ) ;
#43 = EDGE_CURVE ( 'NONE', #584, #898, #398, .T. ) ;
#44 = DIRECTION ( 'NONE',  ( -0.000000000000000000, 1.000000000000000000, -0.000000000000000000 ) ) ;
#45 = DIRECTION ( 'NONE',  ( -0.000000000000000000, -0.000000000000000000, 1.000000000000000000 ) ) ;
#46 = FACE_OUTER_BOUND ( 'NONE', #488, .T. ) ;
#47 = ORIENTED_EDGE ( 'NONE', *, *, #555, .F. ) ;
#48 = DIRECTION ( 'NONE',  ( 0.000000000000000000, 1.000000000000000000, 0.000000000000000000 ) ) ;
#49 = EDGE_LOOP ( 'NONE', ( #657, #174, #911, #925 ) ) ;
#50 = DIRECTION ( 'NONE',  ( 0.000000000000000000, 0.000000000000000000, 1.000000000000000000 ) ) ;
#51 = CARTESIAN_POINT ( 'NONE',  ( -70.00000000000000000, 0.000000000000000000, -45.00000000000000000 ) ) ;
#52 = FACE_BOUND ( 'NONE', #438, .T. ) ;
#53 = AXIS2_PLACEMENT_3D ( 'NONE', #317, #301, #471 ) ;
#54 = CARTESIAN_POINT ( 'NONE',  ( 0.000000000000000000, 12.00000000000000000, -25.00000000000000000 ) ) ;
#55 = CC_DESIGN_DATE_AND_TIME_ASSIGNMENT ( #227, #1092, ( #414 ) ) ;
#56 = AXIS2_PLACEMENT_3D ( 'NONE', #99, #179, #95 ) ;
#57 = DIRECTION ( 'NONE',  ( -1.000000000000000000, 0.000000000000000000, 0.000000000000000000 ) ) ;
#58 = APPLICATION_PROTOCOL_DEFINITION ( 'international standard', 'config_control_design', 1994, #1015 ) ;
#59 = ORIENTED_EDGE ( 'NONE', *, *, #26, .F. ) ;
#60 = DIRECTION ( 'NONE',  ( 0.000000000000000000, 1.000000000000000000, 0.000000000000000000 ) ) ;
#61 = PLANE ( 'NONE',  #496 ) ;
#62 = APPLICATION_PROTOCOL_DEFINITION ( 'international standard', 'config_control_design', 1994, #93 ) ;
#63 = EDGE_CURVE ( 'NONE', #588, #784, #180, .T. ) ;
#64 = ORIENTED_EDGE ( 'NONE', *, *, #757, .T. ) ;
#65 = DIRECTION ( 'NONE',  ( 1.000000000000000000, 0.000000000000000000, 0.000000000000000000 ) ) ;
#66 = FACE_BOUND ( 'NONE', #610, .T. ) ;
#67 = CYLINDRICAL_SURFACE ( 'NONE', #962, 1.000000000000001554 ) ;
#68 = DIRECTION ( 'NONE',  ( -1.000000000000000000, 0.000000000000000000, 0.000000000000000000 ) ) ;
#69 = ORIENTED_EDGE ( 'NONE', *, *, #617, .F. ) ;
#70 = AXIS2_PLACEMENT_3D ( 'NONE', #850, #448, #108 ) ;
#71 = VECTOR ( 'NONE', #936, 1000.000000000000000 ) ;
#72 = APPROVAL ( #1090, 'UNSPECIFIED' ) ;
#73 = EDGE_CURVE ( 'NONE', #578, #282, #310, .T. ) ;
#74 = DIRECTION ( 'NONE',  ( 0.000000000000000000, -0.000000000000000000, -1.000000000000000000 ) ) ;
#75 = LINE ( 'NONE', #404, #621 ) ;
#76 = ORIENTED_EDGE ( 'NONE', *, *, #425, .T. ) ;
#77 = DIRECTION ( 'NONE',  ( -0.000000000000000000, 1.000000000000000000, -0.000000000000000000 ) ) ;
#78 = SECURITY_CLASSIFICATION_LEVEL ( 'unclassified' ) ;
#79 = APPROVAL ( #887, 'UNSPECIFIED' ) ;
#80 = LOCAL_TIME ( 14, 59, 19.00000000000000000, #237 ) ;
#81 = DIRECTION ( 'NONE',  ( 0.000000000000000000, 1.000000000000000000, 0.000000000000000000 ) ) ;
#82 = LINE ( 'NONE', #1013, #86 ) ;
#83 = ORIENTED_EDGE ( 'NONE', *, *, #26, .T. ) ;
#84 = CIRCLE ( 'NONE', #1017, 1.300000000000002487 ) ;
#85 = VECTOR ( 'NONE', #351, 1000.000000000000000 ) ;
#86 = VECTOR ( 'NONE', #12, 1000.000000000000000 ) ;
#87 = DIRECTION ( 'NONE',  ( 0.000000000000000000, -1.000000000000000000, 0.000000000000000000 ) ) ;
#88 = VERTEX_POINT ( 'NONE', #387 ) ;
#89 = EDGE_CURVE ( 'NONE', #697, #699, #755, .T. ) ;
#90 = UNCERTAINTY_MEASURE_WITH_UNIT (LENGTH_MEASURE( 1.000000000000000082E-05 ), #663, 'distance_accuracy_value', 'NONE');
#91 = CARTESIAN_POINT ( 'NONE',  ( 70.00000000000000000, 0.000000000000000000, 45.00000000000000000 ) ) ;
#92 = DATE_AND_TIME ( #415, #751 ) ;
#93 = APPLICATION_CONTEXT ( 'configuration controlled 3d designs of mechanical parts and assemblies' ) ;
#94 = ORIENTED_EDGE ( 'NONE', *, *, #909, .T. ) ;
#95 = DIRECTION ( 'NONE',  ( 0.000000000000000000, 0.000000000000000000, 1.000000000000000000 ) ) ;
#96 = ADVANCED_FACE ( 'NONE', ( #1072 ), #889, .F. ) ;
#97 = CARTESIAN_POINT ( 'NONE',  ( -41.30000000000001137, 7.500000000000000000, -34.99999999999999289 ) ) ;
#98 = ORIENTED_EDGE ( 'NONE', *, *, #890, .T. ) ;
#99 = CARTESIAN_POINT ( 'NONE',  ( 70.00000000000000000, 15.00000000000000000, 45.00000000000000000 ) ) ;
#100 = CIRCLE ( 'NONE', #380, 7.500000000000000000 ) ;
#101 = CARTESIAN_POINT ( 'NONE',  ( -41.30000000000001137, 7.500000000000000000, -34.99999999999999289 ) ) ;
#102 = VECTOR ( 'NONE', #1042, 1000.000000000000000 ) ;
#103 = AXIS2_PLACEMENT_3D ( 'NONE', #1003, #660, #1008 ) ;
#104 = CYLINDRICAL_SURFACE ( 'NONE', #32, 35.04999999999999716 ) ;
#105 = VECTOR ( 'NONE', #394, 1000.000000000000000 ) ;
#106 = EDGE_LOOP ( 'NONE', ( #515, #643 ) ) ;
#107 = ADVANCED_FACE ( 'NONE', ( #231 ), #788, .F. ) ;
#108 = DIRECTION ( 'NONE',  ( 0.000000000000000000, 0.000000000000000000, -1.000000000000000000 ) ) ;
#109 = EDGE_LOOP ( 'NONE', ( #679, #147, #1021, #455 ) ) ;
#110 = CARTESIAN_POINT ( 'NONE',  ( 3.061616997868384620E-16, 10.00000000000000000, -27.50000000000000000 ) ) ;
#111 = ORIENTED_EDGE ( 'NONE', *, *, #277, .F. ) ;
#112 = ADVANCED_FACE ( 'NONE', ( #547 ), #880, .F. ) ;
#113 = DIRECTION ( 'NONE',  ( 0.000000000000000000, 0.000000000000000000, -1.000000000000000000 ) ) ;
#114 = VERTEX_POINT ( 'NONE', #734 ) ;
#115 = CARTESIAN_POINT ( 'NONE',  ( 40.00000000000000711, 7.500000000000000000, 34.99999999999999289 ) ) ;
#116 = PRODUCT_DEFINITION_SHAPE ( 'NONE', 'NONE',  #414 ) ;
#117 = CARTESIAN_POINT ( 'NONE',  ( 0.000000000000000000, 10.00000000000000000, 25.00000000000000000 ) ) ;
#118 = ORIENTED_EDGE ( 'NONE', *, *, #835, .T. ) ;
#119 = CIRCLE ( 'NONE', #139, 1.000000000000001554 ) ;
#120 = CARTESIAN_POINT ( 'NONE',  ( 0.000000000000000000, 12.00000000000000000, 0.000000000000000000 ) ) ;
#121 = DIRECTION ( 'NONE',  ( 0.000000000000000000, 0.000000000000000000, 1.000000000000000000 ) ) ;
#122 = ADVANCED_FACE ( 'NONE', ( #800 ), #556, .F. ) ;
#123 = ORIENTED_EDGE ( 'NONE', *, *, #11, .T. ) ;
#124 = CARTESIAN_POINT ( 'NONE',  ( 55.00000000000000711, 15.00000000000000000, 37.49999999999999289 ) ) ;
#125 = COORDINATED_UNIVERSAL_TIME_OFFSET ( 0, 0, .AHEAD. ) ;
#126 = ORIENTED_EDGE ( 'NONE', *, *, #677, .F. ) ;
#127 = CARTESIAN_POINT ( 'NONE',  ( -70.00000000000000000, 15.00000000000000000, -45.00000000000000000 ) ) ;
#128 = DIRECTION ( 'NONE',  ( 1.000000000000000000, 0.000000000000000000, 0.000000000000000000 ) ) ;
#129 = ADVANCED_FACE ( 'NONE', ( #727 ), #1066, .F. ) ;
#130 = ORIENTED_EDGE ( 'NONE', *, *, #648, .F. ) ;
#131 = DIRECTION ( 'NONE',  ( 0.000000000000000000, 1.000000000000000000, 0.000000000000000000 ) ) ;
#132 = VECTOR ( 'NONE', #77, 1000.000000000000000 ) ;
#133 = CARTESIAN_POINT ( 'NONE',  ( -70.00000000000000000, 0.000000000000000000, 45.00000000000000000 ) ) ;
#134 = EDGE_LOOP ( 'NONE', ( #213, #1069 ) ) ;
#135 = DIRECTION ( 'NONE',  ( 0.000000000000000000, 1.000000000000000000, 0.000000000000000000 ) ) ;
#136 = PERSON_AND_ORGANIZATION ( #715, #597 ) ;
#137 = EDGE_CURVE ( 'NONE', #350, #382, #391, .T. ) ;
#138 = CARTESIAN_POINT ( 'NONE',  ( -54.99999999999999289, -0.0009999999999992653654, -30.00000000000000000 ) ) ;
#139 = AXIS2_PLACEMENT_3D ( 'NONE', #885, #60, #730 ) ;
#140 = EDGE_LOOP ( 'NONE', ( #517, #238, #98, #613 ) ) ;
#141 = VERTEX_POINT ( 'NONE', #892 ) ;
#142 = FACE_OUTER_BOUND ( 'NONE', #878, .T. ) ;
#143 = DIRECTION ( 'NONE',  ( 0.000000000000000000, 0.000000000000000000, 1.000000000000000000 ) ) ;
#144 = EDGE_CURVE ( 'NONE', #937, #596, #805, .T. ) ;
#145 = CARTESIAN_POINT ( 'NONE',  ( -20.00000000000000355, 12.00000000000000000, -1.115208210443206076E-15 ) ) ;
#146 = CARTESIAN_POINT ( 'NONE',  ( -40.00000000000000711, 7.500000000000000000, 34.99999999999999289 ) ) ;
#147 = ORIENTED_EDGE ( 'NONE', *, *, #235, .T. ) ;
#148 = CARTESIAN_POINT ( 'NONE',  ( 55.00000000000000711, -0.0009999999999992653654, 37.49999999999999289 ) ) ;
#149 = APPROVAL_ROLE ( '' ) ;
#150 = FACE_BOUND ( 'NONE', #834, .T. ) ;
#151 = CARTESIAN_POINT ( 'NONE',  ( 38.70000000000000284, 7.500000000000000000, -34.99999999999999289 ) ) ;
#152 = PERSON_AND_ORGANIZATION ( #715, #597 ) ;
#153 = VECTOR ( 'NONE', #982, 1000.000000000000000 ) ;
#154 = ORIENTED_EDGE ( 'NONE', *, *, #485, .F. ) ;
#155 = CIRCLE ( 'NONE', #900, 35.04999999999999716 ) ;
#156 = CIRCLE ( 'NONE', #233, 7.499999999999992895 ) ;
#157 = AXIS2_PLACEMENT_3D ( 'NONE', #1091, #582, #338 ) ;
#158 = EDGE_CURVE ( 'NONE', #1014, #551, #1001, .T. ) ;
#159 = CARTESIAN_POINT ( 'NONE',  ( 70.00000000000000000, 15.00000000000000000, 45.00000000000000000 ) ) ;
#160 = DIRECTION ( 'NONE',  ( 1.000000000000000000, 0.000000000000000000, 0.000000000000000000 ) ) ;
#161 = ORIENTED_EDGE ( 'NONE', *, *, #671, .T. ) ;
#162 = CARTESIAN_POINT ( 'NONE',  ( 70.00000000000000000, 15.00000000000000000, 45.00000000000000000 ) ) ;
#163 = PLANE ( 'NONE',  #883 ) ;
#164 = ORIENTED_EDGE ( 'NONE', *, *, #1023, .T. ) ;
#165 = ORIENTED_EDGE ( 'NONE', *, *, #430, .T. ) ;
#166 = CIRCLE ( 'NONE', #16, 1.300000000000002487 ) ;
#167 = CARTESIAN_POINT ( 'NONE',  ( 38.70000000000000284, 7.500000000000000000, -45.00000000000000000 ) ) ;
#168 = VECTOR ( 'NONE', #921, 1000.000000000000000 ) ;
#169 = CARTESIAN_POINT ( 'NONE',  ( 0.000000000000000000, 10.00000000000000000, 25.00000000000000000 ) ) ;
#170 = DIRECTION ( 'NONE',  ( 0.000000000000000000, 1.000000000000000000, 0.000000000000000000 ) ) ;
#171 = ORIENTED_EDGE ( 'NONE', *, *, #652, .F. ) ;
#172 = EDGE_CURVE ( 'NONE', #353, #784, #798, .T. ) ;
#173 = DIRECTION ( 'NONE',  ( 1.000000000000000000, 0.000000000000000000, 0.000000000000000000 ) ) ;
#174 = ORIENTED_EDGE ( 'NONE', *, *, #575, .F. ) ;
#175 = ORIENTED_EDGE ( 'NONE', *, *, #1089, .F. ) ;
#176 = EDGE_CURVE ( 'NONE', #460, #612, #508, .T. ) ;
#177 = PLANE ( 'NONE',  #607 ) ;
#178 = ORIENTED_EDGE ( 'NONE', *, *, #716, .T. ) ;
#179 = DIRECTION ( 'NONE',  ( -1.000000000000000000, 0.000000000000000000, 0.000000000000000000 ) ) ;
#180 = CIRCLE ( 'NONE', #847, 1.300000000000002487 ) ;
#181 = VECTOR ( 'NONE', #423, 1000.000000000000000 ) ;
#182 = EDGE_CURVE ( 'NONE', #541, #588, #416, .T. ) ;
#183 = EDGE_LOOP ( 'NONE', ( #768, #123, #197, #491 ) ) ;
#184 = VERTEX_POINT ( 'NONE', #167 ) ;
#185 = DIRECTION ( 'NONE',  ( 1.000000000000000000, 0.000000000000000000, 0.000000000000000000 ) ) ;
#186 = ORIENTED_EDGE ( 'NONE', *, *, #989, .T. ) ;
#187 = CARTESIAN_POINT ( 'NONE',  ( -20.00000000000000355, 0.000000000000000000, -1.115208210443206076E-15 ) ) ;
#188 = EDGE_LOOP ( 'NONE', ( #792, #771, #428, #446 ) ) ;
#189 = DIRECTION ( 'NONE',  ( -0.000000000000000000, 1.000000000000000000, -0.000000000000000000 ) ) ;
#190 = EDGE_LOOP ( 'NONE', ( #339, #534, #482, #94 ) ) ;
#191 = CARTESIAN_POINT ( 'NONE',  ( 40.00000000000000711, 7.500000000000000000, -34.99999999999999289 ) ) ;
#192 = FACE_OUTER_BOUND ( 'NONE', #840, .T. ) ;
#193 = EDGE_CURVE ( 'NONE', #282, #898, #395, .T. ) ;
#194 = CARTESIAN_POINT ( 'NONE',  ( 41.30000000000001137, 7.500000000000000000, -34.99999999999999289 ) ) ;
#195 = VECTOR ( 'NONE', #1016, 1000.000000000000000 ) ;
#196 = AXIS2_PLACEMENT_3D ( 'NONE', #1012, #245, #259 ) ;
#197 = ORIENTED_EDGE ( 'NONE', *, *, #182, .T. ) ;
#198 = AXIS2_PLACEMENT_3D ( 'NONE', #321, #817, #571 ) ;
#199 = ORIENTED_EDGE ( 'NONE', *, *, #1068, .T. ) ;
#200 = CC_DESIGN_PERSON_AND_ORGANIZATION_ASSIGNMENT ( #210, #546, ( #432 ) ) ;
#201 = CARTESIAN_POINT ( 'NONE',  ( -54.99999999999999289, 15.00000000000000000, -30.00000000000000000 ) ) ;
#202 = ORIENTED_EDGE ( 'NONE', *, *, #716, .F. ) ;
#203 = CYLINDRICAL_SURFACE ( 'NONE', #550, 1.300000000000002487 ) ;
#204 = FACE_OUTER_BOUND ( 'NONE', #1093, .T. ) ;
#205 = ORIENTED_EDGE ( 'NONE', *, *, #377, .F. ) ;
#206 = EDGE_CURVE ( 'NONE', #1080, #8, #155, .T. ) ;
#207 = CARTESIAN_POINT ( 'NONE',  ( -54.99999999999999289, -0.0009999999999992653654, -22.50000000000000000 ) ) ;
#208 = DIRECTION ( 'NONE',  ( -0.000000000000000000, -0.000000000000000000, 1.000000000000000000 ) ) ;
#209 = ORIENTED_EDGE ( 'NONE', *, *, #509, .F. ) ;
#210 = PERSON_AND_ORGANIZATION ( #715, #597 ) ;
#211 = CARTESIAN_POINT ( 'NONE',  ( -70.00000000000000000, 15.00000000000000000, 45.00000000000000000 ) ) ;
#212 = EDGE_LOOP ( 'NONE', ( #368, #209 ) ) ;
#213 = ORIENTED_EDGE ( 'NONE', *, *, #826, .T. ) ;
#214 = AXIS2_PLACEMENT_3D ( 'NONE', #201, #513, #113 ) ;
#215 = EDGE_CURVE ( 'NONE', #1043, #1014, #332, .T. ) ;
#216 = CARTESIAN_POINT ( 'NONE',  ( -38.70000000000000284, 7.500000000000000000, -34.99999999999999289 ) ) ;
#217 = DIRECTION ( 'NONE',  ( 1.000000000000000000, 0.000000000000000000, 0.000000000000000000 ) ) ;
#218 = VECTOR ( 'NONE', #1054, 1000.000000000000000 ) ;
#219 = DIRECTION ( 'NONE',  ( -0.000000000000000000, 1.000000000000000000, -0.000000000000000000 ) ) ;
#220 = AXIS2_PLACEMENT_3D ( 'NONE', #811, #236, #552 ) ;
#221 = DIRECTION ( 'NONE',  ( 1.000000000000000000, 0.000000000000000000, 0.000000000000000000 ) ) ;
#222 = CARTESIAN_POINT ( 'NONE',  ( 0.000000000000000000, 10.00000000000000000, 25.00000000000000000 ) ) ;
#223 = DIRECTION ( 'NONE',  ( 1.000000000000000000, 0.000000000000000000, 0.000000000000000000 ) ) ;
#224 = CC_DESIGN_PERSON_AND_ORGANIZATION_ASSIGNMENT ( #284, #969, ( #891 ) ) ;
#225 = VERTEX_POINT ( 'NONE', #828 ) ;
#226 = CARTESIAN_POINT ( 'NONE',  ( 3.061616997868383141E-16, 10.00000000000000000, 22.50000000000000355 ) ) ;
#227 = DATE_AND_TIME ( #910, #9 ) ;
#228 = EDGE_LOOP ( 'NONE', ( #165, #955 ) ) ;
#229 = DIRECTION ( 'NONE',  ( -0.000000000000000000, 1.000000000000000000, -0.000000000000000000 ) ) ;
#230 = EDGE_LOOP ( 'NONE', ( #269, #130, #616, #752 ) ) ;
#231 = FACE_OUTER_BOUND ( 'NONE', #888, .T. ) ;
#232 = VECTOR ( 'NONE', #1000, 1000.000000000000000 ) ;
#233 = AXIS2_PLACEMENT_3D ( 'NONE', #759, #819, #22 ) ;
#234 = AXIS2_PLACEMENT_3D ( 'NONE', #222, #558, #729 ) ;
#235 = EDGE_CURVE ( 'NONE', #279, #436, #836, .T. ) ;
#236 = DIRECTION ( 'NONE',  ( -0.000000000000000000, 1.000000000000000000, -0.000000000000000000 ) ) ;
#237 = COORDINATED_UNIVERSAL_TIME_OFFSET ( 0, 0, .AHEAD. ) ;
#238 = ORIENTED_EDGE ( 'NONE', *, *, #430, .F. ) ;
#239 = ORIENTED_EDGE ( 'NONE', *, *, #260, .F. ) ;
#240 = ORIENTED_EDGE ( 'NONE', *, *, #247, .T. ) ;
#241 = FACE_OUTER_BOUND ( 'NONE', #756, .T. ) ;
#242 = ADVANCED_FACE ( 'NONE', ( #454 ), #775, .F. ) ;
#243 = FACE_OUTER_BOUND ( 'NONE', #106, .T. ) ;
#244 = ORIENTED_EDGE ( 'NONE', *, *, #871, .F. ) ;
#245 = DIRECTION ( 'NONE',  ( 1.000000000000000000, -0.000000000000000000, 0.000000000000000000 ) ) ;
#246 = VERTEX_POINT ( 'NONE', #372 ) ;
#247 = EDGE_CURVE ( 'NONE', #697, #141, #770, .T. ) ;
#248 = AXIS2_PLACEMENT_3D ( 'NONE', #5, #326, #335 ) ;
#249 = CARTESIAN_POINT ( 'NONE',  ( 0.000000000000000000, 12.00000000000000000, 0.000000000000000000 ) ) ;
#250 = AXIS2_PLACEMENT_3D ( 'NONE', #821, #333, #411 ) ;
#251 = DIRECTION ( 'NONE',  ( 0.000000000000000000, 1.000000000000000000, 0.000000000000000000 ) ) ;
#252 = ORIENTED_EDGE ( 'NONE', *, *, #63, .F. ) ;
#253 = CARTESIAN_POINT ( 'NONE',  ( 40.00000000000000711, 7.500000000000000000, -45.00000000000000000 ) ) ;
#254 = EDGE_LOOP ( 'NONE', ( #520, #111, #199, #161 ) ) ;
#255 = EDGE_CURVE ( 'NONE', #88, #261, #275, .T. ) ;
#256 = DIRECTION ( 'NONE',  ( -0.000000000000000000, -0.000000000000000000, 1.000000000000000000 ) ) ;
#257 = CARTESIAN_POINT ( 'NONE',  ( -70.00000000000000000, 15.00000000000000000, 45.00000000000000000 ) ) ;
#258 = EDGE_LOOP ( 'NONE', ( #919, #240, #495, #498 ) ) ;
#259 = DIRECTION ( 'NONE',  ( 0.000000000000000000, 0.000000000000000000, -1.000000000000000000 ) ) ;
#260 = EDGE_CURVE ( 'NONE', #803, #141, #1053, .T. ) ;
#261 = VERTEX_POINT ( 'NONE', #127 ) ;
#262 = DIRECTION ( 'NONE',  ( -0.000000000000000000, -0.000000000000000000, 1.000000000000000000 ) ) ;
#263 = VERTEX_POINT ( 'NONE', #974 ) ;
#264 = CIRCLE ( 'NONE', #881, 7.499999999999992895 ) ;
#265 = CARTESIAN_POINT ( 'NONE',  ( -70.00000000000000000, 15.00000000000000000, -45.00000000000000000 ) ) ;
#266 = CIRCLE ( 'NONE', #1002, 7.500000000000000000 ) ;
#267 = AXIS2_PLACEMENT_3D ( 'NONE', #473, #479, #160 ) ;
#268 = DIRECTION ( 'NONE',  ( 0.000000000000000000, 0.000000000000000000, 1.000000000000000000 ) ) ;
#269 = ORIENTED_EDGE ( 'NONE', *, *, #956, .F. ) ;
#270 = DIRECTION ( 'NONE',  ( -0.000000000000000000, 1.000000000000000000, -0.000000000000000000 ) ) ;
#271 = CARTESIAN_POINT ( 'NONE',  ( 3.061616997868384620E-16, 12.00000000000000000, -27.50000000000000000 ) ) ;
#272 = CARTESIAN_POINT ( 'NONE',  ( 0.000000000000000000, 10.00000000000000000, 25.00000000000000000 ) ) ;
#273 = ADVANCED_BREP_SHAPE_REPRESENTATION ( 'bolster_bottom', ( #424, #599 ), #444 ) ;
#274 = DIRECTION ( 'NONE',  ( -1.000000000000000000, 0.000000000000000000, 0.000000000000000000 ) ) ;
#275 = LINE ( 'NONE', #265, #790 ) ;
#276 = ORIENTED_EDGE ( 'NONE', *, *, #73, .F. ) ;
#277 = EDGE_CURVE ( 'NONE', #336, #279, #570, .T. ) ;
#278 = ORIENTED_EDGE ( 'NONE', *, *, #857, .F. ) ;
#279 = VERTEX_POINT ( 'NONE', #110 ) ;
#280 = DIRECTION ( 'NONE',  ( -0.000000000000000000, 1.000000000000000000, -0.000000000000000000 ) ) ;
#281 = ADVANCED_FACE ( 'NONE', ( #958 ), #608, .T. ) ;
#282 = VERTEX_POINT ( 'NONE', #690 ) ;
#283 = CARTESIAN_POINT ( 'NONE',  ( 55.00000000000000711, 0.000000000000000000, 37.49999999999999289 ) ) ;
#284 = PERSON_AND_ORGANIZATION ( #715, #597 ) ;
#285 = VECTOR ( 'NONE', #221, 1000.000000000000000 ) ;
#286 = CIRCLE ( 'NONE', #903, 1.300000000000002487 ) ;
#287 = VERTEX_POINT ( 'NONE', #433 ) ;
#288 = DIRECTION ( 'NONE',  ( -1.000000000000000000, -0.000000000000000000, -0.000000000000000000 ) ) ;
#289 = VECTOR ( 'NONE', #762, 1000.000000000000000 ) ;
#290 = FACE_OUTER_BOUND ( 'NONE', #469, .T. ) ;
#291 = ORIENTED_EDGE ( 'NONE', *, *, #989, .F. ) ;
#292 = EDGE_CURVE ( 'NONE', #298, #287, #358, .T. ) ;
#293 = FACE_OUTER_BOUND ( 'NONE', #109, .T. ) ;
#294 = EDGE_LOOP ( 'NONE', ( #24, #47, #577, #537 ) ) ;
#295 = DIRECTION ( 'NONE',  ( -0.000000000000000000, -0.000000000000000000, 1.000000000000000000 ) ) ;
#296 = EDGE_CURVE ( 'NONE', #225, #246, #461, .T. ) ;
#297 = DIRECTION ( 'NONE',  ( -0.000000000000000000, 1.000000000000000000, -0.000000000000000000 ) ) ;
#298 = VERTEX_POINT ( 'NONE', #194 ) ;
#299 = DIRECTION ( 'NONE',  ( 1.000000000000000000, 0.000000000000000000, 0.000000000000000000 ) ) ;
#300 = FACE_BOUND ( 'NONE', #666, .T. ) ;
#301 = DIRECTION ( 'NONE',  ( -0.000000000000000000, -0.000000000000000000, 1.000000000000000000 ) ) ;
#302 = CARTESIAN_POINT ( 'NONE',  ( 40.00000000000000711, 7.500000000000000000, -45.00000000000000000 ) ) ;
#303 = ORIENTED_EDGE ( 'NONE', *, *, #337, .T. ) ;
#304 = CLOSED_SHELL ( 'NONE', ( #402, #601, #360, #609, #627, #846, #107, #129, #489, #808, #112, #567, #21, #563, #948, #1038, #504, #451, #96, #994, #1, #122, #934, #712, #664, #521, #281, #383, #456, #733, #918, #242, #516, #325, #744 ) ) ;
#305 = VERTEX_POINT ( 'NONE', #283 ) ;
#306 = AXIS2_PLACEMENT_3D ( 'NONE', #319, #995, #902 ) ;
#307 = CYLINDRICAL_SURFACE ( 'NONE', #220, 7.499999999999992895 ) ;
#308 = CIRCLE ( 'NONE', #922, 2.499999999999998668 ) ;
#309 = MECHANICAL_CONTEXT ( 'NONE', #1015, 'mechanical' ) ;
#310 = LINE ( 'NONE', #651, #232 ) ;
#311 = COORDINATED_UNIVERSAL_TIME_OFFSET ( 0, 0, .AHEAD. ) ;
#312 = CARTESIAN_POINT ( 'NONE',  ( -20.00000000000000355, 0.000000000000000000, -1.000000000000002665 ) ) ;
#313 = DIRECTION ( 'NONE',  ( 0.000000000000000000, 0.000000000000000000, 1.000000000000000000 ) ) ;
#314 = FACE_BOUND ( 'NONE', #378, .T. ) ;
#315 = ORIENTED_EDGE ( 'NONE', *, *, #393, .T. ) ;
#316 = EDGE_CURVE ( 'NONE', #611, #20, #264, .T. ) ;
#317 = CARTESIAN_POINT ( 'NONE',  ( -40.00000000000000711, 7.500000000000000000, 34.99999999999999289 ) ) ;
#318 = PERSON_AND_ORGANIZATION ( #715, #597 ) ;
#319 = CARTESIAN_POINT ( 'NONE',  ( 0.000000000000000000, 15.00000000000000000, 0.000000000000000000 ) ) ;
#320 = CARTESIAN_POINT ( 'NONE',  ( -20.00000000000000355, 0.000000000000000000, 1.000000000000000444 ) ) ;
#321 = CARTESIAN_POINT ( 'NONE',  ( 0.000000000000000000, 10.00000000000000000, 25.00000000000000000 ) ) ;
#322 = FACE_OUTER_BOUND ( 'NONE', #188, .T. ) ;
#323 = ORIENTED_EDGE ( 'NONE', *, *, #89, .T. ) ;
#324 = CARTESIAN_POINT ( 'NONE',  ( 38.70000000000000284, 7.500000000000000000, 34.99999999999999289 ) ) ;
#325 = ADVANCED_FACE ( 'NONE', ( #704 ), #866, .F. ) ;
#326 = DIRECTION ( 'NONE',  ( 0.000000000000000000, 0.000000000000000000, 1.000000000000000000 ) ) ;
#327 = CALENDAR_DATE ( 2025, 5, 12 ) ;
#328 = AXIS2_PLACEMENT_3D ( 'NONE', #979, #1081, #709 ) ;
#329 = AXIS2_PLACEMENT_3D ( 'NONE', #371, #1046, #963 ) ;
#330 = ORIENTED_EDGE ( 'NONE', *, *, #158, .F. ) ;
#331 = EDGE_CURVE ( 'NONE', #813, #246, #1037, .T. ) ;
#332 = LINE ( 'NONE', #747, #669 ) ;
#333 = DIRECTION ( 'NONE',  ( 0.000000000000000000, 0.000000000000000000, 1.000000000000000000 ) ) ;
#334 = CYLINDRICAL_SURFACE ( 'NONE', #924, 1.300000000000002487 ) ;
#335 = DIRECTION ( 'NONE',  ( -1.000000000000000000, 0.000000000000000000, 0.000000000000000000 ) ) ;
#336 = VERTEX_POINT ( 'NONE', #858 ) ;
#337 = EDGE_CURVE ( 'NONE', #612, #420, #84, .T. ) ;
#338 = DIRECTION ( 'NONE',  ( 1.000000000000000000, 0.000000000000000000, -0.000000000000000000 ) ) ;
#339 = ORIENTED_EDGE ( 'NONE', *, *, #137, .F. ) ;
#340 = LINE ( 'NONE', #514, #441 ) ;
#341 = DIRECTION ( 'NONE',  ( -1.000000000000000000, 0.000000000000000000, 0.000000000000000000 ) ) ;
#342 = EDGE_LOOP ( 'NONE', ( #707, #118 ) ) ;
#343 = EDGE_LOOP ( 'NONE', ( #507, #69, #539, #746 ) ) ;
#344 = VECTOR ( 'NONE', #695, 1000.000000000000000 ) ;
#345 = VECTOR ( 'NONE', #1086, 1000.000000000000000 ) ;
#346 = DIRECTION ( 'NONE',  ( 0.000000000000000000, 0.000000000000000000, 1.000000000000000000 ) ) ;
#347 = ORIENTED_EDGE ( 'NONE', *, *, #890, .F. ) ;
#348 = EDGE_CURVE ( 'NONE', #1040, #825, #412, .T. ) ;
#349 = ORIENTED_EDGE ( 'NONE', *, *, #43, .T. ) ;
#350 = VERTEX_POINT ( 'NONE', #447 ) ;
#351 = DIRECTION ( 'NONE',  ( 0.000000000000000000, 0.000000000000000000, -1.000000000000000000 ) ) ;
#352 = DIRECTION ( 'NONE',  ( -0.000000000000000000, 1.000000000000000000, -0.000000000000000000 ) ) ;
#353 = VERTEX_POINT ( 'NONE', #216 ) ;
#354 = FACE_OUTER_BOUND ( 'NONE', #342, .T. ) ;
#355 = DIRECTION ( 'NONE',  ( 0.000000000000000000, 0.000000000000000000, 1.000000000000000000 ) ) ;
#356 = PLANE ( 'NONE',  #14 ) ;
#357 = VECTOR ( 'NONE', #841, 1000.000000000000000 ) ;
#358 = LINE ( 'NONE', #40, #102 ) ;
#359 = AXIS2_PLACEMENT_3D ( 'NONE', #782, #44, #625 ) ;
#360 = ADVANCED_FACE ( 'NONE', ( #142 ), #67, .F. ) ;
#361 = AXIS2_PLACEMENT_3D ( 'NONE', #668, #170, #1004 ) ;
#362 = EDGE_LOOP ( 'NONE', ( #884, #503, #27, #303 ) ) ;
#363 = FACE_OUTER_BOUND ( 'NONE', #799, .T. ) ;
#364 = ORIENTED_EDGE ( 'NONE', *, *, #787, .F. ) ;
#365 = DIRECTION ( 'NONE',  ( 0.000000000000000000, 0.000000000000000000, 1.000000000000000000 ) ) ;
#366 = EDGE_CURVE ( 'NONE', #1033, #551, #340, .T. ) ;
#367 = CARTESIAN_POINT ( 'NONE',  ( -41.30000000000001137, 7.500000000000000000, 34.99999999999999289 ) ) ;
#368 = ORIENTED_EDGE ( 'NONE', *, *, #316, .F. ) ;
#369 = DIRECTION ( 'NONE',  ( -0.000000000000000000, -0.000000000000000000, -1.000000000000000000 ) ) ;
#370 = DIRECTION ( 'NONE',  ( -1.000000000000000000, 0.000000000000000000, 0.000000000000000000 ) ) ;
#371 = CARTESIAN_POINT ( 'NONE',  ( -20.00000000000000355, 0.000000000000000000, -1.115208210443206076E-15 ) ) ;
#372 = CARTESIAN_POINT ( 'NONE',  ( 41.30000000000001137, 7.500000000000000000, 45.00000000000000000 ) ) ;
#373 = PERSON_AND_ORGANIZATION ( #715, #597 ) ;
#374 = CC_DESIGN_APPROVAL ( #72, ( #913 ) ) ;
#375 = EDGE_LOOP ( 'NONE', ( #413, #59, #561, #186 ) ) ;
#376 = CYLINDRICAL_SURFACE ( 'NONE', #964, 2.499999999999998668 ) ;
#377 = EDGE_CURVE ( 'NONE', #8, #596, #586, .T. ) ;
#378 = EDGE_LOOP ( 'NONE', ( #453, #670 ) ) ;
#379 = CARTESIAN_POINT ( 'NONE',  ( 55.00000000000000711, 15.00000000000000000, 30.00000000000000000 ) ) ;
#380 = AXIS2_PLACEMENT_3D ( 'NONE', #566, #874, #795 ) ;
#381 = AXIS2_PLACEMENT_3D ( 'NONE', #930, #256, #173 ) ;
#382 = VERTEX_POINT ( 'NONE', #754 ) ;
#383 = ADVANCED_FACE ( 'NONE', ( #845 ), #104, .F. ) ;
#384 = EDGE_LOOP ( 'NONE', ( #278, #408, #853, #859 ) ) ;
#385 = CARTESIAN_POINT ( 'NONE',  ( 0.000000000000000000, 0.000000000000000000, 0.000000000000000000 ) ) ;
#386 = EDGE_LOOP ( 'NONE', ( #315, #1087, #252, #691 ) ) ;
#387 = CARTESIAN_POINT ( 'NONE',  ( 70.00000000000000000, 15.00000000000000000, -45.00000000000000000 ) ) ;
#388 = DIRECTION ( 'NONE',  ( 1.000000000000000000, 0.000000000000000000, 0.000000000000000000 ) ) ;
#389 = EDGE_LOOP ( 'NONE', ( #694, #856 ) ) ;
#390 = LOCAL_TIME ( 14, 59, 19.00000000000000000, #991 ) ;
#391 = LINE ( 'NONE', #312, #722 ) ;
#392 = DIRECTION ( 'NONE',  ( 0.000000000000000000, 0.000000000000000000, 1.000000000000000000 ) ) ;
#393 = EDGE_CURVE ( 'NONE', #541, #353, #494, .T. ) ;
#394 = DIRECTION ( 'NONE',  ( -0.000000000000000000, 1.000000000000000000, -0.000000000000000000 ) ) ;
#395 = CIRCLE ( 'NONE', #531, 2.499999999999998668 ) ;
#396 = DIRECTION ( 'NONE',  ( 0.000000000000000000, 0.000000000000000000, 1.000000000000000000 ) ) ;
#397 = ORIENTED_EDGE ( 'NONE', *, *, #617, .T. ) ;
#398 = LINE ( 'NONE', #226, #132 ) ;
#399 = CIRCLE ( 'NONE', #497, 7.499999999999992895 ) ;
#400 = DIRECTION ( 'NONE',  ( 0.000000000000000000, 1.000000000000000000, 0.000000000000000000 ) ) ;
#401 = CARTESIAN_POINT ( 'NONE',  ( -70.00000000000000000, 0.000000000000000000, -45.00000000000000000 ) ) ;
#402 = ADVANCED_FACE ( 'NONE', ( #293 ), #524, .F. ) ;
#403 = LINE ( 'NONE', #634, #590 ) ;
#404 = CARTESIAN_POINT ( 'NONE',  ( 20.00000000000000355, 0.000000000000000000, 1.000000000000000444 ) ) ;
#405 = CARTESIAN_POINT ( 'NONE',  ( -54.99999999999999289, 0.000000000000000000, -30.00000000000000000 ) ) ;
#406 = PERSON_AND_ORGANIZATION ( #715, #597 ) ;
#407 = CARTESIAN_POINT ( 'NONE',  ( 20.00000000000000355, 0.000000000000000000, -1.115208210443206076E-15 ) ) ;
#408 = ORIENTED_EDGE ( 'NONE', *, *, #1007, .T. ) ;
#409 = CARTESIAN_POINT ( 'NONE',  ( 0.000000000000000000, 10.00000000000000000, 27.50000000000000000 ) ) ;
#410 = EDGE_CURVE ( 'NONE', #263, #298, #772, .T. ) ;
#411 = DIRECTION ( 'NONE',  ( 1.000000000000000000, 0.000000000000000000, 0.000000000000000000 ) ) ;
#412 = CIRCLE ( 'NONE', #685, 1.000000000000001554 ) ;
#413 = ORIENTED_EDGE ( 'NONE', *, *, #215, .T. ) ;
#414 = PRODUCT_DEFINITION ( 'UNKNOWN', '', #891, #945 ) ;
#415 = CALENDAR_DATE ( 2025, 5, 12 ) ;
#416 = LINE ( 'NONE', #101, #920 ) ;
#417 = DIRECTION ( 'NONE',  ( -1.000000000000000000, 0.000000000000000000, 0.000000000000000000 ) ) ;
#418 = DIRECTION ( 'NONE',  ( -0.000000000000000000, 1.000000000000000000, -0.000000000000000000 ) ) ;
#419 = FACE_BOUND ( 'NONE', #701, .T. ) ;
#420 = VERTEX_POINT ( 'NONE', #439 ) ;
#421 = CARTESIAN_POINT ( 'NONE',  ( 20.00000000000000355, 0.000000000000000000, 1.000000000000000444 ) ) ;
#422 = APPROVAL_PERSON_ORGANIZATION ( #406, #72, #149 ) ;
#423 = DIRECTION ( 'NONE',  ( -0.000000000000000000, -0.000000000000000000, 1.000000000000000000 ) ) ;
#424 = MANIFOLD_SOLID_BREP ( 'Cut-Extrude5', #304 ) ;
#425 = EDGE_CURVE ( 'NONE', #298, #263, #807, .T. ) ;
#426 = DIRECTION ( 'NONE',  ( 0.000000000000000000, 0.000000000000000000, -1.000000000000000000 ) ) ;
#427 = EDGE_LOOP ( 'NONE', ( #783, #506 ) ) ;
#428 = ORIENTED_EDGE ( 'NONE', *, *, #296, .T. ) ;
#429 = EDGE_LOOP ( 'NONE', ( #988, #330, #465, #202 ) ) ;
#430 = EDGE_CURVE ( 'NONE', #573, #557, #572, .T. ) ;
#431 = CARTESIAN_POINT ( 'NONE',  ( 70.00000000000000000, 0.000000000000000000, 45.00000000000000000 ) ) ;
#432 = PRODUCT ( 'bolster_bottom', 'bolster_bottom', '', ( #309 ) ) ;
#433 = CARTESIAN_POINT ( 'NONE',  ( 41.30000000000001137, 7.500000000000000000, -45.00000000000000000 ) ) ;
#434 = DIRECTION ( 'NONE',  ( 0.000000000000000000, 0.000000000000000000, 1.000000000000000000 ) ) ;
#435 = ORIENTED_EDGE ( 'NONE', *, *, #485, .T. ) ;
#436 = VERTEX_POINT ( 'NONE', #271 ) ;
#437 = EDGE_CURVE ( 'NONE', #184, #287, #286, .T. ) ;
#438 = EDGE_LOOP ( 'NONE', ( #364, #23 ) ) ;
#439 = CARTESIAN_POINT ( 'NONE',  ( -41.30000000000001137, 7.500000000000000000, 45.00000000000000000 ) ) ;
#440 = AXIS2_PLACEMENT_3D ( 'NONE', #681, #605, #1029 ) ;
#441 = VECTOR ( 'NONE', #581, 1000.000000000000000 ) ;
#442 = APPROVAL ( #906, 'UNSPECIFIED' ) ;
#443 = CIRCLE ( 'NONE', #1074, 1.000000000000001554 ) ;
#444 =( GEOMETRIC_REPRESENTATION_CONTEXT ( 3 ) GLOBAL_UNCERTAINTY_ASSIGNED_CONTEXT ( ( #90 ) ) GLOBAL_UNIT_ASSIGNED_CONTEXT ( ( #663, #928, #10 ) ) REPRESENTATION_CONTEXT ( 'NONE', 'WORKASPACE' ) );
#445 = CARTESIAN_POINT ( 'NONE',  ( 40.00000000000000711, 7.500000000000000000, 34.99999999999999289 ) ) ;
#446 = ORIENTED_EDGE ( 'NONE', *, *, #331, .F. ) ;
#447 = CARTESIAN_POINT ( 'NONE',  ( -20.00000000000000355, 0.000000000000000000, -1.000000000000002665 ) ) ;
#448 = DIRECTION ( 'NONE',  ( 0.000000000000000000, 1.000000000000000000, -0.000000000000000000 ) ) ;
#449 = DIRECTION ( 'NONE',  ( 1.000000000000000000, 0.000000000000000000, -0.000000000000000000 ) ) ;
#450 = DIRECTION ( 'NONE',  ( -1.000000000000000000, 0.000000000000000000, 0.000000000000000000 ) ) ;
#451 = ADVANCED_FACE ( 'NONE', ( #528 ), #873, .F. ) ;
#452 = EDGE_LOOP ( 'NONE', ( #854, #1028, #940, #83 ) ) ;
#453 = ORIENTED_EDGE ( 'NONE', *, *, #594, .T. ) ;
#454 = FACE_OUTER_BOUND ( 'NONE', #658, .T. ) ;
#455 = ORIENTED_EDGE ( 'NONE', *, *, #1068, .F. ) ;
#456 = ADVANCED_FACE ( 'NONE', ( #300, #786, #52, #794, #1062 ), #61, .T. ) ;
#457 = DIRECTION ( 'NONE',  ( 0.000000000000000000, 0.000000000000000000, 1.000000000000000000 ) ) ;
#458 = PLANE ( 'NONE',  #606 ) ;
#459 = CARTESIAN_POINT ( 'NONE',  ( 55.00000000000000711, -0.0009999999999992653654, 30.00000000000000000 ) ) ;
#460 = VERTEX_POINT ( 'NONE', #822 ) ;
#461 = CIRCLE ( 'NONE', #741, 1.300000000000002487 ) ;
#462 = AXIS2_PLACEMENT_3D ( 'NONE', #1049, #48, #38 ) ;
#463 = AXIS2_PLACEMENT_3D ( 'NONE', #25, #262, #1022 ) ;
#464 = LINE ( 'NONE', #367, #1057 ) ;
#465 = ORIENTED_EDGE ( 'NONE', *, *, #215, .F. ) ;
#466 = CARTESIAN_POINT ( 'NONE',  ( 20.00000000000000355, 12.00000000000000000, -1.115208210443206076E-15 ) ) ;
#467 = FACE_OUTER_BOUND ( 'NONE', #384, .T. ) ;
#468 = DIRECTION ( 'NONE',  ( 0.000000000000000000, 0.000000000000000000, 1.000000000000000000 ) ) ;
#469 = EDGE_LOOP ( 'NONE', ( #818, #789, #435, #843 ) ) ;
#470 = DIRECTION ( 'NONE',  ( -0.000000000000000000, 1.000000000000000000, -0.000000000000000000 ) ) ;
#471 = DIRECTION ( 'NONE',  ( 1.000000000000000000, 0.000000000000000000, 0.000000000000000000 ) ) ;
#472 = EDGE_CURVE ( 'NONE', #39, #813, #742, .T. ) ;
#473 = CARTESIAN_POINT ( 'NONE',  ( -40.00000000000000711, 7.500000000000000000, 34.99999999999999289 ) ) ;
#474 = DIRECTION ( 'NONE',  ( 0.000000000000000000, -0.000000000000000000, 1.000000000000000000 ) ) ;
#475 = CC_DESIGN_PERSON_AND_ORGANIZATION_ASSIGNMENT ( #373, #1050, ( #891 ) ) ;
#476 = CARTESIAN_POINT ( 'NONE',  ( -38.70000000000000284, 7.500000000000000000, -34.99999999999999289 ) ) ;
#477 = AXIS2_PLACEMENT_3D ( 'NONE', #117, #968, #870 ) ;
#478 = DIRECTION ( 'NONE',  ( -0.000000000000000000, 1.000000000000000000, -0.000000000000000000 ) ) ;
#479 = DIRECTION ( 'NONE',  ( 0.000000000000000000, 0.000000000000000000, 1.000000000000000000 ) ) ;
#480 = CARTESIAN_POINT ( 'NONE',  ( 0.000000000000000000, 0.000000000000000000, 0.000000000000000000 ) ) ;
#481 = CIRCLE ( 'NONE', #512, 7.499999999999992895 ) ;
#482 = ORIENTED_EDGE ( 'NONE', *, *, #1089, .T. ) ;
#483 = VECTOR ( 'NONE', #470, 1000.000000000000000 ) ;
#484 = SHAPE_DEFINITION_REPRESENTATION ( #116, #273 ) ;
#485 = EDGE_CURVE ( 'NONE', #596, #937, #723, .T. ) ;
#486 = CARTESIAN_POINT ( 'NONE',  ( 3.061616997868384620E-16, 12.00000000000000000, 22.50000000000000355 ) ) ;
#487 = VERTEX_POINT ( 'NONE', #987 ) ;
#488 = EDGE_LOOP ( 'NONE', ( #848, #630, #947, #175 ) ) ;
#489 = ADVANCED_FACE ( 'NONE', ( #322 ), #492, .F. ) ;
#490 = PLANE ( 'NONE',  #56 ) ;
#491 = ORIENTED_EDGE ( 'NONE', *, *, #538, .F. ) ;
#492 = CYLINDRICAL_SURFACE ( 'NONE', #1055, 1.300000000000002487 ) ;
#493 = CARTESIAN_POINT ( 'NONE',  ( 0.000000000000000000, 12.00000000000000000, 35.04999999999999716 ) ) ;
#494 = CIRCLE ( 'NONE', #637, 1.300000000000002487 ) ;
#495 = ORIENTED_EDGE ( 'NONE', *, *, #31, .T. ) ;
#496 = AXIS2_PLACEMENT_3D ( 'NONE', #553, #615, #961 ) ;
#497 = AXIS2_PLACEMENT_3D ( 'NONE', #41, #297, #629 ) ;
#498 = ORIENTED_EDGE ( 'NONE', *, *, #865, .F. ) ;
#499 = DIRECTION ( 'NONE',  ( 0.000000000000000000, 1.000000000000000000, 0.000000000000000000 ) ) ;
#500 = FACE_OUTER_BOUND ( 'NONE', #134, .T. ) ;
#501 = FACE_OUTER_BOUND ( 'NONE', #140, .T. ) ;
#502 = ORIENTED_EDGE ( 'NONE', *, *, #1026, .F. ) ;
#503 = ORIENTED_EDGE ( 'NONE', *, *, #780, .F. ) ;
#504 = ADVANCED_FACE ( 'NONE', ( #560, #314, #645, #998, #564 ), #896, .T. ) ;
#505 = CARTESIAN_POINT ( 'NONE',  ( -54.99999999999999289, 0.000000000000000000, -30.00000000000000000 ) ) ;
#506 = ORIENTED_EDGE ( 'NONE', *, *, #677, .T. ) ;
#507 = ORIENTED_EDGE ( 'NONE', *, *, #642, .T. ) ;
#508 = LINE ( 'NONE', #1006, #181 ) ;
#509 = EDGE_CURVE ( 'NONE', #20, #611, #481, .T. ) ;
#510 = ORIENTED_EDGE ( 'NONE', *, *, #555, .T. ) ;
#511 = CARTESIAN_POINT ( 'NONE',  ( -38.70000000000000284, 7.500000000000000000, 45.00000000000000000 ) ) ;
#512 = AXIS2_PLACEMENT_3D ( 'NONE', #731, #18, #346 ) ;
#513 = DIRECTION ( 'NONE',  ( 0.000000000000000000, 1.000000000000000000, -0.000000000000000000 ) ) ;
#514 = CARTESIAN_POINT ( 'NONE',  ( 70.00000000000000000, 15.00000000000000000, 45.00000000000000000 ) ) ;
#515 = ORIENTED_EDGE ( 'NONE', *, *, #780, .T. ) ;
#516 = ADVANCED_FACE ( 'NONE', ( #500 ), #177, .T. ) ;
#517 = ORIENTED_EDGE ( 'NONE', *, *, #748, .F. ) ;
#518 = DIRECTION ( 'NONE',  ( 0.000000000000000000, 1.000000000000000000, 0.000000000000000000 ) ) ;
#519 = LINE ( 'NONE', #33, #289 ) ;
#520 = ORIENTED_EDGE ( 'NONE', *, *, #235, .F. ) ;
#521 = ADVANCED_FACE ( 'NONE', ( #1018 ), #591, .F. ) ;
#522 = FACE_BOUND ( 'NONE', #427, .T. ) ;
#523 = CARTESIAN_POINT ( 'NONE',  ( 41.30000000000001137, 7.500000000000000000, 34.99999999999999289 ) ) ;
#524 = CYLINDRICAL_SURFACE ( 'NONE', #1073, 2.499999999999998668 ) ;
#525 = CYLINDRICAL_SURFACE ( 'NONE', #1075, 1.300000000000002487 ) ;
#526 = EDGE_LOOP ( 'NONE', ( #713, #76, #980, #126 ) ) ;
#527 = DIRECTION ( 'NONE',  ( 0.000000000000000000, 0.000000000000000000, 1.000000000000000000 ) ) ;
#528 = FACE_OUTER_BOUND ( 'NONE', #294, .T. ) ;
#529 = DIRECTION ( 'NONE',  ( 0.000000000000000000, 0.000000000000000000, -1.000000000000000000 ) ) ;
#530 = CARTESIAN_POINT ( 'NONE',  ( 4.292387031011472780E-15, 12.00000000000000000, -35.04999999999999716 ) ) ;
#531 = AXIS2_PLACEMENT_3D ( 'NONE', #600, #81, #740 ) ;
#532 = AXIS2_PLACEMENT_3D ( 'NONE', #54, #721, #649 ) ;
#533 = CIRCLE ( 'NONE', #640, 35.04999999999999716 ) ;
#534 = ORIENTED_EDGE ( 'NONE', *, *, #594, .F. ) ;
#535 = CYLINDRICAL_SURFACE ( 'NONE', #359, 1.000000000000001554 ) ;
#536 = CYLINDRICAL_SURFACE ( 'NONE', #329, 1.000000000000001554 ) ;
#537 = ORIENTED_EDGE ( 'NONE', *, *, #260, .T. ) ;
#538 = EDGE_CURVE ( 'NONE', #784, #588, #849, .T. ) ;
#539 = ORIENTED_EDGE ( 'NONE', *, *, #1056, .F. ) ;
#540 = DIRECTION ( 'NONE',  ( -0.000000000000000000, 1.000000000000000000, -0.000000000000000000 ) ) ;
#541 = VERTEX_POINT ( 'NONE', #97 ) ;
#542 = VERTEX_POINT ( 'NONE', #595 ) ;
#543 = APPROVAL_PERSON_ORGANIZATION ( #136, #79, #1079 ) ;
#544 = ORIENTED_EDGE ( 'NONE', *, *, #255, .F. ) ;
#545 = CARTESIAN_POINT ( 'NONE',  ( 20.00000000000000355, 0.000000000000000000, -1.000000000000002665 ) ) ;
#546 = PERSON_AND_ORGANIZATION_ROLE ( 'design_owner' ) ;
#547 = FACE_OUTER_BOUND ( 'NONE', #258, .T. ) ;
#548 = AXIS2_PLACEMENT_3D ( 'NONE', #138, #219, #714 ) ;
#549 = CARTESIAN_POINT ( 'NONE',  ( -70.00000000000000000, 0.000000000000000000, 45.00000000000000000 ) ) ;
#550 = AXIS2_PLACEMENT_3D ( 'NONE', #191, #369, #614 ) ;
#551 = VERTEX_POINT ( 'NONE', #91 ) ;
#552 = DIRECTION ( 'NONE',  ( 0.000000000000000000, 0.000000000000000000, 1.000000000000000000 ) ) ;
#553 = CARTESIAN_POINT ( 'NONE',  ( 0.000000000000000000, 12.00000000000000000, 0.000000000000000000 ) ) ;
#554 = LINE ( 'NONE', #151, #345 ) ;
#555 = EDGE_CURVE ( 'NONE', #699, #697, #266, .T. ) ;
#556 = CYLINDRICAL_SURFACE ( 'NONE', #619, 1.300000000000002487 ) ;
#557 = VERTEX_POINT ( 'NONE', #675 ) ;
#558 = DIRECTION ( 'NONE',  ( 0.000000000000000000, 1.000000000000000000, 0.000000000000000000 ) ) ;
#559 = CARTESIAN_POINT ( 'NONE',  ( 0.000000000000000000, 10.00000000000000000, -25.00000000000000000 ) ) ;
#560 = FACE_BOUND ( 'NONE', #228, .T. ) ;
#561 = ORIENTED_EDGE ( 'NONE', *, *, #967, .F. ) ;
#562 = CARTESIAN_POINT ( 'NONE',  ( -40.00000000000000711, 7.500000000000000000, -45.00000000000000000 ) ) ;
#563 = ADVANCED_FACE ( 'NONE', ( #935 ), #665, .F. ) ;
#564 = FACE_OUTER_BOUND ( 'NONE', #429, .T. ) ;
#565 = CARTESIAN_POINT ( 'NONE',  ( 40.00000000000000711, 7.500000000000000000, 45.00000000000000000 ) ) ;
#566 = CARTESIAN_POINT ( 'NONE',  ( -54.99999999999999289, 15.00000000000000000, -30.00000000000000000 ) ) ;
#567 = ADVANCED_FACE ( 'NONE', ( #926 ), #490, .F. ) ;
#568 = DATE_AND_TIME ( #901, #390 ) ;
#569 = DIRECTION ( 'NONE',  ( 0.000000000000000000, 1.000000000000000000, 0.000000000000000000 ) ) ;
#570 = CIRCLE ( 'NONE', #462, 2.499999999999998668 ) ;
#571 = DIRECTION ( 'NONE',  ( 0.000000000000000000, 0.000000000000000000, 1.000000000000000000 ) ) ;
#572 = CIRCLE ( 'NONE', #688, 1.000000000000001554 ) ;
#573 = VERTEX_POINT ( 'NONE', #421 ) ;
#574 = AXIS2_PLACEMENT_3D ( 'NONE', #830, #87, #717 ) ;
#575 = EDGE_CURVE ( 'NONE', #305, #542, #156, .T. ) ;
#576 = DIRECTION ( 'NONE',  ( -0.000000000000000000, 1.000000000000000000, -0.000000000000000000 ) ) ;
#577 = ORIENTED_EDGE ( 'NONE', *, *, #865, .T. ) ;
#578 = VERTEX_POINT ( 'NONE', #409 ) ;
#579 = DIRECTION ( 'NONE',  ( -0.000000000000000000, -0.000000000000000000, 1.000000000000000000 ) ) ;
#580 = PRODUCT_RELATED_PRODUCT_CATEGORY ( 'detail', '', ( #432 ) ) ;
#581 = DIRECTION ( 'NONE',  ( -0.000000000000000000, -1.000000000000000000, -0.000000000000000000 ) ) ;
#582 = DIRECTION ( 'NONE',  ( 0.000000000000000000, 0.000000000000000000, 1.000000000000000000 ) ) ;
#583 = CC_DESIGN_SECURITY_CLASSIFICATION ( #913, ( #891 ) ) ;
#584 = VERTEX_POINT ( 'NONE', #739 ) ;
#585 = EDGE_LOOP ( 'NONE', ( #683, #30 ) ) ;
#586 = LINE ( 'NONE', #929, #357 ) ;
#587 = AXIS2_PLACEMENT_3D ( 'NONE', #673, #950, #753 ) ;
#588 = VERTEX_POINT ( 'NONE', #769 ) ;
#589 = CIRCLE ( 'NONE', #1035, 1.300000000000002487 ) ;
#590 = VECTOR ( 'NONE', #217, 1000.000000000000000 ) ;
#591 = CYLINDRICAL_SURFACE ( 'NONE', #705, 1.300000000000002487 ) ;
#592 = ORIENTED_EDGE ( 'NONE', *, *, #292, .T. ) ;
#593 = EDGE_LOOP ( 'NONE', ( #1005, #598 ) ) ;
#594 = EDGE_CURVE ( 'NONE', #872, #350, #774, .T. ) ;
#595 = CARTESIAN_POINT ( 'NONE',  ( 55.00000000000000711, 0.000000000000000000, 22.50000000000000711 ) ) ;
#596 = VERTEX_POINT ( 'NONE', #29 ) ;
#597 = ORGANIZATION ( 'UNSPECIFIED', 'UNSPECIFIED', '' ) ;
#598 = ORIENTED_EDGE ( 'NONE', *, *, #698, .F. ) ;
#599 = AXIS2_PLACEMENT_3D ( 'NONE', #385, #392, #703 ) ;
#600 = CARTESIAN_POINT ( 'NONE',  ( 0.000000000000000000, 12.00000000000000000, 25.00000000000000000 ) ) ;
#601 = ADVANCED_FACE ( 'NONE', ( #363 ), #376, .F. ) ;
#602 = DIRECTION ( 'NONE',  ( -0.000000000000000000, 1.000000000000000000, -0.000000000000000000 ) ) ;
#603 = EDGE_LOOP ( 'NONE', ( #13, #960 ) ) ;
#604 = DIRECTION ( 'NONE',  ( 0.000000000000000000, 1.000000000000000000, 0.000000000000000000 ) ) ;
#605 = DIRECTION ( 'NONE',  ( -0.000000000000000000, -0.000000000000000000, 1.000000000000000000 ) ) ;
#606 = AXIS2_PLACEMENT_3D ( 'NONE', #978, #474, #68 ) ;
#607 = AXIS2_PLACEMENT_3D ( 'NONE', #169, #251, #923 ) ;
#608 = PLANE ( 'NONE',  #939 ) ;
#609 = ADVANCED_FACE ( 'NONE', ( #46 ), #536, .F. ) ;
#610 = EDGE_LOOP ( 'NONE', ( #1065, #154 ) ) ;
#611 = VERTEX_POINT ( 'NONE', #124 ) ;
#612 = VERTEX_POINT ( 'NONE', #511 ) ;
#613 = ORIENTED_EDGE ( 'NONE', *, *, #787, .T. ) ;
#614 = DIRECTION ( 'NONE',  ( -1.000000000000000000, 0.000000000000000000, 0.000000000000000000 ) ) ;
#615 = DIRECTION ( 'NONE',  ( 0.000000000000000000, 1.000000000000000000, 0.000000000000000000 ) ) ;
#616 = ORIENTED_EDGE ( 'NONE', *, *, #331, .T. ) ;
#617 = EDGE_CURVE ( 'NONE', #88, #839, #693, .T. ) ;
#618 = ORIENTED_EDGE ( 'NONE', *, *, #816, .T. ) ;
#619 = AXIS2_PLACEMENT_3D ( 'NONE', #1088, #990, #804 ) ;
#620 = VECTOR ( 'NONE', #1067, 1000.000000000000000 ) ;
#621 = VECTOR ( 'NONE', #540, 1000.000000000000000 ) ;
#622 = DIRECTION ( 'NONE',  ( 0.000000000000000000, 0.000000000000000000, 1.000000000000000000 ) ) ;
#623 = VERTEX_POINT ( 'NONE', #951 ) ;
#624 = DIRECTION ( 'NONE',  ( 1.000000000000000000, 0.000000000000000000, 0.000000000000000000 ) ) ;
#625 = DIRECTION ( 'NONE',  ( 0.000000000000000000, 0.000000000000000000, 1.000000000000000000 ) ) ;
#626 = ORIENTED_EDGE ( 'NONE', *, *, #348, .T. ) ;
#627 = ADVANCED_FACE ( 'NONE', ( #290 ), #861, .F. ) ;
#628 = CARTESIAN_POINT ( 'NONE',  ( -54.99999999999999289, -0.0009999999999992653654, -37.50000000000000000 ) ) ;
#629 = DIRECTION ( 'NONE',  ( 0.000000000000000000, 0.000000000000000000, -1.000000000000000000 ) ) ;
#630 = ORIENTED_EDGE ( 'NONE', *, *, #137, .T. ) ;
#631 = APPROVAL_PERSON_ORGANIZATION ( #152, #442, #737 ) ;
#632 = EDGE_CURVE ( 'NONE', #350, #872, #672, .T. ) ;
#633 = ORIENTED_EDGE ( 'NONE', *, *, #63, .T. ) ;
#634 = CARTESIAN_POINT ( 'NONE',  ( -70.00000000000000000, 15.00000000000000000, 45.00000000000000000 ) ) ;
#635 = CARTESIAN_POINT ( 'NONE',  ( -54.99999999999999289, 0.000000000000000000, -37.50000000000000000 ) ) ;
#636 = EDGE_LOOP ( 'NONE', ( #178, #291, #544, #397 ) ) ;
#637 = AXIS2_PLACEMENT_3D ( 'NONE', #970, #946, #128 ) ;
#638 = DIRECTION ( 'NONE',  ( -0.000000000000000000, 1.000000000000000000, -0.000000000000000000 ) ) ;
#639 = VECTOR ( 'NONE', #270, 1000.000000000000000 ) ;
#640 = AXIS2_PLACEMENT_3D ( 'NONE', #801, #569, #914 ) ;
#641 = CARTESIAN_POINT ( 'NONE',  ( 0.000000000000000000, 10.00000000000000000, -22.50000000000000355 ) ) ;
#642 = EDGE_CURVE ( 'NONE', #551, #839, #686, .T. ) ;
#643 = ORIENTED_EDGE ( 'NONE', *, *, #796, .T. ) ;
#644 = LINE ( 'NONE', #159, #984 ) ;
#645 = FACE_BOUND ( 'NONE', #603, .T. ) ;
#646 = PERSON_AND_ORGANIZATION ( #715, #597 ) ;
#647 = DIRECTION ( 'NONE',  ( -0.000000000000000000, 1.000000000000000000, -0.000000000000000000 ) ) ;
#648 = EDGE_CURVE ( 'NONE', #813, #39, #791, .T. ) ;
#649 = DIRECTION ( 'NONE',  ( 0.000000000000000000, 0.000000000000000000, 1.000000000000000000 ) ) ;
#650 = ORIENTED_EDGE ( 'NONE', *, *, #393, .F. ) ;
#651 = CARTESIAN_POINT ( 'NONE',  ( 0.000000000000000000, 10.00000000000000000, 27.50000000000000000 ) ) ;
#652 = EDGE_CURVE ( 'NONE', #263, #184, #554, .T. ) ;
#653 = CIRCLE ( 'NONE', #440, 1.300000000000002487 ) ;
#654 = VECTOR ( 'NONE', #1083, 1000.000000000000000 ) ;
#655 = DIRECTION ( 'NONE',  ( -0.000000000000000000, 1.000000000000000000, -0.000000000000000000 ) ) ;
#656 = AXIS2_PLACEMENT_3D ( 'NONE', #187, #37, #529 ) ;
#657 = ORIENTED_EDGE ( 'NONE', *, *, #1007, .F. ) ;
#658 = EDGE_LOOP ( 'NONE', ( #844, #827, #7, #763 ) ) ;
#659 = FACE_BOUND ( 'NONE', #212, .T. ) ;
#660 = DIRECTION ( 'NONE',  ( 0.000000000000000000, 1.000000000000000000, 0.000000000000000000 ) ) ;
#661 = DIRECTION ( 'NONE',  ( 0.000000000000000000, 0.000000000000000000, 1.000000000000000000 ) ) ;
#662 = ORIENTED_EDGE ( 'NONE', *, *, #748, .T. ) ;
#663 =( LENGTH_UNIT ( ) NAMED_UNIT ( * ) SI_UNIT ( .MILLI., .METRE. ) );
#664 = ADVANCED_FACE ( 'NONE', ( #204 ), #458, .F. ) ;
#665 = PLANE ( 'NONE',  #196 ) ;
#666 = EDGE_LOOP ( 'NONE', ( #1024, #244 ) ) ;
#667 = ORIENTED_EDGE ( 'NONE', *, *, #206, .F. ) ;
#668 = CARTESIAN_POINT ( 'NONE',  ( -20.00000000000000355, 12.00000000000000000, -1.115208210443206076E-15 ) ) ;
#669 = VECTOR ( 'NONE', #579, 1000.000000000000000 ) ;
#670 = ORIENTED_EDGE ( 'NONE', *, *, #632, .T. ) ;
#671 = EDGE_CURVE ( 'NONE', #487, #436, #941, .T. ) ;
#672 = CIRCLE ( 'NONE', #70, 1.000000000000001554 ) ;
#673 = CARTESIAN_POINT ( 'NONE',  ( 40.00000000000000711, 7.500000000000000000, -34.99999999999999289 ) ) ;
#674 = AXIS2_PLACEMENT_3D ( 'NONE', #559, #802, #396 ) ;
#675 = CARTESIAN_POINT ( 'NONE',  ( 20.00000000000000355, 0.000000000000000000, -1.000000000000002665 ) ) ;
#676 = ORIENTED_EDGE ( 'NONE', *, *, #765, .F. ) ;
#677 = EDGE_CURVE ( 'NONE', #287, #184, #166, .T. ) ;
#678 = DIRECTION ( 'NONE',  ( -0.000000000000000000, -0.000000000000000000, -1.000000000000000000 ) ) ;
#679 = ORIENTED_EDGE ( 'NONE', *, *, #835, .F. ) ;
#680 = CC_DESIGN_APPROVAL ( #442, ( #891 ) ) ;
#681 = CARTESIAN_POINT ( 'NONE',  ( -40.00000000000000711, 7.500000000000000000, -34.99999999999999289 ) ) ;
#682 = EDGE_CURVE ( 'NONE', #305, #611, #797, .T. ) ;
#683 = ORIENTED_EDGE ( 'NONE', *, *, #206, .T. ) ;
#684 = PLANE ( 'NONE',  #983 ) ;
#685 = AXIS2_PLACEMENT_3D ( 'NONE', #466, #785, #527 ) ;
#686 = LINE ( 'NONE', #431, #85 ) ;
#687 = DIRECTION ( 'NONE',  ( -0.000000000000000000, 0.000000000000000000, -1.000000000000000000 ) ) ;
#688 = AXIS2_PLACEMENT_3D ( 'NONE', #692, #604, #28 ) ;
#689 = CIRCLE ( 'NONE', #250, 1.300000000000002487 ) ;
#690 = CARTESIAN_POINT ( 'NONE',  ( 0.000000000000000000, 12.00000000000000000, 27.50000000000000000 ) ) ;
#691 = ORIENTED_EDGE ( 'NONE', *, *, #182, .F. ) ;
#692 = CARTESIAN_POINT ( 'NONE',  ( 20.00000000000000355, 0.000000000000000000, -1.115208210443206076E-15 ) ) ;
#693 = LINE ( 'NONE', #702, #218 ) ;
#694 = ORIENTED_EDGE ( 'NONE', *, *, #193, .F. ) ;
#695 = DIRECTION ( 'NONE',  ( -0.000000000000000000, -0.000000000000000000, 1.000000000000000000 ) ) ;
#696 = CARTESIAN_POINT ( 'NONE',  ( 0.000000000000000000, 10.00000000000000000, -25.00000000000000000 ) ) ;
#697 = VERTEX_POINT ( 'NONE', #635 ) ;
#698 = EDGE_CURVE ( 'NONE', #382, #35, #882, .T. ) ;
#699 = VERTEX_POINT ( 'NONE', #899 ) ;
#700 = DIRECTION ( 'NONE',  ( 0.000000000000000000, 0.000000000000000000, 1.000000000000000000 ) ) ;
#701 = EDGE_LOOP ( 'NONE', ( #1025, #976 ) ) ;
#702 = CARTESIAN_POINT ( 'NONE',  ( 70.00000000000000000, 15.00000000000000000, -45.00000000000000000 ) ) ;
#703 = DIRECTION ( 'NONE',  ( 1.000000000000000000, 0.000000000000000000, 0.000000000000000000 ) ) ;
#704 = FACE_OUTER_BOUND ( 'NONE', #254, .T. ) ;
#705 = AXIS2_PLACEMENT_3D ( 'NONE', #837, #842, #341 ) ;
#706 = CIRCLE ( 'NONE', #234, 2.499999999999998668 ) ;
#707 = ORIENTED_EDGE ( 'NONE', *, *, #277, .T. ) ;
#708 = FACE_OUTER_BOUND ( 'NONE', #190, .T. ) ;
#709 = DIRECTION ( 'NONE',  ( -1.000000000000000000, 0.000000000000000000, 0.000000000000000000 ) ) ;
#710 = DIRECTION ( 'NONE',  ( 0.000000000000000000, 0.000000000000000000, 1.000000000000000000 ) ) ;
#711 = ORIENTED_EDGE ( 'NONE', *, *, #648, .T. ) ;
#712 = ADVANCED_FACE ( 'NONE', ( #1052 ), #203, .F. ) ;
#713 = ORIENTED_EDGE ( 'NONE', *, *, #292, .F. ) ;
#714 = DIRECTION ( 'NONE',  ( 0.000000000000000000, 0.000000000000000000, 1.000000000000000000 ) ) ;
#715 = PERSON ( 'UNSPECIFIED', 'UNSPECIFIED', 'UNSPECIFIED', ('UNSPECIFIED'), ('UNSPECIFIED'), ('UNSPECIFIED') ) ;
#716 = EDGE_CURVE ( 'NONE', #839, #1043, #1044, .T. ) ;
#717 = DIRECTION ( 'NONE',  ( 0.000000000000000000, -0.000000000000000000, -1.000000000000000000 ) ) ;
#718 = EDGE_LOOP ( 'NONE', ( #927, #502 ) ) ;
#719 = DIRECTION ( 'NONE',  ( 0.000000000000000000, 0.000000000000000000, 1.000000000000000000 ) ) ;
#720 = ORIENTED_EDGE ( 'NONE', *, *, #796, .F. ) ;
#721 = DIRECTION ( 'NONE',  ( 0.000000000000000000, 1.000000000000000000, 0.000000000000000000 ) ) ;
#722 = VECTOR ( 'NONE', #638, 1000.000000000000000 ) ;
#723 = CIRCLE ( 'NONE', #103, 35.04999999999999716 ) ;
#724 = CIRCLE ( 'NONE', #198, 2.499999999999998668 ) ;
#725 = CARTESIAN_POINT ( 'NONE',  ( 70.00000000000000000, 0.000000000000000000, -45.00000000000000000 ) ) ;
#726 = ORIENTED_EDGE ( 'NONE', *, *, #1056, .T. ) ;
#727 = FACE_OUTER_BOUND ( 'NONE', #999, .T. ) ;
#728 = DATE_AND_TIME ( #806, #1047 ) ;
#729 = DIRECTION ( 'NONE',  ( 0.000000000000000000, 0.000000000000000000, 1.000000000000000000 ) ) ;
#730 = DIRECTION ( 'NONE',  ( 0.000000000000000000, 0.000000000000000000, 1.000000000000000000 ) ) ;
#731 = CARTESIAN_POINT ( 'NONE',  ( 55.00000000000000711, 15.00000000000000000, 30.00000000000000000 ) ) ;
#732 = COORDINATED_UNIVERSAL_TIME_OFFSET ( 0, 0, .AHEAD. ) ;
#733 = ADVANCED_FACE ( 'NONE', ( #708 ), #535, .F. ) ;
#734 = CARTESIAN_POINT ( 'NONE',  ( -41.30000000000001137, 7.500000000000000000, 34.99999999999999289 ) ) ;
#735 = PERSON_AND_ORGANIZATION_ROLE ( 'classification_officer' ) ;
#736 = PLANE ( 'NONE',  #157 ) ;
#737 = APPROVAL_ROLE ( '' ) ;
#738 = ORIENTED_EDGE ( 'NONE', *, *, #472, .T. ) ;
#739 = CARTESIAN_POINT ( 'NONE',  ( 3.061616997868384620E-16, 10.00000000000000000, 22.50000000000000355 ) ) ;
#740 = DIRECTION ( 'NONE',  ( 0.000000000000000000, 0.000000000000000000, 1.000000000000000000 ) ) ;
#741 = AXIS2_PLACEMENT_3D ( 'NONE', #767, #365, #450 ) ;
#742 = CIRCLE ( 'NONE', #248, 1.300000000000002487 ) ;
#743 = AXIS2_PLACEMENT_3D ( 'NONE', #565, #897, #981 ) ;
#744 = ADVANCED_FACE ( 'NONE', ( #354 ), #684, .T. ) ;
#745 = DIRECTION ( 'NONE',  ( 0.000000000000000000, 0.000000000000000000, -1.000000000000000000 ) ) ;
#746 = ORIENTED_EDGE ( 'NONE', *, *, #366, .T. ) ;
#747 = CARTESIAN_POINT ( 'NONE',  ( -70.00000000000000000, 0.000000000000000000, 45.00000000000000000 ) ) ;
#748 = EDGE_CURVE ( 'NONE', #557, #1040, #977, .T. ) ;
#749 = CARTESIAN_POINT ( 'NONE',  ( -70.00000000000000000, 15.00000000000000000, 45.00000000000000000 ) ) ;
#750 = APPROVAL_DATE_TIME ( #92, #79 ) ;
#751 = LOCAL_TIME ( 14, 59, 19.00000000000000000, #125 ) ;
#752 = ORIENTED_EDGE ( 'NONE', *, *, #879, .T. ) ;
#753 = DIRECTION ( 'NONE',  ( -1.000000000000000000, 0.000000000000000000, 0.000000000000000000 ) ) ;
#754 = CARTESIAN_POINT ( 'NONE',  ( -20.00000000000000355, 12.00000000000000000, -1.000000000000002665 ) ) ;
#755 = CIRCLE ( 'NONE', #15, 7.500000000000000000 ) ;
#756 = EDGE_LOOP ( 'NONE', ( #726, #766, #1009, #618 ) ) ;
#757 = EDGE_CURVE ( 'NONE', #898, #282, #308, .T. ) ;
#758 = AXIS2_PLACEMENT_3D ( 'NONE', #145, #400, #710 ) ;
#759 = CARTESIAN_POINT ( 'NONE',  ( 55.00000000000000711, 0.000000000000000000, 30.00000000000000000 ) ) ;
#760 = VECTOR ( 'NONE', #655, 1000.000000000000000 ) ;
#761 = ORIENTED_EDGE ( 'NONE', *, *, #437, .F. ) ;
#762 = DIRECTION ( 'NONE',  ( -0.000000000000000000, -1.000000000000000000, -0.000000000000000000 ) ) ;
#763 = ORIENTED_EDGE ( 'NONE', *, *, #193, .T. ) ;
#764 = DIRECTION ( 'NONE',  ( 0.000000000000000000, 0.000000000000000000, 1.000000000000000000 ) ) ;
#765 = EDGE_CURVE ( 'NONE', #557, #573, #443, .T. ) ;
#766 = ORIENTED_EDGE ( 'NONE', *, *, #255, .T. ) ;
#767 = CARTESIAN_POINT ( 'NONE',  ( 40.00000000000000711, 7.500000000000000000, 45.00000000000000000 ) ) ;
#768 = ORIENTED_EDGE ( 'NONE', *, *, #172, .F. ) ;
#769 = CARTESIAN_POINT ( 'NONE',  ( -41.30000000000001137, 7.500000000000000000, -45.00000000000000000 ) ) ;
#770 = LINE ( 'NONE', #628, #829 ) ;
#771 = ORIENTED_EDGE ( 'NONE', *, *, #956, .T. ) ;
#772 = CIRCLE ( 'NONE', #587, 1.300000000000002487 ) ;
#773 = FACE_OUTER_BOUND ( 'NONE', #636, .T. ) ;
#774 = CIRCLE ( 'NONE', #656, 1.000000000000001554 ) ;
#775 = CYLINDRICAL_SURFACE ( 'NONE', #477, 2.499999999999998668 ) ;
#776 = ORIENTED_EDGE ( 'NONE', *, *, #176, .F. ) ;
#777 = DIRECTION ( 'NONE',  ( -0.000000000000000000, 1.000000000000000000, -0.000000000000000000 ) ) ;
#778 = LINE ( 'NONE', #211, #153 ) ;
#779 = CARTESIAN_POINT ( 'NONE',  ( -40.00000000000000711, 7.500000000000000000, 45.00000000000000000 ) ) ;
#780 = EDGE_CURVE ( 'NONE', #460, #114, #589, .T. ) ;
#781 = ORIENTED_EDGE ( 'NONE', *, *, #938, .T. ) ;
#782 = CARTESIAN_POINT ( 'NONE',  ( -20.00000000000000355, 0.000000000000000000, -1.115208210443206076E-15 ) ) ;
#783 = ORIENTED_EDGE ( 'NONE', *, *, #437, .T. ) ;
#784 = VERTEX_POINT ( 'NONE', #997 ) ;
#785 = DIRECTION ( 'NONE',  ( 0.000000000000000000, 1.000000000000000000, 0.000000000000000000 ) ) ;
#786 = FACE_BOUND ( 'NONE', #389, .T. ) ;
#787 = EDGE_CURVE ( 'NONE', #825, #1040, #119, .T. ) ;
#788 = CYLINDRICAL_SURFACE ( 'NONE', #328, 1.300000000000002487 ) ;
#789 = ORIENTED_EDGE ( 'NONE', *, *, #377, .T. ) ;
#790 = VECTOR ( 'NONE', #1058, 1000.000000000000000 ) ;
#791 = CIRCLE ( 'NONE', #34, 1.300000000000002487 ) ;
#792 = ORIENTED_EDGE ( 'NONE', *, *, #472, .F. ) ;
#793 = DIRECTION ( 'NONE',  ( 0.000000000000000000, 1.000000000000000000, 0.000000000000000000 ) ) ;
#794 = FACE_BOUND ( 'NONE', #593, .T. ) ;
#795 = DIRECTION ( 'NONE',  ( 0.000000000000000000, 0.000000000000000000, -1.000000000000000000 ) ) ;
#796 = EDGE_CURVE ( 'NONE', #114, #460, #809, .T. ) ;
#797 = LINE ( 'NONE', #148, #620 ) ;
#798 = LINE ( 'NONE', #476, #654 ) ;
#799 = EDGE_LOOP ( 'NONE', ( #1060, #349, #64, #276 ) ) ;
#800 = FACE_OUTER_BOUND ( 'NONE', #362, .T. ) ;
#801 = CARTESIAN_POINT ( 'NONE',  ( 0.000000000000000000, 12.00000000000000000, 0.000000000000000000 ) ) ;
#802 = DIRECTION ( 'NONE',  ( 0.000000000000000000, 1.000000000000000000, 0.000000000000000000 ) ) ;
#803 = VERTEX_POINT ( 'NONE', #1070 ) ;
#804 = DIRECTION ( 'NONE',  ( 1.000000000000000000, 0.000000000000000000, 0.000000000000000000 ) ) ;
#805 = CIRCLE ( 'NONE', #306, 35.04999999999999716 ) ;
#806 = CALENDAR_DATE ( 2025, 5, 12 ) ;
#807 = CIRCLE ( 'NONE', #463, 1.300000000000002487 ) ;
#808 = ADVANCED_FACE ( 'NONE', ( #467 ), #307, .F. ) ;
#809 = CIRCLE ( 'NONE', #267, 1.300000000000002487 ) ;
#810 = DIRECTION ( 'NONE',  ( -0.000000000000000000, -0.000000000000000000, 1.000000000000000000 ) ) ;
#811 = CARTESIAN_POINT ( 'NONE',  ( 55.00000000000000711, -0.0009999999999992653654, 30.00000000000000000 ) ) ;
#812 = DIRECTION ( 'NONE',  ( 0.000000000000000000, -1.000000000000000000, 0.000000000000000000 ) ) ;
#813 = VERTEX_POINT ( 'NONE', #986 ) ;
#814 = CARTESIAN_POINT ( 'NONE',  ( -20.00000000000000355, 12.00000000000000000, 1.000000000000000444 ) ) ;
#815 = LINE ( 'NONE', #320, #168 ) ;
#816 = EDGE_CURVE ( 'NONE', #623, #1033, #403, .T. ) ;
#817 = DIRECTION ( 'NONE',  ( 0.000000000000000000, 1.000000000000000000, 0.000000000000000000 ) ) ;
#818 = ORIENTED_EDGE ( 'NONE', *, *, #1030, .F. ) ;
#819 = DIRECTION ( 'NONE',  ( -0.000000000000000000, 1.000000000000000000, -0.000000000000000000 ) ) ;
#820 = CC_DESIGN_APPROVAL ( #79, ( #414 ) ) ;
#821 = CARTESIAN_POINT ( 'NONE',  ( -40.00000000000000711, 7.500000000000000000, 45.00000000000000000 ) ) ;
#822 = CARTESIAN_POINT ( 'NONE',  ( -38.70000000000000284, 7.500000000000000000, 34.99999999999999289 ) ) ;
#823 = DIRECTION ( 'NONE',  ( -1.000000000000000000, 0.000000000000000000, -0.000000000000000000 ) ) ;
#824 = PERSON_AND_ORGANIZATION_ROLE ( 'creator' ) ;
#825 = VERTEX_POINT ( 'NONE', #1085 ) ;
#826 = EDGE_CURVE ( 'NONE', #578, #584, #724, .T. ) ;
#827 = ORIENTED_EDGE ( 'NONE', *, *, #826, .F. ) ;
#828 = CARTESIAN_POINT ( 'NONE',  ( 38.70000000000000284, 7.500000000000000000, 45.00000000000000000 ) ) ;
#829 = VECTOR ( 'NONE', #189, 1000.000000000000000 ) ;
#830 = CARTESIAN_POINT ( 'NONE',  ( 0.000000000000000000, 15.00000000000000000, 0.000000000000000000 ) ) ;
#831 = CARTESIAN_POINT ( 'NONE',  ( 40.00000000000000711, 7.500000000000000000, 34.99999999999999289 ) ) ;
#832 = FACE_OUTER_BOUND ( 'NONE', #452, .T. ) ;
#833 = CIRCLE ( 'NONE', #361, 1.000000000000001554 ) ;
#834 = EDGE_LOOP ( 'NONE', ( #239, #933 ) ) ;
#835 = EDGE_CURVE ( 'NONE', #279, #336, #864, .T. ) ;
#836 = LINE ( 'NONE', #912, #195 ) ;
#837 = CARTESIAN_POINT ( 'NONE',  ( -40.00000000000000711, 7.500000000000000000, -34.99999999999999289 ) ) ;
#838 = FACE_BOUND ( 'NONE', #718, .T. ) ;
#839 = VERTEX_POINT ( 'NONE', #725 ) ;
#840 = EDGE_LOOP ( 'NONE', ( #711, #738 ) ) ;
#841 = DIRECTION ( 'NONE',  ( -0.000000000000000000, 1.000000000000000000, -0.000000000000000000 ) ) ;
#842 = DIRECTION ( 'NONE',  ( -0.000000000000000000, -0.000000000000000000, -1.000000000000000000 ) ) ;
#843 = ORIENTED_EDGE ( 'NONE', *, *, #938, .F. ) ;
#844 = ORIENTED_EDGE ( 'NONE', *, *, #43, .F. ) ;
#845 = FACE_OUTER_BOUND ( 'NONE', #957, .T. ) ;
#846 = ADVANCED_FACE ( 'NONE', ( #17 ), #334, .F. ) ;
#847 = AXIS2_PLACEMENT_3D ( 'NONE', #562, #295, #65 ) ;
#848 = ORIENTED_EDGE ( 'NONE', *, *, #632, .F. ) ;
#849 = CIRCLE ( 'NONE', #381, 1.300000000000002487 ) ;
#850 = CARTESIAN_POINT ( 'NONE',  ( -20.00000000000000355, 0.000000000000000000, -1.115208210443206076E-15 ) ) ;
#851 = CIRCLE ( 'NONE', #743, 1.300000000000002487 ) ;
#852 = CARTESIAN_POINT ( 'NONE',  ( -40.00000000000000711, 7.500000000000000000, -34.99999999999999289 ) ) ;
#853 = ORIENTED_EDGE ( 'NONE', *, *, #509, .T. ) ;
#854 = ORIENTED_EDGE ( 'NONE', *, *, #158, .T. ) ;
#855 = DIRECTION ( 'NONE',  ( 0.000000000000000000, 0.000000000000000000, 1.000000000000000000 ) ) ;
#856 = ORIENTED_EDGE ( 'NONE', *, *, #757, .F. ) ;
#857 = EDGE_CURVE ( 'NONE', #542, #305, #399, .T. ) ;
#858 = CARTESIAN_POINT ( 'NONE',  ( 0.000000000000000000, 10.00000000000000000, -22.50000000000000355 ) ) ;
#859 = ORIENTED_EDGE ( 'NONE', *, *, #682, .F. ) ;
#860 = AXIS2_PLACEMENT_3D ( 'NONE', #459, #229, #143 ) ;
#861 = CYLINDRICAL_SURFACE ( 'NONE', #2, 35.04999999999999716 ) ;
#862 = CARTESIAN_POINT ( 'NONE',  ( -70.00000000000000000, 15.00000000000000000, -45.00000000000000000 ) ) ;
#863 = AXIS2_PLACEMENT_3D ( 'NONE', #1045, #280, #457 ) ;
#864 = CIRCLE ( 'NONE', #674, 2.499999999999998668 ) ;
#865 = EDGE_CURVE ( 'NONE', #699, #803, #1059, .T. ) ;
#866 = CYLINDRICAL_SURFACE ( 'NONE', #1031, 2.499999999999998668 ) ;
#867 = DATE_AND_TIME ( #327, #80 ) ;
#868 = DIRECTION ( 'NONE',  ( -0.000000000000000000, 1.000000000000000000, -0.000000000000000000 ) ) ;
#869 = ORIENTED_EDGE ( 'NONE', *, *, #11, .F. ) ;
#870 = DIRECTION ( 'NONE',  ( 0.000000000000000000, 0.000000000000000000, 1.000000000000000000 ) ) ;
#871 = EDGE_CURVE ( 'NONE', #436, #487, #19, .T. ) ;
#872 = VERTEX_POINT ( 'NONE', #992 ) ;
#873 = CYLINDRICAL_SURFACE ( 'NONE', #863, 7.500000000000000000 ) ;
#874 = DIRECTION ( 'NONE',  ( 0.000000000000000000, 1.000000000000000000, -0.000000000000000000 ) ) ;
#875 = EDGE_LOOP ( 'NONE', ( #633, #1048 ) ) ;
#876 = APPROVAL_DATE_TIME ( #867, #442 ) ;
#877 = CARTESIAN_POINT ( 'NONE',  ( 55.00000000000000711, -0.0009999999999992653654, 22.50000000000000711 ) ) ;
#878 = EDGE_LOOP ( 'NONE', ( #676, #662, #626, #347 ) ) ;
#879 = EDGE_CURVE ( 'NONE', #246, #225, #851, .T. ) ;
#880 = CYLINDRICAL_SURFACE ( 'NONE', #548, 7.500000000000000000 ) ;
#881 = AXIS2_PLACEMENT_3D ( 'NONE', #379, #518, #700 ) ;
#882 = CIRCLE ( 'NONE', #758, 1.000000000000001554 ) ;
#883 = AXIS2_PLACEMENT_3D ( 'NONE', #749, #745, #823 ) ;
#884 = ORIENTED_EDGE ( 'NONE', *, *, #1023, .F. ) ;
#885 = CARTESIAN_POINT ( 'NONE',  ( 20.00000000000000355, 12.00000000000000000, -1.115208210443206076E-15 ) ) ;
#886 = CARTESIAN_POINT ( 'NONE',  ( 0.000000000000000000, 12.00000000000000000, -25.00000000000000000 ) ) ;
#887 = APPROVAL_STATUS ( 'not_yet_approved' ) ;
#888 = EDGE_LOOP ( 'NONE', ( #971, #592, #761, #171 ) ) ;
#889 = CYLINDRICAL_SURFACE ( 'NONE', #860, 7.499999999999992895 ) ;
#890 = EDGE_CURVE ( 'NONE', #573, #825, #75, .T. ) ;
#891 = PRODUCT_DEFINITION_FORMATION_WITH_SPECIFIED_SOURCE ( 'ANY', '', #432, .NOT_KNOWN. ) ;
#892 = CARTESIAN_POINT ( 'NONE',  ( -54.99999999999999289, 15.00000000000000000, -37.50000000000000000 ) ) ;
#893 = LINE ( 'NONE', #641, #105 ) ;
#894 = CARTESIAN_POINT ( 'NONE',  ( 20.00000000000000355, 0.000000000000000000, -1.115208210443206076E-15 ) ) ;
#895 = DIRECTION ( 'NONE',  ( 0.000000000000000000, 0.000000000000000000, 1.000000000000000000 ) ) ;
#896 = PLANE ( 'NONE',  #4 ) ;
#897 = DIRECTION ( 'NONE',  ( 0.000000000000000000, 0.000000000000000000, 1.000000000000000000 ) ) ;
#898 = VERTEX_POINT ( 'NONE', #486 ) ;
#899 = CARTESIAN_POINT ( 'NONE',  ( -54.99999999999999289, 0.000000000000000000, -22.50000000000000000 ) ) ;
#900 = AXIS2_PLACEMENT_3D ( 'NONE', #249, #499, #3 ) ;
#901 = CALENDAR_DATE ( 2025, 5, 12 ) ;
#902 = DIRECTION ( 'NONE',  ( 0.000000000000000000, 0.000000000000000000, 1.000000000000000000 ) ) ;
#903 = AXIS2_PLACEMENT_3D ( 'NONE', #253, #45, #370 ) ;
#904 = CARTESIAN_POINT ( 'NONE',  ( 20.00000000000000355, 12.00000000000000000, -1.000000000000002665 ) ) ;
#905 = CARTESIAN_POINT ( 'NONE',  ( 20.00000000000000355, 0.000000000000000000, -1.115208210443206076E-15 ) ) ;
#906 = APPROVAL_STATUS ( 'not_yet_approved' ) ;
#907 = EDGE_LOOP ( 'NONE', ( #510, #323 ) ) ;
#908 = DIRECTION ( 'NONE',  ( -0.000000000000000000, -0.000000000000000000, 1.000000000000000000 ) ) ;
#909 = EDGE_CURVE ( 'NONE', #35, #382, #833, .T. ) ;
#910 = CALENDAR_DATE ( 2025, 5, 12 ) ;
#911 = ORIENTED_EDGE ( 'NONE', *, *, #682, .T. ) ;
#912 = CARTESIAN_POINT ( 'NONE',  ( 3.061616997868383141E-16, 10.00000000000000000, -27.50000000000000000 ) ) ;
#913 = SECURITY_CLASSIFICATION ( '', '', #78 ) ;
#914 = DIRECTION ( 'NONE',  ( 0.000000000000000000, 0.000000000000000000, 1.000000000000000000 ) ) ;
#915 = CARTESIAN_POINT ( 'NONE',  ( -40.00000000000000711, 7.500000000000000000, -34.99999999999999289 ) ) ;
#916 = LINE ( 'NONE', #493, #760 ) ;
#917 = ORIENTED_EDGE ( 'NONE', *, *, #410, .F. ) ;
#918 = ADVANCED_FACE ( 'NONE', ( #501 ), #1019, .F. ) ;
#919 = ORIENTED_EDGE ( 'NONE', *, *, #89, .F. ) ;
#920 = VECTOR ( 'NONE', #678, 1000.000000000000000 ) ;
#921 = DIRECTION ( 'NONE',  ( -0.000000000000000000, 1.000000000000000000, -0.000000000000000000 ) ) ;
#922 = AXIS2_PLACEMENT_3D ( 'NONE', #949, #793, #313 ) ;
#923 = DIRECTION ( 'NONE',  ( 0.000000000000000000, -0.000000000000000000, 1.000000000000000000 ) ) ;
#924 = AXIS2_PLACEMENT_3D ( 'NONE', #915, #1011, #417 ) ;
#925 = ORIENTED_EDGE ( 'NONE', *, *, #316, .T. ) ;
#926 = FACE_OUTER_BOUND ( 'NONE', #343, .T. ) ;
#927 = ORIENTED_EDGE ( 'NONE', *, *, #337, .F. ) ;
#928 =( NAMED_UNIT ( * ) PLANE_ANGLE_UNIT ( ) SI_UNIT ( $, .RADIAN. ) );
#929 = CARTESIAN_POINT ( 'NONE',  ( 4.292387031011472780E-15, 12.00000000000000000, -35.04999999999999716 ) ) ;
#930 = CARTESIAN_POINT ( 'NONE',  ( -40.00000000000000711, 7.500000000000000000, -45.00000000000000000 ) ) ;
#931 = LINE ( 'NONE', #257, #71 ) ;
#932 = ORIENTED_EDGE ( 'NONE', *, *, #144, .T. ) ;
#933 = ORIENTED_EDGE ( 'NONE', *, *, #31, .F. ) ;
#934 = ADVANCED_FACE ( 'NONE', ( #243 ), #736, .T. ) ;
#935 = FACE_OUTER_BOUND ( 'NONE', #375, .T. ) ;
#936 = DIRECTION ( 'NONE',  ( -0.000000000000000000, -0.000000000000000000, 1.000000000000000000 ) ) ;
#937 = VERTEX_POINT ( 'NONE', #6 ) ;
#938 = EDGE_CURVE ( 'NONE', #1080, #937, #916, .T. ) ;
#939 = AXIS2_PLACEMENT_3D ( 'NONE', #852, #944, #185 ) ;
#940 = ORIENTED_EDGE ( 'NONE', *, *, #816, .F. ) ;
#941 = CIRCLE ( 'NONE', #532, 2.499999999999998668 ) ;
#942 = CARTESIAN_POINT ( 'NONE',  ( 40.00000000000000711, 7.500000000000000000, 34.99999999999999289 ) ) ;
#943 = CARTESIAN_POINT ( 'NONE',  ( 55.00000000000000711, 15.00000000000000000, 22.50000000000000711 ) ) ;
#944 = DIRECTION ( 'NONE',  ( 0.000000000000000000, 0.000000000000000000, -1.000000000000000000 ) ) ;
#945 = DESIGN_CONTEXT ( 'detailed design', #93, 'design' ) ;
#946 = DIRECTION ( 'NONE',  ( -0.000000000000000000, -0.000000000000000000, 1.000000000000000000 ) ) ;
#947 = ORIENTED_EDGE ( 'NONE', *, *, #698, .T. ) ;
#948 = ADVANCED_FACE ( 'NONE', ( #838, #419, #832 ), #163, .F. ) ;
#949 = CARTESIAN_POINT ( 'NONE',  ( 0.000000000000000000, 12.00000000000000000, 25.00000000000000000 ) ) ;
#950 = DIRECTION ( 'NONE',  ( -0.000000000000000000, -0.000000000000000000, 1.000000000000000000 ) ) ;
#951 = CARTESIAN_POINT ( 'NONE',  ( -70.00000000000000000, 15.00000000000000000, 45.00000000000000000 ) ) ;
#952 = FACE_BOUND ( 'NONE', #875, .T. ) ;
#953 = CARTESIAN_POINT ( 'NONE',  ( 0.000000000000000000, 10.00000000000000000, -25.00000000000000000 ) ) ;
#954 = LINE ( 'NONE', #877, #1020 ) ;
#955 = ORIENTED_EDGE ( 'NONE', *, *, #765, .T. ) ;
#956 = EDGE_CURVE ( 'NONE', #39, #225, #82, .T. ) ;
#957 = EDGE_LOOP ( 'NONE', ( #205, #667, #781, #932 ) ) ;
#958 = FACE_OUTER_BOUND ( 'NONE', #42, .T. ) ;
#959 = DIRECTION ( 'NONE',  ( -0.000000000000000000, 1.000000000000000000, -0.000000000000000000 ) ) ;
#960 = ORIENTED_EDGE ( 'NONE', *, *, #857, .T. ) ;
#961 = DIRECTION ( 'NONE',  ( 0.000000000000000000, -0.000000000000000000, 1.000000000000000000 ) ) ;
#962 = AXIS2_PLACEMENT_3D ( 'NONE', #894, #478, #434 ) ;
#963 = DIRECTION ( 'NONE',  ( 0.000000000000000000, 0.000000000000000000, 1.000000000000000000 ) ) ;
#964 = AXIS2_PLACEMENT_3D ( 'NONE', #272, #777, #355 ) ;
#965 = CC_DESIGN_PERSON_AND_ORGANIZATION_ASSIGNMENT ( #318, #735, ( #913 ) ) ;
#966 = AXIS2_PLACEMENT_3D ( 'NONE', #407, #576, #661 ) ;
#967 = EDGE_CURVE ( 'NONE', #261, #623, #931, .T. ) ;
#968 = DIRECTION ( 'NONE',  ( -0.000000000000000000, 1.000000000000000000, -0.000000000000000000 ) ) ;
#969 = PERSON_AND_ORGANIZATION_ROLE ( 'design_supplier' ) ;
#970 = CARTESIAN_POINT ( 'NONE',  ( -40.00000000000000711, 7.500000000000000000, -34.99999999999999289 ) ) ;
#971 = ORIENTED_EDGE ( 'NONE', *, *, #410, .T. ) ;
#972 = DIRECTION ( 'NONE',  ( -0.000000000000000000, 1.000000000000000000, -0.000000000000000000 ) ) ;
#973 = ORIENTED_EDGE ( 'NONE', *, *, #1026, .T. ) ;
#974 = CARTESIAN_POINT ( 'NONE',  ( 38.70000000000000284, 7.500000000000000000, -34.99999999999999289 ) ) ;
#975 = CC_DESIGN_PERSON_AND_ORGANIZATION_ASSIGNMENT ( #646, #824, ( #414 ) ) ;
#976 = ORIENTED_EDGE ( 'NONE', *, *, #296, .F. ) ;
#977 = LINE ( 'NONE', #545, #639 ) ;
#978 = CARTESIAN_POINT ( 'NONE',  ( 40.00000000000000711, 7.500000000000000000, -34.99999999999999289 ) ) ;
#979 = CARTESIAN_POINT ( 'NONE',  ( 40.00000000000000711, 7.500000000000000000, -34.99999999999999289 ) ) ;
#980 = ORIENTED_EDGE ( 'NONE', *, *, #652, .T. ) ;
#981 = DIRECTION ( 'NONE',  ( -1.000000000000000000, 0.000000000000000000, 0.000000000000000000 ) ) ;
#982 = DIRECTION ( 'NONE',  ( -0.000000000000000000, -1.000000000000000000, -0.000000000000000000 ) ) ;
#983 = AXIS2_PLACEMENT_3D ( 'NONE', #1034, #131, #1061 ) ;
#984 = VECTOR ( 'NONE', #996, 1000.000000000000000 ) ;
#985 = PLANE ( 'NONE',  #574 ) ;
#986 = CARTESIAN_POINT ( 'NONE',  ( 41.30000000000001137, 7.500000000000000000, 34.99999999999999289 ) ) ;
#987 = CARTESIAN_POINT ( 'NONE',  ( 0.000000000000000000, 12.00000000000000000, -22.50000000000000355 ) ) ;
#988 = ORIENTED_EDGE ( 'NONE', *, *, #642, .F. ) ;
#989 = EDGE_CURVE ( 'NONE', #261, #1043, #519, .T. ) ;
#990 = DIRECTION ( 'NONE',  ( -0.000000000000000000, -0.000000000000000000, 1.000000000000000000 ) ) ;
#991 = COORDINATED_UNIVERSAL_TIME_OFFSET ( 0, 0, .AHEAD. ) ;
#992 = CARTESIAN_POINT ( 'NONE',  ( -20.00000000000000355, 0.000000000000000000, 1.000000000000000444 ) ) ;
#993 = DIRECTION ( 'NONE',  ( -1.000000000000000000, 0.000000000000000000, 0.000000000000000000 ) ) ;
#994 = ADVANCED_FACE ( 'NONE', ( #1039 ), #525, .F. ) ;
#995 = DIRECTION ( 'NONE',  ( 0.000000000000000000, 1.000000000000000000, 0.000000000000000000 ) ) ;
#996 = DIRECTION ( 'NONE',  ( 0.000000000000000000, 0.000000000000000000, -1.000000000000000000 ) ) ;
#997 = CARTESIAN_POINT ( 'NONE',  ( -38.70000000000000284, 7.500000000000000000, -45.00000000000000000 ) ) ;
#998 = FACE_BOUND ( 'NONE', #907, .T. ) ;
#999 = EDGE_LOOP ( 'NONE', ( #720, #164, #973, #776 ) ) ;
#1000 = DIRECTION ( 'NONE',  ( -0.000000000000000000, 1.000000000000000000, -0.000000000000000000 ) ) ;
#1001 = LINE ( 'NONE', #549, #285 ) ;
#1002 = AXIS2_PLACEMENT_3D ( 'NONE', #505, #418, #426 ) ;
#1003 = CARTESIAN_POINT ( 'NONE',  ( 0.000000000000000000, 15.00000000000000000, 0.000000000000000000 ) ) ;
#1004 = DIRECTION ( 'NONE',  ( 0.000000000000000000, 0.000000000000000000, 1.000000000000000000 ) ) ;
#1005 = ORIENTED_EDGE ( 'NONE', *, *, #909, .F. ) ;
#1006 = CARTESIAN_POINT ( 'NONE',  ( -38.70000000000000284, 7.500000000000000000, 34.99999999999999289 ) ) ;
#1007 = EDGE_CURVE ( 'NONE', #542, #20, #954, .T. ) ;
#1008 = DIRECTION ( 'NONE',  ( 0.000000000000000000, 0.000000000000000000, 1.000000000000000000 ) ) ;
#1009 = ORIENTED_EDGE ( 'NONE', *, *, #967, .T. ) ;
#1010 = CC_DESIGN_DATE_AND_TIME_ASSIGNMENT ( #568, #1076, ( #913 ) ) ;
#1011 = DIRECTION ( 'NONE',  ( -0.000000000000000000, -0.000000000000000000, -1.000000000000000000 ) ) ;
#1012 = CARTESIAN_POINT ( 'NONE',  ( -70.00000000000000000, 15.00000000000000000, 45.00000000000000000 ) ) ;
#1013 = CARTESIAN_POINT ( 'NONE',  ( 38.70000000000000284, 7.500000000000000000, 34.99999999999999289 ) ) ;
#1014 = VERTEX_POINT ( 'NONE', #133 ) ;
#1015 = APPLICATION_CONTEXT ( 'configuration controlled 3d designs of mechanical parts and assemblies' ) ;
#1016 = DIRECTION ( 'NONE',  ( -0.000000000000000000, 1.000000000000000000, -0.000000000000000000 ) ) ;
#1017 = AXIS2_PLACEMENT_3D ( 'NONE', #779, #50, #624 ) ;
#1018 = FACE_OUTER_BOUND ( 'NONE', #183, .T. ) ;
#1019 = CYLINDRICAL_SURFACE ( 'NONE', #966, 1.000000000000001554 ) ;
#1020 = VECTOR ( 'NONE', #868, 1000.000000000000000 ) ;
#1021 = ORIENTED_EDGE ( 'NONE', *, *, #871, .T. ) ;
#1022 = DIRECTION ( 'NONE',  ( -1.000000000000000000, 0.000000000000000000, 0.000000000000000000 ) ) ;
#1023 = EDGE_CURVE ( 'NONE', #114, #420, #464, .T. ) ;
#1024 = ORIENTED_EDGE ( 'NONE', *, *, #671, .F. ) ;
#1025 = ORIENTED_EDGE ( 'NONE', *, *, #879, .F. ) ;
#1026 = EDGE_CURVE ( 'NONE', #420, #612, #689, .T. ) ;
#1027 = CARTESIAN_POINT ( 'NONE',  ( 0.000000000000000000, 12.00000000000000000, 0.000000000000000000 ) ) ;
#1028 = ORIENTED_EDGE ( 'NONE', *, *, #366, .F. ) ;
#1029 = DIRECTION ( 'NONE',  ( 1.000000000000000000, 0.000000000000000000, 0.000000000000000000 ) ) ;
#1030 = EDGE_CURVE ( 'NONE', #8, #1080, #533, .T. ) ;
#1031 = AXIS2_PLACEMENT_3D ( 'NONE', #953, #352, #855 ) ;
#1032 = VECTOR ( 'NONE', #288, 1000.000000000000000 ) ;
#1033 = VERTEX_POINT ( 'NONE', #162 ) ;
#1034 = CARTESIAN_POINT ( 'NONE',  ( 0.000000000000000000, 10.00000000000000000, -25.00000000000000000 ) ) ;
#1035 = AXIS2_PLACEMENT_3D ( 'NONE', #146, #895, #299 ) ;
#1036 = DIRECTION ( 'NONE',  ( 0.000000000000000000, 0.000000000000000000, 1.000000000000000000 ) ) ;
#1037 = LINE ( 'NONE', #523, #344 ) ;
#1038 = ADVANCED_FACE ( 'NONE', ( #66, #659, #150, #241 ), #985, .F. ) ;
#1039 = FACE_OUTER_BOUND ( 'NONE', #230, .T. ) ;
#1040 = VERTEX_POINT ( 'NONE', #904 ) ;
#1041 = PLANE ( 'NONE',  #1071 ) ;
#1042 = DIRECTION ( 'NONE',  ( -0.000000000000000000, -0.000000000000000000, -1.000000000000000000 ) ) ;
#1043 = VERTEX_POINT ( 'NONE', #401 ) ;
#1044 = LINE ( 'NONE', #51, #1032 ) ;
#1045 = CARTESIAN_POINT ( 'NONE',  ( -54.99999999999999289, -0.0009999999999992653654, -30.00000000000000000 ) ) ;
#1046 = DIRECTION ( 'NONE',  ( -0.000000000000000000, 1.000000000000000000, -0.000000000000000000 ) ) ;
#1047 = LOCAL_TIME ( 14, 59, 19.00000000000000000, #311 ) ;
#1048 = ORIENTED_EDGE ( 'NONE', *, *, #538, .T. ) ;
#1049 = CARTESIAN_POINT ( 'NONE',  ( 0.000000000000000000, 10.00000000000000000, -25.00000000000000000 ) ) ;
#1050 = PERSON_AND_ORGANIZATION_ROLE ( 'creator' ) ;
#1051 = ORIENTED_EDGE ( 'NONE', *, *, #425, .F. ) ;
#1052 = FACE_OUTER_BOUND ( 'NONE', #526, .T. ) ;
#1053 = CIRCLE ( 'NONE', #214, 7.500000000000000000 ) ;
#1054 = DIRECTION ( 'NONE',  ( -0.000000000000000000, -1.000000000000000000, -0.000000000000000000 ) ) ;
#1055 = AXIS2_PLACEMENT_3D ( 'NONE', #831, #1078, #223 ) ;
#1056 = EDGE_CURVE ( 'NONE', #1033, #88, #644, .T. ) ;
#1057 = VECTOR ( 'NONE', #810, 1000.000000000000000 ) ;
#1058 = DIRECTION ( 'NONE',  ( -1.000000000000000000, -0.000000000000000000, -0.000000000000000000 ) ) ;
#1059 = LINE ( 'NONE', #207, #483 ) ;
#1060 = ORIENTED_EDGE ( 'NONE', *, *, #1077, .F. ) ;
#1061 = DIRECTION ( 'NONE',  ( 0.000000000000000000, -0.000000000000000000, 1.000000000000000000 ) ) ;
#1062 = FACE_OUTER_BOUND ( 'NONE', #585, .T. ) ;
#1063 = DIRECTION ( 'NONE',  ( 0.000000000000000000, 1.000000000000000000, 0.000000000000000000 ) ) ;
#1064 = DIRECTION ( 'NONE',  ( 0.000000000000000000, 0.000000000000000000, -1.000000000000000000 ) ) ;
#1065 = ORIENTED_EDGE ( 'NONE', *, *, #144, .F. ) ;
#1066 = CYLINDRICAL_SURFACE ( 'NONE', #53, 1.300000000000002487 ) ;
#1067 = DIRECTION ( 'NONE',  ( -0.000000000000000000, 1.000000000000000000, -0.000000000000000000 ) ) ;
#1068 = EDGE_CURVE ( 'NONE', #336, #487, #893, .T. ) ;
#1069 = ORIENTED_EDGE ( 'NONE', *, *, #1077, .T. ) ;
#1070 = CARTESIAN_POINT ( 'NONE',  ( -54.99999999999999289, 15.00000000000000000, -22.50000000000000000 ) ) ;
#1071 = AXIS2_PLACEMENT_3D ( 'NONE', #862, #121, #449 ) ;
#1072 = FACE_OUTER_BOUND ( 'NONE', #49, .T. ) ;
#1073 = AXIS2_PLACEMENT_3D ( 'NONE', #696, #959, #622 ) ;
#1074 = AXIS2_PLACEMENT_3D ( 'NONE', #905, #135, #719 ) ;
#1075 = AXIS2_PLACEMENT_3D ( 'NONE', #445, #208, #388 ) ;
#1076 = DATE_TIME_ROLE ( 'classification_date' ) ;
#1077 = EDGE_CURVE ( 'NONE', #584, #578, #706, .T. ) ;
#1078 = DIRECTION ( 'NONE',  ( -0.000000000000000000, -0.000000000000000000, 1.000000000000000000 ) ) ;
#1079 = APPROVAL_ROLE ( '' ) ;
#1080 = VERTEX_POINT ( 'NONE', #1084 ) ;
#1081 = DIRECTION ( 'NONE',  ( -0.000000000000000000, -0.000000000000000000, -1.000000000000000000 ) ) ;
#1082 = APPROVAL_DATE_TIME ( #728, #72 ) ;
#1083 = DIRECTION ( 'NONE',  ( -0.000000000000000000, -0.000000000000000000, -1.000000000000000000 ) ) ;
#1084 = CARTESIAN_POINT ( 'NONE',  ( 0.000000000000000000, 12.00000000000000000, 35.04999999999999716 ) ) ;
#1085 = CARTESIAN_POINT ( 'NONE',  ( 20.00000000000000355, 12.00000000000000000, 1.000000000000000444 ) ) ;
#1086 = DIRECTION ( 'NONE',  ( -0.000000000000000000, -0.000000000000000000, -1.000000000000000000 ) ) ;
#1087 = ORIENTED_EDGE ( 'NONE', *, *, #172, .T. ) ;
#1088 = CARTESIAN_POINT ( 'NONE',  ( -40.00000000000000711, 7.500000000000000000, 34.99999999999999289 ) ) ;
#1089 = EDGE_CURVE ( 'NONE', #872, #35, #815, .T. ) ;
#1090 = APPROVAL_STATUS ( 'not_yet_approved' ) ;
#1091 = CARTESIAN_POINT ( 'NONE',  ( -40.00000000000000711, 7.500000000000000000, 34.99999999999999289 ) ) ;
#1092 = DATE_TIME_ROLE ( 'creation_date' ) ;
#1093 = EDGE_LOOP ( 'NONE', ( #917, #1051 ) ) ;
ENDSEC;
END-ISO-10303-21;
