ISO-10303-21;
HEADER;
FILE_DESCRIPTION (( 'STEP AP203' ),
    '1' );
FILE_NAME ('pillar.STEP',
    '2025-11-24T20:03:36',
    ( '' ),
    ( '' ),
    '',
    '',
    '' );
FILE_SCHEMA (( 'CONFIG_CONTROL_DESIGN' ));
ENDSEC;

DATA;
#1 = CC_DESIGN_PERSON_AND_ORGANIZATION_ASSIGNMENT ( #179, #27, ( #17 ) ) ;
#2 =( NAMED_UNIT ( * ) SI_UNIT ( $, .STERADIAN. ) SOLID_ANGLE_UNIT ( ) );
#3 = DIRECTION ( 'NONE',  ( 1.000000000000000000, 0.000000000000000000, 0.000000000000000000 ) ) ;
#4 = ADVANCED_FACE ( 'NONE', ( #200 ), #136, .T. ) ;
#5 = COORDINATED_UNIVERSAL_TIME_OFFSET ( 0, 0, .AHEAD. ) ;
#6 = AXIS2_PLACEMENT_3D ( 'NONE', #106, #205, #71 ) ;
#7 = SECURITY_CLASSIFICATION_LEVEL ( 'unclassified' ) ;
#8 = DATE_TIME_ROLE ( 'classification_date' ) ;
#9 = ORIENTED_EDGE ( 'NONE', *, *, #164, .T. ) ;
#10 = CALENDAR_DATE ( 2025, 24, 11 ) ;
#11 = AXIS2_PLACEMENT_3D ( 'NONE', #163, #141, #3 ) ;
#12 = EDGE_CURVE ( 'NONE', #189, #18, #198, .T. ) ;
#13 = CARTESIAN_POINT ( 'NONE',  ( 9.184850993605145972E-16, 0.000000000000000000, 7.500000000000000000 ) ) ;
#14 = APPLICATION_CONTEXT ( 'configuration controlled 3d designs of mechanical parts and assemblies' ) ;
#15 = LINE ( 'NONE', #89, #57 ) ;
#16 = EDGE_LOOP ( 'NONE', ( #91, #46 ) ) ;
#17 = PRODUCT_DEFINITION_FORMATION_WITH_SPECIFIED_SOURCE ( 'ANY', '', #218, .NOT_KNOWN. ) ;
#18 = VERTEX_POINT ( 'NONE', #88 ) ;
#19 = PERSON_AND_ORGANIZATION ( #138, #41 ) ;
#20 = DATE_AND_TIME ( #175, #137 ) ;
#21 =( LENGTH_UNIT ( ) NAMED_UNIT ( * ) SI_UNIT ( .MILLI., .METRE. ) );
#22 = VECTOR ( 'NONE', #50, 1000.000000000000000 ) ;
#23 = EDGE_CURVE ( 'NONE', #18, #62, #116, .T. ) ;
#24 = CC_DESIGN_PERSON_AND_ORGANIZATION_ASSIGNMENT ( #98, #131, ( #75 ) ) ;
#25 = AXIS2_PLACEMENT_3D ( 'NONE', #174, #194, #159 ) ;
#26 = VERTEX_POINT ( 'NONE', #186 ) ;
#27 = PERSON_AND_ORGANIZATION_ROLE ( 'creator' ) ;
#28 = ORIENTED_EDGE ( 'NONE', *, *, #23, .T. ) ;
#29 = EDGE_CURVE ( 'NONE', #189, #133, #15, .T. ) ;
#30 = DIRECTION ( 'NONE',  ( 0.000000000000000000, 1.000000000000000000, 0.000000000000000000 ) ) ;
#31 = ORIENTED_EDGE ( 'NONE', *, *, #12, .T. ) ;
#32 = DIRECTION ( 'NONE',  ( 0.000000000000000000, 1.000000000000000000, 0.000000000000000000 ) ) ;
#33 = DIRECTION ( 'NONE',  ( 0.000000000000000000, -0.7071067811865493491, -0.7071067811865456854 ) ) ;
#34 = AXIS2_PLACEMENT_3D ( 'NONE', #39, #110, #38 ) ;
#35 = LINE ( 'NONE', #68, #150 ) ;
#36 = APPROVAL_DATE_TIME ( #176, #104 ) ;
#37 =( GEOMETRIC_REPRESENTATION_CONTEXT ( 3 ) GLOBAL_UNCERTAINTY_ASSIGNED_CONTEXT ( ( #182 ) ) GLOBAL_UNIT_ASSIGNED_CONTEXT ( ( #21, #58, #2 ) ) REPRESENTATION_CONTEXT ( 'NONE', 'WORKASPACE' ) );
#38 = DIRECTION ( 'NONE',  ( 0.000000000000000000, -0.000000000000000000, 1.000000000000000000 ) ) ;
#39 = CARTESIAN_POINT ( 'NONE',  ( 0.000000000000000000, 0.000000000000000000, 0.000000000000000000 ) ) ;
#40 = CALENDAR_DATE ( 2025, 24, 11 ) ;
#41 = ORGANIZATION ( 'UNSPECIFIED', 'UNSPECIFIED', '' ) ;
#42 = SHAPE_DEFINITION_REPRESENTATION ( #122, #87 ) ;
#43 = ORIENTED_EDGE ( 'NONE', *, *, #29, .T. ) ;
#44 = LOCAL_TIME ( 20, 3, 36.00000000000000000, #112 ) ;
#45 = MANIFOLD_SOLID_BREP ( 'Chamfer1', #120 ) ;
#46 = ORIENTED_EDGE ( 'NONE', *, *, #66, .F. ) ;
#47 = CIRCLE ( 'NONE', #113, 7.500000000000000000 ) ;
#48 = ORIENTED_EDGE ( 'NONE', *, *, #23, .F. ) ;
#49 = PLANE ( 'NONE',  #211 ) ;
#50 = DIRECTION ( 'NONE',  ( -0.000000000000000000, -1.000000000000000000, -0.000000000000000000 ) ) ;
#51 = CARTESIAN_POINT ( 'NONE',  ( 0.000000000000000000, 180.0000000000000000, 0.000000000000000000 ) ) ;
#52 = AXIS2_PLACEMENT_3D ( 'NONE', #219, #134, #69 ) ;
#53 = CC_DESIGN_PERSON_AND_ORGANIZATION_ASSIGNMENT ( #19, #161, ( #218 ) ) ;
#54 = COORDINATED_UNIVERSAL_TIME_OFFSET ( 0, 0, .AHEAD. ) ;
#55 = CYLINDRICAL_SURFACE ( 'NONE', #111, 7.500000000000000000 ) ;
#56 = FACE_OUTER_BOUND ( 'NONE', #165, .T. ) ;
#57 = VECTOR ( 'NONE', #33, 1000.000000000000000 ) ;
#58 =( NAMED_UNIT ( * ) PLANE_ANGLE_UNIT ( ) SI_UNIT ( $, .RADIAN. ) );
#59 = CARTESIAN_POINT ( 'NONE',  ( 0.000000000000000000, 180.0000000000000000, 0.000000000000000000 ) ) ;
#60 = PERSON_AND_ORGANIZATION ( #138, #41 ) ;
#61 = PERSON_AND_ORGANIZATION ( #138, #41 ) ;
#62 = VERTEX_POINT ( 'NONE', #92 ) ;
#63 = COORDINATED_UNIVERSAL_TIME_OFFSET ( 0, 0, .AHEAD. ) ;
#64 = VERTEX_POINT ( 'NONE', #13 ) ;
#65 = LOCAL_TIME ( 20, 3, 36.00000000000000000, #63 ) ;
#66 = EDGE_CURVE ( 'NONE', #64, #26, #146, .T. ) ;
#67 = ORIENTED_EDGE ( 'NONE', *, *, #29, .F. ) ;
#68 = CARTESIAN_POINT ( 'NONE',  ( 9.184850993605145972E-16, 180.0000000000000000, 7.500000000000000000 ) ) ;
#69 = DIRECTION ( 'NONE',  ( 0.000000000000000000, 0.000000000000000000, -1.000000000000000000 ) ) ;
#70 = ORIENTED_EDGE ( 'NONE', *, *, #119, .T. ) ;
#71 = DIRECTION ( 'NONE',  ( 0.000000000000000000, 0.000000000000000000, -1.000000000000000000 ) ) ;
#72 = EDGE_CURVE ( 'NONE', #133, #26, #117, .T. ) ;
#73 = LOCAL_TIME ( 20, 3, 36.00000000000000000, #5 ) ;
#74 = APPROVAL_ROLE ( '' ) ;
#75 = SECURITY_CLASSIFICATION ( '', '', #7 ) ;
#76 = APPROVAL_ROLE ( '' ) ;
#77 = DIRECTION ( 'NONE',  ( 0.000000000000000000, 1.000000000000000000, 0.000000000000000000 ) ) ;
#78 = PRODUCT_RELATED_PRODUCT_CATEGORY ( 'detail', '', ( #218 ) ) ;
#79 = DIRECTION ( 'NONE',  ( -0.000000000000000000, -1.000000000000000000, -0.000000000000000000 ) ) ;
#80 = APPROVAL_DATE_TIME ( #215, #114 ) ;
#81 = DATE_AND_TIME ( #10, #65 ) ;
#82 = CIRCLE ( 'NONE', #203, 6.500000000000115463 ) ;
#83 = ORIENTED_EDGE ( 'NONE', *, *, #66, .T. ) ;
#84 = ORIENTED_EDGE ( 'NONE', *, *, #164, .F. ) ;
#85 = VECTOR ( 'NONE', #103, 1000.000000000000000 ) ;
#86 = DIRECTION ( 'NONE',  ( 0.000000000000000000, -1.000000000000000000, 0.000000000000000000 ) ) ;
#87 = ADVANCED_BREP_SHAPE_REPRESENTATION ( 'pillar', ( #45, #11 ), #37 ) ;
#88 = CARTESIAN_POINT ( 'NONE',  ( 8.572527594031542215E-16, 180.0000000000000000, 6.500000000000115463 ) ) ;
#89 = CARTESIAN_POINT ( 'NONE',  ( 0.000000000000000000, 180.0000000000000000, -6.500000000000115463 ) ) ;
#90 = CIRCLE ( 'NONE', #97, 7.500000000000000000 ) ;
#91 = ORIENTED_EDGE ( 'NONE', *, *, #209, .F. ) ;
#92 = CARTESIAN_POINT ( 'NONE',  ( 9.184850993605145972E-16, 179.0000000000001137, 7.500000000000000000 ) ) ;
#93 = DIRECTION ( 'NONE',  ( 0.000000000000000000, 0.000000000000000000, -1.000000000000000000 ) ) ;
#94 = AXIS2_PLACEMENT_3D ( 'NONE', #51, #30, #202 ) ;
#95 = DATE_TIME_ROLE ( 'creation_date' ) ;
#96 = CARTESIAN_POINT ( 'NONE',  ( 0.000000000000000000, 180.0000000000000000, 0.000000000000000000 ) ) ;
#97 = AXIS2_PLACEMENT_3D ( 'NONE', #118, #153, #217 ) ;
#98 = PERSON_AND_ORGANIZATION ( #138, #41 ) ;
#99 = PRODUCT_DEFINITION ( 'UNKNOWN', '', #17, #129 ) ;
#100 = CALENDAR_DATE ( 2025, 24, 11 ) ;
#101 = LOCAL_TIME ( 20, 3, 36.00000000000000000, #191 ) ;
#102 = EDGE_LOOP ( 'NONE', ( #9, #172, #83, #197 ) ) ;
#103 = DIRECTION ( 'NONE',  ( 8.659560562354910671E-17, -0.7071067811865493491, 0.7071067811865456854 ) ) ;
#104 = APPROVAL ( #108, 'UNSPECIFIED' ) ;
#105 = EDGE_LOOP ( 'NONE', ( #48, #130, #43, #148 ) ) ;
#106 = CARTESIAN_POINT ( 'NONE',  ( 0.000000000000000000, 180.0000000000000000, 0.000000000000000000 ) ) ;
#107 = CIRCLE ( 'NONE', #25, 7.500000000000000000 ) ;
#108 = APPROVAL_STATUS ( 'not_yet_approved' ) ;
#109 = CC_DESIGN_PERSON_AND_ORGANIZATION_ASSIGNMENT ( #61, #180, ( #17 ) ) ;
#110 = DIRECTION ( 'NONE',  ( 0.000000000000000000, 1.000000000000000000, 0.000000000000000000 ) ) ;
#111 = AXIS2_PLACEMENT_3D ( 'NONE', #96, #79, #93 ) ;
#112 = COORDINATED_UNIVERSAL_TIME_OFFSET ( 0, 0, .AHEAD. ) ;
#113 = AXIS2_PLACEMENT_3D ( 'NONE', #143, #195, #177 ) ;
#114 = APPROVAL ( #149, 'UNSPECIFIED' ) ;
#115 = DIRECTION ( 'NONE',  ( 0.000000000000000000, 1.000000000000000000, 0.000000000000000000 ) ) ;
#116 = LINE ( 'NONE', #169, #85 ) ;
#117 = LINE ( 'NONE', #154, #22 ) ;
#118 = CARTESIAN_POINT ( 'NONE',  ( 0.000000000000000000, 179.0000000000001137, 0.000000000000000000 ) ) ;
#119 = EDGE_CURVE ( 'NONE', #62, #133, #90, .T. ) ;
#120 = CLOSED_SHELL ( 'NONE', ( #145, #4, #187, #147, #193, #126 ) ) ;
#121 = DIRECTION ( 'NONE',  ( 0.000000000000000000, 0.000000000000000000, -1.000000000000000000 ) ) ;
#122 = PRODUCT_DEFINITION_SHAPE ( 'NONE', 'NONE',  #99 ) ;
#123 = FACE_OUTER_BOUND ( 'NONE', #16, .T. ) ;
#124 = DIRECTION ( 'NONE',  ( 0.000000000000000000, 0.000000000000000000, 1.000000000000000000 ) ) ;
#125 = CARTESIAN_POINT ( 'NONE',  ( 0.000000000000000000, 180.0000000000000000, -6.500000000000115463 ) ) ;
#126 = ADVANCED_FACE ( 'NONE', ( #222 ), #192, .T. ) ;
#127 = APPROVAL_ROLE ( '' ) ;
#128 = APPROVAL ( #225, 'UNSPECIFIED' ) ;
#129 = DESIGN_CONTEXT ( 'detailed design', #151, 'design' ) ;
#130 = ORIENTED_EDGE ( 'NONE', *, *, #12, .F. ) ;
#131 = PERSON_AND_ORGANIZATION_ROLE ( 'classification_officer' ) ;
#132 = ORIENTED_EDGE ( 'NONE', *, *, #209, .T. ) ;
#133 = VERTEX_POINT ( 'NONE', #190 ) ;
#134 = DIRECTION ( 'NONE',  ( 0.000000000000000000, -1.000000000000000000, 0.000000000000000000 ) ) ;
#135 = EDGE_LOOP ( 'NONE', ( #31, #183 ) ) ;
#136 = CYLINDRICAL_SURFACE ( 'NONE', #6, 7.500000000000000000 ) ;
#137 = LOCAL_TIME ( 20, 3, 36.00000000000000000, #54 ) ;
#138 = PERSON ( 'UNSPECIFIED', 'UNSPECIFIED', 'UNSPECIFIED', ('UNSPECIFIED'), ('UNSPECIFIED'), ('UNSPECIFIED') ) ;
#139 = PERSON_AND_ORGANIZATION ( #138, #41 ) ;
#140 = EDGE_CURVE ( 'NONE', #62, #64, #35, .T. ) ;
#141 = DIRECTION ( 'NONE',  ( 0.000000000000000000, 0.000000000000000000, 1.000000000000000000 ) ) ;
#142 = CC_DESIGN_APPROVAL ( #128, ( #17 ) ) ;
#143 = CARTESIAN_POINT ( 'NONE',  ( 0.000000000000000000, 179.0000000000001137, 0.000000000000000000 ) ) ;
#144 = APPLICATION_PROTOCOL_DEFINITION ( 'international standard', 'config_control_design', 1994, #151 ) ;
#145 = ADVANCED_FACE ( 'NONE', ( #152 ), #207, .T. ) ;
#146 = CIRCLE ( 'NONE', #220, 7.500000000000000000 ) ;
#147 = ADVANCED_FACE ( 'NONE', ( #204 ), #49, .T. ) ;
#148 = ORIENTED_EDGE ( 'NONE', *, *, #119, .F. ) ;
#149 = APPROVAL_STATUS ( 'not_yet_approved' ) ;
#150 = VECTOR ( 'NONE', #221, 1000.000000000000000 ) ;
#151 = APPLICATION_CONTEXT ( 'configuration controlled 3d designs of mechanical parts and assemblies' ) ;
#152 = FACE_OUTER_BOUND ( 'NONE', #157, .T. ) ;
#153 = DIRECTION ( 'NONE',  ( 0.000000000000000000, -1.000000000000000000, 0.000000000000000000 ) ) ;
#154 = CARTESIAN_POINT ( 'NONE',  ( 0.000000000000000000, 180.0000000000000000, -7.500000000000000000 ) ) ;
#155 = CC_DESIGN_APPROVAL ( #104, ( #99 ) ) ;
#156 = CC_DESIGN_DATE_AND_TIME_ASSIGNMENT ( #214, #8, ( #75 ) ) ;
#157 = EDGE_LOOP ( 'NONE', ( #166, #28, #84, #67 ) ) ;
#158 = CARTESIAN_POINT ( 'NONE',  ( 0.000000000000000000, 0.000000000000000000, 0.000000000000000000 ) ) ;
#159 = DIRECTION ( 'NONE',  ( 0.000000000000000000, 0.000000000000000000, 1.000000000000000000 ) ) ;
#160 = PERSON_AND_ORGANIZATION ( #138, #41 ) ;
#161 = PERSON_AND_ORGANIZATION_ROLE ( 'design_owner' ) ;
#162 = APPROVAL_PERSON_ORGANIZATION ( #223, #104, #74 ) ;
#163 = CARTESIAN_POINT ( 'NONE',  ( 0.000000000000000000, 0.000000000000000000, 0.000000000000000000 ) ) ;
#164 = EDGE_CURVE ( 'NONE', #133, #62, #47, .T. ) ;
#165 = EDGE_LOOP ( 'NONE', ( #216, #70, #184, #132 ) ) ;
#166 = ORIENTED_EDGE ( 'NONE', *, *, #173, .F. ) ;
#167 = APPROVAL_PERSON_ORGANIZATION ( #160, #128, #76 ) ;
#168 = DIRECTION ( 'NONE',  ( 0.000000000000000000, 0.000000000000000000, 1.000000000000000000 ) ) ;
#169 = CARTESIAN_POINT ( 'NONE',  ( 7.960204194457937472E-16, 180.0000000000000000, 6.500000000000115463 ) ) ;
#170 = DIRECTION ( 'NONE',  ( 0.000000000000000000, -0.000000000000000000, 1.000000000000000000 ) ) ;
#171 = APPROVAL_PERSON_ORGANIZATION ( #60, #114, #127 ) ;
#172 = ORIENTED_EDGE ( 'NONE', *, *, #140, .T. ) ;
#173 = EDGE_CURVE ( 'NONE', #18, #189, #82, .T. ) ;
#174 = CARTESIAN_POINT ( 'NONE',  ( 0.000000000000000000, 0.000000000000000000, 0.000000000000000000 ) ) ;
#175 = CALENDAR_DATE ( 2025, 24, 11 ) ;
#176 = DATE_AND_TIME ( #213, #101 ) ;
#177 = DIRECTION ( 'NONE',  ( 0.000000000000000000, 0.000000000000000000, 1.000000000000000000 ) ) ;
#178 = MECHANICAL_CONTEXT ( 'NONE', #14, 'mechanical' ) ;
#179 = PERSON_AND_ORGANIZATION ( #138, #41 ) ;
#180 = PERSON_AND_ORGANIZATION_ROLE ( 'design_supplier' ) ;
#181 = AXIS2_PLACEMENT_3D ( 'NONE', #206, #86, #121 ) ;
#182 = UNCERTAINTY_MEASURE_WITH_UNIT (LENGTH_MEASURE( 1.000000000000000082E-05 ), #21, 'distance_accuracy_value', 'NONE');
#183 = ORIENTED_EDGE ( 'NONE', *, *, #173, .T. ) ;
#184 = ORIENTED_EDGE ( 'NONE', *, *, #72, .T. ) ;
#185 = CC_DESIGN_SECURITY_CLASSIFICATION ( #75, ( #17 ) ) ;
#186 = CARTESIAN_POINT ( 'NONE',  ( 0.000000000000000000, 0.000000000000000000, -7.500000000000000000 ) ) ;
#187 = ADVANCED_FACE ( 'NONE', ( #56 ), #55, .T. ) ;
#188 = CARTESIAN_POINT ( 'NONE',  ( 0.000000000000000000, 180.0000000000000000, 0.000000000000000000 ) ) ;
#189 = VERTEX_POINT ( 'NONE', #125 ) ;
#190 = CARTESIAN_POINT ( 'NONE',  ( 0.000000000000000000, 179.0000000000001137, -7.500000000000000000 ) ) ;
#191 = COORDINATED_UNIVERSAL_TIME_OFFSET ( 0, 0, .AHEAD. ) ;
#192 = CONICAL_SURFACE ( 'NONE', #181, 6.500000000000115463, 0.7853981633974457255 ) ;
#193 = ADVANCED_FACE ( 'NONE', ( #123 ), #212, .F. ) ;
#194 = DIRECTION ( 'NONE',  ( 0.000000000000000000, 1.000000000000000000, 0.000000000000000000 ) ) ;
#195 = DIRECTION ( 'NONE',  ( 0.000000000000000000, -1.000000000000000000, 0.000000000000000000 ) ) ;
#196 = APPROVAL_DATE_TIME ( #81, #128 ) ;
#197 = ORIENTED_EDGE ( 'NONE', *, *, #72, .F. ) ;
#198 = CIRCLE ( 'NONE', #94, 6.500000000000115463 ) ;
#199 = CC_DESIGN_DATE_AND_TIME_ASSIGNMENT ( #20, #95, ( #99 ) ) ;
#200 = FACE_OUTER_BOUND ( 'NONE', #102, .T. ) ;
#201 = CC_DESIGN_PERSON_AND_ORGANIZATION_ASSIGNMENT ( #139, #208, ( #99 ) ) ;
#202 = DIRECTION ( 'NONE',  ( 0.000000000000000000, 0.000000000000000000, 1.000000000000000000 ) ) ;
#203 = AXIS2_PLACEMENT_3D ( 'NONE', #59, #77, #124 ) ;
#204 = FACE_OUTER_BOUND ( 'NONE', #135, .T. ) ;
#205 = DIRECTION ( 'NONE',  ( -0.000000000000000000, -1.000000000000000000, -0.000000000000000000 ) ) ;
#206 = CARTESIAN_POINT ( 'NONE',  ( 0.000000000000000000, 180.0000000000000000, 0.000000000000000000 ) ) ;
#207 = CONICAL_SURFACE ( 'NONE', #52, 6.500000000000115463, 0.7853981633974457255 ) ;
#208 = PERSON_AND_ORGANIZATION_ROLE ( 'creator' ) ;
#209 = EDGE_CURVE ( 'NONE', #26, #64, #107, .T. ) ;
#210 = APPLICATION_PROTOCOL_DEFINITION ( 'international standard', 'config_control_design', 1994, #14 ) ;
#211 = AXIS2_PLACEMENT_3D ( 'NONE', #188, #32, #170 ) ;
#212 = PLANE ( 'NONE',  #34 ) ;
#213 = CALENDAR_DATE ( 2025, 24, 11 ) ;
#214 = DATE_AND_TIME ( #100, #44 ) ;
#215 = DATE_AND_TIME ( #40, #73 ) ;
#216 = ORIENTED_EDGE ( 'NONE', *, *, #140, .F. ) ;
#217 = DIRECTION ( 'NONE',  ( 0.000000000000000000, 0.000000000000000000, 1.000000000000000000 ) ) ;
#218 = PRODUCT ( 'pillar', 'pillar', '', ( #178 ) ) ;
#219 = CARTESIAN_POINT ( 'NONE',  ( 0.000000000000000000, 180.0000000000000000, 0.000000000000000000 ) ) ;
#220 = AXIS2_PLACEMENT_3D ( 'NONE', #158, #115, #168 ) ;
#221 = DIRECTION ( 'NONE',  ( -0.000000000000000000, -1.000000000000000000, -0.000000000000000000 ) ) ;
#222 = FACE_OUTER_BOUND ( 'NONE', #105, .T. ) ;
#223 = PERSON_AND_ORGANIZATION ( #138, #41 ) ;
#224 = CC_DESIGN_APPROVAL ( #114, ( #75 ) ) ;
#225 = APPROVAL_STATUS ( 'not_yet_approved' ) ;
ENDSEC;
END-ISO-10303-21;
