ISO-10303-21;
HEADER;
FILE_DESCRIPTION (( 'STEP AP203' ),
    '1' );
FILE_NAME ('spacer.STEP',
    '2025-11-24T20:06:10',
    ( '' ),
    ( '' ),
    '',
    '',
    '' );
FILE_SCHEMA (( 'CONFIG_CONTROL_DESIGN' ));
ENDSEC;

DATA;
#1 = EDGE_CURVE ( 'NONE', #37, #234, #411, .T. ) ;
#2 = CARTESIAN_POINT ( 'NONE',  ( 7.500000000000000000, 1.301042606982605321E-15, 15.00000000000000000 ) ) ;
#3 = CARTESIAN_POINT ( 'NONE',  ( 7.500000000000000000, 1.301042606982605321E-15, 15.00000000000000000 ) ) ;
#4 = ORIENTED_EDGE ( 'NONE', *, *, #294, .T. ) ;
#5 = ORIENTED_EDGE ( 'NONE', *, *, #123, .F. ) ;
#6 = COORDINATED_UNIVERSAL_TIME_OFFSET ( 0, 0, .AHEAD. ) ;
#7 = VERTEX_POINT ( 'NONE', #120 ) ;
#8 = APPROVAL_STATUS ( 'not_yet_approved' ) ;
#9 = AXIS2_PLACEMENT_3D ( 'NONE', #222, #24, #154 ) ;
#10 = CALENDAR_DATE ( 2025, 24, 11 ) ;
#11 = PRODUCT_DEFINITION_SHAPE ( 'NONE', 'NONE',  #94 ) ;
#12 = ORIENTED_EDGE ( 'NONE', *, *, #145, .T. ) ;
#13 = ADVANCED_FACE ( 'NONE', ( #364 ), #87, .T. ) ;
#14 = CARTESIAN_POINT ( 'NONE',  ( -7.500000000000000000, -8.999999999999998224, 15.00000000000000000 ) ) ;
#15 = VECTOR ( 'NONE', #426, 1000.000000000000000 ) ;
#16 = CARTESIAN_POINT ( 'NONE',  ( -7.500000000000000000, 1.734723475976807094E-15, 13.10572394032469923 ) ) ;
#17 = LINE ( 'NONE', #423, #83 ) ;
#18 = LOCAL_TIME ( 20, 6, 10.00000000000000000, #383 ) ;
#19 = CARTESIAN_POINT ( 'NONE',  ( -7.500000000000000000, 1.734723475976807094E-15, -13.10572394032469923 ) ) ;
#20 = LINE ( 'NONE', #353, #378 ) ;
#21 = DIRECTION ( 'NONE',  ( -0.000000000000000000, 1.000000000000000000, -0.000000000000000000 ) ) ;
#22 = DIRECTION ( 'NONE',  ( 0.000000000000000000, 0.000000000000000000, -1.000000000000000000 ) ) ;
#23 = ORIENTED_EDGE ( 'NONE', *, *, #321, .T. ) ;
#24 = DIRECTION ( 'NONE',  ( 1.000000000000000000, 0.000000000000000000, 0.000000000000000000 ) ) ;
#25 = DIRECTION ( 'NONE',  ( 0.000000000000000000, 0.000000000000000000, -1.000000000000000000 ) ) ;
#26 = AXIS2_PLACEMENT_3D ( 'NONE', #254, #362, #193 ) ;
#27 = ORIENTED_EDGE ( 'NONE', *, *, #61, .T. ) ;
#28 = CARTESIAN_POINT ( 'NONE',  ( 7.500000000000000000, -8.999999999999998224, 15.00000000000000000 ) ) ;
#29 = DIRECTION ( 'NONE',  ( -1.000000000000000000, 0.000000000000000000, 0.000000000000000000 ) ) ;
#30 = ORIENTED_EDGE ( 'NONE', *, *, #173, .F. ) ;
#31 = DIRECTION ( 'NONE',  ( 1.000000000000000000, 0.000000000000000000, 0.000000000000000000 ) ) ;
#32 = ORIENTED_EDGE ( 'NONE', *, *, #177, .F. ) ;
#33 = CARTESIAN_POINT ( 'NONE',  ( -7.500000000000000000, -8.999999999999998224, 15.00000000000000000 ) ) ;
#34 = VERTEX_POINT ( 'NONE', #342 ) ;
#35 = CIRCLE ( 'NONE', #242, 12.00000000000000178 ) ;
#36 = PERSON_AND_ORGANIZATION ( #148, #150 ) ;
#37 = VERTEX_POINT ( 'NONE', #392 ) ;
#38 = PERSON_AND_ORGANIZATION ( #148, #150 ) ;
#39 = ADVANCED_FACE ( 'NONE', ( #158 ), #246, .F. ) ;
#40 = VERTEX_POINT ( 'NONE', #250 ) ;
#41 = APPROVAL_STATUS ( 'not_yet_approved' ) ;
#42 = ORIENTED_EDGE ( 'NONE', *, *, #238, .T. ) ;
#43 = CALENDAR_DATE ( 2025, 24, 11 ) ;
#44 = CARTESIAN_POINT ( 'NONE',  ( 7.500000000000000000, -8.999999999999998224, 15.00000000000000000 ) ) ;
#45 = DIRECTION ( 'NONE',  ( -1.000000000000000000, 0.000000000000000000, -0.000000000000000000 ) ) ;
#46 = CIRCLE ( 'NONE', #355, 15.09999999999999964 ) ;
#47 = CARTESIAN_POINT ( 'NONE',  ( -7.500000000000000000, -8.999999999999998224, -15.00000000000000000 ) ) ;
#48 = CC_DESIGN_PERSON_AND_ORGANIZATION_ASSIGNMENT ( #263, #170, ( #132 ) ) ;
#49 = DIRECTION ( 'NONE',  ( -1.000000000000000000, 0.000000000000000000, -0.000000000000000000 ) ) ;
#50 = EDGE_LOOP ( 'NONE', ( #430, #163, #102, #345 ) ) ;
#51 = DIRECTION ( 'NONE',  ( -1.000000000000000000, 0.000000000000000000, 0.000000000000000000 ) ) ;
#52 = EDGE_CURVE ( 'NONE', #340, #262, #330, .T. ) ;
#53 = LINE ( 'NONE', #225, #391 ) ;
#54 = DIRECTION ( 'NONE',  ( 0.000000000000000000, 1.000000000000000000, -0.000000000000000000 ) ) ;
#55 = PLANE ( 'NONE',  #109 ) ;
#56 = LOCAL_TIME ( 20, 6, 10.00000000000000000, #237 ) ;
#57 = DIRECTION ( 'NONE',  ( 0.000000000000000000, 0.000000000000000000, -1.000000000000000000 ) ) ;
#58 = APPLICATION_PROTOCOL_DEFINITION ( 'international standard', 'config_control_design', 1994, #140 ) ;
#59 = VECTOR ( 'NONE', #290, 1000.000000000000000 ) ;
#60 = CARTESIAN_POINT ( 'NONE',  ( -7.500000000000000000, -8.999999999999998224, 15.00000000000000000 ) ) ;
#61 = EDGE_CURVE ( 'NONE', #40, #37, #257, .T. ) ;
#62 = DIRECTION ( 'NONE',  ( -1.000000000000000000, 0.000000000000000000, 0.000000000000000000 ) ) ;
#63 = LINE ( 'NONE', #2, #397 ) ;
#64 = EDGE_LOOP ( 'NONE', ( #160, #408, #138, #414 ) ) ;
#65 = CARTESIAN_POINT ( 'NONE',  ( -7.500000000000000000, 1.301042606982605321E-15, -15.00000000000000000 ) ) ;
#66 = ORIENTED_EDGE ( 'NONE', *, *, #427, .F. ) ;
#67 = VECTOR ( 'NONE', #406, 1000.000000000000000 ) ;
#68 = PERSON_AND_ORGANIZATION ( #148, #150 ) ;
#69 = VERTEX_POINT ( 'NONE', #89 ) ;
#70 = ORIENTED_EDGE ( 'NONE', *, *, #265, .T. ) ;
#71 = PERSON_AND_ORGANIZATION_ROLE ( 'design_supplier' ) ;
#72 = ADVANCED_FACE ( 'NONE', ( #282 ), #161, .F. ) ;
#73 = CARTESIAN_POINT ( 'NONE',  ( 2.999999999999999556, 0.000000000000000000, 13.10572394032469923 ) ) ;
#74 = DIRECTION ( 'NONE',  ( -1.000000000000000000, 0.000000000000000000, 0.000000000000000000 ) ) ;
#75 = EDGE_CURVE ( 'NONE', #284, #293, #187, .T. ) ;
#76 = VECTOR ( 'NONE', #261, 1000.000000000000000 ) ;
#77 = DIRECTION ( 'NONE',  ( -1.000000000000000000, 0.000000000000000000, 0.000000000000000000 ) ) ;
#78 = VECTOR ( 'NONE', #292, 1000.000000000000000 ) ;
#79 = LINE ( 'NONE', #429, #119 ) ;
#80 = CARTESIAN_POINT ( 'NONE',  ( -7.500000000000000000, 1.734723475976807094E-15, 13.10572394032469923 ) ) ;
#81 = EDGE_CURVE ( 'NONE', #166, #302, #53, .T. ) ;
#82 = DIRECTION ( 'NONE',  ( 0.000000000000000000, 0.000000000000000000, -1.000000000000000000 ) ) ;
#83 = VECTOR ( 'NONE', #322, 1000.000000000000000 ) ;
#84 = VERTEX_POINT ( 'NONE', #437 ) ;
#85 = CARTESIAN_POINT ( 'NONE',  ( 7.500000000000000000, -8.999999999999998224, 15.00000000000000000 ) ) ;
#86 = FACE_OUTER_BOUND ( 'NONE', #129, .T. ) ;
#87 = PLANE ( 'NONE',  #285 ) ;
#88 = ORIENTED_EDGE ( 'NONE', *, *, #145, .F. ) ;
#89 = CARTESIAN_POINT ( 'NONE',  ( 7.500000000000000000, 1.301042606982605321E-15, 15.00000000000000000 ) ) ;
#90 = CARTESIAN_POINT ( 'NONE',  ( 2.999999999999999112, 7.500000000000000000, 0.000000000000000000 ) ) ;
#91 = DIRECTION ( 'NONE',  ( 0.000000000000000000, -0.000000000000000000, -1.000000000000000000 ) ) ;
#92 =( NAMED_UNIT ( * ) PLANE_ANGLE_UNIT ( ) SI_UNIT ( $, .RADIAN. ) );
#93 = ORIENTED_EDGE ( 'NONE', *, *, #128, .F. ) ;
#94 = PRODUCT_DEFINITION ( 'UNKNOWN', '', #132, #436 ) ;
#95 = CARTESIAN_POINT ( 'NONE',  ( 0.000000000000000000, 0.000000000000000000, 0.000000000000000000 ) ) ;
#96 = VERTEX_POINT ( 'NONE', #117 ) ;
#97 = ORIENTED_EDGE ( 'NONE', *, *, #427, .T. ) ;
#98 = AXIS2_PLACEMENT_3D ( 'NONE', #220, #31, #323 ) ;
#99 = APPROVAL_DATE_TIME ( #101, #269 ) ;
#100 = ORIENTED_EDGE ( 'NONE', *, *, #52, .F. ) ;
#101 = DATE_AND_TIME ( #377, #344 ) ;
#102 = ORIENTED_EDGE ( 'NONE', *, *, #52, .T. ) ;
#103 = APPROVAL_ROLE ( '' ) ;
#104 = ORIENTED_EDGE ( 'NONE', *, *, #294, .F. ) ;
#105 = CARTESIAN_POINT ( 'NONE',  ( 7.500000000000000000, -8.999999999999998224, 15.00000000000000000 ) ) ;
#106 = EDGE_CURVE ( 'NONE', #127, #37, #134, .T. ) ;
#107 = ADVANCED_BREP_SHAPE_REPRESENTATION ( 'spacer', ( #207, #351 ), #183 ) ;
#108 = DIRECTION ( 'NONE',  ( -0.000000000000000000, -0.000000000000000000, -1.000000000000000000 ) ) ;
#109 = AXIS2_PLACEMENT_3D ( 'NONE', #400, #288, #91 ) ;
#110 = CARTESIAN_POINT ( 'NONE',  ( 0.000000000000000000, 0.000000000000000000, -15.00000000000000000 ) ) ;
#111 = CIRCLE ( 'NONE', #369, 12.00000000000000178 ) ;
#112 = ORIENTED_EDGE ( 'NONE', *, *, #157, .T. ) ;
#113 = CC_DESIGN_DATE_AND_TIME_ASSIGNMENT ( #419, #137, ( #405 ) ) ;
#114 = CARTESIAN_POINT ( 'NONE',  ( -3.000000000000000888, 1.734723475976807094E-15, -9.367496997597601904 ) ) ;
#115 = CC_DESIGN_APPROVAL ( #433, ( #405 ) ) ;
#116 = DIRECTION ( 'NONE',  ( 0.000000000000000000, -1.000000000000000000, 0.000000000000000000 ) ) ;
#117 = CARTESIAN_POINT ( 'NONE',  ( -7.500000000000000000, 1.301042606982605321E-15, 15.00000000000000000 ) ) ;
#118 = LINE ( 'NONE', #155, #76 ) ;
#119 = VECTOR ( 'NONE', #389, 1000.000000000000000 ) ;
#120 = CARTESIAN_POINT ( 'NONE',  ( -7.500000000000000000, -8.999999999999998224, -15.00000000000000000 ) ) ;
#121 = ORIENTED_EDGE ( 'NONE', *, *, #75, .T. ) ;
#122 = CARTESIAN_POINT ( 'NONE',  ( -7.500000000000000000, -8.999999999999998224, 15.00000000000000000 ) ) ;
#123 = EDGE_CURVE ( 'NONE', #96, #340, #399, .T. ) ;
#124 = DIRECTION ( 'NONE',  ( 1.000000000000000000, -0.000000000000000000, -0.000000000000000000 ) ) ;
#125 = PLANE ( 'NONE',  #308 ) ;
#126 = FACE_OUTER_BOUND ( 'NONE', #314, .T. ) ;
#127 = VERTEX_POINT ( 'NONE', #326 ) ;
#128 = EDGE_CURVE ( 'NONE', #235, #289, #199, .T. ) ;
#129 = EDGE_LOOP ( 'NONE', ( #286, #215, #231, #32 ) ) ;
#130 = MECHANICAL_CONTEXT ( 'NONE', #140, 'mechanical' ) ;
#131 = ORIENTED_EDGE ( 'NONE', *, *, #75, .F. ) ;
#132 = PRODUCT_DEFINITION_FORMATION_WITH_SPECIFIED_SOURCE ( 'ANY', '', #301, .NOT_KNOWN. ) ;
#133 = DIRECTION ( 'NONE',  ( 0.000000000000000000, 0.000000000000000000, 1.000000000000000000 ) ) ;
#134 = CIRCLE ( 'NONE', #98, 15.09999999999999964 ) ;
#135 = DATE_AND_TIME ( #43, #18 ) ;
#136 = EDGE_CURVE ( 'NONE', #166, #40, #46, .T. ) ;
#137 = DATE_TIME_ROLE ( 'classification_date' ) ;
#138 = ORIENTED_EDGE ( 'NONE', *, *, #321, .F. ) ;
#139 = VECTOR ( 'NONE', #424, 1000.000000000000000 ) ;
#140 = APPLICATION_CONTEXT ( 'configuration controlled 3d designs of mechanical parts and assemblies' ) ;
#141 = PLANE ( 'NONE',  #267 ) ;
#142 = ADVANCED_FACE ( 'NONE', ( #224 ), #367, .F. ) ;
#143 = CARTESIAN_POINT ( 'NONE',  ( -3.000000000000000888, 1.734723475976807094E-15, 9.367496997597601904 ) ) ;
#144 = LINE ( 'NONE', #277, #15 ) ;
#145 = EDGE_CURVE ( 'NONE', #84, #234, #185, .T. ) ;
#146 = FACE_OUTER_BOUND ( 'NONE', #415, .T. ) ;
#147 = DIRECTION ( 'NONE',  ( 1.000000000000000000, -0.000000000000000000, 0.000000000000000000 ) ) ;
#148 = PERSON ( 'UNSPECIFIED', 'UNSPECIFIED', 'UNSPECIFIED', ('UNSPECIFIED'), ('UNSPECIFIED'), ('UNSPECIFIED') ) ;
#149 = ORIENTED_EDGE ( 'NONE', *, *, #173, .T. ) ;
#150 = ORGANIZATION ( 'UNSPECIFIED', 'UNSPECIFIED', '' ) ;
#151 = LINE ( 'NONE', #431, #416 ) ;
#152 = CARTESIAN_POINT ( 'NONE',  ( 2.999999999999999112, 0.000000000000000000, -9.367496997597601904 ) ) ;
#153 = ORIENTED_EDGE ( 'NONE', *, *, #265, .F. ) ;
#154 = DIRECTION ( 'NONE',  ( 0.000000000000000000, 0.000000000000000000, -1.000000000000000000 ) ) ;
#155 = CARTESIAN_POINT ( 'NONE',  ( -7.500000000000000000, 1.301042606982605321E-15, 15.00000000000000000 ) ) ;
#156 = VECTOR ( 'NONE', #21, 1000.000000000000000 ) ;
#157 = EDGE_CURVE ( 'NONE', #293, #334, #151, .T. ) ;
#158 = FACE_OUTER_BOUND ( 'NONE', #379, .T. ) ;
#159 = DIRECTION ( 'NONE',  ( 1.000000000000000000, -0.000000000000000000, -0.000000000000000000 ) ) ;
#160 = ORIENTED_EDGE ( 'NONE', *, *, #61, .F. ) ;
#161 = PLANE ( 'NONE',  #192 ) ;
#162 = LINE ( 'NONE', #376, #390 ) ;
#163 = ORIENTED_EDGE ( 'NONE', *, *, #123, .T. ) ;
#164 = EDGE_CURVE ( 'NONE', #340, #7, #244, .T. ) ;
#165 = DIRECTION ( 'NONE',  ( 1.000000000000000000, -0.000000000000000000, -0.000000000000000000 ) ) ;
#166 = VERTEX_POINT ( 'NONE', #73 ) ;
#167 = ORIENTED_EDGE ( 'NONE', *, *, #310, .F. ) ;
#168 = PERSON_AND_ORGANIZATION ( #148, #150 ) ;
#169 = ORIENTED_EDGE ( 'NONE', *, *, #375, .F. ) ;
#170 = PERSON_AND_ORGANIZATION_ROLE ( 'creator' ) ;
#171 = ORIENTED_EDGE ( 'NONE', *, *, #164, .T. ) ;
#172 = PERSON_AND_ORGANIZATION_ROLE ( 'creator' ) ;
#173 = EDGE_CURVE ( 'NONE', #293, #174, #35, .T. ) ;
#174 = VERTEX_POINT ( 'NONE', #143 ) ;
#175 = APPROVAL_DATE_TIME ( #135, #359 ) ;
#176 = ORIENTED_EDGE ( 'NONE', *, *, #177, .T. ) ;
#177 = EDGE_CURVE ( 'NONE', #334, #40, #79, .T. ) ;
#178 = LINE ( 'NONE', #16, #179 ) ;
#179 = VECTOR ( 'NONE', #74, 1000.000000000000000 ) ;
#180 = DIRECTION ( 'NONE',  ( 1.000000000000000000, -0.000000000000000000, -0.000000000000000000 ) ) ;
#181 = CARTESIAN_POINT ( 'NONE',  ( -7.500000000000000000, 1.301042606982605321E-15, 15.00000000000000000 ) ) ;
#182 = DIRECTION ( 'NONE',  ( -0.000000000000000000, -0.000000000000000000, -1.000000000000000000 ) ) ;
#183 =( GEOMETRIC_REPRESENTATION_CONTEXT ( 3 ) GLOBAL_UNCERTAINTY_ASSIGNED_CONTEXT ( ( #325 ) ) GLOBAL_UNIT_ASSIGNED_CONTEXT ( ( #251, #92, #372 ) ) REPRESENTATION_CONTEXT ( 'NONE', 'WORKASPACE' ) );
#184 = FACE_OUTER_BOUND ( 'NONE', #434, .T. ) ;
#185 = LINE ( 'NONE', #190, #156 ) ;
#186 = PRODUCT_RELATED_PRODUCT_CATEGORY ( 'detail', '', ( #301 ) ) ;
#187 = LINE ( 'NONE', #287, #59 ) ;
#188 = FACE_OUTER_BOUND ( 'NONE', #64, .T. ) ;
#189 = CARTESIAN_POINT ( 'NONE',  ( -3.000000000000000444, -9.001999999999997115, 15.00000000000000000 ) ) ;
#190 = CARTESIAN_POINT ( 'NONE',  ( 7.500000000000000000, 1.301042606982605321E-15, -15.00000000000000000 ) ) ;
#191 = AXIS2_PLACEMENT_3D ( 'NONE', #404, #165, #22 ) ;
#192 = AXIS2_PLACEMENT_3D ( 'NONE', #85, #54, #403 ) ;
#193 = DIRECTION ( 'NONE',  ( 0.000000000000000000, 0.000000000000000000, -1.000000000000000000 ) ) ;
#194 = CARTESIAN_POINT ( 'NONE',  ( -7.500000000000000000, 1.301042606982605321E-15, -15.00000000000000000 ) ) ;
#195 = ADVANCED_FACE ( 'NONE', ( #216 ), #141, .F. ) ;
#196 = ORIENTED_EDGE ( 'NONE', *, *, #209, .T. ) ;
#197 = EDGE_LOOP ( 'NONE', ( #30, #131, #382, #374 ) ) ;
#198 = DIRECTION ( 'NONE',  ( 1.000000000000000000, -0.000000000000000000, 0.000000000000000000 ) ) ;
#199 = CIRCLE ( 'NONE', #9, 15.09999999999999964 ) ;
#200 = APPROVAL_DATE_TIME ( #230, #433 ) ;
#201 = ORIENTED_EDGE ( 'NONE', *, *, #375, .T. ) ;
#202 = ORIENTED_EDGE ( 'NONE', *, *, #352, .F. ) ;
#203 = PERSON_AND_ORGANIZATION ( #148, #150 ) ;
#204 = ORIENTED_EDGE ( 'NONE', *, *, #366, .F. ) ;
#205 = SECURITY_CLASSIFICATION_LEVEL ( 'unclassified' ) ;
#206 = VECTOR ( 'NONE', #410, 1000.000000000000000 ) ;
#207 = MANIFOLD_SOLID_BREP ( 'Cut-Extrude2', #328 ) ;
#208 = ORIENTED_EDGE ( 'NONE', *, *, #310, .T. ) ;
#209 = EDGE_CURVE ( 'NONE', #262, #84, #239, .T. ) ;
#210 = DIRECTION ( 'NONE',  ( 0.000000000000000000, 0.000000000000000000, -1.000000000000000000 ) ) ;
#211 = LOCAL_TIME ( 20, 6, 10.00000000000000000, #413 ) ;
#212 = DIRECTION ( 'NONE',  ( 0.000000000000000000, 0.000000000000000000, 1.000000000000000000 ) ) ;
#213 = VECTOR ( 'NONE', #182, 1000.000000000000000 ) ;
#214 = CARTESIAN_POINT ( 'NONE',  ( 2.999999999999999112, 7.500000000000000000, 0.000000000000000000 ) ) ;
#215 = ORIENTED_EDGE ( 'NONE', *, *, #81, .F. ) ;
#216 = FACE_OUTER_BOUND ( 'NONE', #50, .T. ) ;
#217 = EDGE_CURVE ( 'NONE', #302, #334, #111, .T. ) ;
#218 = CARTESIAN_POINT ( 'NONE',  ( -3.000000000000000444, 0.000000000000000000, -13.10572394032469923 ) ) ;
#219 = AXIS2_PLACEMENT_3D ( 'NONE', #3, #407, #229 ) ;
#220 = CARTESIAN_POINT ( 'NONE',  ( 7.500000000000000000, 7.500000000000000000, 0.000000000000000000 ) ) ;
#221 = CC_DESIGN_PERSON_AND_ORGANIZATION_ASSIGNMENT ( #168, #71, ( #132 ) ) ;
#222 = CARTESIAN_POINT ( 'NONE',  ( -7.500000000000000000, 7.500000000000000000, 0.000000000000000000 ) ) ;
#223 = CYLINDRICAL_SURFACE ( 'NONE', #420, 15.09999999999999964 ) ;
#224 = FACE_OUTER_BOUND ( 'NONE', #365, .T. ) ;
#225 = CARTESIAN_POINT ( 'NONE',  ( 2.999999999999999556, 0.000000000000000000, 15.00000000000000000 ) ) ;
#226 = CARTESIAN_POINT ( 'NONE',  ( -7.500000000000000000, 1.301042606982605321E-15, 15.00000000000000000 ) ) ;
#227 = CIRCLE ( 'NONE', #421, 15.09999999999999964 ) ;
#228 = CC_DESIGN_PERSON_AND_ORGANIZATION_ASSIGNMENT ( #203, #299, ( #301 ) ) ;
#229 = DIRECTION ( 'NONE',  ( 0.000000000000000000, 0.000000000000000000, 1.000000000000000000 ) ) ;
#230 = DATE_AND_TIME ( #341, #211 ) ;
#231 = ORIENTED_EDGE ( 'NONE', *, *, #136, .T. ) ;
#232 = VECTOR ( 'NONE', #124, 1000.000000000000000 ) ;
#233 = PERSON_AND_ORGANIZATION ( #148, #150 ) ;
#234 = VERTEX_POINT ( 'NONE', #428 ) ;
#235 = VERTEX_POINT ( 'NONE', #245 ) ;
#236 = PERSON_AND_ORGANIZATION ( #148, #150 ) ;
#237 = COORDINATED_UNIVERSAL_TIME_OFFSET ( 0, 0, .AHEAD. ) ;
#238 = EDGE_CURVE ( 'NONE', #289, #284, #386, .T. ) ;
#239 = LINE ( 'NONE', #105, #309 ) ;
#240 = CC_DESIGN_APPROVAL ( #359, ( #94 ) ) ;
#241 = CARTESIAN_POINT ( 'NONE',  ( 2.999999999999999112, 0.000000000000000000, 9.367496997597601904 ) ) ;
#242 = AXIS2_PLACEMENT_3D ( 'NONE', #358, #77, #212 ) ;
#243 = EDGE_CURVE ( 'NONE', #174, #34, #20, .T. ) ;
#244 = LINE ( 'NONE', #14, #213 ) ;
#245 = CARTESIAN_POINT ( 'NONE',  ( -7.500000000000000000, 1.734723475976807094E-15, 13.10572394032469923 ) ) ;
#246 = CYLINDRICAL_SURFACE ( 'NONE', #26, 15.09999999999999964 ) ;
#247 = EDGE_CURVE ( 'NONE', #302, #174, #17, .T. ) ;
#248 = AXIS2_PLACEMENT_3D ( 'NONE', #110, #393, #49 ) ;
#249 = ORIENTED_EDGE ( 'NONE', *, *, #106, .F. ) ;
#250 = CARTESIAN_POINT ( 'NONE',  ( 2.999999999999999556, 0.000000000000000000, -13.10572394032469923 ) ) ;
#251 =( LENGTH_UNIT ( ) NAMED_UNIT ( * ) SI_UNIT ( .MILLI., .METRE. ) );
#252 = ORIENTED_EDGE ( 'NONE', *, *, #1, .F. ) ;
#253 = ORIENTED_EDGE ( 'NONE', *, *, #348, .F. ) ;
#254 = CARTESIAN_POINT ( 'NONE',  ( -7.500000000000000000, 7.500000000000000000, 0.000000000000000000 ) ) ;
#255 = DIRECTION ( 'NONE',  ( -1.000000000000000000, -0.000000000000000000, -0.000000000000000000 ) ) ;
#256 = CARTESIAN_POINT ( 'NONE',  ( 7.500000000000000000, 1.301042606982605321E-15, 15.00000000000000000 ) ) ;
#257 = LINE ( 'NONE', #332, #435 ) ;
#258 = CARTESIAN_POINT ( 'NONE',  ( 2.999999999999999556, -9.001999999999997115, 15.00000000000000000 ) ) ;
#259 = ADVANCED_FACE ( 'NONE', ( #184 ), #388, .F. ) ;
#260 = DIRECTION ( 'NONE',  ( 0.000000000000000000, 0.000000000000000000, 1.000000000000000000 ) ) ;
#261 = DIRECTION ( 'NONE',  ( -1.000000000000000000, -0.000000000000000000, -0.000000000000000000 ) ) ;
#262 = VERTEX_POINT ( 'NONE', #44 ) ;
#263 = PERSON_AND_ORGANIZATION ( #148, #150 ) ;
#264 = ORIENTED_EDGE ( 'NONE', *, *, #280, .T. ) ;
#265 = EDGE_CURVE ( 'NONE', #34, #235, #178, .T. ) ;
#266 = APPROVAL_ROLE ( '' ) ;
#267 = AXIS2_PLACEMENT_3D ( 'NONE', #319, #360, #45 ) ;
#268 = COORDINATED_UNIVERSAL_TIME_OFFSET ( 0, 0, .AHEAD. ) ;
#269 = APPROVAL ( #8, 'UNSPECIFIED' ) ;
#270 = APPROVAL_STATUS ( 'not_yet_approved' ) ;
#271 = ORIENTED_EDGE ( 'NONE', *, *, #422, .F. ) ;
#272 = VECTOR ( 'NONE', #180, 1000.000000000000000 ) ;
#273 = CARTESIAN_POINT ( 'NONE',  ( -7.500000000000000000, 1.734723475976807094E-15, -13.10572394032469923 ) ) ;
#274 = LINE ( 'NONE', #47, #139 ) ;
#275 = APPROVAL_PERSON_ORGANIZATION ( #236, #359, #307 ) ;
#276 = CC_DESIGN_DATE_AND_TIME_ASSIGNMENT ( #311, #338, ( #94 ) ) ;
#277 = CARTESIAN_POINT ( 'NONE',  ( 7.500000000000000000, 1.301042606982605321E-15, 15.00000000000000000 ) ) ;
#278 = LINE ( 'NONE', #80, #354 ) ;
#279 = ORIENTED_EDGE ( 'NONE', *, *, #128, .T. ) ;
#280 = EDGE_CURVE ( 'NONE', #329, #7, #274, .T. ) ;
#281 = DIRECTION ( 'NONE',  ( 1.000000000000000000, -0.000000000000000000, -0.000000000000000000 ) ) ;
#282 = FACE_OUTER_BOUND ( 'NONE', #380, .T. ) ;
#283 = FACE_OUTER_BOUND ( 'NONE', #305, .T. ) ;
#284 = VERTEX_POINT ( 'NONE', #218 ) ;
#285 = AXIS2_PLACEMENT_3D ( 'NONE', #189, #62, #260 ) ;
#286 = ORIENTED_EDGE ( 'NONE', *, *, #217, .F. ) ;
#287 = CARTESIAN_POINT ( 'NONE',  ( -3.000000000000000444, 0.000000000000000000, 15.00000000000000000 ) ) ;
#288 = DIRECTION ( 'NONE',  ( 0.000000000000000000, -1.000000000000000000, 0.000000000000000000 ) ) ;
#289 = VERTEX_POINT ( 'NONE', #19 ) ;
#290 = DIRECTION ( 'NONE',  ( -0.000000000000000000, -0.000000000000000000, 1.000000000000000000 ) ) ;
#291 = DIRECTION ( 'NONE',  ( 0.000000000000000000, 0.000000000000000000, 1.000000000000000000 ) ) ;
#292 = DIRECTION ( 'NONE',  ( -0.000000000000000000, -0.000000000000000000, -1.000000000000000000 ) ) ;
#293 = VERTEX_POINT ( 'NONE', #114 ) ;
#294 = EDGE_CURVE ( 'NONE', #96, #235, #395, .T. ) ;
#295 = CC_DESIGN_APPROVAL ( #269, ( #132 ) ) ;
#296 = CARTESIAN_POINT ( 'NONE',  ( -7.500000000000000000, 7.500000000000000000, 0.000000000000000000 ) ) ;
#297 = PLANE ( 'NONE',  #219 ) ;
#298 = ORIENTED_EDGE ( 'NONE', *, *, #81, .T. ) ;
#299 = PERSON_AND_ORGANIZATION_ROLE ( 'design_owner' ) ;
#300 = CC_DESIGN_PERSON_AND_ORGANIZATION_ASSIGNMENT ( #36, #172, ( #94 ) ) ;
#301 = PRODUCT ( 'spacer', 'spacer', '', ( #130 ) ) ;
#302 = VERTEX_POINT ( 'NONE', #241 ) ;
#303 = SHAPE_DEFINITION_REPRESENTATION ( #11, #107 ) ;
#304 = APPROVAL_PERSON_ORGANIZATION ( #68, #433, #103 ) ;
#305 = EDGE_LOOP ( 'NONE', ( #298, #439, #394, #70, #104, #204, #208, #23 ) ) ;
#306 = ORIENTED_EDGE ( 'NONE', *, *, #1, .T. ) ;
#307 = APPROVAL_ROLE ( '' ) ;
#308 = AXIS2_PLACEMENT_3D ( 'NONE', #258, #198, #327 ) ;
#309 = VECTOR ( 'NONE', #356, 1000.000000000000000 ) ;
#310 = EDGE_CURVE ( 'NONE', #69, #127, #144, .T. ) ;
#311 = DATE_AND_TIME ( #418, #56 ) ;
#312 = ORIENTED_EDGE ( 'NONE', *, *, #422, .T. ) ;
#313 = APPROVAL_PERSON_ORGANIZATION ( #233, #269, #266 ) ;
#314 = EDGE_LOOP ( 'NONE', ( #252, #249, #167, #202, #196, #12 ) ) ;
#315 = DIRECTION ( 'NONE',  ( -0.000000000000000000, -0.000000000000000000, 1.000000000000000000 ) ) ;
#316 = AXIS2_PLACEMENT_3D ( 'NONE', #60, #361, #57 ) ;
#317 = DIRECTION ( 'NONE',  ( 0.000000000000000000, -0.000000000000000000, -1.000000000000000000 ) ) ;
#318 = ADVANCED_FACE ( 'NONE', ( #146 ), #320, .T. ) ;
#319 = CARTESIAN_POINT ( 'NONE',  ( 0.000000000000000000, 0.000000000000000000, 15.00000000000000000 ) ) ;
#320 = PLANE ( 'NONE',  #248 ) ;
#321 = EDGE_CURVE ( 'NONE', #127, #166, #278, .T. ) ;
#322 = DIRECTION ( 'NONE',  ( -1.000000000000000000, 0.000000000000000000, 0.000000000000000000 ) ) ;
#323 = DIRECTION ( 'NONE',  ( 0.000000000000000000, 0.000000000000000000, -1.000000000000000000 ) ) ;
#324 = CC_DESIGN_SECURITY_CLASSIFICATION ( #405, ( #132 ) ) ;
#325 = UNCERTAINTY_MEASURE_WITH_UNIT (LENGTH_MEASURE( 1.000000000000000082E-05 ), #251, 'distance_accuracy_value', 'NONE');
#326 = CARTESIAN_POINT ( 'NONE',  ( 7.500000000000000000, 1.734723475976807094E-15, 13.10572394032469923 ) ) ;
#327 = DIRECTION ( 'NONE',  ( 0.000000000000000000, 0.000000000000000000, -1.000000000000000000 ) ) ;
#328 = CLOSED_SHELL ( 'NONE', ( #259, #39, #417, #142, #72, #402, #195, #318, #337, #387, #13, #385 ) ) ;
#329 = VERTEX_POINT ( 'NONE', #65 ) ;
#330 = LINE ( 'NONE', #28, #232 ) ;
#331 = CC_DESIGN_PERSON_AND_ORGANIZATION_ASSIGNMENT ( #38, #347, ( #405 ) ) ;
#332 = CARTESIAN_POINT ( 'NONE',  ( -7.500000000000000000, 1.734723475976807094E-15, -13.10572394032469923 ) ) ;
#333 = DIRECTION ( 'NONE',  ( -0.000000000000000000, 1.000000000000000000, -0.000000000000000000 ) ) ;
#334 = VERTEX_POINT ( 'NONE', #152 ) ;
#335 = CARTESIAN_POINT ( 'NONE',  ( -3.000000000000000888, 7.500000000000000000, 0.000000000000000000 ) ) ;
#336 = EDGE_LOOP ( 'NONE', ( #149, #425, #349, #357 ) ) ;
#337 = ADVANCED_FACE ( 'NONE', ( #188 ), #223, .F. ) ;
#338 = DATE_TIME_ROLE ( 'creation_date' ) ;
#339 = AXIS2_PLACEMENT_3D ( 'NONE', #350, #116, #317 ) ;
#340 = VERTEX_POINT ( 'NONE', #33 ) ;
#341 = CALENDAR_DATE ( 2025, 24, 11 ) ;
#342 = CARTESIAN_POINT ( 'NONE',  ( -3.000000000000000888, 1.734723475976807094E-15, 13.10572394032469923 ) ) ;
#343 = APPLICATION_PROTOCOL_DEFINITION ( 'international standard', 'config_control_design', 1994, #371 ) ;
#344 = LOCAL_TIME ( 20, 6, 10.00000000000000000, #268 ) ;
#345 = ORIENTED_EDGE ( 'NONE', *, *, #352, .T. ) ;
#346 = ORIENTED_EDGE ( 'NONE', *, *, #209, .F. ) ;
#347 = PERSON_AND_ORGANIZATION_ROLE ( 'classification_officer' ) ;
#348 = EDGE_CURVE ( 'NONE', #284, #34, #227, .T. ) ;
#349 = ORIENTED_EDGE ( 'NONE', *, *, #217, .T. ) ;
#350 = CARTESIAN_POINT ( 'NONE',  ( -7.500000000000000000, 1.301042606982605321E-15, 15.00000000000000000 ) ) ;
#351 = AXIS2_PLACEMENT_3D ( 'NONE', #95, #133, #381 ) ;
#352 = EDGE_CURVE ( 'NONE', #262, #69, #63, .T. ) ;
#353 = CARTESIAN_POINT ( 'NONE',  ( -3.000000000000000444, 0.000000000000000000, 15.00000000000000000 ) ) ;
#354 = VECTOR ( 'NONE', #51, 1000.000000000000000 ) ;
#355 = AXIS2_PLACEMENT_3D ( 'NONE', #90, #370, #82 ) ;
#356 = DIRECTION ( 'NONE',  ( -0.000000000000000000, -0.000000000000000000, -1.000000000000000000 ) ) ;
#357 = ORIENTED_EDGE ( 'NONE', *, *, #157, .F. ) ;
#358 = CARTESIAN_POINT ( 'NONE',  ( -3.000000000000000888, 7.500000000000000000, 0.000000000000000000 ) ) ;
#359 = APPROVAL ( #41, 'UNSPECIFIED' ) ;
#360 = DIRECTION ( 'NONE',  ( 0.000000000000000000, 0.000000000000000000, -1.000000000000000000 ) ) ;
#361 = DIRECTION ( 'NONE',  ( 1.000000000000000000, 0.000000000000000000, 0.000000000000000000 ) ) ;
#362 = DIRECTION ( 'NONE',  ( 1.000000000000000000, -0.000000000000000000, -0.000000000000000000 ) ) ;
#363 = CYLINDRICAL_SURFACE ( 'NONE', #191, 12.00000000000000178 ) ;
#364 = FACE_OUTER_BOUND ( 'NONE', #197, .T. ) ;
#365 = EDGE_LOOP ( 'NONE', ( #4, #279, #97, #264, #373, #5 ) ) ;
#366 = EDGE_CURVE ( 'NONE', #69, #96, #118, .T. ) ;
#367 = PLANE ( 'NONE',  #316 ) ;
#368 = LINE ( 'NONE', #226, #206 ) ;
#369 = AXIS2_PLACEMENT_3D ( 'NONE', #214, #147, #210 ) ;
#370 = DIRECTION ( 'NONE',  ( 1.000000000000000000, -0.000000000000000000, 0.000000000000000000 ) ) ;
#371 = APPLICATION_CONTEXT ( 'configuration controlled 3d designs of mechanical parts and assemblies' ) ;
#372 =( NAMED_UNIT ( * ) SI_UNIT ( $, .STERADIAN. ) SOLID_ANGLE_UNIT ( ) );
#373 = ORIENTED_EDGE ( 'NONE', *, *, #164, .F. ) ;
#374 = ORIENTED_EDGE ( 'NONE', *, *, #243, .F. ) ;
#375 = EDGE_CURVE ( 'NONE', #7, #84, #162, .T. ) ;
#376 = CARTESIAN_POINT ( 'NONE',  ( 7.500000000000000000, -8.999999999999998224, -15.00000000000000000 ) ) ;
#377 = CALENDAR_DATE ( 2025, 24, 11 ) ;
#378 = VECTOR ( 'NONE', #315, 1000.000000000000000 ) ;
#379 = EDGE_LOOP ( 'NONE', ( #153, #253, #412, #93 ) ) ;
#380 = EDGE_LOOP ( 'NONE', ( #201, #346, #100, #171 ) ) ;
#381 = DIRECTION ( 'NONE',  ( 1.000000000000000000, 0.000000000000000000, 0.000000000000000000 ) ) ;
#382 = ORIENTED_EDGE ( 'NONE', *, *, #348, .T. ) ;
#383 = COORDINATED_UNIVERSAL_TIME_OFFSET ( 0, 0, .AHEAD. ) ;
#384 = LOCAL_TIME ( 20, 6, 10.00000000000000000, #6 ) ;
#385 = ADVANCED_FACE ( 'NONE', ( #441 ), #363, .F. ) ;
#386 = LINE ( 'NONE', #273, #272 ) ;
#387 = ADVANCED_FACE ( 'NONE', ( #86 ), #125, .T. ) ;
#388 = PLANE ( 'NONE',  #339 ) ;
#389 = DIRECTION ( 'NONE',  ( 0.000000000000000000, 0.000000000000000000, -1.000000000000000000 ) ) ;
#390 = VECTOR ( 'NONE', #159, 1000.000000000000000 ) ;
#391 = VECTOR ( 'NONE', #440, 1000.000000000000000 ) ;
#392 = CARTESIAN_POINT ( 'NONE',  ( 7.500000000000000000, 1.734723475976807094E-15, -13.10572394032469923 ) ) ;
#393 = DIRECTION ( 'NONE',  ( 0.000000000000000000, 0.000000000000000000, -1.000000000000000000 ) ) ;
#394 = ORIENTED_EDGE ( 'NONE', *, *, #243, .T. ) ;
#395 = LINE ( 'NONE', #181, #398 ) ;
#396 = DIRECTION ( 'NONE',  ( 1.000000000000000000, -0.000000000000000000, -0.000000000000000000 ) ) ;
#397 = VECTOR ( 'NONE', #333, 1000.000000000000000 ) ;
#398 = VECTOR ( 'NONE', #108, 1000.000000000000000 ) ;
#399 = LINE ( 'NONE', #122, #67 ) ;
#400 = CARTESIAN_POINT ( 'NONE',  ( -7.500000000000000000, 1.301042606982605321E-15, 15.00000000000000000 ) ) ;
#401 = ORIENTED_EDGE ( 'NONE', *, *, #280, .F. ) ;
#402 = ADVANCED_FACE ( 'NONE', ( #126 ), #297, .F. ) ;
#403 = DIRECTION ( 'NONE',  ( 0.000000000000000000, 0.000000000000000000, 1.000000000000000000 ) ) ;
#404 = CARTESIAN_POINT ( 'NONE',  ( -7.500000000000000000, 7.500000000000000000, 0.000000000000000000 ) ) ;
#405 = SECURITY_CLASSIFICATION ( '', '', #205 ) ;
#406 = DIRECTION ( 'NONE',  ( -0.000000000000000000, -1.000000000000000000, -0.000000000000000000 ) ) ;
#407 = DIRECTION ( 'NONE',  ( -1.000000000000000000, 0.000000000000000000, 0.000000000000000000 ) ) ;
#408 = ORIENTED_EDGE ( 'NONE', *, *, #136, .F. ) ;
#409 = VECTOR ( 'NONE', #255, 1000.000000000000000 ) ;
#410 = DIRECTION ( 'NONE',  ( -0.000000000000000000, -0.000000000000000000, -1.000000000000000000 ) ) ;
#411 = LINE ( 'NONE', #256, #78 ) ;
#412 = ORIENTED_EDGE ( 'NONE', *, *, #238, .F. ) ;
#413 = COORDINATED_UNIVERSAL_TIME_OFFSET ( 0, 0, .AHEAD. ) ;
#414 = ORIENTED_EDGE ( 'NONE', *, *, #106, .T. ) ;
#415 = EDGE_LOOP ( 'NONE', ( #271, #88, #169, #401 ) ) ;
#416 = VECTOR ( 'NONE', #281, 1000.000000000000000 ) ;
#417 = ADVANCED_FACE ( 'NONE', ( #283 ), #55, .F. ) ;
#418 = CALENDAR_DATE ( 2025, 24, 11 ) ;
#419 = DATE_AND_TIME ( #10, #384 ) ;
#420 = AXIS2_PLACEMENT_3D ( 'NONE', #296, #438, #25 ) ;
#421 = AXIS2_PLACEMENT_3D ( 'NONE', #335, #29, #291 ) ;
#422 = EDGE_CURVE ( 'NONE', #234, #329, #432, .T. ) ;
#423 = CARTESIAN_POINT ( 'NONE',  ( -7.500000000000000000, 1.734723475976807094E-15, 9.367496997597601904 ) ) ;
#424 = DIRECTION ( 'NONE',  ( -0.000000000000000000, -1.000000000000000000, -0.000000000000000000 ) ) ;
#425 = ORIENTED_EDGE ( 'NONE', *, *, #247, .F. ) ;
#426 = DIRECTION ( 'NONE',  ( -0.000000000000000000, -0.000000000000000000, -1.000000000000000000 ) ) ;
#427 = EDGE_CURVE ( 'NONE', #289, #329, #368, .T. ) ;
#428 = CARTESIAN_POINT ( 'NONE',  ( 7.500000000000000000, 1.301042606982605321E-15, -15.00000000000000000 ) ) ;
#429 = CARTESIAN_POINT ( 'NONE',  ( 2.999999999999999556, 0.000000000000000000, 15.00000000000000000 ) ) ;
#430 = ORIENTED_EDGE ( 'NONE', *, *, #366, .T. ) ;
#431 = CARTESIAN_POINT ( 'NONE',  ( -7.500000000000000000, 1.734723475976807094E-15, -9.367496997597601904 ) ) ;
#432 = LINE ( 'NONE', #194, #409 ) ;
#433 = APPROVAL ( #270, 'UNSPECIFIED' ) ;
#434 = EDGE_LOOP ( 'NONE', ( #121, #112, #176, #27, #306, #312, #66, #42 ) ) ;
#435 = VECTOR ( 'NONE', #396, 1000.000000000000000 ) ;
#436 = DESIGN_CONTEXT ( 'detailed design', #371, 'design' ) ;
#437 = CARTESIAN_POINT ( 'NONE',  ( 7.500000000000000000, -8.999999999999998224, -15.00000000000000000 ) ) ;
#438 = DIRECTION ( 'NONE',  ( 1.000000000000000000, -0.000000000000000000, -0.000000000000000000 ) ) ;
#439 = ORIENTED_EDGE ( 'NONE', *, *, #247, .T. ) ;
#440 = DIRECTION ( 'NONE',  ( 0.000000000000000000, 0.000000000000000000, -1.000000000000000000 ) ) ;
#441 = FACE_OUTER_BOUND ( 'NONE', #336, .T. ) ;
ENDSEC;
END-ISO-10303-21;
